<svg width="56" height="56" viewBox="0 0 56 56" fill="none" xmlns="http://www.w3.org/2000/svg">
<g clip-path="url(#clip0_2_5916)">
<path d="M47.2737 33.0684C47.2737 21.9806 38.6448 16.8306 28.0005 16.8306C17.3562 16.8306 8.72729 21.9806 8.72729 33.0684C8.72729 41.2463 13.4217 48.2816 20.1565 51.4112C21.709 52.1326 23.097 53.1649 24.2777 54.4046C26.3038 56.5318 29.6973 56.5318 31.7234 54.4046C32.9041 53.165 34.2922 52.1327 35.8447 51.4112C42.5793 48.2816 47.2737 41.2463 47.2737 33.0684Z" fill="url(#paint0_linear_2_5916)"/>
<path d="M9.14509 29.0761L33.1564 53.0873C33.9823 52.4256 34.8815 51.8586 35.8441 51.4112C42.5788 48.2816 47.2732 41.2463 47.2732 33.0684C47.2732 21.9806 38.6442 16.8306 28 16.8306C18.7274 16.8306 10.9852 20.7396 9.14355 29.0769L9.14509 29.0761Z" fill="url(#paint1_linear_2_5916)"/>
<path d="M48.2338 26.322C48.2338 35.631 7.76685 35.631 7.76685 26.322C7.76685 17.0129 13.0234 9.46631 28.0003 9.46631C42.9772 9.46631 48.2338 17.0128 48.2338 26.322Z" fill="url(#paint2_linear_2_5916)"/>
<path d="M42.4762 26.322C42.4762 35.631 13.5249 35.631 13.5249 26.322C13.5249 17.0129 17.2856 9.46631 28.0006 9.46631C38.7156 9.46631 42.4762 17.0128 42.4762 26.322Z" fill="url(#paint3_linear_2_5916)"/>
<path d="M33.393 26.322C33.393 35.631 22.6072 35.631 22.6072 26.322C22.6072 17.0129 24.0082 9.46631 28.0001 9.46631C31.992 9.46631 33.393 17.0128 33.393 26.322Z" fill="url(#paint4_linear_2_5916)"/>
<path d="M28 9.46631C15.7778 9.46631 10.0298 14.4924 8.32861 21.4005C12.8424 28.2967 43.1577 28.2967 47.6715 21.4005C45.9702 14.4924 40.2222 9.46631 28 9.46631V9.46631Z" fill="url(#paint5_linear_2_5916)"/>
<path d="M44.2165 14.8922C41.0681 11.5562 35.88 9.46631 27.9997 9.46631C20.1194 9.46631 14.9314 11.5563 11.783 14.8923C19.5327 18.3559 36.4666 18.3559 44.2165 14.8922V14.8922Z" fill="url(#paint6_linear_2_5916)"/>
<path d="M7.76685 26.3218C7.76685 35.6308 48.2338 35.6308 48.2338 26.3218C48.2338 23.7376 47.8278 21.2899 46.9223 19.1011H9.07823C8.17268 21.2898 7.76685 23.7376 7.76685 26.3218V26.3218Z" fill="url(#paint7_linear_2_5916)"/>
<path d="M28.0002 9.46631C27.412 9.46631 26.8404 9.47927 26.282 9.50221V11.6354L44.9826 30.336C47.0072 29.2798 48.2337 27.942 48.2337 26.322C48.2337 17.0128 42.9771 9.46631 28.0002 9.46631V9.46631Z" fill="url(#paint8_linear_2_5916)"/>
<path d="M27.9866 12.3679C26.6728 12.3679 25.6077 11.3028 25.6077 9.98897V6.96728C25.6077 4.59859 26.5301 2.37155 28.2053 0.696706C29.1343 -0.232455 30.6407 -0.232126 31.5696 0.697035C32.4985 1.62598 32.4985 3.13238 31.5693 4.06132C30.793 4.83741 30.3656 5.86957 30.3656 6.96739V9.98908C30.3655 11.3028 29.3005 12.3679 27.9866 12.3679V12.3679Z" fill="url(#paint9_linear_2_5916)"/>
<path d="M12.095 44.4033C14.0992 47.4489 16.8862 49.8916 20.1566 51.4114C21.7091 52.1328 23.0971 53.165 24.2778 54.4047C26.3039 56.532 29.6974 56.532 31.7235 54.4047C32.9042 53.1652 34.2923 52.1329 35.8448 51.4114C39.1153 49.8916 41.9022 47.4489 43.9064 44.4033H12.095Z" fill="url(#paint10_linear_2_5916)"/>
</g>
<defs>
<linearGradient id="paint0_linear_2_5916" x1="15.2455" y1="23.8755" x2="42.3979" y2="45.7038" gradientUnits="userSpaceOnUse">
<stop stop-color="#FEE97D"/>
<stop offset="1" stop-color="#FE860A"/>
</linearGradient>
<linearGradient id="paint1_linear_2_5916" x1="32.3897" y1="53.3811" x2="24.3612" y2="8.85957" gradientUnits="userSpaceOnUse">
<stop stop-color="#FE7701" stop-opacity="0"/>
<stop offset="0.398" stop-color="#E05915" stop-opacity="0.398"/>
<stop offset="1" stop-color="#AC2538"/>
</linearGradient>
<linearGradient id="paint2_linear_2_5916" x1="20.2864" y1="12.6635" x2="31.8831" y2="29.5314" gradientUnits="userSpaceOnUse">
<stop stop-color="#C5715A"/>
<stop offset="1" stop-color="#883F2E"/>
</linearGradient>
<linearGradient id="paint3_linear_2_5916" x1="25.2913" y1="11.461" x2="32.4278" y2="47.3055" gradientUnits="userSpaceOnUse">
<stop stop-color="#883F2E" stop-opacity="0"/>
<stop offset="1" stop-color="#42210B"/>
</linearGradient>
<linearGradient id="paint4_linear_2_5916" x1="25.5938" y1="11.6701" x2="32.4794" y2="46.2547" gradientUnits="userSpaceOnUse">
<stop stop-color="#883F2E" stop-opacity="0"/>
<stop offset="1" stop-color="#42210B"/>
</linearGradient>
<linearGradient id="paint5_linear_2_5916" x1="24.6679" y1="14.7389" x2="39.3462" y2="41.6628" gradientUnits="userSpaceOnUse">
<stop stop-color="#883F2E" stop-opacity="0"/>
<stop offset="1" stop-color="#42210B"/>
</linearGradient>
<linearGradient id="paint6_linear_2_5916" x1="26.4927" y1="11.431" x2="39.0627" y2="40.3012" gradientUnits="userSpaceOnUse">
<stop stop-color="#883F2E" stop-opacity="0"/>
<stop offset="1" stop-color="#42210B"/>
</linearGradient>
<linearGradient id="paint7_linear_2_5916" x1="28.0003" y1="23.9668" x2="28.0003" y2="32.9718" gradientUnits="userSpaceOnUse">
<stop stop-color="#883F2E" stop-opacity="0"/>
<stop offset="1" stop-color="#42210B"/>
</linearGradient>
<linearGradient id="paint8_linear_2_5916" x1="41.9491" y1="20.2631" x2="24.6147" y2="5.1792" gradientUnits="userSpaceOnUse">
<stop stop-color="#883F2E" stop-opacity="0"/>
<stop offset="1" stop-color="#42210B"/>
</linearGradient>
<linearGradient id="paint9_linear_2_5916" x1="26.2578" y1="4.47901" x2="29.8261" y2="6.74977" gradientUnits="userSpaceOnUse">
<stop stop-color="#C5715A"/>
<stop offset="1" stop-color="#883F2E"/>
</linearGradient>
<linearGradient id="paint10_linear_2_5916" x1="28.0007" y1="46.8361" x2="28.0007" y2="57.3153" gradientUnits="userSpaceOnUse">
<stop stop-color="#FE7701" stop-opacity="0"/>
<stop offset="0.398" stop-color="#E05915" stop-opacity="0.398"/>
<stop offset="1" stop-color="#AC2538"/>
</linearGradient>
<clipPath id="clip0_2_5916">
<rect width="56" height="56" fill="white"/>
</clipPath>
</defs>
</svg>
