<svg width="56" height="56" viewBox="0 0 56 56" fill="none" xmlns="http://www.w3.org/2000/svg">
<g clip-path="url(#clip0_2_5930)">
<path d="M46.9107 0.502019C43.9241 0.532862 36.1229 1.56875 35.8644 11.5224C35.8468 12.2004 36.4021 12.7556 37.08 12.738C47.0336 12.4797 48.0695 4.67828 48.1004 1.69169C48.1073 1.03282 47.5698 0.495128 46.9107 0.502019Z" fill="url(#paint0_linear_2_5930)"/>
<path d="M47.7605 0.852539L36.2173 12.396C36.4383 12.6144 36.7443 12.747 37.0807 12.7381C47.0343 12.4798 48.0701 4.67837 48.1011 1.69177C48.1043 1.36496 47.9735 1.06812 47.7605 0.852539Z" fill="url(#paint1_linear_2_5930)"/>
<path d="M42.5035 9.49343C39.8737 10.0596 37.4078 12.3855 35.6174 12.3855C33.8271 12.3855 31.3612 10.0596 28.7314 9.49343C23.153 8.76357 15.2349 12.6609 15.2349 24.6426C15.2349 36.6243 23.9113 46.4025 27.6297 46.4025C31.7613 46.4025 32.3121 44.4744 35.6174 44.4744C38.9228 44.4744 39.4737 46.4025 43.6052 46.4025C47.3237 46.4025 56 36.6243 56 24.6426C56 12.6609 48.0818 8.76346 42.5035 9.49343Z" fill="url(#paint2_linear_2_5930)"/>
<path d="M45.3456 9.5172C44.3663 9.37928 43.4047 9.37567 42.5042 9.49357C39.8744 10.0597 37.4085 12.3857 35.6181 12.3857C35.5726 12.3857 35.5266 12.3831 35.4802 12.3803V15.2961L37.9197 15.751L54.7101 18.8818L45.3456 9.5172Z" fill="url(#paint3_linear_2_5930)"/>
<path d="M36.6237 15.4207C36.2644 15.451 35.8938 15.4674 35.5167 15.4674C35.2507 15.4674 34.9898 15.4599 34.7325 15.4435C34.701 13.6167 34.5005 11.375 33.8979 9.1335C33.5398 7.79836 33.038 6.46202 32.3434 5.21262C31.1683 3.10092 29.9796 2.22592 29.9669 2.21706C29.5458 1.91191 29.4473 1.32314 29.7488 0.899531C30.0514 0.477234 30.6351 0.375078 31.06 0.67389C31.2327 0.794859 34.3379 3.05422 35.8331 9.03648C36.2808 10.8202 36.5834 12.9333 36.6237 15.4207Z" fill="url(#paint4_linear_2_5930)"/>
<path d="M17.1707 34.5264C19.9474 41.5651 25.0152 46.4023 27.6307 46.4023C31.7624 46.4023 32.3132 44.4742 35.6185 44.4742C38.9238 44.4742 39.4747 46.4023 43.6063 46.4023C46.2215 46.4023 51.2894 41.5651 54.0663 34.5264H17.1707Z" fill="url(#paint5_linear_2_5930)"/>
<path d="M42.9262 13.171C42.6543 13.3737 42.3746 13.5452 42.0878 13.6968C41.7958 13.8411 41.5028 13.9724 41.2011 14.0827C40.6008 14.3072 39.9806 14.4681 39.3564 14.5953C38.1064 14.8473 36.8315 14.9534 35.5558 14.9545C34.2827 14.9499 33.0037 14.8462 31.7549 14.5944C31.1293 14.4704 30.5129 14.3023 29.9115 14.08C29.6071 13.974 29.318 13.8374 29.024 13.6959C28.8829 13.6178 28.7348 13.5441 28.5998 13.4517C28.4538 13.3707 28.327 13.2667 28.1851 13.1709C28.3744 13.4976 28.6232 13.7903 28.9042 14.0526L41.0341 26.1825C41.3187 26.4918 41.6521 26.763 42.0024 26.9967C42.5797 27.3822 43.2118 27.6815 43.8634 27.9112C45.1718 28.3688 46.5509 28.571 47.9282 28.5736C49.3027 28.5714 50.6861 28.3666 51.9922 27.9087C52.6426 27.6754 53.2769 27.384 53.8535 26.9966C54.4256 26.6107 54.9576 26.1327 55.2985 25.5435L42.9262 13.171Z" fill="url(#paint6_linear_2_5930)"/>
<path d="M42.9262 13.171C42.5855 13.7603 42.0535 14.2383 41.4813 14.6241C40.9045 15.0115 40.2704 15.3027 39.6199 15.5361C38.3138 15.994 36.9305 16.1988 35.556 16.201C34.1786 16.1985 32.7995 15.9964 31.4912 15.5386C30.8395 15.3091 30.2073 15.0097 29.6301 14.6242C29.0565 14.2414 28.5263 13.7594 28.1853 13.1709C28.3273 13.2667 28.454 13.3707 28.6001 13.4517C28.7351 13.5439 28.8831 13.6178 29.0242 13.6959C29.3182 13.8374 29.6074 13.974 29.9118 14.08C30.513 14.3023 31.1295 14.4704 31.7552 14.5944C33.0039 14.8461 34.2828 14.9499 35.5561 14.9545C36.8317 14.9534 38.1066 14.8473 39.3566 14.5953C39.9807 14.468 40.6009 14.3073 41.2014 14.0826C41.503 13.9724 41.7959 13.8411 42.0881 13.6968C42.3745 13.5452 42.6542 13.3737 42.9262 13.171Z" fill="url(#paint7_linear_2_5930)"/>
<path d="M36.9007 22.172C34.9369 20.0639 32.4719 18.9449 30.1101 18.6124C29.7495 18.5616 29.3914 18.5292 29.0378 18.5143C29.0253 18.5137 29.0126 18.5132 29.0002 18.5127C28.8892 18.5085 28.7786 18.5056 28.6685 18.5048C28.6647 18.5048 28.6609 18.5047 28.6571 18.5046C28.5407 18.5039 28.425 18.505 28.3099 18.5079C28.3024 18.5081 28.2948 18.5086 28.2873 18.5088C28.1884 18.5116 28.0902 18.516 27.9923 18.5216C27.9631 18.5232 27.934 18.5252 27.9049 18.5271C27.8256 18.5323 27.7466 18.5384 27.6681 18.5455C27.6382 18.5482 27.6084 18.5507 27.5786 18.5535C27.4746 18.5637 27.3712 18.5752 27.2689 18.5885C26.4471 18.7654 25.6413 19.1143 24.8671 19.5101C24.7122 19.5893 24.5587 19.6705 24.4065 19.7524C24.3304 19.7933 24.2547 19.8346 24.1794 19.8759C22.7472 20.6606 21.446 21.4806 20.3828 21.4806C20.3373 21.4806 20.2913 21.4781 20.2449 21.4753C19.0154 21.3974 17.4849 20.3108 15.8103 19.4653C15.4418 20.9909 15.2351 22.7111 15.2351 24.6423C15.2351 36.624 23.9115 46.4021 27.6299 46.4021C31.7616 46.4021 32.3124 44.4741 35.6177 44.4741C38.923 44.4741 39.4739 46.4021 43.6054 46.4021C45.7912 46.4021 49.6897 43.0224 52.5325 37.8035L36.9007 22.172Z" fill="url(#paint8_linear_2_5930)"/>
<path d="M27.2686 18.5886C24.6388 19.1548 22.1729 21.4807 20.3826 21.4807C18.5922 21.4807 16.1264 19.1548 13.4965 18.5886C7.9182 17.8587 0 21.7561 0 33.7378C0 45.7196 8.67639 55.4977 12.3948 55.4977C16.5265 55.4977 17.0773 53.5696 20.3826 53.5696C23.6879 53.5696 24.2388 55.4977 28.3703 55.4977C32.0889 55.4977 40.7652 45.7196 40.7652 33.7378C40.7652 21.7561 32.8471 17.8587 27.2686 18.5886Z" fill="url(#paint9_linear_2_5930)"/>
<path d="M1.93506 43.6221C4.71176 50.6608 9.77965 55.498 12.3951 55.498C16.5268 55.498 17.0776 53.5699 20.3829 53.5699C23.6882 53.5699 24.2391 55.498 28.3707 55.498C30.9859 55.498 36.0538 50.6608 38.8307 43.6221H1.93506Z" fill="url(#paint10_linear_2_5930)"/>
<path d="M26.7785 19.8971C24.3356 20.4229 22.045 22.5837 20.3818 22.5837C18.7188 22.5837 16.4281 20.423 13.9852 19.8971C8.80309 19.219 1.44751 22.8396 1.44751 33.9699C1.44751 45.1003 9.50746 54.1836 12.9616 54.1836C16.7997 54.1836 17.3114 52.3925 20.3818 52.3925C23.4523 52.3925 23.964 54.1836 27.8021 54.1836C31.2562 54.1836 39.3162 45.1002 39.3162 33.9699C39.3162 22.8396 31.9607 19.219 26.7785 19.8971Z" fill="url(#paint11_radial_2_5930)"/>
<path d="M37.3289 43.6221H3.43677C6.05171 49.9047 10.5919 54.1838 12.9626 54.1838C16.8006 54.1838 17.3123 52.3926 20.3828 52.3926C23.4533 52.3926 23.9649 54.1838 27.803 54.1838C30.1738 54.1838 34.7139 49.9047 37.3289 43.6221Z" fill="url(#paint12_linear_2_5930)"/>
<path d="M18.4973 21.9883V26.2349C18.4973 29.095 17.3612 31.8379 15.3387 33.8604C12.959 36.2401 12.959 40.0983 15.3387 42.4779L15.9908 43.13C18.0131 45.1524 19.1494 49.6427 19.1494 52.5027C19.5161 52.4337 19.9199 52.3925 20.3824 52.3925V22.5835C19.8198 22.5835 19.1851 22.3359 18.4973 21.9883Z" fill="url(#paint13_linear_2_5930)"/>
<path d="M22.2664 21.9883V26.2349C22.2664 29.095 23.4026 31.8379 25.4251 33.8604C27.8047 36.2401 27.8047 40.0983 25.4251 42.4779L24.773 43.13C22.7506 45.1524 21.6143 49.6427 21.6143 52.5027C21.2477 52.4337 20.8439 52.3925 20.3813 52.3925V22.5835C20.944 22.5835 21.5787 22.3359 22.2664 21.9883Z" fill="url(#paint14_linear_2_5930)"/>
<path d="M18.9 38.5549C18.1094 40.4405 16.5948 41.6028 15.5173 41.1511C14.4398 40.6993 14.2072 38.8044 14.9979 36.9187C15.7885 35.0331 17.303 33.8708 18.3806 34.3225C19.4582 34.7743 19.6907 36.6691 18.9 38.5549Z" fill="url(#paint15_linear_2_5930)"/>
<path d="M18.2505 35.4603C18.1757 35.3751 18.088 35.3074 17.9857 35.2644C17.3787 35.0099 16.5258 35.6645 16.0805 36.7265C15.6854 37.6686 15.7448 38.6135 16.1867 38.9928L20.1131 42.9193C20.1879 43.0045 20.2755 43.0722 20.3778 43.1152C20.9847 43.3697 21.8376 42.7151 22.283 41.653C22.6781 40.7108 22.6187 39.7659 22.1768 39.3866L18.2505 35.4603Z" fill="url(#paint16_linear_2_5930)"/>
<path d="M18.2781 37.6481C17.8327 38.7101 16.9798 39.3647 16.3729 39.1103C15.766 38.8558 15.635 37.7886 16.0804 36.7266C16.5258 35.6645 17.3787 35.0099 17.9856 35.2643C18.5924 35.5189 18.7235 36.586 18.2781 37.6481Z" fill="url(#paint17_linear_2_5930)"/>
<path d="M21.8673 38.5549C22.6579 40.4405 24.1724 41.6028 25.25 41.1511C26.3275 40.6993 26.5601 38.8044 25.7694 36.9187C24.9788 35.0331 23.4642 33.8708 22.3867 34.3225C21.3091 34.7743 21.0766 36.6691 21.8673 38.5549Z" fill="url(#paint18_linear_2_5930)"/>
<path d="M24.0514 35.7359C23.6382 35.3033 23.1603 35.1046 22.7794 35.2644C22.1724 35.5189 22.0415 36.586 22.4869 37.6481C22.6703 38.0854 22.9228 38.4532 23.1985 38.7172C23.2244 38.7443 27.125 42.6437 27.125 42.6437C27.5382 43.0762 28.016 43.275 28.397 43.1152C29.0039 42.8607 29.1347 41.7935 28.6895 40.7315C28.5061 40.2943 28.2536 39.9264 27.9779 39.6623C27.9779 39.6624 24.0778 35.7612 24.0514 35.7359Z" fill="url(#paint19_linear_2_5930)"/>
<path d="M22.4874 37.6481C22.9327 38.7101 23.7856 39.3647 24.3926 39.1103C24.9995 38.8558 25.1304 37.7886 24.685 36.7266C24.2397 35.6645 23.3868 35.0099 22.7798 35.2643C22.173 35.5189 22.042 36.586 22.4874 37.6481Z" fill="url(#paint20_linear_2_5930)"/>
<path d="M20.3832 48.8813C18.2006 48.8813 16.4314 50.6506 16.4314 52.8332C16.4314 53.0589 16.4514 53.28 16.4877 53.4954C17.6887 52.9906 18.6092 52.3927 20.3833 52.3927C22.1575 52.3927 23.078 52.9905 24.2789 53.4954C24.3153 53.28 24.3353 53.0589 24.3353 52.8332C24.3352 50.6506 22.5658 48.8813 20.3832 48.8813Z" fill="url(#paint21_radial_2_5930)"/>
</g>
<defs>
<linearGradient id="paint0_linear_2_5930" x1="45.1632" y1="3.43972" x2="30.9131" y2="17.6887" gradientUnits="userSpaceOnUse">
<stop stop-color="#9EB644"/>
<stop offset="1" stop-color="#738611"/>
</linearGradient>
<linearGradient id="paint1_linear_2_5930" x1="44.7113" y1="9.3485" x2="34.066" y2="-1.2961" gradientUnits="userSpaceOnUse">
<stop stop-color="#738611" stop-opacity="0"/>
<stop offset="1" stop-color="#738611"/>
</linearGradient>
<linearGradient id="paint2_linear_2_5930" x1="34.0497" y1="1.22427" x2="37.4601" y2="52.158" gradientUnits="userSpaceOnUse">
<stop stop-color="#FF5964"/>
<stop offset="0.306" stop-color="#FF5661"/>
<stop offset="0.534" stop-color="#FF4D58"/>
<stop offset="0.735" stop-color="#FF3E48"/>
<stop offset="0.921" stop-color="#FF2831"/>
<stop offset="1" stop-color="#FF1D25"/>
</linearGradient>
<linearGradient id="paint3_linear_2_5930" x1="44.5983" y1="15.3671" x2="42.2859" y2="7.33316" gradientUnits="userSpaceOnUse">
<stop stop-color="#FF1D25" stop-opacity="0"/>
<stop offset="1" stop-color="#FF1D25"/>
</linearGradient>
<linearGradient id="paint4_linear_2_5930" x1="29.5735" y1="7.98587" x2="36.6229" y2="7.98587" gradientUnits="userSpaceOnUse">
<stop stop-color="#654E48"/>
<stop offset="1" stop-color="#503837"/>
</linearGradient>
<linearGradient id="paint5_linear_2_5930" x1="41.7411" y1="37.3979" x2="0.326147" y2="48.7557" gradientUnits="userSpaceOnUse">
<stop stop-color="#FF1D25" stop-opacity="0"/>
<stop offset="1" stop-color="#FF1D25"/>
</linearGradient>
<linearGradient id="paint6_linear_2_5930" x1="44.4038" y1="22.6597" x2="31.1496" y2="6.38932" gradientUnits="userSpaceOnUse">
<stop stop-color="#FF1D25" stop-opacity="0"/>
<stop offset="1" stop-color="#FF1D25"/>
</linearGradient>
<linearGradient id="paint7_linear_2_5930" x1="34.3324" y1="14.4219" x2="0.282966" y2="18.8568" gradientUnits="userSpaceOnUse">
<stop stop-color="#FF5964"/>
<stop offset="0.306" stop-color="#FF5661"/>
<stop offset="0.534" stop-color="#FF4D58"/>
<stop offset="0.735" stop-color="#FF3E48"/>
<stop offset="0.921" stop-color="#FF2831"/>
<stop offset="1" stop-color="#FF1D25"/>
</linearGradient>
<linearGradient id="paint8_linear_2_5930" x1="41.4152" y1="44.3781" x2="27.9327" y2="30.8956" gradientUnits="userSpaceOnUse">
<stop stop-color="#FF1D25" stop-opacity="0"/>
<stop offset="1" stop-color="#FF1D25"/>
</linearGradient>
<linearGradient id="paint9_linear_2_5930" x1="7.9928" y1="10.1977" x2="34.052" y2="61.1315" gradientUnits="userSpaceOnUse">
<stop stop-color="#FF5964"/>
<stop offset="0.306" stop-color="#FF5661"/>
<stop offset="0.534" stop-color="#FF4D58"/>
<stop offset="0.735" stop-color="#FF3E48"/>
<stop offset="0.921" stop-color="#FF2831"/>
<stop offset="1" stop-color="#FF1D25"/>
</linearGradient>
<linearGradient id="paint10_linear_2_5930" x1="40.6747" y1="42.6076" x2="-0.740269" y2="53.9655" gradientUnits="userSpaceOnUse">
<stop stop-color="#FF1D25" stop-opacity="0"/>
<stop offset="1" stop-color="#FF1D25"/>
</linearGradient>
<radialGradient id="paint11_radial_2_5930" cx="0" cy="0" r="1" gradientUnits="userSpaceOnUse" gradientTransform="translate(21.3908 36.6981) scale(36.2916 36.2916)">
<stop stop-color="#FFE7A5"/>
<stop offset="0.216" stop-color="#FFE29C"/>
<stop offset="0.577" stop-color="#FFD482"/>
<stop offset="1" stop-color="#FFBF5C"/>
</radialGradient>
<linearGradient id="paint12_linear_2_5930" x1="20.3824" y1="46.7032" x2="20.3824" y2="53.7876" gradientUnits="userSpaceOnUse">
<stop stop-color="#FFBF5C" stop-opacity="0"/>
<stop offset="1" stop-color="#FFBF5C"/>
</linearGradient>
<linearGradient id="paint13_linear_2_5930" x1="20.2075" y1="37.8875" x2="29.3111" y2="44.9719" gradientUnits="userSpaceOnUse">
<stop stop-color="#FFBF5C" stop-opacity="0"/>
<stop offset="1" stop-color="#FFBF5C"/>
</linearGradient>
<linearGradient id="paint14_linear_2_5930" x1="20.4225" y1="38.0026" x2="11.5494" y2="45.0869" gradientUnits="userSpaceOnUse">
<stop stop-color="#FFBF5C" stop-opacity="0"/>
<stop offset="1" stop-color="#FFBF5C"/>
</linearGradient>
<linearGradient id="paint15_linear_2_5930" x1="16.9486" y1="30.748" x2="16.9486" y2="43.138" gradientUnits="userSpaceOnUse">
<stop stop-color="#FFBF5C" stop-opacity="0"/>
<stop offset="1" stop-color="#FFBF5C"/>
</linearGradient>
<linearGradient id="paint16_linear_2_5930" x1="19.5695" y1="39.5784" x2="13.615" y2="33.6239" gradientUnits="userSpaceOnUse">
<stop stop-color="#FF931E" stop-opacity="0"/>
<stop offset="1" stop-color="#FF5D00"/>
</linearGradient>
<linearGradient id="paint17_linear_2_5930" x1="16.0802" y1="36.7266" x2="18.2775" y2="37.649" gradientUnits="userSpaceOnUse">
<stop stop-color="#654E48"/>
<stop offset="1" stop-color="#503837"/>
</linearGradient>
<linearGradient id="paint18_linear_2_5930" x1="23.8178" y1="30.748" x2="23.8178" y2="43.138" gradientUnits="userSpaceOnUse">
<stop stop-color="#FFBF5C" stop-opacity="0"/>
<stop offset="1" stop-color="#FFBF5C"/>
</linearGradient>
<linearGradient id="paint19_linear_2_5930" x1="26.1657" y1="39.7683" x2="20.9919" y2="34.5944" gradientUnits="userSpaceOnUse">
<stop stop-color="#FF931E" stop-opacity="0"/>
<stop offset="1" stop-color="#FF5D00"/>
</linearGradient>
<linearGradient id="paint20_linear_2_5930" x1="24.6844" y1="36.7266" x2="22.4871" y2="37.649" gradientUnits="userSpaceOnUse">
<stop stop-color="#654E48"/>
<stop offset="1" stop-color="#503837"/>
</linearGradient>
<radialGradient id="paint21_radial_2_5930" cx="0" cy="0" r="1" gradientUnits="userSpaceOnUse" gradientTransform="translate(20.3524 52.5678) scale(3.67835)">
<stop stop-color="#503837"/>
<stop offset="0.115" stop-color="#4C3633" stop-opacity="0.885"/>
<stop offset="0.516" stop-color="#41302B" stop-opacity="0.484"/>
<stop offset="1" stop-color="#3E2E28" stop-opacity="0"/>
</radialGradient>
<clipPath id="clip0_2_5930">
<rect width="56" height="56" fill="white"/>
</clipPath>
</defs>
</svg>
