<svg width="56" height="56" viewBox="0 0 56 56" fill="none" xmlns="http://www.w3.org/2000/svg">
<g clip-path="url(#clip0_2_5953)">
<path d="M52.4753 10.6099C46.9874 5.122 37.0561 6.15569 30.2932 12.9187C30.2014 13.0105 30.1107 13.1029 30.0211 13.1958C27.9177 15.3758 25.1875 16.8464 22.2255 17.4819C18.7284 18.232 15.4094 19.9587 12.7027 22.6654C5.14535 30.2227 5.22353 42.554 12.8774 50.2079C20.5313 57.8618 32.8625 57.94 40.4199 50.3826C43.1266 47.6759 44.8532 44.3569 45.6034 40.8598C46.2389 37.8978 47.7095 35.1676 49.8895 33.0642C49.9824 32.9746 50.0747 32.8839 50.1665 32.7921C56.9295 26.0291 57.9632 16.0978 52.4753 10.6099V10.6099Z" fill="url(#paint0_linear_2_5953)"/>
<path d="M32.6551 10.8774C31.8356 11.4865 31.0445 12.1671 30.2927 12.9188C30.2009 13.0106 30.1102 13.1029 30.0206 13.1958C27.9172 15.3759 25.187 16.8465 22.2251 17.4819C18.7279 18.2321 15.4089 19.9588 12.7022 22.6654C5.14486 30.2228 5.22304 42.5541 12.8769 50.208C20.5308 57.8619 32.862 57.9401 40.4195 50.3827C43.1261 47.676 44.8528 44.357 45.603 40.8598C46.2384 37.8979 47.709 35.1677 49.8891 33.0643C49.982 32.9747 50.0743 32.884 50.1661 32.7922C50.9178 32.0405 51.5984 31.2494 52.2075 30.4298L32.6551 10.8774Z" fill="url(#paint1_linear_2_5953)"/>
<path d="M7.26902 33.6001C6.45735 39.4659 8.33082 45.6621 12.8769 50.2082C20.5308 57.862 32.862 57.9402 40.4195 50.3829C43.1261 47.6762 44.8528 44.3571 45.603 40.86C46.1858 38.1428 47.4735 35.6222 49.365 33.6001H7.26902Z" fill="url(#paint2_linear_2_5953)"/>
<path d="M36.1297 26.2491C34.4845 23.7053 33.594 20.735 33.6481 17.7061C33.6504 17.577 33.6516 17.4476 33.6516 17.3178C33.6516 7.75348 27.3601 0 19.599 0C11.838 0 5.54642 7.75347 5.54642 17.3177C5.54642 17.4475 5.54762 17.577 5.54993 17.706C5.60406 20.7349 4.71355 23.7052 3.06836 26.249C1.12593 29.2524 0 32.8202 0 36.648C0 47.3358 8.77476 56 19.599 56C30.4233 56 39.198 47.3358 39.198 36.648C39.198 32.8202 38.0721 29.2524 36.1297 26.2491V26.2491Z" fill="url(#paint3_linear_2_5953)"/>
<path d="M19.5985 53.2549C10.3053 53.2549 2.74463 45.8051 2.74463 36.6481C2.74463 33.4789 3.65348 30.3985 5.3729 27.7399C7.34739 24.687 8.35748 21.2004 8.29412 17.657C8.29203 17.5443 8.29105 17.4312 8.29105 17.3179C8.29105 13.32 9.5349 9.58535 11.7935 6.80204C13.9163 4.18585 16.6882 2.74512 19.5985 2.74512C22.5089 2.74512 25.2808 4.18585 27.4036 6.80193C29.6622 9.58524 30.906 13.3199 30.906 17.3177C30.906 17.4312 30.9051 17.5442 30.903 17.657C30.8396 21.2004 31.8497 24.6869 33.8242 27.7398C35.5436 30.3984 36.4525 33.4788 36.4525 36.648C36.4525 45.8051 28.8918 53.2549 19.5985 53.2549V53.2549Z" fill="url(#paint4_linear_2_5953)"/>
<path d="M11.6406 41.0262L25.6674 55.053C33.4903 52.5399 39.1526 45.301 39.1967 36.7487L27.5575 25.1094L11.6406 41.0262Z" fill="url(#paint5_linear_2_5953)"/>
<path d="M0 36.6483C0 47.3361 8.77476 56.0003 19.599 56.0003C30.4233 56.0003 39.198 47.3361 39.198 36.6483C39.198 35.99 39.164 35.3396 39.0989 34.6982H0.099153C0.0340392 35.3396 0 35.99 0 36.6483H0Z" fill="url(#paint6_linear_2_5953)"/>
<path d="M19.5989 44.3228C25.8148 44.3228 30.8538 39.2838 30.8538 33.0679C30.8538 26.852 25.8148 21.813 19.5989 21.813C13.383 21.813 8.34399 26.852 8.34399 33.0679C8.34399 39.2838 13.383 44.3228 19.5989 44.3228Z" fill="url(#paint7_linear_2_5953)"/>
<path d="M8.34619 33.2505C8.39165 36.0697 9.48925 38.8752 11.6405 41.0264C16.0359 45.4217 23.162 45.4217 27.5574 41.0264C29.7087 38.8751 30.8063 36.0697 30.8517 33.2505H8.34619Z" fill="url(#paint8_linear_2_5953)"/>
</g>
<defs>
<linearGradient id="paint0_linear_2_5953" x1="17.362" y1="15.0946" x2="40.0957" y2="37.8282" gradientUnits="userSpaceOnUse">
<stop stop-color="#A2E62E"/>
<stop offset="0.1231" stop-color="#97DE30"/>
<stop offset="0.3395" stop-color="#79CB36"/>
<stop offset="0.6234" stop-color="#4AAB3F"/>
<stop offset="0.9609" stop-color="#09804C"/>
<stop offset="1" stop-color="#017B4E"/>
</linearGradient>
<linearGradient id="paint1_linear_2_5953" x1="48.7174" y1="34.998" x2="29.6115" y2="33.4607" gradientUnits="userSpaceOnUse">
<stop stop-color="#026841" stop-opacity="0"/>
<stop offset="0.6224" stop-color="#015C4F" stop-opacity="0.622"/>
<stop offset="1" stop-color="#01525A"/>
</linearGradient>
<linearGradient id="paint2_linear_2_5953" x1="28.225" y1="36.5648" x2="28.225" y2="54.0405" gradientUnits="userSpaceOnUse">
<stop stop-color="#026841" stop-opacity="0"/>
<stop offset="0.6224" stop-color="#015C4F" stop-opacity="0.622"/>
<stop offset="1" stop-color="#01525A"/>
</linearGradient>
<linearGradient id="paint3_linear_2_5953" x1="-19.1228" y1="-9.11878" x2="26.4252" y2="36.4292" gradientUnits="userSpaceOnUse">
<stop stop-color="#A2E62E"/>
<stop offset="0.1231" stop-color="#97DE30"/>
<stop offset="0.3395" stop-color="#79CB36"/>
<stop offset="0.6234" stop-color="#4AAB3F"/>
<stop offset="0.9609" stop-color="#09804C"/>
<stop offset="1" stop-color="#017B4E"/>
</linearGradient>
<linearGradient id="paint4_linear_2_5953" x1="9.0824" y1="19.081" x2="36.6981" y2="46.6967" gradientUnits="userSpaceOnUse">
<stop stop-color="#D1F19E"/>
<stop offset="1" stop-color="#97D729"/>
</linearGradient>
<linearGradient id="paint5_linear_2_5953" x1="34.8808" y1="48.3496" x2="16.9442" y2="30.413" gradientUnits="userSpaceOnUse">
<stop stop-color="#017B4E" stop-opacity="0"/>
<stop offset="0.4829" stop-color="#01754A" stop-opacity="0.483"/>
<stop offset="1" stop-color="#026841"/>
</linearGradient>
<linearGradient id="paint6_linear_2_5953" x1="19.599" y1="39.859" x2="19.599" y2="56.0305" gradientUnits="userSpaceOnUse">
<stop stop-color="#017B4E" stop-opacity="0"/>
<stop offset="0.4829" stop-color="#01754A" stop-opacity="0.483"/>
<stop offset="1" stop-color="#026841"/>
</linearGradient>
<linearGradient id="paint7_linear_2_5953" x1="12.8925" y1="26.3615" x2="25.057" y2="38.526" gradientUnits="userSpaceOnUse">
<stop stop-color="#C5715A"/>
<stop offset="1" stop-color="#883F2E"/>
</linearGradient>
<linearGradient id="paint8_linear_2_5953" x1="19.5989" y1="34.6739" x2="19.5989" y2="43.4423" gradientUnits="userSpaceOnUse">
<stop stop-color="#883F2E" stop-opacity="0"/>
<stop offset="1" stop-color="#42210B"/>
</linearGradient>
<clipPath id="clip0_2_5953">
<rect width="56" height="56" fill="white"/>
</clipPath>
</defs>
</svg>
