<svg width="32" height="32" viewBox="0 0 32 32" fill="none" xmlns="http://www.w3.org/2000/svg">
<g clip-path="url(#clip0_2_4801)">
<path d="M0.673768 14.6665H7.34046C7.70864 14.6665 8.00714 14.965 8.00714 15.3332V31.3332C8.00714 31.7014 7.70864 31.9999 7.34046 31.9999H0.673768C0.30558 31.9999 0.00708008 31.7014 0.00708008 31.3332V15.3332C0.00708008 14.9649 0.30558 14.6665 0.673768 14.6665Z" fill="url(#paint0_linear_2_4801)"/>
<path d="M12.6594 0H19.3261C19.6943 0 19.9928 0.2985 19.9928 0.666687V31.3334C19.9928 31.7016 19.6943 32.0001 19.3261 32.0001H12.6594C12.2912 32.0001 11.9927 31.7016 11.9927 31.3334V0.666687C11.9927 0.2985 12.2912 0 12.6594 0Z" fill="url(#paint1_linear_2_4801)"/>
<path d="M24.6594 6.6665H31.3261C31.6942 6.6665 31.9927 6.965 31.9927 7.33319V31.3332C31.9927 31.7014 31.6942 31.9999 31.3261 31.9999H24.6594C24.2912 31.9999 23.9927 31.7014 23.9927 31.3332V7.33319C23.9927 6.96494 24.2912 6.6665 24.6594 6.6665Z" fill="url(#paint2_linear_2_4801)"/>
</g>
<defs>
<linearGradient id="paint0_linear_2_4801" x1="-2.406e-07" y1="14.5" x2="8" y2="32" gradientUnits="userSpaceOnUse">
<stop stop-color="#FFDC65"/>
<stop offset="1" stop-color="#FFC846"/>
</linearGradient>
<linearGradient id="paint1_linear_2_4801" x1="11.9927" y1="0" x2="27.0516" y2="3.76477" gradientUnits="userSpaceOnUse">
<stop stop-color="#79C7B7"/>
<stop offset="1" stop-color="#449963"/>
</linearGradient>
<linearGradient id="paint2_linear_2_4801" x1="24" y1="6.5" x2="32" y2="32" gradientUnits="userSpaceOnUse">
<stop stop-color="#00ABE0"/>
<stop offset="1" stop-color="#099DD1"/>
</linearGradient>
<clipPath id="clip0_2_4801">
<rect width="32" height="32" fill="white"/>
</clipPath>
</defs>
</svg>
