<svg width="56" height="56" viewBox="0 0 56 56" fill="none" xmlns="http://www.w3.org/2000/svg">
<g clip-path="url(#clip0_2_5967)">
<path d="M54.147 4.53669C54.4657 2.94113 53.0591 1.53454 51.4634 1.85308C50.9225 1.96113 50.3622 1.8668 49.8826 1.59427C45.0632 -1.14435 38.6918 -0.345196 34.4281 3.91838C32.4873 5.85916 31.2643 8.23664 30.7659 10.7058C30.275 13.1383 28.3932 15.0201 25.9607 15.511C23.4915 16.0093 21.114 17.2324 19.1733 19.1732C17.2325 21.114 16.0095 23.4915 15.5111 25.9606C15.0201 28.393 13.1383 30.2749 10.7058 30.7659C8.23667 31.2642 5.8592 32.4873 3.91841 34.4281C-0.345276 38.6916 -1.14432 45.0631 1.5943 49.8826C1.86683 50.3623 1.96116 50.9225 1.85311 51.4635C1.53446 53.059 2.94105 54.4656 4.53661 54.147C5.0775 54.0389 5.63783 54.1333 6.11745 54.4058C10.9371 57.1444 17.3085 56.3454 21.572 52.0817C23.5128 50.1409 24.7358 47.7634 25.2342 45.2943C25.7251 42.8619 27.607 40.98 30.0394 40.489C32.5086 39.9907 34.8861 38.7676 36.8269 36.8268C38.7677 34.8861 39.9906 32.5086 40.489 30.0394C40.98 27.6069 42.8618 25.7251 45.2943 25.2342C47.7634 24.7359 50.1409 23.5128 52.0817 21.572C56.3453 17.3084 57.1444 10.937 54.4058 6.11742C54.1334 5.63791 54.0391 5.07758 54.147 4.53669V4.53669Z" fill="url(#paint0_linear_2_5967)"/>
<path d="M12.2248 53.2549C10.5394 53.2549 8.89649 52.8276 7.47365 52.0191C6.71249 51.5867 5.85009 51.3581 4.97913 51.3581C4.86263 51.3581 4.74601 51.3622 4.62951 51.3704C4.69814 50.3865 4.47513 49.3963 3.98101 48.5265C1.7879 44.6673 2.56037 39.668 5.85932 36.3691C7.35485 34.8734 9.21855 33.8664 11.2486 33.4567C14.7632 32.7474 17.4924 30.0182 18.2016 26.5037C18.6114 24.4736 19.6185 22.6099 21.1139 21.1142C22.6095 19.6187 24.4732 18.6116 26.5033 18.2019C30.0179 17.4926 32.7471 14.7634 33.4563 11.2489C33.8661 9.21861 34.8731 7.35502 36.3687 5.85938C38.3773 3.85117 41.0075 2.74512 43.7752 2.74512C45.4605 2.74512 47.1034 3.17247 48.5264 3.98096C49.2872 4.41337 50.1497 4.64198 51.0208 4.64198C51.1374 4.64198 51.254 4.63781 51.3704 4.62968C51.3018 5.61342 51.5248 6.60374 52.0189 7.47349C54.212 11.3328 53.4395 16.332 50.1406 19.631C48.6451 21.1265 46.7815 22.1335 44.7512 22.5433C41.2367 23.2526 38.5075 25.9818 37.7983 29.4963C37.3885 31.5266 36.3814 33.3903 34.886 34.8857C33.3905 36.3812 31.5268 37.3884 29.4966 37.798C25.982 38.5074 23.2528 41.2366 22.5436 44.7511C22.1338 46.7813 21.1268 48.6449 19.6313 50.1404C17.6227 52.1488 14.9923 53.2549 12.2248 53.2549C12.2248 53.2549 12.225 53.2549 12.2248 53.2549V53.2549Z" fill="url(#paint1_linear_2_5967)"/>
<path d="M23.3796 49.8424L6.15726 32.6201C5.36568 33.1309 4.61353 33.7324 3.91814 34.4278C-0.34544 38.6915 -1.14459 45.0627 1.59403 49.8824C1.86656 50.3619 1.96088 50.9222 1.85283 51.4631C1.53418 53.0588 2.94077 54.4652 4.53633 54.1466C5.07723 54.0386 5.63756 54.1329 6.11707 54.4054C10.9367 57.144 17.3081 56.345 21.5716 52.0813C22.2673 51.3861 22.8688 50.634 23.3796 49.8424V49.8424Z" fill="url(#paint2_linear_2_5967)"/>
<path d="M20.0563 35.9434L5.96631 50.0334L11.9284 55.9956C15.3696 56.0753 18.888 54.7654 21.5716 52.0818C23.5124 50.141 24.7354 47.7636 25.2338 45.2944C25.4484 44.2315 25.9286 43.2737 26.6042 42.4912L20.0563 35.9434Z" fill="url(#paint3_linear_2_5967)"/>
<path d="M21.9972 42.0116C21.4579 46.9743 16.9975 51.4346 12.0348 51.974C7.07212 52.5133 3.48625 48.9275 4.02561 43.9648C4.56496 39.0021 9.02531 34.5418 13.988 34.0024C18.9507 33.4631 22.5366 37.0489 21.9972 42.0116Z" fill="url(#paint4_linear_2_5967)"/>
<path d="M7.23485 37.4399C5.49314 39.2273 4.28958 41.5356 4.02561 43.9646C3.48625 48.9273 7.07212 52.5131 12.0348 51.9738C14.4638 51.7098 16.772 50.5061 18.5595 48.7644L7.23485 37.4399Z" fill="url(#paint5_linear_2_5967)"/>
<path d="M35.0449 20.9551L20.9548 35.0451L27.531 41.6213C28.2546 41.0711 29.1061 40.6774 30.0393 40.4891C32.5084 39.9908 34.8859 38.7677 36.8267 36.8269C38.7675 34.8861 39.9905 32.5087 40.4889 30.0395C40.6772 29.1064 41.0708 28.2549 41.6211 27.5312L35.0449 20.9551Z" fill="url(#paint6_linear_2_5967)"/>
<path d="M36.9872 27.0233C36.4479 31.986 31.9875 36.4464 27.0248 36.9857C22.0621 37.5251 18.4762 33.9392 19.0156 28.9765C19.555 24.0138 24.0153 19.5535 28.978 19.0141C33.9407 18.4748 37.5266 22.0606 36.9872 27.0233V27.0233Z" fill="url(#paint7_linear_2_5967)"/>
<path d="M22.2228 22.4517C20.481 24.2391 19.2775 26.5474 19.0134 28.9763C18.474 33.939 22.0599 37.5249 27.0226 36.9856C29.4516 36.7216 31.7598 35.5179 33.5473 33.7762L22.2228 22.4517Z" fill="url(#paint8_linear_2_5967)"/>
<path d="M35.9436 20.0568L42.4913 26.6046C43.2739 25.9289 44.2316 25.4488 45.2945 25.2342C47.7637 24.7359 50.1412 23.5128 52.082 21.572C54.7656 18.8884 56.0754 15.3699 55.9957 11.9288L50.0337 5.9668L35.9436 20.0568Z" fill="url(#paint9_linear_2_5967)"/>
<path d="M51.9738 12.0351C51.4345 16.9978 46.9741 21.4581 42.0114 21.9975C37.0487 22.5368 33.4628 18.951 34.0022 13.9883C34.5415 9.02555 39.0019 4.56521 43.9646 4.02585C48.9273 3.48649 52.5132 7.07236 51.9738 12.0351V12.0351Z" fill="url(#paint10_linear_2_5967)"/>
<path d="M37.2114 7.46338C35.4697 9.25077 34.2661 11.5591 34.0022 13.988C33.4628 18.9508 37.0487 22.5366 42.0114 21.9973C44.4404 21.7333 46.7486 20.5297 48.5361 18.788L37.2114 7.46338Z" fill="url(#paint11_linear_2_5967)"/>
</g>
<defs>
<linearGradient id="paint0_linear_2_5967" x1="16.4575" y1="16.4573" x2="39.0265" y2="39.0263" gradientUnits="userSpaceOnUse">
<stop stop-color="#A2E62E"/>
<stop offset="0.1231" stop-color="#97DE30"/>
<stop offset="0.3395" stop-color="#79CB36"/>
<stop offset="0.6234" stop-color="#4AAB3F"/>
<stop offset="0.9609" stop-color="#09804C"/>
<stop offset="1" stop-color="#017B4E"/>
</linearGradient>
<linearGradient id="paint1_linear_2_5967" x1="38.4444" y1="38.4445" x2="12.1286" y2="12.1286" gradientUnits="userSpaceOnUse">
<stop stop-color="#A2E62E"/>
<stop offset="0.1231" stop-color="#97DE30"/>
<stop offset="0.3395" stop-color="#79CB36"/>
<stop offset="0.6234" stop-color="#4AAB3F"/>
<stop offset="0.9609" stop-color="#09804C"/>
<stop offset="1" stop-color="#017B4E"/>
</linearGradient>
<linearGradient id="paint2_linear_2_5967" x1="12.5723" y1="43.4273" x2="3.22155" y2="52.7781" gradientUnits="userSpaceOnUse">
<stop stop-color="#017B4E" stop-opacity="0"/>
<stop offset="0.4829" stop-color="#01754A" stop-opacity="0.483"/>
<stop offset="1" stop-color="#026841"/>
</linearGradient>
<linearGradient id="paint3_linear_2_5967" x1="26.3342" y1="56.3113" x2="12.1445" y2="42.1216" gradientUnits="userSpaceOnUse">
<stop stop-color="#017B4E" stop-opacity="0"/>
<stop offset="0.4829" stop-color="#01754A" stop-opacity="0.483"/>
<stop offset="1" stop-color="#026841"/>
</linearGradient>
<linearGradient id="paint4_linear_2_5967" x1="9.66239" y1="39.6392" x2="16.7036" y2="46.6804" gradientUnits="userSpaceOnUse">
<stop stop-color="#D1F19E"/>
<stop offset="1" stop-color="#97D729"/>
</linearGradient>
<linearGradient id="paint5_linear_2_5967" x1="11.53" y1="44.4694" x2="2.56205" y2="53.4374" gradientUnits="userSpaceOnUse">
<stop stop-color="#017B4E" stop-opacity="0"/>
<stop offset="0.4829" stop-color="#01754A" stop-opacity="0.483"/>
<stop offset="1" stop-color="#026841"/>
</linearGradient>
<linearGradient id="paint6_linear_2_5967" x1="41.3227" y1="41.323" x2="27.1331" y2="27.1333" gradientUnits="userSpaceOnUse">
<stop stop-color="#017B4E" stop-opacity="0"/>
<stop offset="0.4829" stop-color="#01754A" stop-opacity="0.483"/>
<stop offset="1" stop-color="#026841"/>
</linearGradient>
<linearGradient id="paint7_linear_2_5967" x1="24.6524" y1="24.6509" x2="31.6936" y2="31.6921" gradientUnits="userSpaceOnUse">
<stop stop-color="#D1F19E"/>
<stop offset="1" stop-color="#97D729"/>
</linearGradient>
<linearGradient id="paint8_linear_2_5967" x1="26.518" y1="29.4811" x2="17.5499" y2="38.4491" gradientUnits="userSpaceOnUse">
<stop stop-color="#017B4E" stop-opacity="0"/>
<stop offset="0.4829" stop-color="#01754A" stop-opacity="0.483"/>
<stop offset="1" stop-color="#026841"/>
</linearGradient>
<linearGradient id="paint9_linear_2_5967" x1="56.3115" y1="26.3347" x2="42.1219" y2="12.145" gradientUnits="userSpaceOnUse">
<stop stop-color="#017B4E" stop-opacity="0"/>
<stop offset="0.4829" stop-color="#01754A" stop-opacity="0.483"/>
<stop offset="1" stop-color="#026841"/>
</linearGradient>
<linearGradient id="paint10_linear_2_5967" x1="39.639" y1="9.66264" x2="46.6801" y2="16.7038" gradientUnits="userSpaceOnUse">
<stop stop-color="#D1F19E"/>
<stop offset="1" stop-color="#97D729"/>
</linearGradient>
<linearGradient id="paint11_linear_2_5967" x1="41.5066" y1="14.4928" x2="32.5386" y2="23.4609" gradientUnits="userSpaceOnUse">
<stop stop-color="#017B4E" stop-opacity="0"/>
<stop offset="0.4829" stop-color="#01754A" stop-opacity="0.483"/>
<stop offset="1" stop-color="#026841"/>
</linearGradient>
<clipPath id="clip0_2_5967">
<rect width="56" height="56" fill="white"/>
</clipPath>
</defs>
</svg>
