<svg width="56" height="56" viewBox="0 0 56 56" fill="none" xmlns="http://www.w3.org/2000/svg">
<g clip-path="url(#clip0_2_5983)">
<path d="M51.1907 31.0747V41.0163C51.1918 43.1937 50.3442 45.2383 48.8058 46.7766C47.2664 48.315 45.2207 49.1638 43.0444 49.1638H39.3967V45.0922H42.9675C44.048 45.0922 45.1021 44.6969 45.8784 43.9459C46.6789 43.1707 47.1203 42.1275 47.1203 41.0163V31.0747C47.1203 28.8237 45.2965 26.9988 43.0455 26.9988H39.3967V22.9272H43.0455C45.2207 22.9272 47.2664 23.776 48.8047 25.3133C50.3442 26.8527 51.1907 28.8984 51.1907 31.0747V31.0747Z" fill="url(#paint0_linear_2_5983)"/>
<path d="M49.2846 31.9168V40.1741C49.2846 42.1154 48.528 43.9404 47.1555 45.3129C45.7829 46.6877 43.9569 47.442 42.0155 47.442H39.3967V45.0922H42.9675C44.048 45.0922 45.1021 44.6969 45.8784 43.9459C46.6789 43.1707 47.1203 42.1275 47.1203 41.0163V31.0747C47.1203 28.8237 45.2965 26.9987 43.0455 26.9987H39.3967V24.6489H42.0155C43.9569 24.6489 45.7829 25.4033 47.1555 26.7758C48.528 28.1506 49.2846 29.9755 49.2846 31.9168V31.9168Z" fill="url(#paint1_linear_2_5983)"/>
<path d="M49.2791 25.8323C49.1287 25.654 48.9716 25.4802 48.8047 25.3133C47.2664 23.776 45.2207 22.9272 43.0455 22.9272H39.3967V26.9988H43.0455C45.2965 26.9988 47.1204 28.8237 47.1204 31.0747V41.0163C47.1204 42.1275 46.6789 43.1707 45.8785 43.9459C45.1022 44.6969 44.048 45.0922 42.9676 45.0922H39.3967V49.1638H43.0444C45.2207 49.1638 47.2664 48.315 48.8058 46.7766C48.9723 46.6102 49.129 46.4368 49.2791 46.2589V25.8323Z" fill="url(#paint2_linear_2_5983)"/>
<path d="M37.2017 56.0002H12.8226C9.48793 56.0002 6.78467 53.2969 6.78467 49.9623V17.7944H43.2396V49.9623C43.2396 53.2969 40.5363 56.0002 37.2017 56.0002Z" fill="url(#paint3_linear_2_5983)"/>
<path d="M41.2906 54.4058C42.4897 53.3024 43.2418 51.7203 43.2418 49.9622V17.7944H6.78687V19.9021L41.2906 54.4058Z" fill="url(#paint4_linear_2_5983)"/>
<path d="M6.78467 40.8472V49.9622C6.78467 53.2969 9.48793 56.0001 12.8226 56.0001H37.2016C40.5362 56.0001 43.2395 53.2969 43.2395 49.9622V40.8472H6.78467Z" fill="url(#paint5_linear_2_5983)"/>
<path d="M34.2091 52.5962H15.8159C12.9507 52.5962 10.6282 50.2737 10.6282 47.4086V17.7944H39.3968V47.4084C39.3968 50.2737 37.0742 52.5962 34.2091 52.5962Z" fill="url(#paint6_linear_2_5983)"/>
<path d="M37.9175 51.0346C38.8322 50.0993 39.3968 48.8201 39.3968 47.4084V17.7944H10.6282V23.7453L37.9175 51.0346Z" fill="url(#paint7_linear_2_5983)"/>
<path d="M43.6943 15.13C42.5609 13.9966 41.0342 13.4968 39.5535 13.6292C40.7488 11.2659 40.3607 8.307 38.3861 6.33228C37.1095 5.0557 35.4214 4.44333 33.7487 4.49153C33.1726 2.98019 31.7106 1.90609 29.9968 1.90609C28.7586 1.90609 27.6517 2.46696 26.9152 3.34814C26.2771 1.40428 24.4489 0 22.2916 0C20.0806 0 18.2152 1.475 17.6226 3.49429C17.1655 3.38866 16.6897 3.332 16.2004 3.332C12.7213 3.332 9.90075 6.15242 9.90075 9.63156C9.90075 9.9713 9.92842 10.3044 9.98025 10.6297C7.12172 10.6435 4.80859 12.9644 4.80859 15.8263C4.80859 18.6965 7.13545 21.0234 10.0058 21.0234C11.4311 21.0234 12.7221 20.4492 13.6609 19.5201C14.4696 22.0659 16.8517 23.9107 19.6652 23.9107C21.8264 23.9107 23.733 22.8219 24.8676 21.1632C25.1746 21.9538 25.6462 22.6952 26.2845 23.3334C28.7446 25.7936 32.7334 25.7936 35.1935 23.3334C35.5422 22.9848 35.8395 22.6048 36.0893 22.2036C36.1708 22.2977 36.2549 22.3903 36.3443 22.4797C38.3739 24.5093 41.6646 24.5093 43.6942 22.4797C45.724 20.4503 45.724 17.1596 43.6943 15.13V15.13Z" fill="url(#paint8_linear_2_5983)"/>
<path d="M22.5 9.63158C22.5 13.1105 19.6794 15.9312 16.2004 15.9312C15.8603 15.9312 15.528 15.9045 15.2035 15.8525V15.8273C15.2035 12.9562 12.8774 10.63 10.0064 10.63H9.97961C9.92767 10.3056 9.90088 9.97176 9.90088 9.63158C9.90088 6.15267 12.7215 3.33203 16.2006 3.33203C19.6792 3.33203 22.5 6.15267 22.5 9.63158V9.63158Z" fill="url(#paint9_linear_2_5983)"/>
<path d="M5.32347 13.5693C4.99372 14.252 4.80859 15.0176 4.80859 15.8267C4.80859 18.697 7.13545 21.0239 10.0058 21.0239C11.4311 21.0239 12.7221 20.4498 13.6609 19.5206C14.4696 22.0664 16.8517 23.9112 19.6652 23.9112C23.1444 23.9112 25.9648 21.0908 25.9648 17.6117C25.9648 17.1186 25.9063 16.6397 25.7992 16.1793C25.9234 16.1882 26.0482 16.1942 26.1747 16.1942C28.1089 16.1942 29.7951 15.1368 30.69 13.5693H5.32347Z" fill="url(#paint10_linear_2_5983)"/>
<path d="M43.6952 15.1301C41.6656 13.1005 38.3749 13.1005 36.3453 15.1301C36.2361 15.2393 36.134 15.3527 36.0366 15.4688C37.354 17.5106 37.3716 20.1457 36.0903 22.2038C36.1718 22.2979 36.2558 22.3906 36.3453 22.48C38.3749 24.5096 41.6656 24.5096 43.6952 22.48C45.7248 20.4503 45.7248 17.1597 43.6952 15.1301V15.1301Z" fill="url(#paint11_linear_2_5983)"/>
<path d="M38.3866 6.33185C35.9267 3.87181 31.9376 3.87181 29.4776 6.33185C27.0176 8.79189 27.0176 12.7808 29.4776 15.2409C31.0211 16.7844 33.1659 17.359 35.1571 16.967C35.4099 16.2977 35.8064 15.6697 36.3453 15.1306C37.2428 14.2331 38.3843 13.7331 39.5558 13.6284C40.7508 11.2663 40.361 8.30634 38.3866 6.33185V6.33185Z" fill="url(#paint12_linear_2_5983)"/>
<path d="M26.9151 3.34693C26.2776 1.40395 24.4478 0 22.2908 0C19.6033 0 17.4243 2.17895 17.4243 4.86651C17.4243 7.55407 19.6033 9.73302 22.2908 9.73302C23.9771 9.73302 25.4625 8.87534 26.3361 7.57351C26.1086 7.06983 25.9821 6.51016 25.9821 5.92129C25.982 4.94063 26.3324 4.04408 26.9151 3.34693Z" fill="url(#paint13_linear_2_5983)"/>
<path d="M39.3968 41.4512H10.6282V47.4954C10.6282 50.3125 12.9904 52.5962 15.9045 52.5962H34.1205C37.0345 52.5962 39.3968 50.3125 39.3968 47.4954V41.4512Z" fill="url(#paint14_linear_2_5983)"/>
<path d="M34.3821 25.9136C36.0397 25.9136 37.3834 27.2574 37.3834 28.9148V47.6548C37.3834 49.3124 36.0396 50.6561 34.3821 50.6561C32.7245 50.6561 31.3809 49.3123 31.3809 47.6548V28.9148C31.3809 27.2574 32.7246 25.9136 34.3821 25.9136V25.9136Z" fill="url(#paint15_linear_2_5983)"/>
<path d="M25.013 25.9136C26.6706 25.9136 28.0143 27.2574 28.0143 28.9148V47.6548C28.0143 49.3124 26.6705 50.6561 25.013 50.6561C23.3554 50.6561 22.0117 49.3123 22.0117 47.6548V28.9148C22.0117 27.2574 23.3554 25.9136 25.013 25.9136V25.9136Z" fill="url(#paint16_linear_2_5983)"/>
<path d="M15.6426 25.9136C17.3002 25.9136 18.6439 27.2574 18.6439 28.9148V47.6548C18.6439 49.3124 17.3001 50.6561 15.6426 50.6561C13.985 50.6561 12.6414 49.3123 12.6414 47.6548V28.9148C12.6412 27.2574 13.985 25.9136 15.6426 25.9136V25.9136Z" fill="url(#paint17_linear_2_5983)"/>
</g>
<defs>
<linearGradient id="paint0_linear_2_5983" x1="45.2937" y1="22.5497" x2="45.2937" y2="45.8487" gradientUnits="userSpaceOnUse">
<stop stop-color="#EAF6FF"/>
<stop offset="1" stop-color="#B3DAFE"/>
</linearGradient>
<linearGradient id="paint1_linear_2_5983" x1="44.3406" y1="37.2631" x2="44.3406" y2="21.7702" gradientUnits="userSpaceOnUse">
<stop stop-color="#EAF6FF"/>
<stop offset="1" stop-color="#B3DAFE"/>
</linearGradient>
<linearGradient id="paint2_linear_2_5983" x1="45.985" y1="36.0455" x2="41.3679" y2="36.0455" gradientUnits="userSpaceOnUse">
<stop stop-color="#8AC9FE" stop-opacity="0"/>
<stop offset="0.0634" stop-color="#85C2F3" stop-opacity="0.063"/>
<stop offset="0.3677" stop-color="#70A3C3" stop-opacity="0.368"/>
<stop offset="0.6362" stop-color="#608CA0" stop-opacity="0.636"/>
<stop offset="0.8561" stop-color="#577E8B" stop-opacity="0.856"/>
<stop offset="1" stop-color="#537983"/>
</linearGradient>
<linearGradient id="paint3_linear_2_5983" x1="16.0082" y1="36.8974" x2="46.6378" y2="36.8974" gradientUnits="userSpaceOnUse">
<stop stop-color="#EAF6FF"/>
<stop offset="1" stop-color="#B3DAFE"/>
</linearGradient>
<linearGradient id="paint4_linear_2_5983" x1="25.0142" y1="46.8864" x2="25.0142" y2="11.2551" gradientUnits="userSpaceOnUse">
<stop stop-color="#D8ECFE" stop-opacity="0"/>
<stop offset="0.7867" stop-color="#9BD1FE" stop-opacity="0.787"/>
<stop offset="1" stop-color="#8AC9FE"/>
</linearGradient>
<linearGradient id="paint5_linear_2_5983" x1="25.0121" y1="47.9844" x2="25.0121" y2="57.2244" gradientUnits="userSpaceOnUse">
<stop stop-color="#8AC9FE" stop-opacity="0"/>
<stop offset="0.0634" stop-color="#85C2F3" stop-opacity="0.063"/>
<stop offset="0.3677" stop-color="#70A3C3" stop-opacity="0.368"/>
<stop offset="0.6362" stop-color="#608CA0" stop-opacity="0.636"/>
<stop offset="0.8561" stop-color="#577E8B" stop-opacity="0.856"/>
<stop offset="1" stop-color="#537983"/>
</linearGradient>
<linearGradient id="paint6_linear_2_5983" x1="9.27682" y1="35.1954" x2="42.9377" y2="35.1954" gradientUnits="userSpaceOnUse">
<stop stop-color="#FEE97D"/>
<stop offset="1" stop-color="#FE860A"/>
</linearGradient>
<linearGradient id="paint7_linear_2_5983" x1="25.0125" y1="39.6394" x2="25.0125" y2="-7.36494" gradientUnits="userSpaceOnUse">
<stop stop-color="#FE7701" stop-opacity="0"/>
<stop offset="0.398" stop-color="#E05915" stop-opacity="0.398"/>
<stop offset="1" stop-color="#AC2538"/>
</linearGradient>
<linearGradient id="paint8_linear_2_5983" x1="13.3357" y1="2.25504" x2="30.9225" y2="23.0306" gradientUnits="userSpaceOnUse">
<stop stop-color="#FFF7F0"/>
<stop offset="1" stop-color="#FFDFCF"/>
</linearGradient>
<linearGradient id="paint9_linear_2_5983" x1="17.8211" y1="10.3091" x2="2.59706" y2="2.01459" gradientUnits="userSpaceOnUse">
<stop stop-color="#F89580" stop-opacity="0"/>
<stop offset="0.2608" stop-color="#F2917C" stop-opacity="0.262"/>
<stop offset="0.5874" stop-color="#E38670" stop-opacity="0.589"/>
<stop offset="0.9476" stop-color="#CA735D" stop-opacity="0.95"/>
<stop offset="0.9972" stop-color="#C5715A"/>
</linearGradient>
<linearGradient id="paint10_linear_2_5983" x1="17.0676" y1="16.7182" x2="14.8463" y2="24.4926" gradientUnits="userSpaceOnUse">
<stop stop-color="#F89580" stop-opacity="0"/>
<stop offset="0.2608" stop-color="#F2917C" stop-opacity="0.262"/>
<stop offset="0.5874" stop-color="#E38670" stop-opacity="0.589"/>
<stop offset="0.9476" stop-color="#CA735D" stop-opacity="0.95"/>
<stop offset="0.9972" stop-color="#C5715A"/>
</linearGradient>
<linearGradient id="paint11_linear_2_5983" x1="40.1899" y1="18.6233" x2="37.5176" y2="24.7103" gradientUnits="userSpaceOnUse">
<stop stop-color="#F89580" stop-opacity="0"/>
<stop offset="0.2608" stop-color="#F2917C" stop-opacity="0.262"/>
<stop offset="0.5874" stop-color="#E38670" stop-opacity="0.589"/>
<stop offset="0.9476" stop-color="#CA735D" stop-opacity="0.95"/>
<stop offset="0.9972" stop-color="#C5715A"/>
</linearGradient>
<linearGradient id="paint12_linear_2_5983" x1="34.0776" y1="10.7611" x2="46.7361" y2="8.53869" gradientUnits="userSpaceOnUse">
<stop stop-color="#F89580" stop-opacity="0"/>
<stop offset="0.2608" stop-color="#F2917C" stop-opacity="0.262"/>
<stop offset="0.5874" stop-color="#E38670" stop-opacity="0.589"/>
<stop offset="0.9476" stop-color="#CA735D" stop-opacity="0.95"/>
<stop offset="0.9972" stop-color="#C5715A"/>
</linearGradient>
<linearGradient id="paint13_linear_2_5983" x1="21.4618" y1="5.74307" x2="27.0079" y2="-0.120015" gradientUnits="userSpaceOnUse">
<stop stop-color="#F89580" stop-opacity="0"/>
<stop offset="0.2608" stop-color="#F2917C" stop-opacity="0.262"/>
<stop offset="0.5874" stop-color="#E38670" stop-opacity="0.589"/>
<stop offset="0.9476" stop-color="#CA735D" stop-opacity="0.95"/>
<stop offset="0.9972" stop-color="#C5715A"/>
</linearGradient>
<linearGradient id="paint14_linear_2_5983" x1="25.0125" y1="46.4091" x2="25.0125" y2="58.8369" gradientUnits="userSpaceOnUse">
<stop stop-color="#FE7701" stop-opacity="0"/>
<stop offset="0.398" stop-color="#E05915" stop-opacity="0.398"/>
<stop offset="1" stop-color="#AC2538"/>
</linearGradient>
<linearGradient id="paint15_linear_2_5983" x1="43.0384" y1="38.2848" x2="30.785" y2="38.2848" gradientUnits="userSpaceOnUse">
<stop stop-color="white"/>
<stop offset="1" stop-color="#EAF6FF" stop-opacity="0"/>
</linearGradient>
<linearGradient id="paint16_linear_2_5983" x1="33.6692" y1="38.2848" x2="21.4157" y2="38.2848" gradientUnits="userSpaceOnUse">
<stop stop-color="white"/>
<stop offset="1" stop-color="#EAF6FF" stop-opacity="0"/>
</linearGradient>
<linearGradient id="paint17_linear_2_5983" x1="24.2988" y1="38.2848" x2="12.0453" y2="38.2848" gradientUnits="userSpaceOnUse">
<stop stop-color="white"/>
<stop offset="1" stop-color="#EAF6FF" stop-opacity="0"/>
</linearGradient>
<clipPath id="clip0_2_5983">
<rect width="56" height="56" fill="white"/>
</clipPath>
</defs>
</svg>
