<svg width="56" height="56" viewBox="0 0 56 56" fill="none" xmlns="http://www.w3.org/2000/svg">
<g clip-path="url(#clip0_2_6009)">
<path d="M2.46194 27.8563L2.46172 27.8507C2.391 26.2736 1.58142 24.9052 0.382579 24.0625C0.220179 23.9483 0.209638 23.712 0.361168 23.5837C1.47974 22.6371 2.16371 21.2018 2.093 19.6246L2.09278 19.619C2.08092 19.3544 2.31183 19.1399 2.57383 19.1786C2.90664 19.2279 3.2489 19.2464 3.59753 19.2308C4.55743 19.1877 5.44641 18.8935 6.2046 18.4147C6.25929 18.3802 6.25874 18.2998 6.20438 18.2647L3.31127 16.3949C2.96023 16.168 2.74391 15.7771 2.75347 15.3592C2.78761 13.8711 2.20313 12.3769 1.01834 11.2937C0.760744 11.0582 0.486234 10.8531 0.199207 10.6775C-0.0267697 10.5392 -0.0665187 10.2266 0.112242 10.0311L0.116085 10.0269C1.18129 8.86177 1.57637 7.32155 1.32459 5.87807C1.29033 5.68174 1.44932 5.50781 1.64796 5.52439C3.10824 5.64595 4.60685 5.11471 5.67205 3.94948L5.6759 3.9453C5.85466 3.74974 6.16958 3.76138 6.32747 3.97407C6.52798 4.2443 6.75692 4.49937 7.01452 4.73479C8.1993 5.81801 9.73996 6.26634 11.2189 6.09933C11.6343 6.05244 12.043 6.23285 12.3004 6.56226L14.4216 9.2765C14.4614 9.32745 14.5415 9.32086 14.571 9.26333C14.98 8.46538 15.1936 7.55368 15.1505 6.59366C15.135 6.24493 15.0859 5.90563 15.0069 5.57842C14.9448 5.32093 15.1379 5.07178 15.4025 5.06014L15.4081 5.05992C16.9853 4.98921 18.3537 4.17951 19.1964 2.98078C19.3105 2.81838 19.5469 2.80784 19.6751 2.95937C20.6217 4.07795 22.0571 4.76191 23.6342 4.6912L23.6398 4.69098C23.9046 4.67923 24.119 4.91026 24.0801 5.17236C24.0308 5.50507 24.0124 5.84722 24.0281 6.19584C24.0997 7.79261 24.8657 9.19393 26.0212 10.1217C26.3525 10.3876 26.5252 10.804 26.4735 11.2256L25.9915 15.1557C25.9277 15.676 26.3238 16.1351 26.8474 16.1566C27.6546 16.1898 28.4513 16.3057 29.2255 16.5001C29.5593 16.5838 29.7058 16.9782 29.5097 17.261C28.1928 19.1602 26.3049 20.6921 23.9775 21.5657C23.6613 21.6843 23.3433 21.7884 23.0241 21.8784C21.2198 22.387 19.8706 23.8629 19.5255 25.7054C19.4644 26.0313 19.3892 26.3574 19.2993 26.6828C18.6374 29.0791 17.2805 31.0966 15.5069 32.578C15.2427 32.7987 14.8369 32.688 14.7236 32.363C14.4608 31.6093 14.274 30.8262 14.1688 30.0252C14.1005 29.5055 13.6078 29.1521 13.0953 29.2621L9.2241 30.0938C8.80871 30.1831 8.37861 30.0482 8.08412 29.7421C7.05668 28.6741 5.59256 28.0365 3.99568 28.1081C3.64705 28.1237 3.30798 28.1728 2.98098 28.2516C2.72316 28.3139 2.4739 28.1209 2.46194 27.8563V27.8563Z" fill="url(#paint0_linear_2_6009)"/>
<path d="M2.98009 28.2509C3.3072 28.1721 3.64671 28.1235 3.99501 28.1072C5.592 28.0362 7.05635 28.6735 8.08356 29.7418C8.37827 30.0477 8.80849 30.1825 9.22344 30.0935L13.0946 29.2615C13.6072 29.1514 14.1004 29.5049 14.168 30.0242C14.2738 30.8256 14.4601 31.609 14.7235 32.3623C14.8362 32.6874 15.2422 32.7978 15.5064 32.5777C17.2798 31.0959 18.6371 29.0782 19.2989 26.682C19.3888 26.3565 19.4636 26.0306 19.5252 25.7047C19.6981 24.7835 20.1208 23.9538 20.7269 23.2907L19.4434 2.85254C19.3499 2.8521 19.2567 2.89493 19.1964 2.98013C18.3534 4.17897 16.985 4.98823 15.4076 5.05949L15.4024 5.05916C15.1375 5.07102 14.9443 5.31973 15.0067 5.57777C15.0854 5.90487 15.1341 6.24439 15.1503 6.59268C15.1928 7.55281 14.9791 8.46429 14.5706 9.26279C14.5414 9.3201 14.4609 9.32713 14.4211 9.2753L12.2999 6.56183C12.1713 6.39789 12.0052 6.27041 11.8199 6.19036C11.6339 6.10867 11.4269 6.07529 11.2185 6.09901C9.7394 6.26569 8.19874 5.81714 7.01396 4.73403C6.75636 4.49861 6.52742 4.24398 6.32725 3.97364C6.16935 3.76084 5.85432 3.74898 5.67556 3.94454L5.67172 3.94872C4.60673 5.11362 3.10769 5.64541 1.6474 5.5233C1.44877 5.50738 1.29032 5.68065 1.32392 5.87709C1.57614 7.32057 1.18074 8.86112 0.115748 10.0261L0.111905 10.0304C-0.0668554 10.226 -0.0268868 10.5387 0.199199 10.6768C0.486337 10.8521 0.760407 11.0573 1.01801 11.2928C2.20279 12.3759 2.78739 13.8704 2.75368 15.3584C2.74358 15.7767 2.96011 16.1669 3.31137 16.3941L6.20383 18.264C6.25906 18.299 6.25928 18.3798 6.20482 18.414C5.44607 18.8923 4.55732 19.1866 3.5973 19.2302C3.24889 19.2453 2.90642 19.2272 2.5736 19.178C2.31216 19.1389 2.08058 19.3535 2.09244 19.6185L2.09321 19.6237C2.16337 21.2011 1.47984 22.6364 0.36116 23.5832C0.20996 23.7111 0.219952 23.9479 0.382572 24.0612C1.58141 24.9042 2.39067 26.2725 2.46193 27.85L2.4616 27.8552C2.47335 28.1201 2.72326 28.3132 2.98009 28.2509V28.2509Z" fill="url(#paint1_linear_2_6009)"/>
<path d="M19.525 25.7053C19.464 26.0312 19.3888 26.3573 19.2988 26.6828C18.6369 29.079 17.2801 31.0966 15.5064 32.5779C15.2422 32.7986 14.8365 32.6879 14.7232 32.3629C14.4603 31.6092 14.2736 30.8261 14.1684 30.0251C14.1001 29.5054 13.6074 29.152 13.0949 29.2621L9.22367 30.0937C8.80828 30.183 8.37818 30.0482 8.08369 29.742C7.05625 28.6741 5.59213 28.0365 3.99525 28.108C3.64662 28.1236 3.30755 28.1727 2.98055 28.2515C2.72295 28.3137 2.4738 28.1207 2.46173 27.856L2.46151 27.8504C2.39079 26.2733 1.58121 24.9049 0.382369 24.0622C0.219969 23.948 0.209428 23.7117 0.360957 23.5835C1.47953 22.6368 2.1635 21.2015 2.09278 19.6244L2.09257 19.6188C2.08071 19.3541 2.31162 19.1396 2.57362 19.1783C2.90643 19.2277 3.24869 19.2461 3.59732 19.2305C4.55722 19.1875 5.4462 18.8932 6.20439 18.4144C6.25908 18.3799 6.25853 18.2995 6.20417 18.2645L3.31106 16.3946C2.96002 16.1677 2.7437 15.7768 2.75326 15.3589C2.78729 13.871 2.20292 12.3767 1.01813 11.2934C0.760534 11.0579 0.486024 10.8528 0.198997 10.6772C-0.0270897 10.539 -0.0667289 10.2264 0.112032 10.0308L0.115875 10.0266C1.18108 8.86151 1.57616 7.3213 1.32438 5.87781C1.30725 5.77965 1.33843 5.68709 1.39871 5.62109L20.7275 23.2914C20.1212 23.9544 19.6975 24.7841 19.525 25.7053Z" fill="url(#paint2_linear_2_6009)"/>
<path d="M2.97988 28.2517C3.30698 28.1729 3.64649 28.1243 3.99479 28.1081C5.59178 28.037 7.05613 28.6743 8.08334 29.7426C8.37806 30.0485 8.80827 30.1834 9.22322 30.0943L13.0944 29.2623C13.607 29.1522 14.1002 29.5057 14.1678 30.025C14.2735 30.8265 14.4599 31.6098 14.7233 32.3632C14.836 32.6882 15.242 32.7987 15.5062 32.5785C17.2795 31.0967 18.6369 29.0791 19.2987 26.6828C19.3885 26.3573 19.4634 26.0314 19.525 25.7055C19.6972 24.7837 20.1206 23.9546 20.7267 23.2915L0.255859 23.8415C0.262008 23.9266 0.305491 24.0084 0.382353 24.0621C1.58119 24.9052 2.39045 26.2734 2.46171 27.8509L2.46138 27.8562C2.47313 28.1209 2.72304 28.314 2.97988 28.2517V28.2517Z" fill="url(#paint3_linear_2_6009)"/>
<path d="M15.9485 18.9233L15.6588 12.4619C12.0903 12.6219 9.3271 15.6444 9.48708 19.2129L15.9485 18.9233Z" fill="url(#paint4_linear_2_6009)"/>
<path d="M12.1975 15.4936L11.9078 9.03223C8.33933 9.19221 5.57612 12.2147 5.7361 15.7832L12.1975 15.4936Z" fill="url(#paint5_linear_2_6009)"/>
<path d="M8.44531 12.064L8.15565 5.60254C4.58713 5.76252 1.82392 8.78499 1.98391 12.3535L8.44531 12.064Z" fill="url(#paint6_linear_2_6009)"/>
<path d="M20.5283 19.2589L24.8018 14.404C22.1205 12.0438 18.0335 12.3042 15.6733 14.9855L20.5283 19.2589Z" fill="url(#paint7_linear_2_6009)"/>
<path d="M20.2473 15.1188L24.5208 10.2638C21.8395 7.90369 17.7525 8.16404 15.3923 10.8453L20.2473 15.1188Z" fill="url(#paint8_linear_2_6009)"/>
<path d="M19.9291 10.5315L23.317 6.68255C23.5693 6.39596 23.5415 5.95894 23.2549 5.70672L23.184 5.64435C21.0974 3.80766 17.9171 4.01036 16.0805 6.09685L16.0181 6.16768C15.7658 6.45438 15.7937 6.89129 16.0803 7.14351L19.9291 10.5315Z" fill="url(#paint9_linear_2_6009)"/>
<path d="M16.9891 23.8067L12.5359 28.4974C9.94533 26.038 9.83904 21.9441 12.2984 19.3535L16.9891 23.8067Z" fill="url(#paint10_linear_2_6009)"/>
<path d="M12.4249 23.6749L7.97172 28.3656C5.38112 25.9062 5.27483 21.8123 7.73422 19.2217L12.4249 23.6749Z" fill="url(#paint11_linear_2_6009)"/>
<path d="M7.75813 23.6422L4.30886 27.2754C4.05192 27.5459 3.62434 27.557 3.35378 27.3002L3.28691 27.2367C1.31725 25.3669 1.23643 22.2543 3.10639 20.2846L3.16986 20.2177C3.42669 19.9472 3.85438 19.9361 4.12494 20.1929L7.75813 23.6422Z" fill="url(#paint12_linear_2_6009)"/>
<path d="M21.1001 22.9274C20.837 23.1566 20.6026 23.4134 20.3974 23.6948C20.209 23.5969 19.9868 23.572 19.7763 23.6321C19.467 23.7182 19.0874 23.8197 18.9397 23.8434C18.4127 23.9322 17.8937 23.9833 17.3797 24.0276C17.2792 24.0367 17.1803 24.0435 17.0805 24.0514L16.7073 24.4063C16.5411 24.5592 16.3773 24.7158 16.2085 24.8652C16.0399 25.0166 15.8725 25.1687 15.7013 25.3164C15.5313 25.465 15.3578 25.611 15.1843 25.7571C15.099 25.8293 15.0105 25.9011 14.9221 25.9729C14.8356 26.0444 14.7472 26.1162 14.6585 26.186C14.4813 26.3276 14.3018 26.4675 14.1209 26.6046L14.1092 26.6135C13.9038 26.7678 13.6458 26.5012 13.8064 26.3007L13.8146 26.2893C13.9579 26.1127 14.1024 25.937 14.2495 25.765C14.3224 25.6785 14.3965 25.5929 14.4717 25.508C14.5458 25.4224 14.6196 25.3348 14.6952 25.252C14.8468 25.0832 14.9984 24.9144 15.1526 24.7492C15.3046 24.5824 15.4622 24.4197 15.6178 24.2573C15.6591 24.2122 15.7017 24.1701 15.7441 24.1258C15.2799 24.1469 14.8207 24.1612 14.3702 24.1679C13.8034 24.1792 13.2516 24.1822 12.7119 24.18C12.6533 24.2368 12.5945 24.2917 12.5349 24.3478C12.4183 24.4514 12.3049 24.5576 12.1872 24.6602C12.0683 24.7621 11.9516 24.8658 11.8301 24.9641C11.7109 25.064 11.5881 25.1615 11.4644 25.2582C11.4038 25.3083 11.3405 25.3549 11.2785 25.4022C11.2152 25.4487 11.1532 25.4961 11.0889 25.5417C10.9616 25.636 10.8326 25.7253 10.7016 25.815C10.696 25.818 10.6896 25.8221 10.6851 25.8258C10.4824 25.9593 10.2439 25.7139 10.3849 25.5165L10.3964 25.5005C10.4898 25.3713 10.5834 25.2442 10.6809 25.1214C10.7284 25.0583 10.7772 24.9979 10.8269 24.9364C10.8765 24.8749 10.9243 24.8136 10.9763 24.7538C11.0763 24.6348 11.1771 24.5144 11.2818 24.3987C11.349 24.3202 11.4176 24.2445 11.4873 24.1697C10.6248 24.1569 9.74805 24.0747 8.99391 24.0445C8.6902 24.0337 8.39746 24.0222 8.11548 24.008L8.05333 24.0675C7.80068 24.3112 7.52957 24.5345 7.2309 24.731C7.19434 24.755 7.1547 24.7785 7.11704 24.8018C7.07849 24.8262 7.04083 24.8493 7.00086 24.871C6.92356 24.9177 6.84253 24.96 6.76028 25.0015C6.74908 25.0073 6.73788 25.0132 6.72756 25.0179C6.53826 25.1089 6.34171 24.9042 6.43911 24.7189C6.44427 24.7069 6.44976 24.6969 6.45514 24.687C6.49972 24.6061 6.54463 24.5273 6.59294 24.4507C6.61589 24.4118 6.64126 24.3743 6.66541 24.3361C6.69067 24.2988 6.71406 24.2617 6.74052 24.2251C6.80882 24.1282 6.88074 24.0359 6.9531 23.9455C6.28988 23.9097 5.71429 23.8659 5.24312 23.8317C4.7915 23.7993 4.79457 23.6675 5.24675 23.6533C5.7189 23.6381 6.29768 23.6197 6.96386 23.5984C6.88096 23.5037 6.79893 23.4078 6.72207 23.307C6.66805 23.2349 6.61523 23.1636 6.56362 23.0881C6.51322 23.0134 6.46447 22.9363 6.41737 22.857C6.41155 22.8458 6.40452 22.8339 6.3976 22.8219C6.29373 22.6406 6.48292 22.4295 6.67508 22.5127C6.68704 22.5179 6.6989 22.523 6.71197 22.5289C6.79465 22.5662 6.87689 22.6065 6.95749 22.6491C7.03688 22.6908 7.11473 22.7348 7.19159 22.7801C7.49806 22.9651 7.77849 23.1766 8.04038 23.4111L8.20431 23.5575C8.4595 23.5488 8.72281 23.5408 8.99512 23.5323C9.77034 23.5047 10.6692 23.5298 11.5561 23.4993C11.5962 23.4969 11.6392 23.495 11.6804 23.4935C11.6471 23.4625 11.6138 23.4314 11.5822 23.3982C11.4725 23.2875 11.3612 23.1792 11.254 23.0651C11.146 22.9522 11.0396 22.8369 10.934 22.7207C10.8285 22.6044 10.7257 22.4866 10.6235 22.3657C10.5224 22.2455 10.4229 22.1232 10.3252 21.9986C10.32 21.9913 10.314 21.9852 10.3087 21.978C10.1606 21.7857 10.3894 21.5317 10.5964 21.657C10.6041 21.6608 10.6109 21.6658 10.6198 21.6704C10.7524 21.7541 10.8862 21.8386 11.0175 21.9266C11.1476 22.0137 11.2773 22.1039 11.4041 22.1957C11.5318 22.2863 11.6578 22.3791 11.7814 22.4754C11.9066 22.5694 12.0274 22.6671 12.15 22.7645C12.2112 22.8122 12.2699 22.8633 12.3295 22.9134L12.5102 23.063L12.8616 23.3711L12.9439 23.4427C13.401 23.4218 13.8672 23.4004 14.3409 23.3756C14.8394 23.348 15.3466 23.318 15.858 23.2822L15.8379 23.2642C15.7566 23.1863 15.6738 23.1108 15.5924 23.031C15.4308 22.8742 15.2665 22.7188 15.1082 22.5574C14.9464 22.3986 14.7882 22.2372 14.6316 22.0735C14.4741 21.911 14.3184 21.7462 14.1642 21.579C14.0113 21.4128 13.8588 21.2434 13.7091 21.0725L13.6953 21.0556C13.5266 20.8605 13.773 20.5845 13.9844 20.7304L14.0026 20.7435C14.1903 20.874 14.3751 21.0059 14.5582 21.14C14.7414 21.2742 14.9218 21.4098 15.1016 21.5485C15.2804 21.6864 15.4594 21.8263 15.6347 21.9687C15.8126 22.1077 15.9856 22.2537 16.1602 22.3973C16.2474 22.4691 16.3319 22.5423 16.4184 22.6154L16.6761 22.8365L17.0712 23.183C17.1478 23.1758 17.2236 23.1697 17.3001 23.1624C17.8003 23.1133 18.3012 23.051 18.7909 22.9682C19.0297 22.9268 19.2644 22.8789 19.4848 22.8172L15.6417 19.3048L15.1289 19.3064L14.7544 19.3019C14.6289 19.2999 14.5037 19.2998 14.3786 19.2947C14.1291 19.2883 13.878 19.2842 13.6276 19.2721C13.3778 19.2637 13.1274 19.2515 12.8767 19.2372C12.6268 19.2219 12.3758 19.2056 12.1261 19.1852C11.8755 19.1659 11.6255 19.1435 11.374 19.1183L11.3494 19.1162C11.0914 19.088 11.0877 18.7129 11.346 18.6805L11.3708 18.6776C11.6205 18.6475 11.8697 18.6206 12.1203 18.5964C12.3709 18.5723 12.6199 18.5504 12.8703 18.5314C13.1208 18.5123 13.3704 18.4944 13.6209 18.4825C13.8709 18.4665 14.1209 18.4576 14.3715 18.4457C14.4966 18.4386 14.6215 18.4368 14.7461 18.4329L14.8303 18.4295C14.5548 18.1607 14.2763 17.8915 13.9959 17.6244C13.4948 17.1455 12.9947 16.6674 12.5018 16.1962C12.4588 16.1547 12.4149 16.1143 12.3719 16.0727L12.3446 16.072L11.8264 16.0715L11.5671 16.0668C11.4808 16.0635 11.3938 16.0634 11.3083 16.0589C11.1352 16.0503 10.9628 16.0457 10.7902 16.034C10.6168 16.0235 10.444 16.0099 10.271 15.9964C10.0979 15.9808 9.92637 15.9629 9.75332 15.9422C9.5795 15.9227 9.407 15.899 9.23416 15.8732C9.22483 15.8716 9.2166 15.871 9.20726 15.8694C8.9646 15.8297 8.96097 15.4809 9.20331 15.4368C9.21231 15.4364 9.22099 15.434 9.22977 15.4316C9.40195 15.4029 9.57434 15.3761 9.74739 15.3534C9.91934 15.3298 10.0927 15.309 10.2645 15.2905C10.4374 15.2728 10.6093 15.2562 10.7821 15.2436C10.9552 15.2279 11.1266 15.2194 11.2997 15.2089C11.3555 15.2039 11.4098 15.2033 11.4652 15.2014C11.3277 15.069 11.1914 14.9374 11.0566 14.8085C10.59 14.3564 10.1381 13.92 9.70995 13.5061C9.34979 13.1571 9.0083 12.8232 8.68515 12.5094L8.45027 12.5119C8.06113 12.5158 7.67144 12.4917 7.28328 12.4268C7.18489 12.4113 7.08805 12.3935 6.99065 12.3719C6.89238 12.3513 6.79553 12.3265 6.69824 12.2997C6.6866 12.2965 6.67497 12.2934 6.66223 12.2894C6.4547 12.2299 6.45184 11.9354 6.6586 11.8709C6.67013 11.8671 6.68166 11.8631 6.69429 11.8602C6.79169 11.8314 6.88744 11.8048 6.98483 11.7832C7.08201 11.7595 7.17875 11.739 7.27603 11.7223C7.45062 11.6902 7.62565 11.667 7.80166 11.6499C7.36607 11.227 6.99504 10.8666 6.70802 10.5825C6.27517 10.1582 6.35247 10.0731 6.81464 10.4664C7.12297 10.7259 7.51562 11.0637 7.97724 11.4602C7.97812 11.2833 7.98515 11.1075 8.00206 10.93C8.00425 10.8812 8.01249 10.8314 8.01666 10.7822C8.02281 10.7327 8.02819 10.6844 8.03631 10.6347C8.04982 10.5365 8.06728 10.4378 8.08671 10.3387C8.0888 10.3263 8.09111 10.3158 8.09352 10.3054C8.1392 10.093 8.43326 10.0689 8.51122 10.2715C8.51594 10.2819 8.51868 10.2926 8.52329 10.3029C8.55887 10.3982 8.59203 10.4918 8.62058 10.5872C8.63639 10.6352 8.64902 10.6826 8.66285 10.7308C8.67636 10.7772 8.69129 10.8263 8.70206 10.874C8.80066 11.255 8.85962 11.6405 8.89267 12.0281L8.91233 12.2633C9.25338 12.5569 9.6154 12.8673 9.99631 13.1948C10.4457 13.5841 10.9217 13.9943 11.4132 14.4193C11.5542 14.542 11.6974 14.6664 11.8406 14.791C11.8379 14.7368 11.835 14.6807 11.8343 14.6264C11.8287 14.4535 11.822 14.2799 11.8216 14.1073C11.8199 13.9338 11.8215 13.761 11.8238 13.5868C11.8231 13.5011 11.8273 13.4136 11.8294 13.3264C11.8327 13.24 11.8348 13.1528 11.84 13.0662C11.8474 12.8923 11.8587 12.7177 11.8712 12.544C11.8834 12.3996 11.8894 12.2492 12.1868 12.3651C12.2459 12.3869 12.2913 12.4371 12.3061 12.4984C12.3068 12.5023 12.3082 12.5051 12.3089 12.509C12.3502 12.6781 12.3887 12.8486 12.4242 13.0187C12.4441 13.1044 12.4588 13.1899 12.4755 13.2751C12.4922 13.3603 12.5101 13.4463 12.5237 13.531C12.5532 13.7019 12.5827 13.8729 12.6083 14.0445C12.6367 14.2147 12.6572 14.3861 12.6796 14.5572C12.7032 14.7291 12.7198 14.9012 12.7383 15.0729C12.7569 15.2447 12.7714 15.4171 12.7869 15.5882L12.7893 15.6161C12.834 15.6554 12.8787 15.6946 12.9242 15.7329C13.4379 16.1825 13.9587 16.6391 14.4803 17.0945C14.7719 17.3506 15.0649 17.6025 15.3578 17.8543C15.3484 17.7012 15.3389 17.5482 15.3334 17.3946C15.3215 17.1441 15.3086 16.8947 15.3017 16.6443C15.2928 16.3943 15.2886 16.1425 15.2849 15.8926C15.2818 15.7669 15.2819 15.6416 15.2819 15.5164C15.2808 15.3904 15.281 15.2651 15.2829 15.1396C15.2839 14.8879 15.2891 14.6377 15.296 14.3851L15.2965 14.3699C15.3052 14.11 15.6802 14.08 15.7304 14.3355L15.7338 14.3501C15.7807 14.598 15.8254 14.8444 15.8672 15.0921C15.8892 15.2159 15.909 15.34 15.927 15.4643C15.947 15.5884 15.9689 15.7121 15.9849 15.8367C16.0217 16.0843 16.0565 16.3322 16.0885 16.5815C16.1222 16.8286 16.1491 17.0777 16.1779 17.3267C16.2068 17.5755 16.2307 17.8242 16.2557 18.0737L16.3013 18.5834L20.1443 22.0961C20.1849 21.8714 20.2124 21.6337 20.2321 21.3921C20.2697 20.8973 20.2885 20.3924 20.2915 19.8899C20.2933 19.8128 20.2911 19.7364 20.2917 19.6586L19.9117 19.2985L19.6695 19.0608C19.5891 18.9818 19.508 18.904 19.4292 18.8227C19.2701 18.6625 19.1092 18.5025 18.9544 18.3385C18.797 18.176 18.6413 18.0112 18.4882 17.8449C18.3341 17.6778 18.182 17.5104 18.0323 17.3395C17.8818 17.1697 17.735 16.9975 17.5877 16.8232L17.5739 16.8062C17.4096 16.6073 17.6622 16.3375 17.8721 16.4875L17.8892 16.4999C18.0735 16.6349 18.2559 16.7703 18.4357 16.909C18.6145 17.0469 18.7935 17.1868 18.9688 17.3292C19.1462 17.4714 19.3208 17.615 19.4937 17.7608C19.6683 17.9044 19.8376 18.053 20.0089 18.2011C20.0953 18.274 20.1793 18.3505 20.263 18.4249L20.2819 18.442C20.2712 17.9297 20.2564 17.4231 20.2378 16.9241C20.221 16.4491 20.2016 15.9827 20.1806 15.5254L20.102 15.4512L19.7651 15.1276L19.5992 14.9624C19.5438 14.9066 19.4888 14.8529 19.4349 14.7949C19.3281 14.6828 19.2172 14.5713 19.1137 14.4547C19.0073 14.3396 18.9037 14.2228 18.8017 14.1039C18.6989 13.9861 18.5987 13.8649 18.4992 13.7425C18.3997 13.6202 18.3039 13.4952 18.2089 13.3691C18.2037 13.3619 18.1977 13.3557 18.1924 13.3485C18.0499 13.1532 18.2833 12.9027 18.487 13.0324C18.495 13.0383 18.5018 13.0432 18.5095 13.047C18.6416 13.1339 18.7729 13.2219 18.9014 13.3112C19.0302 13.4026 19.157 13.4943 19.2834 13.5892C19.4086 13.6831 19.5321 13.7794 19.6529 13.8772C19.7764 13.9735 19.8947 14.0746 20.0158 14.1743C20.0507 14.2031 20.0837 14.2321 20.1178 14.2619C20.1163 14.2207 20.1135 14.1788 20.1111 14.1388C20.0646 13.2525 19.9584 12.3597 19.9158 11.5858C19.9003 11.3136 19.8861 11.0492 19.8714 10.7951L19.712 10.645C19.4554 10.4055 19.2186 10.1456 19.0077 9.85735C18.9557 9.78488 18.9033 9.71055 18.8557 9.63434C18.8062 9.55847 18.7582 9.4804 18.7131 9.40079C18.7073 9.38959 18.7002 9.37762 18.6944 9.36642C18.5949 9.1814 18.788 8.97464 18.9788 9.06215C18.9908 9.06732 19.0026 9.07248 19.0138 9.07873C19.0969 9.11793 19.1783 9.15933 19.2572 9.20424C19.3369 9.24794 19.413 9.29428 19.4892 9.34062C19.597 9.40815 19.6996 9.48051 19.8004 9.55517C19.7623 8.89075 19.729 8.31329 19.7027 7.8419C19.6753 7.38885 19.8073 7.37469 19.8791 7.82159C19.957 8.28683 20.0527 8.85715 20.1471 9.51356C20.2312 9.4334 20.3165 9.35401 20.4062 9.27803C20.4398 9.24838 20.4749 9.22148 20.5107 9.19348C20.5454 9.16471 20.5794 9.13704 20.6164 9.10981C20.6886 9.05579 20.7629 9.00341 20.8404 8.95158C20.8497 8.94609 20.8597 8.93939 20.8698 8.9327C21.0474 8.81927 21.268 8.99792 21.1937 9.19469C21.1894 9.20545 21.185 9.21632 21.1818 9.22785C21.1472 9.31415 21.1112 9.39783 21.0729 9.47963C21.0552 9.52081 21.0353 9.56044 21.0146 9.60107C20.9947 9.6406 20.974 9.68134 20.9529 9.7201C20.7843 10.035 20.5858 10.3264 20.3661 10.5992L20.3139 10.6641C20.353 10.9446 20.3897 11.2356 20.4291 11.5374C20.5263 12.2862 20.6864 13.1503 20.7759 14.0085C20.8445 13.9328 20.9143 13.858 20.9844 13.7852C21.0912 13.6711 21.2016 13.5594 21.3111 13.4488C21.3656 13.3926 21.4236 13.3388 21.4794 13.2833C21.5363 13.2288 21.5931 13.1742 21.6504 13.1215C21.7652 13.0131 21.8827 12.9084 22.0025 12.8054C22.0078 12.8004 22.013 12.7956 22.0183 12.7908C22.2031 12.6339 22.4682 12.8497 22.3528 13.0622C22.3498 13.0688 22.3468 13.0753 22.3434 13.0799C22.2669 13.2194 22.1889 13.3561 22.1075 13.4904C22.0669 13.5586 22.026 13.6247 21.9832 13.6912C21.9414 13.7585 21.9017 13.8254 21.8578 13.8911C21.7718 14.0221 21.6866 14.1519 21.5972 14.2804C21.51 14.4105 21.4172 14.5365 21.3263 14.6623C21.2357 14.79 21.1394 14.9135 21.0463 15.0376C20.9969 15.101 20.9464 15.1637 20.8971 15.2272C20.9463 15.7657 20.9935 16.3166 21.0327 16.8809C21.0656 17.331 21.0918 17.7884 21.114 18.2534C21.1529 18.2067 21.191 18.1613 21.2304 18.1166C21.3808 17.9469 21.5279 17.7749 21.681 17.6089C21.8306 17.4404 21.9857 17.2741 22.14 17.1089C22.2175 17.0258 22.2964 16.9454 22.3752 16.8631C22.453 16.7818 22.5316 16.6996 22.6115 16.618C22.7702 16.4561 22.9325 16.2967 23.095 16.1393L23.1056 16.1296C23.292 15.9511 23.5791 16.1848 23.4434 16.4034L23.436 16.4137C23.3155 16.6068 23.1928 16.7983 23.0678 16.988C23.0063 17.0828 22.9416 17.177 22.8789 17.2709C22.8152 17.364 22.7516 17.459 22.6867 17.5512C22.5571 17.7377 22.4272 17.9221 22.2939 18.1042C22.162 18.289 22.0264 18.4694 21.8908 18.6497C21.7563 18.8309 21.6162 19.008 21.4785 19.1886L21.1583 19.5905C21.1604 19.6912 21.1613 19.791 21.1614 19.892C21.1645 20.4075 21.1595 20.9295 21.1178 21.4614C21.1066 21.6116 21.0395 21.9982 20.9813 22.3146C20.9411 22.5288 20.9864 22.7478 21.1001 22.9274V22.9274Z" fill="url(#paint13_linear_2_6009)"/>
<path d="M31.7508 9.14169C23.4939 8.51383 16.3544 12.6056 15.4823 21.6054C14.6102 30.6052 20.5967 38.41 28.8536 39.0379C37.1105 39.6657 44.5112 32.879 45.3833 23.8791C46.2556 14.8793 40.0078 9.76955 31.7508 9.14169V9.14169Z" fill="url(#paint14_radial_2_6009)"/>
<path d="M45.3828 23.8791C46.0538 16.9544 42.5095 12.3335 37.0784 10.2842C38.94 12.6708 39.8885 15.8273 39.5124 19.7079C38.6402 28.7076 31.2397 35.4945 22.9827 34.8666C21.6586 34.766 20.394 34.4786 19.2056 34.0335C21.606 36.8691 24.9796 38.7433 28.8531 39.0378C37.11 39.6657 44.5106 32.8789 45.3828 23.8791V23.8791Z" fill="url(#paint15_linear_2_6009)"/>
<path d="M30.0013 11.5186C30.1988 10.5556 31.7961 10.0696 33.5691 10.4331C35.3421 10.7965 36.6193 11.8718 36.422 12.8348C36.2246 13.7978 34.6273 14.2838 32.8543 13.9203C31.0811 13.5569 29.8039 12.4816 30.0013 11.5186Z" fill="url(#paint16_linear_2_6009)"/>
<path d="M30.5349 11.4658C30.6866 10.7258 32.0226 10.3745 33.5189 10.6812C35.0152 10.988 36.1052 11.8365 35.9536 12.5765C35.8018 13.3166 34.466 13.6678 32.9695 13.3611C31.4731 13.0544 30.3831 12.2058 30.5349 11.4658Z" fill="url(#paint17_linear_2_6009)"/>
<path d="M51.4008 46.4054C45.0197 51.6591 35.8491 51.2623 30.9177 45.5192C25.9863 39.7761 27.1617 30.8615 33.5428 25.6078C39.9239 20.3541 47.1837 22.3241 52.1151 28.0672C57.0465 33.8105 57.7821 41.1518 51.4008 46.4054V46.4054Z" fill="url(#paint18_radial_2_6009)"/>
<path d="M51.4011 46.4055C56.3109 42.3632 57.007 37.0851 54.821 32.25C54.4816 34.9961 53.0543 37.6495 50.3029 39.9148C43.9217 45.1685 34.751 44.7717 29.8197 39.0286C29.0289 38.1077 28.3971 37.1044 27.9167 36.0486C27.6354 39.4332 28.6046 42.8252 30.918 45.5194C35.8494 51.2625 45.02 51.6592 51.4011 46.4055Z" fill="url(#paint19_linear_2_6009)"/>
<path d="M49.4471 28.4733C50.1972 27.9784 51.5438 28.6969 52.455 30.0779C53.3661 31.4589 53.4967 32.9796 52.7466 33.4745C51.9966 33.9693 50.6499 33.2509 49.7388 31.8699C48.8276 30.4888 48.6971 28.9681 49.4471 28.4733V28.4733Z" fill="url(#paint20_linear_2_6009)"/>
<path d="M49.8269 28.7834C50.4032 28.4032 51.4939 29.0397 52.2629 30.2052C53.0319 31.3706 53.1879 32.6237 52.6115 33.0041C52.0352 33.3843 50.9445 32.7478 50.1756 31.5823C49.4065 30.4169 49.2504 29.1637 49.8269 28.7834Z" fill="url(#paint21_linear_2_6009)"/>
<path d="M27.9851 27.7476V38.9433H27.9855C28.3018 41.3196 29.2672 43.597 30.9175 45.519C35.1496 50.4476 42.5037 51.4385 48.5377 48.3L27.9851 27.7476Z" fill="url(#paint22_linear_2_6009)"/>
<path d="M31.0887 31.8754C34.8228 39.2494 32.4339 48.1123 25.7529 51.6713C19.0719 55.2301 10.6287 52.1373 6.89462 44.7633C3.16052 37.3892 6.66765 30.7345 13.3487 27.1757C20.0297 23.6167 27.3546 24.5013 31.0887 31.8754Z" fill="url(#paint23_radial_2_6009)"/>
<path d="M31.0888 31.8753C28.2156 26.2015 23.2168 24.3702 18.021 25.4482C20.6268 26.3788 22.9046 28.3508 24.5147 31.5303C28.2488 38.9043 25.8599 47.7673 19.1789 51.3262C18.1075 51.897 16.9906 52.2945 15.8552 52.5329C19.0969 53.5463 22.6187 53.3407 25.7528 51.6712C32.434 48.1124 34.8229 39.2494 31.0888 31.8753Z" fill="url(#paint24_linear_2_6009)"/>
<path d="M13.1629 29.8674C12.8437 29.0274 13.8386 27.87 15.3852 27.2822C16.9318 26.6946 18.4443 26.899 18.7635 27.739C19.0827 28.579 18.0877 29.7364 16.5412 30.3241C14.9945 30.9118 13.4821 30.7074 13.1629 29.8674V29.8674Z" fill="url(#paint25_linear_2_6009)"/>
<path d="M13.5477 29.5649C13.3024 28.9194 14.1616 27.9941 15.4668 27.4981C16.7721 27.0021 18.029 27.1234 18.2743 27.7689C18.5196 28.4144 17.6604 29.3397 16.3551 29.8357C15.0499 30.3317 13.793 30.2105 13.5477 29.5649Z" fill="url(#paint26_linear_2_6009)"/>
</g>
<defs>
<linearGradient id="paint0_linear_2_6009" x1="8.12477" y1="3.69147" x2="17.3797" y2="26.5953" gradientUnits="userSpaceOnUse">
<stop stop-color="#FFA325"/>
<stop offset="1" stop-color="#7C8A1A"/>
</linearGradient>
<linearGradient id="paint1_linear_2_6009" x1="17.5276" y1="15.1902" x2="27.1972" y2="11.1423" gradientUnits="userSpaceOnUse">
<stop stop-color="#7C8A1A" stop-opacity="0"/>
<stop offset="1" stop-color="#5A6313"/>
</linearGradient>
<linearGradient id="paint2_linear_2_6009" x1="7.81285" y1="19.282" x2="23.7764" y2="12.2988" gradientUnits="userSpaceOnUse">
<stop stop-color="#7C8A1A" stop-opacity="0"/>
<stop offset="1" stop-color="#5A6313"/>
</linearGradient>
<linearGradient id="paint3_linear_2_6009" x1="11.2032" y1="25.4562" x2="7.7945" y2="17.1817" gradientUnits="userSpaceOnUse">
<stop stop-color="#7C8A1A" stop-opacity="0"/>
<stop offset="1" stop-color="#5A6313"/>
</linearGradient>
<linearGradient id="paint4_linear_2_6009" x1="12.9697" y1="16.208" x2="15.9982" y2="18.9779" gradientUnits="userSpaceOnUse">
<stop stop-color="#7C8A1A" stop-opacity="0"/>
<stop offset="1" stop-color="#544F43"/>
</linearGradient>
<linearGradient id="paint5_linear_2_6009" x1="9.2402" y1="12.796" x2="14.679" y2="17.7706" gradientUnits="userSpaceOnUse">
<stop stop-color="#7C8A1A" stop-opacity="0"/>
<stop offset="1" stop-color="#544F43"/>
</linearGradient>
<linearGradient id="paint6_linear_2_6009" x1="5.60774" y1="9.47388" x2="10.8648" y2="14.2822" gradientUnits="userSpaceOnUse">
<stop stop-color="#7C8A1A" stop-opacity="0"/>
<stop offset="1" stop-color="#544F43"/>
</linearGradient>
<linearGradient id="paint7_linear_2_6009" x1="20.1767" y1="15.1365" x2="20.3528" y2="19.0851" gradientUnits="userSpaceOnUse">
<stop stop-color="#7C8A1A" stop-opacity="0"/>
<stop offset="1" stop-color="#544F43"/>
</linearGradient>
<linearGradient id="paint8_linear_2_6009" x1="20.0305" y1="11.5096" x2="20.4864" y2="18.6186" gradientUnits="userSpaceOnUse">
<stop stop-color="#7C8A1A" stop-opacity="0"/>
<stop offset="1" stop-color="#544F43"/>
</linearGradient>
<linearGradient id="paint9_linear_2_6009" x1="19.7225" y1="7.10841" x2="20.1556" y2="13.862" gradientUnits="userSpaceOnUse">
<stop stop-color="#7C8A1A" stop-opacity="0"/>
<stop offset="1" stop-color="#544F43"/>
</linearGradient>
<linearGradient id="paint10_linear_2_6009" x1="12.9312" y1="23.8229" x2="16.2703" y2="23.6356" gradientUnits="userSpaceOnUse">
<stop stop-color="#7C8A1A" stop-opacity="0"/>
<stop offset="1" stop-color="#544F43"/>
</linearGradient>
<linearGradient id="paint11_linear_2_6009" x1="8.56728" y1="23.6376" x2="12.5689" y2="23.2091" gradientUnits="userSpaceOnUse">
<stop stop-color="#7C8A1A" stop-opacity="0"/>
<stop offset="1" stop-color="#544F43"/>
</linearGradient>
<linearGradient id="paint12_linear_2_6009" x1="4.00366" y1="23.7596" x2="8.2039" y2="24.7651" gradientUnits="userSpaceOnUse">
<stop stop-color="#7C8A1A" stop-opacity="0"/>
<stop offset="1" stop-color="#544F43"/>
</linearGradient>
<linearGradient id="paint13_linear_2_6009" x1="14.0947" y1="7.73125" x2="14.1378" y2="22.2627" gradientUnits="userSpaceOnUse">
<stop stop-color="#FFA325"/>
<stop offset="1" stop-color="#5A6313"/>
</linearGradient>
<radialGradient id="paint14_radial_2_6009" cx="0" cy="0" r="1" gradientUnits="userSpaceOnUse" gradientTransform="translate(24.5692 9.89231) scale(21.5986 21.5986)">
<stop stop-color="#FF7044"/>
<stop offset="0.2892" stop-color="#FF6D42"/>
<stop offset="0.5055" stop-color="#FE633C"/>
<stop offset="0.698" stop-color="#FC5331"/>
<stop offset="0.8757" stop-color="#FA3D22"/>
<stop offset="1" stop-color="#F82814"/>
</radialGradient>
<linearGradient id="paint15_linear_2_6009" x1="30.9096" y1="25.3666" x2="58.6098" y2="19.5672" gradientUnits="userSpaceOnUse">
<stop stop-color="#F82814" stop-opacity="0"/>
<stop offset="1" stop-color="#C0272D"/>
</linearGradient>
<linearGradient id="paint16_linear_2_6009" x1="33.2372" y1="14.6678" x2="33.1973" y2="8.72256" gradientUnits="userSpaceOnUse">
<stop stop-color="#FF7044"/>
<stop offset="0.2892" stop-color="#FF6D42"/>
<stop offset="0.5055" stop-color="#FE633C"/>
<stop offset="0.698" stop-color="#FC5331"/>
<stop offset="0.8757" stop-color="#FA3D22"/>
<stop offset="1" stop-color="#F82814"/>
</linearGradient>
<linearGradient id="paint17_linear_2_6009" x1="33.8393" y1="9.02896" x2="32.9393" y2="13.4172" gradientUnits="userSpaceOnUse">
<stop stop-color="#F35227"/>
<stop offset="1" stop-color="#D60A00"/>
</linearGradient>
<radialGradient id="paint18_radial_2_6009" cx="0" cy="0" r="1" gradientUnits="userSpaceOnUse" gradientTransform="translate(41.4058 30.3937) rotate(11.5908) scale(16.639 16.639)">
<stop stop-color="#FF7044"/>
<stop offset="0.2892" stop-color="#FF6D42"/>
<stop offset="0.5055" stop-color="#FE633C"/>
<stop offset="0.698" stop-color="#FC5331"/>
<stop offset="0.8757" stop-color="#FA3D22"/>
<stop offset="1" stop-color="#F82814"/>
</radialGradient>
<linearGradient id="paint19_linear_2_6009" x1="41.192" y1="38.1727" x2="62.8382" y2="52.3102" gradientUnits="userSpaceOnUse">
<stop stop-color="#F82814" stop-opacity="0"/>
<stop offset="1" stop-color="#C0272D"/>
</linearGradient>
<linearGradient id="paint20_linear_2_6009" x1="49.5311" y1="32.6119" x2="53.3474" y2="28.7425" gradientUnits="userSpaceOnUse">
<stop stop-color="#FF7044"/>
<stop offset="0.2892" stop-color="#FF6D42"/>
<stop offset="0.5055" stop-color="#FE633C"/>
<stop offset="0.698" stop-color="#FC5331"/>
<stop offset="0.8757" stop-color="#FA3D22"/>
<stop offset="1" stop-color="#F82814"/>
</linearGradient>
<linearGradient id="paint21_linear_2_6009" x1="53.5641" y1="29.3722" x2="50.1462" y2="31.6276" gradientUnits="userSpaceOnUse">
<stop stop-color="#F35227"/>
<stop offset="1" stop-color="#D60A00"/>
</linearGradient>
<linearGradient id="paint22_linear_2_6009" x1="41.2367" y1="40.6211" x2="29.4697" y2="37.9383" gradientUnits="userSpaceOnUse">
<stop stop-color="#F82814" stop-opacity="0"/>
<stop offset="1" stop-color="#C0272D"/>
</linearGradient>
<radialGradient id="paint23_radial_2_6009" cx="0" cy="0" r="1" gradientUnits="userSpaceOnUse" gradientTransform="translate(13.2521 38.127) rotate(-65.7932) scale(16.6302 16.6302)">
<stop stop-color="#FF7044"/>
<stop offset="0.2892" stop-color="#FF6D42"/>
<stop offset="0.5055" stop-color="#FE633C"/>
<stop offset="0.698" stop-color="#FC5331"/>
<stop offset="0.8757" stop-color="#FA3D22"/>
<stop offset="1" stop-color="#F82814"/>
</radialGradient>
<linearGradient id="paint24_linear_2_6009" x1="20.7479" y1="40.0715" x2="39.2785" y2="22.0347" gradientUnits="userSpaceOnUse">
<stop stop-color="#F82814" stop-opacity="0"/>
<stop offset="1" stop-color="#C0272D"/>
</linearGradient>
<linearGradient id="paint25_linear_2_6009" x1="17.1813" y1="30.7132" x2="14.2407" y2="26.1446" gradientUnits="userSpaceOnUse">
<stop stop-color="#FF7044"/>
<stop offset="0.2892" stop-color="#FF6D42"/>
<stop offset="0.5055" stop-color="#FE633C"/>
<stop offset="0.698" stop-color="#FC5331"/>
<stop offset="0.8757" stop-color="#FA3D22"/>
<stop offset="1" stop-color="#F82814"/>
</linearGradient>
<linearGradient id="paint26_linear_2_6009" x1="14.8761" y1="26.0392" x2="16.3292" y2="29.8664" gradientUnits="userSpaceOnUse">
<stop stop-color="#F35227"/>
<stop offset="1" stop-color="#D60A00"/>
</linearGradient>
<clipPath id="clip0_2_6009">
<rect width="56" height="56" fill="white"/>
</clipPath>
</defs>
</svg>
