<svg width="56" height="56" viewBox="0 0 56 56" fill="none" xmlns="http://www.w3.org/2000/svg">
<g clip-path="url(#clip0_2_6051)">
<path d="M55.9995 21.4184C55.9995 12.4395 47.2769 5.16064 36.5171 5.16064H19.4819V50.8391H50.6035C53.3118 50.8391 55.3554 48.3807 54.8606 45.7179L52.5007 33.0199C51.8811 29.6856 52.7767 26.2135 55.0475 23.6944C55.6612 23.0138 55.9995 22.255 55.9995 21.4184V21.4184Z" fill="url(#paint0_linear_2_6051)"/>
<path d="M19.4819 34.5883H52.7923L52.5009 33.02C51.8813 29.6857 52.777 26.2136 55.0477 23.6946C55.6613 23.0139 55.9997 22.2552 55.9997 21.4186C55.9997 18.5908 55.1339 15.932 53.6125 13.6157H19.482V34.5883H19.4819Z" fill="url(#paint1_linear_2_6051)"/>
<path d="M19.4819 50.839H50.6036C53.3119 50.839 55.3554 48.3806 54.8606 45.7178L53.3228 37.4429H19.4819V50.839Z" fill="url(#paint2_linear_2_6051)"/>
<path d="M38.9649 21.4184C38.9649 12.4394 30.2423 5.16064 19.4824 5.16064C8.7225 5.16064 0 12.4394 0 21.4184C0 22.2551 0.338306 23.0138 0.952 23.6944C3.22275 26.2135 4.11842 29.6856 3.49868 33.0199L1.13878 45.7179C0.644 48.3807 2.68756 50.8391 5.39587 50.8391H33.5689C36.2772 50.8391 38.3209 48.3807 37.826 45.7179L35.4661 33.0199C34.8465 29.6856 35.7422 26.2135 38.0129 23.6944C38.6266 23.0138 38.9649 22.255 38.9649 21.4184V21.4184Z" fill="url(#paint3_linear_2_6051)"/>
<path d="M5.39563 48.6001C4.54224 48.6001 4.02188 48.1275 3.78777 47.8459C3.55367 47.5642 3.18407 46.9664 3.33999 46.1273L5.69979 33.4293C6.45348 29.3741 5.30021 25.1745 2.61474 22.1954C2.23877 21.7784 2.23877 21.517 2.23877 21.4186C2.23877 13.6887 9.97413 7.3999 19.482 7.3999C28.99 7.3999 36.7253 13.6886 36.7253 21.4186C36.7253 21.517 36.7253 21.7783 36.3494 22.1953C33.6639 25.1745 32.5106 29.3741 33.2643 33.4293L35.6241 46.1273C35.78 46.9664 35.4105 47.5642 35.1763 47.8459C34.9421 48.1276 34.4219 48.6002 33.5685 48.6002H5.39563V48.6001Z" fill="url(#paint4_linear_2_6051)"/>
<path d="M1.13935 45.7178C0.644576 48.3806 2.68814 50.839 5.39645 50.839H33.5696C36.2779 50.839 38.3216 48.3806 37.8267 45.7178L36.2601 37.2881H2.70604L1.13935 45.7178Z" fill="url(#paint5_linear_2_6051)"/>
<path d="M8.85701 21.9542C10.3038 21.9542 11.4767 20.7814 11.4767 19.3345C11.4767 17.8877 10.3038 16.7148 8.85701 16.7148C7.41019 16.7148 6.2373 17.8877 6.2373 19.3345C6.2373 20.7814 7.41019 21.9542 8.85701 21.9542Z" fill="url(#paint6_linear_2_6051)"/>
<path d="M13.7851 16.495C14.8373 16.495 15.6903 15.642 15.6903 14.5898C15.6903 13.5376 14.8373 12.6846 13.7851 12.6846C12.7329 12.6846 11.8799 13.5376 11.8799 14.5898C11.8799 15.642 12.7329 16.495 13.7851 16.495Z" fill="url(#paint7_linear_2_6051)"/>
<path d="M17.1186 23.8593C18.1708 23.8593 19.0238 23.0063 19.0238 21.954C19.0238 20.9018 18.1708 20.0488 17.1186 20.0488C16.0664 20.0488 15.2134 20.9018 15.2134 21.954C15.2134 23.0063 16.0664 23.8593 17.1186 23.8593Z" fill="url(#paint8_linear_2_6051)"/>
<path d="M28.4287 16.8319C29.4809 16.8319 30.3339 15.9789 30.3339 14.9267C30.3339 13.8745 29.4809 13.0215 28.4287 13.0215C27.3764 13.0215 26.5234 13.8745 26.5234 14.9267C26.5234 15.9789 27.3764 16.8319 28.4287 16.8319Z" fill="url(#paint9_linear_2_6051)"/>
<path d="M30.822 43.3148C31.8742 43.3148 32.7272 42.4618 32.7272 41.4096C32.7272 40.3574 31.8742 39.5044 30.822 39.5044C29.7697 39.5044 28.9167 40.3574 28.9167 41.4096C28.9167 42.4618 29.7697 43.3148 30.822 43.3148Z" fill="url(#paint10_linear_2_6051)"/>
<path d="M21.8981 39.1283C22.9503 39.1283 23.8033 38.2753 23.8033 37.2231C23.8033 36.1709 22.9503 35.3179 21.8981 35.3179C20.8459 35.3179 19.9929 36.1709 19.9929 37.2231C19.9929 38.2753 20.8459 39.1283 21.8981 39.1283Z" fill="url(#paint11_linear_2_6051)"/>
</g>
<defs>
<linearGradient id="paint0_linear_2_6051" x1="37.7408" y1="1.31751" x2="37.7408" y2="37.539" gradientUnits="userSpaceOnUse">
<stop stop-color="#FFDFCF"/>
<stop offset="1" stop-color="#FFA78F"/>
</linearGradient>
<linearGradient id="paint1_linear_2_6051" x1="37.7408" y1="16.8366" x2="37.7408" y2="31.9945" gradientUnits="userSpaceOnUse">
<stop stop-color="#F89580" stop-opacity="0"/>
<stop offset="0.4755" stop-color="#EB9C8D"/>
<stop offset="0.8606" stop-color="#F39784" stop-opacity="0.266"/>
<stop offset="1" stop-color="#F89580" stop-opacity="0"/>
</linearGradient>
<linearGradient id="paint2_linear_2_6051" x1="37.2085" y1="38.2115" x2="37.2085" y2="48.9437" gradientUnits="userSpaceOnUse">
<stop stop-color="#F89580" stop-opacity="0"/>
<stop offset="0.2608" stop-color="#F2917C" stop-opacity="0.262"/>
<stop offset="0.5874" stop-color="#E38670" stop-opacity="0.589"/>
<stop offset="0.9476" stop-color="#CA735D" stop-opacity="0.95"/>
<stop offset="0.9972" stop-color="#C5715A"/>
</linearGradient>
<linearGradient id="paint3_linear_2_6051" x1="-1.49125" y1="10.4075" x2="38.8395" y2="50.7383" gradientUnits="userSpaceOnUse">
<stop stop-color="#FFDFCF"/>
<stop offset="1" stop-color="#FFA78F"/>
</linearGradient>
<linearGradient id="paint4_linear_2_6051" x1="0.386597" y1="12.2833" x2="37.1059" y2="49.0028" gradientUnits="userSpaceOnUse">
<stop stop-color="#FFF7F0"/>
<stop offset="1" stop-color="#FFDFCF"/>
</linearGradient>
<linearGradient id="paint5_linear_2_6051" x1="19.483" y1="41.9901" x2="19.483" y2="52.0836" gradientUnits="userSpaceOnUse">
<stop stop-color="#F89580" stop-opacity="0"/>
<stop offset="0.2608" stop-color="#F2917C" stop-opacity="0.262"/>
<stop offset="0.5874" stop-color="#E38670" stop-opacity="0.589"/>
<stop offset="0.9476" stop-color="#CA735D" stop-opacity="0.95"/>
<stop offset="0.9972" stop-color="#C5715A"/>
</linearGradient>
<linearGradient id="paint6_linear_2_6051" x1="7.27473" y1="17.7523" x2="15.9788" y2="26.4563" gradientUnits="userSpaceOnUse">
<stop stop-color="#FFCEBF" stop-opacity="0"/>
<stop offset="0.9972" stop-color="#FFA78F"/>
</linearGradient>
<linearGradient id="paint7_linear_2_6051" x1="12.6574" y1="13.4621" x2="17.7981" y2="18.6029" gradientUnits="userSpaceOnUse">
<stop stop-color="#FFCEBF" stop-opacity="0"/>
<stop offset="0.9972" stop-color="#FFA78F"/>
</linearGradient>
<linearGradient id="paint8_linear_2_6051" x1="15.936" y1="20.7715" x2="21.0767" y2="25.9121" gradientUnits="userSpaceOnUse">
<stop stop-color="#FFCEBF" stop-opacity="0"/>
<stop offset="0.9972" stop-color="#FFA78F"/>
</linearGradient>
<linearGradient id="paint9_linear_2_6051" x1="27.7402" y1="14.2382" x2="32.8809" y2="19.3789" gradientUnits="userSpaceOnUse">
<stop stop-color="#FFCEBF" stop-opacity="0"/>
<stop offset="0.9972" stop-color="#FFA78F"/>
</linearGradient>
<linearGradient id="paint10_linear_2_6051" x1="28.6237" y1="39.2113" x2="33.7645" y2="44.3521" gradientUnits="userSpaceOnUse">
<stop stop-color="#FFCEBF" stop-opacity="0"/>
<stop offset="0.9972" stop-color="#FFA78F"/>
</linearGradient>
<linearGradient id="paint11_linear_2_6051" x1="20.2489" y1="35.5738" x2="25.3897" y2="40.7145" gradientUnits="userSpaceOnUse">
<stop stop-color="#FFCEBF" stop-opacity="0"/>
<stop offset="0.9972" stop-color="#FFA78F"/>
</linearGradient>
<clipPath id="clip0_2_6051">
<rect width="56" height="56" fill="white"/>
</clipPath>
</defs>
</svg>
