<svg width="56" height="56" viewBox="0 0 56 56" fill="none" xmlns="http://www.w3.org/2000/svg">
<g clip-path="url(#clip0_2_4930)">
<path d="M27.9999 41.7647C21.0572 41.7647 14.6858 40.7866 9.69507 39.1558C10.4131 41.858 11.762 43.9017 13.4253 44.5557C17.1793 46.0319 22.3239 46.9424 27.9999 46.9424C33.6759 46.9424 38.8206 46.0319 42.5745 44.5557C44.2378 43.9016 45.5868 41.858 46.3048 39.1558C41.3141 40.7866 34.9426 41.7647 27.9999 41.7647V41.7647Z" fill="url(#paint0_linear_2_4930)"/>
<path d="M56 34.1015C56 47.8195 0 47.8195 0 34.1015C0 20.3835 56 20.3835 56 34.1015Z" fill="url(#paint1_linear_2_4930)"/>
<path d="M52.1572 33.0954C52.1572 42.8756 3.84351 42.8756 3.84351 33.0954C3.84351 23.3152 52.1572 23.3152 52.1572 33.0954Z" fill="url(#paint2_linear_2_4930)"/>
<path d="M55.9998 34.1017C55.9998 22.8804 18.5307 20.8386 4.89112 27.9752C4.88431 30.4527 4.87695 33.1312 4.87585 33.5468L4.87574 33.5829C4.87333 34.4751 5.27554 35.2428 5.92294 35.7188L13.1894 42.9853C29.7449 46.4557 55.9998 43.4949 55.9998 34.1017Z" fill="url(#paint3_linear_2_4930)"/>
<path d="M20.8128 44.0818L14.2611 37.5302C13.9645 37.1843 13.5252 36.9644 13.0338 36.9644C12.1406 36.9644 11.4165 37.6884 11.4165 38.5816C11.4165 38.7279 11.5043 38.8497 11.6494 38.9481L16.2367 43.5353C17.7156 43.7631 19.248 43.9451 20.8128 44.0818V44.0818Z" fill="url(#paint4_linear_2_4930)"/>
<path d="M29.8842 44.3689L21.5105 35.9951C21.1653 35.5803 20.6127 35.2967 19.7553 35.2672C19.6596 35.2639 19.564 35.2736 19.4711 35.2969C18.7418 35.4797 15.2808 36.4479 15.1707 38.3876C15.1502 38.7479 15.3144 39.0335 15.6008 39.2601L20.3839 44.0433C23.4725 44.3307 26.6947 44.4391 29.8842 44.3689V44.3689Z" fill="url(#paint5_linear_2_4930)"/>
<path d="M51.1178 26.0544L51.1232 24.0922C51.1513 13.8341 45.9072 11.6619 43.7904 11.2032C43.3072 11.0979 42.7935 11.1144 42.2902 11.2508L7.0626 20.824C5.81973 21.1615 4.9066 22.321 4.90319 23.5666C4.90319 23.5666 4.87805 32.7472 4.87585 33.5468L4.87574 33.5828C4.87179 35.0248 5.92283 36.1434 7.36214 36.2267L47.6073 38.5639C49.4269 38.6689 51.0875 37.1051 51.0925 35.281C51.0924 35.2811 51.1152 26.989 51.1178 26.0544V26.0544Z" fill="url(#paint6_linear_2_4930)"/>
<path d="M43.7909 11.2026C43.3073 11.0977 42.793 11.1148 42.2904 11.2514L7.06267 20.8239C6.61939 20.9444 6.21938 21.1707 5.88623 21.4667L51.123 24.1304L51.1231 24.0925C51.1515 13.8339 45.9073 11.6616 43.7909 11.2026V11.2026Z" fill="url(#paint7_linear_2_4930)"/>
<path d="M30.7652 22.9322L5.88623 21.4669C6.21894 21.1706 6.61939 20.9445 7.06289 20.8238L25.9835 15.6826C25.7545 16.1287 25.6232 16.6275 25.6219 17.144C25.6193 18.0537 26.0182 18.8228 26.6456 19.2914L30.7652 22.9322Z" fill="url(#paint8_linear_2_4930)"/>
<path d="M51.1242 24.093L51.1241 24.1306L46.0832 23.8339L45.843 23.8199L45.8101 23.8172L30.7657 22.932L26.646 19.2912C26.0186 18.8226 25.6198 18.0535 25.6223 17.1438C25.6238 16.6273 25.755 16.1285 25.9839 15.6824L34.3577 13.4071L42.291 11.2511C42.7932 11.1149 43.3076 11.0977 43.7917 11.2027C45.9073 11.6614 51.1523 13.8336 51.1242 24.093V24.093Z" fill="url(#paint9_linear_2_4930)"/>
<path d="M47.0359 33.0881L47.05 27.9678C47.0523 27.1148 46.4307 26.4533 45.5798 26.4032L4.90199 24.0078C4.89694 25.8469 4.87772 32.8526 4.87585 33.5467L4.87574 33.5827C4.8752 33.7705 4.89298 33.9527 4.9268 34.1279L43.5507 36.371C45.3702 36.476 47.0309 34.9121 47.0359 33.0881V33.0881Z" fill="url(#paint10_linear_2_4930)"/>
<path d="M47.0378 32.2426L47.0355 33.0881C47.0336 33.7849 46.7895 34.4443 46.3872 34.9863L4.87793 32.576L4.88551 29.7939L47.0378 32.2426Z" fill="url(#paint11_linear_2_4930)"/>
<path d="M47.0497 27.9681L47.0422 30.6983L4.88989 28.2507L4.89747 25.4697L47.0487 27.9174C47.0498 27.9335 47.0497 27.9509 47.0497 27.9681V27.9681Z" fill="url(#paint12_linear_2_4930)"/>
<path d="M43.3551 10.4553C42.8449 10.3458 42.3009 10.3691 41.7709 10.5131C41.2517 10.6542 41.1151 11.3423 41.5609 11.5699C43.9115 12.7698 46.9034 15.6872 47.3022 22.7757C47.3396 23.4396 47.8425 23.9373 48.51 23.9766L49.4112 24.0158C50.3173 24.0552 51.1293 23.2479 51.0781 22.3492C50.5425 12.9689 45.4598 10.9073 43.3551 10.4553Z" fill="url(#paint13_linear_2_4930)"/>
<path d="M27.8191 12.3465C28.4172 12.8969 28.7314 13.6787 28.5211 14.0927C28.3107 14.5068 27.6553 14.3965 27.0573 13.8461C26.4593 13.2958 25.2642 11.7036 25.4745 11.2894C25.6848 10.8754 27.221 11.7962 27.8191 12.3465V12.3465Z" fill="url(#paint14_linear_2_4930)"/>
<path d="M28.7334 12.2523C28.8656 13.2629 28.5874 14.1379 28.1121 14.2066C27.6367 14.2753 27.1442 13.5119 27.012 12.5012C26.8798 11.4906 26.9634 9.1274 27.4387 9.05866C27.9141 8.99004 28.6012 11.2418 28.7334 12.2523Z" fill="url(#paint15_linear_2_4930)"/>
<path d="M33.6261 13.7335C33.8004 15.3459 32.6961 16.7876 31.1596 16.9536C29.6231 17.1196 28.2363 15.9473 28.062 14.3349C27.8878 12.7226 28.9921 11.2808 30.5285 11.1148C32.065 10.9487 33.4518 12.1212 33.6261 13.7335V13.7335Z" fill="url(#paint16_linear_2_4930)"/>
<path d="M31.6404 11.8481C31.6737 12.1562 31.3907 12.4395 31.0083 12.4809C30.6258 12.5222 30.2889 12.306 30.2556 11.9977C30.2223 11.6896 30.5053 11.4063 30.8877 11.3649C31.2702 11.3235 31.6072 11.54 31.6404 11.8481Z" fill="url(#paint17_linear_2_4930)"/>
<path d="M30.1419 12.6858C30.1578 12.8328 30.0571 12.9641 29.9171 12.9792C29.7771 12.9944 29.6507 12.8875 29.6349 12.7406C29.6191 12.5937 29.7197 12.4624 29.8597 12.4472C29.9997 12.4321 30.1261 12.5389 30.1419 12.6858Z" fill="url(#paint18_linear_2_4930)"/>
<path d="M31.3626 13.3909C31.3785 13.5378 31.2778 13.6691 31.1378 13.6843C30.9978 13.6995 30.8715 13.5926 30.8556 13.4457C30.8398 13.2988 30.9404 13.1674 31.0804 13.1523C31.2203 13.1372 31.3467 13.244 31.3626 13.3909Z" fill="url(#paint19_linear_2_4930)"/>
<path d="M30.7596 16.3233C30.9339 17.9357 29.8296 19.3774 28.2931 19.5434C26.7567 19.7095 25.3698 18.5371 25.1956 16.9247C25.0213 15.3124 26.1256 13.8707 27.6621 13.7046C29.1986 13.5386 30.5854 14.711 30.7596 16.3233V16.3233Z" fill="url(#paint20_linear_2_4930)"/>
<path d="M28.7742 14.4379C28.8075 14.746 28.5245 15.0293 28.1421 15.0707C27.7596 15.112 27.4226 14.8958 27.3894 14.5876C27.3561 14.2793 27.6391 13.9962 28.0215 13.9548C28.4039 13.9135 28.7409 14.1298 28.7742 14.4379Z" fill="url(#paint21_linear_2_4930)"/>
<path d="M27.2754 15.2757C27.2914 15.4226 27.1907 15.5539 27.0507 15.5691C26.9107 15.5842 26.7843 15.4774 26.7685 15.3305C26.7527 15.1836 26.8533 15.0522 26.9933 15.0371C27.1333 15.0219 27.2596 15.1288 27.2754 15.2757Z" fill="url(#paint22_linear_2_4930)"/>
<path d="M28.4961 15.9808C28.512 16.1277 28.4114 16.259 28.2714 16.2742C28.1314 16.2893 28.005 16.1825 27.9892 16.0356C27.9734 15.8886 28.0739 15.7573 28.2139 15.7422C28.3539 15.727 28.4802 15.8338 28.4961 15.9808Z" fill="url(#paint23_linear_2_4930)"/>
<g opacity="0.5">
<g opacity="0.5">
<path opacity="0.5" d="M6.83272 27.5087C7.14497 27.5087 7.3981 27.2556 7.3981 26.9433C7.3981 26.6311 7.14497 26.3779 6.83272 26.3779C6.52046 26.3779 6.26733 26.6311 6.26733 26.9433C6.26733 27.2556 6.52046 27.5087 6.83272 27.5087Z" fill="url(#paint24_linear_2_4930)"/>
<path opacity="0.5" d="M6.26544 29.0978C6.51196 29.0978 6.7118 28.8979 6.7118 28.6514C6.7118 28.4049 6.51196 28.2051 6.26544 28.2051C6.01893 28.2051 5.81909 28.4049 5.81909 28.6514C5.81909 28.8979 6.01893 29.0978 6.26544 29.0978Z" fill="url(#paint25_linear_2_4930)"/>
<path opacity="0.5" d="M8.2347 28.6994C8.38334 28.6994 8.50383 28.5789 8.50383 28.4303C8.50383 28.2816 8.38334 28.1611 8.2347 28.1611C8.08607 28.1611 7.96558 28.2816 7.96558 28.4303C7.96558 28.5789 8.08607 28.6994 8.2347 28.6994Z" fill="url(#paint26_linear_2_4930)"/>
</g>
<g opacity="0.5">
<path opacity="0.5" d="M9.81404 26.8791C10.0448 26.8791 10.2318 26.692 10.2318 26.4613C10.2318 26.2305 10.0448 26.0435 9.81404 26.0435C9.5833 26.0435 9.39624 26.2305 9.39624 26.4613C9.39624 26.692 9.5833 26.8791 9.81404 26.8791Z" fill="url(#paint27_linear_2_4930)"/>
<path opacity="0.5" d="M8.59377 27.3203C8.77594 27.3203 8.92362 27.1727 8.92362 26.9905C8.92362 26.8083 8.77594 26.6606 8.59377 26.6606C8.4116 26.6606 8.26392 26.8083 8.26392 26.9905C8.26392 27.1727 8.4116 27.3203 8.59377 27.3203Z" fill="url(#paint28_linear_2_4930)"/>
<path opacity="0.5" d="M9.68542 28.1648C9.79525 28.1648 9.88428 28.0758 9.88428 27.966C9.88428 27.8561 9.79525 27.7671 9.68542 27.7671C9.5756 27.7671 9.48657 27.8561 9.48657 27.966C9.48657 28.0758 9.5756 28.1648 9.68542 28.1648Z" fill="url(#paint29_linear_2_4930)"/>
</g>
<g opacity="0.5">
<path opacity="0.5" d="M44.8286 32.4213C45.1408 32.4213 45.394 32.1682 45.394 31.8559C45.394 31.5437 45.1408 31.2905 44.8286 31.2905C44.5163 31.2905 44.2632 31.5437 44.2632 31.8559C44.2632 32.1682 44.5163 32.4213 44.8286 32.4213Z" fill="url(#paint30_linear_2_4930)"/>
<path opacity="0.5" d="M44.9781 30.5084C45.2246 30.5084 45.4244 30.3086 45.4244 30.0621C45.4244 29.8156 45.2246 29.6157 44.9781 29.6157C44.7316 29.6157 44.5317 29.8156 44.5317 30.0621C44.5317 30.3086 44.7316 30.5084 44.9781 30.5084Z" fill="url(#paint31_linear_2_4930)"/>
<path opacity="0.5" d="M43.1168 31.0094C43.2654 31.0094 43.3859 30.889 43.3859 30.7403C43.3859 30.5917 43.2654 30.4712 43.1168 30.4712C42.9682 30.4712 42.8477 30.5917 42.8477 30.7403C42.8477 30.889 42.9682 31.0094 43.1168 31.0094Z" fill="url(#paint32_linear_2_4930)"/>
</g>
<g opacity="0.5">
<path opacity="0.5" d="M42.0457 33.445C42.2765 33.445 42.4635 33.2579 42.4635 33.0272C42.4635 32.7964 42.2765 32.6094 42.0457 32.6094C41.815 32.6094 41.6279 32.7964 41.6279 33.0272C41.6279 33.2579 41.815 33.445 42.0457 33.445Z" fill="url(#paint33_linear_2_4930)"/>
<path opacity="0.5" d="M43.1067 32.5552C43.2889 32.5552 43.4366 32.4075 43.4366 32.2254C43.4366 32.0432 43.2889 31.8955 43.1067 31.8955C42.9245 31.8955 42.7769 32.0432 42.7769 32.2254C42.7769 32.4075 42.9245 32.5552 43.1067 32.5552Z" fill="url(#paint34_linear_2_4930)"/>
<path opacity="0.5" d="M41.8161 31.7332C41.9259 31.7332 42.0149 31.6442 42.0149 31.5343C42.0149 31.4245 41.9259 31.3354 41.8161 31.3354C41.7062 31.3354 41.6172 31.4245 41.6172 31.5343C41.6172 31.6442 41.7062 31.7332 41.8161 31.7332Z" fill="url(#paint35_linear_2_4930)"/>
</g>
<g opacity="0.5">
<path opacity="0.5" d="M16.8331 32.2814C17.0638 32.2814 17.2509 32.0943 17.2509 31.8636C17.2509 31.6329 17.0638 31.4458 16.8331 31.4458C16.6023 31.4458 16.4153 31.6329 16.4153 31.8636C16.4153 32.0943 16.6023 32.2814 16.8331 32.2814Z" fill="url(#paint36_linear_2_4930)"/>
<path opacity="0.5" d="M15.6128 32.7222C15.795 32.7222 15.9427 32.5745 15.9427 32.3923C15.9427 32.2102 15.795 32.0625 15.6128 32.0625C15.4306 32.0625 15.283 32.2102 15.283 32.3923C15.283 32.5745 15.4306 32.7222 15.6128 32.7222Z" fill="url(#paint37_linear_2_4930)"/>
<path opacity="0.5" d="M16.7045 33.5672C16.8143 33.5672 16.9033 33.4781 16.9033 33.3683C16.9033 33.2585 16.8143 33.1694 16.7045 33.1694C16.5946 33.1694 16.5056 33.2585 16.5056 33.3683C16.5056 33.4781 16.5946 33.5672 16.7045 33.5672Z" fill="url(#paint38_linear_2_4930)"/>
</g>
</g>
<path d="M19.7558 35.2672C19.6602 35.2639 19.5645 35.2736 19.4716 35.2969C18.7423 35.4797 15.2813 36.448 15.1712 38.3877C15.1025 39.5957 17.0983 39.9693 18.8797 40.0632C20.5064 40.1489 21.91 39.2818 22.0054 38.135C22.1132 36.8361 21.7911 35.337 19.7558 35.2672V35.2672Z" fill="url(#paint39_linear_2_4930)"/>
<path d="M19.7558 35.2672C19.6602 35.2639 19.5645 35.2736 19.4716 35.2969C18.7423 35.4797 15.2813 36.4479 15.1712 38.3876C15.1025 39.5957 17.0983 39.9692 18.8797 40.0631C20.5063 40.1489 21.7911 35.337 19.7558 35.2672V35.2672Z" fill="url(#paint40_linear_2_4930)"/>
<path d="M14.6506 38.5817C14.6506 39.4749 11.416 39.4749 11.416 38.5817C11.416 37.6884 12.1402 36.9644 13.0333 36.9644C13.9265 36.9644 14.6506 37.6884 14.6506 38.5817Z" fill="url(#paint41_linear_2_4930)"/>
</g>
<defs>
<linearGradient id="paint0_linear_2_4930" x1="28.163" y1="41.8468" x2="28.458" y2="46.7141" gradientUnits="userSpaceOnUse">
<stop stop-color="#F8F6FB"/>
<stop offset="1" stop-color="#EFDCFB"/>
</linearGradient>
<linearGradient id="paint1_linear_2_4930" x1="25.7495" y1="25.6074" x2="31.0271" y2="45.5264" gradientUnits="userSpaceOnUse">
<stop stop-color="#F8F6FB"/>
<stop offset="1" stop-color="#EFDCFB"/>
</linearGradient>
<linearGradient id="paint2_linear_2_4930" x1="30.6046" y1="45.548" x2="21.5462" y2="2.23267" gradientUnits="userSpaceOnUse">
<stop stop-color="#EFDCFB" stop-opacity="0"/>
<stop offset="0.0287" stop-color="#E9D6F7" stop-opacity="0.029"/>
<stop offset="0.2203" stop-color="#C5B5DE" stop-opacity="0.22"/>
<stop offset="0.4138" stop-color="#AA9BCB" stop-opacity="0.414"/>
<stop offset="0.6078" stop-color="#9688BD" stop-opacity="0.608"/>
<stop offset="0.8028" stop-color="#8A7DB5" stop-opacity="0.803"/>
<stop offset="1" stop-color="#8679B2"/>
</linearGradient>
<linearGradient id="paint3_linear_2_4930" x1="33.1195" y1="41.3898" x2="17.7469" y2="-2.86117" gradientUnits="userSpaceOnUse">
<stop stop-color="#EFDCFB" stop-opacity="0"/>
<stop offset="0.0287" stop-color="#E9D6F7" stop-opacity="0.029"/>
<stop offset="0.2203" stop-color="#C5B5DE" stop-opacity="0.22"/>
<stop offset="0.4138" stop-color="#AA9BCB" stop-opacity="0.414"/>
<stop offset="0.6078" stop-color="#9688BD" stop-opacity="0.608"/>
<stop offset="0.8028" stop-color="#8A7DB5" stop-opacity="0.803"/>
<stop offset="1" stop-color="#8679B2"/>
</linearGradient>
<linearGradient id="paint4_linear_2_4930" x1="17.8621" y1="43.1523" x2="1.5999" y2="26.8901" gradientUnits="userSpaceOnUse">
<stop stop-color="#EFDCFB" stop-opacity="0"/>
<stop offset="0.0287" stop-color="#E9D6F7" stop-opacity="0.029"/>
<stop offset="0.2203" stop-color="#C5B5DE" stop-opacity="0.22"/>
<stop offset="0.4138" stop-color="#AA9BCB" stop-opacity="0.414"/>
<stop offset="0.6078" stop-color="#9688BD" stop-opacity="0.608"/>
<stop offset="0.8028" stop-color="#8A7DB5" stop-opacity="0.803"/>
<stop offset="1" stop-color="#8679B2"/>
</linearGradient>
<linearGradient id="paint5_linear_2_4930" x1="23.2027" y1="42.437" x2="12.6615" y2="28.9311" gradientUnits="userSpaceOnUse">
<stop stop-color="#EFDCFB" stop-opacity="0"/>
<stop offset="0.0287" stop-color="#E9D6F7" stop-opacity="0.029"/>
<stop offset="0.2203" stop-color="#C5B5DE" stop-opacity="0.22"/>
<stop offset="0.4138" stop-color="#AA9BCB" stop-opacity="0.414"/>
<stop offset="0.6078" stop-color="#9688BD" stop-opacity="0.608"/>
<stop offset="0.8028" stop-color="#8A7DB5" stop-opacity="0.803"/>
<stop offset="1" stop-color="#8679B2"/>
</linearGradient>
<linearGradient id="paint6_linear_2_4930" x1="24.5927" y1="19.8364" x2="42.1103" y2="50.5436" gradientUnits="userSpaceOnUse">
<stop stop-color="#FFDECF"/>
<stop offset="0.3791" stop-color="#FDC4B0"/>
<stop offset="0.7655" stop-color="#FBAE97"/>
<stop offset="1" stop-color="#FAA68E"/>
</linearGradient>
<linearGradient id="paint7_linear_2_4930" x1="27.0801" y1="17.0367" x2="34.0472" y2="31.5834" gradientUnits="userSpaceOnUse">
<stop stop-color="#FFDECF"/>
<stop offset="0.3791" stop-color="#FDC4B0"/>
<stop offset="0.7655" stop-color="#FBAE97"/>
<stop offset="1" stop-color="#FAA68E"/>
</linearGradient>
<linearGradient id="paint8_linear_2_4930" x1="16.0612" y1="16.4554" x2="21.3189" y2="27.4331" gradientUnits="userSpaceOnUse">
<stop stop-color="#FFDECF"/>
<stop offset="0.3791" stop-color="#FDC4B0"/>
<stop offset="0.7655" stop-color="#FBAE97"/>
<stop offset="1" stop-color="#FAA68E"/>
</linearGradient>
<linearGradient id="paint9_linear_2_4930" x1="41.5968" y1="20.1252" x2="26.8712" y2="7.03101" gradientUnits="userSpaceOnUse">
<stop stop-color="#F82814" stop-opacity="0"/>
<stop offset="0.2458" stop-color="#F12817" stop-opacity="0.246"/>
<stop offset="0.608" stop-color="#DD2820" stop-opacity="0.608"/>
<stop offset="1" stop-color="#C0272D"/>
</linearGradient>
<linearGradient id="paint10_linear_2_4930" x1="24.1851" y1="16.7821" x2="27.7941" y2="32.3509" gradientUnits="userSpaceOnUse">
<stop stop-color="#FAA68E"/>
<stop offset="0.3527" stop-color="#FAA38F"/>
<stop offset="0.651" stop-color="#FC9893"/>
<stop offset="0.9287" stop-color="#FE879A"/>
<stop offset="1" stop-color="#FF819C"/>
</linearGradient>
<linearGradient id="paint11_linear_2_4930" x1="24.5474" y1="27.0121" x2="29.5582" y2="41.0287" gradientUnits="userSpaceOnUse">
<stop stop-color="#A57C52"/>
<stop offset="0.1339" stop-color="#A26C4A"/>
<stop offset="0.5155" stop-color="#994336"/>
<stop offset="0.8174" stop-color="#942A2A"/>
<stop offset="1" stop-color="#922125"/>
</linearGradient>
<linearGradient id="paint12_linear_2_4930" x1="25.5901" y1="26.6395" x2="30.6008" y2="40.6561" gradientUnits="userSpaceOnUse">
<stop stop-color="#A57C52"/>
<stop offset="0.1339" stop-color="#A26C4A"/>
<stop offset="0.5155" stop-color="#994336"/>
<stop offset="0.8174" stop-color="#942A2A"/>
<stop offset="1" stop-color="#922125"/>
</linearGradient>
<linearGradient id="paint13_linear_2_4930" x1="45.2502" y1="12.9717" x2="50.2011" y2="23.3085" gradientUnits="userSpaceOnUse">
<stop stop-color="#FFDECF"/>
<stop offset="0.3791" stop-color="#FDC4B0"/>
<stop offset="0.7655" stop-color="#FBAE97"/>
<stop offset="1" stop-color="#FAA68E"/>
</linearGradient>
<linearGradient id="paint14_linear_2_4930" x1="27.1509" y1="12.4171" x2="26.6494" y2="13.4307" gradientUnits="userSpaceOnUse">
<stop stop-color="#BADA00"/>
<stop offset="0.2269" stop-color="#B0CE00"/>
<stop offset="0.6378" stop-color="#95AE00"/>
<stop offset="1" stop-color="#798C00"/>
</linearGradient>
<linearGradient id="paint15_linear_2_4930" x1="28.1148" y1="11.575" x2="26.7626" y2="12.642" gradientUnits="userSpaceOnUse">
<stop stop-color="#BADA00"/>
<stop offset="0.2269" stop-color="#B0CE00"/>
<stop offset="0.6378" stop-color="#95AE00"/>
<stop offset="1" stop-color="#798C00"/>
</linearGradient>
<linearGradient id="paint16_linear_2_4930" x1="30.0344" y1="13.3696" x2="32.8475" y2="15.6314" gradientUnits="userSpaceOnUse">
<stop stop-color="#FF6359"/>
<stop offset="0.2243" stop-color="#FE5B50"/>
<stop offset="0.5952" stop-color="#FC4637"/>
<stop offset="1" stop-color="#F82814"/>
</linearGradient>
<linearGradient id="paint17_linear_2_4930" x1="31.6845" y1="13.1599" x2="30.0965" y2="10.4793" gradientUnits="userSpaceOnUse">
<stop stop-color="#FF6359"/>
<stop offset="0.2243" stop-color="#FE5B50"/>
<stop offset="0.5952" stop-color="#FC4637"/>
<stop offset="1" stop-color="#F82814"/>
</linearGradient>
<linearGradient id="paint18_linear_2_4930" x1="30.2185" y1="13.2636" x2="29.4998" y2="12.0505" gradientUnits="userSpaceOnUse">
<stop stop-color="#FF6359"/>
<stop offset="0.2243" stop-color="#FE5B50"/>
<stop offset="0.5952" stop-color="#FC4637"/>
<stop offset="1" stop-color="#F82814"/>
</linearGradient>
<linearGradient id="paint19_linear_2_4930" x1="31.4393" y1="13.968" x2="30.7206" y2="12.7549" gradientUnits="userSpaceOnUse">
<stop stop-color="#FF6359"/>
<stop offset="0.2243" stop-color="#FE5B50"/>
<stop offset="0.5952" stop-color="#FC4637"/>
<stop offset="1" stop-color="#F82814"/>
</linearGradient>
<linearGradient id="paint20_linear_2_4930" x1="27.1698" y1="15.9606" x2="29.9829" y2="18.2225" gradientUnits="userSpaceOnUse">
<stop stop-color="#FF6359"/>
<stop offset="0.2243" stop-color="#FE5B50"/>
<stop offset="0.5952" stop-color="#FC4637"/>
<stop offset="1" stop-color="#F82814"/>
</linearGradient>
<linearGradient id="paint21_linear_2_4930" x1="28.8201" y1="15.7509" x2="27.232" y2="13.0703" gradientUnits="userSpaceOnUse">
<stop stop-color="#FF6359"/>
<stop offset="0.2243" stop-color="#FE5B50"/>
<stop offset="0.5952" stop-color="#FC4637"/>
<stop offset="1" stop-color="#F82814"/>
</linearGradient>
<linearGradient id="paint22_linear_2_4930" x1="27.354" y1="15.8547" x2="26.6352" y2="14.6417" gradientUnits="userSpaceOnUse">
<stop stop-color="#FF6359"/>
<stop offset="0.2243" stop-color="#FE5B50"/>
<stop offset="0.5952" stop-color="#FC4637"/>
<stop offset="1" stop-color="#F82814"/>
</linearGradient>
<linearGradient id="paint23_linear_2_4930" x1="28.5747" y1="16.559" x2="27.8561" y2="15.346" gradientUnits="userSpaceOnUse">
<stop stop-color="#FF6359"/>
<stop offset="0.2243" stop-color="#FE5B50"/>
<stop offset="0.5952" stop-color="#FC4637"/>
<stop offset="1" stop-color="#F82814"/>
</linearGradient>
<linearGradient id="paint24_linear_2_4930" x1="7.36101" y1="27.6214" x2="5.31267" y2="25.8979" gradientUnits="userSpaceOnUse">
<stop stop-color="#42210B" stop-opacity="0"/>
<stop offset="1" stop-color="#42210B"/>
</linearGradient>
<linearGradient id="paint25_linear_2_4930" x1="6.65411" y1="29.2129" x2="5.03715" y2="27.8523" gradientUnits="userSpaceOnUse">
<stop stop-color="#42210B" stop-opacity="0"/>
<stop offset="1" stop-color="#42210B"/>
</linearGradient>
<linearGradient id="paint26_linear_2_4930" x1="8.41741" y1="28.8187" x2="7.44256" y2="27.9984" gradientUnits="userSpaceOnUse">
<stop stop-color="#42210B" stop-opacity="0"/>
<stop offset="1" stop-color="#42210B"/>
</linearGradient>
<linearGradient id="paint27_linear_2_4930" x1="9.8345" y1="27.2478" x2="9.77362" y2="25.2703" gradientUnits="userSpaceOnUse">
<stop stop-color="#42210B" stop-opacity="0"/>
<stop offset="1" stop-color="#42210B"/>
</linearGradient>
<linearGradient id="paint28_linear_2_4930" x1="8.60972" y1="27.6434" x2="8.5616" y2="26.0823" gradientUnits="userSpaceOnUse">
<stop stop-color="#42210B" stop-opacity="0"/>
<stop offset="1" stop-color="#42210B"/>
</linearGradient>
<linearGradient id="paint29_linear_2_4930" x1="9.69572" y1="28.4198" x2="9.6667" y2="27.4786" gradientUnits="userSpaceOnUse">
<stop stop-color="#42210B" stop-opacity="0"/>
<stop offset="1" stop-color="#42210B"/>
</linearGradient>
<linearGradient id="paint30_linear_2_4930" x1="43.9133" y1="31.4846" x2="46.3104" y2="32.676" gradientUnits="userSpaceOnUse">
<stop stop-color="#42210B" stop-opacity="0"/>
<stop offset="1" stop-color="#42210B"/>
</linearGradient>
<linearGradient id="paint31_linear_2_4930" x1="44.2249" y1="29.771" x2="46.1172" y2="30.7115" gradientUnits="userSpaceOnUse">
<stop stop-color="#42210B" stop-opacity="0"/>
<stop offset="1" stop-color="#42210B"/>
</linearGradient>
<linearGradient id="paint32_linear_2_4930" x1="42.6051" y1="30.5699" x2="43.7459" y2="31.1369" gradientUnits="userSpaceOnUse">
<stop stop-color="#42210B" stop-opacity="0"/>
<stop offset="1" stop-color="#42210B"/>
</linearGradient>
<linearGradient id="paint33_linear_2_4930" x1="41.9349" y1="32.4326" x2="42.4591" y2="34.3392" gradientUnits="userSpaceOnUse">
<stop stop-color="#42210B" stop-opacity="0"/>
<stop offset="1" stop-color="#42210B"/>
</linearGradient>
<linearGradient id="paint34_linear_2_4930" x1="43.0312" y1="31.76" x2="43.4451" y2="33.2651" gradientUnits="userSpaceOnUse">
<stop stop-color="#42210B" stop-opacity="0"/>
<stop offset="1" stop-color="#42210B"/>
</linearGradient>
<linearGradient id="paint35_linear_2_4930" x1="41.7937" y1="31.2611" x2="42.0433" y2="32.1686" gradientUnits="userSpaceOnUse">
<stop stop-color="#42210B" stop-opacity="0"/>
<stop offset="1" stop-color="#42210B"/>
</linearGradient>
<linearGradient id="paint36_linear_2_4930" x1="16.8568" y1="32.6521" x2="16.7959" y2="30.6745" gradientUnits="userSpaceOnUse">
<stop stop-color="#42210B" stop-opacity="0"/>
<stop offset="1" stop-color="#42210B"/>
</linearGradient>
<linearGradient id="paint37_linear_2_4930" x1="15.6319" y1="33.0472" x2="15.5838" y2="31.486" gradientUnits="userSpaceOnUse">
<stop stop-color="#42210B" stop-opacity="0"/>
<stop offset="1" stop-color="#42210B"/>
</linearGradient>
<linearGradient id="paint38_linear_2_4930" x1="16.718" y1="33.8241" x2="16.689" y2="32.8829" gradientUnits="userSpaceOnUse">
<stop stop-color="#42210B" stop-opacity="0"/>
<stop offset="1" stop-color="#42210B"/>
</linearGradient>
<linearGradient id="paint39_linear_2_4930" x1="18.3103" y1="36.9789" x2="19.2645" y2="39.9282" gradientUnits="userSpaceOnUse">
<stop stop-color="#FAA68E"/>
<stop offset="0.3527" stop-color="#FAA38F"/>
<stop offset="0.651" stop-color="#FC9893"/>
<stop offset="0.9287" stop-color="#FE879A"/>
<stop offset="1" stop-color="#FF819C"/>
</linearGradient>
<linearGradient id="paint40_linear_2_4930" x1="17.8067" y1="37.2239" x2="19.6959" y2="38.8817" gradientUnits="userSpaceOnUse">
<stop stop-color="#FAA68E"/>
<stop offset="0.3527" stop-color="#FAA38F"/>
<stop offset="0.651" stop-color="#FC9893"/>
<stop offset="0.9287" stop-color="#FE879A"/>
<stop offset="1" stop-color="#FF819C"/>
</linearGradient>
<linearGradient id="paint41_linear_2_4930" x1="12.2998" y1="37.0188" x2="13.6724" y2="39.6541" gradientUnits="userSpaceOnUse">
<stop stop-color="#FFDECF"/>
<stop offset="0.3791" stop-color="#FDC4B0"/>
<stop offset="0.7655" stop-color="#FBAE97"/>
<stop offset="1" stop-color="#FAA68E"/>
</linearGradient>
<clipPath id="clip0_2_4930">
<rect width="56" height="56" fill="white"/>
</clipPath>
</defs>
</svg>
