<svg width="21" height="19" viewBox="0 0 21 19" fill="none" xmlns="http://www.w3.org/2000/svg">
<path fill-rule="evenodd" clip-rule="evenodd" d="M13.4382 10.4981C13.4382 8.76127 12.0298 7.35284 10.293 7.35284C8.55613 7.35284 7.14771 8.76127 7.14771 10.4981C7.14771 12.235 8.55613 13.6434 10.293 13.6434C12.0298 13.6434 13.4382 12.235 13.4382 10.4981Z" stroke="#C41432" stroke-width="1.5" stroke-linecap="round" stroke-linejoin="round"/>
<path fill-rule="evenodd" clip-rule="evenodd" d="M10.2925 18.2001C18.3377 18.2001 19.2956 15.7895 19.2956 10.5664C19.2956 6.90533 18.8114 4.94639 15.7619 4.10428C15.4819 4.01586 15.1714 3.84744 14.9198 3.5706C14.5135 3.12533 14.2167 1.75796 13.2356 1.34428C12.2546 0.931649 8.31457 0.950596 7.34931 1.34428C6.3851 1.73902 6.07141 3.12533 5.6651 3.5706C5.41352 3.84744 5.10404 4.01586 4.82299 4.10428C1.77352 4.94639 1.28931 6.90533 1.28931 10.5664C1.28931 15.7895 2.2472 18.2001 10.2925 18.2001Z" stroke="#C41432" stroke-width="1.5" stroke-linecap="round" stroke-linejoin="round"/>
<path d="M15.2046 7H15.2138" stroke="#C41432" stroke-width="1.5" stroke-linecap="round" stroke-linejoin="round"/>
</svg>
