<svg width="56" height="56" viewBox="0 0 56 56" fill="none" xmlns="http://www.w3.org/2000/svg">
<g clip-path="url(#clip0_2_4992)">
<path d="M38.6656 33.762C33.4515 38.9761 6.11563 57.8582 0.901409 52.644C-4.31271 47.4299 14.5693 20.0939 19.7834 14.8798C24.9976 9.66571 33.4513 9.66571 38.6655 14.8798C43.8796 20.0939 43.8797 28.5478 38.6656 33.762Z" fill="url(#paint0_linear_2_4992)"/>
<path d="M34.3822 35.462C34.1714 35.462 33.9606 35.3816 33.7998 35.2209L27.811 29.232C27.4894 28.9103 27.4894 28.3889 27.811 28.0673C28.1326 27.7458 28.6541 27.7458 28.9756 28.0673L34.9645 34.0561C35.286 34.3778 35.286 34.8992 34.9645 35.2209C34.8037 35.3816 34.5929 35.462 34.3822 35.462Z" fill="#FF5D00"/>
<path d="M29.4861 39.1478C29.2753 39.1478 29.0646 39.0674 28.9038 38.9066L23.3068 33.3096C22.9853 32.988 22.9853 32.4666 23.3068 32.1449C23.6284 31.8234 24.1499 31.8234 24.4715 32.1449L30.0684 37.7419C30.39 38.0635 30.39 38.5849 30.0684 38.9066C29.9076 39.0674 29.6969 39.1478 29.4861 39.1478Z" fill="#FF5D00"/>
<path d="M24.3839 42.6285C24.1731 42.6285 23.9624 42.5481 23.8016 42.3874L18.7282 37.314C18.4067 36.9924 18.4067 36.471 18.7282 36.1493C19.0498 35.8278 19.5713 35.8278 19.8929 36.1493L24.9662 41.2226C25.2878 41.5443 25.2878 42.0657 24.9662 42.3874C24.8054 42.548 24.5946 42.6285 24.3839 42.6285Z" fill="#FF5D00"/>
<path d="M19.0944 45.9215C18.8837 45.9215 18.6729 45.8411 18.5121 45.6803L14.0854 41.2536C13.7638 40.9319 13.7638 40.4105 14.0854 40.0888C14.407 39.7673 14.9285 39.7673 15.25 40.0888L19.6768 44.5156C19.9983 44.8373 19.9983 45.3586 19.6768 45.6803C19.516 45.8411 19.3053 45.9215 19.0944 45.9215Z" fill="#FF5D00"/>
<path d="M13.5645 48.9753C13.3538 48.9753 13.143 48.8949 12.9822 48.7341L9.35445 45.1065C9.03289 44.7848 9.03289 44.2634 9.35445 43.9418C9.67602 43.6203 10.1975 43.6203 10.5191 43.9418L14.1468 47.5694C14.4684 47.8911 14.4684 48.4125 14.1468 48.7341C13.986 48.8949 13.7752 48.9753 13.5645 48.9753Z" fill="#FF5D00"/>
<path d="M7.62552 51.6168C7.41475 51.6168 7.20399 51.5364 7.04321 51.3756L4.48165 48.8141C4.16009 48.4924 4.16009 47.9711 4.48165 47.6494C4.80321 47.3278 5.32471 47.3278 5.64627 47.6494L8.20772 50.2108C8.52928 50.5325 8.52928 51.0539 8.20772 51.3756C8.04705 51.5364 7.83618 51.6168 7.62552 51.6168Z" fill="#FF5D00"/>
<path d="M21.6584 21.245C22.394 21.245 22.9903 20.6486 22.9903 19.913C22.9903 19.1774 22.394 18.5811 21.6584 18.5811C20.9228 18.5811 20.3264 19.1774 20.3264 19.913C20.3264 20.6486 20.9228 21.245 21.6584 21.245Z" fill="#FF5D00"/>
<path d="M23.4153 22.3365C23.7834 22.3365 24.0818 22.0381 24.0818 21.6699C24.0818 21.3018 23.7834 21.0034 23.4153 21.0034C23.0472 21.0034 22.7488 21.3018 22.7488 21.6699C22.7488 22.0381 23.0472 22.3365 23.4153 22.3365Z" fill="#FF5D00"/>
<path d="M14.7512 29.9107C15.1194 29.9107 15.4178 29.6123 15.4178 29.2442C15.4178 28.8761 15.1194 28.5776 14.7512 28.5776C14.3831 28.5776 14.0847 28.8761 14.0847 29.2442C14.0847 29.6123 14.3831 29.9107 14.7512 29.9107Z" fill="#FF5D00"/>
<path d="M16.4956 34.272C16.8637 34.272 17.1622 33.9736 17.1622 33.6055C17.1622 33.2374 16.8637 32.939 16.4956 32.939C16.1275 32.939 15.8291 33.2374 15.8291 33.6055C15.8291 33.9736 16.1275 34.272 16.4956 34.272Z" fill="#FF5D00"/>
<path d="M18.24 30.9766C18.6081 30.9766 18.9065 30.6782 18.9065 30.3101C18.9065 29.942 18.6081 29.6436 18.24 29.6436C17.8719 29.6436 17.5735 29.942 17.5735 30.3101C17.5735 30.6782 17.8719 30.9766 18.24 30.9766Z" fill="#FF5D00"/>
<path d="M38.6658 14.88C37.0649 13.2791 35.1585 12.1706 33.1343 11.5527V38.3048C35.6418 36.4385 37.6086 34.8194 38.6658 33.7621C43.8799 28.5479 43.8799 20.0941 38.6658 14.88Z" fill="url(#paint1_linear_2_4992)"/>
<path d="M38.5905 13.472C39.8178 10.9852 39.6266 8.0026 38.0013 5.75571C37.3292 4.82646 36.3814 3.97159 35.0466 3.37014C30.0633 1.12424 27.4162 6.39096 30.8999 8.91806C34.3836 11.4452 36.0262 18.668 36.0262 18.668L38.5905 13.472Z" fill="url(#paint2_linear_2_4992)"/>
<path d="M40.9321 17.5344C43.0463 16.7506 45.4531 17.2478 47.0096 18.8793C47.5887 19.4862 48.0813 20.2729 48.3658 21.2922C49.5036 25.3691 45.1629 26.7809 43.6349 23.8192C42.1068 20.8574 37.25 18.8995 37.25 18.8995L40.9321 17.5344Z" fill="url(#paint3_linear_2_4992)"/>
<path d="M49.4724 10.6382C47.6879 12.7113 38.0989 20.4524 36.026 18.668C33.9529 16.8835 40.1809 6.24925 41.9652 4.17627C43.7496 2.10329 46.8767 1.86934 48.9497 3.65368C51.0226 5.43802 51.2568 8.56526 49.4724 10.6382Z" fill="url(#paint4_linear_2_4992)"/>
<path d="M44.9629 12.9034C44.9629 12.9034 50.7551 8.51725 54.5314 12.1237C58.3078 15.7301 54.1225 21.1435 49.6597 19.4373C45.1969 17.7312 37.3733 18.8266 37.3733 18.8266L44.9629 12.9034Z" fill="url(#paint5_linear_2_4992)"/>
</g>
<defs>
<linearGradient id="paint0_linear_2_4992" x1="18.4146" y1="32.394" x2="26.4444" y2="40.4237" gradientUnits="userSpaceOnUse">
<stop stop-color="#FF931E"/>
<stop offset="0.569" stop-color="#FF760E"/>
<stop offset="1" stop-color="#FF5D00"/>
</linearGradient>
<linearGradient id="paint1_linear_2_4992" x1="34.8587" y1="33.9288" x2="38.816" y2="13.6638" gradientUnits="userSpaceOnUse">
<stop stop-color="#FF931E" stop-opacity="0"/>
<stop offset="1" stop-color="#FF5D00"/>
</linearGradient>
<linearGradient id="paint2_linear_2_4992" x1="33.5866" y1="9.13375" x2="38.1291" y2="13.0438" gradientUnits="userSpaceOnUse">
<stop stop-color="#9EB644"/>
<stop offset="1" stop-color="#738611"/>
</linearGradient>
<linearGradient id="paint3_linear_2_4992" x1="44.008" y1="21.7846" x2="41.6297" y2="17.9855" gradientUnits="userSpaceOnUse">
<stop stop-color="#9EB644"/>
<stop offset="1" stop-color="#738611"/>
</linearGradient>
<linearGradient id="paint4_linear_2_4992" x1="41.9423" y1="10.6931" x2="45.1353" y2="13.4414" gradientUnits="userSpaceOnUse">
<stop stop-color="#9EB644"/>
<stop offset="1" stop-color="#738611"/>
</linearGradient>
<linearGradient id="paint5_linear_2_4992" x1="45.7951" y1="13.3455" x2="48.1789" y2="22.6347" gradientUnits="userSpaceOnUse">
<stop stop-color="#9EB644"/>
<stop offset="1" stop-color="#738611"/>
</linearGradient>
<clipPath id="clip0_2_4992">
<rect width="56" height="56" fill="white"/>
</clipPath>
</defs>
</svg>
