<svg width="56" height="56" viewBox="0 0 56 56" fill="none" xmlns="http://www.w3.org/2000/svg">
<g clip-path="url(#clip0_2_5011)">
<path d="M15.3553 17.277C15.3052 18.3954 15.1446 19.5021 14.7657 20.5601C14.5175 21.2536 14.1828 21.912 13.773 22.5169C13.1705 23.4064 13.4139 24.6177 14.3061 25.2162C15.3452 25.9132 16.7683 25.4653 17.2091 24.2944C17.5962 23.2659 17.8272 22.179 17.8713 21.0767C17.9299 19.6151 17.668 18.0997 16.9829 16.7967C16.7922 16.4341 16.0976 15.2504 15.6474 15.4559C15.2562 15.6347 15.3743 16.8547 15.3553 17.277V17.277Z" fill="url(#paint0_linear_2_5011)"/>
<path d="M13.614 13.0511C14.0078 12.7616 14.5515 12.7529 15.1201 12.9686C14.3691 11.9192 14.2693 10.7041 14.904 10.2377C15.378 9.88933 16.1286 10.0574 16.8023 10.5936C17.2179 9.62745 17.7142 9.04571 18.1601 9.11379C18.606 9.18186 18.906 9.88527 19.0141 10.9315C19.8171 10.621 20.5837 10.6845 20.9321 11.1586C21.3985 11.7931 20.9404 12.923 19.9105 13.7003C20.5175 13.6643 21.0337 13.8349 21.3232 14.2288C21.9275 15.051 21.3199 16.524 19.9661 17.5189C18.9979 18.2306 17.9119 18.5029 17.1503 18.3C16.8982 18.2328 16.6416 18.1936 16.3809 18.1825C15.5935 18.1488 14.6383 17.5646 13.9268 16.5964C12.9318 15.2427 12.7918 13.6554 13.614 13.0511Z" fill="url(#paint1_linear_2_5011)"/>
<path d="M16.3816 18.1825C15.5942 18.1488 14.639 17.5646 13.9275 16.5964C12.9326 15.2426 12.7925 13.6554 13.6147 13.0511C14.0085 12.7616 14.5522 12.7529 15.1207 12.9686C14.3698 11.9192 14.27 10.7041 14.9046 10.2377C15.3787 9.88933 16.1293 10.0574 16.8029 10.5936C17.2185 9.62745 17.7148 9.04571 18.1608 9.11379L16.7695 18.2204C16.6412 18.2007 16.5119 18.1881 16.3816 18.1825V18.1825Z" fill="url(#paint2_linear_2_5011)"/>
<path d="M21.3236 14.2269C21.3585 14.2745 21.3884 14.3247 21.4153 14.3763L16.8427 17.7368L13.4822 13.1644C13.5232 13.1231 13.5668 13.0841 13.6143 13.0492C14.0081 12.7596 14.5518 12.751 15.1203 12.9666C14.3694 11.9172 14.2696 10.7021 14.9042 10.2358C15.3783 9.88738 16.1289 10.0555 16.8025 10.5917C17.2181 9.6255 17.7145 9.04375 18.1604 9.11183C18.6063 9.17991 18.9063 9.88332 19.0144 10.9295C19.8174 10.619 20.5839 10.6826 20.9324 11.1566C21.3988 11.7912 20.9407 12.921 19.9107 13.6983C20.5178 13.6624 21.0341 13.8331 21.3236 14.2269Z" fill="url(#paint3_linear_2_5011)"/>
<path d="M14.8621 10.2716C14.8762 10.2598 14.8889 10.2463 14.9038 10.2353C15.3778 9.88689 16.1284 10.055 16.8021 10.5912C17.2177 9.62501 17.714 9.04327 18.1599 9.11134C18.6058 9.17942 18.9058 9.88283 19.014 10.929C19.817 10.6185 20.5835 10.6821 20.9319 11.1561C20.9429 11.171 20.9509 11.1877 20.9609 11.2032L17.4456 13.7868L14.8621 10.2716Z" fill="url(#paint4_linear_2_5011)"/>
<path d="M21.3222 15.9286C21.0625 16.4858 20.5965 17.0531 19.9656 17.5168C18.9974 18.2285 17.9114 18.5008 17.1498 18.2979C16.8977 18.2307 16.6411 18.1915 16.3804 18.1804C15.593 18.1467 14.6378 17.5625 13.9263 16.5942C13.4626 15.9633 13.1872 15.2826 13.1057 14.6733L21.3222 15.9286Z" fill="url(#paint5_linear_2_5011)"/>
<path d="M42.6296 36.7359C41.5112 36.786 40.4045 36.9466 39.3466 37.3254C38.653 37.5737 37.9947 37.9084 37.3897 38.3181C36.5002 38.9206 35.2889 38.6772 34.6904 37.7851C33.9934 36.746 34.4413 35.3228 35.6122 34.8821C36.6407 34.495 37.7276 34.264 38.8299 34.2199C40.2915 34.1613 41.8069 34.4232 43.1099 35.1083C43.4726 35.299 44.6562 35.9936 44.4507 36.4438C44.2719 36.8349 43.0519 36.7169 42.6296 36.7359V36.7359Z" fill="url(#paint6_linear_2_5011)"/>
<path d="M46.8601 38.4777C47.1496 38.0838 47.1583 37.5402 46.9427 36.9716C47.9921 37.7225 49.2072 37.8224 49.6735 37.1877C50.0219 36.7136 49.8538 35.963 49.3176 35.2894C50.2838 34.8738 50.8655 34.3775 50.7974 33.9316C50.7294 33.4856 50.026 33.1857 48.9797 33.0775C49.2903 32.2745 49.2267 31.508 48.7527 31.1596C48.1181 30.6931 46.9882 31.1512 46.2109 32.1812C46.2469 31.5742 46.0763 31.058 45.6824 30.7684C44.8602 30.1642 43.3872 30.7717 42.3923 32.1255C41.6806 33.0938 41.4083 34.1797 41.6112 34.9413C41.6784 35.1934 41.7176 35.45 41.7287 35.7107C41.7624 36.4981 42.3466 37.4533 43.3148 38.1648C44.6685 39.1598 46.2558 39.2999 46.8601 38.4777Z" fill="url(#paint7_linear_2_5011)"/>
<path d="M41.7268 35.7108C41.7606 36.4982 42.3447 37.4534 43.313 38.1649C44.6667 39.1598 46.2539 39.3 46.8582 38.4777C47.1477 38.0839 47.1564 37.5402 46.9408 36.9717C47.9902 37.7226 49.2052 37.8224 49.6716 37.1878C50.02 36.7136 49.8519 35.9631 49.3157 35.2895C50.2819 34.8739 50.8636 34.3776 50.7955 33.9316L41.689 35.3229C41.7086 35.4511 41.7212 35.5805 41.7268 35.7108V35.7108Z" fill="url(#paint8_linear_2_5011)"/>
<path d="M45.6801 30.7684C45.6325 30.7335 45.5823 30.7037 45.5307 30.6768L42.1702 35.2492L46.7426 38.6098C46.7839 38.5687 46.8229 38.5251 46.8578 38.4777C47.1474 38.0838 47.156 37.5402 46.9404 36.9716C47.9898 37.7225 49.2049 37.8224 49.6712 37.1877C50.0196 36.7136 49.8515 35.963 49.3153 35.2894C50.2815 34.8738 50.8633 34.3775 50.7952 33.9316C50.7271 33.4857 50.0237 33.1857 48.9775 33.0775C49.288 32.2745 49.2244 31.508 48.7504 31.1596C48.1158 30.6931 46.986 31.1512 46.2087 32.1812C46.2446 31.5741 46.0739 31.0579 45.6801 30.7684V30.7684Z" fill="url(#paint9_linear_2_5011)"/>
<path d="M49.6355 37.2297C49.6474 37.2156 49.6609 37.2029 49.6719 37.188C50.0203 36.7139 49.8521 35.9634 49.316 35.2897C50.2821 34.8741 50.8639 34.3778 50.7958 33.9319C50.7277 33.4859 50.0243 33.186 48.9781 33.0778C49.2886 32.2748 49.2251 31.5083 48.751 31.1598C48.7361 31.1489 48.7194 31.1409 48.7039 31.1309L46.1204 34.6461L49.6355 37.2297Z" fill="url(#paint10_linear_2_5011)"/>
<path d="M43.9784 30.769C43.4212 31.0287 42.8539 31.4947 42.3901 32.1257C41.6784 33.0939 41.4061 34.1799 41.609 34.9415C41.6762 35.1936 41.7154 35.4502 41.7265 35.7109C41.7602 36.4983 42.3444 37.4535 43.3126 38.165C43.9436 38.6287 44.6243 38.9041 45.2336 38.9855L43.9784 30.769Z" fill="url(#paint11_linear_2_5011)"/>
<path d="M27.6461 49.7942L47.7022 22.7131L43.4047 19.5303L23.3486 46.6114C21.6187 48.9472 18.9642 50.41 16.0656 50.6248C13.1671 50.8396 10.3258 49.7841 8.27063 47.7289C6.21543 45.6737 5.15988 42.8324 5.37466 39.9339C5.58955 37.0353 7.05236 34.3807 9.38811 32.651L36.4693 12.5949L33.2865 8.29736L6.20533 28.3535C2.61803 31.0102 0.371445 35.0871 0.0415939 39.5387C-0.288257 43.9905 1.33278 48.3539 4.48931 51.5104C7.64585 54.6669 12.0092 56.288 16.461 55.9581C20.9126 55.6281 24.9894 53.3815 27.6461 49.7942V49.7942Z" fill="url(#paint12_linear_2_5011)"/>
<path d="M14.8067 54.304C18.8432 53.5589 22.7357 51.128 25.4861 47.6345L46.0626 21.4989L43.4047 19.5305L23.3485 46.6115C21.6186 48.9473 18.9641 50.4101 16.0655 50.625C13.167 50.8397 10.3257 49.7842 8.27052 47.729C6.21532 45.6738 5.15977 42.8325 5.37455 39.934C5.58944 37.0354 7.05224 34.3808 9.38799 32.651L36.4692 12.5949L34.5007 9.93701L8.36506 30.5134C4.87154 33.2639 2.44059 37.1563 1.69546 41.1928C0.950329 45.2293 1.96854 48.9899 4.48909 51.5104C7.00964 54.031 10.7702 55.0492 14.8067 54.304V54.304Z" fill="url(#paint13_linear_2_5011)"/>
<path d="M47.7015 22.7127L43.4039 19.5298L34.3811 31.713L38.2044 35.5362L47.7015 22.7127Z" fill="url(#paint14_linear_2_5011)"/>
<path d="M20.4624 17.794L24.2857 21.6173L36.4688 12.5945L33.2859 8.29688L20.4624 17.794Z" fill="url(#paint15_linear_2_5011)"/>
<path d="M22.734 45.1812L44.6867 19.9966L40.6554 16.4826L18.7028 41.6672C15.2515 45.6266 11.2191 47.7744 9.01961 47.8498C8.52363 47.8668 8.30699 47.7656 8.27031 47.7289C8.23353 47.6921 8.1324 47.4755 8.14942 46.9796C8.22463 44.7801 10.3725 40.7476 14.3319 37.2964L39.5166 15.3437L36.0026 11.3125L10.8179 33.2651C6.09037 37.3859 2.94504 42.6972 2.8046 46.7965C2.72181 49.2176 3.67469 50.6962 4.48877 51.5103C5.30286 52.3244 6.78148 53.2773 9.20255 53.1945C13.3019 53.054 18.6132 49.9087 22.734 45.1812V45.1812Z" fill="url(#paint16_linear_2_5011)"/>
<path d="M24.2363 21.5685L28.0266 25.3588L39.5162 15.3438L36.0022 11.3125L24.2363 21.5685Z" fill="url(#paint17_linear_2_5011)"/>
<path d="M44.6875 19.9964L40.6561 16.4824L30.6411 27.972L34.4314 31.7623L44.6875 19.9964Z" fill="url(#paint18_linear_2_5011)"/>
<path d="M52.7591 27.1177C52.9028 26.3303 52.5259 25.5239 51.8008 24.8416C53.8838 25.1944 55.744 24.4702 55.9754 23.2017C56.1483 22.2541 55.3626 21.2698 54.0905 20.6628C55.2147 19.3583 55.715 18.2107 55.295 17.6031C54.875 16.9956 53.6246 17.0584 52.0071 17.6493C51.8885 16.2447 51.2451 15.1621 50.2975 14.9891C49.0291 14.7576 47.6944 16.242 47.2888 18.3154C46.9065 17.3961 46.2853 16.7586 45.4979 16.615C43.8544 16.3151 42.1219 18.2656 41.628 20.9716C41.2749 22.907 41.6527 24.7007 42.4975 25.6762C42.7771 25.9992 43.0188 26.3487 43.2221 26.7244C43.8363 27.8593 45.381 28.8463 47.3164 29.1995C50.0225 29.6931 52.4591 28.7612 52.7591 27.1177V27.1177Z" fill="url(#paint19_linear_2_5011)"/>
<path d="M43.2216 26.7241C43.8359 27.859 45.3806 28.846 47.3159 29.1992C50.0219 29.693 52.4587 28.7611 52.7585 27.1177C52.9023 26.3303 52.5253 25.5239 51.8003 24.8415C53.8833 25.1943 55.7434 24.4701 55.9748 23.2016C56.1477 22.254 55.362 21.2697 54.0899 20.6627C55.2141 19.3582 55.7145 18.2106 55.2945 17.603L42.8879 26.1804C43.0087 26.355 43.1201 26.5363 43.2216 26.7241V26.7241Z" fill="url(#paint20_linear_2_5011)"/>
<path d="M45.4982 16.6149C45.4032 16.5975 45.3079 16.5895 45.2126 16.5869L43.5447 25.7268L52.6846 27.3947C52.7158 27.3047 52.742 27.2127 52.7594 27.1177C52.9031 26.3303 52.5262 25.5239 51.8011 24.8416C53.8841 25.1944 55.7443 24.4701 55.9756 23.2017C56.1486 22.2541 55.3628 21.2698 54.0908 20.6628C55.2149 19.3583 55.7153 18.2106 55.2953 17.6031C54.8753 16.9956 53.6249 17.0584 52.0073 17.6493C51.8888 16.2447 51.2454 15.162 50.2978 14.9891C49.0294 14.7576 47.6947 16.242 47.2891 18.3154C46.9069 17.396 46.2856 16.7586 45.4982 16.6149V16.6149Z" fill="url(#paint21_linear_2_5011)"/>
<path d="M55.9517 23.289C55.959 23.2596 55.9699 23.2314 55.9752 23.2014C56.1482 22.2538 55.3624 21.2695 54.0903 20.6626C55.2145 19.3581 55.7149 18.2104 55.2949 17.6029C54.8749 16.9953 53.6244 17.0581 52.0069 17.6491C51.8883 16.2445 51.245 15.1618 50.2974 14.9889C50.2674 14.9834 50.2372 14.9835 50.2072 14.98L48.925 22.0067L55.9517 23.289Z" fill="url(#paint22_linear_2_5011)"/>
<path d="M42.9931 17.8359C42.3592 18.6176 41.8582 19.7104 41.628 20.9716C41.2749 22.907 41.6527 24.7008 42.4975 25.6763C42.777 25.9992 43.0188 26.3488 43.2221 26.7244C43.8363 27.8593 45.381 28.8463 47.3163 29.1995C48.5775 29.4297 49.7768 29.3469 50.732 29.03L42.9931 17.8359Z" fill="url(#paint23_linear_2_5011)"/>
<path d="M28.8821 3.24002C29.6695 3.09629 30.4759 3.47325 31.1583 4.19828C30.8055 2.1153 31.5297 0.255113 32.7982 0.0237566C33.7458 -0.149185 34.7301 0.636572 35.3371 1.90865C36.6416 0.784478 37.7892 0.284102 38.3968 0.704102C39.0043 1.1241 38.9415 2.37455 38.3505 3.99207C39.7552 4.11066 40.8378 4.754 41.0108 5.70161C41.2422 6.97006 39.7579 8.30473 37.6845 8.71034C38.6038 9.09257 39.2413 9.71384 39.3849 10.5012C39.6848 12.1447 37.7343 13.8772 35.0283 14.3711C33.0929 14.7242 31.2991 14.3464 30.3236 13.5016C30.0007 13.222 29.6511 12.9803 29.2755 12.777C28.1406 12.1628 27.1536 10.6181 26.8004 8.68267C26.3068 5.97667 27.2387 3.54001 28.8821 3.24002V3.24002Z" fill="url(#paint24_linear_2_5011)"/>
<path d="M29.2756 12.7794C28.1407 12.1651 27.1537 10.6204 26.8005 8.68512C26.3067 5.97911 27.2386 3.54234 28.882 3.24247C29.6694 3.09873 30.4758 3.47569 31.1581 4.20072C30.8053 2.11774 31.5296 0.257555 32.7981 0.026198C33.7457 -0.146743 34.73 0.639014 35.337 1.91109C36.6414 0.78692 37.7891 0.286543 38.3967 0.706543L29.8193 13.1131C29.6447 12.9923 29.4634 12.8809 29.2756 12.7794V12.7794Z" fill="url(#paint25_linear_2_5011)"/>
<path d="M39.3851 10.5012C39.4025 10.5962 39.4105 10.6915 39.4131 10.7868L30.2731 12.4548L28.6052 3.3148C28.6953 3.28362 28.7873 3.25737 28.8823 3.24002C29.6697 3.09629 30.4761 3.47325 31.1584 4.19828C30.8056 2.1153 31.5298 0.255113 32.7983 0.0237566C33.7459 -0.149185 34.7302 0.636572 35.3372 1.90865C36.6417 0.784478 37.7893 0.284102 38.3969 0.704102C39.0044 1.1241 38.9416 2.37455 38.3506 3.99207C39.7553 4.11066 40.8379 4.754 41.0109 5.70161C41.2423 6.97006 39.758 8.30473 37.6846 8.71034C38.604 9.09257 39.2414 9.71384 39.3851 10.5012V10.5012Z" fill="url(#paint26_linear_2_5011)"/>
<path d="M32.7112 0.0472546C32.7405 0.0400076 32.7687 0.029137 32.7987 0.0237566C33.7463 -0.149185 34.7306 0.636572 35.3376 1.90865C36.6421 0.784478 37.7897 0.284102 38.3973 0.704102C39.0048 1.1241 38.942 2.37455 38.351 3.99207C39.7557 4.11066 40.8383 4.754 41.0113 5.70161C41.0168 5.73159 41.0166 5.76178 41.0202 5.79176L33.9935 7.07394L32.7112 0.0472546Z" fill="url(#paint27_linear_2_5011)"/>
<path d="M38.1642 13.006C37.3825 13.6399 36.2897 14.1409 35.0285 14.3711C33.0931 14.7242 31.2994 14.3464 30.3239 13.5016C30.0009 13.2221 29.6513 12.9803 29.2757 12.777C28.1409 12.1628 27.1538 10.6181 26.8006 8.68277C26.5705 7.42156 26.6532 6.22228 26.9701 5.26709L38.1642 13.006Z" fill="url(#paint28_linear_2_5011)"/>
<path d="M44.97 28.3224C45.1802 27.5502 44.8735 26.7146 44.2091 25.973C46.2546 26.5021 48.1696 25.9389 48.5083 24.6947C48.7614 23.7653 48.0624 22.7177 46.8466 22.0044C48.0779 20.8004 48.6743 19.6997 48.3076 19.0585C47.9408 18.4174 46.6896 18.3734 45.0276 18.8243C45.0292 17.4147 44.4805 16.2811 43.5511 16.0281C42.3069 15.6894 40.8507 17.0546 40.2698 19.0858C39.9673 18.1374 39.4027 17.4492 38.6303 17.2389C37.0184 16.8001 35.1259 18.5958 34.4033 21.2499C33.8864 23.1482 34.1101 24.9676 34.8685 26.0115C35.1197 26.3571 35.3306 26.726 35.5012 27.1176C36.0165 28.3006 37.4714 29.4158 39.3697 29.9325C42.0238 30.6552 44.5311 29.9344 44.97 28.3224V28.3224Z" fill="url(#paint29_linear_2_5011)"/>
<path d="M35.5015 27.1178C36.0168 28.3008 37.4717 29.4158 39.37 29.9327C42.0241 30.6553 44.5313 29.9344 44.9702 28.3225C45.1805 27.5503 44.8737 26.7147 44.2094 25.973C46.2548 26.5022 48.1698 25.939 48.5085 24.6948C48.7616 23.7653 48.0626 22.7178 46.8469 22.0045C48.0781 20.8005 48.6746 19.6997 48.3078 19.0586L35.2153 26.5475C35.3207 26.7319 35.4162 26.922 35.5015 27.1178V27.1178Z" fill="url(#paint30_linear_2_5011)"/>
<path d="M38.6304 17.2389C38.5373 17.2136 38.4429 17.1974 38.3482 17.1868L35.9075 26.1513L44.872 28.5921C44.9107 28.505 44.9447 28.4155 44.97 28.3224C45.1803 27.5502 44.8735 26.7146 44.2092 25.9729C46.2546 26.5021 48.1696 25.9389 48.5083 24.6947C48.7614 23.7652 48.0624 22.7177 46.8467 22.0044C48.0779 20.8004 48.6744 19.6996 48.3076 19.0585C47.9409 18.4174 46.6897 18.3734 45.0277 18.8243C45.0292 17.4147 44.4805 16.2811 43.5511 16.0281C42.3069 15.6894 40.8507 17.0546 40.2699 19.0858C39.9675 18.1374 39.4027 17.4492 38.6304 17.2389V17.2389Z" fill="url(#paint31_linear_2_5011)"/>
<path d="M48.477 24.7801C48.4868 24.7515 48.5 24.7243 48.5079 24.6949C48.761 23.7654 48.062 22.7179 46.8462 22.0046C48.0774 20.8006 48.6739 19.6998 48.3071 19.0587C47.9404 18.4175 46.6892 18.3736 45.0272 18.8245C45.0287 17.4149 44.4801 16.2813 43.5507 16.0283C43.5214 16.0203 43.4913 16.0179 43.4616 16.0117L41.5852 22.9036L48.477 24.7801Z" fill="url(#paint32_linear_2_5011)"/>
<path d="M36.0306 18.2417C35.3323 18.9665 34.7401 20.0126 34.4033 21.2495C33.8864 23.1478 34.1101 24.9673 34.8685 26.0112C35.1197 26.3567 35.3306 26.7257 35.5012 27.1172C36.0165 28.3003 37.4714 29.4153 39.3697 29.9322C40.6067 30.2689 41.8087 30.2887 42.7875 30.0544L36.0306 18.2417Z" fill="url(#paint33_linear_2_5011)"/>
<path d="M27.6766 11.0288C28.4489 10.8185 29.2845 11.1254 30.0261 11.7896C29.497 9.74422 30.0602 7.82924 31.3043 7.4905C32.2338 7.2374 33.2814 7.93641 33.9947 9.15216C35.1987 7.92093 36.2995 7.32447 36.9406 7.69122C37.5817 8.05796 37.6257 9.30918 37.1748 10.9712C38.5844 10.9696 39.718 11.5183 39.9711 12.4477C40.3098 13.6919 38.9446 15.1481 36.9134 15.729C37.8619 16.0315 38.55 16.5961 38.7603 17.3685C39.1992 18.9804 37.4034 20.8728 34.7493 21.5955C32.8511 22.1123 31.0316 21.8886 29.9877 21.1302C29.6421 20.8791 29.2732 20.6682 28.8816 20.4975C27.6986 19.9822 26.5834 18.5273 26.0667 16.629C25.3438 13.975 26.0647 11.4677 27.6766 11.0288V11.0288Z" fill="url(#paint34_linear_2_5011)"/>
<path d="M28.8817 20.4976C27.6987 19.9822 26.5836 18.5273 26.0668 16.6291C25.3442 13.975 26.065 11.4677 27.677 11.0288C28.4492 10.8185 29.2848 11.1255 30.0264 11.7897C29.4973 9.74423 30.0605 7.82924 31.3047 7.4905C32.2342 7.2374 33.2817 7.93641 33.995 9.15216C35.199 7.92093 36.2998 7.32447 36.9409 7.69122L29.4519 20.7837C29.2676 20.6783 29.0775 20.5829 28.8817 20.4976V20.4976Z" fill="url(#paint35_linear_2_5011)"/>
<path d="M38.7597 17.3684C38.785 17.4616 38.8012 17.5559 38.8118 17.6506L29.8473 20.0914L27.4065 11.1269C27.4936 11.0881 27.5831 11.0542 27.6762 11.0288C28.4484 10.8185 29.284 11.1254 30.0256 11.7896C29.4965 9.74422 30.0597 7.82924 31.3039 7.4905C32.2334 7.2374 33.2809 7.93641 33.9942 9.15216C35.1982 7.92093 36.299 7.32447 36.9401 7.69122C37.5812 8.05796 37.6252 9.30918 37.1743 10.9712C38.5839 10.9696 39.7175 11.5183 39.9706 12.4477C40.3093 13.6919 38.9441 15.1481 36.9129 15.729C37.8612 16.0314 38.5494 16.5961 38.7597 17.3684V17.3684Z" fill="url(#paint36_linear_2_5011)"/>
<path d="M31.2192 7.52135C31.2479 7.51158 31.275 7.4984 31.3044 7.4905C32.2339 7.2374 33.2815 7.93641 33.9947 9.15216C35.1987 7.92093 36.2995 7.32447 36.9407 7.69122C37.5818 8.05796 37.6257 9.30918 37.1749 10.9712C38.5844 10.9696 39.7181 11.5183 39.9711 12.4477C39.9792 12.477 39.9816 12.5071 39.9877 12.5368L33.0959 14.4132L31.2192 7.52135Z" fill="url(#paint37_linear_2_5011)"/>
<path d="M37.7574 19.9678C37.0326 20.6661 35.9865 21.2584 34.7496 21.5951C32.8513 22.112 31.0318 21.8883 29.9879 21.1299C29.6424 20.8788 29.2734 20.6678 28.8819 20.4972C27.6988 19.9819 26.5838 18.527 26.0669 16.6287C25.7302 15.3918 25.7104 14.1897 25.9447 13.2109L37.7574 19.9678Z" fill="url(#paint38_linear_2_5011)"/>
<path d="M39.2133 14.7817L13.8335 38.8424C8.01046 44.3627 3.7 50.2464 4.72666 51.2731C5.75333 52.2998 11.6371 47.9893 17.1573 42.1663L41.218 16.7864L39.2133 14.7817Z" fill="url(#paint39_linear_2_5011)"/>
<path d="M30.6265 27.9584L41.2177 16.7864L39.213 14.7817L28.041 25.373L30.6265 27.9584Z" fill="url(#paint40_linear_2_5011)"/>
<path d="M46.0703 18.9604C46.0703 18.16 45.5547 17.4343 44.7189 16.8933C46.8314 16.8665 48.5313 15.82 48.5313 14.5305C48.5313 13.5672 47.5817 12.7401 46.2213 12.3713C47.093 10.8862 47.3793 9.66733 46.857 9.14499C46.3348 8.62266 45.1159 8.90902 43.6308 9.78076C43.2619 8.42029 42.4348 7.4707 41.4715 7.4707C40.182 7.4707 39.1356 9.17058 39.1087 11.2831C38.5677 10.4474 37.842 9.93174 37.0416 9.93174C35.3711 9.93174 34.0168 12.1616 34.0168 14.9122C34.0168 16.8796 34.7106 18.5764 35.7167 19.3843C36.0498 19.6518 36.3503 19.9523 36.6178 20.2854C37.4257 21.2915 39.1225 21.9852 41.0899 21.9852C43.8404 21.9851 46.0703 20.6309 46.0703 18.9604Z" fill="url(#paint41_linear_2_5011)"/>
<path d="M36.6151 20.2853C37.4231 21.2913 39.1199 21.9852 41.0872 21.9852C43.8379 21.9852 46.0677 20.6309 46.0677 18.9604C46.0677 18.16 45.5522 17.4343 44.7164 16.8933C46.8289 16.8665 48.5288 15.82 48.5288 14.5306C48.5288 13.5673 47.5792 12.7401 46.2187 12.3713C47.0904 10.8862 47.3767 9.66736 46.8545 9.14502L36.1892 19.8103C36.3394 19.9604 36.4814 20.1187 36.6151 20.2853V20.2853Z" fill="url(#paint42_linear_2_5011)"/>
<path d="M37.0389 9.93163C36.9423 9.93163 36.8471 9.94085 36.7529 9.95546V19.2463H46.0438C46.0584 19.1521 46.0676 19.0569 46.0676 18.9604C46.0676 18.16 45.5521 17.4343 44.7163 16.8933C46.8288 16.8665 48.5287 15.82 48.5287 14.5305C48.5287 13.5672 47.5791 12.7401 46.2186 12.3713C47.0903 10.8862 47.3766 9.66733 46.8544 9.14499C46.3321 8.62266 45.1132 8.90902 43.6281 9.78076C43.2593 8.42029 42.4321 7.4707 41.4688 7.4707C40.1794 7.4707 39.1329 9.17058 39.106 11.2831C38.5649 10.4473 37.8392 9.93163 37.0389 9.93163V9.93163Z" fill="url(#paint43_linear_2_5011)"/>
<path d="M48.5218 14.6208C48.5236 14.5906 48.5292 14.561 48.5292 14.5305C48.5292 13.5672 47.5797 12.7401 46.2192 12.3713C47.0909 10.8862 47.3772 9.66733 46.855 9.14499C46.3327 8.62266 45.1138 8.90902 43.6287 9.78076C43.2599 8.42029 42.4327 7.4707 41.4694 7.4707C41.439 7.4707 41.4093 7.4763 41.3792 7.47817V14.6209L48.5218 14.6208Z" fill="url(#paint44_linear_2_5011)"/>
<path d="M34.7946 11.582C34.3113 12.4647 34.0146 13.6298 34.0146 14.9118C34.0146 16.8792 34.7084 18.576 35.7145 19.3839C36.0476 19.6514 36.3481 19.9519 36.6156 20.285C37.4235 21.291 39.1203 21.9848 41.0877 21.9848C42.3697 21.9848 43.5347 21.6881 44.4175 21.2049L34.7946 11.582Z" fill="url(#paint45_linear_2_5011)"/>
<path d="M23.3486 46.6118C21.7037 48.8328 19.2226 50.2637 16.4908 50.5837C18.6682 49.2149 20.8287 47.368 22.7344 45.1817L27.4258 39.7995L23.6355 36.0092L18.7032 41.6677C16.6142 44.0643 14.3129 45.7958 12.3334 46.8071C13.8847 45.4551 15.5366 43.8761 17.1573 42.1666L23.3065 35.6802L20.3197 32.6934L13.8334 38.8427C12.1239 40.4634 10.5449 42.1154 9.19286 43.6666C10.2042 41.6871 11.9357 39.3858 14.3322 37.2968L19.9908 32.3645L16.2004 28.5741L10.8183 33.2655C8.63198 35.1713 6.78508 37.3318 5.41626 39.5092C5.73634 36.7774 7.1672 34.2963 9.3882 32.6514L15.6444 28.0181L11.8211 24.1948L6.20532 28.3539C2.61802 31.0106 0.371433 35.0875 0.0415821 39.5392C-0.285085 43.9474 1.30224 48.2683 4.39805 51.4171C4.42858 51.4492 4.4591 51.4806 4.4893 51.5109C4.5195 51.5411 4.55101 51.5716 4.58307 51.6022C7.73192 54.698 12.0528 56.2853 16.461 55.9586C20.9127 55.6287 24.9896 53.3821 27.6463 49.7949L31.8053 44.1791L27.9821 40.3558L23.3486 46.6118Z" fill="url(#paint46_linear_2_5011)"/>
</g>
<defs>
<linearGradient id="paint0_linear_2_5011" x1="18.4536" y1="21.2014" x2="12.6982" y2="19.8152" gradientUnits="userSpaceOnUse">
<stop stop-color="#A2E62E"/>
<stop offset="0.1231" stop-color="#97DE30"/>
<stop offset="0.3395" stop-color="#79CB36"/>
<stop offset="0.6234" stop-color="#4AAB3F"/>
<stop offset="0.9609" stop-color="#09804C"/>
<stop offset="1" stop-color="#017B4E"/>
</linearGradient>
<linearGradient id="paint1_linear_2_5011" x1="15.1327" y1="10.3866" x2="19.9347" y2="17.6522" gradientUnits="userSpaceOnUse">
<stop stop-color="#A2E62E"/>
<stop offset="0.1231" stop-color="#97DE30"/>
<stop offset="0.3395" stop-color="#79CB36"/>
<stop offset="0.6234" stop-color="#4AAB3F"/>
<stop offset="0.9609" stop-color="#09804C"/>
<stop offset="1" stop-color="#017B4E"/>
</linearGradient>
<linearGradient id="paint2_linear_2_5011" x1="15.9255" y1="13.3076" x2="17.7395" y2="21.0006" gradientUnits="userSpaceOnUse">
<stop stop-color="#017B4E" stop-opacity="0"/>
<stop offset="0.8674" stop-color="#016B43" stop-opacity="0.867"/>
<stop offset="1" stop-color="#026841"/>
</linearGradient>
<linearGradient id="paint3_linear_2_5011" x1="17.512" y1="13.3648" x2="11.427" y2="24.5834" gradientUnits="userSpaceOnUse">
<stop stop-color="#017B4E" stop-opacity="0"/>
<stop offset="0.8674" stop-color="#016B43" stop-opacity="0.867"/>
<stop offset="1" stop-color="#026841"/>
</linearGradient>
<linearGradient id="paint4_linear_2_5011" x1="17.8563" y1="10.7822" x2="11.644" y2="19.5739" gradientUnits="userSpaceOnUse">
<stop stop-color="#017B4E" stop-opacity="0"/>
<stop offset="0.8674" stop-color="#016B43" stop-opacity="0.867"/>
<stop offset="1" stop-color="#026841"/>
</linearGradient>
<linearGradient id="paint5_linear_2_5011" x1="17.0156" y1="16.4197" x2="16.6687" y2="18.6914" gradientUnits="userSpaceOnUse">
<stop stop-color="#017B4E" stop-opacity="0"/>
<stop offset="0.8674" stop-color="#016B43" stop-opacity="0.867"/>
<stop offset="1" stop-color="#026841"/>
</linearGradient>
<linearGradient id="paint6_linear_2_5011" x1="38.7075" y1="33.6412" x2="40.0938" y2="39.3964" gradientUnits="userSpaceOnUse">
<stop stop-color="#A2E62E"/>
<stop offset="0.1231" stop-color="#97DE30"/>
<stop offset="0.3395" stop-color="#79CB36"/>
<stop offset="0.6234" stop-color="#4AAB3F"/>
<stop offset="0.9609" stop-color="#09804C"/>
<stop offset="1" stop-color="#017B4E"/>
</linearGradient>
<linearGradient id="paint7_linear_2_5011" x1="49.5365" y1="36.9608" x2="42.2711" y2="32.1588" gradientUnits="userSpaceOnUse">
<stop stop-color="#A2E62E"/>
<stop offset="0.1231" stop-color="#97DE30"/>
<stop offset="0.3395" stop-color="#79CB36"/>
<stop offset="0.6234" stop-color="#4AAB3F"/>
<stop offset="0.9609" stop-color="#09804C"/>
<stop offset="1" stop-color="#017B4E"/>
</linearGradient>
<linearGradient id="paint8_linear_2_5011" x1="46.5967" y1="36.1547" x2="38.9038" y2="34.3407" gradientUnits="userSpaceOnUse">
<stop stop-color="#017B4E" stop-opacity="0"/>
<stop offset="0.8674" stop-color="#016B43" stop-opacity="0.867"/>
<stop offset="1" stop-color="#026841"/>
</linearGradient>
<linearGradient id="paint9_linear_2_5011" x1="46.5372" y1="34.5678" x2="35.3185" y2="40.6528" gradientUnits="userSpaceOnUse">
<stop stop-color="#017B4E" stop-opacity="0"/>
<stop offset="0.8674" stop-color="#016B43" stop-opacity="0.867"/>
<stop offset="1" stop-color="#026841"/>
</linearGradient>
<linearGradient id="paint10_linear_2_5011" x1="49.12" y1="34.2232" x2="40.3282" y2="40.4357" gradientUnits="userSpaceOnUse">
<stop stop-color="#017B4E" stop-opacity="0"/>
<stop offset="0.8674" stop-color="#016B43" stop-opacity="0.867"/>
<stop offset="1" stop-color="#026841"/>
</linearGradient>
<linearGradient id="paint11_linear_2_5011" x1="43.4821" y1="35.0635" x2="41.2105" y2="35.4103" gradientUnits="userSpaceOnUse">
<stop stop-color="#017B4E" stop-opacity="0"/>
<stop offset="0.8674" stop-color="#016B43" stop-opacity="0.867"/>
<stop offset="1" stop-color="#026841"/>
</linearGradient>
<linearGradient id="paint12_linear_2_5011" x1="22.4564" y1="1.905" x2="24.8089" y2="52.4287" gradientUnits="userSpaceOnUse">
<stop stop-color="#A2E62E"/>
<stop offset="0.1231" stop-color="#97DE30"/>
<stop offset="0.3395" stop-color="#79CB36"/>
<stop offset="0.6234" stop-color="#4AAB3F"/>
<stop offset="0.9609" stop-color="#09804C"/>
<stop offset="1" stop-color="#017B4E"/>
</linearGradient>
<linearGradient id="paint13_linear_2_5011" x1="15.4984" y1="59.7031" x2="30.2859" y2="9.40346" gradientUnits="userSpaceOnUse">
<stop stop-color="#A2E62E"/>
<stop offset="0.1231" stop-color="#97DE30"/>
<stop offset="0.3395" stop-color="#79CB36"/>
<stop offset="0.6234" stop-color="#4AAB3F"/>
<stop offset="0.9609" stop-color="#09804C"/>
<stop offset="1" stop-color="#017B4E"/>
</linearGradient>
<linearGradient id="paint14_linear_2_5011" x1="36.6778" y1="31.6515" x2="39.4927" y2="28.8365" gradientUnits="userSpaceOnUse">
<stop stop-color="#017B4E" stop-opacity="0"/>
<stop offset="0.8674" stop-color="#016B43" stop-opacity="0.867"/>
<stop offset="1" stop-color="#026841"/>
</linearGradient>
<linearGradient id="paint15_linear_2_5011" x1="24.3411" y1="19.3146" x2="27.1561" y2="16.4996" gradientUnits="userSpaceOnUse">
<stop stop-color="#017B4E" stop-opacity="0"/>
<stop offset="0.8674" stop-color="#016B43" stop-opacity="0.867"/>
<stop offset="1" stop-color="#026841"/>
</linearGradient>
<linearGradient id="paint16_linear_2_5011" x1="22.3894" y1="2.56796" x2="24.0699" y2="41.1049" gradientUnits="userSpaceOnUse">
<stop stop-color="#A2E62E"/>
<stop offset="0.1231" stop-color="#97DE30"/>
<stop offset="0.3395" stop-color="#79CB36"/>
<stop offset="0.6234" stop-color="#4AAB3F"/>
<stop offset="0.9609" stop-color="#09804C"/>
<stop offset="1" stop-color="#017B4E"/>
</linearGradient>
<linearGradient id="paint17_linear_2_5011" x1="27.1724" y1="23.1547" x2="31.2902" y2="19.037" gradientUnits="userSpaceOnUse">
<stop stop-color="#017B4E" stop-opacity="0"/>
<stop offset="0.8674" stop-color="#016B43" stop-opacity="0.867"/>
<stop offset="1" stop-color="#026841"/>
</linearGradient>
<linearGradient id="paint18_linear_2_5011" x1="32.8392" y1="28.8202" x2="36.957" y2="24.7024" gradientUnits="userSpaceOnUse">
<stop stop-color="#017B4E" stop-opacity="0"/>
<stop offset="0.8674" stop-color="#016B43" stop-opacity="0.867"/>
<stop offset="1" stop-color="#026841"/>
</linearGradient>
<linearGradient id="paint19_linear_2_5011" x1="47.7682" y1="8.75766" x2="49.1718" y2="28.8989" gradientUnits="userSpaceOnUse">
<stop stop-color="#A2E62E"/>
<stop offset="0.1231" stop-color="#97DE30"/>
<stop offset="0.3395" stop-color="#79CB36"/>
<stop offset="0.6234" stop-color="#4AAB3F"/>
<stop offset="0.9609" stop-color="#09804C"/>
<stop offset="1" stop-color="#017B4E"/>
</linearGradient>
<linearGradient id="paint20_linear_2_5011" x1="50.7265" y1="23.8698" x2="38.1018" y2="26.7174" gradientUnits="userSpaceOnUse">
<stop stop-color="#017B4E" stop-opacity="0"/>
<stop offset="0.8674" stop-color="#016B43" stop-opacity="0.867"/>
<stop offset="1" stop-color="#026841"/>
</linearGradient>
<linearGradient id="paint21_linear_2_5011" x1="49.5024" y1="21.5769" x2="37.3531" y2="38.5801" gradientUnits="userSpaceOnUse">
<stop stop-color="#017B4E" stop-opacity="0"/>
<stop offset="0.8674" stop-color="#016B43" stop-opacity="0.867"/>
<stop offset="1" stop-color="#026841"/>
</linearGradient>
<linearGradient id="paint22_linear_2_5011" x1="53.0555" y1="19.2169" x2="44.5701" y2="34.6673" gradientUnits="userSpaceOnUse">
<stop stop-color="#017B4E" stop-opacity="0"/>
<stop offset="0.8674" stop-color="#016B43" stop-opacity="0.867"/>
<stop offset="1" stop-color="#026841"/>
</linearGradient>
<linearGradient id="paint23_linear_2_5011" x1="45.3601" y1="24.4976" x2="42.2652" y2="26.6374" gradientUnits="userSpaceOnUse">
<stop stop-color="#017B4E" stop-opacity="0"/>
<stop offset="0.8674" stop-color="#016B43" stop-opacity="0.867"/>
<stop offset="1" stop-color="#026841"/>
</linearGradient>
<linearGradient id="paint24_linear_2_5011" x1="33.647" y1="0.388206" x2="33.9628" y2="10.1078" gradientUnits="userSpaceOnUse">
<stop stop-color="#A2E62E"/>
<stop offset="0.1231" stop-color="#97DE30"/>
<stop offset="0.3395" stop-color="#79CB36"/>
<stop offset="0.6234" stop-color="#4AAB3F"/>
<stop offset="0.9609" stop-color="#09804C"/>
<stop offset="1" stop-color="#017B4E"/>
</linearGradient>
<linearGradient id="paint25_linear_2_5011" x1="32.1253" y1="5.26984" x2="29.2779" y2="17.8944" gradientUnits="userSpaceOnUse">
<stop stop-color="#017B4E" stop-opacity="0"/>
<stop offset="0.8674" stop-color="#016B43" stop-opacity="0.867"/>
<stop offset="1" stop-color="#026841"/>
</linearGradient>
<linearGradient id="paint26_linear_2_5011" x1="34.4185" y1="6.4924" x2="17.4155" y2="18.6416" gradientUnits="userSpaceOnUse">
<stop stop-color="#017B4E" stop-opacity="0"/>
<stop offset="0.8674" stop-color="#016B43" stop-opacity="0.867"/>
<stop offset="1" stop-color="#026841"/>
</linearGradient>
<linearGradient id="paint27_linear_2_5011" x1="36.7787" y1="2.93882" x2="21.3285" y2="11.4243" gradientUnits="userSpaceOnUse">
<stop stop-color="#017B4E" stop-opacity="0"/>
<stop offset="0.8674" stop-color="#016B43" stop-opacity="0.867"/>
<stop offset="1" stop-color="#026841"/>
</linearGradient>
<linearGradient id="paint28_linear_2_5011" x1="31.498" y1="10.6343" x2="29.3582" y2="13.7293" gradientUnits="userSpaceOnUse">
<stop stop-color="#017B4E" stop-opacity="0"/>
<stop offset="0.8674" stop-color="#016B43" stop-opacity="0.867"/>
<stop offset="1" stop-color="#026841"/>
</linearGradient>
<linearGradient id="paint29_linear_2_5011" x1="43.1529" y1="16.8015" x2="38.2868" y2="34.7055" gradientUnits="userSpaceOnUse">
<stop stop-color="#A2E62E"/>
<stop offset="0.1231" stop-color="#97DE30"/>
<stop offset="0.3395" stop-color="#79CB36"/>
<stop offset="0.6234" stop-color="#4AAB3F"/>
<stop offset="0.9609" stop-color="#09804C"/>
<stop offset="1" stop-color="#017B4E"/>
</linearGradient>
<linearGradient id="paint30_linear_2_5011" x1="43.2335" y1="24.8977" x2="30.417" y2="26.6637" gradientUnits="userSpaceOnUse">
<stop stop-color="#017B4E" stop-opacity="0"/>
<stop offset="0.8674" stop-color="#016B43" stop-opacity="0.867"/>
<stop offset="1" stop-color="#026841"/>
</linearGradient>
<linearGradient id="paint31_linear_2_5011" x1="42.2076" y1="22.5095" x2="28.6649" y2="38.416" gradientUnits="userSpaceOnUse">
<stop stop-color="#017B4E" stop-opacity="0"/>
<stop offset="0.8674" stop-color="#016B43" stop-opacity="0.867"/>
<stop offset="1" stop-color="#026841"/>
</linearGradient>
<linearGradient id="paint32_linear_2_5011" x1="45.9468" y1="20.4605" x2="36.1849" y2="35.1307" gradientUnits="userSpaceOnUse">
<stop stop-color="#017B4E" stop-opacity="0"/>
<stop offset="0.8674" stop-color="#016B43" stop-opacity="0.867"/>
<stop offset="1" stop-color="#026841"/>
</linearGradient>
<linearGradient id="paint33_linear_2_5011" x1="37.8342" y1="25.0673" x2="34.57" y2="26.9363" gradientUnits="userSpaceOnUse">
<stop stop-color="#017B4E" stop-opacity="0"/>
<stop offset="0.8674" stop-color="#016B43" stop-opacity="0.867"/>
<stop offset="1" stop-color="#026841"/>
</linearGradient>
<linearGradient id="paint34_linear_2_5011" x1="31.5494" y1="7.85306" x2="34.6021" y2="21.7835" gradientUnits="userSpaceOnUse">
<stop stop-color="#A2E62E"/>
<stop offset="0.1231" stop-color="#97DE30"/>
<stop offset="0.3395" stop-color="#79CB36"/>
<stop offset="0.6234" stop-color="#4AAB3F"/>
<stop offset="0.9609" stop-color="#09804C"/>
<stop offset="1" stop-color="#017B4E"/>
</linearGradient>
<linearGradient id="paint35_linear_2_5011" x1="31.1037" y1="12.7601" x2="29.3376" y2="25.5766" gradientUnits="userSpaceOnUse">
<stop stop-color="#017B4E" stop-opacity="0"/>
<stop offset="0.8674" stop-color="#016B43" stop-opacity="0.867"/>
<stop offset="1" stop-color="#026841"/>
</linearGradient>
<linearGradient id="paint36_linear_2_5011" x1="33.4909" y1="13.7858" x2="17.5845" y2="27.3286" gradientUnits="userSpaceOnUse">
<stop stop-color="#017B4E" stop-opacity="0"/>
<stop offset="0.8674" stop-color="#016B43" stop-opacity="0.867"/>
<stop offset="1" stop-color="#026841"/>
</linearGradient>
<linearGradient id="paint37_linear_2_5011" x1="35.5408" y1="10.0461" x2="20.8705" y2="19.808" gradientUnits="userSpaceOnUse">
<stop stop-color="#017B4E" stop-opacity="0"/>
<stop offset="0.8674" stop-color="#016B43" stop-opacity="0.867"/>
<stop offset="1" stop-color="#026841"/>
</linearGradient>
<linearGradient id="paint38_linear_2_5011" x1="30.9337" y1="18.1588" x2="29.0647" y2="21.423" gradientUnits="userSpaceOnUse">
<stop stop-color="#017B4E" stop-opacity="0"/>
<stop offset="0.8674" stop-color="#016B43" stop-opacity="0.867"/>
<stop offset="1" stop-color="#026841"/>
</linearGradient>
<linearGradient id="paint39_linear_2_5011" x1="22.8973" y1="14.7776" x2="22.8973" y2="51.4153" gradientUnits="userSpaceOnUse">
<stop stop-color="#A2E62E"/>
<stop offset="0.1231" stop-color="#97DE30"/>
<stop offset="0.3395" stop-color="#79CB36"/>
<stop offset="0.6234" stop-color="#4AAB3F"/>
<stop offset="0.9609" stop-color="#09804C"/>
<stop offset="1" stop-color="#017B4E"/>
</linearGradient>
<linearGradient id="paint40_linear_2_5011" x1="30.5939" y1="25.3996" x2="36.375" y2="19.6184" gradientUnits="userSpaceOnUse">
<stop stop-color="#017B4E" stop-opacity="0"/>
<stop offset="0.8674" stop-color="#016B43" stop-opacity="0.867"/>
<stop offset="1" stop-color="#026841"/>
</linearGradient>
<linearGradient id="paint41_linear_2_5011" x1="41.272" y1="8.31898" x2="41.2719" y2="26.8657" gradientUnits="userSpaceOnUse">
<stop stop-color="#A2E62E"/>
<stop offset="0.1231" stop-color="#97DE30"/>
<stop offset="0.3395" stop-color="#79CB36"/>
<stop offset="0.6234" stop-color="#4AAB3F"/>
<stop offset="0.9609" stop-color="#09804C"/>
<stop offset="1" stop-color="#017B4E"/>
</linearGradient>
<linearGradient id="paint42_linear_2_5011" x1="43.4696" y1="16.1075" x2="31.5695" y2="21.1714" gradientUnits="userSpaceOnUse">
<stop stop-color="#017B4E" stop-opacity="0"/>
<stop offset="0.8674" stop-color="#016B43" stop-opacity="0.867"/>
<stop offset="1" stop-color="#026841"/>
</linearGradient>
<linearGradient id="paint43_linear_2_5011" x1="41.8539" y1="14.073" x2="32.9604" y2="32.9677" gradientUnits="userSpaceOnUse">
<stop stop-color="#017B4E" stop-opacity="0"/>
<stop offset="0.8674" stop-color="#016B43" stop-opacity="0.867"/>
<stop offset="1" stop-color="#026841"/>
</linearGradient>
<linearGradient id="paint44_linear_2_5011" x1="44.9245" y1="11.1156" x2="39.3543" y2="27.8265" gradientUnits="userSpaceOnUse">
<stop stop-color="#017B4E" stop-opacity="0"/>
<stop offset="0.8674" stop-color="#016B43" stop-opacity="0.867"/>
<stop offset="1" stop-color="#026841"/>
</linearGradient>
<linearGradient id="paint45_linear_2_5011" x1="38.3065" y1="17.6868" x2="35.6478" y2="20.3456" gradientUnits="userSpaceOnUse">
<stop stop-color="#017B4E" stop-opacity="0"/>
<stop offset="0.8674" stop-color="#016B43" stop-opacity="0.867"/>
<stop offset="1" stop-color="#026841"/>
</linearGradient>
<linearGradient id="paint46_linear_2_5011" x1="18.6773" y1="37.3165" x2="6.6527" y2="49.3411" gradientUnits="userSpaceOnUse">
<stop stop-color="#017B4E" stop-opacity="0"/>
<stop offset="0.8674" stop-color="#016B43" stop-opacity="0.867"/>
<stop offset="1" stop-color="#026841"/>
</linearGradient>
<clipPath id="clip0_2_5011">
<rect width="56" height="56" fill="white"/>
</clipPath>
</defs>
</svg>
