<svg width="56" height="56" viewBox="0 0 56 56" fill="none" xmlns="http://www.w3.org/2000/svg">
<g clip-path="url(#clip0_2_5071)">
<path d="M54.3826 27.4552C55.3762 26.8851 55.9998 25.8381 55.9998 24.6926V22.2876C55.9998 9.71415 49.639 6.36414 47.0728 5.52447C46.4871 5.33221 45.8647 5.28521 45.2555 5.38645L39.9293 6.27619C39.3947 6.36546 38.9178 6.67247 38.6275 7.13013C37.5364 8.84999 35.6163 9.99196 33.4287 9.99196C31.9763 9.99196 30.6423 9.48806 29.5901 8.64631C29.1645 8.30581 28.6123 8.16657 28.0747 8.25639L2.60718 12.5107C1.10243 12.7618 0 14.0638 0 15.5905V24.4251C0 25.4052 0.465459 26.315 1.22816 26.9306C2.60367 28.0409 3.48364 29.7409 3.48364 31.6475C3.48364 33.5529 2.60367 35.2527 1.22816 36.3629C0.465459 36.9786 0 37.8883 0 38.8684V38.9127C0 40.6802 1.27713 42.1892 3.02115 42.4799L51.788 50.6156C53.993 50.9825 55.9997 49.2827 55.9997 47.0468V40.734C55.9997 39.5884 55.3762 38.5415 54.3826 37.9714C52.5612 36.9264 51.3344 34.9628 51.3344 32.7132C51.3344 30.4638 52.5612 28.5002 54.3826 27.4552V27.4552Z" fill="url(#paint0_linear_2_5071)"/>
<path d="M47.074 5.52355C46.4877 5.33162 45.8646 5.28528 45.2563 5.38696L39.9293 6.2767C39.3947 6.36597 38.9179 6.67287 38.6276 7.13053C37.5364 8.85006 35.6166 9.9918 33.4292 9.9918C31.9769 9.9918 30.6431 9.48802 29.5909 8.64638C29.1653 8.30598 28.6132 8.16675 28.0757 8.25657L2.60798 12.5104C2.07137 12.6 1.58747 12.8251 1.18481 13.1445L56.0005 22.3342V22.2875C56.0005 9.71356 49.6397 6.36344 47.074 5.52355V5.52355Z" fill="url(#paint1_linear_2_5071)"/>
<path d="M38.1082 42.8936C41.099 42.8936 43.5235 40.4691 43.5235 37.4783C43.5235 34.4875 41.099 32.063 38.1082 32.063C35.1174 32.063 32.6929 34.4875 32.6929 37.4783C32.6929 40.4691 35.1174 42.8936 38.1082 42.8936Z" fill="url(#paint2_linear_2_5071)"/>
<path d="M18.9177 19.4452C20.8908 19.4452 22.4903 17.8457 22.4903 15.8725C22.4903 13.8994 20.8908 12.2998 18.9177 12.2998C16.9445 12.2998 15.345 13.8994 15.345 15.8725C15.345 17.8457 16.9445 19.4452 18.9177 19.4452Z" fill="url(#paint3_linear_2_5071)"/>
<path d="M29.9117 32.8947C31.9071 32.8947 33.5246 31.2772 33.5246 29.2818C33.5246 27.2865 31.9071 25.6689 29.9117 25.6689C27.9164 25.6689 26.2988 27.2865 26.2988 29.2818C26.2988 31.2772 27.9164 32.8947 29.9117 32.8947Z" fill="url(#paint4_linear_2_5071)"/>
<path d="M45.807 30.2849C47.8023 30.2849 49.4199 28.6673 49.4199 26.672C49.4199 24.6766 47.8023 23.0591 45.807 23.0591C43.8116 23.0591 42.1941 24.6766 42.1941 26.672C42.1941 28.6673 43.8116 30.2849 45.807 30.2849Z" fill="url(#paint5_linear_2_5071)"/>
<path d="M9.88998 38.0949C11.8853 38.0949 13.5029 36.4774 13.5029 34.482C13.5029 32.4867 11.8853 30.8691 9.88998 30.8691C7.89464 30.8691 6.2771 32.4867 6.2771 34.482C6.2771 36.4774 7.89464 38.0949 9.88998 38.0949Z" fill="url(#paint6_linear_2_5071)"/>
<path d="M45.807 14.1135C47.8023 14.1135 49.4199 12.4959 49.4199 10.5006C49.4199 8.50524 47.8023 6.8877 45.807 6.8877C43.8116 6.8877 42.1941 8.50524 42.1941 10.5006C42.1941 12.4959 43.8116 14.1135 45.807 14.1135Z" fill="url(#paint7_linear_2_5071)"/>
<path d="M27.4838 13.5696C28.5965 13.5696 29.4986 12.6676 29.4986 11.5548C29.4986 10.4421 28.5965 9.54004 27.4838 9.54004C26.3711 9.54004 25.469 10.4421 25.469 11.5548C25.469 12.6676 26.3711 13.5696 27.4838 13.5696Z" fill="url(#paint8_linear_2_5071)"/>
<path d="M49.2728 19.4451C50.3856 19.4451 51.2876 18.5431 51.2876 17.4303C51.2876 16.3176 50.3856 15.4155 49.2728 15.4155C48.1601 15.4155 47.2581 16.3176 47.2581 17.4303C47.2581 18.5431 48.1601 19.4451 49.2728 19.4451Z" fill="url(#paint9_linear_2_5071)"/>
<path d="M6.27699 20.552C7.38973 20.552 8.29178 19.65 8.29178 18.5373C8.29178 17.4245 7.38973 16.5225 6.27699 16.5225C5.16426 16.5225 4.26221 17.4245 4.26221 18.5373C4.26221 19.65 5.16426 20.552 6.27699 20.552Z" fill="url(#paint10_linear_2_5071)"/>
<path d="M2.93704 34.1597C2.54361 35.0211 1.95638 35.7752 1.22805 36.3631C0.465459 36.9787 0 37.8884 0 38.8685V38.9127C0 40.6803 1.27713 42.1893 3.02115 42.4799L51.788 50.6156C53.993 50.9826 55.9997 49.2827 55.9997 47.0469V43.0119L2.93704 34.1597Z" fill="url(#paint11_linear_2_5071)"/>
<path d="M15.1642 40.4549C14.2081 40.6945 10.7792 41.6455 8.67944 43.4236L23.1045 45.83L18.8761 41.6016C18.2138 40.9123 17.2051 40.4501 15.7037 40.3986C15.5221 40.3925 15.3405 40.4108 15.1642 40.4549V40.4549Z" fill="url(#paint12_linear_2_5071)"/>
<path d="M15.7044 40.3991C15.5227 40.3929 15.3411 40.4113 15.1649 40.4555C13.7801 40.8026 7.20903 42.641 6.99985 46.3237C6.86952 48.6174 10.6587 49.3265 14.0408 49.5048C17.1293 49.6677 19.7942 48.0213 19.9752 45.844C20.1802 43.3779 19.5687 40.5317 15.7044 40.3991V40.3991Z" fill="url(#paint13_linear_2_5071)"/>
<path d="M15.7043 40.3991C15.5227 40.3929 15.3411 40.4113 15.1649 40.4555C13.7801 40.8026 7.20903 42.641 6.99985 46.3237C6.86952 48.6174 10.6587 49.3266 14.0408 49.5049C17.1293 49.6677 19.5687 40.5317 15.7043 40.3991V40.3991Z" fill="url(#paint14_linear_2_5071)"/>
<path d="M6.47809 46.7861C6.47809 47.8776 2.52515 47.8776 2.52515 46.7861C2.52515 45.6945 3.41006 44.8096 4.50162 44.8096C5.59318 44.8096 6.47809 45.6945 6.47809 46.7861Z" fill="url(#paint15_linear_2_5071)"/>
</g>
<defs>
<linearGradient id="paint0_linear_2_5071" x1="0" y1="28" x2="55.9998" y2="28" gradientUnits="userSpaceOnUse">
<stop stop-color="#FFD945"/>
<stop offset="0.3043" stop-color="#FFCD3E"/>
<stop offset="0.8558" stop-color="#FFAD2B"/>
<stop offset="1" stop-color="#FFA325"/>
</linearGradient>
<linearGradient id="paint1_linear_2_5071" x1="27.7766" y1="9.70906" x2="29.0488" y2="20.6701" gradientUnits="userSpaceOnUse">
<stop stop-color="#FFD945"/>
<stop offset="0.3043" stop-color="#FFCD3E"/>
<stop offset="0.8558" stop-color="#FFAD2B"/>
<stop offset="1" stop-color="#FFA325"/>
</linearGradient>
<linearGradient id="paint2_linear_2_5071" x1="39.8126" y1="40.1612" x2="31.8854" y2="27.6832" gradientUnits="userSpaceOnUse">
<stop stop-color="#FFA936"/>
<stop offset="0.4112" stop-color="#FF8548"/>
<stop offset="0.7781" stop-color="#FF6C54"/>
<stop offset="1" stop-color="#FF6359"/>
</linearGradient>
<linearGradient id="paint3_linear_2_5071" x1="19.6977" y1="19.75" x2="16.9443" y2="6.06414" gradientUnits="userSpaceOnUse">
<stop stop-color="#F82814" stop-opacity="0"/>
<stop offset="1" stop-color="#C0272D"/>
</linearGradient>
<linearGradient id="paint4_linear_2_5071" x1="31.0488" y1="31.0717" x2="25.7602" y2="22.7469" gradientUnits="userSpaceOnUse">
<stop stop-color="#FFA936"/>
<stop offset="0.4112" stop-color="#FF8548"/>
<stop offset="0.7781" stop-color="#FF6C54"/>
<stop offset="1" stop-color="#FF6359"/>
</linearGradient>
<linearGradient id="paint5_linear_2_5071" x1="46.9441" y1="28.4619" x2="41.6554" y2="20.1372" gradientUnits="userSpaceOnUse">
<stop stop-color="#FFA936"/>
<stop offset="0.4112" stop-color="#FF8548"/>
<stop offset="0.7781" stop-color="#FF6C54"/>
<stop offset="1" stop-color="#FF6359"/>
</linearGradient>
<linearGradient id="paint6_linear_2_5071" x1="13.8918" y1="38.4838" x2="6.47802" y2="31.0701" gradientUnits="userSpaceOnUse">
<stop stop-color="#FFD945"/>
<stop offset="0.3043" stop-color="#FFCD3E"/>
<stop offset="0.8558" stop-color="#FFAD2B"/>
<stop offset="1" stop-color="#FFA325"/>
</linearGradient>
<linearGradient id="paint7_linear_2_5071" x1="49.8089" y1="14.5025" x2="42.395" y2="7.08875" gradientUnits="userSpaceOnUse">
<stop stop-color="#FFD945"/>
<stop offset="0.3043" stop-color="#FFCD3E"/>
<stop offset="0.8558" stop-color="#FFAD2B"/>
<stop offset="1" stop-color="#FFA325"/>
</linearGradient>
<linearGradient id="paint8_linear_2_5071" x1="29.7156" y1="13.7866" x2="25.581" y2="9.65202" gradientUnits="userSpaceOnUse">
<stop stop-color="#FFD945"/>
<stop offset="0.3043" stop-color="#FFCD3E"/>
<stop offset="0.8558" stop-color="#FFAD2B"/>
<stop offset="1" stop-color="#FFA325"/>
</linearGradient>
<linearGradient id="paint9_linear_2_5071" x1="51.5046" y1="19.6621" x2="47.3702" y2="15.5275" gradientUnits="userSpaceOnUse">
<stop stop-color="#FFD945"/>
<stop offset="0.3043" stop-color="#FFCD3E"/>
<stop offset="0.8558" stop-color="#FFAD2B"/>
<stop offset="1" stop-color="#FFA325"/>
</linearGradient>
<linearGradient id="paint10_linear_2_5071" x1="8.50875" y1="20.769" x2="4.3742" y2="16.6346" gradientUnits="userSpaceOnUse">
<stop stop-color="#FFD945"/>
<stop offset="0.3043" stop-color="#FFCD3E"/>
<stop offset="0.8558" stop-color="#FFAD2B"/>
<stop offset="1" stop-color="#FFA325"/>
</linearGradient>
<linearGradient id="paint11_linear_2_5071" x1="28.1213" y1="42.1841" x2="25.766" y2="57.6244" gradientUnits="userSpaceOnUse">
<stop stop-color="#F82814" stop-opacity="0"/>
<stop offset="1" stop-color="#C0272D"/>
</linearGradient>
<linearGradient id="paint12_linear_2_5071" x1="20.9346" y1="49.669" x2="8.1732" y2="36.9075" gradientUnits="userSpaceOnUse">
<stop stop-color="#F82814" stop-opacity="0"/>
<stop offset="1" stop-color="#C0272D"/>
</linearGradient>
<linearGradient id="paint13_linear_2_5071" x1="12.9601" y1="43.6489" x2="14.7718" y2="49.2486" gradientUnits="userSpaceOnUse">
<stop stop-color="#FFD945"/>
<stop offset="0.3043" stop-color="#FFCD3E"/>
<stop offset="0.8558" stop-color="#FFAD2B"/>
<stop offset="1" stop-color="#FFA325"/>
</linearGradient>
<linearGradient id="paint14_linear_2_5071" x1="12.0038" y1="44.1141" x2="15.5908" y2="47.2619" gradientUnits="userSpaceOnUse">
<stop stop-color="#FFD945"/>
<stop offset="0.3043" stop-color="#FFCD3E"/>
<stop offset="0.8558" stop-color="#FFAD2B"/>
<stop offset="1" stop-color="#FFA325"/>
</linearGradient>
<linearGradient id="paint15_linear_2_5071" x1="4.10588" y1="46.0962" x2="5.55574" y2="47.3684" gradientUnits="userSpaceOnUse">
<stop stop-color="#FFD945"/>
<stop offset="0.3043" stop-color="#FFCD3E"/>
<stop offset="0.8558" stop-color="#FFAD2B"/>
<stop offset="1" stop-color="#FFA325"/>
</linearGradient>
<clipPath id="clip0_2_5071">
<rect width="56" height="56" fill="white"/>
</clipPath>
</defs>
</svg>
