<svg width="56" height="56" viewBox="0 0 56 56" fill="none" xmlns="http://www.w3.org/2000/svg">
<g clip-path="url(#clip0_2_5091)">
<path d="M36.0553 24.5344L31.4658 19.945L36.0553 15.3555L40.6448 19.945L36.0553 24.5344Z" fill="url(#paint0_linear_2_5091)"/>
<path d="M36.7749 0H35.3367C34.8953 0 34.472 0.175357 34.1599 0.48742L27.275 7.37235C26.963 7.68441 26.7876 8.10781 26.7876 8.54911V9.98733C26.7876 10.4287 26.963 10.852 27.275 11.1642L34.1599 18.0491C34.472 18.3612 34.8954 18.5366 35.3367 18.5366H36.7749C37.2163 18.5366 37.6396 18.3612 37.9518 18.0491L44.8367 11.1642C45.1488 10.852 45.3241 10.4287 45.3241 9.98733V8.54922C45.3241 8.10781 45.1488 7.68452 44.8367 7.37246L37.9517 0.48742C37.6396 0.175357 37.2163 0 36.7749 0V0Z" fill="url(#paint1_linear_2_5091)"/>
<path d="M35.1974 14.3901L30.9334 10.1261C30.4597 9.65244 30.4597 8.88448 30.9334 8.41078L35.1974 4.14677C35.6711 3.67308 36.4391 3.67308 36.9128 4.14677L41.1768 8.41078C41.6505 8.88448 41.6505 9.65244 41.1768 10.1261L36.9128 14.3901C36.4391 14.8637 35.6711 14.8637 35.1974 14.3901V14.3901Z" fill="url(#paint2_linear_2_5091)"/>
<path d="M47.4515 10.6768H46.0133C45.5719 10.6768 45.1486 10.8521 44.8364 11.1642L37.9515 18.0491C37.6395 18.3612 37.4641 18.7846 37.4641 19.226V20.6642C37.4641 21.1056 37.6395 21.5289 37.9515 21.841L44.8364 28.7259C45.1485 29.038 45.5719 29.2133 46.0133 29.2133H47.4515C47.8929 29.2133 48.3162 29.038 48.6283 28.7259L55.5132 21.841C55.8253 21.5289 56.0006 21.1055 56.0006 20.6642V19.226C56.0006 18.7846 55.8253 18.3613 55.5132 18.0491L48.6283 11.1642C48.3162 10.852 47.8929 10.6768 47.4515 10.6768V10.6768Z" fill="url(#paint3_linear_2_5091)"/>
<path d="M45.8744 25.0665L41.6104 20.8024C41.1367 20.3287 41.1367 19.5608 41.6104 19.0871L45.8744 14.823C46.3481 14.3493 47.1161 14.3493 47.5898 14.823L51.8538 19.0871C52.3275 19.5608 52.3275 20.3287 51.8538 20.8024L47.5898 25.0665C47.1162 25.5401 46.3481 25.5401 45.8744 25.0665V25.0665Z" fill="url(#paint4_linear_2_5091)"/>
<path d="M26.0979 10.6768H24.6597C24.2183 10.6768 23.795 10.8521 23.483 11.1642L16.598 18.0491C16.286 18.3612 16.1106 18.7846 16.1106 19.226V20.6642C16.1106 21.1056 16.286 21.5289 16.598 21.841L23.483 28.7259C23.795 29.038 24.2184 29.2133 24.6597 29.2133H26.0979C26.5394 29.2133 26.9626 29.038 27.2747 28.7259L34.1596 21.841C34.4717 21.5289 34.6471 21.1055 34.6471 20.6642V19.226C34.6471 18.7846 34.4717 18.3613 34.1596 18.0491L27.2747 11.1642C26.9626 10.852 26.5394 10.6768 26.0979 10.6768V10.6768Z" fill="url(#paint5_linear_2_5091)"/>
<path d="M24.5209 25.0665L20.2569 20.8024C19.7832 20.3287 19.7832 19.5608 20.2569 19.0871L24.5209 14.823C24.9946 14.3493 25.7626 14.3493 26.2363 14.823L30.5003 19.0871C30.974 19.5608 30.974 20.3287 30.5003 20.8024L26.2363 25.0665C25.7626 25.5401 24.9946 25.5401 24.5209 25.0665V25.0665Z" fill="url(#paint6_linear_2_5091)"/>
<path d="M36.7749 21.3535H35.3367C34.8953 21.3535 34.472 21.5289 34.1599 21.8409L27.275 28.7259C26.963 29.0379 26.7876 29.4613 26.7876 29.9026V31.3409C26.7876 31.7823 26.963 32.2056 27.275 32.5176L34.1599 39.4026C34.472 39.7146 34.8954 39.89 35.3367 39.89H36.7749C37.2163 39.89 37.6396 39.7146 37.9518 39.4026L44.8367 32.5176C45.1488 32.2056 45.3241 31.7822 45.3241 31.3409V29.9026C45.3241 29.4612 45.1488 29.0379 44.8367 28.7259L37.9518 21.8409C37.6396 21.5289 37.2163 21.3535 36.7749 21.3535V21.3535Z" fill="url(#paint7_linear_2_5091)"/>
<path d="M35.1974 35.7437L30.9334 31.4797C30.4597 31.006 30.4597 30.238 30.9334 29.7643L35.1974 25.5003C35.6711 25.0266 36.4391 25.0266 36.9128 25.5003L41.1768 29.7643C41.6505 30.238 41.6505 31.006 41.1768 31.4797L36.9128 35.7437C36.4391 36.2174 35.6711 36.2174 35.1974 35.7437V35.7437Z" fill="url(#paint8_linear_2_5091)"/>
<path d="M44.8365 28.726L37.9516 21.8411C37.6394 21.5289 37.2161 21.3535 36.7747 21.3535H35.3365C34.8951 21.3535 34.4718 21.5289 34.1596 21.8411C34.4717 21.5289 34.647 21.1056 34.647 20.6642V19.226C34.647 18.7846 34.4717 18.3613 34.1596 18.0491L27.2747 11.1642C26.9626 10.852 26.5392 10.6768 26.0979 10.6768H24.6597C24.2183 10.6768 23.795 10.8521 23.4829 11.1642L16.598 18.0491C16.286 18.3613 16.1106 18.7846 16.1106 19.226V20.6642C16.1106 21.1056 16.286 21.5289 16.598 21.8411L23.4829 28.726C23.795 29.0381 24.2184 29.2134 24.6597 29.2134H26.0979C26.5393 29.2134 26.9626 29.0381 27.2747 28.726C26.9626 29.0381 26.7873 29.4615 26.7873 29.9028V31.341C26.7873 31.7824 26.9626 32.2057 27.2747 32.5177L34.1596 39.4027C34.4717 39.7147 34.8951 39.8901 35.3365 39.8901H36.7747C37.2161 39.8901 37.6394 39.7147 37.9516 39.4027L44.8365 32.5177C45.1486 32.2057 45.3239 31.7823 45.3239 31.341V29.9028C45.3239 29.4615 45.1487 29.0382 44.8365 28.726Z" fill="url(#paint9_linear_2_5091)"/>
<path d="M19.0704 55.1213L0.879277 36.9302C-0.292441 35.7584 -0.292441 33.8587 0.879277 32.687L18.535 15.0313C18.7843 14.7819 19.1885 14.7819 19.4379 15.0313L40.9692 36.5626C41.2186 36.812 41.2186 37.2162 40.9692 37.4656L23.3136 55.1213C22.1419 56.293 20.2421 56.293 19.0704 55.1213V55.1213Z" fill="url(#paint10_linear_2_5091)"/>
<path d="M26.8733 22.4658L24.2676 25.0716L38.8155 39.6195L40.9697 37.4653C41.2191 37.2159 41.2191 36.8117 40.9697 36.5624L26.8733 22.4658Z" fill="url(#paint11_linear_2_5091)"/>
<path d="M40.7524 36.346L20.7009 16.2944L23.5452 23.9669C23.9915 25.1709 25.14 25.9699 26.424 25.9699C27.1223 25.9699 27.6883 26.536 27.6883 27.2342C27.6883 27.9325 28.2543 28.4985 28.9526 28.4985H30.3908C30.7261 28.4985 31.0476 28.6317 31.2848 28.8688L33.0588 30.6428C33.6399 31.2238 33.9662 32.0118 33.9662 32.8336C33.9662 34.7734 35.5387 36.3459 37.4785 36.3459H40.7524V36.346Z" fill="url(#paint12_linear_2_5091)"/>
<path d="M6.16897 27.397L0.879277 32.6868C-0.292441 33.8585 -0.292441 35.7582 0.879277 36.9299L19.0704 55.121C20.2421 56.2927 22.1418 56.2927 23.3135 55.121L28.6032 49.8313L6.16897 27.397Z" fill="url(#paint13_linear_2_5091)"/>
<path d="M25.7931 52.6422L37.638 40.7972L26.4209 29.5801L14.5759 41.4251L25.7931 52.6422Z" fill="url(#paint14_linear_2_5091)"/>
<path d="M20.4986 43.8779C25.1244 43.8779 28.8743 40.128 28.8743 35.5022C28.8743 30.8764 25.1244 27.1265 20.4986 27.1265C15.8728 27.1265 12.1228 30.8764 12.1228 35.5022C12.1228 40.128 15.8728 43.8779 20.4986 43.8779Z" fill="url(#paint15_linear_2_5091)"/>
<path d="M12.1245 35.6382C12.1583 37.7362 12.9752 39.8239 14.5761 41.4248C17.8471 44.6958 23.1503 44.6958 26.4211 41.4248C28.022 39.8239 28.8389 37.7362 28.8727 35.6382H12.1245Z" fill="url(#paint16_linear_2_5091)"/>
</g>
<defs>
<linearGradient id="paint0_linear_2_5091" x1="36.0564" y1="21.3077" x2="36.0564" y2="18.8946" gradientUnits="userSpaceOnUse">
<stop stop-color="#C5715A"/>
<stop offset="1" stop-color="#883F2E"/>
</linearGradient>
<linearGradient id="paint1_linear_2_5091" x1="36.0569" y1="-0.306997" x2="36.0568" y2="16.972" gradientUnits="userSpaceOnUse">
<stop stop-color="#C5715A"/>
<stop offset="1" stop-color="#883F2E"/>
</linearGradient>
<linearGradient id="paint2_linear_2_5091" x1="36.0561" y1="17.1839" x2="36.0562" y2="1.83344" gradientUnits="userSpaceOnUse">
<stop stop-color="#C5715A"/>
<stop offset="1" stop-color="#883F2E"/>
</linearGradient>
<linearGradient id="paint3_linear_2_5091" x1="46.7321" y1="10.3682" x2="46.732" y2="27.6472" gradientUnits="userSpaceOnUse">
<stop stop-color="#C5715A"/>
<stop offset="1" stop-color="#883F2E"/>
</linearGradient>
<linearGradient id="paint4_linear_2_5091" x1="46.7317" y1="27.8587" x2="46.7318" y2="12.5083" gradientUnits="userSpaceOnUse">
<stop stop-color="#C5715A"/>
<stop offset="1" stop-color="#883F2E"/>
</linearGradient>
<linearGradient id="paint5_linear_2_5091" x1="25.3815" y1="10.3682" x2="25.3814" y2="27.6472" gradientUnits="userSpaceOnUse">
<stop stop-color="#C5715A"/>
<stop offset="1" stop-color="#883F2E"/>
</linearGradient>
<linearGradient id="paint6_linear_2_5091" x1="25.3811" y1="27.8587" x2="25.3812" y2="12.5083" gradientUnits="userSpaceOnUse">
<stop stop-color="#C5715A"/>
<stop offset="1" stop-color="#883F2E"/>
</linearGradient>
<linearGradient id="paint7_linear_2_5091" x1="36.0569" y1="21.0435" x2="36.0568" y2="38.3225" gradientUnits="userSpaceOnUse">
<stop stop-color="#C5715A"/>
<stop offset="1" stop-color="#883F2E"/>
</linearGradient>
<linearGradient id="paint8_linear_2_5091" x1="36.0561" y1="38.5344" x2="36.0562" y2="23.184" gradientUnits="userSpaceOnUse">
<stop stop-color="#C5715A"/>
<stop offset="1" stop-color="#883F2E"/>
</linearGradient>
<linearGradient id="paint9_linear_2_5091" x1="35.1105" y1="20.8904" x2="29.2933" y2="26.7076" gradientUnits="userSpaceOnUse">
<stop stop-color="#883F2E" stop-opacity="0"/>
<stop offset="1" stop-color="#42210B"/>
</linearGradient>
<linearGradient id="paint10_linear_2_5091" x1="12.3346" y1="28.1566" x2="44.2088" y2="60.0308" gradientUnits="userSpaceOnUse">
<stop stop-color="#FD4755"/>
<stop offset="1" stop-color="#D2024E"/>
</linearGradient>
<linearGradient id="paint11_linear_2_5091" x1="33.1844" y1="42.7177" x2="32.3609" y2="22.3489" gradientUnits="userSpaceOnUse">
<stop stop-color="#C00148" stop-opacity="0"/>
<stop offset="0.3112" stop-color="#AA0E3F" stop-opacity="0.311"/>
<stop offset="0.9578" stop-color="#713028" stop-opacity="0.958"/>
<stop offset="1" stop-color="#6D3326"/>
</linearGradient>
<linearGradient id="paint12_linear_2_5091" x1="36.5758" y1="20.4711" x2="26.5408" y2="30.506" gradientUnits="userSpaceOnUse">
<stop stop-color="#FE9738"/>
<stop offset="1" stop-color="#FD4755"/>
</linearGradient>
<linearGradient id="paint13_linear_2_5091" x1="15.3731" y1="40.6272" x2="9.55347" y2="46.4468" gradientUnits="userSpaceOnUse">
<stop stop-color="#C00148" stop-opacity="0"/>
<stop offset="0.3112" stop-color="#AA0E3F" stop-opacity="0.311"/>
<stop offset="0.9578" stop-color="#713028" stop-opacity="0.958"/>
<stop offset="1" stop-color="#6D3326"/>
</linearGradient>
<linearGradient id="paint14_linear_2_5091" x1="31.2958" y1="46.2999" x2="14.6024" y2="29.6066" gradientUnits="userSpaceOnUse">
<stop stop-color="#FE7701" stop-opacity="0"/>
<stop offset="0.398" stop-color="#E05915" stop-opacity="0.398"/>
<stop offset="1" stop-color="#AC2538"/>
</linearGradient>
<linearGradient id="paint15_linear_2_5091" x1="15.4389" y1="30.4425" x2="27.4259" y2="42.4295" gradientUnits="userSpaceOnUse">
<stop stop-color="#FEE97D"/>
<stop offset="1" stop-color="#FE860A"/>
</linearGradient>
<linearGradient id="paint16_linear_2_5091" x1="20.4986" y1="37.0644" x2="20.4986" y2="45.0157" gradientUnits="userSpaceOnUse">
<stop stop-color="#FE7701" stop-opacity="0"/>
<stop offset="0.398" stop-color="#E05915" stop-opacity="0.398"/>
<stop offset="1" stop-color="#AC2538"/>
</linearGradient>
<clipPath id="clip0_2_5091">
<rect width="56" height="56" fill="white"/>
</clipPath>
</defs>
</svg>
