<svg width="22" height="22" viewBox="0 0 22 22" fill="none" xmlns="http://www.w3.org/2000/svg">
<path fill-rule="evenodd" clip-rule="evenodd" d="M10.7484 0.000305176C13.6214 0.000305176 16.3214 1.11731 18.3494 3.14631C22.5414 7.33831 22.5414 14.1583 18.3494 18.3503C16.2944 20.4063 13.5274 21.4943 10.7244 21.4943C9.19644 21.4943 7.65844 21.1713 6.21944 20.5053C5.79544 20.3353 5.39844 20.1753 5.11344 20.1753C4.78544 20.1773 4.34444 20.3293 3.91844 20.4763C3.04444 20.7763 1.95644 21.1503 1.15144 20.3483C0.349437 19.5453 0.719437 18.4603 1.01744 17.5873C1.16444 17.1573 1.31544 16.7133 1.31544 16.3773C1.31544 16.1013 1.18244 15.7493 0.978437 15.2423C-0.894563 11.1973 -0.0285628 6.32231 3.14844 3.14731C5.17644 1.11831 7.87544 0.000305176 10.7484 0.000305176ZM10.7494 1.50031C8.27644 1.50031 5.95344 2.46231 4.20844 4.20831C1.47444 6.94031 0.730437 11.1353 2.35544 14.6483C2.58944 15.2273 2.81544 15.7913 2.81544 16.3773C2.81544 16.9623 2.61444 17.5513 2.43744 18.0713C2.29144 18.4993 2.07044 19.1453 2.21244 19.2873C2.35144 19.4313 3.00144 19.2043 3.43044 19.0573C3.94544 18.8813 4.52944 18.6793 5.10844 18.6753C5.68844 18.6753 6.23544 18.8953 6.81444 19.1283C10.3614 20.7683 14.5564 20.0223 17.2894 17.2903C20.8954 13.6823 20.8954 7.81331 17.2894 4.20731C15.5434 2.46131 13.2214 1.50031 10.7494 1.50031ZM14.6963 10.163C15.2483 10.163 15.6963 10.61 15.6963 11.163C15.6963 11.716 15.2483 12.163 14.6963 12.163C14.1443 12.163 13.6923 11.716 13.6923 11.163C13.6923 10.61 14.1353 10.163 14.6873 10.163H14.6963ZM10.6875 10.163C11.2395 10.163 11.6875 10.61 11.6875 11.163C11.6875 11.716 11.2395 12.163 10.6875 12.163C10.1355 12.163 9.68354 11.716 9.68354 11.163C9.68354 10.61 10.1255 10.163 10.6785 10.163H10.6875ZM6.67834 10.163C7.23034 10.163 7.67834 10.61 7.67834 11.163C7.67834 11.716 7.23034 12.163 6.67834 12.163C6.12634 12.163 5.67434 11.716 5.67434 11.163C5.67434 10.61 6.11734 10.163 6.66934 10.163H6.67834Z" fill="url(#paint0_linear_2_153)"/>
<defs>
<linearGradient id="paint0_linear_2_153" x1="0" y1="0.000305176" x2="21.494" y2="21.4937" gradientUnits="userSpaceOnUse">
<stop stop-color="#FC5A44"/>
<stop offset="1" stop-color="#C41432"/>
</linearGradient>
</defs>
</svg>
