<svg width="56" height="56" viewBox="0 0 56 56" fill="none" xmlns="http://www.w3.org/2000/svg">
<g clip-path="url(#clip0_2_5119)">
<path d="M55.9996 28C55.9996 43.4637 43.4637 55.9996 28 55.9996C12.4905 55.9996 0 43.5095 0 28C0 12.5363 12.5363 0 28 0C28.5887 0 29.1732 0.0179443 29.753 0.0538331C31.2988 0.149536 32.5139 1.38983 32.6147 2.93518C32.616 2.95654 32.6172 2.97748 32.619 2.99884C32.8356 5.84686 35.2123 8.10315 38.0676 8.18219C38.9341 8.20612 39.7578 8.03436 40.4978 7.70752C41.21 7.39264 42.0461 7.57123 42.5695 8.14716C42.9951 8.61542 43.5201 8.99139 44.1115 9.24219C44.813 9.53998 45.2659 10.215 45.2625 10.9772V10.9969C45.2625 13.4326 47.2363 15.4065 49.6703 15.4065C50.0925 15.4065 50.5005 15.3471 50.8871 15.2365C51.9373 14.9357 53.052 15.4347 53.504 16.4289C55.1066 19.9558 55.9996 23.8741 55.9996 28V28Z" fill="url(#paint0_linear_2_5119)"/>
<path d="M14.9006 20.5693C13.9354 19.4969 12.537 18.8228 10.9806 18.8228C8.06848 18.8228 5.70752 21.1833 5.70752 24.0958C5.70752 25.6519 6.38214 27.0502 7.4541 28.0154L27.1155 47.6768C28.0807 48.7488 29.4791 49.4234 31.0351 49.4234C33.9476 49.4234 36.3082 47.0624 36.3082 44.1503C36.3082 42.5939 35.634 41.1955 34.5616 40.2303L14.9006 20.5693Z" fill="url(#paint1_linear_2_5119)"/>
<path d="M16.2541 24.0958C16.2541 27.0079 13.8931 29.3689 10.9806 29.3689C8.06848 29.3689 5.70752 27.0079 5.70752 24.0958C5.70752 21.1833 8.06848 18.8228 10.9806 18.8228C13.8931 18.8228 16.2541 21.1833 16.2541 24.0958Z" fill="url(#paint2_linear_2_5119)"/>
<path d="M24.949 5.32977C24.3 4.58936 23.3481 4.12109 22.2864 4.12109C20.3318 4.12109 18.7476 5.70575 18.7476 7.6604C18.7476 8.72211 19.2154 9.67401 19.9562 10.3226L36.5599 26.9262C37.2084 27.6666 38.1603 28.1349 39.222 28.1349C41.1767 28.1349 42.7614 26.5507 42.7614 24.596C42.7614 23.5343 42.2931 22.5824 41.5522 21.9334L24.949 5.32977Z" fill="url(#paint3_linear_2_5119)"/>
<path d="M25.8257 7.6604C25.8257 9.61462 24.2411 11.1993 22.2864 11.1993C20.3318 11.1993 18.7476 9.61462 18.7476 7.6604C18.7476 5.70575 20.3318 4.12109 22.2864 4.12109C24.2411 4.12109 25.8257 5.70575 25.8257 7.6604Z" fill="url(#paint4_linear_2_5119)"/>
<path d="M26.1876 27.0759C25.539 26.3354 24.5871 25.8672 23.5254 25.8672C21.5707 25.8672 19.9861 27.4514 19.9861 29.4061C19.9861 30.4678 20.4543 31.4197 21.1948 32.0687L37.7984 48.6723C38.4474 49.4127 39.3993 49.881 40.461 49.881C42.4156 49.881 43.9999 48.2963 43.9999 46.3417C43.9999 45.28 43.5316 44.3281 42.7912 43.6795L26.1876 27.0759Z" fill="url(#paint5_linear_2_5119)"/>
<path d="M27.0648 29.4061C27.0648 31.3607 25.4801 32.9454 23.5255 32.9454C21.5708 32.9454 19.9866 31.3607 19.9866 29.4061C19.9866 27.4514 21.5708 25.8672 23.5255 25.8672C25.4801 25.8672 27.0648 27.4514 27.0648 29.4061Z" fill="url(#paint6_linear_2_5119)"/>
<path d="M21.1517 40.7013C20.26 39.7494 18.9924 39.1538 17.5854 39.1538C14.887 39.1538 12.6995 41.3413 12.6995 44.0398C12.6995 45.4467 13.295 46.7144 14.2474 47.606L21.9933 55.352C23.9288 55.775 25.9377 56.0001 28 56.0001C30.0922 56.0001 32.1302 55.7686 34.0917 55.3336C34.0041 54.063 33.4316 52.9261 32.557 52.1071L21.1517 40.7013Z" fill="url(#paint7_linear_2_5119)"/>
<path d="M22.4714 44.0398C22.4714 46.7379 20.2839 48.9254 17.5854 48.9254C14.887 48.9254 12.6995 46.7379 12.6995 44.0398C12.6995 41.3413 14.887 39.1538 17.5854 39.1538C20.2839 39.1538 22.4714 41.3413 22.4714 44.0398V44.0398Z" fill="url(#paint8_linear_2_5119)"/>
<path d="M42.4327 13.0284C41.541 12.076 40.2734 11.4805 38.8665 11.4805C36.168 11.4805 33.9805 13.668 33.9805 16.3665C33.9805 17.7734 34.576 19.041 35.528 19.9327L46.9337 31.338C47.825 32.2899 49.0926 32.8859 50.4999 32.8859C53.1984 32.8859 55.3859 30.6984 55.3859 27.9999C55.3859 26.5926 54.7899 25.325 53.838 24.4337L42.4327 13.0284Z" fill="url(#paint9_linear_2_5119)"/>
<path d="M43.7524 16.366C43.7524 19.0645 41.5649 21.252 38.8665 21.252C36.168 21.252 33.9805 19.0645 33.9805 16.366C33.9805 13.668 36.168 11.4805 38.8665 11.4805C41.5649 11.4805 43.7524 13.668 43.7524 16.366Z" fill="url(#paint10_linear_2_5119)"/>
<path d="M39.1404 43.1838C38.4915 42.4434 37.54 41.9751 36.4778 41.9751C34.5236 41.9751 32.939 43.5593 32.939 45.514C32.939 46.5757 33.4072 47.5276 34.1476 48.1766L39.4609 53.4898C39.4745 53.5052 39.4895 53.5197 39.5036 53.5351C41.7321 52.5294 43.8047 51.2395 45.6773 49.7134L39.1404 43.1838Z" fill="url(#paint11_linear_2_5119)"/>
<path d="M40.0172 45.514C40.0172 47.4686 38.4325 49.0533 36.4778 49.0533C34.5232 49.0533 32.939 47.4686 32.939 45.514C32.939 43.5593 34.5232 41.9751 36.4778 41.9751C38.4325 41.9751 40.0172 43.5593 40.0172 45.514V45.514Z" fill="url(#paint12_linear_2_5119)"/>
<path d="M55.0824 35.1312L47.4428 27.4916C46.3854 26.3624 44.8823 25.6558 43.2131 25.6558C40.0121 25.6558 37.4175 28.2509 37.4175 31.4518C37.4175 33.1206 38.1241 34.6241 39.2534 35.6815L49.5034 45.932C52.0938 42.8289 54.0254 39.1572 55.0824 35.1312V35.1312Z" fill="url(#paint13_linear_2_5119)"/>
<path d="M49.0087 31.4518C49.0087 34.6527 46.414 37.2474 43.2131 37.2474C40.0121 37.2474 37.4175 34.6527 37.4175 31.4518C37.4175 28.2509 40.0121 25.6558 43.2131 25.6558C46.414 25.6558 49.0087 28.2509 49.0087 31.4518V31.4518Z" fill="url(#paint14_linear_2_5119)"/>
</g>
<defs>
<linearGradient id="paint0_linear_2_5119" x1="12.8136" y1="13.9939" x2="48.1012" y2="49.2815" gradientUnits="userSpaceOnUse">
<stop stop-color="#FFB92D"/>
<stop offset="1" stop-color="#F59500"/>
</linearGradient>
<linearGradient id="paint1_linear_2_5119" x1="21.8131" y1="34.9282" x2="3.17717" y2="16.2922" gradientUnits="userSpaceOnUse">
<stop stop-color="#BE3F45" stop-opacity="0"/>
<stop offset="1" stop-color="#BE3F45"/>
</linearGradient>
<linearGradient id="paint2_linear_2_5119" x1="8.23186" y1="21.3469" x2="14.8776" y2="27.9926" gradientUnits="userSpaceOnUse">
<stop stop-color="#8C6239"/>
<stop offset="1" stop-color="#42210B"/>
</linearGradient>
<linearGradient id="paint3_linear_2_5119" x1="30.8957" y1="16.2693" x2="15.2057" y2="0.5794" gradientUnits="userSpaceOnUse">
<stop stop-color="#BE3F45" stop-opacity="0"/>
<stop offset="1" stop-color="#BE3F45"/>
</linearGradient>
<linearGradient id="paint4_linear_2_5119" x1="20.4416" y1="5.81529" x2="24.9019" y2="10.2755" gradientUnits="userSpaceOnUse">
<stop stop-color="#8C6239"/>
<stop offset="1" stop-color="#42210B"/>
</linearGradient>
<linearGradient id="paint5_linear_2_5119" x1="31.2287" y1="37.1094" x2="15.5387" y2="21.4195" gradientUnits="userSpaceOnUse">
<stop stop-color="#BE3F45" stop-opacity="0"/>
<stop offset="1" stop-color="#BE3F45"/>
</linearGradient>
<linearGradient id="paint6_linear_2_5119" x1="21.6806" y1="27.5612" x2="26.1408" y2="32.0215" gradientUnits="userSpaceOnUse">
<stop stop-color="#8C6239"/>
<stop offset="1" stop-color="#42210B"/>
</linearGradient>
<linearGradient id="paint7_linear_2_5119" x1="25.6542" y1="52.1085" x2="12.908" y2="39.3623" gradientUnits="userSpaceOnUse">
<stop stop-color="#BE3F45" stop-opacity="0"/>
<stop offset="1" stop-color="#BE3F45"/>
</linearGradient>
<linearGradient id="paint8_linear_2_5119" x1="15.0383" y1="41.4926" x2="21.196" y2="47.6502" gradientUnits="userSpaceOnUse">
<stop stop-color="#8C6239"/>
<stop offset="1" stop-color="#42210B"/>
</linearGradient>
<linearGradient id="paint9_linear_2_5119" x1="46.2633" y1="23.7632" x2="32.6444" y2="10.1443" gradientUnits="userSpaceOnUse">
<stop stop-color="#BE3F45" stop-opacity="0"/>
<stop offset="1" stop-color="#BE3F45"/>
</linearGradient>
<linearGradient id="paint10_linear_2_5119" x1="36.3193" y1="13.8192" x2="42.477" y2="19.9769" gradientUnits="userSpaceOnUse">
<stop stop-color="#8C6239"/>
<stop offset="1" stop-color="#42210B"/>
</linearGradient>
<linearGradient id="paint11_linear_2_5119" x1="41.6675" y1="50.7037" x2="34.0607" y2="43.0968" gradientUnits="userSpaceOnUse">
<stop stop-color="#BE3F45" stop-opacity="0"/>
<stop offset="1" stop-color="#BE3F45"/>
</linearGradient>
<linearGradient id="paint12_linear_2_5119" x1="34.6331" y1="43.6692" x2="39.0933" y2="48.1294" gradientUnits="userSpaceOnUse">
<stop stop-color="#8C6239"/>
<stop offset="1" stop-color="#42210B"/>
</linearGradient>
<linearGradient id="paint13_linear_2_5119" x1="50.8278" y1="39.0663" x2="40.1678" y2="28.4063" gradientUnits="userSpaceOnUse">
<stop stop-color="#BE3F45" stop-opacity="0"/>
<stop offset="1" stop-color="#BE3F45"/>
</linearGradient>
<linearGradient id="paint14_linear_2_5119" x1="40.1919" y1="28.4304" x2="47.4961" y2="35.7346" gradientUnits="userSpaceOnUse">
<stop stop-color="#8C6239"/>
<stop offset="1" stop-color="#42210B"/>
</linearGradient>
<clipPath id="clip0_2_5119">
<rect width="56" height="56" fill="white"/>
</clipPath>
</defs>
</svg>
