<svg width="56" height="56" viewBox="0 0 56 56" fill="none" xmlns="http://www.w3.org/2000/svg">
<g clip-path="url(#clip0_2_5135)">
<path d="M38.9907 40.768C41.8108 37.9479 45.6358 36.3635 49.624 36.3635C50.1752 36.3635 50.4513 35.697 50.0615 35.3072C46.1662 31.4119 39.8509 31.4119 35.9556 35.3072L34.7427 36.5201L38.9907 40.768Z" fill="url(#paint0_linear_2_5135)"/>
<path d="M31.2497 48.5094L44.746 35.0131C47.5662 32.193 51.3911 30.6086 55.3794 30.6086C55.9308 30.6086 56.2068 29.9421 55.817 29.5523C51.9217 25.657 45.6063 25.657 41.711 29.5523L24.2688 46.9944L31.2497 48.5094Z" fill="url(#paint1_linear_2_5135)"/>
<path d="M9.47374 54.3868C7.18685 56.6737 4.98935 55.1336 2.68412 52.8284C0.378901 50.5231 -1.16121 48.3258 1.12568 46.0388C3.41267 43.7518 9.21153 41.6904 11.5169 43.9956C13.8221 46.3009 11.7606 52.0998 9.47374 54.3868Z" fill="url(#paint2_linear_2_5135)"/>
<path d="M45.4443 30.2766C37.4464 38.2745 28.9435 37.7301 23.3634 32.1499C17.7832 26.5698 17.2388 18.0668 25.2367 10.069C33.2345 2.07113 45.7099 1.57932 49.8219 5.69137C53.934 9.80342 53.4422 22.2787 45.4443 30.2766V30.2766Z" fill="url(#paint3_linear_2_5135)"/>
<path d="M23.3379 49.866L21.8041 48.3321C20.6564 47.1845 20.7117 45.3619 21.9213 44.4642L23.6583 43.175C24.9334 42.2287 26.785 42.4249 27.9947 43.6345L28.0356 43.6755C29.2453 44.8852 29.4416 46.7368 28.4952 48.0118L27.206 49.7488C26.3081 50.9584 24.4856 51.0137 23.3379 49.866V49.866Z" fill="url(#paint4_linear_2_5135)"/>
<path d="M26.9314 46.2727L25.3976 44.7389C24.2499 43.5912 24.3052 41.7687 25.5148 40.8709L27.2518 39.5817C28.5269 38.6354 30.3785 38.8316 31.5882 40.0412L31.6291 40.0821C32.8389 41.2918 33.0351 43.1434 32.0887 44.4185L30.7995 46.1555C29.9016 47.3651 28.0791 47.4204 26.9314 46.2727V46.2727Z" fill="url(#paint5_linear_2_5135)"/>
<path d="M30.491 42.7132L28.9571 41.1793C27.8095 40.0316 27.8648 38.2091 29.0744 37.3114L30.8114 36.0221C32.0865 35.0759 33.9381 35.2721 35.1478 36.4817L35.1888 36.5225C36.3985 37.7322 36.5947 39.5839 35.6483 40.8589L34.3591 42.5959C33.4612 43.8055 31.6386 43.8607 30.491 42.7132V42.7132Z" fill="url(#paint6_linear_2_5135)"/>
<path d="M34.0835 39.12L32.5497 37.5861C31.402 36.4385 31.4573 34.616 32.6669 33.7181L34.4039 32.4289C35.679 31.4826 37.5306 31.6788 38.7403 32.8884L38.7813 32.9294C39.991 34.1391 40.1872 35.9907 39.2408 37.2657L37.9516 39.0027C37.0537 40.2124 35.2312 40.2677 34.0835 39.12V39.12Z" fill="url(#paint7_linear_2_5135)"/>
<path d="M37.5796 35.6239L36.0458 34.0901C34.8981 32.9424 34.9534 31.1199 36.163 30.222L37.9 28.9328C39.1751 27.9865 41.0267 28.1827 42.2364 29.3923L42.2774 29.4333C43.4871 30.643 43.6833 32.4946 42.7369 33.7697L41.4477 35.5066C40.5498 36.7164 38.7273 36.7716 37.5796 35.6239V35.6239Z" fill="url(#paint8_linear_2_5135)"/>
<path d="M41.7903 31.4139L40.2565 29.88C39.1088 28.7323 39.1641 26.9098 40.3737 26.012L42.1107 24.7228C43.3858 23.7765 45.2374 23.9728 46.4471 25.1824L46.4881 25.2232C47.6978 26.4329 47.894 28.2846 46.9476 29.5596L45.6584 31.2966C44.7604 32.5062 42.9379 32.5615 41.7903 31.4139V31.4139Z" fill="url(#paint9_linear_2_5135)"/>
<path d="M46.0008 27.2034L44.4669 25.6695C43.3192 24.5219 43.3746 22.6993 44.5842 21.8016L46.3212 20.5124C47.5962 19.5661 49.4478 19.7623 50.6576 20.9719L50.6985 21.0128C51.9082 22.2225 52.1044 24.0741 51.158 25.3491L49.8688 27.0861C48.971 28.2958 47.1484 28.351 46.0008 27.2034V27.2034Z" fill="url(#paint10_linear_2_5135)"/>
<path d="M49.2708 22.0535L47.7369 20.5196C46.5893 19.372 46.6446 17.5494 47.8542 16.6517L49.5912 15.3625C50.8662 14.4162 52.7179 14.6124 53.9276 15.822L53.9685 15.8628C55.1782 17.0726 55.3745 18.9242 54.4281 20.1992L53.1389 21.9362C52.241 23.1459 50.4185 23.2012 49.2708 22.0535V22.0535Z" fill="url(#paint11_linear_2_5135)"/>
<path d="M23.3382 49.866C23.4264 49.9542 23.5191 50.0345 23.6146 50.1086L55.0055 18.7178C55.1169 17.7188 54.7594 16.6537 53.9687 15.863L53.9277 15.8221C52.718 14.6124 50.8664 14.4162 49.5914 15.3626L47.8544 16.6518C46.8077 17.4286 46.626 18.8975 47.3393 20.0227C46.9775 20.1195 46.632 20.2818 46.3211 20.5126L44.5841 21.8018C43.8394 22.3544 43.5329 23.2576 43.6746 24.1379C43.1162 24.1856 42.5753 24.3781 42.111 24.7227L40.374 26.0119C39.6293 26.5646 39.3228 27.4677 39.4644 28.348C38.906 28.3957 38.3651 28.5882 37.9008 28.9328L36.1638 30.222C35.5768 30.6577 35.2625 31.3111 35.2247 31.9995C34.9351 32.0983 34.6584 32.2406 34.4048 32.4288L32.6678 33.718C32.062 34.1677 31.7458 34.8492 31.7252 35.5616C31.4013 35.6606 31.0925 35.8134 30.8117 36.0219L29.0747 37.3112C28.4754 37.756 28.1599 38.4276 28.1331 39.1318C27.8212 39.231 27.5234 39.3802 27.252 39.5816L25.515 40.8708C24.9092 41.3204 24.5931 42.002 24.5723 42.7145C24.2485 42.8134 23.9397 42.9663 23.6589 43.1748L21.9219 44.464C20.7122 45.3619 20.6569 47.1844 21.8046 48.3321L23.3382 49.866Z" fill="url(#paint12_linear_2_5135)"/>
<path d="M7.18049 33.7089L5.64663 32.175C4.49896 31.0273 4.55419 29.2048 5.7639 28.307L7.50089 27.0177C8.77594 26.0715 10.6276 26.2677 11.8372 27.4773L11.8781 27.5182C13.0878 28.7279 13.284 30.5796 12.3376 31.8546L11.0484 33.5916C10.1507 34.8012 8.32816 34.8564 7.18049 33.7089V33.7089Z" fill="url(#paint13_linear_2_5135)"/>
<path d="M10.7739 30.1151L9.2401 28.5813C8.09243 27.4336 8.14777 25.6111 9.35737 24.7132L11.0944 23.424C12.3694 22.4777 14.221 22.6739 15.4307 23.8835L15.4717 23.9245C16.6814 25.1342 16.8776 26.9858 15.9312 28.2609L14.642 29.9978C13.7441 31.2074 11.9216 31.2628 10.7739 30.1151Z" fill="url(#paint14_linear_2_5135)"/>
<path d="M14.3333 26.5555L12.7994 25.0217C11.6518 23.874 11.7071 22.0515 12.9167 21.1536L14.6537 19.8644C15.9287 18.9181 17.7804 19.1144 18.9901 20.324L19.031 20.3649C20.2407 21.5745 20.4369 23.4262 19.4905 24.7013L18.2013 26.4383C17.3035 27.6479 15.4809 27.7032 14.3333 26.5555V26.5555Z" fill="url(#paint15_linear_2_5135)"/>
<path d="M17.927 22.9623L16.3932 21.4285C15.2455 20.2808 15.3008 18.4583 16.5104 17.5604L18.2474 16.2712C19.5225 15.3248 21.3741 15.5211 22.5838 16.7307L22.6248 16.7717C23.8344 17.9813 24.0307 19.8329 23.0843 21.1081L21.7951 22.8451C20.8972 24.0548 19.0747 24.11 17.927 22.9623V22.9623Z" fill="url(#paint16_linear_2_5135)"/>
<path d="M21.4231 19.4663L19.8893 17.9324C18.7416 16.7847 18.7969 14.9622 20.0065 14.0643L21.7435 12.7751C23.0186 11.8287 24.8702 12.025 26.0799 13.2346L26.1209 13.2756C27.3305 14.4852 27.5268 16.3368 26.5804 17.6119L25.2912 19.3489C24.3933 20.5586 22.5708 20.6138 21.4231 19.4663V19.4663Z" fill="url(#paint17_linear_2_5135)"/>
<path d="M25.6324 15.2558L24.0985 13.722C22.9508 12.5743 23.0062 10.7518 24.2158 9.85391L25.9528 8.5647C27.2278 7.6183 29.0794 7.81452 30.2891 9.02423L30.3301 9.06519C31.5398 10.2749 31.736 12.1265 30.7896 13.4016L29.5004 15.1386C28.6024 16.3483 26.78 16.4035 25.6324 15.2558Z" fill="url(#paint18_linear_2_5135)"/>
<path d="M29.8433 11.0462L28.3095 9.51239C27.1618 8.36472 27.217 6.54219 28.4267 5.64444L30.1637 4.35523C31.4388 3.40883 33.2904 3.60505 34.5001 4.81476L34.541 4.85572C35.7507 6.06532 35.947 7.91694 35.0006 9.19209L33.7114 10.9291C32.8135 12.1386 30.991 12.1938 29.8433 11.0462V11.0462Z" fill="url(#paint19_linear_2_5135)"/>
<path d="M34.9932 7.77576L33.4594 6.24191C32.3117 5.09424 32.3669 3.27172 33.5767 2.37385L35.3136 1.08464C36.5887 0.138351 38.4403 0.334571 39.65 1.54417L39.691 1.58513C40.9007 2.79484 41.0969 4.64646 40.1505 5.9215L38.8613 7.65849C37.9635 8.86809 36.1409 8.92343 34.9932 7.77576V7.77576Z" fill="url(#paint20_linear_2_5135)"/>
<path d="M10.0037 39.2898L8.46988 37.756C7.32221 36.6083 7.37744 34.7858 8.58715 33.888L10.3241 32.5988C11.5992 31.6525 13.4508 31.8487 14.6605 33.0583L14.7015 33.0992C15.9112 34.3089 16.1074 36.1605 15.161 37.4356L13.8718 39.1725C12.9739 40.3823 11.1514 40.4375 10.0037 39.2898V39.2898Z" fill="url(#paint21_linear_2_5135)"/>
<path d="M13.5966 35.6966L12.0626 34.1627C10.915 33.015 10.9702 31.1925 12.1799 30.2947L13.9169 29.0055C15.1919 28.0593 17.0436 28.2555 18.2533 29.4651L18.2942 29.5059C19.5039 30.7156 19.7002 32.5672 18.7538 33.8423L17.4646 35.5793C16.5667 36.789 14.7442 36.8442 13.5966 35.6966V35.6966Z" fill="url(#paint22_linear_2_5135)"/>
<path d="M17.1568 32.137L15.623 30.6032C14.4753 29.4555 14.5305 27.633 15.7402 26.7352L17.4772 25.446C18.7522 24.4996 20.6039 24.6959 21.8136 25.9055L21.8545 25.9464C23.0642 27.1561 23.2605 29.0077 22.3141 30.2828L21.0249 32.0197C20.1269 33.2293 18.3044 33.2846 17.1568 32.137V32.137Z" fill="url(#paint23_linear_2_5135)"/>
<path d="M20.7493 28.5438L19.2155 27.01C18.0678 25.8623 18.123 24.0398 19.3328 23.1419L21.0697 21.8527C22.3448 20.9064 24.1964 21.1026 25.4061 22.3122L25.4471 22.3532C26.6568 23.5629 26.853 25.4145 25.9066 26.6895L24.6174 28.4265C23.7195 29.6362 21.897 29.6915 20.7493 28.5438V28.5438Z" fill="url(#paint24_linear_2_5135)"/>
<path d="M24.2454 25.0478L22.7116 23.5139C21.5639 22.3662 21.6191 20.5437 22.8288 19.6458L24.5658 18.3566C25.8409 17.4103 27.6925 17.6065 28.9022 18.8161L28.9431 18.8571C30.1528 20.0668 30.349 21.9184 29.4026 23.1935L28.1134 24.9305C27.2156 26.1402 25.3931 26.1954 24.2454 25.0478V25.0478Z" fill="url(#paint25_linear_2_5135)"/>
<path d="M28.4556 20.8373L26.9218 19.3034C25.7741 18.1558 25.8293 16.3332 27.0391 15.4354L28.776 14.1462C30.0511 13.1999 31.9027 13.3961 33.1124 14.6057L33.1534 14.6467C34.3631 15.8564 34.5593 17.708 33.6129 18.983L32.3237 20.72C31.4258 21.9296 29.6033 21.9849 28.4556 20.8373V20.8373Z" fill="url(#paint26_linear_2_5135)"/>
<path d="M32.6666 16.6273L31.1327 15.0935C29.985 13.9458 30.0403 12.1233 31.25 11.2254L32.987 9.9362C34.262 8.98991 36.1136 9.18613 37.3233 10.3957L37.3643 10.4366C38.574 11.6463 38.7702 13.4979 37.8238 14.773L36.5346 16.5099C35.6367 17.7198 33.8142 17.775 32.6666 16.6273V16.6273Z" fill="url(#paint27_linear_2_5135)"/>
<path d="M36.8758 12.4173L35.3419 10.8834C34.1943 9.73573 34.2495 7.91321 35.4592 7.01545L37.1962 5.72624C38.4712 4.77995 40.3229 4.97617 41.5326 6.18577L41.5735 6.22673C42.7832 7.43644 42.9795 9.28806 42.0331 10.5631L40.7439 12.3001C39.846 13.5096 38.0235 13.5649 36.8758 12.4173V12.4173Z" fill="url(#paint28_linear_2_5135)"/>
<path d="M41.0867 8.20696L39.5529 6.67311C38.4052 5.52544 38.4604 3.70291 39.6701 2.80515L41.3641 1.5479C42.6638 0.583272 44.5513 0.783225 45.7844 2.01632C46.9941 3.22603 47.1904 5.07766 46.244 6.3527L44.9547 8.08969C44.0569 9.2994 42.2344 9.35463 41.0867 8.20696Z" fill="url(#paint29_linear_2_5135)"/>
<path d="M17.7574 47.0438L16.2235 45.51C15.0759 44.3623 15.1311 42.5398 16.3408 41.6419L18.0778 40.3527C19.3528 39.4064 21.2045 39.6026 22.4142 40.8122L22.4551 40.8532C23.6648 42.0629 23.8611 43.9145 22.9147 45.1896L21.6255 46.9265C20.7275 48.1361 18.9049 48.1914 17.7574 47.0438V47.0438Z" fill="url(#paint30_linear_2_5135)"/>
<path d="M21.3497 43.4505L19.8158 41.9166C18.6682 40.7689 18.7234 38.9464 19.9331 38.0487L21.6701 36.7594C22.9451 35.8132 24.7968 36.0094 26.0065 37.219L26.0473 37.2599C27.257 38.4696 27.4532 40.3213 26.5068 41.5963L25.2176 43.3333C24.3199 44.5429 22.4973 44.5981 21.3497 43.4505V43.4505Z" fill="url(#paint31_linear_2_5135)"/>
<path d="M24.9102 39.8909L23.3764 38.3571C22.2287 37.2094 22.2839 35.3869 23.4936 34.4891L25.2306 33.1999C26.5057 32.2536 28.3573 32.4497 29.567 33.6594L29.6079 33.7004C30.8176 34.9101 31.0138 36.7617 30.0674 38.0368L28.7782 39.7738C27.8804 40.9834 26.0579 41.0386 24.9102 39.8909V39.8909Z" fill="url(#paint32_linear_2_5135)"/>
<path d="M28.503 36.2976L26.9691 34.7638C25.8215 33.6161 25.8767 31.7936 27.0864 30.8958L28.8234 29.6066C30.0984 28.6603 31.9501 28.8565 33.1598 30.0661L33.2007 30.107C34.4104 31.3167 34.6067 33.1683 33.6603 34.4434L32.3711 36.1804C31.4731 37.39 29.6506 37.4453 28.503 36.2976V36.2976Z" fill="url(#paint33_linear_2_5135)"/>
<path d="M31.9988 32.8015L30.465 31.2677C29.3173 30.12 29.3726 28.2975 30.5823 27.3997L32.3193 26.1105C33.5943 25.1642 35.4459 25.3605 36.6556 26.5701L36.6966 26.6109C37.9063 27.8206 38.1025 29.6722 37.1561 30.9473L35.8669 32.6843C34.9689 33.8939 33.1464 33.9491 31.9988 32.8015V32.8015Z" fill="url(#paint34_linear_2_5135)"/>
<path d="M36.2093 28.5916L34.6754 27.0577C33.5277 25.9101 33.5831 24.0875 34.7927 23.1898L36.5297 21.9006C37.8047 20.9543 39.6563 21.1505 40.8661 22.3601L40.9069 22.4011C42.1166 23.6108 42.3128 25.4624 41.3664 26.7374L40.0772 28.4744C39.1795 29.684 37.3569 29.7393 36.2093 28.5916V28.5916Z" fill="url(#paint35_linear_2_5135)"/>
<path d="M40.4202 24.3811L38.8864 22.8473C37.7387 21.6996 37.7939 19.8771 39.0037 18.9793L40.7406 17.6901C42.0157 16.7438 43.8673 16.94 45.077 18.1496L45.1179 18.1906C46.3276 19.4003 46.5238 21.2519 45.5774 22.527L44.2882 24.2639C43.3904 25.4734 41.5679 25.5288 40.4202 24.3811V24.3811Z" fill="url(#paint36_linear_2_5135)"/>
<path d="M44.6295 20.1712L43.0956 18.6373C41.9479 17.4896 42.0032 15.6671 43.2129 14.7694L44.9499 13.4801C46.2249 12.5339 48.0765 12.7301 49.2863 13.9397L49.3271 13.9806C50.5368 15.1903 50.733 17.042 49.7866 18.317L48.4974 20.054C47.5997 21.2636 45.7771 21.3188 44.6295 20.1712V20.1712Z" fill="url(#paint37_linear_2_5135)"/>
<path d="M48.8399 15.961L47.3061 14.4271C46.1584 13.2795 46.2136 11.4569 47.4233 10.5591L49.1173 9.30181C50.417 8.33718 52.3045 8.53713 53.5376 9.77023C54.7473 10.9799 54.9435 12.8316 53.9971 14.1066L52.7079 15.8436C51.8101 17.0533 49.9876 17.1086 48.8399 15.961V15.961Z" fill="url(#paint38_linear_2_5135)"/>
<path d="M17.8144 47.0977L54.2128 10.6991C54.043 10.3652 53.818 10.0504 53.5378 9.77028C52.3047 8.53718 50.4171 8.33711 49.1174 9.30185L47.4236 10.5591C46.6789 11.1118 46.3724 12.0149 46.5139 12.8952C45.9556 12.9431 45.4147 13.1354 44.9503 13.48L43.2133 14.7692C42.4687 15.3219 42.1622 16.225 42.3037 17.1053C41.7454 17.1532 41.2045 17.3455 40.7401 17.6901L39.0031 18.9793C38.2584 19.532 37.952 20.4351 38.0935 21.3154C37.5352 21.3632 36.9943 21.5555 36.5299 21.9002L34.7929 23.1894C34.0482 23.7421 33.7418 24.6452 33.8833 25.5255C33.325 25.5734 32.7841 25.7656 32.3197 26.1103L30.5827 27.3995C29.9957 27.8351 29.6814 28.4887 29.6437 29.177C29.354 29.2758 29.0773 29.4182 28.8238 29.6064L27.0868 30.8956C26.481 31.3452 26.1649 32.0267 26.1441 32.7392C25.8203 32.8381 25.5115 32.991 25.2306 33.1995L23.4937 34.4887C22.8943 34.9335 22.5789 35.6052 22.5521 36.3093C22.2401 36.4085 21.9423 36.5577 21.6709 36.7592L19.9339 38.0484C19.3281 38.4981 19.012 39.1795 18.9913 39.892C18.6674 39.991 18.3586 40.1438 18.0778 40.3523L16.3408 41.6415C15.1311 42.5394 15.0759 44.3619 16.2235 45.5095L17.7574 47.0433C17.7761 47.0622 17.7954 47.0797 17.8144 47.0977V47.0977Z" fill="url(#paint39_linear_2_5135)"/>
<path d="M11.0496 45.9975L9.51577 44.4636C8.3681 43.3159 8.42334 41.4934 9.63304 40.5955L11.37 39.3063C12.6451 38.36 14.4967 38.5563 15.7064 39.7659L15.7472 39.8068C16.9569 41.0165 17.1532 42.8681 16.2068 44.1432L14.9176 45.8802C14.0198 47.0898 12.1973 47.1451 11.0496 45.9975V45.9975Z" fill="url(#paint40_linear_2_5135)"/>
<path d="M14.6424 42.4042L13.1085 40.8703C11.9609 39.7227 12.0161 37.9001 13.2258 37.0023L14.9628 35.7131C16.2378 34.7668 18.0895 34.963 19.2992 36.1726L19.3401 36.2135C20.5499 37.4233 20.7461 39.2749 19.7997 40.5499L18.5105 42.2869C17.6126 43.4966 15.7901 43.5518 14.6424 42.4042V42.4042Z" fill="url(#paint41_linear_2_5135)"/>
<path d="M18.2025 38.844L16.6686 37.3102C15.5209 36.1625 15.5762 34.34 16.7859 33.4422L18.5229 32.153C19.7979 31.2067 21.6495 31.4029 22.8592 32.6125L22.9002 32.6535C24.1099 33.8632 24.3061 35.7148 23.3597 36.9899L22.0705 38.7269C21.1727 39.9365 19.3501 39.9917 18.2025 38.844V38.844Z" fill="url(#paint42_linear_2_5135)"/>
<path d="M21.7952 35.2512L20.2614 33.7174C19.1137 32.5697 19.1689 30.7472 20.3786 29.8494L22.1156 28.5602C23.3907 27.6139 25.2423 27.8102 26.452 29.0198L26.493 29.0607C27.7027 30.2704 27.8989 32.1221 26.9525 33.3971L25.6633 35.1341C24.7654 36.3436 22.9429 36.3989 21.7952 35.2512V35.2512Z" fill="url(#paint43_linear_2_5135)"/>
<path d="M25.2913 31.7552L23.7575 30.2213C22.6098 29.0736 22.665 27.2511 23.8747 26.3533L25.6117 25.0641C26.8868 24.1178 28.7384 24.3141 29.9481 25.5237L29.9891 25.5646C31.1988 26.7743 31.395 28.626 30.4486 29.901L29.1594 31.638C28.2615 32.8475 26.439 32.9029 25.2913 31.7552V31.7552Z" fill="url(#paint44_linear_2_5135)"/>
<path d="M29.5015 27.5453L27.9677 26.0114C26.82 24.8638 26.8752 23.0412 28.085 22.1434L29.8219 20.8542C31.097 19.9079 32.9486 20.1041 34.1583 21.3137L34.1993 21.3547C35.409 22.5644 35.6052 24.416 34.6588 25.691L33.3696 27.428C32.4717 28.6376 30.6492 28.6929 29.5015 27.5453V27.5453Z" fill="url(#paint45_linear_2_5135)"/>
<path d="M33.7125 23.3348L32.1786 21.801C31.0309 20.6533 31.0862 18.8308 32.2959 17.9329L34.0329 16.6437C35.3079 15.6974 37.1595 15.8937 38.3693 17.1033L38.4102 17.1442C39.6199 18.3539 39.8161 20.2055 38.8697 21.4806L37.5805 23.2176C36.6827 24.4273 34.8601 24.4825 33.7125 23.3348V23.3348Z" fill="url(#paint46_linear_2_5135)"/>
<path d="M37.9217 19.1249L36.3878 17.5911C35.2402 16.4434 35.2954 14.6209 36.5051 13.723L38.2421 12.4338C39.5172 11.4874 41.3688 11.6837 42.5785 12.8933L42.6193 12.9343C43.8291 14.144 44.0253 15.9956 43.0789 17.2707L41.7897 19.0077C40.8919 20.2173 39.0694 20.2725 37.9217 19.1249V19.1249Z" fill="url(#paint47_linear_2_5135)"/>
<path d="M42.1326 14.9143L40.5988 13.3805C39.4511 12.2328 39.5063 10.4103 40.7161 9.51252L42.453 8.22331C43.7281 7.27702 45.5797 7.47324 46.7894 8.68284L46.8303 8.72369C48.04 9.93339 48.2362 11.785 47.2898 13.0601L46.0006 14.797C45.1027 16.0066 43.2802 16.062 42.1326 14.9143V14.9143Z" fill="url(#paint48_linear_2_5135)"/>
<path d="M46.3431 10.7044L44.8092 9.17051C43.6616 8.02284 43.7168 6.20032 44.9265 5.30256L46.6635 4.01335C47.9385 3.06706 49.7902 3.26328 50.9999 4.47288L51.0407 4.51384C52.2504 5.72355 52.4467 7.57517 51.5003 8.85022L50.2111 10.5872C49.3133 11.7967 47.4908 11.852 46.3431 10.7044V10.7044Z" fill="url(#paint49_linear_2_5135)"/>
<path d="M10.4875 20.3529C-0.905893 31.7463 -1.05149 42.938 5.76151 49.751C6.27331 50.2628 6.81036 50.7345 7.36981 51.166C17.9807 44.7665 24.2888 33.7654 19.7075 22.0286C18.887 19.9268 17.729 18.1142 16.3355 16.5815C16.0014 16.214 15.3683 16.2273 14.8447 16.6123C13.336 17.7222 11.8734 18.967 10.4875 20.3529V20.3529Z" fill="url(#paint50_linear_2_5135)"/>
<path d="M17.5605 22.0616C17.2534 19.9517 16.7142 18.1297 16.0056 16.5863C15.8357 16.2163 15.4487 16.2257 15.0944 16.6082C14.0734 17.7105 13.0679 18.9482 12.0963 20.3277C4.1091 31.6682 2.99382 42.8748 6.52006 49.7388C6.78491 50.2544 7.06886 50.7301 7.37017 51.1656C14.4225 44.8212 19.2753 33.8427 17.5605 22.0616V22.0616Z" fill="url(#paint51_linear_2_5135)"/>
<path d="M19.7072 22.0289C18.8867 19.927 17.7287 18.1145 16.3352 16.5817C16.1939 16.4262 15.9977 16.3431 15.7804 16.3232L7.36963 51.1662C17.9804 44.7666 24.2885 33.7655 19.7072 22.0289Z" fill="url(#paint52_linear_2_5135)"/>
<path d="M21.0827 32.1714L1.63019 34.8561C0.301999 40.7096 1.93292 45.9216 5.76178 49.7506C6.27358 50.2624 6.81063 50.7341 7.37008 51.1656C14.8355 46.6632 20.1709 39.883 21.0827 32.1714V32.1714Z" fill="url(#paint53_linear_2_5135)"/>
<path d="M4.94067 48.8678C5.20223 49.1695 5.47531 49.4644 5.76179 49.7509C11.7926 55.7816 21.2544 56.3582 31.2497 48.5093C29.8095 47.2814 28.1399 46.2537 26.2282 45.5074C18.4292 42.4632 10.9557 44.2283 4.94067 48.8678V48.8678Z" fill="url(#paint54_linear_2_5135)"/>
<path d="M17.1129 44.04C12.6932 44.3333 8.55366 46.0811 4.94067 48.8678C5.20223 49.1694 5.47531 49.4643 5.76179 49.7508C10.5805 54.5696 17.5905 55.9005 25.312 52.2392L17.1129 44.04Z" fill="url(#paint55_linear_2_5135)"/>
</g>
<defs>
<linearGradient id="paint0_linear_2_5135" x1="45.6771" y1="39.1955" x2="43.157" y2="36.6754" gradientUnits="userSpaceOnUse">
<stop stop-color="#A2E62E"/>
<stop offset="0.1231" stop-color="#97DE30"/>
<stop offset="0.3395" stop-color="#79CB36"/>
<stop offset="0.6234" stop-color="#4AAB3F"/>
<stop offset="0.9609" stop-color="#09804C"/>
<stop offset="1" stop-color="#017B4E"/>
</linearGradient>
<linearGradient id="paint1_linear_2_5135" x1="44.46" y1="42.6966" x2="38.5542" y2="36.7908" gradientUnits="userSpaceOnUse">
<stop stop-color="#A2E62E"/>
<stop offset="0.1231" stop-color="#97DE30"/>
<stop offset="0.3395" stop-color="#79CB36"/>
<stop offset="0.6234" stop-color="#4AAB3F"/>
<stop offset="0.9609" stop-color="#09804C"/>
<stop offset="1" stop-color="#017B4E"/>
</linearGradient>
<linearGradient id="paint2_linear_2_5135" x1="6.25716" y1="44.5468" x2="6.25716" y2="52.9332" gradientUnits="userSpaceOnUse">
<stop stop-color="#A2E62E"/>
<stop offset="0.1231" stop-color="#97DE30"/>
<stop offset="0.3395" stop-color="#79CB36"/>
<stop offset="0.6234" stop-color="#4AAB3F"/>
<stop offset="0.9609" stop-color="#09804C"/>
<stop offset="1" stop-color="#017B4E"/>
</linearGradient>
<linearGradient id="paint3_linear_2_5135" x1="27.891" y1="10.2272" x2="44.8558" y2="27.192" gradientUnits="userSpaceOnUse">
<stop stop-color="#FEE97D"/>
<stop offset="1" stop-color="#FAC600"/>
</linearGradient>
<linearGradient id="paint4_linear_2_5135" x1="25.0277" y1="42.5404" x2="25.0277" y2="48.2939" gradientUnits="userSpaceOnUse">
<stop stop-color="#FEE97D"/>
<stop offset="1" stop-color="#FE860A"/>
</linearGradient>
<linearGradient id="paint5_linear_2_5135" x1="28.6208" y1="38.9476" x2="28.6208" y2="44.701" gradientUnits="userSpaceOnUse">
<stop stop-color="#FEE97D"/>
<stop offset="1" stop-color="#FE860A"/>
</linearGradient>
<linearGradient id="paint6_linear_2_5135" x1="32.1798" y1="35.3885" x2="32.1798" y2="41.1419" gradientUnits="userSpaceOnUse">
<stop stop-color="#FEE97D"/>
<stop offset="1" stop-color="#FE860A"/>
</linearGradient>
<linearGradient id="paint7_linear_2_5135" x1="35.7719" y1="31.796" x2="35.7719" y2="37.5494" gradientUnits="userSpaceOnUse">
<stop stop-color="#FEE97D"/>
<stop offset="1" stop-color="#FE860A"/>
</linearGradient>
<linearGradient id="paint8_linear_2_5135" x1="39.2675" y1="28.3003" x2="39.2675" y2="34.0537" gradientUnits="userSpaceOnUse">
<stop stop-color="#FEE97D"/>
<stop offset="1" stop-color="#FE860A"/>
</linearGradient>
<linearGradient id="paint9_linear_2_5135" x1="43.4775" y1="24.0908" x2="43.4775" y2="29.8442" gradientUnits="userSpaceOnUse">
<stop stop-color="#FEE97D"/>
<stop offset="1" stop-color="#FE860A"/>
</linearGradient>
<linearGradient id="paint10_linear_2_5135" x1="47.6875" y1="19.881" x2="47.6874" y2="25.6345" gradientUnits="userSpaceOnUse">
<stop stop-color="#FEE97D"/>
<stop offset="1" stop-color="#FE860A"/>
</linearGradient>
<linearGradient id="paint11_linear_2_5135" x1="50.9569" y1="14.7319" x2="50.9569" y2="20.4853" gradientUnits="userSpaceOnUse">
<stop stop-color="#FEE97D"/>
<stop offset="1" stop-color="#FE860A"/>
</linearGradient>
<linearGradient id="paint12_linear_2_5135" x1="39.1189" y1="33.3363" x2="36.202" y2="30.4194" gradientUnits="userSpaceOnUse">
<stop stop-color="#FE7701" stop-opacity="0"/>
<stop offset="0.398" stop-color="#E05915" stop-opacity="0.398"/>
<stop offset="1" stop-color="#AC2538"/>
</linearGradient>
<linearGradient id="paint13_linear_2_5135" x1="8.87265" y1="26.3855" x2="8.87265" y2="32.139" gradientUnits="userSpaceOnUse">
<stop stop-color="#FEE97D"/>
<stop offset="1" stop-color="#FE860A"/>
</linearGradient>
<linearGradient id="paint14_linear_2_5135" x1="12.4656" y1="22.7923" x2="12.4656" y2="28.5457" gradientUnits="userSpaceOnUse">
<stop stop-color="#FEE97D"/>
<stop offset="1" stop-color="#FE860A"/>
</linearGradient>
<linearGradient id="paint15_linear_2_5135" x1="16.0244" y1="19.2332" x2="16.0244" y2="24.9866" gradientUnits="userSpaceOnUse">
<stop stop-color="#FEE97D"/>
<stop offset="1" stop-color="#FE860A"/>
</linearGradient>
<linearGradient id="paint16_linear_2_5135" x1="19.6177" y1="15.6406" x2="19.6177" y2="21.394" gradientUnits="userSpaceOnUse">
<stop stop-color="#FEE97D"/>
<stop offset="1" stop-color="#FE860A"/>
</linearGradient>
<linearGradient id="paint17_linear_2_5135" x1="23.1133" y1="12.7641" x2="23.1133" y2="19.8975" gradientUnits="userSpaceOnUse">
<stop stop-color="#FEE97D"/>
<stop offset="1" stop-color="#FE860A"/>
</linearGradient>
<linearGradient id="paint18_linear_2_5135" x1="27.3219" y1="9.33201" x2="27.3219" y2="16.0246" gradientUnits="userSpaceOnUse">
<stop stop-color="#FEE97D"/>
<stop offset="1" stop-color="#FE860A"/>
</linearGradient>
<linearGradient id="paint19_linear_2_5135" x1="31.5322" y1="4.61766" x2="31.5323" y2="11.5362" gradientUnits="userSpaceOnUse">
<stop stop-color="#FEE97D"/>
<stop offset="1" stop-color="#FE860A"/>
</linearGradient>
<linearGradient id="paint20_linear_2_5135" x1="36.6814" y1="1.56237" x2="36.6815" y2="6.89432" gradientUnits="userSpaceOnUse">
<stop stop-color="#FEE97D"/>
<stop offset="1" stop-color="#FE860A"/>
</linearGradient>
<linearGradient id="paint21_linear_2_5135" x1="11.6955" y1="31.9657" x2="11.6955" y2="37.7191" gradientUnits="userSpaceOnUse">
<stop stop-color="#FEE97D"/>
<stop offset="1" stop-color="#FE860A"/>
</linearGradient>
<linearGradient id="paint22_linear_2_5135" x1="15.2878" y1="28.3731" x2="15.2878" y2="34.1265" gradientUnits="userSpaceOnUse">
<stop stop-color="#FEE97D"/>
<stop offset="1" stop-color="#FE860A"/>
</linearGradient>
<linearGradient id="paint23_linear_2_5135" x1="18.8475" y1="24.8139" x2="18.8475" y2="30.5673" gradientUnits="userSpaceOnUse">
<stop stop-color="#FEE97D"/>
<stop offset="1" stop-color="#FE860A"/>
</linearGradient>
<linearGradient id="paint24_linear_2_5135" x1="22.4396" y1="22.414" x2="22.4396" y2="29.0182" gradientUnits="userSpaceOnUse">
<stop stop-color="#FEE97D"/>
<stop offset="1" stop-color="#FE860A"/>
</linearGradient>
<linearGradient id="paint25_linear_2_5135" x1="25.9351" y1="19.4089" x2="25.9352" y2="26.1727" gradientUnits="userSpaceOnUse">
<stop stop-color="#FEE97D"/>
<stop offset="1" stop-color="#FE860A"/>
</linearGradient>
<linearGradient id="paint26_linear_2_5135" x1="30.1448" y1="16.6939" x2="30.1449" y2="21.1033" gradientUnits="userSpaceOnUse">
<stop stop-color="#FEE97D"/>
<stop offset="1" stop-color="#FE860A"/>
</linearGradient>
<linearGradient id="paint27_linear_2_5135" x1="34.3551" y1="10.5829" x2="34.3551" y2="16.6139" gradientUnits="userSpaceOnUse">
<stop stop-color="#FEE97D"/>
<stop offset="1" stop-color="#FE860A"/>
</linearGradient>
<linearGradient id="paint28_linear_2_5135" x1="38.5638" y1="5.15098" x2="38.5638" y2="11.4723" gradientUnits="userSpaceOnUse">
<stop stop-color="#FEE97D"/>
<stop offset="1" stop-color="#FE860A"/>
</linearGradient>
<linearGradient id="paint29_linear_2_5135" x1="42.7741" y1="2.13406" x2="42.7741" y2="12.1204" gradientUnits="userSpaceOnUse">
<stop stop-color="#FEE97D"/>
<stop offset="1" stop-color="#FE860A"/>
</linearGradient>
<linearGradient id="paint30_linear_2_5135" x1="19.448" y1="39.7186" x2="19.448" y2="45.472" gradientUnits="userSpaceOnUse">
<stop stop-color="#FEE97D"/>
<stop offset="1" stop-color="#FE860A"/>
</linearGradient>
<linearGradient id="paint31_linear_2_5135" x1="23.0398" y1="36.1258" x2="23.0398" y2="41.8792" gradientUnits="userSpaceOnUse">
<stop stop-color="#FEE97D"/>
<stop offset="1" stop-color="#FE860A"/>
</linearGradient>
<linearGradient id="paint32_linear_2_5135" x1="26.5998" y1="32.5668" x2="26.5998" y2="38.3202" gradientUnits="userSpaceOnUse">
<stop stop-color="#FEE97D"/>
<stop offset="1" stop-color="#FE860A"/>
</linearGradient>
<linearGradient id="paint33_linear_2_5135" x1="30.1921" y1="28.9739" x2="30.1921" y2="34.7273" gradientUnits="userSpaceOnUse">
<stop stop-color="#FEE97D"/>
<stop offset="1" stop-color="#FE860A"/>
</linearGradient>
<linearGradient id="paint34_linear_2_5135" x1="33.6874" y1="25.4783" x2="33.6874" y2="31.2318" gradientUnits="userSpaceOnUse">
<stop stop-color="#FEE97D"/>
<stop offset="1" stop-color="#FE860A"/>
</linearGradient>
<linearGradient id="paint35_linear_2_5135" x1="37.8973" y1="21.269" x2="37.8973" y2="27.0225" gradientUnits="userSpaceOnUse">
<stop stop-color="#FEE97D"/>
<stop offset="1" stop-color="#FE860A"/>
</linearGradient>
<linearGradient id="paint36_linear_2_5135" x1="42.1077" y1="17.0591" x2="42.1077" y2="22.8125" gradientUnits="userSpaceOnUse">
<stop stop-color="#FEE97D"/>
<stop offset="1" stop-color="#FE860A"/>
</linearGradient>
<linearGradient id="paint37_linear_2_5135" x1="46.3163" y1="12.8498" x2="46.3163" y2="18.6032" gradientUnits="userSpaceOnUse">
<stop stop-color="#FEE97D"/>
<stop offset="1" stop-color="#FE860A"/>
</linearGradient>
<linearGradient id="paint38_linear_2_5135" x1="50.5262" y1="8.66064" x2="50.5262" y2="14.3996" gradientUnits="userSpaceOnUse">
<stop stop-color="#FEE97D"/>
<stop offset="1" stop-color="#FE860A"/>
</linearGradient>
<linearGradient id="paint39_linear_2_5135" x1="35.7981" y1="28.5639" x2="32.4829" y2="25.2488" gradientUnits="userSpaceOnUse">
<stop stop-color="#FE7701" stop-opacity="0"/>
<stop offset="0.398" stop-color="#E05915" stop-opacity="0.398"/>
<stop offset="1" stop-color="#AC2538"/>
</linearGradient>
<linearGradient id="paint40_linear_2_5135" x1="12.7412" y1="38.6724" x2="12.7412" y2="44.4259" gradientUnits="userSpaceOnUse">
<stop stop-color="#FEE97D"/>
<stop offset="1" stop-color="#FE860A"/>
</linearGradient>
<linearGradient id="paint41_linear_2_5135" x1="16.3335" y1="36.3169" x2="16.3336" y2="42.8942" gradientUnits="userSpaceOnUse">
<stop stop-color="#FEE97D"/>
<stop offset="1" stop-color="#FE860A"/>
</linearGradient>
<linearGradient id="paint42_linear_2_5135" x1="19.8931" y1="33.9554" x2="19.8931" y2="39.7715" gradientUnits="userSpaceOnUse">
<stop stop-color="#FEE97D"/>
<stop offset="1" stop-color="#FE860A"/>
</linearGradient>
<linearGradient id="paint43_linear_2_5135" x1="23.4852" y1="30.5015" x2="23.4853" y2="37.5003" gradientUnits="userSpaceOnUse">
<stop stop-color="#FEE97D"/>
<stop offset="1" stop-color="#FE860A"/>
</linearGradient>
<linearGradient id="paint44_linear_2_5135" x1="26.9809" y1="26.7417" x2="26.9809" y2="33.0082" gradientUnits="userSpaceOnUse">
<stop stop-color="#FEE97D"/>
<stop offset="1" stop-color="#FE860A"/>
</linearGradient>
<linearGradient id="paint45_linear_2_5135" x1="31.1905" y1="22.027" x2="31.1905" y2="29.513" gradientUnits="userSpaceOnUse">
<stop stop-color="#FEE97D"/>
<stop offset="1" stop-color="#FE860A"/>
</linearGradient>
<linearGradient id="paint46_linear_2_5135" x1="35.4008" y1="18.4818" x2="35.4008" y2="25.4684" gradientUnits="userSpaceOnUse">
<stop stop-color="#FEE97D"/>
<stop offset="1" stop-color="#FE860A"/>
</linearGradient>
<linearGradient id="paint47_linear_2_5135" x1="39.6096" y1="14.4086" x2="39.6095" y2="22.5884" gradientUnits="userSpaceOnUse">
<stop stop-color="#FEE97D"/>
<stop offset="1" stop-color="#FE860A"/>
</linearGradient>
<linearGradient id="paint48_linear_2_5135" x1="43.8199" y1="9.61783" x2="43.8198" y2="17.2593" gradientUnits="userSpaceOnUse">
<stop stop-color="#FEE97D"/>
<stop offset="1" stop-color="#FE860A"/>
</linearGradient>
<linearGradient id="paint49_linear_2_5135" x1="48.0297" y1="5.95968" x2="48.0297" y2="13.4857" gradientUnits="userSpaceOnUse">
<stop stop-color="#FEE97D"/>
<stop offset="1" stop-color="#FE860A"/>
</linearGradient>
<linearGradient id="paint50_linear_2_5135" x1="11.1921" y1="17.8234" x2="11.1921" y2="53.7907" gradientUnits="userSpaceOnUse">
<stop stop-color="#A2E62E"/>
<stop offset="0.1231" stop-color="#97DE30"/>
<stop offset="0.3395" stop-color="#79CB36"/>
<stop offset="0.6234" stop-color="#4AAB3F"/>
<stop offset="0.9609" stop-color="#09804C"/>
<stop offset="1" stop-color="#017B4E"/>
</linearGradient>
<linearGradient id="paint51_linear_2_5135" x1="15.1775" y1="30.5798" x2="-6.65868" y2="48.6415" gradientUnits="userSpaceOnUse">
<stop stop-color="#017B4E" stop-opacity="0"/>
<stop offset="0.4829" stop-color="#01754A" stop-opacity="0.483"/>
<stop offset="1" stop-color="#026841"/>
</linearGradient>
<linearGradient id="paint52_linear_2_5135" x1="16.7729" y1="30.594" x2="1.31918" y2="39.8555" gradientUnits="userSpaceOnUse">
<stop stop-color="#017B4E" stop-opacity="0"/>
<stop offset="0.4829" stop-color="#01754A" stop-opacity="0.483"/>
<stop offset="1" stop-color="#026841"/>
</linearGradient>
<linearGradient id="paint53_linear_2_5135" x1="11.1192" y1="35.3464" x2="11.3337" y2="46.9291" gradientUnits="userSpaceOnUse">
<stop stop-color="#017B4E" stop-opacity="0"/>
<stop offset="0.8674" stop-color="#016B43" stop-opacity="0.867"/>
<stop offset="1" stop-color="#026841"/>
</linearGradient>
<linearGradient id="paint54_linear_2_5135" x1="18.0889" y1="40.9554" x2="18.0889" y2="54.5899" gradientUnits="userSpaceOnUse">
<stop stop-color="#A2E62E"/>
<stop offset="0.1231" stop-color="#97DE30"/>
<stop offset="0.3395" stop-color="#79CB36"/>
<stop offset="0.6234" stop-color="#4AAB3F"/>
<stop offset="0.9609" stop-color="#09804C"/>
<stop offset="1" stop-color="#017B4E"/>
</linearGradient>
<linearGradient id="paint55_linear_2_5135" x1="17.9742" y1="47.6947" x2="11.2511" y2="54.4177" gradientUnits="userSpaceOnUse">
<stop stop-color="#017B4E" stop-opacity="0"/>
<stop offset="0.5209" stop-color="#017449" stop-opacity="0.521"/>
<stop offset="1" stop-color="#026841"/>
</linearGradient>
<clipPath id="clip0_2_5135">
<rect width="56" height="56" fill="white"/>
</clipPath>
</defs>
</svg>
