<svg width="56" height="56" viewBox="0 0 56 56" fill="none" xmlns="http://www.w3.org/2000/svg">
<g clip-path="url(#clip0_2_5208)">
<path d="M28 4.75293C12.5366 4.75293 0 15.2715 0 28.248C0 41.2245 12.5366 51.7431 28 51.7431C43.4634 51.7431 56 41.2245 56 28.248C56 15.2715 43.4634 4.75293 28 4.75293V4.75293ZM28.082 14.8674C28.0497 14.8673 28.0178 14.8662 27.9854 14.8663C27.9902 14.8663 27.9951 14.8661 27.9999 14.8661C28.0276 14.8661 28.0546 14.8673 28.082 14.8674ZM28 26.6968C24.2359 26.6968 21.0064 25.2117 19.6214 23.0939C21.002 20.9781 24.2165 19.4848 27.9707 19.4662C31.7525 19.4474 35.0018 20.9307 36.3864 23.0577C35.0077 25.1846 31.7744 26.6968 28 26.6968V26.6968Z" fill="url(#paint0_linear_2_5208)"/>
<path d="M28 4.75293C12.5366 4.75293 0 15.2715 0 28.248C0 41.2245 12.5366 51.7431 28 51.7431C43.4634 51.7431 56 41.2245 56 28.248C56 15.2715 43.4634 4.75293 28 4.75293V4.75293ZM28.082 14.8674C28.0497 14.8673 28.0178 14.8662 27.9854 14.8663C27.9902 14.8663 27.9951 14.8661 27.9999 14.8661C28.0276 14.8661 28.0546 14.8673 28.082 14.8674ZM28 26.6968C24.2359 26.6968 21.0064 25.2117 19.6214 23.0939C21.002 20.9781 24.2165 19.4848 27.9707 19.4662C31.7525 19.4474 35.0018 20.9307 36.3864 23.0577C35.0077 25.1846 31.7744 26.6968 28 26.6968V26.6968Z" fill="url(#paint1_linear_2_5208)"/>
<path d="M55.9993 28.248H40.7426C30.6347 28.248 22.4407 36.4422 22.4407 46.5499C22.4407 47.3352 22.7902 48.0373 23.3403 48.5139L26.5378 51.7114C27.0218 51.7323 27.5091 51.743 27.9993 51.743C43.4626 51.7431 55.9993 41.2245 55.9993 28.248V28.248Z" fill="url(#paint2_linear_2_5208)"/>
<path d="M56.0003 28.248H47.3269C38.3071 28.248 30.9951 35.5601 30.9951 44.5799C30.9951 45.3832 31.3514 46.1178 31.917 46.6116L36.0591 50.7536C47.5941 47.8493 56.0003 38.8735 56.0003 28.248V28.248Z" fill="url(#paint3_linear_2_5208)"/>
<path d="M55.9999 28.2483C55.9999 21.9098 53.0077 16.1587 48.1455 11.9326V36.0638C48.1836 36.7665 48.5015 37.3941 48.9887 37.8394L51.7902 40.641C54.4576 37.0432 55.9999 32.7972 55.9999 28.2483V28.2483Z" fill="url(#paint4_linear_2_5208)"/>
<path d="M56 22.6162C56 12.4765 43.4634 4.25732 28 4.25732C12.5366 4.25732 0 12.4764 0 22.6162C0 24.5964 0.478965 26.503 1.36409 28.2897C2.24132 30.0601 2.66461 32.021 2.66461 33.9969V37.8372C2.66461 39.2714 3.79746 40.4861 5.23161 40.5035C5.96158 40.5124 6.62304 40.2195 7.10025 39.7423C7.57043 39.2722 7.86152 38.6218 7.86152 37.9045C7.86152 36.822 9.02237 36.138 9.96987 36.6616C12.6976 38.1686 15.8703 39.3403 19.3405 40.0796C21.1437 40.4639 22.4414 42.0426 22.4414 43.8863V46.5502C22.4414 47.9859 23.6048 49.1492 25.0392 49.1492C25.7565 49.1492 26.4069 48.858 26.877 48.388C27.3472 47.9178 27.6383 47.2674 27.6383 46.5502V43.8276C27.6383 42.9012 28.3896 42.1487 29.3172 42.1487C29.7798 42.1487 30.1995 42.3364 30.5033 42.6403C30.8071 42.9453 30.9949 43.3638 30.9949 43.8276V44.5795C30.9949 46.0137 32.1279 47.2284 33.5619 47.2458C34.2918 47.2546 34.9533 46.9618 35.4305 46.4846C35.9007 46.0144 36.1918 45.3653 36.1918 44.6468V43.355C36.1918 41.5538 37.3816 39.9628 39.1145 39.4709C42.3271 38.5589 45.2276 37.2635 47.682 35.6728C47.879 35.5451 48.1386 35.6871 48.1386 35.9218C48.1386 37.3562 49.302 38.5197 50.7376 38.5197C51.4549 38.5197 52.1039 38.2285 52.5741 37.7584C53.0443 37.2882 53.3355 36.6391 53.3355 35.9219V33.3529C53.3355 31.6968 53.7133 30.0562 54.4831 28.5897C55.4657 26.7171 56 24.7076 56 22.6162V22.6162ZM27.9707 14.8662C32.9974 14.8413 37.0843 17.4694 37.1004 20.7365C37.1167 24.0036 33.056 26.6719 28.0293 26.6969C23.0026 26.7218 18.9157 24.0937 18.8996 20.8266C18.8833 17.5595 22.944 14.8911 27.9707 14.8662V14.8662Z" fill="url(#paint5_radial_2_5208)"/>
<g opacity="0.6">
<g opacity="0.6">
<path opacity="0.6" d="M12.0923 41.5668C12.679 41.5668 13.1547 41.0911 13.1547 40.5044C13.1547 39.9176 12.679 39.4419 12.0923 39.4419C11.5055 39.4419 11.0298 39.9176 11.0298 40.5044C11.0298 41.0911 11.5055 41.5668 12.0923 41.5668Z" fill="url(#paint6_linear_2_5208)"/>
<path opacity="0.6" d="M9.18157 43.0668C9.64482 43.0668 10.0204 42.6912 10.0204 42.228C10.0204 41.7647 9.64482 41.3892 9.18157 41.3892C8.71831 41.3892 8.34277 41.7647 8.34277 42.228C8.34277 42.6912 8.71831 43.0668 9.18157 43.0668Z" fill="url(#paint7_linear_2_5208)"/>
<path opacity="0.6" d="M12.2471 44.8472C12.5264 44.8472 12.7528 44.6208 12.7528 44.3416C12.7528 44.0623 12.5264 43.8359 12.2471 43.8359C11.9678 43.8359 11.7415 44.0623 11.7415 44.3416C11.7415 44.6208 11.9678 44.8472 12.2471 44.8472Z" fill="url(#paint8_linear_2_5208)"/>
</g>
<g opacity="0.6">
<path opacity="0.6" d="M16.9143 44.2806C17.3478 44.2806 17.6994 43.9291 17.6994 43.4955C17.6994 43.0619 17.3478 42.7104 16.9143 42.7104C16.4807 42.7104 16.1292 43.0619 16.1292 43.4955C16.1292 43.9291 16.4807 44.2806 16.9143 44.2806Z" fill="url(#paint9_linear_2_5208)"/>
<path opacity="0.6" d="M14.5317 43.3613C14.874 43.3613 15.1515 43.0837 15.1515 42.7414C15.1515 42.3991 14.874 42.1216 14.5317 42.1216C14.1894 42.1216 13.9119 42.3991 13.9119 42.7414C13.9119 43.0837 14.1894 43.3613 14.5317 43.3613Z" fill="url(#paint10_linear_2_5208)"/>
<path opacity="0.6" d="M14.8781 45.8445C15.0844 45.8445 15.2517 45.6772 15.2517 45.4708C15.2517 45.2645 15.0844 45.0972 14.8781 45.0972C14.6717 45.0972 14.5044 45.2645 14.5044 45.4708C14.5044 45.6772 14.6717 45.8445 14.8781 45.8445Z" fill="url(#paint11_linear_2_5208)"/>
</g>
<g opacity="0.6">
<path opacity="0.6" d="M49.238 40.8016C49.6716 40.8016 50.0231 40.4501 50.0231 40.0165C50.0231 39.5829 49.6716 39.2314 49.238 39.2314C48.8044 39.2314 48.4529 39.5829 48.4529 40.0165C48.4529 40.4501 48.8044 40.8016 49.238 40.8016Z" fill="url(#paint12_linear_2_5208)"/>
<path opacity="0.6" d="M46.8554 39.8827C47.1978 39.8827 47.4753 39.6052 47.4753 39.2629C47.4753 38.9206 47.1978 38.6431 46.8554 38.6431C46.5131 38.6431 46.2356 38.9206 46.2356 39.2629C46.2356 39.6052 46.5131 39.8827 46.8554 39.8827Z" fill="url(#paint13_linear_2_5208)"/>
<path opacity="0.6" d="M47.2018 42.366C47.4081 42.366 47.5754 42.1987 47.5754 41.9923C47.5754 41.7859 47.4081 41.6187 47.2018 41.6187C46.9954 41.6187 46.8281 41.7859 46.8281 41.9923C46.8281 42.1987 46.9954 42.366 47.2018 42.366Z" fill="url(#paint14_linear_2_5208)"/>
</g>
</g>
<path d="M30.101 6.98813C29.5739 5.95455 27.9933 5.87022 27.4451 5.84112C26.1658 5.77326 24.3955 5.9294 22.1827 6.30471C12.7921 7.8972 5.31564 15.7124 5.00193 16.0443C4.64331 16.4238 4.66022 17.0221 5.03971 17.3807L8.11883 20.3472C6.79997 21.7832 5.54568 23.5186 5.21748 25.1795C4.91662 26.7015 5.49968 27.6431 6.04178 28.165L17.5216 39.6447C18.1179 39.8026 18.724 39.9481 19.3399 40.0794C21.1431 40.4636 22.4408 42.0424 22.4408 43.8861V44.564L26.5433 48.6665C26.6616 48.5823 26.774 48.4902 26.8764 48.3877C27.3466 47.9176 27.6377 47.2672 27.6377 46.5499V43.8274C27.6377 42.9009 28.389 42.1484 29.3166 42.1484C29.7792 42.1484 30.1989 42.3362 30.5027 42.64C30.8065 42.9451 30.9943 43.3635 30.9943 43.8274V44.5793C30.9943 46.0134 32.1272 47.2282 33.5613 47.2455C34.2913 47.2543 34.9527 46.9616 35.4299 46.4844C35.9001 46.0142 36.1912 45.365 36.1912 44.6466V43.3548C36.1912 41.5535 37.381 39.9626 39.1138 39.4707C42.3265 38.5586 45.227 37.2633 47.6814 35.6725C47.8784 35.5448 48.138 35.6868 48.138 35.9216C48.138 37.3559 49.3013 38.5194 50.737 38.5194C51.4543 38.5194 52.1033 38.2282 52.5735 37.7582C53.0437 37.288 53.3349 36.6388 53.3349 35.9217V33.3527C53.3349 32.4163 53.4559 31.4848 53.7 30.5871L30.101 6.98813ZM28.0287 26.6965C23.002 26.7214 18.9151 24.0934 18.8989 20.8263C18.8828 17.5592 22.9433 14.8908 27.9701 14.8659C32.9968 14.841 37.0837 17.469 37.0998 20.7361C37.1161 24.0032 33.0554 26.6717 28.0287 26.6965V26.6965Z" fill="url(#paint15_linear_2_5208)"/>
<path d="M8.31103 28.9969C7.37825 28.997 6.61643 28.718 6.04216 28.165C5.50005 27.6431 4.91699 26.7016 5.21786 25.1795C5.75139 22.4801 8.73027 19.583 10.4585 18.0963C13.3337 15.6229 16.8762 13.4565 20.1779 12.1525C25.6225 10.0021 27.6718 8.49343 28.2245 7.84855C27.691 7.70943 26.2067 7.54022 22.4992 8.16885C13.7257 9.65658 6.44898 17.2662 6.37662 17.343C6.018 17.7224 5.41979 17.7394 5.04019 17.3807C4.66071 17.0221 4.6438 16.4238 5.00242 16.0443C5.31613 15.7124 12.7925 7.89719 22.1832 6.3047C24.396 5.9295 26.1662 5.77325 27.4456 5.84111C28.0401 5.87252 29.849 5.96816 30.212 7.26922C30.5842 8.60356 29.0254 9.78845 27.8207 10.5636C26.2319 11.5857 23.8293 12.7432 20.8725 13.911C17.7594 15.1405 14.4132 17.1885 11.6917 19.5297C9.10415 21.7555 7.37748 24.0048 7.07289 25.5461C6.92608 26.289 7.16281 26.6193 7.35376 26.803C7.90739 27.3358 9.2246 27.1694 11.1632 26.3218C13.5017 25.2995 16.4666 23.3885 18.7883 21.838C19.2224 21.5479 19.8095 21.665 20.0995 22.0991C20.3895 22.5333 20.2725 23.1204 19.8384 23.4103C17.4518 25.0042 14.3949 26.9724 11.9204 28.0542C10.6664 28.6025 9.62286 28.905 8.73016 28.979C8.58686 28.991 8.44708 28.9969 8.31103 28.9969V28.9969Z" fill="url(#paint16_linear_2_5208)"/>
<path d="M56.0006 22.6163C56.0006 24.7074 55.4662 26.7166 54.483 28.5896C53.7142 30.0555 53.336 31.6966 53.336 33.3529V35.9217C53.336 36.1877 53.2957 36.4461 53.22 36.6881L37.0961 20.5643C36.9612 17.7988 33.9084 15.5261 29.8787 14.988C29.8862 14.6779 30.0438 14.3767 30.3274 14.2027C33.8416 12.0347 37.1717 10.1969 39.4255 9.51371C42.3661 8.62133 44.6086 8.88343 46.0896 10.2952L55.6994 19.9213C55.8973 20.8012 56.0006 21.7 56.0006 22.6163V22.6163Z" fill="url(#paint17_linear_2_5208)"/>
<path d="M37.5227 20.666C37.1798 20.666 36.849 20.4788 36.6813 20.1528C36.4425 19.6885 36.6254 19.1185 37.0898 18.8797C39.2566 17.7654 45.0125 14.8054 45.3047 12.7802C45.3385 12.5461 45.3213 12.1756 44.7842 11.6636C42.954 9.91906 38.117 11.6188 31.3193 15.8112C30.875 16.0852 30.2927 15.9472 30.0185 15.5028C29.7445 15.0584 29.8825 14.4759 30.3269 14.2019C33.8411 12.0345 37.1707 10.1966 39.4244 9.5129C42.3661 8.62052 44.6083 8.88361 46.0887 10.2952C47.1675 11.3237 47.2755 12.3611 47.176 13.0502C46.8179 15.5323 43.2305 17.8479 37.9543 20.5613C37.816 20.6323 37.6684 20.666 37.5227 20.666Z" fill="url(#paint18_linear_2_5208)"/>
<path d="M55.9097 24.0888L52.4759 20.6551C52.3149 20.4662 52.1167 20.2842 51.8811 20.1095C48.3456 17.4889 41.3488 22.2084 33.9416 27.2052C32.13 28.4273 30.3805 29.6071 28.7391 30.6376C28.7308 30.6325 28.7225 30.6272 28.7141 30.6224C28.7065 30.6093 24.5582 26.4545 24.55 26.4417C24.4895 26.3479 24.4146 26.2694 24.3309 26.2052C24.119 26.145 23.9104 26.0809 23.7074 26.0107C23.5474 26.0188 23.3873 26.0667 23.2431 26.1598C20.5989 27.8659 17.194 30.4889 18.1475 33.5566C18.3855 34.322 18.7659 34.8303 19.1685 35.1686L27.6478 43.6479C27.7374 42.8057 28.4499 42.1484 29.3168 42.1484C29.7794 42.1484 30.1991 42.3361 30.5029 42.64C30.8067 42.945 30.9945 43.3635 30.9945 43.8273V44.5792C30.9945 46.0134 32.1275 47.2281 33.5615 47.2455C34.2915 47.2543 34.9529 46.9615 35.4301 46.4843C35.9003 46.0141 36.1914 45.365 36.1914 44.6465V43.3547C36.1914 41.5535 37.3812 39.9625 39.1141 39.4706C42.3267 38.5586 45.2272 37.2632 47.6816 35.6725C47.8786 35.5448 48.1382 35.6868 48.1382 35.9215C48.1382 37.3559 49.3016 38.5194 50.7372 38.5194C51.4545 38.5194 52.1035 38.2282 52.5737 37.7581C53.0439 37.2879 53.3351 36.6388 53.3351 35.9216V33.3527C53.3351 31.6965 53.7129 30.0559 54.4827 28.5894C55.2323 27.1608 55.72 25.6523 55.9097 24.0888V24.0888Z" fill="url(#paint19_linear_2_5208)"/>
<path d="M21.2742 35.8719C20.84 35.872 20.4379 35.8108 20.0697 35.6815C19.4238 35.4545 18.5662 34.9015 18.1481 33.5565C17.1944 30.4887 20.5994 27.8659 23.2436 26.1598C23.6822 25.8768 24.2674 26.0029 24.5505 26.4417C24.8336 26.8805 24.7074 27.4655 24.2686 27.7486C20.9822 29.869 19.5304 31.6342 19.9536 32.9953C20.1519 33.6334 20.4548 33.8127 20.6967 33.8977C21.3194 34.1164 22.7069 34.0308 25.7798 32.3792C28.2016 31.0777 30.99 29.1967 33.9423 27.2052C41.3494 22.2084 48.3463 17.4889 51.8817 20.1095C52.6462 20.6761 53.0195 21.3201 52.9913 22.0236C52.9344 23.4415 51.3804 24.411 48.8061 26.017C45.904 27.8273 41.9294 30.3068 38.7163 34.3835C38.3929 34.7936 37.7988 34.864 37.3887 34.5407C36.9787 34.2176 36.9083 33.6231 37.2313 33.2131C40.6488 28.8773 44.7852 26.2969 47.8053 24.4129C49.1366 23.5823 50.9527 22.4495 51.0975 21.9613C51.0753 21.9212 50.9972 21.8076 50.7559 21.6286C48.2943 19.8042 40.9229 24.777 34.9996 28.7726C29.4015 32.5489 24.4754 35.8715 21.2742 35.8719Z" fill="url(#paint20_linear_2_5208)"/>
</g>
<defs>
<linearGradient id="paint0_linear_2_5208" x1="16.4373" y1="24.0383" x2="42.4029" y2="33.4918" gradientUnits="userSpaceOnUse">
<stop stop-color="#FAA68E"/>
<stop offset="0.2061" stop-color="#FBA682"/>
<stop offset="0.5808" stop-color="#FDA861"/>
<stop offset="1" stop-color="#FFA936"/>
</linearGradient>
<linearGradient id="paint1_linear_2_5208" x1="16.4373" y1="24.0383" x2="42.4029" y2="33.4918" gradientUnits="userSpaceOnUse">
<stop stop-color="#FAA68E"/>
<stop offset="0.2061" stop-color="#FBA682"/>
<stop offset="0.5808" stop-color="#FDA861"/>
<stop offset="1" stop-color="#FFA936"/>
</linearGradient>
<linearGradient id="paint2_linear_2_5208" x1="42.7947" y1="39.4445" x2="-5.77531" y2="42.7217" gradientUnits="userSpaceOnUse">
<stop stop-color="#F82814" stop-opacity="0"/>
<stop offset="0.2454" stop-color="#F12817" stop-opacity="0.245"/>
<stop offset="0.6052" stop-color="#DD2820" stop-opacity="0.605"/>
<stop offset="1" stop-color="#C0272D"/>
</linearGradient>
<linearGradient id="paint3_linear_2_5208" x1="44.2936" y1="39.2992" x2="15.3868" y2="41.3159" gradientUnits="userSpaceOnUse">
<stop stop-color="#F82814" stop-opacity="0"/>
<stop offset="0.2454" stop-color="#F12817" stop-opacity="0.245"/>
<stop offset="0.6052" stop-color="#DD2820" stop-opacity="0.605"/>
<stop offset="1" stop-color="#C0272D"/>
</linearGradient>
<linearGradient id="paint4_linear_2_5208" x1="61.1012" y1="33.5929" x2="51.0174" y2="26.9754" gradientUnits="userSpaceOnUse">
<stop stop-color="#F82814" stop-opacity="0"/>
<stop offset="0.2454" stop-color="#F12817" stop-opacity="0.245"/>
<stop offset="0.6052" stop-color="#DD2820" stop-opacity="0.605"/>
<stop offset="1" stop-color="#C0272D"/>
</linearGradient>
<radialGradient id="paint5_radial_2_5208" cx="0" cy="0" r="1" gradientUnits="userSpaceOnUse" gradientTransform="translate(23.3363 15.6508) scale(37.4361 25.8309)">
<stop stop-color="#A57C52"/>
<stop offset="0.2601" stop-color="#A47950"/>
<stop offset="0.4581" stop-color="#A26F4C"/>
<stop offset="0.6356" stop-color="#9F5F44"/>
<stop offset="0.8011" stop-color="#9A4838"/>
<stop offset="0.9568" stop-color="#942B2A"/>
<stop offset="1" stop-color="#922125"/>
</radialGradient>
<linearGradient id="paint6_linear_2_5208" x1="12.1296" y1="42.0057" x2="11.3488" y2="37.0377" gradientUnits="userSpaceOnUse">
<stop stop-color="#F82814" stop-opacity="0"/>
<stop offset="0.2454" stop-color="#F12817" stop-opacity="0.245"/>
<stop offset="0.6052" stop-color="#DD2820" stop-opacity="0.605"/>
<stop offset="1" stop-color="#C0272D"/>
</linearGradient>
<linearGradient id="paint7_linear_2_5208" x1="9.16525" y1="43.3915" x2="8.54904" y2="39.4694" gradientUnits="userSpaceOnUse">
<stop stop-color="#F82814" stop-opacity="0"/>
<stop offset="0.2454" stop-color="#F12817" stop-opacity="0.245"/>
<stop offset="0.6052" stop-color="#DD2820" stop-opacity="0.605"/>
<stop offset="1" stop-color="#C0272D"/>
</linearGradient>
<linearGradient id="paint8_linear_2_5208" x1="12.151" y1="45.0055" x2="11.7796" y2="42.641" gradientUnits="userSpaceOnUse">
<stop stop-color="#F82814" stop-opacity="0"/>
<stop offset="0.2454" stop-color="#F12817" stop-opacity="0.245"/>
<stop offset="0.6052" stop-color="#DD2820" stop-opacity="0.605"/>
<stop offset="1" stop-color="#C0272D"/>
</linearGradient>
<linearGradient id="paint9_linear_2_5208" x1="16.1151" y1="44.2941" x2="18.4656" y2="41.4164" gradientUnits="userSpaceOnUse">
<stop stop-color="#F82814" stop-opacity="0"/>
<stop offset="0.2454" stop-color="#F12817" stop-opacity="0.245"/>
<stop offset="0.6052" stop-color="#DD2820" stop-opacity="0.605"/>
<stop offset="1" stop-color="#C0272D"/>
</linearGradient>
<linearGradient id="paint10_linear_2_5208" x1="13.8922" y1="43.3445" x2="15.7478" y2="41.0729" gradientUnits="userSpaceOnUse">
<stop stop-color="#F82814" stop-opacity="0"/>
<stop offset="0.2454" stop-color="#F12817" stop-opacity="0.245"/>
<stop offset="0.6052" stop-color="#DD2820" stop-opacity="0.605"/>
<stop offset="1" stop-color="#C0272D"/>
</linearGradient>
<linearGradient id="paint11_linear_2_5208" x1="14.4748" y1="45.7836" x2="15.5935" y2="44.4139" gradientUnits="userSpaceOnUse">
<stop stop-color="#F82814" stop-opacity="0"/>
<stop offset="0.2454" stop-color="#F12817" stop-opacity="0.245"/>
<stop offset="0.6052" stop-color="#DD2820" stop-opacity="0.605"/>
<stop offset="1" stop-color="#C0272D"/>
</linearGradient>
<linearGradient id="paint12_linear_2_5208" x1="48.4352" y1="40.8242" x2="50.7857" y2="37.9467" gradientUnits="userSpaceOnUse">
<stop stop-color="#F82814" stop-opacity="0"/>
<stop offset="0.2454" stop-color="#F12817" stop-opacity="0.245"/>
<stop offset="0.6052" stop-color="#DD2820" stop-opacity="0.605"/>
<stop offset="1" stop-color="#C0272D"/>
</linearGradient>
<linearGradient id="paint13_linear_2_5208" x1="46.2123" y1="39.8751" x2="48.068" y2="37.6034" gradientUnits="userSpaceOnUse">
<stop stop-color="#F82814" stop-opacity="0"/>
<stop offset="0.2454" stop-color="#F12817" stop-opacity="0.245"/>
<stop offset="0.6052" stop-color="#DD2820" stop-opacity="0.605"/>
<stop offset="1" stop-color="#C0272D"/>
</linearGradient>
<linearGradient id="paint14_linear_2_5208" x1="46.7949" y1="42.3141" x2="47.9136" y2="40.9446" gradientUnits="userSpaceOnUse">
<stop stop-color="#F82814" stop-opacity="0"/>
<stop offset="0.2454" stop-color="#F12817" stop-opacity="0.245"/>
<stop offset="0.6052" stop-color="#DD2820" stop-opacity="0.605"/>
<stop offset="1" stop-color="#C0272D"/>
</linearGradient>
<linearGradient id="paint15_linear_2_5208" x1="27.3145" y1="26.1877" x2="-4.00814" y2="-13.1388" gradientUnits="userSpaceOnUse">
<stop stop-color="#42210B" stop-opacity="0"/>
<stop offset="1" stop-color="#42210B"/>
</linearGradient>
<linearGradient id="paint16_linear_2_5208" x1="13.8546" y1="10.7075" x2="24.4425" y2="28.186" gradientUnits="userSpaceOnUse">
<stop stop-color="#FFDECF"/>
<stop offset="0.3791" stop-color="#FDC4B0"/>
<stop offset="0.7655" stop-color="#FBAE97"/>
<stop offset="1" stop-color="#FAA68E"/>
</linearGradient>
<linearGradient id="paint17_linear_2_5208" x1="49.8365" y1="24.4939" x2="16.631" y2="-8.71161" gradientUnits="userSpaceOnUse">
<stop stop-color="#42210B" stop-opacity="0"/>
<stop offset="1" stop-color="#42210B"/>
</linearGradient>
<linearGradient id="paint18_linear_2_5208" x1="38.1418" y1="12.9864" x2="45.8827" y2="22.4102" gradientUnits="userSpaceOnUse">
<stop stop-color="#FFDECF"/>
<stop offset="0.3791" stop-color="#FDC4B0"/>
<stop offset="0.7655" stop-color="#FBAE97"/>
<stop offset="1" stop-color="#FAA68E"/>
</linearGradient>
<linearGradient id="paint19_linear_2_5208" x1="42.2834" y1="39.8136" x2="23.7546" y2="1.24337" gradientUnits="userSpaceOnUse">
<stop stop-color="#42210B" stop-opacity="0"/>
<stop offset="1" stop-color="#42210B"/>
</linearGradient>
<linearGradient id="paint20_linear_2_5208" x1="33.4356" y1="23.7983" x2="41.2505" y2="37.7474" gradientUnits="userSpaceOnUse">
<stop stop-color="#FFDECF"/>
<stop offset="0.3791" stop-color="#FDC4B0"/>
<stop offset="0.7655" stop-color="#FBAE97"/>
<stop offset="1" stop-color="#FAA68E"/>
</linearGradient>
<clipPath id="clip0_2_5208">
<rect width="56" height="56" fill="white"/>
</clipPath>
</defs>
</svg>
