<svg width="56" height="56" viewBox="0 0 56 56" fill="none" xmlns="http://www.w3.org/2000/svg">
<g clip-path="url(#clip0_2_5235)">
<path d="M51.5519 44.241C45.6797 55.1218 32.0987 59.1821 21.2179 53.3099C10.3371 47.4377 6.27692 33.8567 12.149 22.9759C18.0212 12.0951 36.9334 -1.84349 47.8142 4.02871C58.695 9.90081 57.4241 33.3603 51.5519 44.241V44.241Z" fill="url(#paint0_linear_2_5235)"/>
<path d="M32.6161 4.86475C24.1305 8.59599 15.7236 16.3524 12.1491 22.976C6.27688 33.8567 10.3371 47.4378 21.218 53.31C32.0988 59.1821 45.6798 55.1219 51.552 44.2411C53.7785 40.1155 55.3432 34.1816 55.8351 28.0837L32.6161 4.86475Z" fill="url(#paint1_linear_2_5235)"/>
<path d="M12.1491 22.9761C6.27688 33.8568 10.3371 47.4379 21.218 53.3101C32.0987 59.1822 45.6798 55.122 51.552 44.2412C52.7672 41.9896 53.7845 39.1985 54.5387 36.1368L17.2844 16.0312C15.1389 18.3421 13.3643 20.7245 12.1491 22.9761V22.9761Z" fill="url(#paint2_linear_2_5235)"/>
<path d="M44.7749 33.6125C44.7749 45.9768 34.7516 56 22.3875 56C10.0231 56 0 45.9768 0 33.6125C0 21.2484 10.0231 0 22.3875 0C34.7516 0 44.7749 21.2484 44.7749 33.6125V33.6125Z" fill="url(#paint3_linear_2_5235)"/>
<path d="M0 33.6126C0 45.9769 10.0232 56.0001 22.3875 56.0001C34.7516 56.0001 44.7749 45.9769 44.7749 33.6126C44.7749 31.0539 44.3445 28.1145 43.5542 25.062H1.2208C0.430322 28.1146 0 31.054 0 33.6126H0Z" fill="url(#paint4_linear_2_5235)"/>
<path d="M11.6147 44.313L23.2825 55.9808C34.9806 55.5205 44.3713 46.0854 44.7605 34.3691L33.1597 22.7681L11.6147 44.313Z" fill="url(#paint5_linear_2_5235)"/>
<path d="M22.3876 48.7752C30.8014 48.7752 37.6221 41.9545 37.6221 33.5407C37.6221 25.1269 30.8014 18.3062 22.3876 18.3062C13.9738 18.3062 7.15308 25.1269 7.15308 33.5407C7.15308 41.9545 13.9738 48.7752 22.3876 48.7752Z" fill="url(#paint6_linear_2_5235)"/>
<path d="M7.15649 33.7876C7.21798 37.6037 8.70374 41.4011 11.6156 44.313C17.565 50.2625 27.2111 50.2625 33.1605 44.313C36.0724 41.4011 37.5581 37.6037 37.6196 33.7876H7.15649Z" fill="url(#paint7_linear_2_5235)"/>
</g>
<defs>
<linearGradient id="paint0_linear_2_5235" x1="24.4403" y1="18.9324" x2="41.7949" y2="36.2869" gradientUnits="userSpaceOnUse">
<stop stop-color="#FFDFCF"/>
<stop offset="1" stop-color="#FFA78F"/>
</linearGradient>
<linearGradient id="paint1_linear_2_5235" x1="57.4445" y1="34.2773" x2="24.723" y2="29.4459" gradientUnits="userSpaceOnUse">
<stop stop-color="#F89580" stop-opacity="0"/>
<stop offset="0.409" stop-color="#E68872" stop-opacity="0.41"/>
<stop offset="0.9972" stop-color="#C5715A"/>
</linearGradient>
<linearGradient id="paint2_linear_2_5235" x1="31.8948" y1="37.4606" x2="31.0713" y2="59.6948" gradientUnits="userSpaceOnUse">
<stop stop-color="#F89580" stop-opacity="0"/>
<stop offset="0.409" stop-color="#E68872" stop-opacity="0.41"/>
<stop offset="0.9972" stop-color="#C5715A"/>
</linearGradient>
<linearGradient id="paint3_linear_2_5235" x1="9.13788" y1="16.7035" x2="32.7893" y2="40.3549" gradientUnits="userSpaceOnUse">
<stop stop-color="#FFF7F0"/>
<stop offset="1" stop-color="#FFDFCF"/>
</linearGradient>
<linearGradient id="paint4_linear_2_5235" x1="22.3875" y1="40.5177" x2="22.3875" y2="56.4454" gradientUnits="userSpaceOnUse">
<stop stop-color="#FFDFCF" stop-opacity="0"/>
<stop offset="0.9972" stop-color="#FFA78F"/>
</linearGradient>
<linearGradient id="paint5_linear_2_5235" x1="49.868" y1="61.0213" x2="28.027" y2="39.1803" gradientUnits="userSpaceOnUse">
<stop stop-color="#FFCEBF" stop-opacity="0"/>
<stop offset="0.9972" stop-color="#FFA78F"/>
</linearGradient>
<linearGradient id="paint6_linear_2_5235" x1="13.1846" y1="24.3377" x2="34.9876" y2="46.1407" gradientUnits="userSpaceOnUse">
<stop stop-color="#FEE97D"/>
<stop offset="1" stop-color="#FE860A"/>
</linearGradient>
<linearGradient id="paint7_linear_2_5235" x1="22.3882" y1="36.3818" x2="22.3882" y2="50.8446" gradientUnits="userSpaceOnUse">
<stop stop-color="#FE7701" stop-opacity="0"/>
<stop offset="0.398" stop-color="#E05915" stop-opacity="0.398"/>
<stop offset="1" stop-color="#AC2538"/>
</linearGradient>
<clipPath id="clip0_2_5235">
<rect width="56" height="56" fill="white"/>
</clipPath>
</defs>
</svg>
