<svg width="8" height="8" viewBox="0 0 8 8" fill="none" xmlns="http://www.w3.org/2000/svg">
<path fill-rule="evenodd" clip-rule="evenodd" d="M1.17163 1.17151C0.934076 1.40906 0.931518 1.79166 1.16592 2.02605L3.14546 4.0056L1.17723 5.97383C0.939677 6.21139 0.93712 6.59398 1.17152 6.82838C1.40592 7.06278 1.78851 7.06022 2.02606 6.82267L3.9943 4.85443L5.97394 6.83408C6.20834 7.06848 6.59093 7.06592 6.82849 6.82837C7.06604 6.59081 7.0686 6.20822 6.8342 5.97382L4.85455 3.99418L6.82266 2.02607C7.06021 1.78851 7.06277 1.40592 6.82837 1.17152C6.59397 0.937126 6.21138 0.939683 5.97383 1.17724L4.00572 3.14534L2.02617 1.1658C1.79177 0.931399 1.40918 0.933957 1.17163 1.17151Z" fill="#E5E5E5"/>
</svg>
