<svg width="56" height="56" viewBox="0 0 56 56" fill="none" xmlns="http://www.w3.org/2000/svg">
<g clip-path="url(#clip0_2_5249)">
<path d="M11.5213 37.3255L15.1719 37.3604C15.9928 37.3682 16.6647 36.7092 16.6725 35.8883L16.9175 2.98598C16.928 1.87905 15.7683 1.14929 14.775 1.63803L11.623 3.18868C10.8027 3.59221 10.2797 4.42343 10.2711 5.33743L10.0491 35.825C10.0413 36.6458 10.7004 37.3177 11.5213 37.3255V37.3255Z" fill="url(#paint0_linear_2_5249)"/>
<path d="M16.7571 24.5786L16.673 35.8889C16.6643 36.7097 15.9932 37.3685 15.1724 37.361L11.521 37.3252C10.7002 37.3178 10.0414 36.6453 10.0489 35.8245L10.2714 5.33749C10.2775 4.61926 10.6026 3.95308 11.1378 3.50684L15.144 23.3944C15.2961 24.1535 16.0031 24.659 16.7571 24.5786V24.5786Z" fill="url(#paint1_linear_2_5249)"/>
<path d="M26.0813 37.3255L22.4307 37.3604C21.6098 37.3682 20.9379 36.7092 20.9301 35.8883L20.6851 2.98598C20.6746 1.87905 21.8343 1.14929 22.8276 1.63803L25.9797 3.18868C26.7999 3.59221 27.3229 4.42343 27.3316 5.33743L27.5535 35.825C27.5614 36.6458 26.9022 37.3177 26.0813 37.3255Z" fill="url(#paint2_linear_2_5249)"/>
<path d="M38.7683 35.8422L35.1177 35.8771C34.2968 35.8849 33.6249 35.2259 33.6171 34.405L33.3721 1.50265C33.3616 0.395607 34.5213 -0.33404 35.5146 0.154587L38.6666 1.70524C39.4869 2.10877 40.0099 2.93998 40.0185 3.85399L40.2405 34.3416C40.2484 35.1625 39.5892 35.8344 38.7683 35.8422V35.8422Z" fill="url(#paint3_linear_2_5249)"/>
<path d="M44.6326 33.226L40.9999 33.5903C40.1831 33.6722 39.4544 33.0766 39.3725 32.2596L36.8132 6.74502C36.7027 5.64358 37.7919 4.81214 38.8252 5.20908L42.1044 6.46875C42.9577 6.79652 43.5536 7.57711 43.6449 8.48662L45.9632 31.5986C46.0452 32.4154 45.4494 33.1441 44.6326 33.226Z" fill="url(#paint4_linear_2_5249)"/>
<path d="M22.3194 36.6171L18.6868 36.9814C17.87 37.0633 17.136 36.4146 17.0475 35.5323L14.2832 7.9744C14.1639 6.78468 15.2473 5.89603 16.2846 6.33272L19.5764 7.71834C20.433 8.07894 21.0356 8.92607 21.1341 9.90849L23.6381 34.8712C23.7267 35.7535 23.1362 36.5351 22.3194 36.6171V36.6171Z" fill="url(#paint5_linear_2_5249)"/>
<path d="M42.3162 36.7313L45.9079 37.3861C46.7156 37.5334 47.4897 36.998 47.6369 36.1903L53.4699 3.80829C53.6685 2.71925 52.6496 1.80305 51.5877 2.11577L48.2179 3.10818C47.341 3.36644 46.6844 4.09663 46.5204 4.99593L41.1206 35.0024C40.9732 35.8101 41.5085 36.5841 42.3162 36.7313V36.7313Z" fill="url(#paint6_linear_2_5249)"/>
<path d="M48.2171 3.10843C47.3402 3.36669 46.6836 4.09689 46.5197 4.99618L41.1198 35.0026C40.9726 35.8102 41.508 36.5844 42.3156 36.7316L42.9836 36.8534C43.1818 36.6187 43.3271 36.322 43.3885 35.9854L49.3813 2.76562L48.2171 3.10843Z" fill="url(#paint7_linear_2_5249)"/>
<path d="M30.5869 38.0397L34.2229 37.7058C35.0405 37.6307 35.6433 36.8968 35.5694 36.0665L32.5373 2.79433C32.4376 1.67466 31.211 1.0546 30.2712 1.64886L27.2891 3.53452C26.5131 4.02523 26.0756 4.91794 26.1578 5.84249L28.9725 36.6724C29.0465 37.5026 29.7693 38.1147 30.5869 38.0397V38.0397Z" fill="url(#paint8_linear_2_5249)"/>
<path d="M27.2891 3.53417C26.5131 4.02488 26.0756 4.91759 26.1578 5.84214L28.9725 36.672C29.0464 37.5023 29.7691 38.1145 30.5867 38.0395L31.263 37.9774C31.3914 37.6939 31.452 37.3641 31.4211 37.018L28.3193 2.88281L27.2891 3.53417Z" fill="url(#paint9_linear_2_5249)"/>
<path d="M47.3853 23.2618C47.3046 23.1502 47.2074 23.0466 47.0907 22.9558L35.3027 14.0785C32.8721 12.1802 29.512 13.4172 28.7721 16.4113L27.4861 20.3974L28.9719 36.6721C29.0458 37.5025 29.7686 38.1147 30.5862 38.0396L34.2222 37.7057C35.0398 37.6306 35.6426 36.8967 35.5687 36.0664L35.5512 35.8731L38.7673 35.8424C39.5882 35.8346 40.2474 35.1627 40.2395 34.3418L40.2331 33.462C40.4652 33.5686 40.7272 33.6181 40.9997 33.5907L41.3801 33.5526L41.1192 35.0026C40.972 35.8102 41.5074 36.5843 42.315 36.7315L45.9067 37.3863C46.7143 37.5335 47.4884 36.9981 47.6356 36.1905L49.5708 25.4473L47.3853 23.2618Z" fill="url(#paint10_linear_2_5249)"/>
<path d="M23.227 14.0859C22.9032 13.5419 16.6143 15.2982 16.4338 16.1943L12.1748 37.3315L15.1723 37.3601C15.9932 37.3679 16.6651 36.7089 16.6729 35.888L16.7013 32.0779L17.0478 35.5323C17.1363 36.4146 17.8702 37.0633 18.6871 36.9814L21.2012 36.7292C21.4731 37.1146 21.9231 37.365 22.4304 37.3601L26.081 37.3252C26.9019 37.3174 27.5611 36.6455 27.5532 35.8246L28.9725 36.6717C29.0464 37.502 29.7691 38.1143 30.5867 38.0392L34.2228 37.7052C35.0404 37.6301 35.6432 36.8962 35.5693 36.0659L35.5517 35.8726L38.7679 35.8419C39.5888 35.8341 40.2479 35.1622 40.24 34.3413L40.2337 33.4615C40.4658 33.5682 40.7278 33.6176 41.0003 33.5902L42.5736 33.4324L23.227 14.0859Z" fill="url(#paint11_linear_2_5249)"/>
<path d="M47.0908 22.9556L35.3028 13.7489C32.8722 11.8506 29.2925 13.0876 28.5526 16.0817L23.9831 34.5736C23.7842 35.3709 24.2686 36.1769 25.0647 36.3758L28.6073 37.2596C29.4034 37.4586 30.2106 36.9741 30.4095 36.1781L34.1079 21.2238L41.119 26.7021C41.8409 27.2633 42.8162 27.3708 43.6419 26.9777L46.8162 25.4722C47.8164 24.9976 47.9648 23.6354 47.0908 22.9556V22.9556Z" fill="url(#paint12_linear_2_5249)"/>
<path d="M34.1085 21.2236L30.4101 36.1779C30.2111 36.974 29.4039 37.4584 28.6079 37.2595L25.0652 36.3756C24.2692 36.1767 23.7846 35.3707 23.9837 34.5734L28.3866 16.7539L34.1085 21.2236Z" fill="url(#paint13_linear_2_5249)"/>
<path d="M12.9316 36.6094L9.3526 37.3305C8.54785 37.4927 7.76396 36.9717 7.60178 36.1669L2.53685 11.0295C2.31823 9.9443 3.31997 9.00943 4.38749 9.3025L7.77505 10.2324C8.65656 10.4744 9.32658 11.1923 9.5071 12.0884L14.0951 34.8588C14.2572 35.6635 13.7363 36.4473 12.9316 36.6094V36.6094Z" fill="url(#paint14_linear_2_5249)"/>
<path d="M12.9316 36.6094L9.3526 37.3305C8.54785 37.4927 7.76396 36.9717 7.60178 36.1669L2.53685 11.0295C2.31823 9.9443 3.31997 9.00943 4.38749 9.3025L7.77505 10.2324C8.65656 10.4744 9.32658 11.1923 9.5071 12.0884L14.0951 34.8588C14.2572 35.6635 13.7363 36.4473 12.9316 36.6094V36.6094Z" fill="url(#paint15_linear_2_5249)"/>
<path d="M13.009 40.716L16.588 41.4371C17.3927 41.5992 18.1766 41.0782 18.3388 40.2735L23.4038 15.1359C23.6225 14.0507 22.6207 13.1159 21.5532 13.4089L18.1656 14.3389C17.2841 14.5809 16.6141 15.2988 16.4336 16.1949L11.8455 38.9653C11.6832 39.77 12.2043 40.5539 13.009 40.716V40.716Z" fill="url(#paint16_linear_2_5249)"/>
<path d="M4.66724 21.6042L7.60164 36.1673C7.76382 36.9721 8.5476 37.4931 9.35246 37.3309L10.6897 37.0615C10.926 37.2253 11.2121 37.3226 11.5213 37.3255L12.1745 37.3318L11.8454 38.9649C11.6833 39.7697 12.2043 40.5536 13.009 40.7156L16.588 41.4367C17.3927 41.5989 18.1766 41.078 18.3388 40.2731L19.0085 36.9492L21.2011 36.7293C21.4729 37.1147 21.9229 37.3651 22.4302 37.3602L26.0809 37.3253C26.487 37.3215 26.8532 37.1547 27.119 36.8881L28.6077 37.2594C28.7961 37.3065 28.9849 37.3142 29.1664 37.2896C29.4471 37.783 29.9911 38.0939 30.5867 38.0393L34.2227 37.7054C35.0403 37.6302 35.6431 36.8963 35.5692 36.066L35.5517 35.8727L38.7678 35.842C39.5887 35.8342 40.2479 35.1623 40.24 34.3414L40.2336 33.4616C40.4657 33.5683 40.7277 33.6177 41.0003 33.5903L41.3806 33.5522L41.1197 35.0022C40.9725 35.8098 41.5079 36.5839 42.3155 36.7312L45.9072 37.3859C46.7148 37.5332 47.4889 36.9978 47.6362 36.1902L50.2635 21.604H4.66724V21.6042Z" fill="url(#paint17_linear_2_5249)"/>
<path d="M48.7073 28.5493C46.2568 28.5493 43.859 29.1998 41.7106 30.3784C38.3172 32.24 33.3235 33.4165 27.7553 33.4165C22.187 33.4165 17.1934 32.24 13.7999 30.3784C11.6515 29.1998 9.25373 28.5493 6.80324 28.5493C6.0289 28.5493 5.4588 29.2739 5.64074 30.0265L11.0582 52.4236C11.5965 54.6491 13.6669 56.1597 15.9499 55.9864C23.4708 55.4156 32.0395 55.4156 39.5604 55.9864C41.8434 56.1597 43.9138 54.6491 44.452 52.4236L49.8695 30.0265C50.0517 29.2738 49.4815 28.5493 48.7073 28.5493Z" fill="url(#paint18_linear_2_5249)"/>
<path d="M39.7857 39.7957C39.6011 39.503 39.2863 39.2947 38.9078 39.2678C31.7653 38.761 23.7467 38.761 16.604 39.2678C15.9034 39.3176 15.4166 39.9864 15.582 40.669C15.9101 42.0235 16.4272 44.1589 16.7994 45.695C16.9225 46.2029 17.2089 46.6343 17.592 46.9438L26.2136 55.5654C30.7456 55.5242 35.32 55.6644 39.5613 55.9863C41.8443 56.1595 43.9147 54.6489 44.4529 52.4234L46.0035 46.0133L39.7857 39.7957Z" fill="url(#paint19_linear_2_5249)"/>
<path d="M15.5814 40.6691C15.9095 42.0235 16.4267 44.159 16.7988 45.695C17.0598 46.7723 18.0499 47.5119 19.1568 47.4534C24.7585 47.1569 30.7523 47.1569 36.354 47.4534C37.4609 47.5119 38.4511 46.7723 38.712 45.695C39.0841 44.1589 39.6013 42.0235 39.9294 40.6691C40.0947 39.9864 39.608 39.3176 38.9073 39.2678C31.7648 38.761 23.746 38.761 16.6035 39.2678C15.9028 39.3176 15.4162 39.9864 15.5814 40.6691V40.6691Z" fill="url(#paint20_linear_2_5249)"/>
<path d="M10.0496 48.2529L11.0582 52.4232C11.5965 54.6487 13.6668 56.1593 15.9499 55.986C23.4708 55.4153 32.0394 55.4153 39.5604 55.986C41.8434 56.1593 43.9138 54.6487 44.452 52.4232L45.4607 48.2529H10.0496Z" fill="url(#paint21_linear_2_5249)"/>
</g>
<defs>
<linearGradient id="paint0_linear_2_5249" x1="10.0971" y1="17.9542" x2="22.2109" y2="23.1458" gradientUnits="userSpaceOnUse">
<stop stop-color="#FFD945"/>
<stop offset="0.3043" stop-color="#FFCD3E"/>
<stop offset="0.8558" stop-color="#FFAD2B"/>
<stop offset="1" stop-color="#FFA325"/>
</linearGradient>
<linearGradient id="paint1_linear_2_5249" x1="14.0215" y1="20.2153" x2="6.93453" y2="22.2754" gradientUnits="userSpaceOnUse">
<stop stop-color="#F82814" stop-opacity="0"/>
<stop offset="1" stop-color="#C0272D"/>
</linearGradient>
<linearGradient id="paint2_linear_2_5249" x1="32.5872" y1="11.2899" x2="26.654" y2="16.976" gradientUnits="userSpaceOnUse">
<stop stop-color="#FFD945"/>
<stop offset="0.3043" stop-color="#FFCD3E"/>
<stop offset="0.8558" stop-color="#FFAD2B"/>
<stop offset="1" stop-color="#FFA325"/>
</linearGradient>
<linearGradient id="paint3_linear_2_5249" x1="32.4559" y1="17.4737" x2="37.1531" y2="18.3391" gradientUnits="userSpaceOnUse">
<stop stop-color="#FFD945"/>
<stop offset="0.3043" stop-color="#FFCD3E"/>
<stop offset="0.8558" stop-color="#FFAD2B"/>
<stop offset="1" stop-color="#FFA325"/>
</linearGradient>
<linearGradient id="paint4_linear_2_5249" x1="38.7573" y1="19.3034" x2="42.7952" y2="19.5507" gradientUnits="userSpaceOnUse">
<stop stop-color="#FFD945"/>
<stop offset="0.3043" stop-color="#FFCD3E"/>
<stop offset="0.8558" stop-color="#FFAD2B"/>
<stop offset="1" stop-color="#FFA325"/>
</linearGradient>
<linearGradient id="paint5_linear_2_5249" x1="22.6208" y1="19.6768" x2="15.329" y2="22.753" gradientUnits="userSpaceOnUse">
<stop stop-color="#FFD945"/>
<stop offset="0.3043" stop-color="#FFCD3E"/>
<stop offset="0.8558" stop-color="#FFAD2B"/>
<stop offset="1" stop-color="#FFA325"/>
</linearGradient>
<linearGradient id="paint6_linear_2_5249" x1="42.5514" y1="16.3112" x2="53.6129" y2="23.4896" gradientUnits="userSpaceOnUse">
<stop stop-color="#FFD945"/>
<stop offset="0.3043" stop-color="#FFCD3E"/>
<stop offset="0.8558" stop-color="#FFAD2B"/>
<stop offset="1" stop-color="#FFA325"/>
</linearGradient>
<linearGradient id="paint7_linear_2_5249" x1="43.4338" y1="13.3419" x2="53.7346" y2="46.3869" gradientUnits="userSpaceOnUse">
<stop stop-color="#F82814" stop-opacity="0"/>
<stop offset="1" stop-color="#C0272D"/>
</linearGradient>
<linearGradient id="paint8_linear_2_5249" x1="27.2255" y1="18.61" x2="39.8987" y2="22.5959" gradientUnits="userSpaceOnUse">
<stop stop-color="#FFD945"/>
<stop offset="0.3043" stop-color="#FFCD3E"/>
<stop offset="0.8558" stop-color="#FFAD2B"/>
<stop offset="1" stop-color="#FFA325"/>
</linearGradient>
<linearGradient id="paint9_linear_2_5249" x1="21.0557" y1="8.18333" x2="40.0794" y2="37.7086" gradientUnits="userSpaceOnUse">
<stop stop-color="#F82814" stop-opacity="0"/>
<stop offset="1" stop-color="#C0272D"/>
</linearGradient>
<linearGradient id="paint10_linear_2_5249" x1="41.08" y1="36.3974" x2="31.721" y2="9.13412" gradientUnits="userSpaceOnUse">
<stop stop-color="#F82814" stop-opacity="0"/>
<stop offset="1" stop-color="#C0272D"/>
</linearGradient>
<linearGradient id="paint11_linear_2_5249" x1="27.5733" y1="29.9011" x2="4.78017" y2="20.1915" gradientUnits="userSpaceOnUse">
<stop stop-color="#F82814" stop-opacity="0"/>
<stop offset="1" stop-color="#C0272D"/>
</linearGradient>
<linearGradient id="paint12_linear_2_5249" x1="30.7981" y1="25.2574" x2="44.7045" y2="31.2173" gradientUnits="userSpaceOnUse">
<stop stop-color="#FFD945"/>
<stop offset="0.3043" stop-color="#FFCD3E"/>
<stop offset="0.8558" stop-color="#FFAD2B"/>
<stop offset="1" stop-color="#FFA325"/>
</linearGradient>
<linearGradient id="paint13_linear_2_5249" x1="29.1548" y1="27.1615" x2="39.6616" y2="29.6337" gradientUnits="userSpaceOnUse">
<stop stop-color="#F82814" stop-opacity="0"/>
<stop offset="1" stop-color="#C0272D"/>
</linearGradient>
<linearGradient id="paint14_linear_2_5249" x1="3.43868" y1="22.208" x2="16.1228" y2="26.3277" gradientUnits="userSpaceOnUse">
<stop stop-color="#FFD945"/>
<stop offset="0.3043" stop-color="#FFCD3E"/>
<stop offset="0.8558" stop-color="#FFAD2B"/>
<stop offset="1" stop-color="#FFA325"/>
</linearGradient>
<linearGradient id="paint15_linear_2_5249" x1="3.43868" y1="22.208" x2="16.1228" y2="26.3277" gradientUnits="userSpaceOnUse">
<stop stop-color="#FFD945"/>
<stop offset="0.3043" stop-color="#FFCD3E"/>
<stop offset="0.8558" stop-color="#FFAD2B"/>
<stop offset="1" stop-color="#FFA325"/>
</linearGradient>
<linearGradient id="paint16_linear_2_5249" x1="13.5488" y1="25.116" x2="20.8418" y2="28.577" gradientUnits="userSpaceOnUse">
<stop stop-color="#FFD945"/>
<stop offset="0.3043" stop-color="#FFCD3E"/>
<stop offset="0.8558" stop-color="#FFAD2B"/>
<stop offset="1" stop-color="#FFA325"/>
</linearGradient>
<linearGradient id="paint17_linear_2_5249" x1="27.4653" y1="24.8913" x2="27.4653" y2="38.8614" gradientUnits="userSpaceOnUse">
<stop stop-color="#F82814" stop-opacity="0"/>
<stop offset="0.2662" stop-color="#EE2818" stop-opacity="0.266"/>
<stop offset="0.7123" stop-color="#D42724" stop-opacity="0.712"/>
<stop offset="1" stop-color="#C0272D"/>
</linearGradient>
<linearGradient id="paint18_linear_2_5249" x1="13.8948" y1="34.6649" x2="48.5055" y2="49.3744" gradientUnits="userSpaceOnUse">
<stop stop-color="#FF6359"/>
<stop offset="0.2243" stop-color="#FE5B50"/>
<stop offset="0.5952" stop-color="#FC4637"/>
<stop offset="1" stop-color="#F82814"/>
</linearGradient>
<linearGradient id="paint19_linear_2_5249" x1="34.2422" y1="58.4102" x2="29.5451" y2="37.891" gradientUnits="userSpaceOnUse">
<stop stop-color="#F82814" stop-opacity="0"/>
<stop offset="1" stop-color="#C0272D"/>
</linearGradient>
<linearGradient id="paint20_linear_2_5249" x1="26.4574" y1="38.5578" x2="31.4634" y2="50.0529" gradientUnits="userSpaceOnUse">
<stop stop-color="#FFD945"/>
<stop offset="0.3043" stop-color="#FFCD3E"/>
<stop offset="0.8558" stop-color="#FFAD2B"/>
<stop offset="1" stop-color="#FFA325"/>
</linearGradient>
<linearGradient id="paint21_linear_2_5249" x1="27.7552" y1="50.9724" x2="27.7552" y2="58.1938" gradientUnits="userSpaceOnUse">
<stop stop-color="#F82814" stop-opacity="0"/>
<stop offset="1" stop-color="#C0272D"/>
</linearGradient>
<clipPath id="clip0_2_5249">
<rect width="56" height="56" fill="white"/>
</clipPath>
</defs>
</svg>
