<svg width="56" height="56" viewBox="0 0 56 56" fill="none" xmlns="http://www.w3.org/2000/svg">
<g clip-path="url(#clip0_2_5305)">
<path d="M55.9996 15.4863C55.9996 11.8892 50.3802 8.97314 43.4482 8.97314C39.397 8.97314 27.6028 8.97314 23.5516 8.97314C16.6197 8.97314 11.0002 11.8892 11.0002 15.4863C11.0002 18.0505 13.8561 20.2685 18.0073 21.3308C19.0689 21.6025 19.965 22.3039 20.5211 23.248C22.3355 26.3278 26.8952 28.5124 32.2334 28.5124C37.2013 28.5124 41.4946 26.6204 43.5288 23.8757C44.3754 22.7336 45.6172 21.9471 47.0225 21.7309C52.2131 20.9323 55.9996 18.4389 55.9996 15.4863Z" fill="url(#paint0_radial_2_5305)"/>
<path d="M44.6256 9.00191C44.238 8.98325 43.8454 8.97314 43.4484 8.97314C39.7522 8.97314 29.6115 8.97314 24.7857 8.97314C23.2432 10.6573 22.3296 12.7482 22.3296 15.0133C22.3296 15.6405 22.6433 16.197 23.1987 16.6831L34.8483 28.3328C38.6774 27.8008 41.862 26.1249 43.5289 23.8758C44.3755 22.7336 45.6172 21.9472 47.0225 21.731C50.1438 21.2507 52.7558 20.1572 54.3436 18.72L44.6256 9.00191Z" fill="url(#paint1_linear_2_5305)"/>
<path d="M47.0425 15.0136C47.0425 20.5879 22.3296 20.5879 22.3296 15.0136C22.3296 9.43928 27.8617 4.92041 34.6861 4.92041C41.5104 4.92041 47.0425 9.43928 47.0425 15.0136Z" fill="url(#paint2_linear_2_5305)"/>
<path d="M43.6152 13.4048C44.1264 13.4048 44.5408 12.9904 44.5408 12.4793C44.5408 11.9681 44.1264 11.5537 43.6152 11.5537C43.1041 11.5537 42.6897 11.9681 42.6897 12.4793C42.6897 12.9904 43.1041 13.4048 43.6152 13.4048Z" fill="url(#paint3_linear_2_5305)"/>
<path d="M41.8973 15.6036C42.3008 15.6036 42.628 15.2764 42.628 14.8728C42.628 14.4693 42.3008 14.1421 41.8973 14.1421C41.4937 14.1421 41.1665 14.4693 41.1665 14.8728C41.1665 15.2764 41.4937 15.6036 41.8973 15.6036Z" fill="url(#paint4_linear_2_5305)"/>
<path d="M45.0826 15.9265C45.3259 15.9265 45.5232 15.7293 45.5232 15.4859C45.5232 15.2426 45.3259 15.0454 45.0826 15.0454C44.8393 15.0454 44.6421 15.2426 44.6421 15.4859C44.6421 15.7293 44.8393 15.9265 45.0826 15.9265Z" fill="url(#paint5_linear_2_5305)"/>
<path d="M36.7805 7.32372C37.8846 9.43031 36.0071 12.5912 32.5867 14.384C29.1663 16.1768 25.4986 15.9222 24.3946 13.8157C23.2905 11.7091 25.168 8.54814 28.5884 6.75537C32.0088 4.9626 35.6763 5.21713 36.7805 7.32372V7.32372Z" fill="url(#paint6_linear_2_5305)"/>
<path d="M56 31.5787C56 26.4253 47.7947 21.3818 37.6728 21.3818C32.7447 21.3818 18.3378 21.3818 13.3702 21.3818C5.98607 21.3818 0 24.4658 0 28.2699C0 29.3908 0.519702 30.449 1.44173 31.3842C3.31553 33.2849 4.12698 35.9244 3.6635 38.4809C3.5672 39.012 3.51735 39.5555 3.51735 40.1085C3.51735 46.1678 9.50342 51.0798 16.8875 51.0798C19.4623 51.0798 21.8669 50.4824 23.9069 49.4474C25.9931 48.389 28.4069 48.0912 30.7313 48.5256C31.832 48.7314 32.9779 48.8401 34.1547 48.8401C40.8809 48.8401 46.5962 45.2932 48.6715 40.3562C49.0751 39.396 49.8176 38.6005 50.7773 38.1008C54.0082 36.4187 56 34.1173 56 31.5787V31.5787Z" fill="url(#paint7_radial_2_5305)"/>
<path d="M52.728 36.9004L40.1122 24.2846C39.0224 23.1421 37.6947 22.1587 36.1914 21.3818C32.2313 21.3818 25.2963 21.3818 19.8078 21.3818C15.5095 23.6031 12.655 27.5199 12.655 31.9818C12.655 32.7671 13.0511 33.4629 13.7513 34.0701L28.0334 48.3522C28.9304 48.301 29.8377 48.3586 30.7319 48.5257C31.8327 48.7315 32.9785 48.8401 34.1554 48.8401C40.8816 48.8401 46.5969 45.2932 48.6721 40.3562C49.0758 39.3961 49.8183 38.6005 50.778 38.1009C51.4911 37.7297 52.1437 37.328 52.728 36.9004V36.9004Z" fill="url(#paint8_linear_2_5305)"/>
<path d="M43.3461 31.9816C43.3461 38.9044 12.655 38.9044 12.655 31.9816C12.655 25.0587 19.5255 19.4468 28.0006 19.4468C36.4757 19.4468 43.3461 25.0589 43.3461 31.9816Z" fill="url(#paint9_linear_2_5305)"/>
<g opacity="0.6">
<g opacity="0.6">
<path opacity="0.6" d="M25.4089 33.0074C25.9201 33.0074 26.3345 32.593 26.3345 32.0818C26.3345 31.5706 25.9201 31.1562 25.4089 31.1562C24.8978 31.1562 24.4834 31.5706 24.4834 32.0818C24.4834 32.593 24.8978 33.0074 25.4089 33.0074Z" fill="url(#paint10_linear_2_5305)"/>
<path opacity="0.6" d="M23.6909 35.2061C24.0945 35.2061 24.4217 34.879 24.4217 34.4754C24.4217 34.0718 24.0945 33.7446 23.6909 33.7446C23.2874 33.7446 22.9602 34.0718 22.9602 34.4754C22.9602 34.879 23.2874 35.2061 23.6909 35.2061Z" fill="url(#paint11_linear_2_5305)"/>
<path opacity="0.6" d="M26.8763 35.529C27.1196 35.529 27.3169 35.3318 27.3169 35.0885C27.3169 34.8452 27.1196 34.6479 26.8763 34.6479C26.633 34.6479 26.4358 34.8452 26.4358 35.0885C26.4358 35.3318 26.633 35.529 26.8763 35.529Z" fill="url(#paint12_linear_2_5305)"/>
</g>
<g opacity="0.6">
<path opacity="0.6" d="M30.3036 33.4631C30.6813 33.4631 30.9876 33.1569 30.9876 32.7792C30.9876 32.4014 30.6813 32.0952 30.3036 32.0952C29.9259 32.0952 29.6196 32.4014 29.6196 32.7792C29.6196 33.1569 29.9259 33.4631 30.3036 33.4631Z" fill="url(#paint13_linear_2_5305)"/>
<path opacity="0.6" d="M28.1388 33.552C28.4369 33.552 28.6787 33.3102 28.6787 33.0121C28.6787 32.7139 28.4369 32.4722 28.1388 32.4722C27.8406 32.4722 27.5989 32.7139 27.5989 33.0121C27.5989 33.3102 27.8406 33.552 28.1388 33.552Z" fill="url(#paint14_linear_2_5305)"/>
<path opacity="0.6" d="M29.3702 35.3938C29.5501 35.3938 29.6958 35.248 29.6958 35.0682C29.6958 34.8884 29.5501 34.7427 29.3702 34.7427C29.1904 34.7427 29.0447 34.8884 29.0447 35.0682C29.0447 35.248 29.1904 35.3938 29.3702 35.3938Z" fill="url(#paint15_linear_2_5305)"/>
</g>
</g>
<path d="M30.0865 23.5947C31.516 26.3221 29.6589 30.1139 25.9385 32.0638C22.2181 34.0137 18.0433 33.3836 16.6137 30.6561C15.1842 27.9287 17.0413 24.1369 20.7617 22.187C24.4821 20.2371 28.6569 20.8672 30.0865 23.5947Z" fill="url(#paint16_linear_2_5305)"/>
</g>
<defs>
<radialGradient id="paint0_radial_2_5305" cx="0" cy="0" r="1" gradientUnits="userSpaceOnUse" gradientTransform="translate(27.1019 13.6473) scale(25.8388 17.502)">
<stop stop-color="#F8F6FB"/>
<stop offset="0.5047" stop-color="#F7F4FB"/>
<stop offset="0.7657" stop-color="#F5ECFB"/>
<stop offset="0.9705" stop-color="#F0DFFB"/>
<stop offset="1" stop-color="#EFDCFB"/>
</radialGradient>
<linearGradient id="paint1_linear_2_5305" x1="41.8592" y1="25.2316" x2="30.4288" y2="-1.29582" gradientUnits="userSpaceOnUse">
<stop stop-color="#EFDCFB" stop-opacity="0"/>
<stop offset="0.0287" stop-color="#E9D6F7" stop-opacity="0.029"/>
<stop offset="0.2203" stop-color="#C5B5DE" stop-opacity="0.22"/>
<stop offset="0.4138" stop-color="#AA9BCB" stop-opacity="0.414"/>
<stop offset="0.6078" stop-color="#9688BD" stop-opacity="0.608"/>
<stop offset="0.8028" stop-color="#8A7DB5" stop-opacity="0.803"/>
<stop offset="1" stop-color="#8679B2"/>
</linearGradient>
<linearGradient id="paint2_linear_2_5305" x1="33.0497" y1="10.2338" x2="38.3202" y2="23.6299" gradientUnits="userSpaceOnUse">
<stop stop-color="#FFA936"/>
<stop offset="0.4112" stop-color="#FF8548"/>
<stop offset="0.7781" stop-color="#FF6C54"/>
<stop offset="1" stop-color="#FF6359"/>
</linearGradient>
<linearGradient id="paint3_linear_2_5305" x1="44.444" y1="13.6678" x2="42.079" y2="9.97729" gradientUnits="userSpaceOnUse">
<stop stop-color="#F82814" stop-opacity="0"/>
<stop offset="0.2454" stop-color="#F12817" stop-opacity="0.245"/>
<stop offset="0.6052" stop-color="#DD2820" stop-opacity="0.605"/>
<stop offset="1" stop-color="#C0272D"/>
</linearGradient>
<linearGradient id="paint4_linear_2_5305" x1="42.5653" y1="15.8129" x2="40.6983" y2="12.8993" gradientUnits="userSpaceOnUse">
<stop stop-color="#F82814" stop-opacity="0"/>
<stop offset="0.2454" stop-color="#F12817" stop-opacity="0.245"/>
<stop offset="0.6052" stop-color="#DD2820" stop-opacity="0.605"/>
<stop offset="1" stop-color="#C0272D"/>
</linearGradient>
<linearGradient id="paint5_linear_2_5305" x1="45.5139" y1="16.0538" x2="44.3883" y2="14.2973" gradientUnits="userSpaceOnUse">
<stop stop-color="#F82814" stop-opacity="0"/>
<stop offset="0.2454" stop-color="#F12817" stop-opacity="0.245"/>
<stop offset="0.6052" stop-color="#DD2820" stop-opacity="0.605"/>
<stop offset="1" stop-color="#C0272D"/>
</linearGradient>
<linearGradient id="paint6_linear_2_5305" x1="31.0662" y1="11.2768" x2="25.214" y2="0.120402" gradientUnits="userSpaceOnUse">
<stop stop-color="white" stop-opacity="0"/>
<stop offset="1" stop-color="white"/>
</linearGradient>
<radialGradient id="paint7_radial_2_5305" cx="0" cy="0" r="1" gradientUnits="userSpaceOnUse" gradientTransform="translate(22.3697 21.427) scale(30.3903 30.3902)">
<stop stop-color="#F8F6FB"/>
<stop offset="0.5047" stop-color="#F7F4FB"/>
<stop offset="0.7657" stop-color="#F5ECFB"/>
<stop offset="0.9705" stop-color="#F0DFFB"/>
<stop offset="1" stop-color="#EFDCFB"/>
</radialGradient>
<linearGradient id="paint8_linear_2_5305" x1="35.0883" y1="43.0001" x2="26.0549" y2="11.3433" gradientUnits="userSpaceOnUse">
<stop stop-color="#EFDCFB" stop-opacity="0"/>
<stop offset="0.0287" stop-color="#E9D6F7" stop-opacity="0.029"/>
<stop offset="0.2203" stop-color="#C5B5DE" stop-opacity="0.22"/>
<stop offset="0.4138" stop-color="#AA9BCB" stop-opacity="0.414"/>
<stop offset="0.6078" stop-color="#9688BD" stop-opacity="0.608"/>
<stop offset="0.8028" stop-color="#8A7DB5" stop-opacity="0.803"/>
<stop offset="1" stop-color="#8679B2"/>
</linearGradient>
<linearGradient id="paint9_linear_2_5305" x1="25.5916" y1="22.362" x2="29.666" y2="37.7393" gradientUnits="userSpaceOnUse">
<stop stop-color="#FFD945"/>
<stop offset="0.3043" stop-color="#FFCD3E"/>
<stop offset="0.8558" stop-color="#FFAD2B"/>
<stop offset="1" stop-color="#FFA325"/>
</linearGradient>
<linearGradient id="paint10_linear_2_5305" x1="26.2305" y1="33.2824" x2="23.8655" y2="29.5918" gradientUnits="userSpaceOnUse">
<stop stop-color="#F82814" stop-opacity="0"/>
<stop offset="0.2454" stop-color="#F12817" stop-opacity="0.245"/>
<stop offset="0.6052" stop-color="#DD2820" stop-opacity="0.605"/>
<stop offset="1" stop-color="#C0272D"/>
</linearGradient>
<linearGradient id="paint11_linear_2_5305" x1="24.3517" y1="35.4274" x2="22.4847" y2="32.514" gradientUnits="userSpaceOnUse">
<stop stop-color="#F82814" stop-opacity="0"/>
<stop offset="0.2454" stop-color="#F12817" stop-opacity="0.245"/>
<stop offset="0.6052" stop-color="#DD2820" stop-opacity="0.605"/>
<stop offset="1" stop-color="#C0272D"/>
</linearGradient>
<linearGradient id="paint12_linear_2_5305" x1="27.3005" y1="35.6683" x2="26.1749" y2="33.9118" gradientUnits="userSpaceOnUse">
<stop stop-color="#F82814" stop-opacity="0"/>
<stop offset="0.2454" stop-color="#F12817" stop-opacity="0.245"/>
<stop offset="0.6052" stop-color="#DD2820" stop-opacity="0.605"/>
<stop offset="1" stop-color="#C0272D"/>
</linearGradient>
<linearGradient id="paint13_linear_2_5305" x1="30.0666" y1="33.7888" x2="30.9334" y2="30.6687" gradientUnits="userSpaceOnUse">
<stop stop-color="#F82814" stop-opacity="0"/>
<stop offset="0.2454" stop-color="#F12817" stop-opacity="0.245"/>
<stop offset="0.6052" stop-color="#DD2820" stop-opacity="0.605"/>
<stop offset="1" stop-color="#C0272D"/>
</linearGradient>
<linearGradient id="paint14_linear_2_5305" x1="27.9597" y1="33.8108" x2="28.6442" y2="31.3478" gradientUnits="userSpaceOnUse">
<stop stop-color="#F82814" stop-opacity="0"/>
<stop offset="0.2454" stop-color="#F12817" stop-opacity="0.245"/>
<stop offset="0.6052" stop-color="#DD2820" stop-opacity="0.605"/>
<stop offset="1" stop-color="#C0272D"/>
</linearGradient>
<linearGradient id="paint15_linear_2_5305" x1="29.2795" y1="35.5527" x2="29.692" y2="34.0678" gradientUnits="userSpaceOnUse">
<stop stop-color="#F82814" stop-opacity="0"/>
<stop offset="0.2454" stop-color="#F12817" stop-opacity="0.245"/>
<stop offset="0.6052" stop-color="#DD2820" stop-opacity="0.605"/>
<stop offset="1" stop-color="#C0272D"/>
</linearGradient>
<linearGradient id="paint16_linear_2_5305" x1="24.0377" y1="28.4541" x2="16.4582" y2="14.011" gradientUnits="userSpaceOnUse">
<stop stop-color="white" stop-opacity="0"/>
<stop offset="1" stop-color="white"/>
</linearGradient>
<clipPath id="clip0_2_5305">
<rect width="56" height="56" fill="white"/>
</clipPath>
</defs>
</svg>
