<svg width="56" height="56" viewBox="0 0 56 56" fill="none" xmlns="http://www.w3.org/2000/svg">
<g clip-path="url(#clip0_2_5278)">
<path d="M54.2761 16.4637C56.51 14.2067 56.577 10.54 54.4221 8.20755C53.1587 6.84005 51.4212 6.20187 49.714 6.29082C49.803 4.58292 49.1638 2.84429 47.7952 1.58078C45.4622 -0.572918 41.7964 -0.5044 39.5401 1.72956C37.7592 3.4929 37.3204 6.09536 38.2239 8.27201C38.7908 9.63775 38.5155 11.2067 37.4699 12.2523L33.4683 16.2539L39.7504 22.536L43.752 18.5344C44.7975 17.4888 46.3665 17.2133 47.7321 17.7803C49.9093 18.6844 52.5128 18.2454 54.2761 16.4637V16.4637Z" fill="url(#paint0_linear_2_5278)"/>
<path d="M39.5186 10.2042C40.7652 11.4508 42.4267 12.0316 44.0586 11.9458C44.132 10.5221 44.7128 9.12059 45.8002 8.0332C46.8876 6.94581 48.2898 6.36451 49.7135 6.29094C49.7992 4.65904 49.2185 2.99759 47.9719 1.75099C45.6372 -0.583663 41.8526 -0.583663 39.5181 1.75099C37.184 4.08498 37.184 7.86959 39.5186 10.2042V10.2042Z" fill="url(#paint1_linear_2_5278)"/>
<path d="M39.7505 22.5362L42.3311 19.9556L39.0327 16.6572C38.6683 16.2341 38.0938 16.0177 37.5087 16.1583C37.1525 16.2439 36.7876 16.1792 36.4899 15.9965L36.4827 15.9894C36.4568 15.9635 35.9682 15.4748 35.9682 15.4748C35.6596 15.1663 35.286 14.9522 34.8869 14.8354L33.4683 16.2541L39.7505 22.5362Z" fill="url(#paint2_linear_2_5278)"/>
<path d="M4.95155 26.3149L4.94089 26.3828C4.75763 27.5493 4.07443 28.578 3.07027 29.1993L3.0381 29.2192C1.52907 30.153 0.803263 31.9602 1.24709 33.6783L1.26499 33.7475C1.55498 34.8702 1.35031 36.0633 0.702682 37.0251L0.695765 37.0354C-0.311796 38.5316 -0.20913 40.5137 0.947655 41.8979L1.07832 42.0541C1.77294 42.8852 2.07457 43.976 1.90569 45.0459V45.0461C1.6235 46.8333 2.61426 48.5783 4.2936 49.2518L4.44129 49.3111C5.46817 49.7229 6.28204 50.5368 6.69369 51.5638L6.70248 51.5859C7.38908 53.2986 9.14419 54.3142 10.9766 54.0969C12.0839 53.9656 13.1965 54.2964 14.0524 55.0118L14.1066 55.057C15.4902 56.2136 17.4717 56.3166 18.9677 55.3097L18.9802 55.3012C19.9416 54.654 21.1342 54.4496 22.2563 54.7396L22.3255 54.7575C24.0438 55.2014 25.851 54.4757 26.785 52.9667L26.8049 52.9343C27.4264 51.9301 28.4551 51.247 29.6216 51.0636L29.6895 51.053C31.427 50.7799 32.79 49.417 33.0632 47.6794L33.0739 47.6115C33.2574 46.4448 33.9404 45.4162 34.9446 44.7946L34.9775 44.7742C36.4863 43.8402 37.2117 42.0334 36.7678 40.3154L36.7499 40.246C36.4599 39.1235 36.6645 37.9307 37.312 36.9692L37.3194 36.9581C37.8069 36.2343 37.6929 34.9822 37.4332 33.8621C37.1598 32.683 37.7254 31.5056 38.7656 30.8865C38.7765 30.8799 38.7862 30.8736 38.7943 30.8675C39.3167 30.4741 39.6421 29.8472 39.5952 29.1619C39.5675 28.7554 39.7438 28.3613 40.0493 28.0916L41.3805 26.9164C41.9408 26.4218 42.0166 25.5511 41.508 25.0037C41.148 24.6162 41.0485 24.0545 41.2524 23.5675L41.9031 22.0134C42.3447 20.9588 41.5701 19.7945 40.4267 19.7945C40.0772 19.7945 39.7777 19.5443 39.7158 19.2003L39.3944 17.4165C39.2351 16.532 38.3822 15.9482 37.5084 16.1581C36.9409 16.2945 36.3511 16.0499 36.0465 15.5532L35.968 15.4747C35.1799 14.6866 33.9699 14.5051 32.9854 15.0274C32.5992 15.2322 32.1245 15.161 31.8154 14.8519C31.0813 14.1177 29.9726 14.1979 29.3515 15.0299L28.7098 15.8897C28.4821 16.1948 28.1357 16.3893 27.7565 16.4247L26.732 16.5206C26.0988 16.5798 25.5162 16.8439 25.061 17.2552C25.0579 17.258 25.0547 17.261 25.0514 17.2641C24.2822 17.9891 23.2156 18.3165 22.1833 18.089C21.1254 17.8558 19.9892 18.0498 19.0461 18.6851L19.0358 18.692C18.0744 19.3397 16.8815 19.5445 15.7592 19.2545L15.6893 19.2364C13.9711 18.7924 12.1639 19.5182 11.2299 21.0273L11.2098 21.0597C10.5884 22.0637 9.55991 22.7468 8.39346 22.9302L8.32527 22.9409C6.58762 23.2141 5.22463 24.5773 4.95155 26.3149V26.3149Z" fill="url(#paint3_radial_2_5278)"/>
<path d="M41.9035 22.0134C42.3452 20.9587 41.5705 19.7945 40.4271 19.7945C40.0776 19.7945 39.7782 19.5442 39.7162 19.2002L39.3948 17.4165C39.2355 16.532 38.3827 15.9482 37.5088 16.1581C37.4265 16.1779 37.3437 16.1887 37.2612 16.1929L36.9742 16.8783C36.7703 17.3653 36.8698 17.927 37.2298 18.3145C37.7385 18.8619 37.6626 19.7327 37.1023 20.2272L35.7711 21.4024C35.4656 21.6721 35.2893 22.0662 35.317 22.4727C35.3639 23.1581 35.0385 23.7849 34.5161 24.1783C34.508 24.1844 34.4983 24.1908 34.4874 24.1974C33.4473 24.8165 32.8817 25.9939 33.155 27.173C33.4147 28.2931 33.5287 29.5452 33.0412 30.269L33.0338 30.2801C32.3863 31.2416 32.1816 32.4346 32.4717 33.5569L32.4896 33.6263C32.9335 35.3441 32.2081 37.1511 30.6993 38.0851L30.6664 38.1055C29.6622 38.7271 28.9792 39.7557 28.7957 40.9225L28.785 40.9904C28.5118 42.7279 27.1489 44.0908 25.4113 44.364L25.3434 44.3746C24.1768 44.558 23.1482 45.2411 22.5268 46.2453L22.5068 46.2776C21.5728 47.7867 19.7655 48.5124 18.0473 48.0684L17.9781 48.0505C16.856 47.7607 15.6635 47.9651 14.702 48.6122L14.6895 48.6206C13.1934 49.6275 11.2119 49.5247 9.82836 48.368L9.77423 48.3227C8.91831 47.6073 7.80567 47.2765 6.6984 47.4079C4.866 47.6252 3.11089 46.6096 2.42429 44.8969L2.41539 44.8748C2.28736 44.5555 2.12046 44.2569 1.9204 43.9845C1.96509 44.3339 1.96201 44.6911 1.9059 45.0461V45.0462C1.62371 46.8335 2.61447 48.5785 4.29381 49.2519L4.44149 49.3112C5.46838 49.7231 6.28225 50.5369 6.6939 51.5639L6.7028 51.586C7.3894 53.2987 9.14451 54.3143 10.9769 54.097C12.0842 53.9657 13.1968 54.2965 14.0527 55.0119L14.1069 55.0571C15.4905 56.2137 17.472 56.3167 18.968 55.3098L18.9805 55.3013C19.942 54.6541 21.1345 54.4497 22.2566 54.7397L22.3258 54.7576C24.044 55.2015 25.8513 54.4758 26.7853 52.9668L26.8053 52.9344C27.4268 51.9302 28.4554 51.2472 29.622 51.0638L29.6898 51.0531C31.4273 50.78 32.7903 49.4172 33.0635 47.6795L33.0742 47.6117C33.2577 46.445 33.9408 45.4163 34.9449 44.7947L34.9779 44.7743C36.4866 43.8404 37.212 42.0335 36.7681 40.3155L36.7502 40.2461C36.4602 39.1237 36.6648 37.9309 37.3123 36.9693L37.3198 36.9583C37.8072 36.2344 37.6932 34.9823 37.4335 33.8622C37.1601 32.6831 37.7258 31.5057 38.7659 30.8866C38.7769 30.8801 38.7865 30.8737 38.7946 30.8675C39.317 30.4741 39.6424 29.8472 39.5956 29.162C39.5678 28.7555 39.744 28.3614 40.0496 28.0917L41.3809 26.9165C41.9411 26.4219 42.0171 25.5512 41.5083 25.0038C41.1483 24.6163 41.0488 24.0546 41.2527 23.5676L41.9035 22.0134Z" fill="url(#paint4_linear_2_5278)"/>
<g opacity="0.6">
<g opacity="0.6">
<path opacity="0.6" d="M8.66442 42.5828C9.32828 42.5828 9.86645 42.0446 9.86645 41.3808C9.86645 40.7169 9.32828 40.1787 8.66442 40.1787C8.00057 40.1787 7.4624 40.7169 7.4624 41.3808C7.4624 42.0446 8.00057 42.5828 8.66442 42.5828Z" fill="url(#paint5_linear_2_5278)"/>
<path opacity="0.6" d="M5.37202 44.2797C5.8961 44.2797 6.32094 43.8548 6.32094 43.3308C6.32094 42.8067 5.8961 42.3818 5.37202 42.3818C4.84794 42.3818 4.4231 42.8067 4.4231 43.3308C4.4231 43.8548 4.84794 44.2797 5.37202 44.2797Z" fill="url(#paint6_linear_2_5278)"/>
<path opacity="0.6" d="M8.83966 46.2936C9.15561 46.2936 9.41174 46.0374 9.41174 45.7215C9.41174 45.4055 9.15561 45.1494 8.83966 45.1494C8.52371 45.1494 8.26758 45.4055 8.26758 45.7215C8.26758 46.0374 8.52371 46.2936 8.83966 46.2936Z" fill="url(#paint7_linear_2_5278)"/>
</g>
<g opacity="0.6">
<path opacity="0.6" d="M14.1211 45.6519C14.6117 45.6519 15.0093 45.2542 15.0093 44.7637C15.0093 44.2731 14.6117 43.8755 14.1211 43.8755C13.6306 43.8755 13.2329 44.2731 13.2329 44.7637C13.2329 45.2542 13.6306 45.6519 14.1211 45.6519Z" fill="url(#paint8_linear_2_5278)"/>
<path opacity="0.6" d="M11.4248 44.6124C11.8121 44.6124 12.126 44.2985 12.126 43.9112C12.126 43.5239 11.8121 43.21 11.4248 43.21C11.0376 43.21 10.7236 43.5239 10.7236 43.9112C10.7236 44.2985 11.0376 44.6124 11.4248 44.6124Z" fill="url(#paint9_linear_2_5278)"/>
<path opacity="0.6" d="M11.8163 47.4217C12.0498 47.4217 12.239 47.2324 12.239 46.9989C12.239 46.7654 12.0498 46.5762 11.8163 46.5762C11.5828 46.5762 11.3936 46.7654 11.3936 46.9989C11.3936 47.2324 11.5828 47.4217 11.8163 47.4217Z" fill="url(#paint10_linear_2_5278)"/>
</g>
<g opacity="0.6">
<path opacity="0.6" d="M33.2058 20.669C33.6964 20.669 34.094 20.2713 34.094 19.7808C34.094 19.2902 33.6964 18.8926 33.2058 18.8926C32.7153 18.8926 32.3176 19.2902 32.3176 19.7808C32.3176 20.2713 32.7153 20.669 33.2058 20.669Z" fill="url(#paint11_linear_2_5278)"/>
<path opacity="0.6" d="M30.5096 19.6295C30.8968 19.6295 31.2108 19.3155 31.2108 18.9283C31.2108 18.541 30.8968 18.2271 30.5096 18.2271C30.1223 18.2271 29.8083 18.541 29.8083 18.9283C29.8083 19.3155 30.1223 19.6295 30.5096 19.6295Z" fill="url(#paint12_linear_2_5278)"/>
<path opacity="0.6" d="M30.901 22.4387C31.1345 22.4387 31.3238 22.2495 31.3238 22.016C31.3238 21.7825 31.1345 21.5933 30.901 21.5933C30.6675 21.5933 30.4783 21.7825 30.4783 22.016C30.4783 22.2495 30.6675 22.4387 30.901 22.4387Z" fill="url(#paint13_linear_2_5278)"/>
</g>
</g>
<path d="M40.8063 31.7334C41.7653 31.7334 41.7653 35.2062 40.8063 35.2062C39.8472 35.2062 39.0698 34.4288 39.0698 33.4697C39.0698 32.5107 39.8472 31.7334 40.8063 31.7334Z" fill="url(#paint14_linear_2_5278)"/>
<path d="M0.209229 22.0777C0.209229 21.1186 3.682 21.1186 3.682 22.0777C3.682 23.0367 2.90459 23.8141 1.94556 23.8141C0.98653 23.8141 0.209229 23.0366 0.209229 22.0777V22.0777Z" fill="url(#paint15_linear_2_5278)"/>
<path d="M42.9573 31.7172C43.4149 31.7172 43.7858 31.3463 43.7858 30.8887C43.7858 30.431 43.4149 30.0601 42.9573 30.0601C42.4996 30.0601 42.1287 30.431 42.1287 30.8887C42.1287 31.3463 42.4996 31.7172 42.9573 31.7172Z" fill="url(#paint16_linear_2_5278)"/>
<path d="M0.833219 49.1518C1.29083 49.1518 1.6618 48.7808 1.6618 48.3232C1.6618 47.8656 1.29083 47.4946 0.833219 47.4946C0.375607 47.4946 0.00463867 47.8656 0.00463867 48.3232C0.00463867 48.7808 0.375607 49.1518 0.833219 49.1518Z" fill="url(#paint17_linear_2_5278)"/>
<path d="M42.5433 39.3048C43.2296 39.3048 43.786 38.7484 43.786 38.0621C43.786 37.3757 43.2296 36.8193 42.5433 36.8193C41.8569 36.8193 41.3005 37.3757 41.3005 38.0621C41.3005 38.7484 41.8569 39.3048 42.5433 39.3048Z" fill="url(#paint18_linear_2_5278)"/>
<path d="M1.85751 28.3898C2.54386 28.3898 3.10027 27.8334 3.10027 27.147C3.10027 26.4607 2.54386 25.9043 1.85751 25.9043C1.17115 25.9043 0.614746 26.4607 0.614746 27.147C0.614746 27.8334 1.17115 28.3898 1.85751 28.3898Z" fill="url(#paint19_linear_2_5278)"/>
</g>
<defs>
<linearGradient id="paint0_linear_2_5278" x1="40.9519" y1="11.1324" x2="50.8608" y2="12.7493" gradientUnits="userSpaceOnUse">
<stop stop-color="#F8F6FB"/>
<stop offset="1" stop-color="#EFDCFB"/>
</linearGradient>
<linearGradient id="paint1_linear_2_5278" x1="43.0455" y1="6.11327" x2="61.5024" y2="0.23316" gradientUnits="userSpaceOnUse">
<stop stop-color="#EFDCFB" stop-opacity="0"/>
<stop offset="0.4856" stop-color="#BAAAD6" stop-opacity="0.486"/>
<stop offset="1" stop-color="#8679B2"/>
</linearGradient>
<linearGradient id="paint2_linear_2_5278" x1="44.1104" y1="24.3123" x2="34.7114" y2="14.9133" gradientUnits="userSpaceOnUse">
<stop stop-color="#EFDCFB" stop-opacity="0"/>
<stop offset="0.4856" stop-color="#BAAAD6" stop-opacity="0.486"/>
<stop offset="1" stop-color="#8679B2"/>
</linearGradient>
<radialGradient id="paint3_radial_2_5278" cx="0" cy="0" r="1" gradientUnits="userSpaceOnUse" gradientTransform="translate(4.48697 17.625) rotate(-45) scale(37.1897)">
<stop stop-color="#FFD945"/>
<stop offset="0.3111" stop-color="#FFD643"/>
<stop offset="0.5584" stop-color="#FFCC3D"/>
<stop offset="0.7831" stop-color="#FFBB33"/>
<stop offset="0.9944" stop-color="#FFA425"/>
<stop offset="1" stop-color="#FFA325"/>
</radialGradient>
<linearGradient id="paint4_linear_2_5278" x1="24.8241" y1="35.406" x2="93.6421" y2="55.0329" gradientUnits="userSpaceOnUse">
<stop stop-color="#F82814" stop-opacity="0"/>
<stop offset="1" stop-color="#C0272D"/>
</linearGradient>
<linearGradient id="paint5_linear_2_5278" x1="8.80675" y1="43.2178" x2="7.92352" y2="37.5975" gradientUnits="userSpaceOnUse">
<stop stop-color="#F82814" stop-opacity="0"/>
<stop offset="0.2454" stop-color="#F12817" stop-opacity="0.245"/>
<stop offset="0.6052" stop-color="#DD2820" stop-opacity="0.605"/>
<stop offset="1" stop-color="#C0272D"/>
</linearGradient>
<linearGradient id="paint6_linear_2_5278" x1="5.45361" y1="44.7855" x2="4.75635" y2="40.3486" gradientUnits="userSpaceOnUse">
<stop stop-color="#F82814" stop-opacity="0"/>
<stop offset="0.2454" stop-color="#F12817" stop-opacity="0.245"/>
<stop offset="0.6052" stop-color="#DD2820" stop-opacity="0.605"/>
<stop offset="1" stop-color="#C0272D"/>
</linearGradient>
<linearGradient id="paint7_linear_2_5278" x1="8.83108" y1="46.6112" x2="8.41066" y2="43.9362" gradientUnits="userSpaceOnUse">
<stop stop-color="#F82814" stop-opacity="0"/>
<stop offset="0.2454" stop-color="#F12817" stop-opacity="0.245"/>
<stop offset="0.6052" stop-color="#DD2820" stop-opacity="0.605"/>
<stop offset="1" stop-color="#C0272D"/>
</linearGradient>
<linearGradient id="paint8_linear_2_5278" x1="13.1955" y1="45.7577" x2="15.8545" y2="42.5023" gradientUnits="userSpaceOnUse">
<stop stop-color="#F82814" stop-opacity="0"/>
<stop offset="0.2454" stop-color="#F12817" stop-opacity="0.245"/>
<stop offset="0.6052" stop-color="#DD2820" stop-opacity="0.605"/>
<stop offset="1" stop-color="#C0272D"/>
</linearGradient>
<linearGradient id="paint9_linear_2_5278" x1="10.6799" y1="44.6841" x2="12.7791" y2="42.1141" gradientUnits="userSpaceOnUse">
<stop stop-color="#F82814" stop-opacity="0"/>
<stop offset="0.2454" stop-color="#F12817" stop-opacity="0.245"/>
<stop offset="0.6052" stop-color="#DD2820" stop-opacity="0.605"/>
<stop offset="1" stop-color="#C0272D"/>
</linearGradient>
<linearGradient id="paint10_linear_2_5278" x1="11.3386" y1="47.4433" x2="12.6042" y2="45.8939" gradientUnits="userSpaceOnUse">
<stop stop-color="#F82814" stop-opacity="0"/>
<stop offset="0.2454" stop-color="#F12817" stop-opacity="0.245"/>
<stop offset="0.6052" stop-color="#DD2820" stop-opacity="0.605"/>
<stop offset="1" stop-color="#C0272D"/>
</linearGradient>
<linearGradient id="paint11_linear_2_5278" x1="32.2842" y1="20.7835" x2="34.9434" y2="17.528" gradientUnits="userSpaceOnUse">
<stop stop-color="#F82814" stop-opacity="0"/>
<stop offset="0.2454" stop-color="#F12817" stop-opacity="0.245"/>
<stop offset="0.6052" stop-color="#DD2820" stop-opacity="0.605"/>
<stop offset="1" stop-color="#C0272D"/>
</linearGradient>
<linearGradient id="paint12_linear_2_5278" x1="29.7687" y1="19.7099" x2="31.868" y2="17.1399" gradientUnits="userSpaceOnUse">
<stop stop-color="#F82814" stop-opacity="0"/>
<stop offset="0.2454" stop-color="#F12817" stop-opacity="0.245"/>
<stop offset="0.6052" stop-color="#DD2820" stop-opacity="0.605"/>
<stop offset="1" stop-color="#C0272D"/>
</linearGradient>
<linearGradient id="paint13_linear_2_5278" x1="30.4274" y1="22.469" x2="31.693" y2="20.9195" gradientUnits="userSpaceOnUse">
<stop stop-color="#F82814" stop-opacity="0"/>
<stop offset="0.2454" stop-color="#F12817" stop-opacity="0.245"/>
<stop offset="0.6052" stop-color="#DD2820" stop-opacity="0.605"/>
<stop offset="1" stop-color="#C0272D"/>
</linearGradient>
<linearGradient id="paint14_linear_2_5278" x1="38.7775" y1="34.4929" x2="41.5751" y2="32.9494" gradientUnits="userSpaceOnUse">
<stop stop-color="#FFD945"/>
<stop offset="0.3043" stop-color="#FFCD3E"/>
<stop offset="0.8558" stop-color="#FFAD2B"/>
<stop offset="1" stop-color="#FFA325"/>
</linearGradient>
<linearGradient id="paint15_linear_2_5278" x1="2.96882" y1="24.1064" x2="1.42529" y2="21.3088" gradientUnits="userSpaceOnUse">
<stop stop-color="#FFD945"/>
<stop offset="0.3043" stop-color="#FFCD3E"/>
<stop offset="0.8558" stop-color="#FFAD2B"/>
<stop offset="1" stop-color="#FFA325"/>
</linearGradient>
<linearGradient id="paint16_linear_2_5278" x1="42.4045" y1="29.8869" x2="43.3167" y2="31.5401" gradientUnits="userSpaceOnUse">
<stop stop-color="#FFD945"/>
<stop offset="0.3043" stop-color="#FFCD3E"/>
<stop offset="0.8558" stop-color="#FFAD2B"/>
<stop offset="1" stop-color="#FFA325"/>
</linearGradient>
<linearGradient id="paint17_linear_2_5278" x1="0.280466" y1="47.3214" x2="1.19263" y2="48.9746" gradientUnits="userSpaceOnUse">
<stop stop-color="#FFD945"/>
<stop offset="0.3043" stop-color="#FFCD3E"/>
<stop offset="0.8558" stop-color="#FFAD2B"/>
<stop offset="1" stop-color="#FFA325"/>
</linearGradient>
<linearGradient id="paint18_linear_2_5278" x1="41.7142" y1="36.5593" x2="43.0824" y2="39.0391" gradientUnits="userSpaceOnUse">
<stop stop-color="#FFD945"/>
<stop offset="0.3043" stop-color="#FFCD3E"/>
<stop offset="0.8558" stop-color="#FFAD2B"/>
<stop offset="1" stop-color="#FFA325"/>
</linearGradient>
<linearGradient id="paint19_linear_2_5278" x1="1.02838" y1="25.6444" x2="2.39663" y2="28.1242" gradientUnits="userSpaceOnUse">
<stop stop-color="#FFD945"/>
<stop offset="0.3043" stop-color="#FFCD3E"/>
<stop offset="0.8558" stop-color="#FFAD2B"/>
<stop offset="1" stop-color="#FFA325"/>
</linearGradient>
<clipPath id="clip0_2_5278">
<rect width="56" height="56" fill="white"/>
</clipPath>
</defs>
</svg>
