<svg width="88" height="88" viewBox="0 0 88 88" fill="none" xmlns="http://www.w3.org/2000/svg">
<rect x="0.5" y="0.5" width="87" height="87" rx="29.5" stroke="#E5E5E5"/>
<g clip-path="url(#clip0_2_6067)">
<path d="M27.6667 25.3333V32.3333C27.6667 34.1898 28.4042 35.9703 29.717 37.2831C31.0298 38.5958 32.8102 39.3333 34.6667 39.3333C36.5233 39.3333 38.3037 38.5958 39.6165 37.2831C40.9293 35.9703 41.6668 34.1898 41.6668 32.3333V25.3333M60.3334 23V51H48.6668C48.6131 42.411 49.0961 33.7193 60.3334 23ZM60.3334 51V65H58.0001V58L60.3334 51ZM34.6667 25.3333V65V25.3333Z" stroke="#7D7D7D" stroke-width="1.5" stroke-linecap="round" stroke-linejoin="round"/>
</g>
<defs>
<clipPath id="clip0_2_6067">
<rect width="56" height="56" fill="white" transform="translate(16 16)"/>
</clipPath>
</defs>
</svg>
