<svg width="56" height="56" viewBox="0 0 56 56" fill="none" xmlns="http://www.w3.org/2000/svg">
<g clip-path="url(#clip0_2_5330)">
<path d="M1.05066 54.9493C-0.35022 53.5485 -0.35022 51.2772 1.05066 49.8764L38.0563 12.8706L43.1294 17.9437L6.1236 54.9493C4.72272 56.3502 2.45143 56.3502 1.05066 54.9493V54.9493Z" fill="url(#paint0_linear_2_5330)"/>
<path d="M43.1298 17.9442L24.7893 36.2847L18.2647 42.8082L13.1907 37.7352L16.0917 34.8353L38.0558 12.8701L43.1298 17.9442Z" fill="url(#paint1_linear_2_5330)"/>
<path d="M39.0505 43.558C37.5497 43.558 36.333 42.3413 36.333 40.8404V28.9927H41.7681V40.8404C41.7681 42.3413 40.5514 43.558 39.0505 43.558V43.558Z" fill="url(#paint2_linear_2_5330)"/>
<path d="M39.0505 43.558C37.5497 43.558 36.333 42.3413 36.333 40.8404V28.9927H41.7681V40.8404C41.7681 42.3413 40.5514 43.558 39.0505 43.558V43.558Z" fill="url(#paint3_linear_2_5330)"/>
<path d="M36.8577 19.1422C32.0948 14.3794 25.443 13.3089 22.0004 16.7515C18.558 20.1939 19.6284 26.8457 24.3912 31.6087C29.154 36.3717 35.8058 37.442 39.2484 33.9995C42.691 30.5569 41.6205 23.9052 36.8577 19.1422V19.1422Z" fill="url(#paint4_linear_2_5330)"/>
<path d="M26.7769 29.2225C23.704 26.1496 21.483 22.7584 20.3073 19.6538C19.2671 23.2247 20.7501 27.9685 24.3906 31.6089C28.031 35.2493 32.7747 36.7323 36.3457 35.6922C33.2411 34.5165 29.8499 32.2955 26.7769 29.2225Z" fill="url(#paint5_linear_2_5330)"/>
<path d="M39.2436 16.756C32.5309 10.0432 24.2984 7.3921 20.8559 10.8347C17.4134 14.2771 20.0644 22.5097 26.7772 29.2225C33.4899 35.9352 41.7223 38.5863 45.1649 35.1438C48.6074 31.7013 45.9564 23.4687 39.2436 16.756V16.756Z" fill="url(#paint6_linear_2_5330)"/>
<path d="M31.4346 24.5652C38.7994 31.9301 47.5606 35.1098 51.003 31.6673C54.4455 28.2249 51.2658 19.4637 43.9009 12.0989C36.536 4.73398 27.7749 1.55428 24.3324 4.99674C20.89 8.4392 24.0697 17.2003 31.4346 24.5652Z" fill="url(#paint7_linear_2_5330)"/>
<path d="M48.5588 7.44097C41.8461 0.72822 33.6135 -1.92278 30.1711 1.51969C26.7286 4.96215 29.3796 13.1947 36.0923 19.9075C42.8051 26.6202 51.0376 29.2713 54.4801 25.8287C57.9226 22.3863 55.2716 14.1537 48.5588 7.44097V7.44097Z" fill="url(#paint8_linear_2_5330)"/>
<path d="M50.9451 5.0547C46.1822 0.291848 40.1573 -1.4055 37.4882 1.26361C34.8191 3.93273 36.5165 9.95767 41.2793 14.7205C46.0422 19.4834 52.0671 21.1807 54.7362 18.5116C57.4053 15.8425 55.708 9.81767 50.9451 5.0547V5.0547Z" fill="url(#paint9_linear_2_5330)"/>
<path d="M51.0034 31.6673C54.4458 28.2249 51.2661 19.4637 43.9013 12.0989C36.5364 4.73398 27.7752 1.55428 24.3328 4.99674C23.2519 6.07765 22.8242 7.6832 22.9736 9.6051C22.1522 9.84886 21.4359 10.2551 20.8562 10.835C18.9896 12.7016 18.9153 15.9767 20.3078 19.654C19.2676 23.225 20.7506 27.9687 24.3911 31.6091C28.0315 35.2496 32.7753 36.7326 36.3462 35.6924C40.0235 37.085 43.2985 37.0107 45.1652 35.1441C45.745 34.5642 46.1513 33.848 46.3951 33.0266C48.3169 33.1759 49.9225 32.7484 51.0034 31.6673V31.6673Z" fill="url(#paint10_linear_2_5330)"/>
<path d="M55.304 17.7906V17.022H38.0193V21.5489L49.2156 32.7453C49.9073 32.5168 50.51 32.1601 51.0033 31.667C52.0842 30.5861 52.5119 28.9805 52.3624 27.0586C53.1839 26.8149 53.9 26.4086 54.4799 25.8287C56.2133 24.0953 56.4011 21.1473 55.304 17.7906V17.7906Z" fill="url(#paint11_linear_2_5330)"/>
<path d="M50.9455 5.0547C46.1825 0.291848 40.1577 -1.4055 37.4886 1.26361C35.883 2.86917 35.8581 5.68915 37.1293 8.71809V19.5451C37.1293 21.0459 38.3459 22.2626 39.8468 22.2626C41.3476 22.2626 42.5644 21.046 42.5644 19.5451C42.5644 18.0953 44.1374 17.1898 45.3894 17.921C45.7557 18.1349 46.122 18.3312 46.4866 18.5095C47.4113 18.9616 47.9993 19.8983 47.9993 20.9276V34.1419C47.9993 35.6427 49.216 36.8594 50.7169 36.8594C52.2177 36.8594 53.4344 35.6428 53.4344 34.1419V21.5425C53.4344 20.4019 53.9157 19.326 54.7255 18.5228C54.7292 18.5191 54.733 18.5153 54.7367 18.5116C57.4057 15.8425 55.7083 9.81767 50.9455 5.0547V5.0547Z" fill="url(#paint12_linear_2_5330)"/>
</g>
<defs>
<linearGradient id="paint0_linear_2_5330" x1="18.6295" y1="32.986" x2="21.9861" y2="36.3426" gradientUnits="userSpaceOnUse">
<stop stop-color="#EAF6FF"/>
<stop offset="1" stop-color="#B3DAFE"/>
</linearGradient>
<linearGradient id="paint1_linear_2_5330" x1="17.3748" y1="38.6252" x2="26.8453" y2="29.1546" gradientUnits="userSpaceOnUse">
<stop stop-color="#8AC9FE" stop-opacity="0"/>
<stop offset="0.0634" stop-color="#85C2F3" stop-opacity="0.063"/>
<stop offset="0.3677" stop-color="#70A3C3" stop-opacity="0.368"/>
<stop offset="0.6362" stop-color="#608CA0" stop-opacity="0.636"/>
<stop offset="0.8561" stop-color="#577E8B" stop-opacity="0.856"/>
<stop offset="1" stop-color="#537983"/>
</linearGradient>
<linearGradient id="paint2_linear_2_5330" x1="36.9916" y1="33.4204" x2="45.3605" y2="41.7893" gradientUnits="userSpaceOnUse">
<stop stop-color="#FEE97D"/>
<stop offset="1" stop-color="#FE860A"/>
</linearGradient>
<linearGradient id="paint3_linear_2_5330" x1="37.5249" y1="40.2419" x2="39.355" y2="34.0929" gradientUnits="userSpaceOnUse">
<stop stop-color="#C00148" stop-opacity="0"/>
<stop offset="0.3112" stop-color="#AA0E3F" stop-opacity="0.311"/>
<stop offset="0.9578" stop-color="#713028" stop-opacity="0.958"/>
<stop offset="1" stop-color="#6D3326"/>
</linearGradient>
<linearGradient id="paint4_linear_2_5330" x1="28.8751" y1="27.1256" x2="25.3685" y2="30.6322" gradientUnits="userSpaceOnUse">
<stop stop-color="#FEE97D"/>
<stop offset="1" stop-color="#FE860A"/>
</linearGradient>
<linearGradient id="paint5_linear_2_5330" x1="25.2542" y1="30.7453" x2="29.9809" y2="26.0187" gradientUnits="userSpaceOnUse">
<stop stop-color="#C00148" stop-opacity="0"/>
<stop offset="0.3112" stop-color="#AA0E3F" stop-opacity="0.311"/>
<stop offset="0.9578" stop-color="#713028" stop-opacity="0.958"/>
<stop offset="1" stop-color="#6D3326"/>
</linearGradient>
<linearGradient id="paint6_linear_2_5330" x1="36.7289" y1="19.2707" x2="23.7206" y2="32.279" gradientUnits="userSpaceOnUse">
<stop stop-color="#FEE97D"/>
<stop offset="1" stop-color="#FE860A"/>
</linearGradient>
<linearGradient id="paint7_linear_2_5330" x1="40.9014" y1="15.0984" x2="28.0717" y2="27.9281" gradientUnits="userSpaceOnUse">
<stop stop-color="#FEE97D"/>
<stop offset="1" stop-color="#FE860A"/>
</linearGradient>
<linearGradient id="paint8_linear_2_5330" x1="46.0627" y1="9.93715" x2="34.0921" y2="21.9078" gradientUnits="userSpaceOnUse">
<stop stop-color="#FEE97D"/>
<stop offset="1" stop-color="#FE860A"/>
</linearGradient>
<linearGradient id="paint9_linear_2_5330" x1="49.4116" y1="6.58822" x2="37.4591" y2="18.5407" gradientUnits="userSpaceOnUse">
<stop stop-color="#FEE97D"/>
<stop offset="1" stop-color="#FE860A"/>
</linearGradient>
<linearGradient id="paint10_linear_2_5330" x1="36.6194" y1="19.3807" x2="18.0159" y2="37.9844" gradientUnits="userSpaceOnUse">
<stop stop-color="#C00148" stop-opacity="0"/>
<stop offset="0.3112" stop-color="#AA0E3F" stop-opacity="0.311"/>
<stop offset="0.9578" stop-color="#713028" stop-opacity="0.958"/>
<stop offset="1" stop-color="#6D3326"/>
</linearGradient>
<linearGradient id="paint11_linear_2_5330" x1="52.0744" y1="30.9476" x2="39.9959" y2="4.92399" gradientUnits="userSpaceOnUse">
<stop stop-color="#C00148" stop-opacity="0"/>
<stop offset="0.3112" stop-color="#AA0E3F" stop-opacity="0.311"/>
<stop offset="0.9578" stop-color="#713028" stop-opacity="0.958"/>
<stop offset="1" stop-color="#6D3326"/>
</linearGradient>
<linearGradient id="paint12_linear_2_5330" x1="54.776" y1="8.95099" x2="37.955" y2="25.772" gradientUnits="userSpaceOnUse">
<stop stop-color="#FEE97D"/>
<stop offset="1" stop-color="#FE860A"/>
</linearGradient>
<clipPath id="clip0_2_5330">
<rect width="56" height="56" fill="white"/>
</clipPath>
</defs>
</svg>
