<svg width="56" height="56" viewBox="0 0 56 56" fill="none" xmlns="http://www.w3.org/2000/svg">
<g clip-path="url(#clip0_2_5347)">
<path d="M33.7141 56C21.4059 56 11.4285 46.0223 11.4285 33.7143V22.2857C11.4285 9.97766 21.4059 0 33.7141 0C46.022 0 55.9997 9.97766 55.9997 22.2857V33.7143C55.9997 46.0223 46.022 56 33.7141 56Z" fill="url(#paint0_linear_2_5347)"/>
<path d="M11.4294 33.8198C11.4863 46.0793 21.4408 56.0002 33.7137 56.0002C45.9865 56.0002 55.9412 46.0793 55.9981 33.8198H11.4294Z" fill="url(#paint1_linear_2_5347)"/>
<path d="M55.2104 39.6065L35.8017 20.1978L13.3105 42.6889C16.7633 50.5273 24.5986 56.0001 33.7137 56.0001C43.9817 56.0001 52.6265 49.055 55.2104 39.6065Z" fill="url(#paint2_linear_2_5347)"/>
<path d="M20.9725 56.0003C32.5554 56.0003 41.9451 46.6105 41.9451 35.0277C41.9451 23.4449 32.5554 14.0552 20.9725 14.0552C9.38973 14.0552 0 23.4449 0 35.0277C0 46.6105 9.38973 56.0003 20.9725 56.0003Z" fill="url(#paint3_linear_2_5347)"/>
<path d="M0.00415039 35.3677C0.0888092 40.6211 2.13413 45.8488 6.14285 49.8574C14.3331 58.0477 27.6123 58.0477 35.8025 49.8574C39.8111 45.8488 41.8566 40.621 41.9412 35.3677H0.00415039Z" fill="url(#paint4_linear_2_5347)"/>
<path d="M20.9729 53.0878C30.947 53.0878 39.0327 45.0022 39.0327 35.028C39.0327 25.0539 30.947 16.9683 20.9729 16.9683C10.9987 16.9683 2.91309 25.0539 2.91309 35.028C2.91309 45.0022 10.9987 53.0878 20.9729 53.0878Z" fill="url(#paint5_linear_2_5347)"/>
<path d="M20.9723 47.6311C27.9329 47.6311 33.5757 41.9884 33.5757 35.0277C33.5757 28.067 27.9329 22.4243 20.9723 22.4243C14.0116 22.4243 8.3689 28.067 8.3689 35.0277C8.3689 41.9884 14.0116 47.6311 20.9723 47.6311Z" fill="url(#paint6_linear_2_5347)"/>
<path d="M20.9725 44.1305C25.9999 44.1305 30.0753 40.055 30.0753 35.0277C30.0753 30.0003 25.9999 25.9248 20.9725 25.9248C15.9451 25.9248 11.8696 30.0003 11.8696 35.0277C11.8696 40.055 15.9451 44.1305 20.9725 44.1305Z" fill="url(#paint7_linear_2_5347)"/>
<path d="M21.9599 20.0426C21.4733 19.3719 20.4713 19.3719 19.9847 20.0426C19.5363 20.661 19.2666 21.4545 19.2666 22.3204C19.2666 23.1863 19.5363 23.98 19.9847 24.5982C20.4713 25.269 21.4733 25.269 21.9599 24.5982C22.4083 23.9799 22.678 23.1863 22.678 22.3204C22.678 21.4545 22.4083 20.661 21.9599 20.0426Z" fill="url(#paint8_linear_2_5347)"/>
<path d="M21.9599 45.4567C21.4733 44.7859 20.4713 44.7859 19.9847 45.4567C19.5363 46.0749 19.2666 46.8686 19.2666 47.7345C19.2666 48.6004 19.5363 49.394 19.9847 50.0122C20.4713 50.683 21.4733 50.683 21.9599 50.0122C22.4083 49.394 22.678 48.6004 22.678 47.7345C22.678 46.8687 22.4083 46.075 21.9599 45.4567Z" fill="url(#paint9_linear_2_5347)"/>
<path d="M35.9573 36.0151C36.6281 35.5285 36.6281 34.5264 35.9573 34.0399C35.339 33.5915 34.5454 33.3218 33.6795 33.3218C32.8136 33.3218 32.02 33.5915 31.4018 34.0399C30.731 34.5264 30.731 35.5285 31.4018 36.0151C32.02 36.4635 32.8136 36.7332 33.6795 36.7332C34.5454 36.7332 35.339 36.4635 35.9573 36.0151Z" fill="url(#paint10_linear_2_5347)"/>
<path d="M10.5435 36.0151C11.2143 35.5285 11.2143 34.5264 10.5435 34.0399C9.9252 33.5915 9.13164 33.3218 8.26573 33.3218C7.39982 33.3218 6.60615 33.5915 5.98796 34.0399C5.31717 34.5264 5.31717 35.5285 5.98796 36.0151C6.60626 36.4635 7.39982 36.7332 8.26573 36.7332C9.13164 36.7332 9.9252 36.4635 10.5435 36.0151Z" fill="url(#paint11_linear_2_5347)"/>
<path d="M32.2669 25.13C32.3971 24.3116 31.6885 23.6031 30.8701 23.7333C30.1159 23.8533 29.364 24.2239 28.7517 24.8362C28.1394 25.4484 27.7688 26.2004 27.6488 26.9546C27.5186 27.773 28.2272 28.4815 29.0455 28.3513C29.7998 28.2313 30.5517 27.8607 31.164 27.2484C31.7762 26.6362 32.1467 25.8842 32.2669 25.13V25.13Z" fill="url(#paint12_linear_2_5347)"/>
<path d="M14.2961 43.1007C14.4264 42.2823 13.7178 41.5738 12.8994 41.704C12.1452 41.824 11.3933 42.1946 10.781 42.8069C10.1687 43.4191 9.79814 44.1711 9.67812 44.9253C9.54789 45.7437 10.2565 46.4523 11.0748 46.322C11.8291 46.202 12.581 45.8314 13.1933 45.2192C13.8055 44.6068 14.176 43.855 14.2961 43.1007Z" fill="url(#paint13_linear_2_5347)"/>
<path d="M30.8701 46.322C31.6885 46.4523 32.3971 45.7437 32.2669 44.9253C32.1468 44.1711 31.7762 43.4191 31.164 42.8069C30.5517 42.1946 29.7998 41.824 29.0455 41.704C28.2272 41.5738 27.5186 42.2823 27.6488 43.1007C27.7688 43.855 28.1394 44.6069 28.7517 45.2192C29.364 45.8314 30.1159 46.2019 30.8701 46.322V46.322Z" fill="url(#paint14_linear_2_5347)"/>
<path d="M12.8994 28.3513C13.7178 28.4815 14.4264 27.773 14.2961 26.9546C14.1761 26.2004 13.8055 25.4484 13.1933 24.8362C12.581 24.2239 11.8291 23.8533 11.0748 23.7333C10.2565 23.6031 9.54789 24.3116 9.67812 25.13C9.79814 25.8842 10.1687 26.6362 10.781 27.2484C11.3934 27.8607 12.1452 28.2312 12.8994 28.3513V28.3513Z" fill="url(#paint15_linear_2_5347)"/>
<path d="M2.91724 35.3677C3.00157 39.8756 4.76282 44.358 8.20276 47.7978C15.2556 54.8507 26.6904 54.8507 33.7432 47.7978C37.1831 44.3579 38.9443 39.8756 39.0287 35.3677H2.91724Z" fill="url(#paint16_linear_2_5347)"/>
</g>
<defs>
<linearGradient id="paint0_linear_2_5347" x1="17.131" y1="11.5524" x2="35.0656" y2="29.3406" gradientUnits="userSpaceOnUse">
<stop stop-color="#F6A96C"/>
<stop offset="1" stop-color="#C86D36"/>
</linearGradient>
<linearGradient id="paint1_linear_2_5347" x1="33.7137" y1="36.4551" x2="33.7137" y2="50.8411" gradientUnits="userSpaceOnUse">
<stop stop-color="#883F2E" stop-opacity="0"/>
<stop offset="0.5822" stop-color="#7A392A" stop-opacity="0.582"/>
<stop offset="1" stop-color="#6D3326"/>
</linearGradient>
<linearGradient id="paint2_linear_2_5347" x1="53.7631" y1="49.0933" x2="31.289" y2="37.6934" gradientUnits="userSpaceOnUse">
<stop stop-color="#883F2E" stop-opacity="0"/>
<stop offset="0.5822" stop-color="#7A392A" stop-opacity="0.582"/>
<stop offset="1" stop-color="#6D3326"/>
</linearGradient>
<linearGradient id="paint3_linear_2_5347" x1="11.3832" y1="26.2093" x2="25.9504" y2="39.6053" gradientUnits="userSpaceOnUse">
<stop stop-color="#F6A96C"/>
<stop offset="1" stop-color="#C86D36"/>
</linearGradient>
<linearGradient id="paint4_linear_2_5347" x1="20.9726" y1="39.7783" x2="20.9726" y2="59.25" gradientUnits="userSpaceOnUse">
<stop stop-color="#883F2E" stop-opacity="0"/>
<stop offset="0.5822" stop-color="#7A392A" stop-opacity="0.582"/>
<stop offset="1" stop-color="#6D3326"/>
</linearGradient>
<linearGradient id="paint5_linear_2_5347" x1="11.34" y1="25.3952" x2="47.4406" y2="61.4957" gradientUnits="userSpaceOnUse">
<stop stop-color="#A2E62E"/>
<stop offset="0.172" stop-color="#8CD732"/>
<stop offset="0.5306" stop-color="#53B23D"/>
<stop offset="1" stop-color="#017B4E"/>
</linearGradient>
<linearGradient id="paint6_linear_2_5347" x1="27.6948" y1="41.7502" x2="2.50131" y2="16.5567" gradientUnits="userSpaceOnUse">
<stop stop-color="#A2E62E"/>
<stop offset="0.172" stop-color="#8CD732"/>
<stop offset="0.5306" stop-color="#53B23D"/>
<stop offset="1" stop-color="#017B4E"/>
</linearGradient>
<linearGradient id="paint7_linear_2_5347" x1="16.1171" y1="30.1724" x2="34.3132" y2="48.3684" gradientUnits="userSpaceOnUse">
<stop stop-color="#D1F19E"/>
<stop offset="1" stop-color="#97D729"/>
</linearGradient>
<linearGradient id="paint8_linear_2_5347" x1="20.2413" y1="22.3204" x2="22.872" y2="22.3204" gradientUnits="userSpaceOnUse">
<stop stop-color="#5A5A5A"/>
<stop offset="1" stop-color="#444444"/>
</linearGradient>
<linearGradient id="paint9_linear_2_5347" x1="20.2413" y1="47.7346" x2="22.872" y2="47.7346" gradientUnits="userSpaceOnUse">
<stop stop-color="#5A5A5A"/>
<stop offset="1" stop-color="#444444"/>
</linearGradient>
<linearGradient id="paint10_linear_2_5347" x1="33.6795" y1="34.2964" x2="33.6795" y2="36.9272" gradientUnits="userSpaceOnUse">
<stop stop-color="#5A5A5A"/>
<stop offset="1" stop-color="#444444"/>
</linearGradient>
<linearGradient id="paint11_linear_2_5347" x1="8.26562" y1="34.2964" x2="8.26562" y2="36.9272" gradientUnits="userSpaceOnUse">
<stop stop-color="#5A5A5A"/>
<stop offset="1" stop-color="#444444"/>
</linearGradient>
<linearGradient id="paint12_linear_2_5347" x1="29.4359" y1="25.5319" x2="31.2958" y2="27.3918" gradientUnits="userSpaceOnUse">
<stop stop-color="#5A5A5A"/>
<stop offset="1" stop-color="#444444"/>
</linearGradient>
<linearGradient id="paint13_linear_2_5347" x1="11.4678" y1="43.5" x2="13.3277" y2="45.3599" gradientUnits="userSpaceOnUse">
<stop stop-color="#5A5A5A"/>
<stop offset="1" stop-color="#444444"/>
</linearGradient>
<linearGradient id="paint14_linear_2_5347" x1="30.4518" y1="43.5056" x2="28.5919" y2="45.3655" gradientUnits="userSpaceOnUse">
<stop stop-color="#5A5A5A"/>
<stop offset="1" stop-color="#444444"/>
</linearGradient>
<linearGradient id="paint15_linear_2_5347" x1="12.4836" y1="25.5374" x2="10.6237" y2="27.3973" gradientUnits="userSpaceOnUse">
<stop stop-color="#5A5A5A"/>
<stop offset="1" stop-color="#444444"/>
</linearGradient>
<linearGradient id="paint16_linear_2_5347" x1="20.973" y1="37.8234" x2="20.973" y2="51.9108" gradientUnits="userSpaceOnUse">
<stop stop-color="#017B4E" stop-opacity="0"/>
<stop offset="0.4829" stop-color="#01754A" stop-opacity="0.483"/>
<stop offset="1" stop-color="#026841"/>
</linearGradient>
<clipPath id="clip0_2_5347">
<rect width="56" height="56" fill="white"/>
</clipPath>
</defs>
</svg>
