<svg width="56" height="56" viewBox="0 0 56 56" fill="none" xmlns="http://www.w3.org/2000/svg">
<g clip-path="url(#clip0_2_5893)">
<path d="M50.9831 31.8581C53.1223 23.5268 51.1054 15.4488 46.4228 11.4073C45.5721 10.673 44.9455 9.7275 44.5332 8.6822C44.204 7.84777 43.4931 7.17752 42.5577 6.93744C41.6226 6.69726 40.6767 6.94215 39.9861 7.51484C39.1211 8.23223 38.1165 8.75887 37.0172 8.99249C30.9668 10.2782 25.3076 16.3854 23.1684 24.7167C21.0291 33.048 23.0461 41.1261 27.7287 45.1676C28.5794 45.9018 29.206 46.8474 29.6183 47.8927C29.9476 48.7271 30.6584 49.3973 31.5936 49.6374C32.5289 49.8775 33.4747 49.6327 34.1652 49.06C35.0302 48.3426 36.0348 47.816 37.134 47.5824C43.1849 46.2967 48.8441 40.1895 50.9831 31.8581Z" fill="url(#paint0_radial_2_5893)"/>
<path d="M40.5182 11.8757C41.1339 11.8757 41.6331 11.3766 41.6331 10.7609C41.6331 10.1451 41.1339 9.646 40.5182 9.646C39.9025 9.646 39.4033 10.1451 39.4033 10.7609C39.4033 11.3766 39.9025 11.8757 40.5182 11.8757Z" fill="#FFD700"/>
<path d="M41.2649 13.2598C41.5727 13.2598 41.8223 13.0102 41.8223 12.7024C41.8223 12.3946 41.5727 12.145 41.2649 12.145C40.9571 12.145 40.7075 12.3946 40.7075 12.7024C40.7075 13.0102 40.9571 13.2598 41.2649 13.2598Z" fill="#FFD700"/>
<path d="M32.0637 16.1079C32.3716 16.1079 32.6211 15.8584 32.6211 15.5505C32.6211 15.2427 32.3716 14.9932 32.0637 14.9932C31.7559 14.9932 31.5063 15.2427 31.5063 15.5505C31.5063 15.8584 31.7559 16.1079 32.0637 16.1079Z" fill="#FFD700"/>
<path d="M31.9172 20.0366C32.2251 20.0366 32.4746 19.7871 32.4746 19.4793C32.4746 19.1714 32.2251 18.9219 31.9172 18.9219C31.6094 18.9219 31.3599 19.1714 31.3599 19.4793C31.3599 19.7871 31.6094 20.0366 31.9172 20.0366Z" fill="#FFD700"/>
<path d="M34.3713 18.1084C34.6792 18.1084 34.9287 17.8589 34.9287 17.551C34.9287 17.2432 34.6792 16.9937 34.3713 16.9937C34.0635 16.9937 33.814 17.2432 33.814 17.551C33.814 17.8589 34.0635 18.1084 34.3713 18.1084Z" fill="#FFD700"/>
<path d="M30.8621 21.3119C29.4892 19.8711 27.8552 18.673 26.0312 17.769C24.8074 19.8273 23.8231 22.1673 23.1686 24.7162C21.0294 33.0476 23.0463 41.1256 27.7289 45.1671C28.5796 45.9013 29.2062 46.8469 29.6185 47.8922C29.9477 48.7266 30.6586 49.3969 31.5938 49.6369C32.5291 49.8771 33.4749 49.6322 34.1655 49.0595C35.0305 48.3421 36.0351 47.8155 37.1344 47.5819C41.3779 46.6802 45.4287 43.4065 48.208 38.6574L30.8621 21.3119Z" fill="url(#paint1_linear_2_5893)"/>
<path d="M35.4164 32.8892C35.3892 42.6691 27.4405 50.0332 17.6606 50.006C7.88044 49.9788 -0.0271643 42.5707 7.01373e-05 32.7908C0.0273046 23.0109 7.97549 15.8274 17.7555 15.8546C27.5355 15.8817 35.4435 23.1092 35.4164 32.8892Z" fill="url(#paint2_linear_2_5893)"/>
<path d="M33.7896 32.8927C33.7648 41.7745 26.5461 48.4622 17.6642 48.4375C8.78243 48.4128 1.60108 41.685 1.6258 32.8032C1.65051 23.9214 8.86884 17.3977 17.7507 17.4224C26.6324 17.4473 33.8143 24.0109 33.7896 32.8927Z" fill="#FFF0CA"/>
<path d="M7.37702 42.1528C6.8004 42.1512 6.26927 41.8896 5.91992 41.4352C4.53677 39.6367 3.6074 37.4978 3.23247 35.2499C3.143 34.713 3.29426 34.1663 3.64776 33.7502C4.00378 33.3312 4.52298 33.0916 5.0726 33.0933L15.4658 33.1221C15.7619 33.123 16.026 33.3004 16.1385 33.5744C16.2511 33.8483 16.1882 34.1602 15.9782 34.369L8.69641 41.6106C8.34335 41.9617 7.8749 42.1542 7.37724 42.1528C7.37713 42.1528 7.37713 42.1528 7.37702 42.1528Z" fill="url(#paint3_radial_2_5893)"/>
<path d="M16.7818 31.4172C16.5885 31.4167 16.4064 31.34 16.2686 31.2015L9.11676 24.0098C8.71776 23.6086 8.52427 23.0556 8.58563 22.4927C8.64644 21.9354 8.95083 21.443 9.42071 21.1415C11.2189 19.9877 13.2344 19.2438 15.4113 18.9305C15.5024 18.9175 15.595 18.9108 15.6865 18.9111C16.7131 18.914 17.5459 19.7498 17.543 20.7745L17.5155 30.6891C17.5149 30.8939 17.4328 31.0826 17.2842 31.2206C17.1471 31.3479 16.9687 31.4177 16.7818 31.4172Z" fill="url(#paint4_radial_2_5893)"/>
<path d="M5.05212 32.6967C4.50688 32.6952 3.99151 32.4558 3.63845 32.0401C3.28692 31.6261 3.13488 31.0819 3.22118 30.5471C3.58824 28.2726 4.5246 26.1185 5.92876 24.3176C6.28073 23.8662 6.81284 23.6083 7.38859 23.6099C7.88635 23.6113 8.35371 23.8064 8.70492 24.1595L15.9868 31.482C16.1955 31.6919 16.2568 32.0043 16.1427 32.2775C16.0287 32.5508 15.7635 32.7268 15.4675 32.7261L5.05212 32.6967Z" fill="url(#paint5_radial_2_5893)"/>
<path d="M18.6419 31.422C18.2386 31.4209 17.9113 31.0925 17.9124 30.69L17.9399 20.7753C17.9428 19.7507 18.7803 18.9195 19.8068 18.9224C19.8982 18.9226 19.9908 18.9296 20.0819 18.9434C22.257 19.2687 24.2683 20.0238 26.0602 21.1876C26.5283 21.4917 26.8298 21.986 26.8877 22.5435C26.946 23.1068 26.7495 23.6587 26.3483 24.0576L19.1566 31.2093C19.0179 31.3469 18.8352 31.4226 18.6419 31.422Z" fill="url(#paint6_radial_2_5893)"/>
<path d="M15.6092 46.9339C15.5157 46.9337 15.421 46.9264 15.3279 46.9119C13.1667 46.5806 11.1641 45.8158 9.37547 44.6385C8.91062 44.3324 8.61203 43.838 8.55614 43.2822C8.4997 42.7211 8.69647 42.1714 9.09612 41.774L16.2591 34.6508C16.3977 34.5131 16.5802 34.4374 16.7735 34.438C17.1769 34.4391 17.5041 34.7675 17.503 35.1702L17.4755 45.0808C17.4741 45.5819 17.2764 46.0508 16.9189 46.4008C16.5664 46.7459 16.1014 46.9353 15.6093 46.9339C15.6093 46.9339 15.6093 46.9339 15.6092 46.9339Z" fill="url(#paint7_radial_2_5893)"/>
<path d="M19.7276 46.9456C18.7014 46.9428 17.869 46.1067 17.8718 45.0821L17.8994 35.1715C17.9005 34.769 18.2296 34.4423 18.633 34.4434C18.8262 34.4439 19.0084 34.5206 19.1462 34.659L26.2693 41.822C26.6667 42.2216 26.8605 42.7724 26.8009 43.3332C26.7419 43.8888 26.4405 44.3814 25.9739 44.6848C24.1788 45.8523 22.1719 46.6061 20.009 46.9253C19.9159 46.9391 19.8213 46.9458 19.7276 46.9456C19.7277 46.9456 19.7277 46.9456 19.7276 46.9456Z" fill="url(#paint8_radial_2_5893)"/>
<path d="M19.9481 32.7379C19.6519 32.7372 19.3879 32.5596 19.2753 32.2857C19.1628 32.0118 19.2257 31.6998 19.4357 31.491L26.7582 24.2092C27.1113 23.8581 27.5799 23.6656 28.0776 23.667C28.6535 23.6686 29.1841 23.9295 29.5335 24.383C30.9277 26.1917 31.8519 28.3511 32.2063 30.6275C32.2897 31.1628 32.1345 31.7062 31.7807 32.1181C31.4253 32.532 30.9087 32.7684 30.3633 32.7669L19.9481 32.7379Z" fill="url(#paint9_radial_2_5893)"/>
<path d="M27.9853 42.2103C27.4875 42.2088 27.0202 42.0137 26.669 41.6607L19.4275 34.3788C19.2188 34.1689 19.1574 33.8565 19.2715 33.5833C19.3856 33.31 19.6507 33.134 19.9468 33.1348L30.3399 33.1636C30.8895 33.1652 31.4074 33.4075 31.761 33.8285C32.1122 34.2467 32.2606 34.794 32.168 35.3305C31.7805 37.5763 30.8394 39.71 29.4462 41.5006C29.0945 41.9533 28.5619 42.2118 27.9853 42.2103C27.9854 42.2103 27.9853 42.2103 27.9853 42.2103Z" fill="url(#paint10_radial_2_5893)"/>
<path d="M50.894 18.6497C49.9882 15.6806 48.4574 13.1628 46.4231 11.4071C45.5724 10.6729 44.9458 9.72732 44.5334 8.68202C44.2042 7.8476 43.4934 7.17734 42.5581 6.93727C42.5409 6.93289 42.5239 6.92983 42.5067 6.92578C42.3457 7.18697 42.2906 7.5128 42.3852 7.83141C43.1054 10.2574 44.1657 11.9595 45.3836 13.1396L50.894 18.6497Z" fill="url(#paint11_linear_2_5893)"/>
<path d="M55.9588 13.7983C55.1981 11.0813 52.3396 4.21839 43.1957 6.42416C42.573 6.57433 42.2026 7.21713 42.3849 7.83138C45.0621 16.8485 52.4331 15.88 55.1652 15.1756C55.7681 15.0201 56.1267 14.3978 55.9588 13.7983Z" fill="url(#paint12_linear_2_5893)"/>
<path d="M55.8473 14.6594L42.4852 6.95996C42.3403 7.21513 42.2944 7.52674 42.3848 7.83157C45.062 16.8487 52.433 15.8801 55.1651 15.1758C55.4644 15.0988 55.703 14.9066 55.8473 14.6594Z" fill="url(#paint13_linear_2_5893)"/>
</g>
<defs>
<radialGradient id="paint0_radial_2_5893" cx="0" cy="0" r="1" gradientUnits="userSpaceOnUse" gradientTransform="translate(23.9222 10.3878) rotate(14.4017) scale(38.2787 38.2787)">
<stop offset="0.002" stop-color="#FFEE95"/>
<stop offset="0.106" stop-color="#FFED91"/>
<stop offset="0.215" stop-color="#FFEB84"/>
<stop offset="0.327" stop-color="#FFE86F"/>
<stop offset="0.44" stop-color="#FFE452"/>
<stop offset="0.554" stop-color="#FFDE2C"/>
<stop offset="0.664" stop-color="#FFD700"/>
<stop offset="0.729" stop-color="#FFD605"/>
<stop offset="0.802" stop-color="#FFD212"/>
<stop offset="0.878" stop-color="#FFCC28"/>
<stop offset="0.956" stop-color="#FFC447"/>
<stop offset="1" stop-color="#FFBF5C"/>
</radialGradient>
<linearGradient id="paint1_linear_2_5893" x1="38.4075" y1="42.9372" x2="7.24473" y2="11.7744" gradientUnits="userSpaceOnUse">
<stop stop-color="#FF931E" stop-opacity="0"/>
<stop offset="1" stop-color="#FF5D00"/>
</linearGradient>
<linearGradient id="paint2_linear_2_5893" x1="5.94244" y1="21.1184" x2="38.0057" y2="53.1816" gradientUnits="userSpaceOnUse">
<stop stop-color="#FFEE95"/>
<stop offset="0.227" stop-color="#FFE978"/>
<stop offset="0.718" stop-color="#FFDE2D"/>
<stop offset="1" stop-color="#FFD700"/>
</linearGradient>
<radialGradient id="paint3_radial_2_5893" cx="0" cy="0" r="1" gradientUnits="userSpaceOnUse" gradientTransform="translate(17.8563 33.021) rotate(0.159804) scale(21.5081 21.508)">
<stop offset="0.002" stop-color="#FFEE95"/>
<stop offset="0.277" stop-color="#FFEE93"/>
<stop offset="0.376" stop-color="#FFED8C"/>
<stop offset="0.447" stop-color="#FFEB81"/>
<stop offset="0.504" stop-color="#FFE870"/>
<stop offset="0.552" stop-color="#FFE55A"/>
<stop offset="0.596" stop-color="#FFE13E"/>
<stop offset="0.634" stop-color="#FFDC1F"/>
<stop offset="0.664" stop-color="#FFD700"/>
<stop offset="0.818" stop-color="#FFD702"/>
<stop offset="0.873" stop-color="#FFD509"/>
<stop offset="0.912" stop-color="#FFD214"/>
<stop offset="0.944" stop-color="#FFCD25"/>
<stop offset="0.972" stop-color="#FFC83B"/>
<stop offset="0.996" stop-color="#FFC156"/>
<stop offset="1" stop-color="#FFBF5C"/>
</radialGradient>
<radialGradient id="paint4_radial_2_5893" cx="0" cy="0" r="1" gradientUnits="userSpaceOnUse" gradientTransform="translate(17.8569 33.0212) rotate(0.159805) scale(21.5081 21.5081)">
<stop offset="0.002" stop-color="#FFEE95"/>
<stop offset="0.277" stop-color="#FFEE93"/>
<stop offset="0.376" stop-color="#FFED8C"/>
<stop offset="0.447" stop-color="#FFEB81"/>
<stop offset="0.504" stop-color="#FFE870"/>
<stop offset="0.552" stop-color="#FFE55A"/>
<stop offset="0.596" stop-color="#FFE13E"/>
<stop offset="0.634" stop-color="#FFDC1F"/>
<stop offset="0.664" stop-color="#FFD700"/>
<stop offset="0.818" stop-color="#FFD702"/>
<stop offset="0.873" stop-color="#FFD509"/>
<stop offset="0.912" stop-color="#FFD214"/>
<stop offset="0.944" stop-color="#FFCD25"/>
<stop offset="0.972" stop-color="#FFC83B"/>
<stop offset="0.996" stop-color="#FFC156"/>
<stop offset="1" stop-color="#FFBF5C"/>
</radialGradient>
<radialGradient id="paint5_radial_2_5893" cx="0" cy="0" r="1" gradientUnits="userSpaceOnUse" gradientTransform="translate(17.8567 33.0215) rotate(0.159804) scale(21.508 21.508)">
<stop offset="0.002" stop-color="#FFEE95"/>
<stop offset="0.277" stop-color="#FFEE93"/>
<stop offset="0.376" stop-color="#FFED8C"/>
<stop offset="0.447" stop-color="#FFEB81"/>
<stop offset="0.504" stop-color="#FFE870"/>
<stop offset="0.552" stop-color="#FFE55A"/>
<stop offset="0.596" stop-color="#FFE13E"/>
<stop offset="0.634" stop-color="#FFDC1F"/>
<stop offset="0.664" stop-color="#FFD700"/>
<stop offset="0.818" stop-color="#FFD702"/>
<stop offset="0.873" stop-color="#FFD509"/>
<stop offset="0.912" stop-color="#FFD214"/>
<stop offset="0.944" stop-color="#FFCD25"/>
<stop offset="0.972" stop-color="#FFC83B"/>
<stop offset="0.996" stop-color="#FFC156"/>
<stop offset="1" stop-color="#FFBF5C"/>
</radialGradient>
<radialGradient id="paint6_radial_2_5893" cx="0" cy="0" r="1" gradientUnits="userSpaceOnUse" gradientTransform="translate(17.857 33.0209) rotate(0.159805) scale(21.5081 21.5081)">
<stop offset="0.002" stop-color="#FFEE95"/>
<stop offset="0.277" stop-color="#FFEE93"/>
<stop offset="0.376" stop-color="#FFED8C"/>
<stop offset="0.447" stop-color="#FFEB81"/>
<stop offset="0.504" stop-color="#FFE870"/>
<stop offset="0.552" stop-color="#FFE55A"/>
<stop offset="0.596" stop-color="#FFE13E"/>
<stop offset="0.634" stop-color="#FFDC1F"/>
<stop offset="0.664" stop-color="#FFD700"/>
<stop offset="0.818" stop-color="#FFD702"/>
<stop offset="0.873" stop-color="#FFD509"/>
<stop offset="0.912" stop-color="#FFD214"/>
<stop offset="0.944" stop-color="#FFCD25"/>
<stop offset="0.972" stop-color="#FFC83B"/>
<stop offset="0.996" stop-color="#FFC156"/>
<stop offset="1" stop-color="#FFBF5C"/>
</radialGradient>
<radialGradient id="paint7_radial_2_5893" cx="0" cy="0" r="1" gradientUnits="userSpaceOnUse" gradientTransform="translate(17.8571 33.0211) rotate(0.159804) scale(21.5081 21.5081)">
<stop offset="0.002" stop-color="#FFEE95"/>
<stop offset="0.277" stop-color="#FFEE93"/>
<stop offset="0.376" stop-color="#FFED8C"/>
<stop offset="0.447" stop-color="#FFEB81"/>
<stop offset="0.504" stop-color="#FFE870"/>
<stop offset="0.552" stop-color="#FFE55A"/>
<stop offset="0.596" stop-color="#FFE13E"/>
<stop offset="0.634" stop-color="#FFDC1F"/>
<stop offset="0.664" stop-color="#FFD700"/>
<stop offset="0.818" stop-color="#FFD702"/>
<stop offset="0.873" stop-color="#FFD509"/>
<stop offset="0.912" stop-color="#FFD214"/>
<stop offset="0.944" stop-color="#FFCD25"/>
<stop offset="0.972" stop-color="#FFC83B"/>
<stop offset="0.996" stop-color="#FFC156"/>
<stop offset="1" stop-color="#FFBF5C"/>
</radialGradient>
<radialGradient id="paint8_radial_2_5893" cx="0" cy="0" r="1" gradientUnits="userSpaceOnUse" gradientTransform="translate(17.8564 33.0214) rotate(0.159805) scale(21.5081 21.5081)">
<stop offset="0.002" stop-color="#FFEE95"/>
<stop offset="0.277" stop-color="#FFEE93"/>
<stop offset="0.376" stop-color="#FFED8C"/>
<stop offset="0.447" stop-color="#FFEB81"/>
<stop offset="0.504" stop-color="#FFE870"/>
<stop offset="0.552" stop-color="#FFE55A"/>
<stop offset="0.596" stop-color="#FFE13E"/>
<stop offset="0.634" stop-color="#FFDC1F"/>
<stop offset="0.664" stop-color="#FFD700"/>
<stop offset="0.818" stop-color="#FFD702"/>
<stop offset="0.873" stop-color="#FFD509"/>
<stop offset="0.912" stop-color="#FFD214"/>
<stop offset="0.944" stop-color="#FFCD25"/>
<stop offset="0.972" stop-color="#FFC83B"/>
<stop offset="0.996" stop-color="#FFC156"/>
<stop offset="1" stop-color="#FFBF5C"/>
</radialGradient>
<radialGradient id="paint9_radial_2_5893" cx="0" cy="0" r="1" gradientUnits="userSpaceOnUse" gradientTransform="translate(17.8563 33.0212) rotate(0.159805) scale(21.508 21.5081)">
<stop offset="0.002" stop-color="#FFEE95"/>
<stop offset="0.277" stop-color="#FFEE93"/>
<stop offset="0.376" stop-color="#FFED8C"/>
<stop offset="0.447" stop-color="#FFEB81"/>
<stop offset="0.504" stop-color="#FFE870"/>
<stop offset="0.552" stop-color="#FFE55A"/>
<stop offset="0.596" stop-color="#FFE13E"/>
<stop offset="0.634" stop-color="#FFDC1F"/>
<stop offset="0.664" stop-color="#FFD700"/>
<stop offset="0.818" stop-color="#FFD702"/>
<stop offset="0.873" stop-color="#FFD509"/>
<stop offset="0.912" stop-color="#FFD214"/>
<stop offset="0.944" stop-color="#FFCD25"/>
<stop offset="0.972" stop-color="#FFC83B"/>
<stop offset="0.996" stop-color="#FFC156"/>
<stop offset="1" stop-color="#FFBF5C"/>
</radialGradient>
<radialGradient id="paint10_radial_2_5893" cx="0" cy="0" r="1" gradientUnits="userSpaceOnUse" gradientTransform="translate(17.8563 33.0211) rotate(0.159804) scale(21.5081 21.508)">
<stop offset="0.002" stop-color="#FFEE95"/>
<stop offset="0.277" stop-color="#FFEE93"/>
<stop offset="0.376" stop-color="#FFED8C"/>
<stop offset="0.447" stop-color="#FFEB81"/>
<stop offset="0.504" stop-color="#FFE870"/>
<stop offset="0.552" stop-color="#FFE55A"/>
<stop offset="0.596" stop-color="#FFE13E"/>
<stop offset="0.634" stop-color="#FFDC1F"/>
<stop offset="0.664" stop-color="#FFD700"/>
<stop offset="0.818" stop-color="#FFD702"/>
<stop offset="0.873" stop-color="#FFD509"/>
<stop offset="0.912" stop-color="#FFD214"/>
<stop offset="0.944" stop-color="#FFCD25"/>
<stop offset="0.972" stop-color="#FFC83B"/>
<stop offset="0.996" stop-color="#FFC156"/>
<stop offset="1" stop-color="#FFBF5C"/>
</radialGradient>
<linearGradient id="paint11_linear_2_5893" x1="51.3491" y1="17.1337" x2="44.1483" y2="9.93292" gradientUnits="userSpaceOnUse">
<stop stop-color="#FF931E" stop-opacity="0"/>
<stop offset="1" stop-color="#FF5D00"/>
</linearGradient>
<linearGradient id="paint12_linear_2_5893" x1="52.8551" y1="12.9292" x2="36.3618" y2="3.42368" gradientUnits="userSpaceOnUse">
<stop stop-color="#9EB644"/>
<stop offset="1" stop-color="#738611"/>
</linearGradient>
<linearGradient id="paint13_linear_2_5893" x1="47.3511" y1="13.9586" x2="54.452" y2="1.63705" gradientUnits="userSpaceOnUse">
<stop stop-color="#738611" stop-opacity="0"/>
<stop offset="1" stop-color="#738611"/>
</linearGradient>
<clipPath id="clip0_2_5893">
<rect width="56" height="56" fill="white"/>
</clipPath>
</defs>
</svg>
