<svg width="56" height="56" viewBox="0 0 56 56" fill="none" xmlns="http://www.w3.org/2000/svg">
<g clip-path="url(#clip0_2_5373)">
<path d="M46.6142 19.4343C46.2255 23.2221 43.531 25.3356 41.139 26.0506C38.747 26.7655 35.3346 26.4771 32.9311 23.524L32.9312 23.5239L31.7798 22.1098C31.3027 21.5238 30.435 21.3944 29.8403 21.8607C29.2346 22.3357 29.1384 23.213 29.6223 23.8075L30.8018 25.2569L30.8019 25.2568C32.6139 27.4832 35.1051 28.809 37.7874 29.0843C39.1388 29.223 40.5392 29.0949 41.9249 28.6807C46.061 27.4445 48.9042 24.0089 49.3448 19.7146C49.5172 18.0347 49.3693 16.3945 48.9511 14.8546C48.788 14.2544 48.2459 13.8354 47.6238 13.8354C46.718 13.8354 46.0631 14.6964 46.3007 15.5705C46.6335 16.7947 46.7513 18.0987 46.6142 19.4343Z" fill="url(#paint0_linear_2_5373)"/>
<path d="M9.38603 19.4343C9.77473 23.2221 12.4692 25.3356 14.8613 26.0506C17.2533 26.7655 20.6656 26.4771 23.0691 23.524L23.069 23.5239L24.2204 22.1098C24.6975 21.5238 25.5652 21.3944 26.1599 21.8607C26.7657 22.3357 26.8619 23.213 26.378 23.8075L25.1983 25.2569L25.1982 25.2568C23.3862 27.4832 20.895 28.809 18.2127 29.0843C16.8614 29.223 15.4609 29.0949 14.0752 28.6807C9.93911 27.4445 7.09595 24.0089 6.65531 19.7146C6.48292 18.0347 6.63083 16.3945 7.04907 14.8546C7.21213 14.2544 7.75423 13.8354 8.37638 13.8354C9.28215 13.8354 9.93702 14.6964 9.69941 15.5705C9.3667 16.7947 9.24899 18.0987 9.38603 19.4343V19.4343Z" fill="url(#paint1_linear_2_5373)"/>
<path d="M10.5855 23.0588C15.6618 23.0588 19.777 18.5769 19.777 13.0482C19.777 7.5195 15.6618 3.0376 10.5855 3.0376C5.5092 3.0376 1.39404 7.5195 1.39404 13.0482C1.39404 18.5769 5.5092 23.0588 10.5855 23.0588Z" fill="url(#paint2_linear_2_5373)"/>
<path d="M10.5855 23.0588C15.6618 23.0588 19.777 18.5769 19.777 13.0482C19.777 7.5195 15.6618 3.0376 10.5855 3.0376C5.5092 3.0376 1.39404 7.5195 1.39404 13.0482C1.39404 18.5769 5.5092 23.0588 10.5855 23.0588Z" fill="url(#paint3_linear_2_5373)"/>
<path d="M13.1413 12.667C13.852 13.3779 13.7202 14.5643 12.871 15.1019C11.4484 16.0025 10.5861 17.569 10.5861 19.2527V23.0588C4.73925 23.0588 0 17.8968 0 11.5294C0 5.16199 4.73925 0 10.586 0C13.5202 0 16.1759 1.30008 18.0931 3.40063C18.6546 4.01586 18.6224 4.96797 18.0334 5.55696L13.1416 10.4483C12.5288 11.0609 12.5287 12.0543 13.1413 12.667Z" fill="url(#paint4_linear_2_5373)"/>
<path d="M0.114502 13.231C0.869733 18.7915 5.26958 23.059 10.5855 23.059V23.0587C15.6057 23.0587 19.6853 18.6753 19.7749 13.231H0.114502Z" fill="url(#paint5_linear_2_5373)"/>
<path d="M45.4139 23.0588C50.4902 23.0588 54.6054 18.5769 54.6054 13.0482C54.6054 7.5195 50.4902 3.0376 45.4139 3.0376C40.3376 3.0376 36.2224 7.5195 36.2224 13.0482C36.2224 18.5769 40.3376 23.0588 45.4139 23.0588Z" fill="url(#paint6_linear_2_5373)"/>
<path d="M45.4139 23.0588C50.4902 23.0588 54.6054 18.5769 54.6054 13.0482C54.6054 7.5195 50.4902 3.0376 45.4139 3.0376C40.3376 3.0376 36.2224 7.5195 36.2224 13.0482C36.2224 18.5769 40.3376 23.0588 45.4139 23.0588Z" fill="url(#paint7_linear_2_5373)"/>
<path d="M42.8587 12.667C42.148 13.3779 42.2798 14.5643 43.129 15.1019C44.5516 16.0025 45.4139 17.569 45.4139 19.2527V23.0588C51.2608 23.0588 56 17.8968 56 11.5294C56 5.16199 51.2608 0 45.414 0C42.4799 0 39.8241 1.30008 37.907 3.40063C37.3454 4.01586 37.3776 4.96797 37.9666 5.55696L42.8586 10.4483C43.4712 11.0609 43.4713 12.0543 42.8587 12.667Z" fill="url(#paint8_linear_2_5373)"/>
<path d="M55.885 13.231C55.1298 18.7915 50.73 23.059 45.414 23.059V23.0587C40.3938 23.0587 36.3142 18.6753 36.2246 13.231H55.885Z" fill="url(#paint9_linear_2_5373)"/>
<path d="M30.7548 45.0747C29.789 45.0747 28.8624 45.2449 27.9999 45.5553C27.1374 45.245 26.2106 45.0747 25.245 45.0747C20.6416 45.0747 16.9097 48.9093 16.9097 53.6394C16.9097 53.907 16.9217 54.1718 16.9452 54.433C17.004 55.0865 17.4177 55.6268 17.9691 55.763C18.5959 55.918 19.2504 56.0002 19.9236 56.0002C22.1925 56.0002 24.2494 55.0687 25.7523 53.5576C26.9847 52.3184 29.015 52.3184 30.2475 53.5576C31.7503 55.0687 33.8073 56.0002 36.0762 56.0002C36.7494 56.0002 37.4038 55.918 38.0307 55.763C38.582 55.6268 38.9958 55.0865 39.0545 54.433C39.078 54.1716 39.09 53.907 39.09 53.6394C39.0901 48.9093 35.3582 45.0747 30.7548 45.0747V45.0747Z" fill="url(#paint10_linear_2_5373)"/>
<path d="M25.2449 45.0747C25.9533 45.0747 26.6404 45.1672 27.297 45.3382L17.3044 55.3308C17.1071 55.0916 16.9761 54.7785 16.945 54.4331C16.9215 54.1717 16.9094 53.9071 16.9094 53.6395C16.9095 48.9093 20.6413 45.0747 25.2449 45.0747Z" fill="url(#paint11_linear_2_5373)"/>
<path d="M20.6993 7.53995C20.3766 8.13784 20.5378 8.8822 21.0808 9.29067C22.8995 10.6592 24.4432 13.0315 24.113 16.2485H24.1129L23.9273 18.0626C23.8503 18.8143 24.3723 19.5194 25.1225 19.6102C25.8867 19.7026 26.5751 19.1503 26.6533 18.3878L26.8441 16.5288H26.8439C27.1369 13.6733 26.3129 10.9742 24.6108 8.88286C24.0674 8.21514 23.4343 7.60924 22.7195 7.0802C22.0502 6.58466 21.0949 6.80712 20.6993 7.53995V7.53995Z" fill="url(#paint12_linear_2_5373)"/>
<path d="M35.3012 7.53995C35.624 8.13784 35.4627 8.8822 34.9198 9.29067C33.1011 10.6592 31.5574 13.0315 31.8874 16.2485H31.8877L32.0733 18.0626C32.1503 18.8143 31.6283 19.5194 30.8781 19.6102C30.1139 19.7026 29.4255 19.1503 29.3474 18.3878L29.1566 16.5288H29.1568C28.8638 13.6733 29.6879 10.9742 31.3899 8.88286C31.9333 8.21514 32.5665 7.60924 33.2812 7.0802C33.9504 6.58466 34.9057 6.80712 35.3012 7.53995V7.53995Z" fill="url(#paint13_linear_2_5373)"/>
<path d="M39.0908 53.6394C39.0908 53.9074 39.0787 54.172 39.0556 54.4333C38.9963 55.0866 38.5824 55.6269 38.0312 55.763C37.4042 55.9179 36.7497 56.0002 36.0767 56.0002C35.4299 56.0002 34.8007 55.9245 34.1957 55.7806C32.1215 53.6998 28.0028 49.5723 28.0006 49.5613C27.9984 49.5701 27.9962 49.5789 27.994 49.5877L23.6392 45.2339C24.1585 45.1296 24.6966 45.0747 25.2456 45.0747C26.2119 45.0747 27.1375 45.2449 28.0006 45.5556C28.8636 45.2449 29.7893 45.0747 30.7556 45.0747C35.3585 45.0747 39.0908 48.9091 39.0908 53.6394V53.6394Z" fill="url(#paint14_linear_2_5373)"/>
<path d="M30.7545 45.0747C30.0461 45.0747 29.359 45.1672 28.7024 45.3382L38.695 55.3308C38.8923 55.0916 39.0233 54.7785 39.0543 54.4331C39.0778 54.1717 39.0898 53.9071 39.0898 53.6395C39.0898 48.9093 35.3579 45.0747 30.7545 45.0747Z" fill="url(#paint15_linear_2_5373)"/>
<path d="M35.7729 38.1455C34.8699 43.1269 31.9448 47.106 27.9991 47.106C24.0534 47.106 21.1284 43.1269 20.2253 38.1455H35.7729Z" fill="url(#paint16_linear_2_5373)"/>
<path d="M20.2253 38.1455C20.3416 38.787 20.4921 39.4113 20.6732 40.0133L27.3638 47.0689C27.5726 47.0921 27.784 47.106 27.9991 47.106C31.9448 47.106 34.8699 43.1269 35.7729 38.1455H20.2253Z" fill="url(#paint17_linear_2_5373)"/>
<path d="M36.5437 31.0669C37.0558 32.8216 37.4024 34.7128 37.5659 36.6781C37.7209 38.542 36.6315 40.0263 35.044 40.0263H20.956C19.3685 40.0263 18.2791 38.542 18.4341 36.6781C18.5976 34.7127 18.9443 32.8216 19.4563 31.0669H36.5437Z" fill="url(#paint18_linear_2_5373)"/>
<path d="M37.5658 36.6781C37.4023 34.7127 37.0557 32.8216 36.5437 31.0669H19.4562C19.351 31.4276 19.2545 31.7953 19.1633 32.167L19.1657 32.1658L26.6195 40.0263H35.0439C36.6314 40.0263 37.7209 38.542 37.5658 36.6781Z" fill="url(#paint19_linear_2_5373)"/>
<path d="M34.8188 33.0463H21.1805C19.1446 33.0463 17.6914 30.7882 18.3202 28.5857C18.8009 26.9017 19.3723 25.3973 20.0037 24.0869H35.9956C36.627 25.3973 37.1983 26.9017 37.6791 28.5857C38.3078 30.7882 36.8547 33.0463 34.8188 33.0463V33.0463Z" fill="url(#paint20_linear_2_5373)"/>
<path d="M37.6784 28.5857C37.1977 26.9017 36.6262 25.3973 35.9948 24.0869H20.0031C19.9894 24.1152 19.9762 24.1449 19.9626 24.1733V25.1599L27.4408 33.0461H34.818C36.854 33.0463 38.3071 30.7881 37.6784 28.5857Z" fill="url(#paint21_linear_2_5373)"/>
<path d="M33.3784 26.3663H22.6209C19.6859 26.3663 17.9291 22.8826 19.6076 20.3435C21.868 16.924 24.7985 14.8604 27.9996 14.8604C31.2008 14.8604 34.1313 16.9241 36.3917 20.3435C38.0702 22.8826 36.3134 26.3663 33.3784 26.3663Z" fill="url(#paint22_linear_2_5373)"/>
<path d="M18.3202 28.5856C17.6914 30.7881 19.1446 33.0462 21.1804 33.0462H34.8186C36.8545 33.0462 38.3077 30.7881 37.6789 28.5856C37.6415 28.4544 37.6025 28.3263 37.564 28.1973H18.435C18.3966 28.3263 18.3576 28.4544 18.3202 28.5856V28.5856Z" fill="url(#paint23_linear_2_5373)"/>
<path d="M18.4341 36.6782C18.2791 38.5421 19.3685 40.0264 20.956 40.0264H35.0439C36.6313 40.0264 37.7208 38.5421 37.5658 36.6782C37.512 36.0321 37.4365 35.3951 37.3438 34.7671H18.6561C18.5633 35.3951 18.4879 36.032 18.4341 36.6782V36.6782Z" fill="url(#paint24_linear_2_5373)"/>
<path d="M19.6076 20.3435C17.9291 22.8827 19.6859 26.3663 22.6209 26.3663H33.3784C36.3134 26.3663 38.0702 22.8826 36.3917 20.3435C36.1845 20.0301 35.9715 19.7282 35.7533 19.438H20.246C20.0278 19.7281 19.8148 20.0299 19.6076 20.3435V20.3435Z" fill="url(#paint25_linear_2_5373)"/>
<path d="M21.2454 41.5962C22.6308 44.8439 25.0247 47.1061 27.9994 47.1061C30.9741 47.1061 33.368 44.8439 34.7534 41.5962H21.2454Z" fill="url(#paint26_linear_2_5373)"/>
</g>
<defs>
<linearGradient id="paint0_linear_2_5373" x1="37.9018" y1="17.9923" x2="46.7687" y2="26.8592" gradientUnits="userSpaceOnUse">
<stop stop-color="#FD4755"/>
<stop offset="1" stop-color="#D2024E"/>
</linearGradient>
<linearGradient id="paint1_linear_2_5373" x1="18.0984" y1="17.9923" x2="9.23144" y2="26.8592" gradientUnits="userSpaceOnUse">
<stop stop-color="#FD4755"/>
<stop offset="1" stop-color="#D2024E"/>
</linearGradient>
<linearGradient id="paint2_linear_2_5373" x1="10.2303" y1="12.693" x2="17.2216" y2="19.6843" gradientUnits="userSpaceOnUse">
<stop stop-color="#FD4755"/>
<stop offset="1" stop-color="#D2024E"/>
</linearGradient>
<linearGradient id="paint3_linear_2_5373" x1="15.7598" y1="18.2225" x2="9.56806" y2="12.0308" gradientUnits="userSpaceOnUse">
<stop stop-color="#C00148" stop-opacity="0"/>
<stop offset="0.3112" stop-color="#AA0E3F" stop-opacity="0.311"/>
<stop offset="0.9578" stop-color="#713028" stop-opacity="0.958"/>
<stop offset="1" stop-color="#6D3326"/>
</linearGradient>
<linearGradient id="paint4_linear_2_5373" x1="3.63868" y1="4.58212" x2="13.5302" y2="14.4736" gradientUnits="userSpaceOnUse">
<stop stop-color="#FE9738"/>
<stop offset="1" stop-color="#FD4755"/>
</linearGradient>
<linearGradient id="paint5_linear_2_5373" x1="9.9447" y1="14.3368" x2="9.9447" y2="22.3226" gradientUnits="userSpaceOnUse">
<stop stop-color="#FE7701" stop-opacity="0"/>
<stop offset="1" stop-color="#AC2538"/>
</linearGradient>
<linearGradient id="paint6_linear_2_5373" x1="45.769" y1="12.693" x2="38.7777" y2="19.6843" gradientUnits="userSpaceOnUse">
<stop stop-color="#FD4755"/>
<stop offset="1" stop-color="#D2024E"/>
</linearGradient>
<linearGradient id="paint7_linear_2_5373" x1="40.2396" y1="18.2225" x2="46.4312" y2="12.0308" gradientUnits="userSpaceOnUse">
<stop stop-color="#C00148" stop-opacity="0"/>
<stop offset="0.3112" stop-color="#AA0E3F" stop-opacity="0.311"/>
<stop offset="0.9578" stop-color="#713028" stop-opacity="0.958"/>
<stop offset="1" stop-color="#6D3326"/>
</linearGradient>
<linearGradient id="paint8_linear_2_5373" x1="40.451" y1="4.50493" x2="49.6742" y2="13.7281" gradientUnits="userSpaceOnUse">
<stop stop-color="#FE9738"/>
<stop offset="1" stop-color="#FD4755"/>
</linearGradient>
<linearGradient id="paint9_linear_2_5373" x1="46.0547" y1="14.3368" x2="46.0547" y2="22.3226" gradientUnits="userSpaceOnUse">
<stop stop-color="#FE7701" stop-opacity="0"/>
<stop offset="1" stop-color="#AC2538"/>
</linearGradient>
<linearGradient id="paint10_linear_2_5373" x1="24.4978" y1="46.587" x2="28.9998" y2="54.8773" gradientUnits="userSpaceOnUse">
<stop stop-color="#FD4755"/>
<stop offset="1" stop-color="#D2024E"/>
</linearGradient>
<linearGradient id="paint11_linear_2_5373" x1="21.2561" y1="45.8284" x2="24.0561" y2="59.0598" gradientUnits="userSpaceOnUse">
<stop stop-color="#C00148" stop-opacity="0"/>
<stop offset="0.3112" stop-color="#AA0E3F" stop-opacity="0.311"/>
<stop offset="0.9578" stop-color="#713028" stop-opacity="0.958"/>
<stop offset="1" stop-color="#6D3326"/>
</linearGradient>
<linearGradient id="paint12_linear_2_5373" x1="20.4386" y1="13.2173" x2="28.598" y2="13.2173" gradientUnits="userSpaceOnUse">
<stop stop-color="#FD4755"/>
<stop offset="1" stop-color="#D2024E"/>
</linearGradient>
<linearGradient id="paint13_linear_2_5373" x1="29.4424" y1="13.2173" x2="34.8934" y2="13.2173" gradientUnits="userSpaceOnUse">
<stop stop-color="#FD4755"/>
<stop offset="1" stop-color="#D2024E"/>
</linearGradient>
<linearGradient id="paint14_linear_2_5373" x1="32.0682" y1="54.2234" x2="30.8603" y2="45.4757" gradientUnits="userSpaceOnUse">
<stop stop-color="#C00148" stop-opacity="0"/>
<stop offset="0.3112" stop-color="#AA0E3F" stop-opacity="0.311"/>
<stop offset="0.9578" stop-color="#713028" stop-opacity="0.958"/>
<stop offset="1" stop-color="#6D3326"/>
</linearGradient>
<linearGradient id="paint15_linear_2_5373" x1="34.7432" y1="45.8284" x2="31.9432" y2="59.0598" gradientUnits="userSpaceOnUse">
<stop stop-color="#C00148" stop-opacity="0"/>
<stop offset="0.3112" stop-color="#AA0E3F" stop-opacity="0.311"/>
<stop offset="0.9578" stop-color="#713028" stop-opacity="0.958"/>
<stop offset="1" stop-color="#6D3326"/>
</linearGradient>
<linearGradient id="paint16_linear_2_5373" x1="27.59" y1="37.1124" x2="30.9567" y2="47.6027" gradientUnits="userSpaceOnUse">
<stop stop-color="#FE9738"/>
<stop offset="1" stop-color="#FD4755"/>
</linearGradient>
<linearGradient id="paint17_linear_2_5373" x1="27.9991" y1="47.3492" x2="27.9991" y2="38.0595" gradientUnits="userSpaceOnUse">
<stop stop-color="#FE7701" stop-opacity="0"/>
<stop offset="1" stop-color="#AC2538"/>
</linearGradient>
<linearGradient id="paint18_linear_2_5373" x1="26.539" y1="30.8879" x2="29.6249" y2="42.0741" gradientUnits="userSpaceOnUse">
<stop stop-color="#FE9738"/>
<stop offset="1" stop-color="#FD4755"/>
</linearGradient>
<linearGradient id="paint19_linear_2_5373" x1="28.3719" y1="40.7179" x2="28.3719" y2="28.6236" gradientUnits="userSpaceOnUse">
<stop stop-color="#FE7701" stop-opacity="0"/>
<stop offset="1" stop-color="#AC2538"/>
</linearGradient>
<linearGradient id="paint20_linear_2_5373" x1="25.2911" y1="25.8371" x2="32.2902" y2="32.8362" gradientUnits="userSpaceOnUse">
<stop stop-color="#FE9738"/>
<stop offset="1" stop-color="#FD4755"/>
</linearGradient>
<linearGradient id="paint21_linear_2_5373" x1="28.8945" y1="32.7007" x2="28.8945" y2="21.4018" gradientUnits="userSpaceOnUse">
<stop stop-color="#FE7701" stop-opacity="0"/>
<stop offset="1" stop-color="#AC2538"/>
</linearGradient>
<linearGradient id="paint22_linear_2_5373" x1="24.2664" y1="18.601" x2="31.6711" y2="26.0055" gradientUnits="userSpaceOnUse">
<stop stop-color="#FE9738"/>
<stop offset="1" stop-color="#FD4755"/>
</linearGradient>
<linearGradient id="paint23_linear_2_5373" x1="27.9996" y1="29.0509" x2="27.9996" y2="34.5892" gradientUnits="userSpaceOnUse">
<stop stop-color="#C00148" stop-opacity="0"/>
<stop offset="0.3112" stop-color="#AA0E3F" stop-opacity="0.311"/>
<stop offset="0.9578" stop-color="#713028" stop-opacity="0.958"/>
<stop offset="1" stop-color="#6D3326"/>
</linearGradient>
<linearGradient id="paint24_linear_2_5373" x1="28" y1="35.7322" x2="28" y2="40.6698" gradientUnits="userSpaceOnUse">
<stop stop-color="#C00148" stop-opacity="0"/>
<stop offset="0.3112" stop-color="#AA0E3F" stop-opacity="0.311"/>
<stop offset="0.9578" stop-color="#713028" stop-opacity="0.958"/>
<stop offset="1" stop-color="#6D3326"/>
</linearGradient>
<linearGradient id="paint25_linear_2_5373" x1="27.9996" y1="20.7092" x2="27.9996" y2="27.214" gradientUnits="userSpaceOnUse">
<stop stop-color="#C00148" stop-opacity="0"/>
<stop offset="0.3112" stop-color="#AA0E3F" stop-opacity="0.311"/>
<stop offset="0.9578" stop-color="#713028" stop-opacity="0.958"/>
<stop offset="1" stop-color="#6D3326"/>
</linearGradient>
<linearGradient id="paint26_linear_2_5373" x1="27.9994" y1="43.0066" x2="27.9994" y2="47.417" gradientUnits="userSpaceOnUse">
<stop stop-color="#C00148" stop-opacity="0"/>
<stop offset="0.3112" stop-color="#AA0E3F" stop-opacity="0.311"/>
<stop offset="0.9578" stop-color="#713028" stop-opacity="0.958"/>
<stop offset="1" stop-color="#6D3326"/>
</linearGradient>
<clipPath id="clip0_2_5373">
<rect width="56" height="56" fill="white"/>
</clipPath>
</defs>
</svg>
