<svg width="56" height="56" viewBox="0 0 56 56" fill="none" xmlns="http://www.w3.org/2000/svg">
<g clip-path="url(#clip0_2_5408)">
<path d="M37.9221 9.40031L37.2468 6.55068C36.3429 2.73664 32.4799 0 28.0001 0C23.5203 0 19.6573 2.73664 18.7534 6.55068L18.0781 9.40031C17.1427 13.3473 14.814 16.9423 11.4164 19.6842C8.94166 21.6814 7.5354 24.4842 7.5354 27.4196C7.5354 28.8927 8.53253 30.2278 10.0804 30.8275C21.4862 35.2459 34.514 35.2459 45.9198 30.8275C47.4677 30.2278 48.4648 28.8926 48.4648 27.4196C48.4648 24.4842 47.0586 21.6814 44.5838 19.6842C41.1862 16.9423 38.8575 13.3473 37.9221 9.40031Z" fill="url(#paint0_radial_2_5408)"/>
<path d="M45.92 26.1844C34.5142 21.766 21.4864 21.766 10.0806 26.1844C8.92606 26.6316 8.07859 27.4883 7.72217 28.506C8.0787 29.5236 8.92617 30.3803 10.0806 30.8276C21.4864 35.2459 34.5142 35.2459 45.92 30.8276C47.0746 30.3803 47.922 29.5236 48.2785 28.506C47.922 27.4883 47.0746 26.6316 45.92 26.1844V26.1844Z" fill="url(#paint1_linear_2_5408)"/>
<path d="M48.2772 28.5066C48.0993 29.0151 47.7996 29.4831 47.3974 29.8813C46.9972 30.2777 46.4964 30.6045 45.9201 30.8268C45.6146 30.9448 45.3072 31.0608 44.9977 31.173C41.3607 29.7789 35.1055 28.8585 27.9997 28.8585C20.8938 28.8585 14.6386 29.7789 11.0016 31.173C10.6921 31.0608 10.3848 30.9448 10.0792 30.8268C8.92485 30.3802 8.07793 29.5236 7.72217 28.5066C7.90005 27.9981 8.19982 27.5282 8.60192 27.1318C9.00215 26.7335 9.50297 26.4087 10.0792 26.1843C21.4854 21.766 34.5139 21.766 45.9201 26.1843C47.0745 26.631 47.9214 27.4876 48.2772 28.5066V28.5066Z" fill="url(#paint2_linear_2_5408)"/>
<path d="M47.7438 27.5262C41.2953 28.5761 34.6477 29.1001 27.9999 29.1001C21.3522 29.1001 14.7047 28.5761 8.2561 27.5262C8.35855 27.3889 8.47648 27.2555 8.60221 27.1317C9.00244 26.7334 9.50326 26.4086 10.0795 26.1842C11.377 25.6816 12.6956 25.2368 14.0318 24.8482C15.9905 24.2777 17.9859 23.8312 19.9989 23.5063C21.4684 23.2723 22.9495 23.1002 24.4325 22.9958C26.8069 22.8295 29.193 22.8295 31.5675 22.9958C33.0505 23.1002 34.5316 23.2723 36.0011 23.5063C38.014 23.831 40.0094 24.2777 41.9682 24.8482C43.3043 25.2369 44.6231 25.6816 45.9204 26.1842C46.6784 26.4782 47.3048 26.948 47.7438 27.5262V27.5262Z" fill="url(#paint3_linear_2_5408)"/>
<path d="M41.9683 24.8482C41.7401 25.086 41.483 25.287 41.2007 25.4418C36.999 27.7195 32.4996 28.8584 28.0001 28.8584C23.5007 28.8584 19.0013 27.7195 14.7996 25.4418C14.5173 25.287 14.2602 25.086 14.032 24.8482C15.9907 24.2777 17.9861 23.8312 19.9991 23.5063C21.4686 23.2723 22.9497 23.1002 24.4327 22.9958C26.8071 22.8295 29.1932 22.8295 31.5677 22.9958C33.0507 23.1002 34.5318 23.2723 36.0013 23.5063C38.0141 23.8312 40.0096 24.2778 41.9683 24.8482Z" fill="url(#paint4_linear_2_5408)"/>
<path d="M36.0014 23.5063C35.8255 24.2391 35.5392 24.8404 35.1777 25.1923H35.1757C32.8921 27.4024 30.4461 28.5065 28.0002 28.5065C25.5542 28.5065 23.1082 27.4024 20.8246 25.1923C20.4612 24.8404 20.1749 24.2391 19.999 23.5063C21.4685 23.2723 22.9497 23.1002 24.4327 22.9958C26.8071 22.8295 29.1931 22.8295 31.5676 22.9958C33.0508 23.1002 34.5319 23.2723 36.0014 23.5063Z" fill="url(#paint5_linear_2_5408)"/>
<path d="M31.5669 22.9959C31.536 23.456 31.4857 23.8796 31.4219 24.245C31.3503 24.6414 31.2633 24.9682 31.1609 25.1924C30.1535 27.4025 29.0765 28.5066 27.9995 28.5066C26.9226 28.5066 25.8455 27.4025 24.8382 25.1924C24.6428 24.7632 24.4979 23.9569 24.4321 22.9959C26.8065 22.8295 29.1925 22.8295 31.5669 22.9959V22.9959Z" fill="url(#paint6_linear_2_5408)"/>
<path d="M44.9981 31.1733C42.9447 31.9216 40.8409 32.5269 38.7082 32.9928C35.1949 33.7584 31.5966 34.1413 28 34.1413C24.4035 34.1413 20.8051 33.7584 17.2919 32.9928C15.1591 32.5268 13.0554 31.9215 11.002 31.1733C13.7824 30.1079 18.0943 29.3191 23.1448 29.0078C24.6994 28.9092 26.3275 28.8589 28 28.8589C29.6726 28.8589 31.3006 28.9092 32.8552 29.0078C37.9058 29.319 42.2177 30.1079 44.9981 31.1733V31.1733Z" fill="url(#paint7_linear_2_5408)"/>
<path d="M38.7078 32.9925C35.1946 33.7582 31.5962 34.1411 27.9997 34.1411C24.4032 34.1411 20.8048 33.7582 17.2915 32.9925C17.8175 31.2427 20.0584 29.7712 23.1445 29.0074C24.6043 28.6439 26.2537 28.439 27.9997 28.439C29.7457 28.439 31.395 28.644 32.8549 29.0074C35.9409 29.7712 38.1819 31.2427 38.7078 32.9925V32.9925Z" fill="url(#paint8_linear_2_5408)"/>
<path d="M39.412 32.8326L33.4004 27.022H32.7693V33.9143C35.0045 33.7026 37.2255 33.3427 39.412 32.8326Z" fill="url(#paint9_linear_2_5408)"/>
<path d="M32.3674 26.2887C29.7314 25.4884 26.921 25.462 24.2705 26.2129L23.7173 26.3695C22.9882 26.5761 22.4379 27.1762 22.2952 27.9203L20.9599 34.8774C19.9053 40.3728 20.6086 46.0608 22.9699 51.1338L23.1363 51.4913C24.4165 54.2416 27.1749 56.0002 30.2085 56.0002C36.0766 56.0002 39.8437 49.7647 37.1137 44.5704L35.2716 41.0651C34.5201 39.6351 34.1029 38.053 34.0516 36.4385L33.7884 28.1433C33.7611 27.2843 33.1896 26.5384 32.3674 26.2887V26.2887Z" fill="url(#paint10_linear_2_5408)"/>
<g opacity="0.47">
<path opacity="0.47" d="M34.5398 16.4755C36.2689 16.4755 37.6706 15.0738 37.6706 13.3447C37.6706 11.6156 36.2689 10.2139 34.5398 10.2139C32.8107 10.2139 31.4089 11.6156 31.4089 13.3447C31.4089 15.0738 32.8107 16.4755 34.5398 16.4755Z" fill="url(#paint11_linear_2_5408)"/>
<path opacity="0.47" d="M39.7845 22.487C40.7453 22.487 41.5241 21.7082 41.5241 20.7474C41.5241 19.7867 40.7453 19.0078 39.7845 19.0078C38.8238 19.0078 38.0449 19.7867 38.0449 20.7474C38.0449 21.7082 38.8238 22.487 39.7845 22.487Z" fill="url(#paint12_linear_2_5408)"/>
<path opacity="0.47" d="M36.7611 19.679C36.725 20.9773 35.6431 22.0006 34.3448 21.9644C33.0464 21.9283 32.0232 20.8464 32.0593 19.5481C32.0954 18.2497 33.1773 17.2265 34.4756 17.2626C35.774 17.2988 36.7972 18.3806 36.7611 19.679Z" fill="url(#paint13_linear_2_5408)"/>
</g>
<path d="M22.4707 42.5352C21.9596 41.9498 21.2769 41.5458 20.521 41.2812C20.6977 44.6724 21.5196 48.0191 22.9692 51.1335L23.1356 51.4911C24.4159 54.2413 27.1743 56 30.2079 56C31.873 56 33.3683 55.497 34.5946 54.6591L22.4707 42.5352Z" fill="url(#paint14_linear_2_5408)"/>
<path d="M24.8698 52.108L24.8343 51.9508C24.3315 49.7198 23.1386 47.7039 21.4251 46.1893L19.2558 44.2719C19.0238 44.0667 18.6958 44.01 18.4084 44.1253L18.1903 44.2127C17.1453 44.6316 16.2426 45.342 15.5896 46.2592C15.3859 46.5453 15.3872 46.9293 15.5929 47.2141L17.5791 49.9635C17.9658 50.4987 18.2259 51.1147 18.3399 51.7651L18.6192 53.3592C19.0332 55.7215 21.809 56.7982 23.7075 55.3328C24.6891 54.5753 25.1423 53.3175 24.8698 52.108V52.108Z" fill="url(#paint15_linear_2_5408)"/>
<path d="M24.8343 51.9508C24.3315 49.7198 23.1386 47.7039 21.4251 46.1893L19.2558 44.2719C19.0238 44.0667 18.6958 44.01 18.4084 44.1253L18.1903 44.2127C17.1453 44.6316 16.2426 45.342 15.5896 46.2592C15.3859 46.5453 15.3872 46.9293 15.5929 47.2141L17.2916 49.5654L23.3175 55.5913C23.4507 55.5159 23.5812 55.4304 23.7076 55.3328C24.6891 54.5753 25.1423 53.3175 24.8698 52.108L24.8343 51.9508Z" fill="url(#paint16_linear_2_5408)"/>
<path d="M22.6114 42.7022C24.6025 45.2818 15.2175 52.5254 13.2266 49.9459C11.2356 47.3663 13.1306 42.5666 14.314 41.6533C15.4972 40.7399 20.6203 40.1226 22.6114 42.7022Z" fill="url(#paint17_radial_2_5408)"/>
</g>
<defs>
<radialGradient id="paint0_radial_2_5408" cx="0" cy="0" r="1" gradientUnits="userSpaceOnUse" gradientTransform="translate(21.315 10.4414) scale(28.9286 25.1553)">
<stop stop-color="#FCB37E"/>
<stop offset="0.1856" stop-color="#F8B07B"/>
<stop offset="0.3757" stop-color="#ECA774"/>
<stop offset="0.5679" stop-color="#D79867"/>
<stop offset="0.7616" stop-color="#BA8456"/>
<stop offset="0.9548" stop-color="#96693F"/>
<stop offset="1" stop-color="#8C6239"/>
</radialGradient>
<linearGradient id="paint1_linear_2_5408" x1="28.0003" y1="28.762" x2="28.0003" y2="20.3971" gradientUnits="userSpaceOnUse">
<stop stop-color="#FFDECF"/>
<stop offset="1" stop-color="#FAA68E"/>
</linearGradient>
<linearGradient id="paint2_linear_2_5408" x1="27.9997" y1="25.3136" x2="27.9997" y2="32.6819" gradientUnits="userSpaceOnUse">
<stop stop-color="#FAA68E" stop-opacity="0"/>
<stop offset="1" stop-color="#DB9381"/>
</linearGradient>
<linearGradient id="paint3_linear_2_5408" x1="27.9999" y1="26.1031" x2="27.9999" y2="30.9371" gradientUnits="userSpaceOnUse">
<stop stop-color="#FAA68E" stop-opacity="0"/>
<stop offset="1" stop-color="#DB9381"/>
</linearGradient>
<linearGradient id="paint4_linear_2_5408" x1="28.0001" y1="25.5875" x2="28.0001" y2="29.3279" gradientUnits="userSpaceOnUse">
<stop stop-color="#FAA68E" stop-opacity="0"/>
<stop offset="1" stop-color="#DB9381"/>
</linearGradient>
<linearGradient id="paint5_linear_2_5408" x1="28.0002" y1="26.1208" x2="28.0002" y2="28.3009" gradientUnits="userSpaceOnUse">
<stop stop-color="#FAA68E" stop-opacity="0"/>
<stop offset="1" stop-color="#DB9381"/>
</linearGradient>
<linearGradient id="paint6_linear_2_5408" x1="27.9995" y1="24.3145" x2="27.9995" y2="27.1187" gradientUnits="userSpaceOnUse">
<stop stop-color="#FAA68E" stop-opacity="0"/>
<stop offset="1" stop-color="#DB9381"/>
</linearGradient>
<linearGradient id="paint7_linear_2_5408" x1="28" y1="32.5326" x2="28" y2="26.9252" gradientUnits="userSpaceOnUse">
<stop stop-color="#FAA68E" stop-opacity="0"/>
<stop offset="1" stop-color="#DB9381"/>
</linearGradient>
<linearGradient id="paint8_linear_2_5408" x1="27.9997" y1="32.8708" x2="27.9997" y2="27.2907" gradientUnits="userSpaceOnUse">
<stop stop-color="#FAA68E" stop-opacity="0"/>
<stop offset="1" stop-color="#DB9381"/>
</linearGradient>
<linearGradient id="paint9_linear_2_5408" x1="38.7328" y1="33.2123" x2="33.0288" y2="30.4408" gradientUnits="userSpaceOnUse">
<stop stop-color="#FAA68E" stop-opacity="0"/>
<stop offset="1" stop-color="#DB9381"/>
</linearGradient>
<linearGradient id="paint10_linear_2_5408" x1="23.3981" y1="40.8343" x2="36.4788" y2="40.8343" gradientUnits="userSpaceOnUse">
<stop stop-color="#FFDECF"/>
<stop offset="1" stop-color="#FAA68E"/>
</linearGradient>
<linearGradient id="paint11_linear_2_5408" x1="33.3471" y1="12.1454" x2="38.1289" y2="16.8985" gradientUnits="userSpaceOnUse">
<stop stop-color="#8C6239" stop-opacity="0"/>
<stop offset="1" stop-color="#8C6239"/>
</linearGradient>
<linearGradient id="paint12_linear_2_5408" x1="38.5027" y1="20.3929" x2="41.4976" y2="21.1997" gradientUnits="userSpaceOnUse">
<stop stop-color="#8C6239" stop-opacity="0"/>
<stop offset="1" stop-color="#8C6239"/>
</linearGradient>
<linearGradient id="paint13_linear_2_5408" x1="33.1105" y1="18.2254" x2="37.3458" y2="22.7047" gradientUnits="userSpaceOnUse">
<stop stop-color="#8C6239" stop-opacity="0"/>
<stop offset="1" stop-color="#8C6239"/>
</linearGradient>
<linearGradient id="paint14_linear_2_5408" x1="31.5686" y1="49.928" x2="18.4686" y2="47.3661" gradientUnits="userSpaceOnUse">
<stop stop-color="#FAA68E" stop-opacity="0"/>
<stop offset="1" stop-color="#DB9381"/>
</linearGradient>
<linearGradient id="paint15_linear_2_5408" x1="20.0785" y1="50.2063" x2="23.269" y2="48.8046" gradientUnits="userSpaceOnUse">
<stop stop-color="#FFDECF"/>
<stop offset="1" stop-color="#FAA68E"/>
</linearGradient>
<linearGradient id="paint16_linear_2_5408" x1="23.7531" y1="51.1157" x2="12.7316" y2="45.7499" gradientUnits="userSpaceOnUse">
<stop stop-color="#FAA68E" stop-opacity="0"/>
<stop offset="1" stop-color="#DB9381"/>
</linearGradient>
<radialGradient id="paint17_radial_2_5408" cx="0" cy="0" r="1" gradientUnits="userSpaceOnUse" gradientTransform="translate(12.6516 42.5799) rotate(-37.649) scale(8.93109 8.93109)">
<stop stop-color="#FCB37E"/>
<stop offset="0.1856" stop-color="#F8B07B"/>
<stop offset="0.3757" stop-color="#ECA774"/>
<stop offset="0.5679" stop-color="#D79867"/>
<stop offset="0.7616" stop-color="#BA8456"/>
<stop offset="0.9548" stop-color="#96693F"/>
<stop offset="1" stop-color="#8C6239"/>
</radialGradient>
<clipPath id="clip0_2_5408">
<rect width="56" height="56" fill="white"/>
</clipPath>
</defs>
</svg>
