<svg width="56" height="56" viewBox="0 0 56 56" fill="none" xmlns="http://www.w3.org/2000/svg">
<g clip-path="url(#clip0_2_5432)">
<path d="M49.5685 56H27.1287C25.6789 56 24.4751 54.8805 24.3701 53.4345L20.7044 2.96624C20.588 1.36398 21.8566 0 23.463 0H53.2341C54.8405 0 56.1091 1.36398 55.9927 2.96624L52.327 53.4345C52.222 54.8805 51.0182 56 49.5685 56Z" fill="url(#paint0_linear_2_5432)"/>
<path d="M52.3269 53.4344L53.0339 43.7005L32.7215 23.3882L22.9009 33.2088L24.3699 53.4345C24.475 54.8804 25.6788 56 27.1286 56H49.5682C51.018 56 52.2218 54.8804 52.3269 53.4344V53.4344Z" fill="url(#paint1_linear_2_5432)"/>
<path d="M23.9458 47.5908L24.3703 53.4348C24.4753 54.8808 25.6791 56.0002 27.1288 56.0002H49.5684C51.0183 56.0002 52.2221 54.8808 52.327 53.4348L52.7515 47.5908H23.9458Z" fill="url(#paint2_linear_2_5432)"/>
<path d="M44.2096 16.1199C47.1923 13.111 52.1336 15.5516 51.8341 19.8858L49.7176 50.506C49.6318 51.7417 48.6524 52.6994 47.4733 52.6994H29.2248C28.0457 52.6994 27.0664 51.7418 26.9805 50.506L24.7848 18.74C24.7347 18.0155 24.9666 17.3008 25.4274 16.7595L25.8224 16.2953C28.2905 13.3957 32.569 13.271 35.1863 16.0223C37.6677 18.6307 41.6778 18.674 44.2096 16.1199V16.1199Z" fill="url(#paint3_linear_2_5432)"/>
<path d="M50.3714 41.0381L32.7215 23.3882L25.5979 30.5118L26.9799 50.5058C27.0658 51.7415 28.0451 52.6992 29.2242 52.6992H47.4727C48.6518 52.6992 49.6311 51.7416 49.717 50.5058L50.3714 41.0381Z" fill="url(#paint4_linear_2_5432)"/>
<path d="M26.2007 39.2256L26.9804 50.5058C27.0663 51.7415 28.0456 52.6992 29.2247 52.6992H47.4732C48.6523 52.6992 49.6316 51.7416 49.7175 50.5058L50.4972 39.2256H26.2007Z" fill="url(#paint5_linear_2_5432)"/>
<path d="M31.3801 30.2511L27.1722 26.0432C26.383 25.254 26.383 23.9747 27.1722 23.1855L31.3801 18.9776C32.1693 18.1885 33.4486 18.1885 34.2378 18.9776L38.4457 23.1855C39.2348 23.9747 39.2348 25.254 38.4457 26.0432L34.2378 30.2511C33.4486 31.0403 32.1692 31.0403 31.3801 30.2511Z" fill="url(#paint6_linear_2_5432)"/>
<path d="M41.2448 31.3241L40.3103 26.5005C40.1351 25.596 40.7264 24.7206 41.6309 24.5454L46.4546 23.6108C47.3592 23.4356 48.2345 24.0269 48.4098 24.9314L49.3443 29.755C49.5196 30.6596 48.9283 31.5349 48.0237 31.7102L43.2001 32.6447C42.2955 32.8199 41.4201 32.2287 41.2448 31.3241V31.3241Z" fill="url(#paint7_linear_2_5432)"/>
<path d="M38.4022 36.9488L33.6481 35.708C32.7566 35.4753 32.2224 34.5639 32.4551 33.6725L33.6959 28.9184C33.9286 28.0269 34.8399 27.4927 35.7314 27.7254L40.4855 28.9662C41.377 29.1988 41.9112 30.1102 41.6785 31.0017L40.4377 35.7558C40.205 36.6474 39.2937 37.1814 38.4022 36.9488Z" fill="url(#paint8_linear_2_5432)"/>
<path d="M43.5997 21.6129L38.8456 20.3721C37.9541 20.1394 37.4199 19.228 37.6526 18.3365L38.8934 13.5825C39.1261 12.691 40.0374 12.1568 40.9289 12.3894L45.683 13.6302C46.5745 13.8629 47.1087 14.7743 46.876 15.6658L45.6352 20.4198C45.4025 21.3113 44.4912 21.8455 43.5997 21.6129Z" fill="url(#paint9_linear_2_5432)"/>
<path d="M34.3961 30.7349C33.7759 29.0131 33.446 27.1821 33.4869 25.3086C33.5216 23.7178 32.2821 22.4783 30.6913 22.513C28.8178 22.5539 26.9869 22.2241 25.265 21.6038C19.0292 19.3576 11.3617 21.0693 5.89393 26.5371C0.426248 32.0048 -1.28549 39.6723 0.960773 45.9081C1.58106 47.6299 1.9108 49.4608 1.86995 51.3344C1.83525 52.9252 3.07472 54.1647 4.66556 54.13C6.53903 54.0891 8.3699 54.4189 10.0918 55.0391C16.3276 57.2853 23.9951 55.5737 29.4629 50.1059C34.9306 44.6382 36.6423 36.9707 34.3961 30.7349V30.7349Z" fill="url(#paint10_linear_2_5432)"/>
<path d="M12.6284 50.8379C13.3157 50.8379 13.8728 50.2808 13.8728 49.5935C13.8728 48.9063 13.3157 48.3491 12.6284 48.3491C11.9412 48.3491 11.384 48.9063 11.384 49.5935C11.384 50.2808 11.9412 50.8379 12.6284 50.8379Z" fill="url(#paint11_linear_2_5432)"/>
<path d="M15.6204 45.9331C16.3077 45.9331 16.8648 45.376 16.8648 44.6887C16.8648 44.0015 16.3077 43.4443 15.6204 43.4443C14.9331 43.4443 14.376 44.0015 14.376 44.6887C14.376 45.376 14.9331 45.9331 15.6204 45.9331Z" fill="url(#paint12_linear_2_5432)"/>
<path d="M5.93045 43.792C6.61771 43.792 7.17486 43.2349 7.17486 42.5476C7.17486 41.8604 6.61771 41.3032 5.93045 41.3032C5.24318 41.3032 4.68604 41.8604 4.68604 42.5476C4.68604 43.2349 5.24318 43.792 5.93045 43.792Z" fill="url(#paint13_linear_2_5432)"/>
<path d="M26.6377 44.3926C27.325 44.3926 27.8821 43.8355 27.8821 43.1482C27.8821 42.4609 27.325 41.9038 26.6377 41.9038C25.9505 41.9038 25.3933 42.4609 25.3933 43.1482C25.3933 43.8355 25.9505 44.3926 26.6377 44.3926Z" fill="url(#paint14_linear_2_5432)"/>
<path d="M21.77 49.2862C22.8991 49.2862 23.8144 48.3708 23.8144 47.2417C23.8144 46.1126 22.8991 45.1973 21.77 45.1973C20.6409 45.1973 19.7256 46.1126 19.7256 47.2417C19.7256 48.3708 20.6409 49.2862 21.77 49.2862Z" fill="url(#paint15_linear_2_5432)"/>
<path d="M18.6682 41.106C19.7973 41.106 20.7126 40.1907 20.7126 39.0615C20.7126 37.9324 19.7973 37.0171 18.6682 37.0171C17.5391 37.0171 16.6238 37.9324 16.6238 39.0615C16.6238 40.1907 17.5391 41.106 18.6682 41.106Z" fill="url(#paint16_linear_2_5432)"/>
<path d="M29.9519 49.5996C35.0307 44.1718 36.5735 36.7805 34.3957 30.7348C33.7756 29.013 33.4457 27.182 33.4866 25.3085C33.5213 23.7177 32.2818 22.4782 30.691 22.5129L14.5325 34.1802L29.9519 49.5996Z" fill="url(#paint17_linear_2_5432)"/>
<path d="M17.8065 34.3851C25.902 33.6771 30.2606 29.0106 30.6687 23.6889C30.6994 23.2891 30.7064 22.8972 30.6906 22.5141C24.7734 21.3978 18.4832 23.7686 15.4525 30.3641C14.9098 31.5452 14.5883 32.7257 14.4511 33.873C14.4183 34.148 14.6293 34.37 14.948 34.3959C15.8664 34.4702 16.8217 34.4712 17.8065 34.3851V34.3851Z" fill="url(#paint18_linear_2_5432)"/>
<path d="M16.1636 31.1215C15.4508 32.1215 14.9244 33.0836 14.5603 33.9891C14.473 34.2062 14.6026 34.3413 14.8651 34.3074C15.622 34.2097 16.4257 34.0493 17.2733 33.8169C24.2404 31.9066 28.9203 27.5826 30.4172 23.4209C30.5296 23.1083 30.6205 22.8056 30.6903 22.5137C25.952 22.6533 20.1441 25.5378 16.1636 31.1215V31.1215Z" fill="url(#paint19_linear_2_5432)"/>
<path d="M15.4548 30.3637C14.9121 31.5448 14.5906 32.7253 14.4534 33.8726C14.4395 33.989 14.4713 34.0945 14.5344 34.181L30.6929 22.5135C24.7757 21.3974 18.4857 23.7682 15.4548 30.3637V30.3637Z" fill="url(#paint20_linear_2_5432)"/>
<path d="M18.9121 25.5922L26.2748 31.4531C28.9618 29.4626 30.439 26.6787 30.6684 23.6879C30.699 23.2881 30.7061 22.8962 30.6902 22.5131C26.527 21.7277 22.1793 22.6685 18.9121 25.5922V25.5922Z" fill="url(#paint21_linear_2_5432)"/>
<path d="M0.0602635 38.8707C-0.13376 41.2887 0.161612 43.6892 0.960985 45.9083C1.58127 47.6302 1.91101 49.461 1.87016 51.3346C1.83546 52.9254 3.07493 54.1649 4.66577 54.1302C6.53924 54.0893 8.37011 54.4191 10.0921 55.0393C16.3278 57.2855 23.9953 55.5739 29.4631 50.1061C32.6907 46.8785 34.6084 42.8843 35.1769 38.8706H0.0602635V38.8707Z" fill="url(#paint22_linear_2_5432)"/>
</g>
<defs>
<linearGradient id="paint0_linear_2_5432" x1="24.2647" y1="12.0833" x2="64.1383" y2="51.9568" gradientUnits="userSpaceOnUse">
<stop stop-color="#EAF6FF"/>
<stop offset="1" stop-color="#B3DAFE"/>
</linearGradient>
<linearGradient id="paint1_linear_2_5432" x1="41.6769" y1="51.2363" x2="30.9716" y2="41.1897" gradientUnits="userSpaceOnUse">
<stop stop-color="#8AC9FE" stop-opacity="0"/>
<stop offset="0.0634" stop-color="#85C2F3" stop-opacity="0.063"/>
<stop offset="0.3677" stop-color="#70A3C3" stop-opacity="0.368"/>
<stop offset="0.6362" stop-color="#608CA0" stop-opacity="0.636"/>
<stop offset="0.8561" stop-color="#577E8B" stop-opacity="0.856"/>
<stop offset="1" stop-color="#537983"/>
</linearGradient>
<linearGradient id="paint2_linear_2_5432" x1="38.3487" y1="50.9195" x2="38.3487" y2="58.2861" gradientUnits="userSpaceOnUse">
<stop stop-color="#8AC9FE" stop-opacity="0"/>
<stop offset="0.0634" stop-color="#85C2F3" stop-opacity="0.063"/>
<stop offset="0.3677" stop-color="#70A3C3" stop-opacity="0.368"/>
<stop offset="0.6362" stop-color="#608CA0" stop-opacity="0.636"/>
<stop offset="0.8561" stop-color="#577E8B" stop-opacity="0.856"/>
<stop offset="1" stop-color="#537983"/>
</linearGradient>
<linearGradient id="paint3_linear_2_5432" x1="29.4036" y1="33.3683" x2="53.9199" y2="33.3683" gradientUnits="userSpaceOnUse">
<stop stop-color="#FEE97D"/>
<stop offset="1" stop-color="#FE860A"/>
</linearGradient>
<linearGradient id="paint4_linear_2_5432" x1="45.9622" y1="42.4106" x2="22.6106" y2="35.6759" gradientUnits="userSpaceOnUse">
<stop stop-color="#FE7701" stop-opacity="0"/>
<stop offset="0.398" stop-color="#E05915" stop-opacity="0.398"/>
<stop offset="1" stop-color="#AC2538"/>
</linearGradient>
<linearGradient id="paint5_linear_2_5432" x1="38.349" y1="43.2772" x2="38.349" y2="56.9083" gradientUnits="userSpaceOnUse">
<stop stop-color="#FE7701" stop-opacity="0"/>
<stop offset="0.398" stop-color="#E05915" stop-opacity="0.398"/>
<stop offset="1" stop-color="#AC2538"/>
</linearGradient>
<linearGradient id="paint6_linear_2_5432" x1="32.8083" y1="12.0314" x2="32.8082" y2="28.2747" gradientUnits="userSpaceOnUse">
<stop stop-color="white"/>
<stop offset="1" stop-color="#EAF6FF" stop-opacity="0"/>
</linearGradient>
<linearGradient id="paint7_linear_2_5432" x1="50.6274" y1="19.5272" x2="43.1155" y2="30.6434" gradientUnits="userSpaceOnUse">
<stop stop-color="white"/>
<stop offset="1" stop-color="#EAF6FF" stop-opacity="0"/>
</linearGradient>
<linearGradient id="paint8_linear_2_5432" x1="31.8181" y1="23.4063" x2="38.5996" y2="34.9872" gradientUnits="userSpaceOnUse">
<stop stop-color="white"/>
<stop offset="1" stop-color="#EAF6FF" stop-opacity="0"/>
</linearGradient>
<linearGradient id="paint9_linear_2_5432" x1="41.798" y1="15.7277" x2="43.7013" y2="20.9251" gradientUnits="userSpaceOnUse">
<stop stop-color="white"/>
<stop offset="1" stop-color="#EAF6FF" stop-opacity="0"/>
</linearGradient>
<linearGradient id="paint10_linear_2_5432" x1="8.5928" y1="29.2359" x2="35.356" y2="55.999" gradientUnits="userSpaceOnUse">
<stop stop-color="#FEE97D"/>
<stop offset="1" stop-color="#FE860A"/>
</linearGradient>
<linearGradient id="paint11_linear_2_5432" x1="13.4429" y1="50.4078" x2="11.2178" y2="48.1829" gradientUnits="userSpaceOnUse">
<stop stop-color="#FD9468" stop-opacity="0"/>
<stop offset="0.6447" stop-color="#FE964B" stop-opacity="0.645"/>
<stop offset="1" stop-color="#FE9738"/>
</linearGradient>
<linearGradient id="paint12_linear_2_5432" x1="16.4348" y1="45.5031" x2="14.2098" y2="43.2781" gradientUnits="userSpaceOnUse">
<stop stop-color="#FD9468" stop-opacity="0"/>
<stop offset="0.6447" stop-color="#FE964B" stop-opacity="0.645"/>
<stop offset="1" stop-color="#FE9738"/>
</linearGradient>
<linearGradient id="paint13_linear_2_5432" x1="6.74486" y1="43.362" x2="4.51982" y2="41.137" gradientUnits="userSpaceOnUse">
<stop stop-color="#FD9468" stop-opacity="0"/>
<stop offset="0.6447" stop-color="#FE964B" stop-opacity="0.645"/>
<stop offset="1" stop-color="#FE9738"/>
</linearGradient>
<linearGradient id="paint14_linear_2_5432" x1="27.452" y1="43.9625" x2="25.227" y2="41.7375" gradientUnits="userSpaceOnUse">
<stop stop-color="#FD9468" stop-opacity="0"/>
<stop offset="0.6447" stop-color="#FE964B" stop-opacity="0.645"/>
<stop offset="1" stop-color="#FE9738"/>
</linearGradient>
<linearGradient id="paint15_linear_2_5432" x1="23.108" y1="48.5797" x2="19.4525" y2="44.9242" gradientUnits="userSpaceOnUse">
<stop stop-color="#FD9468" stop-opacity="0"/>
<stop offset="0.6447" stop-color="#FE964B" stop-opacity="0.645"/>
<stop offset="1" stop-color="#FE9738"/>
</linearGradient>
<linearGradient id="paint16_linear_2_5432" x1="20.0062" y1="40.3995" x2="16.3507" y2="36.744" gradientUnits="userSpaceOnUse">
<stop stop-color="#FD9468" stop-opacity="0"/>
<stop offset="0.6447" stop-color="#FE964B" stop-opacity="0.645"/>
<stop offset="1" stop-color="#FE9738"/>
</linearGradient>
<linearGradient id="paint17_linear_2_5432" x1="30.5333" y1="38.8708" x2="10.7685" y2="9.80941" gradientUnits="userSpaceOnUse">
<stop stop-color="#FE7701" stop-opacity="0"/>
<stop offset="0.398" stop-color="#E05915" stop-opacity="0.398"/>
<stop offset="1" stop-color="#AC2538"/>
</linearGradient>
<linearGradient id="paint18_linear_2_5432" x1="20.3897" y1="26.2248" x2="26.053" y2="31.605" gradientUnits="userSpaceOnUse">
<stop stop-color="#A2E62E"/>
<stop offset="0.1231" stop-color="#97DE30"/>
<stop offset="0.3395" stop-color="#79CB36"/>
<stop offset="0.6234" stop-color="#4AAB3F"/>
<stop offset="0.9609" stop-color="#09804C"/>
<stop offset="1" stop-color="#017B4E"/>
</linearGradient>
<linearGradient id="paint19_linear_2_5432" x1="18.2282" y1="28.3767" x2="32.7831" y2="28.4656" gradientUnits="userSpaceOnUse">
<stop stop-color="#017B4E" stop-opacity="0"/>
<stop offset="0.4829" stop-color="#01754A" stop-opacity="0.483"/>
<stop offset="1" stop-color="#026841"/>
</linearGradient>
<linearGradient id="paint20_linear_2_5432" x1="19.5365" y1="27.676" x2="28.3677" y2="29.9117" gradientUnits="userSpaceOnUse">
<stop stop-color="#017B4E" stop-opacity="0"/>
<stop offset="0.4829" stop-color="#01754A" stop-opacity="0.483"/>
<stop offset="1" stop-color="#026841"/>
</linearGradient>
<linearGradient id="paint21_linear_2_5432" x1="24.1943" y1="27.4121" x2="31.2905" y2="25.1426" gradientUnits="userSpaceOnUse">
<stop stop-color="#017B4E" stop-opacity="0"/>
<stop offset="0.8674" stop-color="#016B43" stop-opacity="0.867"/>
<stop offset="1" stop-color="#026841"/>
</linearGradient>
<linearGradient id="paint22_linear_2_5432" x1="17.5898" y1="42.9335" x2="17.5898" y2="60.5052" gradientUnits="userSpaceOnUse">
<stop stop-color="#FE7701" stop-opacity="0"/>
<stop offset="0.398" stop-color="#E05915" stop-opacity="0.398"/>
<stop offset="1" stop-color="#AC2538"/>
</linearGradient>
<clipPath id="clip0_2_5432">
<rect width="56" height="56" fill="white"/>
</clipPath>
</defs>
</svg>
