<svg width="32" height="32" viewBox="0 0 32 32" fill="none" xmlns="http://www.w3.org/2000/svg">
<g clip-path="url(#clip0_2_4763)">
<path d="M31.418 14.8497H23.0971C22.83 14.8497 22.5989 14.6659 22.537 14.4061C21.9532 11.9593 20.0192 10.0313 17.569 9.45624C17.3082 9.39499 17.1233 9.16349 17.1233 8.89561V0.577881C17.1233 0.234381 17.4217 -0.0313681 17.7633 0.0047568C21.3978 0.389944 24.7658 1.99125 27.3871 4.61187C30.001 7.22643 31.6012 10.5847 31.991 14.2089C32.0277 14.5508 31.7618 14.8497 31.418 14.8497Z" fill="#FF7258"/>
<path d="M17.1233 8.89548V7.18311C21.1292 7.67804 24.3063 10.8474 24.8136 14.8497H23.0972C22.8301 14.8497 22.599 14.6658 22.537 14.406C21.9533 11.9592 20.0192 10.0312 17.5691 9.45616C17.3082 9.39491 17.1233 9.16335 17.1233 8.89548Z" fill="#F95D48"/>
<path d="M31.9969 17.6501C31.6764 20.7204 30.4879 23.6014 28.5509 26.0031C28.335 26.2706 27.9357 26.2941 27.6926 26.051L23.0342 21.3926L21.8084 20.1668C21.6187 19.9771 21.5866 19.6826 21.7275 19.4544C22.1028 18.8469 22.3832 18.175 22.5484 17.4593C22.6089 17.1972 22.8408 17.0107 23.1098 17.0107H31.4238C31.767 17.0107 32.0325 17.3087 31.9969 17.6501Z" fill="#FFDC65"/>
<path d="M24.8245 17.0107C24.6336 18.6498 23.9952 20.152 23.0342 21.3926L21.8084 20.1669C21.6187 19.9772 21.5866 19.6827 21.7275 19.4544C22.1028 18.8469 22.3832 18.1751 22.5484 17.4594C22.6089 17.1972 22.8408 17.0108 23.1098 17.0108H24.8245V17.0107Z" fill="#FFC846"/>
<path d="M26.1669 27.5827C26.4097 27.8254 26.3867 28.224 26.12 28.4401C23.2751 30.7452 19.7557 31.999 16.0427 31.999C11.7581 31.999 7.72933 30.3297 4.69896 27.3001C1.68571 24.2869 0.018905 20.2864 0.00015501 16.029C-0.0186575 11.7533 1.67559 7.63522 4.69902 4.61186C7.31989 1.99099 10.6883 0.389676 14.3233 0.00473877C14.6644 -0.0313237 14.962 0.235113 14.962 0.57805V8.89566C14.962 9.16403 14.7763 9.39528 14.515 9.45666C11.5673 10.1492 9.36607 12.7999 9.36607 15.9564C9.36607 19.6373 12.3611 22.6329 16.0426 22.6329C17.3371 22.6329 18.5462 22.2623 19.5706 21.6221C19.799 21.4794 20.0951 21.511 20.2855 21.7014L26.1669 27.5827Z" fill="#00ABE0"/>
<path d="M20.2855 21.7012L21.5138 22.9296C20.0056 24.1208 18.0993 24.8326 16.0273 24.833C11.12 24.8341 7.17954 20.9055 7.16654 15.9983C7.15441 11.455 10.5629 7.70483 14.962 7.17871V8.8954C14.962 9.16377 14.7763 9.39502 14.5151 9.45639C11.5673 10.1489 9.36615 12.7996 9.36615 15.9561C9.36615 19.637 12.3611 22.6327 16.0427 22.6327C17.3371 22.6327 18.5463 22.262 19.5706 21.6219C19.799 21.4792 20.095 21.5108 20.2855 21.7012Z" fill="#099DD1"/>
</g>
<defs>
<clipPath id="clip0_2_4763">
<rect width="32" height="32" fill="white"/>
</clipPath>
</defs>
</svg>
