<svg width="56" height="56" viewBox="0 0 56 56" fill="none" xmlns="http://www.w3.org/2000/svg">
<g clip-path="url(#clip0_2_5464)">
<path d="M24.5964 10.75C24.5964 10.75 7.58388 21.1581 1.29387 49.4435C0.825778 51.5483 3.23213 53.1029 4.95528 51.8068C12.4966 46.1346 28.5284 36.0047 50.7115 32.3633C53.2399 31.9482 54.5164 29.0953 53.141 26.9333C49.7902 21.6665 41.9442 13.5586 24.5964 10.75V10.75Z" fill="url(#paint0_linear_2_5464)"/>
<path d="M53.0996 26.8691C28.7254 29.8316 11.1281 40.8882 3.11586 46.9146C2.694 47.2319 2.23128 47.3777 1.77977 47.3876C1.61188 48.0642 1.44827 48.7485 1.29301 49.4469C0.825352 51.5504 3.23313 53.102 4.9553 51.8068C12.4979 46.1337 28.5342 36.0011 50.7232 32.3614C53.2369 31.9491 54.5186 29.1038 53.1533 26.9534C53.1355 26.9254 53.1176 26.8973 53.0996 26.8691V26.8691Z" fill="url(#paint1_linear_2_5464)"/>
<path d="M54.0358 28.9665C54.0358 28.9665 49.605 13.0611 23.091 9.38525C23.091 9.38525 6.15676 19.6487 0.0558309 46.8799C-0.398318 48.9072 2.0166 50.3545 3.73108 49.0823C4.38562 48.5967 5.10451 48.0774 5.88642 47.5316C6.86521 46.8482 8.2091 47.5496 8.2091 48.7433V48.8283C8.2091 50.0903 9.23215 51.1134 10.4942 51.1134C11.7563 51.1134 12.7794 50.0903 12.7794 48.8283V46.4344C12.7794 44.3557 13.9137 42.443 15.7389 41.4482C20.2057 39.0133 25.4964 36.5319 31.5292 34.3789C32.4908 34.0358 33.5032 34.7499 33.5032 35.771C33.5032 37.0331 34.5262 38.0562 35.7883 38.0562C37.0504 38.0562 38.0735 37.0331 38.0735 35.771V32.8298C38.0735 32.499 38.2935 32.2086 38.6119 32.119L38.6269 32.1148C39.1006 31.9815 39.5705 32.3376 39.5705 32.8296V40.2758C39.5705 41.5379 40.5936 42.561 41.8557 42.561C43.1178 42.561 44.1408 41.5379 44.1408 40.2758V33.9211C44.1408 32.0364 45.4717 30.4079 47.3219 30.0488C49.4981 29.6266 51.7368 29.2623 54.0358 28.9665V28.9665Z" fill="url(#paint2_linear_2_5464)"/>
<path d="M23.0906 9.38477C23.0906 9.38477 19.8572 11.3447 15.7073 15.8232L37.3339 37.4499C37.7873 37.0323 38.0731 36.4355 38.0731 35.7705V32.8293C38.0731 32.4985 38.2932 32.2081 38.6116 32.1185L38.6265 32.1143C39.1002 31.981 39.5702 32.3371 39.5702 32.8291V39.6863L42.3812 42.4972C43.3893 42.2594 44.1405 41.356 44.1405 40.2754V33.9205C44.1405 32.0358 45.4714 30.4073 47.3216 30.0482C49.4977 29.6259 51.7362 29.2616 54.0352 28.9659C54.0353 28.9659 49.6045 13.0605 23.0906 9.38477V9.38477Z" fill="url(#paint3_linear_2_5464)"/>
<path d="M28.6176 14.7246C28.3934 14.4706 28.1332 14.2292 27.8361 14.0051C25.4131 12.178 21.4847 12.178 19.0617 14.0051C16.7648 15.7372 16.6469 18.4887 18.7048 20.327L36.359 37.9812C37.3445 37.7275 38.0737 36.8354 38.0737 35.7708V32.8296C38.0737 32.4987 38.2938 32.2083 38.6122 32.1187L38.6272 32.1145C39.1009 31.9812 39.5708 32.3373 39.5708 32.8294V40.2756C39.5708 40.8222 39.7633 41.3236 40.0834 41.7169C40.2391 41.8783 40.4109 42.0336 40.5975 42.1822C40.9585 42.4209 41.3907 42.5608 41.8558 42.5608C43.1179 42.5608 44.141 41.5378 44.141 40.2757V33.9208C44.141 32.9114 44.5231 31.9757 45.1619 31.2689L28.6176 14.7246Z" fill="url(#paint4_linear_2_5464)"/>
<path d="M20.0685 22.0679C19.2282 21.0965 17.7106 20.4478 15.9779 20.4478C13.3342 20.4478 11.1909 21.9578 11.1909 23.8206C11.1909 24.6157 11.5824 25.346 12.2356 25.9226L23.7639 37.4871C26.1942 36.4067 28.7841 35.3585 31.5296 34.3787C31.7818 34.2886 32.0371 34.2729 32.2771 34.3149L20.0685 22.0679Z" fill="url(#paint5_linear_2_5464)"/>
<path d="M39.6971 24.8071C38.8462 23.8716 37.3588 23.251 35.6647 23.251C33.021 23.251 30.8777 24.761 30.8777 26.6238C30.8777 26.6999 30.8825 26.7751 30.8896 26.8499C28.8237 25.7574 25.9552 25.9059 24.1095 27.2978C22.1664 28.7631 22.0493 31.0836 23.7575 32.6524L27.1518 36.0468C28.5639 35.4742 30.0236 34.9163 31.5294 34.3789C32.4911 34.0358 33.5035 34.7499 33.5035 35.771C33.5035 37.0331 34.5265 38.0562 35.7886 38.0562C37.0507 38.0562 38.0737 37.0331 38.0737 35.771V32.8298C38.0737 32.499 38.2938 32.2086 38.6122 32.119L38.6271 32.1148C39.1008 31.9815 39.5708 32.3376 39.5708 32.8296V40.2759C39.5708 41.5379 40.5938 42.561 41.8559 42.561C43.118 42.561 44.1411 41.5379 44.1411 40.2759V33.9208C44.1411 32.6624 44.7351 31.5188 45.6803 30.7904L39.6971 24.8071Z" fill="url(#paint6_linear_2_5464)"/>
<path d="M23.4296 37.6366L19.5023 33.7092C18.6515 32.7736 17.164 32.1528 15.4697 32.1528C13.3959 32.1528 11.6304 33.0822 10.9656 34.382C9.02818 33.7457 6.68947 34.0239 5.10489 35.2189C3.16169 36.6842 3.04464 39.0048 4.75296 40.5735L12.7797 48.6003V46.4344C12.7797 44.3557 13.9141 42.443 15.7393 41.4482C18.0796 40.1722 20.6485 38.884 23.4296 37.6366V37.6366Z" fill="url(#paint7_linear_2_5464)"/>
<path d="M10.736 28.0952C10.8413 27.8967 10.7658 27.6504 10.5674 27.5451C10.3688 27.4398 10.1226 27.5153 10.0173 27.7137C9.91195 27.9123 9.9875 28.1585 10.1859 28.2638C10.3843 28.3692 10.6306 28.2937 10.736 28.0952V28.0952Z" fill="#FFEAA2"/>
<path d="M9.40026 28.2597C9.24357 28.1766 9.0491 28.2362 8.96598 28.3929C8.88286 28.5496 8.94249 28.744 9.09918 28.8272C9.25587 28.9103 9.45033 28.8507 9.53345 28.694C9.61657 28.5372 9.55695 28.3428 9.40026 28.2597Z" fill="#FFEAA2"/>
<path d="M9.75386 29.9342C9.65943 29.8842 9.54215 29.9201 9.49208 30.0145C9.44201 30.1089 9.47792 30.2262 9.57235 30.2762C9.66678 30.3264 9.78405 30.2904 9.83413 30.196C9.88431 30.1015 9.8484 29.9844 9.75386 29.9342Z" fill="#FFEAA2"/>
<path d="M12.5296 30.4689C12.305 30.4625 12.1178 30.6395 12.1115 30.8641C12.1051 31.0887 12.2821 31.276 12.5067 31.2822C12.7313 31.2886 12.9185 31.1116 12.9248 30.887C12.9312 30.6624 12.7543 30.4752 12.5296 30.4689Z" fill="#FFEAA2"/>
<path d="M14.6464 27.591C14.469 27.5859 14.3212 27.7257 14.3163 27.9029C14.3112 28.0802 14.451 28.228 14.6282 28.2331C14.8056 28.2381 14.9534 28.0984 14.9584 27.921C14.9634 27.7437 14.8237 27.5959 14.6464 27.591Z" fill="#FFEAA2"/>
<path d="M11.6625 27.713C11.5556 27.71 11.4665 27.7942 11.4635 27.901C11.4605 28.008 11.5447 28.097 11.6516 28.1001C11.7585 28.1031 11.8476 28.0189 11.8506 27.912C11.8537 27.8051 11.7695 27.716 11.6625 27.713Z" fill="#FFEAA2"/>
<path d="M11.024 29.3811C10.8621 29.418 10.7608 29.579 10.7976 29.741C10.8345 29.9028 10.9956 30.0042 11.1575 29.9674C11.3194 29.9305 11.4207 29.7694 11.3839 29.6075C11.3469 29.4456 11.1858 29.3443 11.024 29.3811Z" fill="#FFEAA2"/>
<path d="M11.361 28.5416C11.2332 28.5707 11.1531 28.698 11.1822 28.8258C11.2113 28.9536 11.3386 29.0337 11.4664 29.0046C11.5942 28.9755 11.6743 28.8482 11.6452 28.7204C11.616 28.5926 11.4888 28.5125 11.361 28.5416Z" fill="#FFEAA2"/>
<path d="M10.3954 29.0058C10.4725 28.9882 10.5207 28.9116 10.5031 28.8345C10.4855 28.7574 10.4089 28.7092 10.3318 28.7268C10.2547 28.7443 10.2065 28.821 10.2241 28.8981C10.2416 28.9751 10.3183 29.0234 10.3954 29.0058Z" fill="#FFEAA2"/>
<path d="M18.2778 26.8935C18.3831 26.695 18.3075 26.4487 18.1091 26.3434C17.9106 26.2381 17.6643 26.3137 17.559 26.5121C17.4537 26.7106 17.5292 26.9569 17.7277 27.0622C17.9262 27.1675 18.1725 27.0919 18.2778 26.8935Z" fill="#FFEAA2"/>
<path d="M16.3097 30.3925C16.153 30.3094 15.9585 30.369 15.8754 30.5257C15.7923 30.6824 15.8519 30.8769 16.0086 30.96C16.1653 31.0431 16.3598 30.9835 16.4429 30.8268C16.526 30.6701 16.4664 30.4756 16.3097 30.3925Z" fill="#FFEAA2"/>
<path d="M15.8019 28.6252C15.7075 28.575 15.5902 28.611 15.5402 28.7055C15.4901 28.7999 15.526 28.9172 15.6204 28.9672C15.7149 29.0174 15.8321 28.9814 15.8822 28.887C15.9323 28.7925 15.8964 28.6754 15.8019 28.6252Z" fill="#FFEAA2"/>
<path d="M20.495 27.4425C20.2703 27.4362 20.0831 27.6132 20.0768 27.8377C20.0705 28.0624 20.2475 28.2496 20.472 28.2559C20.6967 28.2622 20.8839 28.0852 20.8902 27.8607C20.8965 27.6361 20.7196 27.4489 20.495 27.4425Z" fill="#FFEAA2"/>
<path d="M20.4491 26.8995C20.4542 26.7222 20.3144 26.5744 20.1371 26.5695C19.9598 26.5645 19.812 26.7042 19.807 26.8814C19.802 27.0588 19.9417 27.2066 20.119 27.2116C20.2963 27.2165 20.4441 27.0769 20.4491 26.8995Z" fill="#FFEAA2"/>
<path d="M19.2055 26.5108C19.0985 26.5079 19.0095 26.592 19.0064 26.6989C19.0035 26.8059 19.0877 26.8949 19.1945 26.898C19.3015 26.901 19.3905 26.8167 19.3936 26.7099C19.3966 26.6029 19.3123 26.5139 19.2055 26.5108Z" fill="#FFEAA2"/>
<path d="M17.4522 29.3215C17.2904 29.3584 17.189 29.5195 17.2258 29.6815C17.2627 29.8434 17.4238 29.9447 17.5857 29.9079C17.7476 29.871 17.849 29.7099 17.8122 29.548C17.7753 29.386 17.6142 29.2846 17.4522 29.3215Z" fill="#FFEAA2"/>
<path d="M18.9028 27.3395C18.7749 27.3686 18.6949 27.4958 18.724 27.6235C18.7531 27.7514 18.8804 27.8314 19.0081 27.8023C19.1359 27.7732 19.2159 27.6459 19.1868 27.5182C19.1578 27.3904 19.0306 27.3104 18.9028 27.3395Z" fill="#FFEAA2"/>
<path d="M17.9376 27.8041C18.0147 27.7865 18.0629 27.7099 18.0453 27.6328C18.0277 27.5557 17.9511 27.5075 17.874 27.5251C17.7969 27.5427 17.7487 27.6193 17.7663 27.6964C17.7838 27.7734 17.8605 27.8217 17.9376 27.8041Z" fill="#FFEAA2"/>
<path d="M22.4973 33.4209C22.6026 33.2223 22.527 32.9761 22.3286 32.8708C22.1301 32.7655 21.8838 32.841 21.7785 33.0394C21.6732 33.2379 21.7487 33.4842 21.9471 33.5895C22.1457 33.6949 22.392 33.6194 22.4973 33.4209Z" fill="#FFEAA2"/>
<path d="M21.1625 33.5854C21.0058 33.5022 20.8113 33.5619 20.7282 33.7186C20.6451 33.8753 20.7047 34.0697 20.8614 34.1529C21.0181 34.236 21.2125 34.1763 21.2956 34.0197C21.3789 33.8629 21.3191 33.6685 21.1625 33.5854Z" fill="#FFEAA2"/>
<path d="M21.5151 35.2599C21.4206 35.2098 21.3034 35.2457 21.2533 35.3402C21.2032 35.4346 21.2391 35.5518 21.3336 35.6019C21.428 35.652 21.5453 35.6161 21.5953 35.5217C21.6454 35.4272 21.6095 35.3101 21.5151 35.2599Z" fill="#FFEAA2"/>
<path d="M24.2928 35.7946C24.0682 35.7882 23.8809 35.9652 23.8747 36.1898C23.8683 36.4144 24.0453 36.6016 24.2699 36.6079C24.4945 36.6143 24.6817 36.4373 24.688 36.2127C24.6943 35.9882 24.5174 35.8009 24.2928 35.7946Z" fill="#FFEAA2"/>
<path d="M42.4861 26.6237C42.4103 26.4634 42.2186 26.395 42.0583 26.4709C41.898 26.5468 41.8296 26.7384 41.9055 26.8987C41.9815 27.059 42.173 27.1274 42.3333 27.0516C42.4936 26.9757 42.5621 26.7841 42.4861 26.6237Z" fill="#FFEAA2"/>
<path d="M23.4247 33.0387C23.3178 33.0357 23.2287 33.1199 23.2257 33.2267C23.2227 33.3337 23.3069 33.4227 23.4138 33.4258C23.5207 33.4288 23.6098 33.3445 23.6128 33.2377C23.6158 33.1308 23.5316 33.0417 23.4247 33.0387Z" fill="#FFEAA2"/>
<path d="M22.7862 34.7068C22.6244 34.7437 22.523 34.9047 22.5598 35.0667C22.5967 35.2286 22.7578 35.3299 22.9197 35.2931C23.0816 35.2562 23.1829 35.0952 23.1462 34.9332C23.1094 34.7712 22.9481 34.67 22.7862 34.7068Z" fill="#FFEAA2"/>
<path d="M23.122 33.8673C22.9942 33.8964 22.9141 34.0237 22.9432 34.1515C22.9723 34.2793 23.0996 34.3594 23.2273 34.3303C23.3551 34.3012 23.4352 34.1739 23.4061 34.0461C23.377 33.9183 23.2498 33.8382 23.122 33.8673Z" fill="#FFEAA2"/>
<path d="M22.1588 34.332C22.2359 34.3144 22.2841 34.2377 22.2665 34.1607C22.2489 34.0836 22.1723 34.0354 22.0952 34.0529C22.0181 34.0705 21.9699 34.1471 21.9875 34.2242C22.0051 34.3013 22.0818 34.3495 22.1588 34.332Z" fill="#FFEAA2"/>
<path d="M22.5263 15.6719C22.6316 15.4733 22.5561 15.227 22.3576 15.1217C22.1591 15.0164 21.9128 15.092 21.8075 15.2904C21.7022 15.4889 21.7778 15.7352 21.9762 15.8405C22.1747 15.9459 22.421 15.8704 22.5263 15.6719Z" fill="#FFEAA2"/>
<path d="M40.7419 29.3755C40.745 29.1982 40.6037 29.052 40.4263 29.0489C40.249 29.0458 40.1027 29.1871 40.0997 29.3645C40.0966 29.5418 40.2379 29.6881 40.4152 29.6911C40.5926 29.6942 40.7388 29.553 40.7419 29.3755Z" fill="#FFEAA2"/>
<path d="M42.087 28.1213C42.0889 28.0144 42.0037 27.9262 41.8967 27.9243C41.7898 27.9225 41.7016 28.0077 41.6997 28.1146C41.6979 28.2216 41.7831 28.3097 41.89 28.3116C41.997 28.3135 42.0852 28.2283 42.087 28.1213V28.1213Z" fill="#FFEAA2"/>
<path d="M24.7433 16.2204C24.5186 16.214 24.3314 16.391 24.3251 16.6156C24.3187 16.8402 24.4958 17.0275 24.7203 17.0337C24.945 17.0401 25.1322 16.8631 25.1384 16.6385C25.1448 16.414 24.9678 16.2268 24.7433 16.2204Z" fill="#FFEAA2"/>
<path d="M24.6974 15.6774C24.7025 15.5 24.5627 15.3522 24.3854 15.3473C24.208 15.3422 24.0602 15.482 24.0553 15.6592C24.0503 15.8366 24.19 15.9844 24.3673 15.9894C24.5446 15.9944 24.6924 15.8547 24.6974 15.6774Z" fill="#FFEAA2"/>
<path d="M23.4538 15.2891C23.3468 15.2862 23.2578 15.3703 23.2547 15.4772C23.2518 15.5842 23.336 15.6732 23.4428 15.6763C23.5497 15.6793 23.6388 15.5951 23.6419 15.4882C23.6449 15.3813 23.5607 15.2921 23.4538 15.2891Z" fill="#FFEAA2"/>
<path d="M42.2133 29.9081C42.107 29.7805 41.9175 29.7632 41.7899 29.8694C41.6623 29.9757 41.645 30.1652 41.7512 30.2928C41.8575 30.4204 42.047 30.4377 42.1746 30.3315C42.3022 30.2252 42.3196 30.0357 42.2133 29.9081Z" fill="#FFEAA2"/>
<path d="M23.151 16.1183C23.0232 16.1474 22.9432 16.2746 22.9723 16.4023C23.0014 16.5301 23.1286 16.6102 23.2564 16.5811C23.3843 16.552 23.4643 16.4247 23.4352 16.297C23.406 16.1691 23.2788 16.0892 23.151 16.1183Z" fill="#FFEAA2"/>
<path d="M22.1856 16.5824C22.2627 16.5649 22.3109 16.4882 22.2934 16.4111C22.2758 16.3341 22.1991 16.2858 22.1221 16.3034C22.045 16.321 21.9968 16.3976 22.0144 16.4747C22.0319 16.5518 22.1086 16.6 22.1856 16.5824Z" fill="#FFEAA2"/>
<path d="M33.6267 24.1029C33.5073 24.2933 33.5648 24.5444 33.7552 24.6637C33.9456 24.7831 34.1968 24.7256 34.3161 24.5352C34.4355 24.3448 34.378 24.0936 34.1876 23.9744C33.9971 23.8549 33.746 23.9125 33.6267 24.1029Z" fill="#FFEAA2"/>
<path d="M34.9707 24.0353C35.1211 24.1295 35.3193 24.0841 35.4135 23.9337C35.5077 23.7834 35.4622 23.5852 35.3119 23.491C35.1616 23.3968 34.9634 23.4422 34.8692 23.5926C34.7749 23.7429 34.8204 23.9411 34.9707 24.0353Z" fill="#FFEAA2"/>
<path d="M34.7378 22.3397C34.8284 22.3965 34.948 22.3692 35.0047 22.2785C35.0615 22.1879 35.0342 22.0683 34.9436 22.0115C34.853 21.9548 34.7334 21.9821 34.6766 22.0727C34.6197 22.1634 34.6472 22.283 34.7378 22.3397V22.3397Z" fill="#FFEAA2"/>
<path d="M32.0067 21.6061C32.2303 21.6286 32.4298 21.4657 32.4523 21.2421C32.4748 21.0185 32.3119 20.819 32.0883 20.7965C31.8647 20.774 31.6652 20.937 31.6427 21.1605C31.6201 21.3842 31.7832 21.5836 32.0067 21.6061Z" fill="#FFEAA2"/>
<path d="M29.6882 24.3239C29.8646 24.3417 30.0222 24.213 30.04 24.0366C30.0578 23.8601 29.9291 23.7025 29.7526 23.6847C29.5762 23.667 29.4186 23.7956 29.4008 23.9721C29.383 24.1487 29.5117 24.3061 29.6882 24.3239Z" fill="#FFEAA2"/>
<path d="M32.6748 24.4175C32.7811 24.4283 32.8761 24.3507 32.8868 24.2443C32.8975 24.1379 32.8199 24.0429 32.7135 24.0322C32.6071 24.0215 32.5121 24.0991 32.5015 24.2055C32.4907 24.3118 32.5684 24.4068 32.6748 24.4175Z" fill="#FFEAA2"/>
<path d="M33.432 22.7995C33.5961 22.7744 33.7088 22.621 33.6838 22.4569C33.6586 22.2928 33.5052 22.1801 33.3412 22.2051C33.177 22.2303 33.0644 22.3837 33.0894 22.5477C33.1146 22.712 33.268 22.8247 33.432 22.7995Z" fill="#FFEAA2"/>
<path d="M33.0361 23.6126C33.1657 23.5927 33.2546 23.4717 33.2349 23.3421C33.2151 23.2126 33.094 23.1236 32.9644 23.1434C32.8349 23.1631 32.7459 23.2843 32.7657 23.4138C32.7855 23.5434 32.9066 23.6323 33.0361 23.6126Z" fill="#FFEAA2"/>
<path d="M34.0311 23.219C33.9531 23.2309 33.8994 23.3039 33.9113 23.382C33.9233 23.4601 33.9963 23.5138 34.0744 23.5018C34.1525 23.4898 34.2062 23.4168 34.1942 23.3387C34.1822 23.2607 34.1092 23.207 34.0311 23.219Z" fill="#FFEAA2"/>
<path d="M26.0156 24.7577C25.8962 24.9481 25.9538 25.1993 26.1442 25.3186C26.3346 25.438 26.5857 25.3804 26.7049 25.19C26.8243 24.9996 26.7667 24.7485 26.5763 24.6292C26.3859 24.5097 26.1349 24.5673 26.0156 24.7577Z" fill="#FFEAA2"/>
<path d="M28.2339 21.4098C28.3842 21.504 28.5824 21.4585 28.6767 21.3082C28.7709 21.1579 28.7254 20.9597 28.5751 20.8655C28.4248 20.7713 28.2266 20.8167 28.1323 20.9671C28.0381 21.1173 28.0836 21.3155 28.2339 21.4098Z" fill="#FFEAA2"/>
<path d="M28.6115 23.2089C28.7021 23.2656 28.8217 23.2383 28.8785 23.1476C28.9353 23.057 28.9079 22.9374 28.8172 22.8807C28.7266 22.8239 28.607 22.8512 28.5503 22.9418C28.4936 23.0325 28.5209 23.1521 28.6115 23.2089V23.2089Z" fill="#FFEAA2"/>
<path d="M23.8453 24.0504C24.0689 24.0729 24.2684 23.91 24.2909 23.6864C24.3134 23.4629 24.1505 23.2634 23.9269 23.2408C23.7034 23.2183 23.5039 23.3813 23.4813 23.6048C23.4587 23.8284 23.6218 24.0279 23.8453 24.0504Z" fill="#FFEAA2"/>
<path d="M23.85 24.5952C23.8322 24.7717 23.9609 24.9293 24.1374 24.947C24.3138 24.9647 24.4714 24.8361 24.4891 24.6596C24.5069 24.4831 24.3782 24.3256 24.2017 24.3078C24.0253 24.2901 23.8678 24.4188 23.85 24.5952Z" fill="#FFEAA2"/>
<path d="M25.0634 25.0723C25.1698 25.0831 25.2648 25.0055 25.2755 24.8991C25.2862 24.7927 25.2086 24.6977 25.1022 24.687C24.9958 24.6763 24.9008 24.7539 24.8902 24.8603C24.8794 24.9667 24.957 25.0617 25.0634 25.0723Z" fill="#FFEAA2"/>
<path d="M27.0155 22.3957C27.1797 22.3705 27.2923 22.2172 27.2673 22.0531C27.2422 21.889 27.0888 21.7763 26.9247 21.8013C26.7605 21.8265 26.6479 21.9799 26.6729 22.1439C26.698 22.3081 26.8514 22.4208 27.0155 22.3957Z" fill="#FFEAA2"/>
<path d="M25.4248 24.2678C25.5544 24.248 25.6433 24.127 25.6236 23.9974C25.6038 23.8678 25.4827 23.7789 25.3531 23.7986C25.2235 23.8185 25.1346 23.9395 25.1544 24.0691C25.1741 24.1987 25.2952 24.2876 25.4248 24.2678Z" fill="#FFEAA2"/>
<path d="M26.4222 23.8742C26.3442 23.8862 26.2905 23.9592 26.3025 24.0373C26.3144 24.1155 26.3874 24.169 26.4655 24.1571C26.5436 24.1451 26.5973 24.0721 26.5853 23.994C26.5733 23.916 26.5003 23.8623 26.4222 23.8742Z" fill="#FFEAA2"/>
<path d="M10.5479 43.3942C10.516 43.6166 10.6705 43.8228 10.893 43.8546C11.1154 43.8864 11.3215 43.7319 11.3534 43.5095C11.3852 43.287 11.2307 43.0809 11.0083 43.0491C10.7858 43.0173 10.5797 43.1718 10.5479 43.3942Z" fill="#FFEAA2"/>
<path d="M11.7486 42.7876C11.9242 42.8127 12.0869 42.6907 12.1121 42.5152C12.1372 42.3396 12.0152 42.1769 11.8396 42.1517C11.6641 42.1266 11.5013 42.2486 11.4762 42.4241C11.451 42.5996 11.573 42.7624 11.7486 42.7876Z" fill="#FFEAA2"/>
<path d="M10.8491 41.3312C10.9549 41.3463 11.0531 41.2728 11.0683 41.1669C11.0834 41.0611 11.0098 40.9629 10.904 40.9478C10.7981 40.9326 10.7 41.0062 10.6848 41.112C10.6698 41.2179 10.7432 41.316 10.8491 41.3312Z" fill="#FFEAA2"/>
<path d="M8.05523 41.7686C8.26869 41.6985 8.38497 41.4687 8.31481 41.2551C8.24464 41.0417 8.01482 40.9254 7.80126 40.9955C7.5878 41.0657 7.47152 41.2955 7.54168 41.5091C7.61185 41.7225 7.84166 41.8388 8.05523 41.7686V41.7686Z" fill="#FFEAA2"/>
<path d="M7.03871 45.1938C7.20726 45.1385 7.29895 44.957 7.24361 44.7884C7.18827 44.6199 7.00676 44.5282 6.83821 44.5835C6.66966 44.6388 6.57797 44.8204 6.63331 44.9889C6.68865 45.1573 6.87016 45.2491 7.03871 45.1938Z" fill="#FFEAA2"/>
<path d="M9.80444 44.0681C9.90601 44.0347 9.96136 43.9252 9.92798 43.8237C9.89459 43.7221 9.78512 43.6668 9.68355 43.7002C9.58198 43.7335 9.52664 43.843 9.56002 43.9446C9.5934 44.0461 9.70287 44.1015 9.80444 44.0681Z" fill="#FFEAA2"/>
<path d="M9.84121 42.2819C9.98099 42.1924 10.0218 42.0064 9.93224 41.8666C9.84275 41.7268 9.65674 41.6859 9.51696 41.7755C9.37719 41.865 9.33634 42.051 9.42594 42.1908C9.51554 42.3306 9.70143 42.3713 9.84121 42.2819Z" fill="#FFEAA2"/>
<path d="M9.80872 43.1858C9.91907 43.1151 9.95135 42.9683 9.88064 42.858C9.80993 42.7476 9.66312 42.7153 9.55277 42.786C9.44242 42.8567 9.41014 43.0036 9.48085 43.1139C9.55156 43.2243 9.69837 43.2565 9.80872 43.1858Z" fill="#FFEAA2"/>
<path d="M10.5591 42.422C10.4926 42.4646 10.4731 42.5531 10.5158 42.6196C10.5584 42.6862 10.6469 42.7056 10.7134 42.663C10.7799 42.6204 10.7994 42.5319 10.7568 42.4654C10.7143 42.3988 10.6258 42.3794 10.5591 42.422Z" fill="#FFEAA2"/>
<path d="M3.85743 47.0802C3.82559 47.3027 3.98008 47.5088 4.20254 47.5407C4.42501 47.5725 4.63111 47.418 4.66295 47.1955C4.6948 46.9731 4.5403 46.767 4.31784 46.7351C4.09549 46.7033 3.88938 46.8578 3.85743 47.0802Z" fill="#FFEAA2"/>
<path d="M4.52546 43.1206C4.70104 43.1457 4.86377 43.0237 4.88892 42.8482C4.91406 42.6726 4.79207 42.5099 4.61649 42.4847C4.44091 42.4596 4.27818 42.5816 4.25304 42.7571C4.22789 42.9327 4.34989 43.0954 4.52546 43.1206Z" fill="#FFEAA2"/>
<path d="M5.60252 44.611C5.70837 44.6261 5.80654 44.5526 5.82169 44.4467C5.83684 44.3409 5.76328 44.2427 5.65742 44.2276C5.55157 44.2124 5.45341 44.286 5.43826 44.3918C5.4231 44.4977 5.49667 44.5958 5.60252 44.611Z" fill="#FFEAA2"/>
<path d="M1.58673 47.3141C1.80019 47.2439 1.91636 47.0141 1.84631 46.8005C1.77614 46.5871 1.54632 46.4708 1.33275 46.5409C1.11929 46.6111 1.00301 46.8409 1.07318 47.0545C1.14334 47.2679 1.37327 47.3842 1.58673 47.3141Z" fill="#FFEAA2"/>
<path d="M1.81275 47.8097C1.86809 47.9783 2.04959 48.0699 2.21814 48.0146C2.38669 47.9593 2.47838 47.7778 2.42304 47.6092C2.3677 47.4407 2.18619 47.349 2.01764 47.4043C1.8492 47.4597 1.7574 47.6412 1.81275 47.8097Z" fill="#FFEAA2"/>
<path d="M3.11499 47.7541C3.21655 47.7207 3.27189 47.6114 3.23851 47.5097C3.20513 47.4081 3.09566 47.3528 2.99409 47.3862C2.89252 47.4196 2.83718 47.529 2.87056 47.6306C2.90394 47.7322 3.01342 47.7875 3.11499 47.7541Z" fill="#FFEAA2"/>
<path d="M3.81339 44.5152C3.95317 44.4257 3.99401 44.2397 3.90441 44.1C3.81492 43.9602 3.62892 43.9193 3.48913 44.0089C3.34935 44.0984 3.30851 44.2844 3.39811 44.4242C3.4876 44.564 3.67361 44.6047 3.81339 44.5152Z" fill="#FFEAA2"/>
<path d="M3.11927 46.8718C3.22962 46.8011 3.2619 46.6544 3.19119 46.5439C3.12048 46.4336 2.97367 46.4014 2.86332 46.472C2.75296 46.5427 2.72068 46.6894 2.7914 46.7999C2.86211 46.9103 3.00892 46.9425 3.11927 46.8718Z" fill="#FFEAA2"/>
<path d="M3.86894 46.108C3.8024 46.1506 3.78296 46.2391 3.82557 46.3057C3.86817 46.3722 3.95667 46.3917 4.02322 46.349C4.08976 46.3064 4.10919 46.2179 4.06659 46.1514C4.02399 46.0849 3.93548 46.0654 3.86894 46.108Z" fill="#FFEAA2"/>
<path d="M23.8877 24.3238C25.2801 24.3238 26.4089 23.5285 26.4089 22.5474C26.4089 21.5663 25.2801 20.771 23.8877 20.771C22.4952 20.771 21.3665 21.5663 21.3665 22.5474C21.3665 23.5285 22.4952 24.3238 23.8877 24.3238Z" fill="url(#paint8_linear_2_5464)"/>
<path d="M23.6202 21.8765C23.8427 21.8765 24.023 21.6962 24.023 21.4737C24.023 21.2512 23.8427 21.0708 23.6202 21.0708C23.3977 21.0708 23.2173 21.2512 23.2173 21.4737C23.2173 21.6962 23.3977 21.8765 23.6202 21.8765Z" fill="url(#paint9_linear_2_5464)"/>
<path d="M22.8722 22.8332C23.0478 22.8332 23.1902 22.6909 23.1902 22.5153C23.1902 22.3396 23.0478 22.1973 22.8722 22.1973C22.6966 22.1973 22.5542 22.3396 22.5542 22.5153C22.5542 22.6909 22.6966 22.8332 22.8722 22.8332Z" fill="url(#paint10_linear_2_5464)"/>
<path d="M24.2584 22.9738C24.3643 22.9738 24.4501 22.8879 24.4501 22.7821C24.4501 22.6762 24.3643 22.5903 24.2584 22.5903C24.1525 22.5903 24.0667 22.6762 24.0667 22.7821C24.0667 22.8879 24.1525 22.9738 24.2584 22.9738Z" fill="url(#paint11_linear_2_5464)"/>
<path d="M13.446 33.3677C14.8384 33.3677 15.9672 32.5724 15.9672 31.5913C15.9672 30.6103 14.8384 29.8149 13.446 29.8149C12.0536 29.8149 10.9248 30.6103 10.9248 31.5913C10.9248 32.5724 12.0536 33.3677 13.446 33.3677Z" fill="url(#paint12_linear_2_5464)"/>
<path d="M13.179 30.9205C13.4015 30.9205 13.5819 30.7401 13.5819 30.5176C13.5819 30.2951 13.4015 30.1147 13.179 30.1147C12.9565 30.1147 12.7761 30.2951 12.7761 30.5176C12.7761 30.7401 12.9565 30.9205 13.179 30.9205Z" fill="url(#paint13_linear_2_5464)"/>
<path d="M12.4305 31.8772C12.6062 31.8772 12.7485 31.7348 12.7485 31.5592C12.7485 31.3836 12.6062 31.2412 12.4305 31.2412C12.2549 31.2412 12.1125 31.3836 12.1125 31.5592C12.1125 31.7348 12.2549 31.8772 12.4305 31.8772Z" fill="url(#paint14_linear_2_5464)"/>
<path d="M13.8167 32.0177C13.9226 32.0177 14.0084 31.9319 14.0084 31.826C14.0084 31.7201 13.9226 31.6343 13.8167 31.6343C13.7108 31.6343 13.625 31.7201 13.625 31.826C13.625 31.9319 13.7108 32.0177 13.8167 32.0177Z" fill="url(#paint15_linear_2_5464)"/>
<path d="M26.4428 35.9688C27.8352 35.9688 28.964 35.1735 28.964 34.1924C28.964 33.2113 27.8352 32.416 26.4428 32.416C25.0504 32.416 23.9216 33.2113 23.9216 34.1924C23.9216 35.1735 25.0504 35.9688 26.4428 35.9688Z" fill="url(#paint16_linear_2_5464)"/>
<path d="M26.1758 33.5216C26.3983 33.5216 26.5787 33.3412 26.5787 33.1187C26.5787 32.8962 26.3983 32.7158 26.1758 32.7158C25.9533 32.7158 25.7729 32.8962 25.7729 33.1187C25.7729 33.3412 25.9533 33.5216 26.1758 33.5216Z" fill="url(#paint17_linear_2_5464)"/>
<path d="M25.4274 34.4783C25.603 34.4783 25.7453 34.3359 25.7453 34.1603C25.7453 33.9847 25.603 33.8423 25.4274 33.8423C25.2517 33.8423 25.1094 33.9847 25.1094 34.1603C25.1094 34.3359 25.2517 34.4783 25.4274 34.4783Z" fill="url(#paint18_linear_2_5464)"/>
<path d="M26.8136 34.6188C26.9194 34.6188 27.0053 34.5329 27.0053 34.4271C27.0053 34.3212 26.9194 34.2354 26.8136 34.2354C26.7077 34.2354 26.6218 34.3212 26.6218 34.4271C26.6218 34.5329 26.7077 34.6188 26.8136 34.6188Z" fill="url(#paint19_linear_2_5464)"/>
<path d="M45.0361 30.0885C46.4285 30.0885 47.5573 29.2932 47.5573 28.3121C47.5573 27.331 46.4285 26.5356 45.0361 26.5356C43.6437 26.5356 42.5149 27.331 42.5149 28.3121C42.5149 29.2932 43.6437 30.0885 45.0361 30.0885Z" fill="url(#paint20_linear_2_5464)"/>
<path d="M44.7686 27.6417C44.9911 27.6417 45.1715 27.4613 45.1715 27.2388C45.1715 27.0163 44.9911 26.8359 44.7686 26.8359C44.5461 26.8359 44.3657 27.0163 44.3657 27.2388C44.3657 27.4613 44.5461 27.6417 44.7686 27.6417Z" fill="url(#paint21_linear_2_5464)"/>
<path d="M44.0206 28.5984C44.1963 28.5984 44.3386 28.456 44.3386 28.2804C44.3386 28.1048 44.1963 27.9624 44.0206 27.9624C43.845 27.9624 43.7026 28.1048 43.7026 28.2804C43.7026 28.456 43.845 28.5984 44.0206 28.5984Z" fill="url(#paint22_linear_2_5464)"/>
<path d="M45.4066 28.7394C45.5124 28.7394 45.5983 28.6535 45.5983 28.5477C45.5983 28.4418 45.5124 28.356 45.4066 28.356C45.3007 28.356 45.2148 28.4418 45.2148 28.5477C45.2148 28.6535 45.3007 28.7394 45.4066 28.7394Z" fill="url(#paint23_linear_2_5464)"/>
<path d="M24.0219 13.7594C25.4144 13.7594 26.5432 12.964 26.5432 11.983C26.5432 11.0019 25.4144 10.2065 24.0219 10.2065C22.6295 10.2065 21.5007 11.0019 21.5007 11.983C21.5007 12.964 22.6295 13.7594 24.0219 13.7594Z" fill="url(#paint24_linear_2_5464)"/>
<path d="M23.7549 11.3126C23.9774 11.3126 24.1578 11.1322 24.1578 10.9097C24.1578 10.6872 23.9774 10.5068 23.7549 10.5068C23.5324 10.5068 23.3521 10.6872 23.3521 10.9097C23.3521 11.1322 23.5324 11.3126 23.7549 11.3126Z" fill="url(#paint25_linear_2_5464)"/>
<path d="M23.0065 12.2698C23.1821 12.2698 23.3244 12.1274 23.3244 11.9518C23.3244 11.7762 23.1821 11.6338 23.0065 11.6338C22.8308 11.6338 22.6885 11.7762 22.6885 11.9518C22.6885 12.1274 22.8308 12.2698 23.0065 12.2698Z" fill="url(#paint26_linear_2_5464)"/>
<path d="M24.3922 12.4098C24.4981 12.4098 24.5839 12.324 24.5839 12.2181C24.5839 12.1122 24.4981 12.0264 24.3922 12.0264C24.2863 12.0264 24.2004 12.1122 24.2004 12.2181C24.2004 12.324 24.2863 12.4098 24.3922 12.4098Z" fill="url(#paint27_linear_2_5464)"/>
<path d="M27.8364 14.0051C25.4135 12.178 21.485 12.178 19.0621 14.0051C16.6391 15.8323 16.6391 18.7947 19.0621 20.6218C21.485 22.4489 25.4135 22.4489 27.8364 20.6218C30.2593 18.7947 30.2593 15.8323 27.8364 14.0051V14.0051ZM20.6632 18.503C19.1248 17.4896 19.1248 15.8462 20.6632 14.8329C22.2017 13.8196 24.6961 13.82 26.2346 14.8334C27.773 15.8468 27.7736 17.4898 26.2352 18.503C24.6967 19.5164 22.2016 19.5164 20.6632 18.503V18.503Z" fill="url(#paint28_linear_2_5464)"/>
<path d="M19.799 19.5895C21.8143 21.0543 25.0826 21.0543 27.0977 19.5895C29.1135 18.1241 29.113 15.7488 27.0977 14.2841C25.0819 12.8187 21.8148 12.8187 19.799 14.2841C17.7838 15.7488 17.7831 18.1241 19.799 19.5895ZM26.2343 14.8329C27.7728 15.8462 27.7728 17.4897 26.2343 18.5029C24.6959 19.5163 22.2014 19.5159 20.663 18.5025C19.1245 17.4891 19.124 15.8461 20.6623 14.8329C22.2009 13.8196 24.6959 13.8196 26.2343 14.8329Z" fill="url(#paint29_linear_2_5464)"/>
<path d="M3.50683 42.2445C4.41447 42.5949 5.57191 42.3352 6.09216 41.6645C6.1945 41.5325 6.14915 41.3775 6.00662 41.2186C5.84906 41.0429 5.90561 40.8111 6.12192 40.6697L6.15848 40.6459C6.43793 40.4632 6.37392 40.1406 6.03386 40.0187L4.68052 39.5337C4.34046 39.4118 3.93166 39.5649 3.88565 39.8313C3.85019 40.0366 3.61125 40.1956 3.31764 40.2075C3.08277 40.2171 2.89906 40.2746 2.8054 40.3954C2.28504 41.0663 2.59919 41.8941 3.50683 42.2445V42.2445Z" fill="url(#paint30_linear_2_5464)"/>
<path d="M12.5935 35.219C10.5253 33.6594 7.17225 33.6594 5.1041 35.219C3.03594 36.7785 3.03594 39.3071 5.1041 40.8666C7.17225 42.4262 10.5253 42.4262 12.5935 40.8666C14.6615 39.3071 14.6615 36.7785 12.5935 35.219V35.219ZM6.47072 39.0582C5.15757 38.1932 5.15757 36.7905 6.47072 35.9256C7.78386 35.0606 9.91296 35.061 11.2261 35.9259C12.5392 36.7908 12.5398 38.1932 11.2267 39.0582C9.91362 39.9231 7.78386 39.9231 6.47072 39.0582V39.0582Z" fill="url(#paint31_linear_2_5464)"/>
<path d="M5.73362 39.9856C7.4537 41.236 10.2434 41.236 11.9635 39.9856C13.6841 38.7349 13.6835 36.7074 11.9635 35.457C10.2428 34.2064 7.45425 34.2064 5.73362 35.457C4.01355 36.7075 4.013 38.7349 5.73362 39.9856V39.9856ZM11.2266 35.9256C12.5397 36.7905 12.5397 38.1933 11.2266 39.0582C9.91342 39.9231 7.78432 39.9228 6.47118 39.0579C5.15803 38.1929 5.15748 36.7905 6.47063 35.9256C7.78366 35.0607 9.91342 35.0607 11.2266 35.9256Z" fill="url(#paint32_linear_2_5464)"/>
<path d="M37.305 29.6223C36.3974 29.2719 35.24 29.5316 34.7197 30.2023C34.6174 30.3343 34.6627 30.4893 34.8052 30.6482C34.9628 30.8239 34.9063 31.0557 34.69 31.1971L34.6534 31.2209C34.3739 31.4037 34.438 31.7263 34.778 31.8481L36.1313 32.3331C36.4714 32.455 36.8802 32.302 36.9262 32.0356C36.9617 31.8302 37.2006 31.6712 37.4942 31.6593C37.7291 31.6497 37.9128 31.5922 38.0065 31.4714C38.5268 30.8005 38.2127 29.9727 37.305 29.6223V29.6223Z" fill="url(#paint33_linear_2_5464)"/>
<path d="M35.665 29.9967C38.3088 29.9967 40.452 28.4866 40.452 26.6238C40.452 24.7611 38.3088 23.251 35.665 23.251C33.0212 23.251 30.8779 24.7611 30.8779 26.6238C30.8779 28.4866 33.0212 29.9967 35.665 29.9967Z" fill="url(#paint34_linear_2_5464)"/>
<path d="M35.1581 25.3504C35.5805 25.3504 35.9229 25.008 35.9229 24.5856C35.9229 24.1632 35.5805 23.8208 35.1581 23.8208C34.7357 23.8208 34.3933 24.1632 34.3933 24.5856C34.3933 25.008 34.7357 25.3504 35.1581 25.3504Z" fill="url(#paint35_linear_2_5464)"/>
<path d="M33.7376 27.1671C34.0711 27.1671 34.3414 26.8967 34.3414 26.5633C34.3414 26.2298 34.0711 25.9595 33.7376 25.9595C33.4041 25.9595 33.1338 26.2298 33.1338 26.5633C33.1338 26.8967 33.4041 27.1671 33.7376 27.1671Z" fill="url(#paint36_linear_2_5464)"/>
<path d="M36.3689 27.4341C36.5699 27.4341 36.7329 27.2711 36.7329 27.0701C36.7329 26.869 36.5699 26.7061 36.3689 26.7061C36.1679 26.7061 36.0049 26.869 36.0049 27.0701C36.0049 27.2711 36.1679 27.4341 36.3689 27.4341Z" fill="url(#paint37_linear_2_5464)"/>
<path d="M15.4694 38.8985C18.1132 38.8985 20.2564 37.3884 20.2564 35.5257C20.2564 33.6629 18.1132 32.1528 15.4694 32.1528C12.8256 32.1528 10.6824 33.6629 10.6824 35.5257C10.6824 37.3884 12.8256 38.8985 15.4694 38.8985Z" fill="url(#paint38_linear_2_5464)"/>
<path d="M14.9613 34.2522C15.3837 34.2522 15.7261 33.9098 15.7261 33.4874C15.7261 33.0651 15.3837 32.7227 14.9613 32.7227C14.5389 32.7227 14.1965 33.0651 14.1965 33.4874C14.1965 33.9098 14.5389 34.2522 14.9613 34.2522Z" fill="url(#paint39_linear_2_5464)"/>
<path d="M13.5408 36.069C13.8743 36.069 14.1446 35.7986 14.1446 35.4651C14.1446 35.1317 13.8743 34.8613 13.5408 34.8613C13.2073 34.8613 12.937 35.1317 12.937 35.4651C12.937 35.7986 13.2073 36.069 13.5408 36.069Z" fill="url(#paint40_linear_2_5464)"/>
<path d="M16.1721 36.3359C16.3731 36.3359 16.5361 36.1729 16.5361 35.9719C16.5361 35.7709 16.3731 35.6079 16.1721 35.6079C15.9711 35.6079 15.8081 35.7709 15.8081 35.9719C15.8081 36.1729 15.9711 36.3359 16.1721 36.3359Z" fill="url(#paint41_linear_2_5464)"/>
<path d="M25.6671 25.325C24.7595 24.9746 23.602 25.2343 23.0818 25.9049C22.9794 26.0369 23.0248 26.192 23.1673 26.3509C23.3249 26.5265 23.2683 26.7583 23.052 26.8998L23.0154 26.9236C22.736 27.1063 22.8 27.4289 23.1401 27.5508L24.4934 28.0358C24.8335 28.1577 25.2423 28.0046 25.2883 27.7382C25.3237 27.5329 25.5627 27.3739 25.8563 27.3619C26.0912 27.3524 26.2749 27.2948 26.3685 27.1741C26.8888 26.5033 26.5747 25.6754 25.6671 25.325V25.325Z" fill="url(#paint42_linear_2_5464)"/>
<path d="M27.024 35.9197C28.1358 35.7345 28.9643 35.0324 28.9643 34.1924C28.9643 33.2113 27.8355 32.416 26.4431 32.416C25.5572 32.416 24.7796 32.7386 24.3298 33.2255L27.024 35.9197Z" fill="url(#paint43_linear_2_5464)"/>
<path d="M31.5991 27.2976C29.531 25.738 26.1779 25.738 24.1097 27.2976C22.0416 28.8571 22.0416 31.3857 24.1097 32.9453C26.1779 34.5048 29.531 34.5048 31.5991 32.9453C33.6673 31.3857 33.6673 28.8571 31.5991 27.2976ZM25.4764 31.1368C24.1633 30.2719 24.1633 28.8691 25.4764 28.0042C26.7896 27.1393 28.9187 27.1396 30.2318 28.0045C31.545 28.8694 31.5455 30.2719 30.2324 31.1368C28.9192 32.0017 26.7896 32.0017 25.4764 31.1368Z" fill="url(#paint44_linear_2_5464)"/>
<path d="M24.7392 32.0642C26.4593 33.3145 29.249 33.3145 30.9691 32.0642C32.6897 30.8135 32.6891 28.786 30.9691 27.5357C29.2484 26.285 26.4599 26.285 24.7392 27.5357C23.0192 28.7861 23.0186 30.8135 24.7392 32.0642V32.0642ZM30.2321 28.0043C31.5452 28.8692 31.5452 30.272 30.2321 31.1369C28.9189 32.0018 26.7898 32.0015 25.4767 31.1366C24.1635 30.2716 24.163 28.8692 25.4761 28.0043C26.7893 27.1393 28.9189 27.1393 30.2321 28.0043Z" fill="url(#paint45_linear_2_5464)"/>
<path d="M8.35491 30.5967C7.14817 30.5967 6.16992 31.2934 6.16992 32.1529C6.16992 33.0124 7.14817 33.7091 8.35491 33.7091C9.56166 33.7091 10.5399 33.0124 10.5399 32.1529C10.5399 31.2934 9.56166 30.5967 8.35491 30.5967ZM8.35491 32.8135C7.84268 32.8135 7.42751 32.5178 7.42751 32.1529C7.42751 31.7881 7.84268 31.4923 8.35491 31.4923C8.86715 31.4923 9.28231 31.788 9.28231 32.1529C9.28242 32.5178 8.86715 32.8135 8.35491 32.8135Z" fill="url(#paint46_linear_2_5464)"/>
<path d="M19.4286 27.5635C18.2219 27.5635 17.2437 28.2602 17.2437 29.1197C17.2437 29.9793 18.2219 30.676 19.4286 30.676C20.6354 30.676 21.6136 29.9793 21.6136 29.1197C21.6136 28.2602 20.6353 27.5635 19.4286 27.5635V27.5635ZM19.4286 29.7802C18.9164 29.7802 18.5012 29.4845 18.5012 29.1196C18.5012 28.7549 18.9164 28.459 19.4286 28.459C19.9409 28.459 20.3561 28.7547 20.3561 29.1196C20.3561 29.4845 19.9408 29.7802 19.4286 29.7802Z" fill="url(#paint47_linear_2_5464)"/>
<path d="M33.5324 19.7324C32.3257 19.7324 31.3474 20.4291 31.3474 21.2887C31.3474 22.1482 32.3257 22.8449 33.5324 22.8449C34.7392 22.8449 35.7174 22.1482 35.7174 21.2887C35.7174 20.4291 34.7392 19.7324 33.5324 19.7324ZM33.5324 21.9493C33.0202 21.9493 32.605 21.6536 32.605 21.2887C32.605 20.9238 33.0202 20.6281 33.5324 20.6281C34.0446 20.6281 34.4598 20.9238 34.4598 21.2887C34.4598 21.6536 34.0446 21.9493 33.5324 21.9493Z" fill="url(#paint48_linear_2_5464)"/>
<path d="M4.0324 42.687C2.82566 42.687 1.84741 43.3837 1.84741 44.2432C1.84741 45.1028 2.82566 45.7995 4.0324 45.7995C5.23915 45.7995 6.21739 45.1028 6.21739 44.2432C6.21739 43.3837 5.23915 42.687 4.0324 42.687ZM4.0324 44.9037C3.52017 44.9037 3.105 44.608 3.105 44.2431C3.105 43.8784 3.52017 43.5826 4.0324 43.5826C4.54464 43.5826 4.9598 43.8783 4.9598 44.2431C4.9598 44.608 4.54464 44.9037 4.0324 44.9037Z" fill="url(#paint49_linear_2_5464)"/>
<path d="M15.9779 27.1934C18.6217 27.1934 20.7649 25.6834 20.7649 23.8206C20.7649 21.9578 18.6217 20.4478 15.9779 20.4478C13.3341 20.4478 11.1909 21.9578 11.1909 23.8206C11.1909 25.6834 13.3341 27.1934 15.9779 27.1934Z" fill="url(#paint50_linear_2_5464)"/>
<path d="M15.4689 22.5472C15.8913 22.5472 16.2337 22.2047 16.2337 21.7824C16.2337 21.36 15.8913 21.0176 15.4689 21.0176C15.0465 21.0176 14.7041 21.36 14.7041 21.7824C14.7041 22.2047 15.0465 22.5472 15.4689 22.5472Z" fill="url(#paint51_linear_2_5464)"/>
<path d="M14.0494 24.3639C14.3828 24.3639 14.6532 24.0935 14.6532 23.7601C14.6532 23.4266 14.3828 23.1562 14.0494 23.1562C13.7159 23.1562 13.4456 23.4266 13.4456 23.7601C13.4456 24.0935 13.7159 24.3639 14.0494 24.3639Z" fill="url(#paint52_linear_2_5464)"/>
<path d="M16.6816 24.6308C16.8827 24.6308 17.0456 24.4679 17.0456 24.2668C17.0456 24.0658 16.8827 23.9028 16.6816 23.9028C16.4806 23.9028 16.3176 24.0658 16.3176 24.2668C16.3176 24.4679 16.4806 24.6308 16.6816 24.6308Z" fill="url(#paint53_linear_2_5464)"/>
<path d="M32.9865 15.1443C32.0788 14.7939 30.9214 15.0536 30.4011 15.7243C30.2988 15.8563 30.3441 16.0113 30.4866 16.1702C30.6442 16.3459 30.5877 16.5777 30.3713 16.7191L30.3348 16.7429C30.0553 16.9256 30.1193 17.2482 30.4594 17.3701L31.8128 17.8551C32.1528 17.977 32.5616 17.8239 32.6076 17.5576C32.6431 17.3522 32.882 17.1932 33.1756 17.1813C33.4105 17.1717 33.5942 17.1142 33.6879 16.9934C34.2081 16.3225 33.8941 15.4947 32.9865 15.1443V15.1443Z" fill="url(#paint54_linear_2_5464)"/>
<path d="M23.5858 11.4553C27.6927 13.0166 31.5766 15.3343 36.5518 18.9887C41.527 22.643 45.3546 28.1144 48.1944 31.6556C49.7199 33.5579 53.92 33.2121 55.3071 31.0448C56.2333 29.5975 56.2361 26.6734 55.2923 25.3348C52.5074 21.3851 47.8178 16.7453 42.0252 12.4905C36.2326 8.23567 30.5023 5.22199 26.0597 3.86295C24.5541 3.40232 22.903 4.07816 21.9768 5.52549C20.5898 7.69291 21.3798 10.6167 23.5858 11.4553V11.4553Z" fill="url(#paint55_linear_2_5464)"/>
</g>
<defs>
<linearGradient id="paint0_linear_2_5464" x1="24.525" y1="32.8178" x2="27.4798" y2="39.2957" gradientUnits="userSpaceOnUse">
<stop stop-color="#FAA68E"/>
<stop offset="0.2061" stop-color="#FBA682"/>
<stop offset="0.5808" stop-color="#FDA861"/>
<stop offset="1" stop-color="#FFA936"/>
</linearGradient>
<linearGradient id="paint1_linear_2_5464" x1="27.6159" y1="39.7254" x2="25.1218" y2="32.5114" gradientUnits="userSpaceOnUse">
<stop stop-color="#F82814" stop-opacity="0"/>
<stop offset="0.2454" stop-color="#F12817" stop-opacity="0.245"/>
<stop offset="0.6052" stop-color="#DD2820" stop-opacity="0.605"/>
<stop offset="1" stop-color="#C0272D"/>
</linearGradient>
<linearGradient id="paint2_linear_2_5464" x1="15.9288" y1="24.2863" x2="29.088" y2="40.0459" gradientUnits="userSpaceOnUse">
<stop stop-color="#FFD945"/>
<stop offset="0.3043" stop-color="#FFCD3E"/>
<stop offset="0.8558" stop-color="#FFAD2B"/>
<stop offset="1" stop-color="#FFA325"/>
</linearGradient>
<linearGradient id="paint3_linear_2_5464" x1="34.1465" y1="23.4222" x2="38.8153" y2="16.8031" gradientUnits="userSpaceOnUse">
<stop stop-color="#F82814" stop-opacity="0"/>
<stop offset="1" stop-color="#C0272D"/>
</linearGradient>
<linearGradient id="paint4_linear_2_5464" x1="31.9805" y1="26.0332" x2="10.9414" y2="-6.51045" gradientUnits="userSpaceOnUse">
<stop stop-color="#F82814" stop-opacity="0"/>
<stop offset="1" stop-color="#C0272D"/>
</linearGradient>
<linearGradient id="paint5_linear_2_5464" x1="21.2134" y1="28.3999" x2="12.3487" y2="11.7932" gradientUnits="userSpaceOnUse">
<stop stop-color="#F82814" stop-opacity="0"/>
<stop offset="1" stop-color="#C0272D"/>
</linearGradient>
<linearGradient id="paint6_linear_2_5464" x1="35.299" y1="33.064" x2="26.4736" y2="16.4376" gradientUnits="userSpaceOnUse">
<stop stop-color="#F82814" stop-opacity="0"/>
<stop offset="1" stop-color="#C0272D"/>
</linearGradient>
<linearGradient id="paint7_linear_2_5464" x1="15.7801" y1="42.154" x2="8.68832" y2="30.0979" gradientUnits="userSpaceOnUse">
<stop stop-color="#F82814" stop-opacity="0"/>
<stop offset="1" stop-color="#C0272D"/>
</linearGradient>
<linearGradient id="paint8_linear_2_5464" x1="23.3495" y1="21.2434" x2="24.4286" y2="23.858" gradientUnits="userSpaceOnUse">
<stop stop-color="#BADA00"/>
<stop offset="0.2269" stop-color="#B0CE00"/>
<stop offset="0.6378" stop-color="#95AE00"/>
<stop offset="1" stop-color="#798C00"/>
</linearGradient>
<linearGradient id="paint9_linear_2_5464" x1="23.8558" y1="22.1602" x2="22.8266" y2="20.5541" gradientUnits="userSpaceOnUse">
<stop stop-color="#798C00" stop-opacity="0"/>
<stop offset="0.6542" stop-color="#556100" stop-opacity="0.654"/>
<stop offset="1" stop-color="#464F00"/>
</linearGradient>
<linearGradient id="paint10_linear_2_5464" x1="23.0378" y1="23.0937" x2="22.2252" y2="21.8257" gradientUnits="userSpaceOnUse">
<stop stop-color="#798C00" stop-opacity="0"/>
<stop offset="0.6542" stop-color="#556100" stop-opacity="0.654"/>
<stop offset="1" stop-color="#464F00"/>
</linearGradient>
<linearGradient id="paint11_linear_2_5464" x1="24.3209" y1="23.1985" x2="23.8311" y2="22.434" gradientUnits="userSpaceOnUse">
<stop stop-color="#798C00" stop-opacity="0"/>
<stop offset="0.6542" stop-color="#556100" stop-opacity="0.654"/>
<stop offset="1" stop-color="#464F00"/>
</linearGradient>
<linearGradient id="paint12_linear_2_5464" x1="12.9079" y1="30.2873" x2="13.9869" y2="32.902" gradientUnits="userSpaceOnUse">
<stop stop-color="#BADA00"/>
<stop offset="0.2269" stop-color="#B0CE00"/>
<stop offset="0.6378" stop-color="#95AE00"/>
<stop offset="1" stop-color="#798C00"/>
</linearGradient>
<linearGradient id="paint13_linear_2_5464" x1="13.4102" y1="31.21" x2="12.381" y2="29.6038" gradientUnits="userSpaceOnUse">
<stop stop-color="#798C00" stop-opacity="0"/>
<stop offset="0.6542" stop-color="#556100" stop-opacity="0.654"/>
<stop offset="1" stop-color="#464F00"/>
</linearGradient>
<linearGradient id="paint14_linear_2_5464" x1="12.5918" y1="32.1435" x2="11.7793" y2="30.8754" gradientUnits="userSpaceOnUse">
<stop stop-color="#798C00" stop-opacity="0"/>
<stop offset="0.6542" stop-color="#556100" stop-opacity="0.654"/>
<stop offset="1" stop-color="#464F00"/>
</linearGradient>
<linearGradient id="paint15_linear_2_5464" x1="13.8749" y1="32.2482" x2="13.385" y2="31.4838" gradientUnits="userSpaceOnUse">
<stop stop-color="#798C00" stop-opacity="0"/>
<stop offset="0.6542" stop-color="#556100" stop-opacity="0.654"/>
<stop offset="1" stop-color="#464F00"/>
</linearGradient>
<linearGradient id="paint16_linear_2_5464" x1="25.9047" y1="32.8884" x2="26.9837" y2="35.503" gradientUnits="userSpaceOnUse">
<stop stop-color="#BADA00"/>
<stop offset="0.2269" stop-color="#B0CE00"/>
<stop offset="0.6378" stop-color="#95AE00"/>
<stop offset="1" stop-color="#798C00"/>
</linearGradient>
<linearGradient id="paint17_linear_2_5464" x1="26.414" y1="33.811" x2="25.3848" y2="32.2049" gradientUnits="userSpaceOnUse">
<stop stop-color="#798C00" stop-opacity="0"/>
<stop offset="0.6542" stop-color="#556100" stop-opacity="0.654"/>
<stop offset="1" stop-color="#464F00"/>
</linearGradient>
<linearGradient id="paint18_linear_2_5464" x1="25.5956" y1="34.7444" x2="24.783" y2="33.4765" gradientUnits="userSpaceOnUse">
<stop stop-color="#798C00" stop-opacity="0"/>
<stop offset="0.6542" stop-color="#556100" stop-opacity="0.654"/>
<stop offset="1" stop-color="#464F00"/>
</linearGradient>
<linearGradient id="paint19_linear_2_5464" x1="26.8788" y1="34.8492" x2="26.3889" y2="34.0848" gradientUnits="userSpaceOnUse">
<stop stop-color="#798C00" stop-opacity="0"/>
<stop offset="0.6542" stop-color="#556100" stop-opacity="0.654"/>
<stop offset="1" stop-color="#464F00"/>
</linearGradient>
<linearGradient id="paint20_linear_2_5464" x1="44.498" y1="27.0081" x2="45.577" y2="29.6227" gradientUnits="userSpaceOnUse">
<stop stop-color="#BADA00"/>
<stop offset="0.2269" stop-color="#B0CE00"/>
<stop offset="0.6378" stop-color="#95AE00"/>
<stop offset="1" stop-color="#798C00"/>
</linearGradient>
<linearGradient id="paint21_linear_2_5464" x1="45.0158" y1="27.9259" x2="43.9864" y2="26.3198" gradientUnits="userSpaceOnUse">
<stop stop-color="#798C00" stop-opacity="0"/>
<stop offset="0.6542" stop-color="#556100" stop-opacity="0.654"/>
<stop offset="1" stop-color="#464F00"/>
</linearGradient>
<linearGradient id="paint22_linear_2_5464" x1="44.1977" y1="28.8593" x2="43.3852" y2="27.5913" gradientUnits="userSpaceOnUse">
<stop stop-color="#798C00" stop-opacity="0"/>
<stop offset="0.6542" stop-color="#556100" stop-opacity="0.654"/>
<stop offset="1" stop-color="#464F00"/>
</linearGradient>
<linearGradient id="paint23_linear_2_5464" x1="45.4807" y1="28.9647" x2="44.9908" y2="28.2002" gradientUnits="userSpaceOnUse">
<stop stop-color="#798C00" stop-opacity="0"/>
<stop offset="0.6542" stop-color="#556100" stop-opacity="0.654"/>
<stop offset="1" stop-color="#464F00"/>
</linearGradient>
<linearGradient id="paint24_linear_2_5464" x1="23.4838" y1="10.6789" x2="24.5628" y2="13.2936" gradientUnits="userSpaceOnUse">
<stop stop-color="#BADA00"/>
<stop offset="0.2269" stop-color="#B0CE00"/>
<stop offset="0.6378" stop-color="#95AE00"/>
<stop offset="1" stop-color="#798C00"/>
</linearGradient>
<linearGradient id="paint25_linear_2_5464" x1="23.9894" y1="11.5908" x2="22.9601" y2="9.98466" gradientUnits="userSpaceOnUse">
<stop stop-color="#798C00" stop-opacity="0"/>
<stop offset="0.6542" stop-color="#556100" stop-opacity="0.654"/>
<stop offset="1" stop-color="#464F00"/>
</linearGradient>
<linearGradient id="paint26_linear_2_5464" x1="23.171" y1="12.5247" x2="22.3584" y2="11.2567" gradientUnits="userSpaceOnUse">
<stop stop-color="#798C00" stop-opacity="0"/>
<stop offset="0.6542" stop-color="#556100" stop-opacity="0.654"/>
<stop offset="1" stop-color="#464F00"/>
</linearGradient>
<linearGradient id="paint27_linear_2_5464" x1="24.4538" y1="12.6291" x2="23.9639" y2="11.8647" gradientUnits="userSpaceOnUse">
<stop stop-color="#798C00" stop-opacity="0"/>
<stop offset="0.6542" stop-color="#556100" stop-opacity="0.654"/>
<stop offset="1" stop-color="#464F00"/>
</linearGradient>
<linearGradient id="paint28_linear_2_5464" x1="24.8754" y1="13.1098" x2="22.9391" y2="18.7605" gradientUnits="userSpaceOnUse">
<stop stop-color="#FFDECF"/>
<stop offset="0.3791" stop-color="#FDC4B0"/>
<stop offset="0.7655" stop-color="#FBAE97"/>
<stop offset="1" stop-color="#FAA68E"/>
</linearGradient>
<linearGradient id="paint29_linear_2_5464" x1="22.3229" y1="20.296" x2="23.8855" y2="15.7357" gradientUnits="userSpaceOnUse">
<stop stop-color="#FFDECF"/>
<stop offset="0.3791" stop-color="#FDC4B0"/>
<stop offset="0.7655" stop-color="#FBAE97"/>
<stop offset="1" stop-color="#FAA68E"/>
</linearGradient>
<linearGradient id="paint30_linear_2_5464" x1="4.12316" y1="40.3015" x2="5.89602" y2="43.1974" gradientUnits="userSpaceOnUse">
<stop stop-color="#A57C52"/>
<stop offset="0.1339" stop-color="#A26C4A"/>
<stop offset="0.5155" stop-color="#994336"/>
<stop offset="0.8174" stop-color="#942A2A"/>
<stop offset="1" stop-color="#922125"/>
</linearGradient>
<linearGradient id="paint31_linear_2_5464" x1="10.067" y1="34.4493" x2="8.41433" y2="39.2724" gradientUnits="userSpaceOnUse">
<stop stop-color="#FFDECF"/>
<stop offset="0.3791" stop-color="#FDC4B0"/>
<stop offset="0.7655" stop-color="#FBAE97"/>
<stop offset="1" stop-color="#FAA68E"/>
</linearGradient>
<linearGradient id="paint32_linear_2_5464" x1="7.8949" y1="40.5826" x2="9.2287" y2="36.69" gradientUnits="userSpaceOnUse">
<stop stop-color="#FFDECF"/>
<stop offset="0.3791" stop-color="#FDC4B0"/>
<stop offset="0.7655" stop-color="#FBAE97"/>
<stop offset="1" stop-color="#FAA68E"/>
</linearGradient>
<linearGradient id="paint33_linear_2_5464" x1="35.776" y1="30.0599" x2="38.1247" y2="33.9604" gradientUnits="userSpaceOnUse">
<stop stop-color="#A57C52"/>
<stop offset="0.1339" stop-color="#A26C4A"/>
<stop offset="0.5155" stop-color="#994336"/>
<stop offset="0.8174" stop-color="#942A2A"/>
<stop offset="1" stop-color="#922125"/>
</linearGradient>
<linearGradient id="paint34_linear_2_5464" x1="34.6431" y1="24.148" x2="36.6919" y2="29.1123" gradientUnits="userSpaceOnUse">
<stop stop-color="#FF6359"/>
<stop offset="0.2243" stop-color="#FE5B50"/>
<stop offset="0.5952" stop-color="#FC4637"/>
<stop offset="1" stop-color="#F82814"/>
</linearGradient>
<linearGradient id="paint35_linear_2_5464" x1="35.6975" y1="25.7367" x2="33.7432" y2="22.6871" gradientUnits="userSpaceOnUse">
<stop stop-color="#F82814" stop-opacity="0"/>
<stop offset="0.2454" stop-color="#F12817" stop-opacity="0.245"/>
<stop offset="0.6052" stop-color="#DD2820" stop-opacity="0.605"/>
<stop offset="1" stop-color="#C0272D"/>
</linearGradient>
<linearGradient id="paint36_linear_2_5464" x1="34.1441" y1="27.509" x2="32.6014" y2="25.1015" gradientUnits="userSpaceOnUse">
<stop stop-color="#F82814" stop-opacity="0"/>
<stop offset="0.2454" stop-color="#F12817" stop-opacity="0.245"/>
<stop offset="0.6052" stop-color="#DD2820" stop-opacity="0.605"/>
<stop offset="1" stop-color="#C0272D"/>
</linearGradient>
<linearGradient id="paint37_linear_2_5464" x1="36.5797" y1="27.7083" x2="35.6497" y2="26.2569" gradientUnits="userSpaceOnUse">
<stop stop-color="#F82814" stop-opacity="0"/>
<stop offset="0.2454" stop-color="#F12817" stop-opacity="0.245"/>
<stop offset="0.6052" stop-color="#DD2820" stop-opacity="0.605"/>
<stop offset="1" stop-color="#C0272D"/>
</linearGradient>
<linearGradient id="paint38_linear_2_5464" x1="14.4477" y1="33.0498" x2="16.4964" y2="38.0141" gradientUnits="userSpaceOnUse">
<stop stop-color="#FF6359"/>
<stop offset="0.2243" stop-color="#FE5B50"/>
<stop offset="0.5952" stop-color="#FC4637"/>
<stop offset="1" stop-color="#F82814"/>
</linearGradient>
<linearGradient id="paint39_linear_2_5464" x1="15.4914" y1="34.6453" x2="13.5372" y2="31.5957" gradientUnits="userSpaceOnUse">
<stop stop-color="#F82814" stop-opacity="0"/>
<stop offset="0.2454" stop-color="#F12817" stop-opacity="0.245"/>
<stop offset="0.6052" stop-color="#DD2820" stop-opacity="0.605"/>
<stop offset="1" stop-color="#C0272D"/>
</linearGradient>
<linearGradient id="paint40_linear_2_5464" x1="13.9378" y1="36.4178" x2="12.3951" y2="34.0103" gradientUnits="userSpaceOnUse">
<stop stop-color="#F82814" stop-opacity="0"/>
<stop offset="0.2454" stop-color="#F12817" stop-opacity="0.245"/>
<stop offset="0.6052" stop-color="#DD2820" stop-opacity="0.605"/>
<stop offset="1" stop-color="#C0272D"/>
</linearGradient>
<linearGradient id="paint41_linear_2_5464" x1="16.3736" y1="36.6169" x2="15.4435" y2="35.1655" gradientUnits="userSpaceOnUse">
<stop stop-color="#F82814" stop-opacity="0"/>
<stop offset="0.2454" stop-color="#F12817" stop-opacity="0.245"/>
<stop offset="0.6052" stop-color="#DD2820" stop-opacity="0.605"/>
<stop offset="1" stop-color="#C0272D"/>
</linearGradient>
<linearGradient id="paint42_linear_2_5464" x1="24.138" y1="25.7625" x2="26.4868" y2="29.6631" gradientUnits="userSpaceOnUse">
<stop stop-color="#A57C52"/>
<stop offset="0.1339" stop-color="#A26C4A"/>
<stop offset="0.5155" stop-color="#994336"/>
<stop offset="0.8174" stop-color="#942A2A"/>
<stop offset="1" stop-color="#922125"/>
</linearGradient>
<linearGradient id="paint43_linear_2_5464" x1="28.357" y1="36.7814" x2="23.6684" y2="27.9166" gradientUnits="userSpaceOnUse">
<stop stop-color="#798C00" stop-opacity="0"/>
<stop offset="0.6542" stop-color="#556100" stop-opacity="0.654"/>
<stop offset="1" stop-color="#464F00"/>
</linearGradient>
<linearGradient id="paint44_linear_2_5464" x1="29.0698" y1="26.5291" x2="27.417" y2="31.3523" gradientUnits="userSpaceOnUse">
<stop stop-color="#FFDECF"/>
<stop offset="0.3791" stop-color="#FDC4B0"/>
<stop offset="0.7655" stop-color="#FBAE97"/>
<stop offset="1" stop-color="#FAA68E"/>
</linearGradient>
<linearGradient id="paint45_linear_2_5464" x1="26.8976" y1="32.6623" x2="28.2314" y2="28.7699" gradientUnits="userSpaceOnUse">
<stop stop-color="#FFDECF"/>
<stop offset="0.3791" stop-color="#FDC4B0"/>
<stop offset="0.7655" stop-color="#FBAE97"/>
<stop offset="1" stop-color="#FAA68E"/>
</linearGradient>
<linearGradient id="paint46_linear_2_5464" x1="7.46802" y1="30.3792" x2="8.47985" y2="32.4028" gradientUnits="userSpaceOnUse">
<stop stop-color="#8A7889"/>
<stop offset="0.3344" stop-color="#867385"/>
<stop offset="0.7039" stop-color="#7B667B"/>
<stop offset="1" stop-color="#6E566E"/>
</linearGradient>
<linearGradient id="paint47_linear_2_5464" x1="18.5418" y1="27.346" x2="19.5536" y2="29.3696" gradientUnits="userSpaceOnUse">
<stop stop-color="#8A7889"/>
<stop offset="0.3344" stop-color="#867385"/>
<stop offset="0.7039" stop-color="#7B667B"/>
<stop offset="1" stop-color="#6E566E"/>
</linearGradient>
<linearGradient id="paint48_linear_2_5464" x1="32.6455" y1="19.5149" x2="33.6574" y2="21.5386" gradientUnits="userSpaceOnUse">
<stop stop-color="#8A7889"/>
<stop offset="0.3344" stop-color="#867385"/>
<stop offset="0.7039" stop-color="#7B667B"/>
<stop offset="1" stop-color="#6E566E"/>
</linearGradient>
<linearGradient id="paint49_linear_2_5464" x1="3.14551" y1="42.4695" x2="4.15734" y2="44.4932" gradientUnits="userSpaceOnUse">
<stop stop-color="#8A7889"/>
<stop offset="0.3344" stop-color="#867385"/>
<stop offset="0.7039" stop-color="#7B667B"/>
<stop offset="1" stop-color="#6E566E"/>
</linearGradient>
<linearGradient id="paint50_linear_2_5464" x1="14.9562" y1="21.3447" x2="17.0049" y2="26.3091" gradientUnits="userSpaceOnUse">
<stop stop-color="#FF6359"/>
<stop offset="0.2243" stop-color="#FE5B50"/>
<stop offset="0.5952" stop-color="#FC4637"/>
<stop offset="1" stop-color="#F82814"/>
</linearGradient>
<linearGradient id="paint51_linear_2_5464" x1="15.9979" y1="22.9343" x2="14.0437" y2="19.8846" gradientUnits="userSpaceOnUse">
<stop stop-color="#F82814" stop-opacity="0"/>
<stop offset="0.2454" stop-color="#F12817" stop-opacity="0.245"/>
<stop offset="0.6052" stop-color="#DD2820" stop-opacity="0.605"/>
<stop offset="1" stop-color="#C0272D"/>
</linearGradient>
<linearGradient id="paint52_linear_2_5464" x1="14.4454" y1="24.7066" x2="12.9027" y2="22.2991" gradientUnits="userSpaceOnUse">
<stop stop-color="#F82814" stop-opacity="0"/>
<stop offset="0.2454" stop-color="#F12817" stop-opacity="0.245"/>
<stop offset="0.6052" stop-color="#DD2820" stop-opacity="0.605"/>
<stop offset="1" stop-color="#C0272D"/>
</linearGradient>
<linearGradient id="paint53_linear_2_5464" x1="16.8821" y1="24.9059" x2="15.952" y2="23.4544" gradientUnits="userSpaceOnUse">
<stop stop-color="#F82814" stop-opacity="0"/>
<stop offset="0.2454" stop-color="#F12817" stop-opacity="0.245"/>
<stop offset="0.6052" stop-color="#DD2820" stop-opacity="0.605"/>
<stop offset="1" stop-color="#C0272D"/>
</linearGradient>
<linearGradient id="paint54_linear_2_5464" x1="31.4573" y1="15.5817" x2="33.806" y2="19.4823" gradientUnits="userSpaceOnUse">
<stop stop-color="#A57C52"/>
<stop offset="0.1339" stop-color="#A26C4A"/>
<stop offset="0.5155" stop-color="#994336"/>
<stop offset="0.8174" stop-color="#942A2A"/>
<stop offset="1" stop-color="#922125"/>
</linearGradient>
<linearGradient id="paint55_linear_2_5464" x1="40.9359" y1="14.535" x2="36.8384" y2="21.2328" gradientUnits="userSpaceOnUse">
<stop stop-color="#FAA68E"/>
<stop offset="0.2061" stop-color="#FBA682"/>
<stop offset="0.5808" stop-color="#FDA861"/>
<stop offset="1" stop-color="#FFA936"/>
</linearGradient>
<clipPath id="clip0_2_5464">
<rect width="56" height="56" fill="white"/>
</clipPath>
</defs>
</svg>
