<svg width="56" height="56" viewBox="0 0 56 56" fill="none" xmlns="http://www.w3.org/2000/svg">
<g clip-path="url(#clip0_2_5618)">
<path d="M31.9079 9.97017C34.1935 9.69676 35.9139 7.75828 35.9139 5.45646V5.3617C35.9139 2.88815 33.9782 0.794628 31.5057 0.721279C28.9367 0.645075 26.8223 2.71279 26.8223 5.26508V8.17038C24.4316 8.18202 22.2394 6.66068 21.4484 4.366C21.2481 3.78503 20.6343 3.42948 20.0387 3.58079C19.3643 3.7522 18.9914 4.45648 19.211 5.10213C20.3185 8.35847 23.4171 10.5257 26.7953 10.5255C26.8043 10.5255 26.8132 10.5255 26.8223 10.5253C26.8223 10.9492 26.5679 11.3316 26.1768 11.4953L22.7814 12.9174C21.7177 13.3629 21.0254 14.4034 21.0254 15.5566H34.9741C34.9741 14.4034 34.2818 13.3629 33.2181 12.9174L29.8227 11.4953C29.4318 11.3316 29.1772 10.9492 29.1772 10.5253V10.2968L31.9079 9.97017ZM29.1775 5.26508C29.1775 4.05712 30.1603 3.07438 31.3683 3.07438C32.5762 3.07438 33.5588 4.05712 33.5588 5.26508V5.45657C33.5588 6.56504 32.7288 7.50013 31.6283 7.63179L29.1775 7.92486V5.26508Z" fill="url(#paint0_linear_2_5618)"/>
<path d="M10.3882 52.7936C16.1255 52.7936 20.7764 44.9794 20.7764 35.3402C20.7764 25.7009 16.1255 17.8867 10.3882 17.8867C4.65096 17.8867 0 25.7009 0 35.3402C0 44.9794 4.65096 52.7936 10.3882 52.7936Z" fill="url(#paint1_linear_2_5618)"/>
<path d="M45.6121 52.7936C51.3494 52.7936 56.0003 44.9794 56.0003 35.3402C56.0003 25.7009 51.3494 17.8867 45.6121 17.8867C39.8748 17.8867 35.2239 25.7009 35.2239 35.3402C35.2239 44.9794 39.8748 52.7936 45.6121 52.7936Z" fill="url(#paint2_linear_2_5618)"/>
<path d="M44.7932 17.9404C39.4385 18.6416 35.2234 26.1638 35.2234 35.3402C35.2234 44.9794 39.8744 52.7936 45.6116 52.7936C51.3489 52.7936 55.9999 44.9794 55.9999 35.3401C55.9999 32.8173 55.6808 30.4201 55.1077 28.2548L44.7932 17.9404Z" fill="url(#paint3_radial_2_5618)"/>
<path d="M17.9428 54.3383C24.7945 54.3383 30.349 45.4811 30.349 34.5551C30.349 23.6292 24.7945 14.772 17.9428 14.772C11.0911 14.772 5.53662 23.6292 5.53662 34.5551C5.53662 45.4811 11.0911 54.3383 17.9428 54.3383Z" fill="url(#paint4_linear_2_5618)"/>
<path d="M38.0568 54.3383C44.9086 54.3383 50.4631 45.4811 50.4631 34.5551C50.4631 23.6292 44.9086 14.772 38.0568 14.772C31.2051 14.772 25.6506 23.6292 25.6506 34.5551C25.6506 45.4811 31.2051 54.3383 38.0568 54.3383Z" fill="url(#paint5_linear_2_5618)"/>
<path d="M34.79 15.4668C29.5233 17.7535 25.6506 25.4326 25.6506 34.5553C25.6506 45.4813 31.2051 54.3385 38.0568 54.3385C44.9086 54.3385 50.4631 45.4813 50.4631 34.5553C50.4631 33.3174 50.391 32.1065 50.2547 30.9316L34.79 15.4668Z" fill="url(#paint6_radial_2_5618)"/>
<path d="M41.7847 33.2991C41.7847 45.439 35.6131 55.2804 28 55.2804C20.387 55.2804 14.2153 45.439 14.2153 33.2991C14.2153 21.1592 20.387 13.0459 28 13.0459C35.6131 13.0459 41.7847 21.1592 41.7847 33.2991Z" fill="url(#paint7_linear_2_5618)"/>
<g opacity="0.37">
<path opacity="0.37" d="M23.931 43.3497C25.2602 43.3497 26.3377 42.2722 26.3377 40.9429C26.3377 39.6137 25.2602 38.5361 23.931 38.5361C22.6017 38.5361 21.5242 39.6137 21.5242 40.9429C21.5242 42.2722 22.6017 43.3497 23.931 43.3497Z" fill="url(#paint8_linear_2_5618)"/>
<path opacity="0.37" d="M24.5858 49.2234C25.3244 49.2234 25.9231 48.6247 25.9231 47.8861C25.9231 47.1476 25.3244 46.5488 24.5858 46.5488C23.8473 46.5488 23.2485 47.1476 23.2485 47.8861C23.2485 48.6247 23.8473 49.2234 24.5858 49.2234Z" fill="url(#paint9_linear_2_5618)"/>
<path opacity="0.37" d="M21.4402 46.878C22.4387 46.878 23.2482 46.0686 23.2482 45.0701C23.2482 44.0716 22.4387 43.2622 21.4402 43.2622C20.4418 43.2622 19.6323 44.0716 19.6323 45.0701C19.6323 46.0686 20.4418 46.878 21.4402 46.878Z" fill="url(#paint10_linear_2_5618)"/>
</g>
<path d="M33.7705 14.749C36.3526 18.3035 37.9578 23.4456 37.9578 29.6357C37.9578 41.7756 31.7862 51.617 24.1731 51.617C22.38 51.617 20.6669 51.0706 19.0955 50.0772C21.4976 53.3224 24.6053 55.2806 28.0002 55.2806C35.6133 55.2806 41.7849 45.4392 41.7849 33.2993C41.7848 24.4449 38.5013 17.7337 33.7705 14.749V14.749Z" fill="url(#paint11_linear_2_5618)"/>
<path d="M33.5589 5.45665C33.5589 6.56512 32.7289 7.50021 31.6283 7.63187L29.1775 7.92494V10.2969L31.908 9.97036C34.1935 9.69695 35.9139 7.75836 35.9139 5.45654L33.5589 5.45665Z" fill="url(#paint12_linear_2_5618)"/>
<path d="M21.4484 4.36598C21.2481 3.78501 20.6343 3.42947 20.0387 3.58078C19.3643 3.75218 18.9914 4.45635 19.211 5.10211C20.3185 8.35845 23.4171 10.5256 26.7953 10.5253C26.8043 10.5253 26.8132 10.5253 26.8223 10.5252V8.17036C24.4316 8.18199 22.2395 6.66066 21.4484 4.36598Z" fill="url(#paint13_linear_2_5618)"/>
</g>
<defs>
<linearGradient id="paint0_linear_2_5618" x1="21.6563" y1="1.89629" x2="35.7086" y2="17.715" gradientUnits="userSpaceOnUse">
<stop stop-color="#FFA325"/>
<stop offset="1" stop-color="#5A6313"/>
</linearGradient>
<linearGradient id="paint1_linear_2_5618" x1="1.60797" y1="33.4017" x2="9.6678" y2="35.1812" gradientUnits="userSpaceOnUse">
<stop stop-color="#FFD945"/>
<stop offset="0.3043" stop-color="#FFCD3E"/>
<stop offset="0.8558" stop-color="#FFAD2B"/>
<stop offset="1" stop-color="#FFA325"/>
</linearGradient>
<linearGradient id="paint2_linear_2_5618" x1="43.4251" y1="34.515" x2="54.5205" y2="38.7019" gradientUnits="userSpaceOnUse">
<stop stop-color="#FFD945"/>
<stop offset="0.3043" stop-color="#FFCD3E"/>
<stop offset="0.8558" stop-color="#FFAD2B"/>
<stop offset="1" stop-color="#FFA325"/>
</linearGradient>
<radialGradient id="paint3_radial_2_5618" cx="0" cy="0" r="1" gradientUnits="userSpaceOnUse" gradientTransform="translate(43.7276 33.1663) scale(9.63299 20.1233)">
<stop stop-color="#FF7044"/>
<stop offset="0.3496" stop-color="#FC7048" stop-opacity="0.65"/>
<stop offset="0.7144" stop-color="#F37155" stop-opacity="0.286"/>
<stop offset="1" stop-color="#E87264" stop-opacity="0"/>
</radialGradient>
<linearGradient id="paint4_linear_2_5618" x1="5.26387" y1="31.0188" x2="20.6508" y2="35.3105" gradientUnits="userSpaceOnUse">
<stop stop-color="#FFD945"/>
<stop offset="0.3043" stop-color="#FFCD3E"/>
<stop offset="0.8558" stop-color="#FFAD2B"/>
<stop offset="1" stop-color="#FFA325"/>
</linearGradient>
<linearGradient id="paint5_linear_2_5618" x1="32.4455" y1="32.5968" x2="48.0418" y2="38.0398" gradientUnits="userSpaceOnUse">
<stop stop-color="#FFD945"/>
<stop offset="0.3043" stop-color="#FFCD3E"/>
<stop offset="0.8558" stop-color="#FFAD2B"/>
<stop offset="1" stop-color="#FFA325"/>
</linearGradient>
<radialGradient id="paint6_radial_2_5618" cx="0" cy="0" r="1" gradientUnits="userSpaceOnUse" gradientTransform="translate(33.0325 32.8545) scale(12.8664 22.9408)">
<stop stop-color="#FF7044"/>
<stop offset="0.3433" stop-color="#FB7049" stop-opacity="0.657"/>
<stop offset="0.775" stop-color="#F07159" stop-opacity="0.225"/>
<stop offset="1" stop-color="#E87264" stop-opacity="0"/>
</radialGradient>
<linearGradient id="paint7_linear_2_5618" x1="13.973" y1="29.7635" x2="37.2104" y2="36.9859" gradientUnits="userSpaceOnUse">
<stop stop-color="#FFD945"/>
<stop offset="0.3043" stop-color="#FFCD3E"/>
<stop offset="0.8558" stop-color="#FFAD2B"/>
<stop offset="1" stop-color="#FFA325"/>
</linearGradient>
<linearGradient id="paint8_linear_2_5618" x1="23.0206" y1="40.0324" x2="26.6855" y2="43.6974" gradientUnits="userSpaceOnUse">
<stop stop-color="#E87264" stop-opacity="0"/>
<stop offset="1" stop-color="#FF7044"/>
</linearGradient>
<linearGradient id="paint9_linear_2_5618" x1="23.8567" y1="47.157" x2="25.5422" y2="48.8425" gradientUnits="userSpaceOnUse">
<stop stop-color="#E87264" stop-opacity="0"/>
<stop offset="1" stop-color="#FF7044"/>
</linearGradient>
<linearGradient id="paint10_linear_2_5618" x1="20.3978" y1="44.0276" x2="23.7473" y2="47.3771" gradientUnits="userSpaceOnUse">
<stop stop-color="#E87264" stop-opacity="0"/>
<stop offset="1" stop-color="#FF7044"/>
</linearGradient>
<linearGradient id="paint11_linear_2_5618" x1="34.1878" y1="42.1901" x2="48.4233" y2="61.5546" gradientUnits="userSpaceOnUse">
<stop stop-color="#E87264" stop-opacity="0"/>
<stop offset="1" stop-color="#FF7044"/>
</linearGradient>
<linearGradient id="paint12_linear_2_5618" x1="31.3495" y1="7.87673" x2="28.8373" y2="7.87673" gradientUnits="userSpaceOnUse">
<stop stop-color="#5A6313" stop-opacity="0"/>
<stop offset="1" stop-color="#544F43"/>
</linearGradient>
<linearGradient id="paint13_linear_2_5618" x1="25.0473" y1="7.29017" x2="27.6379" y2="7.66965" gradientUnits="userSpaceOnUse">
<stop stop-color="#5A6313" stop-opacity="0"/>
<stop offset="1" stop-color="#544F43"/>
</linearGradient>
<clipPath id="clip0_2_5618">
<rect width="56" height="56" fill="white"/>
</clipPath>
</defs>
</svg>
