<svg width="56" height="56" viewBox="0 0 56 56" fill="none" xmlns="http://www.w3.org/2000/svg">
<g clip-path="url(#clip0_2_5636)">
<path d="M27.9998 49.7758C23.377 49.7758 19.1345 49.0913 15.8115 47.9502C16.2896 49.8411 17.1878 51.2712 18.2953 51.7289C20.7949 52.7619 24.2204 53.399 27.9998 53.399C31.7791 53.399 35.2047 52.7619 37.7042 51.7289C38.8117 51.2712 39.7099 49.8411 40.188 47.9502C36.865 49.0913 32.6225 49.7758 27.9998 49.7758Z" fill="url(#paint0_linear_2_5636)"/>
<path d="M56 26.4667C56 18.6843 0 18.6843 0 26.4667C0 34.2492 6.58022 51.11 28 51.11C49.4198 51.11 56 34.2492 56 26.4667V26.4667Z" fill="url(#paint1_linear_2_5636)"/>
<path d="M56 26.4667C56 34.2492 0 34.2492 0 26.4667C0 18.6843 56 18.6843 56 26.4667Z" fill="url(#paint2_linear_2_5636)"/>
<path d="M53.6878 26.4666C53.6878 32.2019 2.31226 32.2019 2.31226 26.4666C2.31226 20.7312 53.6878 20.7312 53.6878 26.4666Z" fill="url(#paint3_linear_2_5636)"/>
<path d="M3.34229 27.7918C6.02787 29.411 13.6355 30.3696 22.1488 30.6675C23.0041 30.6975 23.8684 29.952 24.7378 29.9687C25.5133 29.9835 26.293 30.7616 27.0737 30.7659C38.0594 30.825 49.2714 29.8335 52.6578 27.7919C46.0755 23.8233 9.9247 23.8233 3.34229 27.7918V27.7918Z" fill="url(#paint4_linear_2_5636)"/>
<path d="M0.490967 30.5758C0.719139 31.6066 1.03197 32.692 1.43759 33.8037C9.26683 38.8959 46.7335 38.8959 54.5627 33.8037C54.9683 32.692 55.2812 31.6066 55.5093 30.5758C55.4772 30.5375 55.4452 30.4992 55.4101 30.4614C49.821 36.4771 6.17936 36.4771 0.590339 30.4614C0.555202 30.4992 0.523139 30.5375 0.490967 30.5758Z" fill="url(#paint5_linear_2_5636)"/>
<path d="M2.31226 35.917C2.65078 36.6459 3.0296 37.3778 3.45246 38.1057C13.4764 41.8952 42.5236 41.8952 52.5474 38.1057C52.9704 37.3778 53.3492 36.6459 53.6876 35.917C44.6038 40.3564 11.3962 40.3564 2.31226 35.917V35.917Z" fill="url(#paint6_linear_2_5636)"/>
<path d="M45.9742 29.6454C40.9012 30.4283 33.9525 30.8016 27.0905 30.7655C26.381 30.7617 25.6725 29.985 24.967 29.9725C24.0228 29.9558 23.0841 30.6998 22.1562 30.6674C17.6647 30.5105 13.4248 30.1699 10.0266 29.6455C11.4189 26.795 13.7204 24.3474 16.6214 22.5642C19.8211 20.5965 23.7521 19.437 28.0004 19.437C32.2487 19.437 36.1797 20.5965 39.3794 22.5642C42.2804 24.3473 44.5819 26.7949 45.9742 29.6454Z" fill="url(#paint7_linear_2_5636)"/>
<path d="M43.1461 30.0192C41.5484 27.2981 39.1949 24.9549 36.3209 23.1883C34.4859 22.0598 32.4381 21.1666 30.2387 20.5603C26.3147 19.4786 22.118 19.8043 18.4493 21.5673C17.8172 21.8712 17.207 22.2042 16.6214 22.5642C13.7204 24.3475 11.4189 26.795 10.0266 29.6455C18.836 31.0051 33.3004 31.1295 43.1461 30.0192Z" fill="url(#paint8_linear_2_5636)"/>
<path d="M39.415 30.3658C37.8211 27.7439 35.5231 25.4825 32.7314 23.7665C30.9105 22.6467 28.8802 21.7587 26.7 21.1527C23.3113 20.2108 19.6694 20.7015 16.6683 22.5356C16.6526 22.5452 16.637 22.5547 16.6214 22.5644C13.7204 24.3476 11.4189 26.7951 10.0266 29.6456C17.7775 30.8417 29.9062 31.0817 39.415 30.3658V30.3658Z" fill="url(#paint9_linear_2_5636)"/>
<path d="M35.571 30.5971C33.9817 28.0465 31.7225 25.8449 28.9907 24.1657C27.2988 23.1253 25.426 22.285 23.4202 21.685C21.1449 21.0044 18.6779 21.3046 16.6526 22.5449C16.6422 22.5513 16.6318 22.5576 16.6214 22.5641C13.7204 24.3473 11.4189 26.7949 10.0266 29.6454C13.425 30.1698 17.665 30.5104 22.1568 30.6673C23.0082 30.6971 23.8687 30.1711 24.7342 30.1877C25.5233 30.2027 26.3164 30.7613 27.1107 30.7655C29.963 30.78 32.8302 30.7239 35.571 30.5971Z" fill="url(#paint10_linear_2_5636)"/>
<path d="M31.5026 30.7321C29.9674 28.5782 27.9382 26.7079 25.5468 25.238C23.7118 24.1095 21.6641 23.2164 19.4646 22.61C19.3535 22.5794 19.2076 22.5572 19.0406 22.5416C17.5191 22.3993 16.0103 22.8821 14.8085 23.826C12.7579 25.4366 11.1147 27.4181 10.0266 29.6456C13.4234 30.1698 17.6609 30.5103 22.1504 30.6673C22.9743 30.696 23.8069 30.0598 24.6441 30.0763C25.4614 30.0923 26.2834 30.7614 27.1065 30.7655C28.5744 30.7731 30.0461 30.762 31.5026 30.7321Z" fill="url(#paint11_linear_2_5636)"/>
<path d="M27.7709 30.7676C26.3776 29.1109 24.6762 27.6549 22.7363 26.4624C20.9013 25.3339 18.8535 24.4408 16.654 23.8344C16.6493 23.8331 16.6446 23.8318 16.6399 23.8306C15.7406 23.5835 14.7794 23.8219 14.0764 24.4346C12.3654 25.9259 10.9816 27.6903 10.0266 29.6455C14.819 30.3851 21.2852 30.759 27.7709 30.7676Z" fill="url(#paint12_linear_2_5636)"/>
<path d="M14.2386 22.7698C11.2563 23.7504 8.80327 25.8992 7.48123 28.7651C7.42303 28.8914 7.36594 29.0188 7.31104 29.1461C8.06682 29.312 8.89419 29.4655 9.78031 29.6069C10.0348 28.7996 10.3403 28.0089 10.697 27.2355C11.4074 25.695 12.4275 24.3521 13.6737 23.2683C13.8827 23.0865 14.098 22.9121 14.3193 22.7451C14.2926 22.7536 14.2653 22.761 14.2386 22.7698V22.7698Z" fill="url(#paint13_linear_2_5636)"/>
<path d="M19.6143 20.0181C17.2963 20.3761 15.1848 21.3709 13.4905 22.8455C12.2442 23.9293 11.2242 25.2722 10.5137 26.8128C10.102 27.7055 9.75827 28.6212 9.48267 29.559C9.68471 29.5919 9.88894 29.6249 10.0976 29.6567C10.7784 29.761 11.4921 29.8576 12.2344 29.9477C12.2939 29.762 12.357 29.5776 12.4227 29.3939C12.7411 28.2129 13.1669 27.0625 13.7024 25.9487C14.2086 24.8946 14.8642 23.9316 15.6416 23.0784C16.8583 21.7426 18.3733 20.6769 20.0792 19.9561C19.9243 19.9741 19.7693 19.9942 19.6143 20.0181V20.0181Z" fill="url(#paint14_linear_2_5636)"/>
<path d="M22.8656 18.8074C19.8856 19.2692 17.2294 20.6882 15.3122 22.7665C14.5348 23.6088 13.8793 24.5596 13.3731 25.6003C12.7 26.9825 12.1971 28.421 11.8677 29.9062C11.9885 29.9214 12.1114 29.9355 12.2344 29.9507C12.9998 30.0417 13.7947 30.1253 14.6161 30.2001C14.9005 29.0205 15.3122 27.8757 15.8481 26.7744C16.1535 26.1472 17.9701 23.4057 18.3153 22.9795C20.047 20.8335 22.4281 19.3205 25.1023 18.6455C24.3614 18.6393 23.6135 18.6916 22.8656 18.8074V18.8074Z" fill="url(#paint15_linear_2_5636)"/>
<path d="M26.7096 18.103C23.264 18.2183 20.1016 19.8236 17.9934 22.4699C17.6783 22.8641 17.3873 23.2824 17.1216 23.7228C15.9192 25.7146 15.0803 27.8876 14.6169 30.2001C15.5261 30.2857 16.4671 30.3604 17.4312 30.4263C17.6314 29.5151 17.8999 28.6307 18.2348 27.7758C18.4413 27.1782 18.674 26.589 18.9355 26.01C19.5768 24.5935 20.4684 23.3406 21.5499 22.2975C23.3123 20.5988 25.5808 19.4569 28.0899 19.0726C29.3451 18.8796 30.6 18.8862 31.8163 19.0755C30.2349 18.3857 28.4965 18.0426 26.7096 18.103V18.103Z" fill="url(#paint16_linear_2_5636)"/>
<path d="M27.8711 18.791C25.3621 19.1848 23.0936 20.3546 21.3312 22.0949C20.2496 23.1636 19.358 24.4471 18.7168 25.8983C18.0777 27.3471 17.6023 28.8557 17.2937 30.4126C17.3398 30.416 17.3859 30.4193 17.4321 30.4227C18.2392 30.4798 19.0643 30.5286 19.9018 30.5716C20.192 29.5188 20.5696 28.4911 21.0326 27.4917C21.0926 27.3461 21.1544 27.2012 21.2181 27.0569C21.8901 25.5327 22.9224 24.2485 24.1952 23.296C24.5906 22.9578 25.0074 22.6428 25.4445 22.3544C26.9894 21.337 28.7781 20.6415 30.703 20.3477C32.6345 20.0531 34.5667 20.1775 36.375 20.6793C33.8967 19.0122 30.8847 18.3166 27.8711 18.791V18.791Z" fill="url(#paint17_linear_2_5636)"/>
<path d="M42.3148 24.0996C41.8305 23.578 41.3068 23.1025 40.7522 22.6765C37.9468 20.5134 34.3232 19.5756 30.7019 20.1389C28.777 20.4387 26.9883 21.148 25.4434 22.1857C23.6031 23.4243 22.1098 25.1295 21.1512 27.1642C20.6318 28.2666 20.2146 29.4042 19.8994 30.5714C19.9543 30.5747 20.0092 30.578 20.0641 30.5802C20.6716 30.61 21.2878 30.6347 21.9072 30.657C23.8885 25.4996 28.6419 21.8661 34.1919 21.8661C37.4187 21.8661 40.3762 23.0946 42.6764 25.1363C42.7042 24.7684 42.5858 24.3908 42.3148 24.0996Z" fill="url(#paint18_linear_2_5636)"/>
<path d="M20.4825 20.957C20.6356 20.5387 20.4206 20.0755 20.0024 19.9224C19.5841 19.7693 19.1209 19.9843 18.9678 20.4026C18.8147 20.8208 19.0297 21.284 19.448 21.4371C19.8663 21.5902 20.3295 21.3752 20.4825 20.957Z" fill="url(#paint19_linear_2_5636)"/>
<path d="M17.904 21.6405C17.5739 21.5197 17.2082 21.6894 17.0873 22.0196C16.9664 22.3498 17.1362 22.7155 17.4665 22.8364C17.7968 22.9572 18.1623 22.7875 18.2832 22.4572C18.404 22.127 18.2342 21.7614 17.904 21.6405Z" fill="url(#paint20_linear_2_5636)"/>
<path d="M20.3162 23.1978C20.1171 23.125 19.8966 23.2273 19.8238 23.4264C19.7509 23.6255 19.8532 23.8459 20.0523 23.9187C20.2514 23.9915 20.4719 23.8893 20.5447 23.6902C20.6176 23.4911 20.5152 23.2707 20.3162 23.1978Z" fill="url(#paint21_linear_2_5636)"/>
<path d="M23.8418 21.9111C23.3991 21.9594 23.0793 22.3575 23.1276 22.8004C23.1759 23.2431 23.5741 23.5628 24.0169 23.5145C24.4597 23.4662 24.7794 23.0681 24.7311 22.6252C24.6828 22.1824 24.2846 21.8628 23.8418 21.9111Z" fill="url(#paint22_linear_2_5636)"/>
<path d="M24.9971 19.7778C24.6476 19.816 24.3951 20.1302 24.4332 20.4798C24.4715 20.8293 24.7857 21.0818 25.1353 21.0437C25.4848 21.0055 25.7373 20.6912 25.6992 20.3416C25.661 19.992 25.3466 19.7395 24.9971 19.7778Z" fill="url(#paint23_linear_2_5636)"/>
<path d="M22.1992 19.9549C21.9885 19.978 21.8363 20.1674 21.8592 20.3782C21.8823 20.589 22.0717 20.7411 22.2825 20.7182C22.4932 20.6951 22.6454 20.5057 22.6225 20.2949C22.5995 20.0841 22.4099 19.9319 22.1992 19.9549Z" fill="url(#paint24_linear_2_5636)"/>
<path d="M21.3962 23.4038C21.0883 23.52 20.9328 23.8639 21.0491 24.1718C21.1652 24.4797 21.5092 24.6352 21.817 24.5189C22.1249 24.4027 22.2804 24.0588 22.1641 23.7509C22.0479 23.443 21.7041 23.2875 21.3962 23.4038Z" fill="url(#paint25_linear_2_5636)"/>
<path d="M21.8291 21.6642C21.586 21.756 21.4634 22.0275 21.5551 22.2706C21.6469 22.5137 21.9183 22.6363 22.1614 22.5446C22.4045 22.4529 22.5272 22.1814 22.4355 21.9383C22.3437 21.6952 22.0722 21.5724 21.8291 21.6642Z" fill="url(#paint26_linear_2_5636)"/>
<path d="M20.0601 22.8372C20.2067 22.7819 20.2806 22.6182 20.2254 22.4717C20.17 22.3251 20.0064 22.2512 19.8598 22.3064C19.7132 22.3617 19.6394 22.5254 19.6946 22.6719C19.7499 22.8185 19.9136 22.8925 20.0601 22.8372Z" fill="url(#paint27_linear_2_5636)"/>
<path d="M29.3397 20.6977C29.4928 20.2794 29.2778 19.8162 28.8595 19.6631C28.4413 19.51 27.978 19.725 27.825 20.1433C27.6719 20.5615 27.8869 21.0248 28.3051 21.1778C28.7234 21.331 29.1865 21.116 29.3397 20.6977V20.6977Z" fill="url(#paint28_linear_2_5636)"/>
<path d="M26.7617 21.3812C26.4315 21.2604 26.0659 21.4301 25.945 21.7604C25.8241 22.0907 25.9938 22.4562 26.324 22.5771C26.6542 22.698 27.0199 22.5282 27.1408 22.1979C27.2616 21.8678 27.0919 21.5021 26.7617 21.3812Z" fill="url(#paint29_linear_2_5636)"/>
<path d="M29.1734 22.9381C28.9743 22.8652 28.7538 22.9675 28.681 23.1667C28.6081 23.3657 28.7104 23.5862 28.9095 23.659C29.1086 23.7319 29.3291 23.6296 29.4019 23.4305C29.4748 23.2313 29.3724 23.0109 29.1734 22.9381Z" fill="url(#paint30_linear_2_5636)"/>
<path d="M33.8399 21.1757C33.3971 21.224 33.0774 21.6222 33.1257 22.065C33.174 22.5078 33.5721 22.8275 34.015 22.7792C34.4577 22.7309 34.7775 22.3327 34.7292 21.8899C34.6809 21.4472 34.2827 21.1274 33.8399 21.1757Z" fill="url(#paint31_linear_2_5636)"/>
<path d="M33.605 20.1213C33.5668 19.7718 33.2525 19.5193 32.9029 19.5575C32.5532 19.5957 32.3009 19.91 32.339 20.2595C32.3772 20.6091 32.6915 20.8614 33.0411 20.8233C33.3907 20.7851 33.6432 20.4708 33.605 20.1213V20.1213Z" fill="url(#paint32_linear_2_5636)"/>
<path d="M31.0564 19.6952C30.8456 19.7182 30.6935 19.9076 30.7164 20.1185C30.7395 20.3292 30.9289 20.4814 31.1397 20.4583C31.3504 20.4352 31.5026 20.2457 31.4796 20.035C31.4566 19.8244 31.2671 19.6722 31.0564 19.6952Z" fill="url(#paint33_linear_2_5636)"/>
<path d="M30.2536 23.144C29.9457 23.2602 29.7902 23.6041 29.9065 23.912C30.0227 24.2199 30.3666 24.3754 30.6745 24.2591C30.9824 24.1429 31.1378 23.799 31.0216 23.4911C30.9053 23.1832 30.5615 23.0278 30.2536 23.144V23.144Z" fill="url(#paint34_linear_2_5636)"/>
<path d="M30.688 21.4044C30.4449 21.4962 30.3223 21.7677 30.4139 22.0107C30.5057 22.2538 30.7772 22.3764 31.0203 22.2847C31.2634 22.1929 31.386 21.9215 31.2943 21.6785C31.2025 21.4354 30.9311 21.3127 30.688 21.4044Z" fill="url(#paint35_linear_2_5636)"/>
<path d="M28.9188 22.5779C29.0653 22.5226 29.1392 22.359 29.084 22.2124C29.0287 22.0658 28.8651 21.9919 28.7185 22.0471C28.5719 22.1025 28.498 22.2661 28.5532 22.4127C28.6086 22.5594 28.7722 22.6333 28.9188 22.5779Z" fill="url(#paint36_linear_2_5636)"/>
<path d="M26.8417 19.3256C27.1143 19.4254 27.4162 19.2852 27.516 19.0126C27.6158 18.74 27.4757 18.4381 27.2031 18.3383C26.9304 18.2385 26.6286 18.3786 26.5288 18.6513C26.429 18.924 26.5691 19.2259 26.8417 19.3256Z" fill="url(#paint37_linear_2_5636)"/>
<path d="M24.2105 19.327C24.2579 19.1972 24.1913 19.0536 24.0615 19.006C23.9317 18.9586 23.7881 19.0252 23.7406 19.155C23.6932 19.2848 23.7598 19.4284 23.8896 19.476C24.0193 19.5234 24.1629 19.4568 24.2105 19.327Z" fill="url(#paint38_linear_2_5636)"/>
<path d="M27.2615 20.413C27.2465 20.2757 27.123 20.1765 26.9857 20.1914C26.8483 20.2065 26.7492 20.3299 26.7642 20.4673C26.7792 20.6046 26.9027 20.7038 27.04 20.6889C27.1773 20.6738 27.2766 20.5504 27.2615 20.413Z" fill="url(#paint39_linear_2_5636)"/>
<path d="M30.366 19.1596C30.3509 19.0222 30.2275 18.9231 30.0902 18.938C29.9528 18.9531 29.8537 19.0765 29.8687 19.2138C29.8837 19.3512 30.0073 19.4504 30.1445 19.4354C30.2818 19.4204 30.3809 19.297 30.366 19.1596Z" fill="url(#paint40_linear_2_5636)"/>
<path d="M24.0761 20.0306C24.0004 19.8299 23.7763 19.7287 23.5756 19.8044C23.3748 19.8802 23.2736 20.1043 23.3494 20.3049C23.4251 20.5056 23.6492 20.6069 23.8498 20.5311C24.0506 20.4555 24.1519 20.2314 24.0761 20.0306Z" fill="url(#paint41_linear_2_5636)"/>
<path d="M25.8861 18.9426C25.8263 18.7841 25.6494 18.7042 25.4909 18.7639C25.3325 18.8238 25.2526 19.0007 25.3123 19.1591C25.3721 19.3176 25.549 19.3975 25.7075 19.3377C25.866 19.2779 25.946 19.101 25.8861 18.9426V18.9426Z" fill="url(#paint42_linear_2_5636)"/>
<path d="M28.8209 18.9426C28.761 18.7841 28.5841 18.7042 28.4257 18.7639C28.2673 18.8238 28.1873 19.0007 28.2472 19.1591C28.307 19.3176 28.4839 19.3975 28.6423 19.3377C28.8007 19.2779 28.8806 19.101 28.8209 18.9426V18.9426Z" fill="url(#paint43_linear_2_5636)"/>
<path d="M25.9859 19.8386C26.0219 19.9341 26.1286 19.9823 26.2241 19.9463C26.3197 19.9103 26.3679 19.8036 26.3319 19.708C26.2958 19.6125 26.1891 19.5643 26.0936 19.6003C25.998 19.6364 25.9497 19.7432 25.9859 19.8386Z" fill="url(#paint44_linear_2_5636)"/>
<path d="M26.9304 26.9325C26.7487 26.7035 26.4535 26.5681 26.1326 26.6151H26.1315C26.0898 26.6217 26.0481 26.6239 26.0063 26.6239C25.8373 26.6239 25.6729 26.5735 25.5333 26.4813C25.5042 26.4506 25.351 26.2971 25.3 26.2568C25.1279 26.0411 24.879 25.9321 24.6294 25.9321C24.3703 25.9321 24.1111 26.0474 23.9398 26.278C23.751 26.5317 23.438 26.6612 23.1262 26.6151H23.1251C22.5552 26.5317 22.0666 27.0214 22.15 27.5902V27.5913C22.1566 27.633 22.1588 27.6747 22.1588 27.7164C22.1588 27.9844 22.0325 28.2413 21.8129 28.4049C21.5823 28.5773 21.467 28.8353 21.467 29.0934C21.467 29.3437 21.5757 29.5934 21.7911 29.7646C21.8107 29.7896 21.9186 29.795 21.9641 29.8417C22.0118 29.8905 21.997 29.9805 22.012 29.9947C22.129 30.1692 22.1818 30.3827 22.15 30.5966V30.5977C22.1467 30.6215 22.1446 30.6442 22.1435 30.6671C22.9492 30.6953 23.7629 30.1686 24.5813 30.1849C25.4171 30.2016 26.2578 30.7613 27.0998 30.7656C28.3154 30.7719 29.5339 30.7653 30.744 30.746L26.9304 26.9325Z" fill="url(#paint45_linear_2_5636)"/>
<path d="M27.7906 29.0934C27.7906 29.3525 27.6754 29.6117 27.4448 29.783C27.1911 29.9718 27.0616 30.2848 27.1077 30.5966V30.5977C27.1165 30.6548 27.1186 30.7108 27.1154 30.7657C26.2644 30.7624 25.4145 30.7514 24.5701 30.735C24.1034 30.7251 23.639 30.7141 23.1767 30.7009C22.8308 30.691 22.486 30.6801 22.1434 30.668C22.1445 30.6449 22.1467 30.6219 22.15 30.5977V30.5966C22.1961 30.2848 22.0666 29.9718 21.8129 29.783C21.5823 29.6117 21.467 29.3525 21.467 29.0934C21.467 28.8354 21.5823 28.5773 21.8129 28.4049C22.0325 28.2413 22.1588 27.9844 22.1588 27.7164C22.1588 27.6747 22.1566 27.633 22.15 27.5913V27.5902C22.0666 27.0214 22.5552 26.5317 23.1251 26.6151H23.1262C23.438 26.6612 23.751 26.5317 23.9398 26.278C24.1111 26.0474 24.3703 25.9321 24.6294 25.9321C24.8874 25.9321 25.1455 26.0474 25.3179 26.278C25.4815 26.4976 25.7384 26.6239 26.0063 26.6239C26.0481 26.6239 26.0898 26.6217 26.1315 26.6151H26.1326C26.7014 26.5317 27.19 27.0214 27.1077 27.5902V27.5913C27.0616 27.9031 27.1911 28.2161 27.4448 28.4049C27.6754 28.5773 27.7906 28.8354 27.7906 29.0934V29.0934Z" fill="url(#paint46_linear_2_5636)"/>
<path d="M26.4909 28.8462C26.4404 29.2448 26.2373 29.5983 25.921 29.8443C25.6037 30.0891 25.2106 30.1968 24.8131 30.1462C24.4738 30.1034 24.173 29.931 23.9644 29.6609C23.7546 29.3908 23.6635 29.0559 23.7063 28.7177C23.7338 28.5069 23.9259 28.3587 24.1367 28.385C24.3465 28.4114 24.4958 28.6046 24.4694 28.8143C24.4519 28.9494 24.4881 29.0823 24.5716 29.1899C24.655 29.2975 24.7747 29.3666 24.9098 29.3831C25.1041 29.4084 25.2952 29.3557 25.45 29.236C25.6048 29.1163 25.7036 28.9439 25.7278 28.7495C25.7981 28.1972 25.4061 27.69 24.8527 27.6197C24.4925 27.5736 24.1356 27.6713 23.8491 27.8931C23.5614 28.116 23.378 28.4366 23.3319 28.7968C23.2221 29.6697 23.7601 30.4778 24.5705 30.7348C24.1038 30.7249 23.6393 30.7139 23.1771 30.7007C22.9498 30.4394 22.7763 30.132 22.6698 29.7993C22.56 29.4556 22.5215 29.0823 22.5698 28.7001C22.7181 27.5351 23.7854 26.7083 24.9493 26.8565C25.9232 26.9806 26.6139 27.8733 26.4909 28.8462V28.8462Z" fill="url(#paint47_linear_2_5636)"/>
<path d="M40.7997 30.253L32.4652 21.9184C32.3082 21.6715 31.9571 21.5095 31.5682 21.5533L31.5674 21.5534C31.2549 21.5886 30.9424 21.4888 30.7538 21.2936C30.4101 20.9379 29.7188 20.9379 29.3751 21.2936C29.1864 21.4888 28.8739 21.5885 28.5614 21.5534L28.5607 21.5533C27.9914 21.4892 27.5027 21.8658 27.5858 22.3045L27.5859 22.305C27.6316 22.5458 27.5021 22.7866 27.2488 22.932C26.8061 23.1861 26.7893 23.6859 27.1959 23.9601L27.4593 24.2338C27.5578 24.3362 27.6121 24.4788 27.5865 24.6185C27.5862 24.6195 27.5861 24.6204 27.5859 24.6214L27.5858 24.622C27.5411 24.8574 27.6621 25.0742 27.8709 25.2154L33.3397 30.6842C35.9407 30.6015 38.4648 30.4577 40.7997 30.253Z" fill="url(#paint48_linear_2_5636)"/>
<path d="M32.88 23.9943C32.6267 24.1397 32.4972 24.3805 32.5429 24.6213L32.543 24.6218C32.6263 25.0605 32.1375 25.4371 31.5682 25.373L31.5674 25.3729C31.2549 25.3377 30.9424 25.4375 30.7538 25.6327C30.4101 25.9884 29.7188 25.9884 29.3751 25.6327C29.1864 25.4375 28.8739 25.3378 28.5614 25.3729L28.5607 25.373C27.9915 25.4371 27.5027 25.0605 27.5859 24.6218L27.5861 24.6213C27.6317 24.3805 27.5023 24.1397 27.249 23.9943C26.7875 23.7295 26.7875 23.1968 27.249 22.932C27.5023 22.7866 27.6317 22.5458 27.5861 22.305L27.5859 22.3044C27.5027 21.8658 27.9915 21.4892 28.5608 21.5533L28.5616 21.5534C28.8741 21.5886 29.1866 21.4888 29.3752 21.2936C29.7189 20.9379 30.4102 20.9379 30.7539 21.2936C30.9425 21.4888 31.255 21.5885 31.5675 21.5534L31.5683 21.5533C32.1375 21.4892 32.6263 21.8658 32.543 22.3044L32.5429 22.305C32.4972 22.5458 32.6267 22.7866 32.88 22.932C33.3415 23.1968 33.3415 23.7295 32.88 23.9943Z" fill="url(#paint49_linear_2_5636)"/>
<path d="M28.1053 24.0071C27.9952 23.7415 27.9567 23.4539 28.0053 23.1595C28.1533 22.2624 29.2209 21.6252 30.3851 21.7393C31.3585 21.8347 32.0497 22.5225 31.9261 23.2726C31.8756 23.579 31.6732 23.8518 31.3563 24.0409C31.0394 24.23 30.646 24.3128 30.2483 24.2738C29.9098 24.2406 29.6083 24.1079 29.3995 23.9C29.1905 23.6922 29.0992 23.434 29.1423 23.1732C29.1691 23.0109 29.3615 22.8962 29.572 22.9168C29.7826 22.9375 29.9315 23.0857 29.9047 23.248C29.8875 23.3519 29.9239 23.4545 30.0071 23.5374C30.0902 23.6202 30.2104 23.6731 30.3452 23.6862C30.5391 23.7052 30.7311 23.6649 30.8857 23.5727C31.0402 23.4805 31.1389 23.3474 31.1636 23.1979C31.234 22.7718 30.8412 22.3809 30.2882 22.3269C29.928 22.2915 29.5713 22.3665 29.2842 22.5379C28.997 22.7093 28.8137 22.9566 28.7679 23.2343C28.6429 23.9912 29.3406 24.6853 30.3229 24.7815C30.5334 24.8022 30.6825 24.9502 30.6557 25.1127C30.6289 25.275 30.4366 25.3897 30.226 25.3691C29.2051 25.2692 28.3996 24.717 28.1053 24.0071V24.0071Z" fill="url(#paint50_linear_2_5636)"/>
<path d="M26.1739 30.4153C24.8194 30.401 23.472 30.7134 22.1466 30.667C20.7287 30.6174 19.3359 30.5494 17.9869 30.4626L14.7982 27.2739C14.5896 27.1333 14.4688 26.9159 14.5138 26.6809V26.6798C14.5138 26.6798 14.5138 26.6787 14.5138 26.6776C14.5401 26.5382 14.4852 26.3954 14.3864 26.2922L14.1229 26.0188C13.9285 25.887 13.8308 25.7037 13.8308 25.5214C13.8308 25.3226 13.9461 25.1228 14.1767 24.991C14.4292 24.845 14.5588 24.6045 14.5138 24.3641V24.363C14.4907 24.24 14.5116 24.1214 14.5687 24.0171C14.6532 23.8568 14.8179 23.7283 15.0233 23.6602C15.1638 23.6119 15.3219 23.5932 15.4877 23.6119H15.4888C15.8018 23.647 16.1136 23.5482 16.3025 23.3528C16.4749 23.1749 16.7329 23.0859 16.9921 23.0859C17.2512 23.0859 17.5092 23.1749 17.6816 23.3528C17.8441 23.5219 18.1011 23.6185 18.3701 23.6185C18.4118 23.6185 18.4535 23.6163 18.4953 23.6119C18.8851 23.568 19.2354 23.7305 19.3924 23.9775L26.1739 30.4153Z" fill="url(#paint51_linear_2_5636)"/>
<path d="M19.8075 26.0534C19.5542 26.1988 19.4248 26.4396 19.4704 26.6804L19.4705 26.6809C19.5538 27.1196 19.065 27.4962 18.4957 27.4321L18.4949 27.432C18.1824 27.3967 17.8699 27.4966 17.6813 27.6918C17.3376 28.0474 16.6463 28.0474 16.3026 27.6918C16.1139 27.4966 15.8014 27.3969 15.4889 27.432L15.4882 27.4321C14.9189 27.4962 14.4302 27.1196 14.5134 26.6809L14.5136 26.6804C14.5592 26.4396 14.4298 26.1988 14.1765 26.0534C13.7149 25.7886 13.7149 25.2559 14.1765 24.9911C14.4298 24.8457 14.5592 24.6049 14.5136 24.3641L14.5134 24.3635C14.4302 23.9249 14.9189 23.5482 15.4883 23.6124L15.4891 23.6125C15.8016 23.6477 16.1141 23.5479 16.3027 23.3527C16.6464 22.997 17.3377 22.997 17.6814 23.3527C17.87 23.5479 18.1824 23.6476 18.495 23.6125L18.4958 23.6124C19.065 23.5482 19.5538 23.9249 19.4705 24.3635L19.4704 24.3641C19.4248 24.6049 19.5542 24.8457 19.8075 24.9911C20.269 25.2559 20.269 25.7886 19.8075 26.0534Z" fill="url(#paint52_linear_2_5636)"/>
<path d="M15.0328 26.0662C14.9227 25.8005 14.8842 25.513 14.9328 25.2186C15.0808 24.3215 16.1484 23.6843 17.3126 23.7984C18.286 23.8938 18.9772 24.5816 18.8536 25.3317C18.803 25.638 18.6007 25.9109 18.2838 26.1C17.9669 26.2891 17.5735 26.3719 17.1757 26.3329C16.8373 26.2997 16.5358 26.167 16.327 25.9591C16.118 25.7512 16.0266 25.4931 16.0698 25.2323C16.0966 25.07 16.289 24.9553 16.4995 24.9759C16.7101 24.9966 16.859 25.1448 16.8322 25.3071C16.815 25.411 16.8514 25.5136 16.9346 25.5965C17.0177 25.6793 17.1379 25.7321 17.2727 25.7453C17.4666 25.7643 17.6586 25.724 17.8132 25.6318C17.9677 25.5395 18.0664 25.4065 18.0911 25.257C18.1615 24.8309 17.7687 24.44 17.2157 24.3859C16.8554 24.3506 16.4988 24.4256 16.2117 24.597C15.9245 24.7684 15.7411 25.0157 15.6954 25.2934C15.5704 26.0502 16.2681 26.7444 17.2504 26.8406C17.4609 26.8613 17.61 27.0093 17.5832 27.1718C17.5564 27.3341 17.3641 27.4488 17.1535 27.4282C16.1326 27.3282 15.3271 26.776 15.0328 26.0662V26.0662Z" fill="url(#paint53_linear_2_5636)"/>
<path d="M38.4293 11.7508C38.2973 11.4171 38.66 11.105 38.9719 11.2824C40.0739 11.9091 41.6917 13.1986 41.6917 15.3688C41.6917 18.6597 37.7275 18.97 37.7275 21.4077C37.7275 22.6587 37.8932 23.5226 38.0545 24.0672C38.1478 24.3823 37.8255 24.6598 37.5286 24.5194C36.5409 24.0522 35.0217 22.9121 35.0217 20.3191C35.0217 16.4771 38.9529 16.5342 38.9529 14.4337C38.9529 13.3366 38.6851 12.3977 38.4293 11.7508V11.7508Z" fill="url(#paint54_linear_2_5636)"/>
<path d="M28.6296 2.81419C28.5436 2.66727 28.7739 2.53331 28.9283 2.64004C29.9754 3.36409 31.7462 4.89497 31.7462 6.96599C31.7462 9.90632 28.3948 10.7387 27.9482 13.0317C27.5869 14.8864 28.4149 16.6919 28.7945 17.3932C28.8603 17.5149 28.7087 17.6383 28.5517 17.5913C27.3969 17.2454 24.2902 15.9639 24.7541 12.2716C25.2035 8.69474 28.5654 8.85813 29.162 6.5439C29.5906 4.88235 29.0625 3.55284 28.6296 2.81419V2.81419Z" fill="url(#paint55_linear_2_5636)"/>
<path d="M19.8581 12.533C19.7404 12.2577 19.987 12.0001 20.2271 12.1464C21.075 12.6635 22.3428 13.7276 22.4784 15.5183C22.6841 18.2339 19.7942 18.4899 19.9466 20.5014C20.0248 21.5337 20.2004 22.2466 20.3528 22.6961C20.441 22.956 20.2218 23.1852 19.9951 23.0692C19.241 22.6837 18.0549 21.7429 17.8929 19.6032C17.6527 16.433 20.5413 16.4801 20.41 14.7467C20.3415 13.8415 20.0863 13.0666 19.8581 12.533V12.533Z" fill="url(#paint56_linear_2_5636)"/>
<path d="M55.9997 26.4671C55.9997 29.7151 46.2403 31.6081 34.8701 32.1439L38.1906 30.4519C46.864 29.8853 53.6872 28.5566 53.6872 26.4671C53.6872 25.5842 52.4695 24.8365 50.4085 24.226L52.1631 23.3311C54.5667 24.1776 55.9997 25.223 55.9997 26.4671Z" fill="url(#paint57_linear_2_5636)"/>
<path d="M52.5906 20.7504L29.4045 33.5655C29.1201 33.762 29.3648 34.2319 29.8467 34.415C30.0684 34.4992 30.287 34.4977 30.4222 34.4108L54.127 22.0266C54.6734 21.6757 54.014 20.758 53.138 20.65C52.9176 20.6228 52.7236 20.6584 52.5906 20.7504V20.7504Z" fill="url(#paint58_linear_2_5636)"/>
<path d="M54.2652 21.2152L30.6277 34.0303C30.3433 34.2268 30.5879 34.6967 31.0698 34.8798C31.2915 34.964 31.5102 34.9625 31.6453 34.8756L55.8016 22.4914C56.3479 22.1405 55.6886 21.2228 54.8126 21.1148C54.5922 21.0877 54.3982 21.1233 54.2652 21.2152V21.2152Z" fill="url(#paint59_linear_2_5636)"/>
</g>
<defs>
<linearGradient id="paint0_linear_2_5636" x1="28.1151" y1="49.8521" x2="28.3201" y2="53.2343" gradientUnits="userSpaceOnUse">
<stop stop-color="#F8F6FB"/>
<stop offset="1" stop-color="#EFDCFB"/>
</linearGradient>
<linearGradient id="paint1_linear_2_5636" x1="23.7512" y1="23.1795" x2="39.8924" y2="47.2266" gradientUnits="userSpaceOnUse">
<stop stop-color="#F8F6FB"/>
<stop offset="1" stop-color="#EFDCFB"/>
</linearGradient>
<linearGradient id="paint2_linear_2_5636" x1="24.5985" y1="12.7347" x2="28.5514" y2="28.6928" gradientUnits="userSpaceOnUse">
<stop stop-color="#F8F6FB"/>
<stop offset="1" stop-color="#EFDCFB"/>
</linearGradient>
<linearGradient id="paint3_linear_2_5636" x1="28" y1="37.458" x2="28" y2="-2.24863" gradientUnits="userSpaceOnUse">
<stop stop-color="#EFDCFB" stop-opacity="0"/>
<stop offset="0.0287" stop-color="#E9D6F7" stop-opacity="0.029"/>
<stop offset="0.2203" stop-color="#C5B5DE" stop-opacity="0.22"/>
<stop offset="0.4138" stop-color="#AA9BCB" stop-opacity="0.414"/>
<stop offset="0.6078" stop-color="#9688BD" stop-opacity="0.608"/>
<stop offset="0.8028" stop-color="#8A7DB5" stop-opacity="0.803"/>
<stop offset="1" stop-color="#8679B2"/>
</linearGradient>
<linearGradient id="paint4_linear_2_5636" x1="28.0001" y1="25.0506" x2="28.0001" y2="28.9548" gradientUnits="userSpaceOnUse">
<stop stop-color="#FFDECF"/>
<stop offset="0.3791" stop-color="#FDC4B0"/>
<stop offset="0.7655" stop-color="#FBAE97"/>
<stop offset="1" stop-color="#FAA68E"/>
</linearGradient>
<linearGradient id="paint5_linear_2_5636" x1="37.5743" y1="38.2329" x2="42.1861" y2="41.3074" gradientUnits="userSpaceOnUse">
<stop stop-color="#FF6359"/>
<stop offset="0.2243" stop-color="#FE5B50"/>
<stop offset="0.5952" stop-color="#FC4637"/>
<stop offset="1" stop-color="#F82814"/>
</linearGradient>
<linearGradient id="paint6_linear_2_5636" x1="36.7408" y1="42.4584" x2="40.981" y2="45.2854" gradientUnits="userSpaceOnUse">
<stop stop-color="#FF6359"/>
<stop offset="0.2243" stop-color="#FE5B50"/>
<stop offset="0.5952" stop-color="#FC4637"/>
<stop offset="1" stop-color="#F82814"/>
</linearGradient>
<linearGradient id="paint7_linear_2_5636" x1="24.4809" y1="21.0735" x2="29.0194" y2="32.1271" gradientUnits="userSpaceOnUse">
<stop stop-color="#FFD945"/>
<stop offset="0.3043" stop-color="#FFCD3E"/>
<stop offset="0.8558" stop-color="#FFAD2B"/>
<stop offset="1" stop-color="#FFA325"/>
</linearGradient>
<linearGradient id="paint8_linear_2_5636" x1="26.9802" y1="27.4422" x2="31.8116" y2="-1.87552" gradientUnits="userSpaceOnUse">
<stop stop-color="#F82814" stop-opacity="0"/>
<stop offset="1" stop-color="#C0272D"/>
</linearGradient>
<linearGradient id="paint9_linear_2_5636" x1="24.8931" y1="31.5066" x2="21.9382" y2="5.75714" gradientUnits="userSpaceOnUse">
<stop stop-color="#F82814" stop-opacity="0"/>
<stop offset="1" stop-color="#C0272D"/>
</linearGradient>
<linearGradient id="paint10_linear_2_5636" x1="22.9642" y1="29.1873" x2="27.1367" y2="5.63426" gradientUnits="userSpaceOnUse">
<stop stop-color="#F82814" stop-opacity="0"/>
<stop offset="1" stop-color="#C0272D"/>
</linearGradient>
<linearGradient id="paint11_linear_2_5636" x1="21.5745" y1="27.8182" x2="25.3627" y2="16.728" gradientUnits="userSpaceOnUse">
<stop stop-color="#F82814" stop-opacity="0"/>
<stop offset="1" stop-color="#C0272D"/>
</linearGradient>
<linearGradient id="paint12_linear_2_5636" x1="18.9379" y1="30.8513" x2="18.3523" y2="21.1885" gradientUnits="userSpaceOnUse">
<stop stop-color="#F82814" stop-opacity="0"/>
<stop offset="1" stop-color="#C0272D"/>
</linearGradient>
<linearGradient id="paint13_linear_2_5636" x1="10.1453" y1="25.0812" x2="11.2799" y2="26.5452" gradientUnits="userSpaceOnUse">
<stop stop-color="#FFD945"/>
<stop offset="0.3043" stop-color="#FFCD3E"/>
<stop offset="0.8558" stop-color="#FFAD2B"/>
<stop offset="1" stop-color="#FFA325"/>
</linearGradient>
<linearGradient id="paint14_linear_2_5636" x1="12.5034" y1="22.6637" x2="14.7727" y2="24.75" gradientUnits="userSpaceOnUse">
<stop stop-color="#FFD945"/>
<stop offset="0.3043" stop-color="#FFCD3E"/>
<stop offset="0.8558" stop-color="#FFAD2B"/>
<stop offset="1" stop-color="#FFA325"/>
</linearGradient>
<linearGradient id="paint15_linear_2_5636" x1="15.8151" y1="21.4178" x2="18.4137" y2="24.1995" gradientUnits="userSpaceOnUse">
<stop stop-color="#FFD945"/>
<stop offset="0.3043" stop-color="#FFCD3E"/>
<stop offset="0.8558" stop-color="#FFAD2B"/>
<stop offset="1" stop-color="#FFA325"/>
</linearGradient>
<linearGradient id="paint16_linear_2_5636" x1="19.0911" y1="19.3811" x2="22.495" y2="23.7184" gradientUnits="userSpaceOnUse">
<stop stop-color="#FFD945"/>
<stop offset="0.3043" stop-color="#FFCD3E"/>
<stop offset="0.8558" stop-color="#FFAD2B"/>
<stop offset="1" stop-color="#FFA325"/>
</linearGradient>
<linearGradient id="paint17_linear_2_5636" x1="20.9439" y1="17.5136" x2="25.7753" y2="24.1018" gradientUnits="userSpaceOnUse">
<stop stop-color="#FFD945"/>
<stop offset="0.3043" stop-color="#FFCD3E"/>
<stop offset="0.8558" stop-color="#FFAD2B"/>
<stop offset="1" stop-color="#FFA325"/>
</linearGradient>
<linearGradient id="paint18_linear_2_5636" x1="26.4214" y1="19.4969" x2="29.2763" y2="24.2551" gradientUnits="userSpaceOnUse">
<stop stop-color="#FFD945"/>
<stop offset="0.3043" stop-color="#FFCD3E"/>
<stop offset="0.8558" stop-color="#FFAD2B"/>
<stop offset="1" stop-color="#FFA325"/>
</linearGradient>
<linearGradient id="paint19_linear_2_5636" x1="19.0069" y1="19.684" x2="21.2401" y2="22.78" gradientUnits="userSpaceOnUse">
<stop stop-color="#BADA00"/>
<stop offset="0.2269" stop-color="#B0CE00"/>
<stop offset="0.6378" stop-color="#95AE00"/>
<stop offset="1" stop-color="#798C00"/>
</linearGradient>
<linearGradient id="paint20_linear_2_5636" x1="17.1182" y1="21.4523" x2="18.8812" y2="23.8964" gradientUnits="userSpaceOnUse">
<stop stop-color="#BADA00"/>
<stop offset="0.2269" stop-color="#B0CE00"/>
<stop offset="0.6378" stop-color="#95AE00"/>
<stop offset="1" stop-color="#798C00"/>
</linearGradient>
<linearGradient id="paint21_linear_2_5636" x1="19.8424" y1="23.0843" x2="20.9053" y2="24.5579" gradientUnits="userSpaceOnUse">
<stop stop-color="#BADA00"/>
<stop offset="0.2269" stop-color="#B0CE00"/>
<stop offset="0.6378" stop-color="#95AE00"/>
<stop offset="1" stop-color="#798C00"/>
</linearGradient>
<linearGradient id="paint22_linear_2_5636" x1="23.2111" y1="21.7169" x2="25.4444" y2="24.8132" gradientUnits="userSpaceOnUse">
<stop stop-color="#BADA00"/>
<stop offset="0.2269" stop-color="#B0CE00"/>
<stop offset="0.6378" stop-color="#95AE00"/>
<stop offset="1" stop-color="#798C00"/>
</linearGradient>
<linearGradient id="paint23_linear_2_5636" x1="24.4991" y1="19.6245" x2="26.2623" y2="22.0688" gradientUnits="userSpaceOnUse">
<stop stop-color="#BADA00"/>
<stop offset="0.2269" stop-color="#B0CE00"/>
<stop offset="0.6378" stop-color="#95AE00"/>
<stop offset="1" stop-color="#798C00"/>
</linearGradient>
<linearGradient id="paint24_linear_2_5636" x1="21.899" y1="19.8626" x2="22.962" y2="21.3362" gradientUnits="userSpaceOnUse">
<stop stop-color="#BADA00"/>
<stop offset="0.2269" stop-color="#B0CE00"/>
<stop offset="0.6378" stop-color="#95AE00"/>
<stop offset="1" stop-color="#798C00"/>
</linearGradient>
<linearGradient id="paint25_linear_2_5636" x1="21.0758" y1="23.2254" x2="22.7262" y2="25.5135" gradientUnits="userSpaceOnUse">
<stop stop-color="#BADA00"/>
<stop offset="0.2269" stop-color="#B0CE00"/>
<stop offset="0.6378" stop-color="#95AE00"/>
<stop offset="1" stop-color="#798C00"/>
</linearGradient>
<linearGradient id="paint26_linear_2_5636" x1="21.5763" y1="21.5234" x2="22.8792" y2="23.3298" gradientUnits="userSpaceOnUse">
<stop stop-color="#BADA00"/>
<stop offset="0.2269" stop-color="#B0CE00"/>
<stop offset="0.6378" stop-color="#95AE00"/>
<stop offset="1" stop-color="#798C00"/>
</linearGradient>
<linearGradient id="paint27_linear_2_5636" x1="19.7073" y1="22.2215" x2="20.4929" y2="23.3105" gradientUnits="userSpaceOnUse">
<stop stop-color="#BADA00"/>
<stop offset="0.2269" stop-color="#B0CE00"/>
<stop offset="0.6378" stop-color="#95AE00"/>
<stop offset="1" stop-color="#798C00"/>
</linearGradient>
<linearGradient id="paint28_linear_2_5636" x1="27.8641" y1="19.4247" x2="30.0972" y2="22.5207" gradientUnits="userSpaceOnUse">
<stop stop-color="#BADA00"/>
<stop offset="0.2269" stop-color="#B0CE00"/>
<stop offset="0.6378" stop-color="#95AE00"/>
<stop offset="1" stop-color="#798C00"/>
</linearGradient>
<linearGradient id="paint29_linear_2_5636" x1="25.9758" y1="21.193" x2="27.7388" y2="23.6371" gradientUnits="userSpaceOnUse">
<stop stop-color="#BADA00"/>
<stop offset="0.2269" stop-color="#B0CE00"/>
<stop offset="0.6378" stop-color="#95AE00"/>
<stop offset="1" stop-color="#798C00"/>
</linearGradient>
<linearGradient id="paint30_linear_2_5636" x1="28.6995" y1="22.8245" x2="29.7624" y2="24.2981" gradientUnits="userSpaceOnUse">
<stop stop-color="#BADA00"/>
<stop offset="0.2269" stop-color="#B0CE00"/>
<stop offset="0.6378" stop-color="#95AE00"/>
<stop offset="1" stop-color="#798C00"/>
</linearGradient>
<linearGradient id="paint31_linear_2_5636" x1="33.2091" y1="20.9816" x2="35.4424" y2="24.0779" gradientUnits="userSpaceOnUse">
<stop stop-color="#BADA00"/>
<stop offset="0.2269" stop-color="#B0CE00"/>
<stop offset="0.6378" stop-color="#95AE00"/>
<stop offset="1" stop-color="#798C00"/>
</linearGradient>
<linearGradient id="paint32_linear_2_5636" x1="32.405" y1="19.4043" x2="34.1681" y2="21.8485" gradientUnits="userSpaceOnUse">
<stop stop-color="#BADA00"/>
<stop offset="0.2269" stop-color="#B0CE00"/>
<stop offset="0.6378" stop-color="#95AE00"/>
<stop offset="1" stop-color="#798C00"/>
</linearGradient>
<linearGradient id="paint33_linear_2_5636" x1="30.7561" y1="19.6028" x2="31.8191" y2="21.0765" gradientUnits="userSpaceOnUse">
<stop stop-color="#BADA00"/>
<stop offset="0.2269" stop-color="#B0CE00"/>
<stop offset="0.6378" stop-color="#95AE00"/>
<stop offset="1" stop-color="#798C00"/>
</linearGradient>
<linearGradient id="paint34_linear_2_5636" x1="29.9332" y1="22.9656" x2="31.5836" y2="25.2537" gradientUnits="userSpaceOnUse">
<stop stop-color="#BADA00"/>
<stop offset="0.2269" stop-color="#B0CE00"/>
<stop offset="0.6378" stop-color="#95AE00"/>
<stop offset="1" stop-color="#798C00"/>
</linearGradient>
<linearGradient id="paint35_linear_2_5636" x1="30.4351" y1="21.2637" x2="31.738" y2="23.0699" gradientUnits="userSpaceOnUse">
<stop stop-color="#BADA00"/>
<stop offset="0.2269" stop-color="#B0CE00"/>
<stop offset="0.6378" stop-color="#95AE00"/>
<stop offset="1" stop-color="#798C00"/>
</linearGradient>
<linearGradient id="paint36_linear_2_5636" x1="28.566" y1="21.9624" x2="29.3515" y2="23.0513" gradientUnits="userSpaceOnUse">
<stop stop-color="#BADA00"/>
<stop offset="0.2269" stop-color="#B0CE00"/>
<stop offset="0.6378" stop-color="#95AE00"/>
<stop offset="1" stop-color="#798C00"/>
</linearGradient>
<linearGradient id="paint37_linear_2_5636" x1="27.6714" y1="18.3639" x2="25.6536" y2="19.8194" gradientUnits="userSpaceOnUse">
<stop stop-color="#FF6359"/>
<stop offset="0.2243" stop-color="#FE5B50"/>
<stop offset="0.5952" stop-color="#FC4637"/>
<stop offset="1" stop-color="#F82814"/>
</linearGradient>
<linearGradient id="paint38_linear_2_5636" x1="24.2845" y1="19.0182" x2="23.3241" y2="19.711" gradientUnits="userSpaceOnUse">
<stop stop-color="#FF6359"/>
<stop offset="0.2243" stop-color="#FE5B50"/>
<stop offset="0.5952" stop-color="#FC4637"/>
<stop offset="1" stop-color="#F82814"/>
</linearGradient>
<linearGradient id="paint39_linear_2_5636" x1="27.3218" y1="20.2173" x2="26.3613" y2="20.9101" gradientUnits="userSpaceOnUse">
<stop stop-color="#FF6359"/>
<stop offset="0.2243" stop-color="#FE5B50"/>
<stop offset="0.5952" stop-color="#FC4637"/>
<stop offset="1" stop-color="#F82814"/>
</linearGradient>
<linearGradient id="paint40_linear_2_5636" x1="30.4263" y1="18.9639" x2="29.4658" y2="19.6567" gradientUnits="userSpaceOnUse">
<stop stop-color="#FF6359"/>
<stop offset="0.2243" stop-color="#FE5B50"/>
<stop offset="0.5952" stop-color="#FC4637"/>
<stop offset="1" stop-color="#F82814"/>
</linearGradient>
<linearGradient id="paint41_linear_2_5636" x1="24.1924" y1="19.8218" x2="22.7012" y2="20.8975" gradientUnits="userSpaceOnUse">
<stop stop-color="#FF6359"/>
<stop offset="0.2243" stop-color="#FE5B50"/>
<stop offset="0.5952" stop-color="#FC4637"/>
<stop offset="1" stop-color="#F82814"/>
</linearGradient>
<linearGradient id="paint42_linear_2_5636" x1="25.978" y1="18.7778" x2="24.8007" y2="19.6269" gradientUnits="userSpaceOnUse">
<stop stop-color="#FF6359"/>
<stop offset="0.2243" stop-color="#FE5B50"/>
<stop offset="0.5952" stop-color="#FC4637"/>
<stop offset="1" stop-color="#F82814"/>
</linearGradient>
<linearGradient id="paint43_linear_2_5636" x1="28.9127" y1="18.7778" x2="27.7355" y2="19.6269" gradientUnits="userSpaceOnUse">
<stop stop-color="#FF6359"/>
<stop offset="0.2243" stop-color="#FE5B50"/>
<stop offset="0.5952" stop-color="#FC4637"/>
<stop offset="1" stop-color="#F82814"/>
</linearGradient>
<linearGradient id="paint44_linear_2_5636" x1="26.3871" y1="19.6088" x2="25.6773" y2="20.1207" gradientUnits="userSpaceOnUse">
<stop stop-color="#FF6359"/>
<stop offset="0.2243" stop-color="#FE5B50"/>
<stop offset="0.5952" stop-color="#FC4637"/>
<stop offset="1" stop-color="#F82814"/>
</linearGradient>
<linearGradient id="paint45_linear_2_5636" x1="30.7126" y1="32.4796" x2="20.6656" y2="26.4404" gradientUnits="userSpaceOnUse">
<stop stop-color="#F82814" stop-opacity="0"/>
<stop offset="1" stop-color="#C0272D"/>
</linearGradient>
<linearGradient id="paint46_linear_2_5636" x1="22.8522" y1="26.9895" x2="25.9577" y2="30.3233" gradientUnits="userSpaceOnUse">
<stop stop-color="#F8F6FB"/>
<stop offset="1" stop-color="#EFDCFB"/>
</linearGradient>
<linearGradient id="paint47_linear_2_5636" x1="22.5493" y1="28.787" x2="26.5051" y2="28.787" gradientUnits="userSpaceOnUse">
<stop stop-color="#FAA68E"/>
<stop offset="0.3566" stop-color="#FB9D92"/>
<stop offset="0.9447" stop-color="#FF849B"/>
<stop offset="1" stop-color="#FF819C"/>
</linearGradient>
<linearGradient id="paint48_linear_2_5636" x1="34.745" y1="28.3129" x2="26.0156" y2="16.7286" gradientUnits="userSpaceOnUse">
<stop stop-color="#F82814" stop-opacity="0"/>
<stop offset="1" stop-color="#C0272D"/>
</linearGradient>
<linearGradient id="paint49_linear_2_5636" x1="28.4206" y1="21.6983" x2="31.2691" y2="24.7564" gradientUnits="userSpaceOnUse">
<stop stop-color="#F8F6FB"/>
<stop offset="1" stop-color="#EFDCFB"/>
</linearGradient>
<linearGradient id="paint50_linear_2_5636" x1="28.9944" y1="21.976" x2="31.2082" y2="24.8373" gradientUnits="userSpaceOnUse">
<stop stop-color="#FAA68E"/>
<stop offset="0.3566" stop-color="#FB9D92"/>
<stop offset="0.9447" stop-color="#FF849B"/>
<stop offset="1" stop-color="#FF819C"/>
</linearGradient>
<linearGradient id="paint51_linear_2_5636" x1="20.6831" y1="29.1412" x2="13.4181" y2="19.5003" gradientUnits="userSpaceOnUse">
<stop stop-color="#F82814" stop-opacity="0"/>
<stop offset="1" stop-color="#C0272D"/>
</linearGradient>
<linearGradient id="paint52_linear_2_5636" x1="15.3481" y1="23.7574" x2="18.1966" y2="26.8155" gradientUnits="userSpaceOnUse">
<stop stop-color="#F8F6FB"/>
<stop offset="1" stop-color="#EFDCFB"/>
</linearGradient>
<linearGradient id="paint53_linear_2_5636" x1="15.9195" y1="24.0294" x2="18.1333" y2="26.8906" gradientUnits="userSpaceOnUse">
<stop stop-color="#FAA68E"/>
<stop offset="0.3566" stop-color="#FB9D92"/>
<stop offset="0.9447" stop-color="#FF849B"/>
<stop offset="1" stop-color="#FF819C"/>
</linearGradient>
<linearGradient id="paint54_linear_2_5636" x1="36.339" y1="16.9907" x2="45.4528" y2="21.3279" gradientUnits="userSpaceOnUse">
<stop stop-color="#E87264" stop-opacity="0"/>
<stop offset="1" stop-color="#F8DFBE"/>
</linearGradient>
<linearGradient id="paint55_linear_2_5636" x1="25.5728" y1="9.36312" x2="32.4237" y2="10.975" gradientUnits="userSpaceOnUse">
<stop stop-color="#E87264" stop-opacity="0"/>
<stop offset="0.1575" stop-color="#E97869" stop-opacity="0.158"/>
<stop offset="0.3778" stop-color="#EC8B78" stop-opacity="0.378"/>
<stop offset="0.6353" stop-color="#F0A991" stop-opacity="0.635"/>
<stop offset="0.9188" stop-color="#F6D2B3" stop-opacity="0.919"/>
<stop offset="1" stop-color="#F8DFBE"/>
</linearGradient>
<linearGradient id="paint56_linear_2_5636" x1="18.0616" y1="16.8073" x2="23.0394" y2="18.7471" gradientUnits="userSpaceOnUse">
<stop stop-color="#E87264" stop-opacity="0"/>
<stop offset="1" stop-color="#F8DFBE"/>
</linearGradient>
<linearGradient id="paint57_linear_2_5636" x1="46.2632" y1="30.7928" x2="44.1769" y2="26.5653" gradientUnits="userSpaceOnUse">
<stop stop-color="#EFDCFB" stop-opacity="0"/>
<stop offset="0.0287" stop-color="#E9D6F7" stop-opacity="0.029"/>
<stop offset="0.2203" stop-color="#C5B5DE" stop-opacity="0.22"/>
<stop offset="0.4138" stop-color="#AA9BCB" stop-opacity="0.414"/>
<stop offset="0.6078" stop-color="#9688BD" stop-opacity="0.608"/>
<stop offset="0.8028" stop-color="#8A7DB5" stop-opacity="0.803"/>
<stop offset="1" stop-color="#8679B2"/>
</linearGradient>
<linearGradient id="paint58_linear_2_5636" x1="41.4285" y1="27.0992" x2="42.0873" y2="28.1607" gradientUnits="userSpaceOnUse">
<stop stop-color="#FF6359"/>
<stop offset="0.2243" stop-color="#FE5B50"/>
<stop offset="0.5952" stop-color="#FC4637"/>
<stop offset="1" stop-color="#F82814"/>
</linearGradient>
<linearGradient id="paint59_linear_2_5636" x1="42.705" y1="27.2923" x2="43.803" y2="29.0491" gradientUnits="userSpaceOnUse">
<stop stop-color="#FF6359"/>
<stop offset="0.2243" stop-color="#FE5B50"/>
<stop offset="0.5952" stop-color="#FC4637"/>
<stop offset="1" stop-color="#F82814"/>
</linearGradient>
<clipPath id="clip0_2_5636">
<rect width="56" height="56" fill="white"/>
</clipPath>
</defs>
</svg>
