<svg width="56" height="56" viewBox="0 0 56 56" fill="none" xmlns="http://www.w3.org/2000/svg">
<g clip-path="url(#clip0_2_5706)">
<path d="M27.9998 42.0107C23.377 42.0107 19.1345 41.3261 15.8115 40.1851C16.2896 42.076 17.1878 43.5061 18.2953 43.9637C20.7949 44.9968 24.2204 45.6338 27.9998 45.6338C31.7791 45.6338 35.2047 44.9968 37.7042 43.9637C38.8117 43.5061 39.7099 42.076 40.188 40.1851C36.865 41.3261 32.6225 42.0107 27.9998 42.0107Z" fill="url(#paint0_linear_2_5706)"/>
<path d="M56 24.1503C56 16.3679 0 16.3679 0 24.1503C0 31.9328 6.58022 43.3449 28 43.3449C49.4198 43.3449 56 31.9329 56 24.1503Z" fill="url(#paint1_linear_2_5706)"/>
<path d="M56 24.1503C56 31.9328 0 31.9328 0 24.1503C0 16.3679 56 16.3679 56 24.1503Z" fill="url(#paint2_linear_2_5706)"/>
<path d="M48.2041 18.5109C48.2041 26.8253 9.29126 26.8253 9.29126 18.5109C9.29126 17.0773 10.4487 15.8912 12.3636 14.952C13.0592 14.6108 13.7008 14.0571 14.2372 13.3062L14.2947 13.2257C15.461 11.5929 17.1497 11.1347 18.6192 12.0522L18.6203 12.0529C19.8757 12.8367 21.307 12.6259 22.4384 11.4905L22.546 11.3825C23.7937 10.1305 25.3982 10.0279 26.7114 11.1158L26.8118 11.1989C28.018 12.1981 29.4784 12.1983 30.6847 11.1993L30.7857 11.1157C32.0992 10.028 33.7036 10.1311 34.9513 11.3833L35.0819 11.5143C36.2071 12.6435 37.6319 12.8456 38.8765 12.0527C40.3352 11.1234 42.0192 11.571 43.1804 13.1968L43.2584 13.3062C43.7948 14.0571 44.4364 14.611 45.1319 14.952C47.0468 15.8912 48.2041 17.0774 48.2041 18.5109V18.5109Z" fill="url(#paint3_linear_2_5706)"/>
<path d="M42.1114 15.5815C40.9903 15.5815 40.0815 16.4903 40.0815 17.6114C40.0815 18.7325 40.9903 19.6412 42.1114 19.6412C43.2324 19.6412 44.1412 18.7325 44.1412 17.6114C44.1412 16.4903 43.2324 15.5815 42.1114 15.5815ZM42.1114 18.473C41.6355 18.473 41.2497 18.0873 41.2497 17.6114C41.2497 17.1355 41.6355 16.7497 42.1114 16.7497C42.5873 16.7497 42.973 17.1355 42.973 17.6114C42.973 18.0873 42.5872 18.473 42.1114 18.473Z" fill="url(#paint4_linear_2_5706)"/>
<path d="M26.4842 11.6851C25.3631 11.6851 24.4543 12.5938 24.4543 13.7149C24.4543 14.836 25.3631 15.7447 26.4842 15.7447C27.6051 15.7447 28.514 14.836 28.514 13.7149C28.514 12.5938 27.6053 11.6851 26.4842 11.6851V11.6851ZM26.4842 14.5764C26.0083 14.5764 25.6225 14.1907 25.6225 13.7148C25.6225 13.2389 26.0083 12.8532 26.4842 12.8532C26.9601 12.8532 27.3458 13.2389 27.3458 13.7148C27.3458 14.1907 26.9601 14.5764 26.4842 14.5764Z" fill="url(#paint5_linear_2_5706)"/>
<path d="M38.3176 22.9994C40.4125 22.9994 42.1108 21.3012 42.1108 19.2063C42.1108 17.1113 40.4125 15.4131 38.3176 15.4131C36.2227 15.4131 34.5244 17.1113 34.5244 19.2063C34.5244 21.3012 36.2227 22.9994 38.3176 22.9994Z" fill="url(#paint6_linear_2_5706)"/>
<path d="M37.2506 24.1839L25.5839 12.511C24.8537 11.7808 23.9857 11.4928 23.0739 11.167C22.8883 11.2966 22.7196 11.2085 22.5461 11.3826L22.4385 11.4907C21.307 12.6261 19.8757 12.8369 18.6204 12.053L18.6193 12.0523C18.1552 11.7626 17.779 11.7789 17.2945 11.7573C16.8867 12.0172 16.5193 12.262 16.1632 12.6181C13.5262 15.2551 13.3969 19.4238 16.034 22.061L17.7282 23.7551C23.4482 24.9139 31.063 25.057 37.2506 24.1839V24.1839Z" fill="url(#paint7_linear_2_5706)"/>
<path d="M53.6878 24.1501C53.6878 29.8855 2.31226 29.8855 2.31226 24.1501C2.31226 18.4147 53.6878 18.4149 53.6878 24.1501Z" fill="url(#paint8_linear_2_5706)"/>
<path d="M0.701904 28.6597C1.06107 29.8206 1.56727 30.9975 2.24081 32.1542C11.8729 36.3576 44.1271 36.3576 53.7592 32.1542C54.4328 30.9975 54.9389 29.8206 55.2981 28.6597C47.8649 33.9892 8.1353 33.9892 0.701904 28.6597V28.6597Z" fill="url(#paint9_linear_2_5706)"/>
<path d="M53.6598 23.9268C53.606 24.3068 53.4666 24.6757 53.2514 25.0326C52.4209 25.8391 50.4513 26.503 47.7453 27.0241C46.2694 27.3084 44.5743 27.0011 42.7258 27.2004C41.0495 27.3812 39.247 28.076 37.3669 28.1869C34.4808 28.3571 31.412 28.4452 28.3369 28.4508C25.6137 28.4574 19.7392 27.3879 19.6843 26.8696C19.5427 25.5355 20.4376 24.3243 22.0176 23.2735C22.1922 23.1582 22.3613 23.0243 22.5216 22.8727C22.8895 22.5269 23.2189 22.0898 23.4934 21.5694L23.5351 21.4892C23.9601 20.6843 24.5245 20.1353 25.1536 19.8718C25.695 19.6456 26.2835 19.6324 26.8721 19.852C26.9808 19.8927 27.0895 19.941 27.1971 19.9981L27.1982 19.9992C28.0667 20.4538 28.9671 20.3912 29.7314 19.8575C29.9993 19.6709 30.2507 19.4249 30.478 19.124L30.5615 19.0131C31.5289 17.7328 32.9201 17.4891 34.174 18.3807L34.2696 18.4487C35.4214 19.2679 36.6973 19.1339 37.6526 18.093L37.7328 18.0051C38.7726 16.872 40.1847 16.8204 41.3969 17.8712L41.5243 17.981C42.618 18.9286 43.8818 18.9857 44.892 18.1325C45.3696 17.7295 45.9011 17.5308 46.4424 17.5308C47.2418 17.5308 48.0631 17.9623 48.7637 18.8012L48.8416 18.8956C49.3841 19.5446 49.999 20.0014 50.6402 20.255C52.4048 20.9523 53.5325 21.9504 53.673 23.2845C53.6961 23.5019 53.6917 23.7171 53.6598 23.9268V23.9268Z" fill="url(#paint10_linear_2_5706)"/>
<path d="M25.5834 12.511C22.9463 9.87394 18.6707 9.87394 16.0335 12.511C13.3963 15.148 13.3964 19.4237 16.0335 22.0609C18.6706 24.6979 22.9462 24.6979 25.5834 22.0609C28.2205 19.4238 28.2205 15.1482 25.5834 12.511V12.511ZM17.7763 20.3182C16.1019 18.6438 16.1019 15.9282 17.7763 14.2538C19.4507 12.5794 22.1656 12.5801 23.84 14.2545C25.5144 15.9289 25.5151 18.6438 23.8407 20.3182C22.1663 21.9926 19.4507 21.9926 17.7763 20.3182V20.3182Z" fill="url(#paint11_linear_2_5706)"/>
<path d="M16.8369 21.2577C19.0302 23.451 22.5873 23.451 24.7806 21.2577C26.9746 19.0637 26.974 15.5073 24.7806 13.314C22.5867 11.12 19.0309 11.12 16.8369 13.314C14.6436 15.5072 14.6429 19.0637 16.8369 21.2577ZM23.8409 14.2535C25.5153 15.9279 25.5153 18.6435 23.8409 20.3179C22.1665 21.9923 19.4517 21.9916 17.7773 20.3172C16.1029 18.6428 16.1022 15.9279 17.7766 14.2535C19.451 12.5791 22.1665 12.5791 23.8409 14.2535Z" fill="url(#paint12_linear_2_5706)"/>
<path d="M51.3837 15.6762C49.2744 13.5669 45.8544 13.5669 43.7451 15.6762C41.6358 17.7856 41.6358 21.2055 43.7451 23.3148C45.8544 25.4242 49.2744 25.4242 51.3837 23.3148C53.4931 21.2055 53.4931 17.7856 51.3837 15.6762V15.6762ZM45.1391 21.9209C43.7998 20.5816 43.7998 18.4095 45.1391 17.0702C46.4783 15.7309 48.6499 15.7315 49.9892 17.0707C51.3285 18.41 51.329 20.5816 49.9898 21.9209C48.6505 23.2602 46.4783 23.2602 45.1391 21.9209Z" fill="url(#paint13_linear_2_5706)"/>
<path d="M44.3877 22.6725C46.1421 24.4268 48.9873 24.4268 50.7416 22.6725C52.4965 20.9176 52.496 18.0729 50.7416 16.3186C48.9868 14.5637 46.1426 14.5637 44.3877 16.3186C42.6334 18.0729 42.6329 20.9176 44.3877 22.6725V22.6725ZM49.99 17.0702C51.3293 18.4095 51.3293 20.5816 49.99 21.9209C48.6508 23.2602 46.4792 23.2596 45.1399 21.9204C43.8006 20.5811 43.8001 18.4095 45.1393 17.0702C46.4786 15.7309 48.6508 15.7309 49.99 17.0702Z" fill="url(#paint14_linear_2_5706)"/>
<path d="M32.1804 13.7146C32.4705 13.7052 32.6982 13.4626 32.6889 13.1724C32.6796 12.8823 32.4369 12.6545 32.1467 12.6639C31.8566 12.6732 31.6289 12.9159 31.6382 13.2061C31.6475 13.4962 31.8903 13.7239 32.1804 13.7146Z" fill="url(#paint15_linear_2_5706)"/>
<path d="M29.7397 14.6987C29.7353 14.5606 29.6198 14.4522 29.4817 14.4567C29.3435 14.4611 29.2352 14.5766 29.2396 14.7147C29.244 14.8528 29.3597 14.9611 29.4977 14.9567C29.6358 14.9522 29.7442 14.8367 29.7397 14.6987Z" fill="url(#paint16_linear_2_5706)"/>
<path d="M32.9759 14.5662C32.9107 14.4444 32.759 14.3985 32.6373 14.4638C32.5155 14.529 32.4696 14.6806 32.5348 14.8024C32.6 14.9242 32.7517 14.9701 32.8735 14.9048C32.9952 14.8397 33.0411 14.6881 32.9759 14.5662Z" fill="url(#paint17_linear_2_5706)"/>
<path d="M34.9962 13.5965C34.9309 13.4747 34.7793 13.4288 34.6575 13.494C34.5357 13.5593 34.4898 13.7109 34.5551 13.8327C34.6203 13.9544 34.7719 14.0003 34.8937 13.9351C35.0155 13.8699 35.0614 13.7182 34.9962 13.5965Z" fill="url(#paint18_linear_2_5706)"/>
<path d="M29.8786 15.4018C29.7333 15.2439 29.4877 15.2337 29.3298 15.379C29.1719 15.5242 29.1617 15.7699 29.307 15.9278C29.4522 16.0857 29.6979 16.0959 29.8558 15.9506C30.0137 15.8053 30.0239 15.5596 29.8786 15.4018Z" fill="url(#paint19_linear_2_5706)"/>
<path d="M31.1505 13.7167C31.0359 13.5921 30.8418 13.584 30.7172 13.6987C30.5926 13.8133 30.5844 14.0074 30.6992 14.132C30.8138 14.2566 31.0079 14.2647 31.1325 14.15C31.257 14.0354 31.2652 13.8413 31.1505 13.7167V13.7167Z" fill="url(#paint20_linear_2_5706)"/>
<path d="M33.8734 12.62C33.7588 12.4954 33.5647 12.4873 33.4401 12.602C33.3155 12.7167 33.3073 12.9107 33.4221 13.0353C33.5367 13.1599 33.7308 13.1681 33.8554 13.0533C33.9799 12.9387 33.9881 12.7447 33.8734 12.62Z" fill="url(#paint21_linear_2_5706)"/>
<path d="M31.5791 14.5103C31.6482 14.5854 31.7653 14.5903 31.8404 14.5211C31.9155 14.4519 31.9204 14.335 31.8512 14.2599C31.7821 14.1848 31.6651 14.1799 31.59 14.249C31.5148 14.3182 31.51 14.4351 31.5791 14.5103Z" fill="url(#paint22_linear_2_5706)"/>
<path d="M33.4865 15.0881C31.2342 12.8359 27.5824 12.8359 25.3301 15.0881C23.0778 17.3404 23.0778 20.9923 25.3301 23.2446C27.5824 25.4969 31.2342 25.4969 33.4865 23.2446C35.7388 20.9923 35.7388 17.3404 33.4865 15.0881V15.0881ZM26.8185 21.7561C25.3884 20.326 25.3884 18.0066 26.8185 16.5765C28.2486 15.1465 30.5674 15.147 31.9975 16.5771C33.4276 18.0072 33.4281 20.326 31.998 21.7561C30.568 23.1862 28.2486 23.1862 26.8185 21.7561V21.7561Z" fill="url(#paint23_linear_2_5706)"/>
<path d="M26.0163 22.5588C27.8895 24.432 30.9277 24.432 32.801 22.5588C34.6748 20.685 34.6742 17.6473 32.801 15.7741C30.927 13.9002 27.8901 13.9002 26.0163 15.7741C24.143 17.6473 24.1424 20.685 26.0163 22.5588V22.5588ZM31.9984 16.5766C33.4285 18.0067 33.4285 20.3261 31.9984 21.7562C30.5683 23.1863 28.2495 23.1857 26.8194 21.7557C25.3893 20.3256 25.3887 18.0067 26.8188 16.5766C28.2489 15.1466 30.5683 15.1466 31.9984 16.5766Z" fill="url(#paint24_linear_2_5706)"/>
<path d="M23.3051 23.3876C22.3071 26.9809 9.29449 23.3667 10.2926 19.7734C11.2907 16.18 15.0126 14.0762 18.606 15.0742C22.1993 16.0722 24.3033 19.7942 23.3051 23.3876V23.3876Z" fill="url(#paint25_linear_2_5706)"/>
<path d="M46.9356 14.1716C44.2986 11.5346 40.0229 11.5346 37.3858 14.1716C34.7486 16.8087 34.7487 21.0843 37.3858 23.7215C40.0228 26.3586 44.2985 26.3586 46.9356 23.7215C49.5728 21.0845 49.5728 16.8087 46.9356 14.1716ZM39.1286 21.9787C37.4542 20.3043 37.4542 17.5887 39.1286 15.9143C40.803 14.2399 43.5179 14.2406 45.1923 15.915C46.8667 17.5894 46.8673 20.3043 45.1929 21.9787C43.5186 23.6531 40.803 23.6531 39.1286 21.9787V21.9787Z" fill="url(#paint26_linear_2_5706)"/>
<path d="M38.1892 22.9184C40.3825 25.1117 43.9396 25.1117 46.133 22.9184C48.327 20.7244 48.3263 17.1679 46.133 14.9746C43.939 12.7806 40.3832 12.7806 38.1892 14.9746C35.9959 17.1679 35.9952 20.7244 38.1892 22.9184V22.9184ZM45.1933 15.9143C46.8677 17.5887 46.8677 20.3043 45.1933 21.9787C43.5189 23.6531 40.804 23.6524 39.1296 21.978C37.4552 20.3036 37.4545 17.5887 39.1289 15.9143C40.8033 14.2399 43.5189 14.2399 45.1933 15.9143V15.9143Z" fill="url(#paint27_linear_2_5706)"/>
<path d="M13.2296 15.8595C10.9787 13.6087 7.32917 13.6087 5.07829 15.8595C2.82742 18.1104 2.82742 21.76 5.07829 24.0108C7.32917 26.2617 10.9787 26.2617 13.2296 24.0108C15.4805 21.76 15.4805 18.1104 13.2296 15.8595ZM6.56581 22.5233C5.1366 21.0941 5.1366 18.7763 6.56581 17.3471C7.99502 15.9178 10.3123 15.9184 11.7415 17.3476C13.1707 18.7768 13.1713 21.0941 11.7421 22.5233C10.3129 23.9525 7.99491 23.9525 6.56581 22.5233V22.5233Z" fill="url(#paint28_linear_2_5706)"/>
<path d="M5.7639 23.3255C7.63595 25.1976 10.6722 25.1976 12.5443 23.3255C14.417 21.4528 14.4163 18.4172 12.5443 16.5452C10.6716 14.6724 7.6365 14.6724 5.7639 16.5452C3.89185 18.4172 3.8912 21.4528 5.7639 23.3255V23.3255ZM11.7423 17.3472C13.1715 18.7764 13.1715 21.0942 11.7423 22.5234C10.3131 23.9526 7.99578 23.9521 6.56657 22.5229C5.13736 21.0937 5.13681 18.7764 6.56602 17.3472C7.99523 15.918 10.3131 15.918 11.7423 17.3472Z" fill="url(#paint29_linear_2_5706)"/>
<path d="M53.6598 23.9268C53.606 24.3068 53.4666 24.6757 53.2514 25.0326C52.42 25.84 50.4469 26.5044 47.7362 27.0257C46.1746 27.3262 44.3681 26.9202 42.3943 27.1257C40.812 27.2904 39.122 28.0834 37.3644 28.187C34.4791 28.3572 31.4111 28.4451 28.3369 28.4508C25.6137 28.4574 19.7392 27.3879 19.6843 26.8696C19.5427 25.5355 20.4376 24.3243 22.0176 23.2735C22.1922 23.1582 22.3613 23.0243 22.5216 22.8727C22.8895 22.5269 23.2189 22.0898 23.4934 21.5694L23.5351 21.4892C23.9601 20.6843 24.5245 20.1353 25.1536 19.8718C25.695 19.6456 26.2835 19.6324 26.8721 19.852C26.9808 19.8927 27.0895 19.941 27.1971 19.9981L27.1982 19.9992C28.0667 20.4538 28.9671 20.3912 29.7314 19.8575C29.9993 19.6709 30.2507 19.4249 30.478 19.124L30.5615 19.0131C31.5289 17.7328 32.9201 17.4891 34.174 18.3807L34.2696 18.4487C35.4214 19.2679 36.6973 19.1339 37.6526 18.093L37.7328 18.0051C38.7726 16.872 40.1847 16.8204 41.3969 17.8712L41.5243 17.981C42.618 18.9286 43.8818 18.9857 44.892 18.1325C45.3696 17.7295 45.9011 17.5308 46.4424 17.5308C47.2418 17.5308 48.0631 17.9623 48.7637 18.8012L48.8416 18.8956C49.3841 19.5446 49.999 20.0014 50.6402 20.255C52.4048 20.9523 53.5325 21.9504 53.673 23.2845C53.6961 23.5019 53.6917 23.7171 53.6598 23.9268V23.9268Z" fill="url(#paint30_linear_2_5706)"/>
<path d="M28.0847 28.3241C28.1295 28.3804 28.1412 28.3951 28.186 28.4514C31.3059 28.4484 34.4222 28.3607 37.3508 28.1883C39.1835 28.0803 40.9428 27.5001 42.5834 27.3259C44.4837 27.1241 46.2249 27.317 47.7367 27.0261C50.447 26.5048 52.4199 25.8403 53.2512 25.0331C53.4664 24.6762 53.6058 24.3073 53.6596 23.9273C53.6915 23.7176 53.6959 23.5024 53.6728 23.285C53.6676 23.2355 53.6611 23.1865 53.653 23.138C53.4714 22.0251 52.5169 21.2299 51.3974 21.095C50.8743 21.0319 50.3469 20.7864 49.8541 20.3594L49.7268 20.2496C48.5145 19.1988 47.1025 19.2504 46.0626 20.3835L45.9825 20.4714C45.0272 21.5123 43.7512 21.6463 42.5994 20.8272L42.5039 20.7591C41.2499 19.8675 39.8587 20.1112 38.8913 21.3915L38.8079 21.5024C38.5806 21.8033 38.3291 22.0493 38.0612 22.2359C37.2969 22.7696 36.3966 22.8322 35.528 22.3776L35.5269 22.3765C35.4193 22.3194 35.3106 22.2711 35.2019 22.2304C34.6133 22.0108 34.0248 22.024 33.4835 22.2502C32.8543 22.5137 32.2899 23.0628 31.8649 23.8676L31.8232 23.9478C31.5487 24.4682 31.2193 24.9053 30.8514 25.2511C30.6911 25.4027 30.522 25.5366 30.3474 25.6519C29.1406 26.4545 28.3353 27.3509 28.0847 28.3241V28.3241Z" fill="url(#paint31_linear_2_5706)"/>
<path d="M43.5977 27.5043C41.6429 27.7391 39.6809 27.8994 37.3557 28.1869C34.473 28.3566 31.4082 28.4444 28.3369 28.4505C25.6137 28.4571 19.7392 27.3876 19.6843 26.8693C19.5427 25.5352 20.4376 24.3241 22.0176 23.2733C22.1922 23.158 22.3613 23.024 22.5216 22.8725C22.8895 22.5266 23.2189 22.0896 23.4934 21.5691L23.5351 21.4889C23.9601 20.6841 24.5245 20.1351 25.1536 19.8715C25.695 19.6453 26.2835 19.6322 26.8721 19.8518C26.9808 19.8924 27.0895 19.9407 27.1971 19.9978L27.1982 19.9989C28.0667 20.4535 28.9671 20.3909 29.7314 19.8573C29.9993 19.6706 30.2507 19.4246 30.478 19.1238L30.5615 19.0129C31.5289 17.7326 32.9201 17.4888 34.174 18.3804L34.2696 18.4485C34.4716 18.5923 34.6769 18.7065 34.8845 18.7911L43.5977 27.5043Z" fill="url(#paint32_linear_2_5706)"/>
<path d="M35.0533 21.7729C33.9322 21.7729 33.0234 22.6817 33.0234 23.8028C33.0234 24.9239 33.9322 25.8326 35.0533 25.8326C36.1743 25.8326 37.0831 24.9239 37.0831 23.8028C37.0831 22.6817 36.1744 21.7729 35.0533 21.7729ZM35.0533 24.6644C34.5774 24.6644 34.1916 24.2787 34.1916 23.8028C34.1916 23.3269 34.5774 22.9412 35.0533 22.9412C35.5292 22.9412 35.9149 23.3269 35.9149 23.8028C35.9149 24.2787 35.5292 24.6644 35.0533 24.6644Z" fill="url(#paint33_linear_2_5706)"/>
<path d="M45.7581 22.5337C44.637 22.5337 43.7283 23.4424 43.7283 24.5635C43.7283 25.6846 44.637 26.5934 45.7581 26.5934C46.8791 26.5934 47.7879 25.6846 47.7879 24.5635C47.7879 23.4424 46.8791 22.5337 45.7581 22.5337ZM45.7581 25.4252C45.2822 25.4252 44.8965 25.0394 44.8965 24.5635C44.8965 24.0876 45.2822 23.7019 45.7581 23.7019C46.234 23.7019 46.6197 24.0876 46.6197 24.5635C46.6197 25.0394 46.234 25.4252 45.7581 25.4252Z" fill="url(#paint34_linear_2_5706)"/>
<path d="M34.5572 17.0239C34.7413 16.9256 34.8109 16.6967 34.7126 16.5126C34.6144 16.3284 34.3854 16.2588 34.2013 16.3571C34.0171 16.4554 33.9475 16.6843 34.0458 16.8684C34.1441 17.0526 34.373 17.1222 34.5572 17.0239Z" fill="url(#paint35_linear_2_5706)"/>
<path d="M33.4426 16.4573C33.3649 16.3119 33.1842 16.2569 33.0388 16.3345C32.8935 16.4122 32.8384 16.5929 32.9161 16.7383C32.9937 16.8836 33.1744 16.9387 33.3198 16.861C33.4652 16.7834 33.5201 16.6027 33.4426 16.4573Z" fill="url(#paint36_linear_2_5706)"/>
<path d="M32.8452 17.9307C32.7985 17.843 32.6896 17.8099 32.6018 17.8567C32.5141 17.9034 32.4811 18.0124 32.5278 18.1001C32.5746 18.1878 32.6835 18.2209 32.7712 18.1741C32.8589 18.1272 32.892 18.0183 32.8452 17.9307Z" fill="url(#paint37_linear_2_5706)"/>
<path d="M34.7075 19.784C34.5377 19.6625 34.3016 19.7017 34.1802 19.8715C34.0588 20.0412 34.098 20.2773 34.2677 20.3988C34.4375 20.5202 34.6735 20.481 34.795 20.3112C34.9164 20.1415 34.8772 19.9054 34.7075 19.784Z" fill="url(#paint38_linear_2_5706)"/>
<path d="M37.8321 18.6651C37.6981 18.5692 37.5117 18.6001 37.4158 18.7342C37.32 18.8682 37.3508 19.0546 37.4849 19.1504C37.619 19.2463 37.8053 19.2154 37.9012 19.0814C37.9971 18.9473 37.9661 18.761 37.8321 18.6651Z" fill="url(#paint39_linear_2_5706)"/>
<path d="M35.4692 17.2104C35.3883 17.1525 35.276 17.1712 35.2182 17.252C35.1604 17.3328 35.179 17.4452 35.2598 17.503C35.3406 17.5608 35.4529 17.5422 35.5108 17.4614C35.5686 17.3806 35.55 17.2683 35.4692 17.2104Z" fill="url(#paint40_linear_2_5706)"/>
<path d="M34.1111 18.1644C33.9672 18.1087 33.8055 18.1803 33.7498 18.3242C33.6942 18.468 33.7658 18.6297 33.9096 18.6854C34.0534 18.7411 34.2152 18.6695 34.2708 18.5257C34.3265 18.3817 34.2549 18.22 34.1111 18.1644Z" fill="url(#paint41_linear_2_5706)"/>
<path d="M34.8062 17.6921C34.6926 17.6482 34.5649 17.7048 34.521 17.8183C34.4771 17.9318 34.5336 18.0595 34.6472 18.1035C34.7607 18.1474 34.8884 18.0908 34.9323 17.9773C34.9763 17.8637 34.9197 17.7361 34.8062 17.6921Z" fill="url(#paint42_linear_2_5706)"/>
<path d="M33.8221 17.549C33.8906 17.5755 33.9676 17.5414 33.994 17.4729C34.0205 17.4044 33.9865 17.3274 33.918 17.301C33.8494 17.2745 33.7725 17.3085 33.746 17.3771C33.7196 17.4456 33.7537 17.5226 33.8221 17.549Z" fill="url(#paint43_linear_2_5706)"/>
<path d="M40.9922 20.0127C41.1764 19.9144 41.246 19.6855 41.1477 19.5013C41.0494 19.3172 40.8205 19.2476 40.6363 19.3459C40.4522 19.4441 40.3826 19.6731 40.4809 19.8572C40.579 20.0413 40.8081 20.111 40.9922 20.0127Z" fill="url(#paint44_linear_2_5706)"/>
<path d="M37.6582 21.6868C37.5805 21.5414 37.3998 21.4864 37.2544 21.564C37.109 21.6417 37.054 21.8224 37.1317 21.9678C37.2093 22.1131 37.39 22.1682 37.5354 22.0905C37.6808 22.0129 37.7358 21.8322 37.6582 21.6868Z" fill="url(#paint45_linear_2_5706)"/>
<path d="M38.1841 20.0615C38.1373 19.9739 38.0284 19.9407 37.9407 19.9875C37.8531 20.0343 37.8199 20.1432 37.8667 20.231C37.9135 20.3186 38.0224 20.3517 38.1101 20.305C38.1977 20.2582 38.2309 20.1493 38.1841 20.0615Z" fill="url(#paint46_linear_2_5706)"/>
<path d="M42.415 21.5862C42.2452 21.4648 42.0091 21.504 41.8877 21.6737C41.7663 21.8435 41.8055 22.0796 41.9752 22.201C42.145 22.3225 42.381 22.2833 42.5025 22.1135C42.6239 21.9437 42.5848 21.7076 42.415 21.5862Z" fill="url(#paint47_linear_2_5706)"/>
<path d="M42.6617 21.1444C42.7575 21.0103 42.7267 20.824 42.5926 20.7281C42.4585 20.6322 42.2722 20.6631 42.1763 20.7972C42.0805 20.9312 42.1113 21.1176 42.2454 21.2134C42.3794 21.3093 42.5657 21.2783 42.6617 21.1444Z" fill="url(#paint48_linear_2_5706)"/>
<path d="M41.9047 20.1991C41.8239 20.1414 41.7116 20.1599 41.6537 20.2407C41.5959 20.3215 41.6145 20.4339 41.6953 20.4917C41.7761 20.5495 41.8885 20.5309 41.9463 20.4501C42.0041 20.3693 41.9854 20.257 41.9047 20.1991Z" fill="url(#paint49_linear_2_5706)"/>
<path d="M39.0942 21.4544C38.9504 21.3988 38.7887 21.4704 38.733 21.6142C38.6773 21.758 38.7489 21.9198 38.8928 21.9755C39.0366 22.0311 39.1983 21.9595 39.254 21.8157C39.3097 21.6718 39.2381 21.5101 39.0942 21.4544Z" fill="url(#paint50_linear_2_5706)"/>
<path d="M41.2417 20.6809C41.1282 20.637 41.0005 20.6934 40.9565 20.8071C40.9126 20.9206 40.9692 21.0483 41.0827 21.0922C41.1962 21.1362 41.3239 21.0796 41.3679 20.9661C41.4117 20.8525 41.3552 20.7248 41.2417 20.6809Z" fill="url(#paint51_linear_2_5706)"/>
<path d="M40.2574 20.5378C40.3259 20.5642 40.4029 20.5302 40.4294 20.4617C40.4558 20.3932 40.4218 20.3162 40.3533 20.2897C40.2848 20.2633 40.2078 20.2973 40.1813 20.3658C40.1549 20.4344 40.1889 20.5113 40.2574 20.5378Z" fill="url(#paint52_linear_2_5706)"/>
<path d="M32.4197 26.6542C30.2854 28.7885 26.8291 28.7926 24.6998 26.6633C22.5704 24.5339 22.5746 21.0776 24.7089 18.9433C26.8431 16.8089 31.9279 15.1765 34.0572 17.3058C36.1866 19.4351 34.5541 24.5198 32.4197 26.6542V26.6542Z" fill="url(#paint53_linear_2_5706)"/>
<path d="M24.4885 26.4391C26.4131 28.1377 29.5351 27.8919 31.5962 25.8307C33.6258 23.8011 35.3674 19.2706 33.8978 17.1955C33.8525 17.1314 33.7965 17.075 33.7334 17.0282C31.4506 15.3333 26.7416 16.9101 24.7087 18.943C22.6474 21.0042 22.5735 24.2979 24.4885 26.4391Z" fill="url(#paint54_linear_2_5706)"/>
<path d="M27.5216 25.6155C29.2131 25.6155 30.5843 24.2443 30.5843 22.5529C30.5843 20.8614 29.2131 19.4902 27.5216 19.4902C25.8302 19.4902 24.459 20.8614 24.459 22.5529C24.459 24.2443 25.8302 25.6155 27.5216 25.6155Z" fill="url(#paint55_linear_2_5706)"/>
<path d="M28.3369 28.4507C26.7262 28.4547 25.1138 28.4355 23.5251 28.3938C23.1331 28.3834 22.7426 27.6032 22.3538 27.5901C21.8913 27.5746 21.4314 28.3258 20.9747 28.3063C20.7406 28.2965 20.5073 28.286 20.2751 28.2751C10.8715 27.8292 2.98974 26.5478 2.35398 24.4297C2.33531 24.3068 2.32323 24.1827 2.31774 24.0597C2.29469 23.6117 2.35508 23.1637 2.5077 22.7201C2.97437 21.364 4.14159 20.5108 5.73924 20.0672C6.319 19.9058 6.93171 19.5314 7.53893 18.9461L7.60371 18.8825C8.92246 17.6087 10.2105 17.5681 10.9022 18.777V18.7781C11.4941 19.8114 12.5273 19.9443 13.6605 19.1328L13.7681 19.0559C15.0177 18.161 16.1333 18.4367 16.6636 19.7708L16.7043 19.8729C16.7559 20.0014 16.813 20.121 16.8745 20.2297C17.4015 21.1587 18.2975 21.3673 19.3165 20.7722L19.412 20.7162C20.6517 19.9926 21.7004 20.4625 22.1341 21.9372L22.1791 22.0909C22.268 22.394 22.3833 22.6553 22.5217 22.8727C22.9884 23.6084 23.7153 23.8379 24.5629 23.4821C24.8265 23.3712 25.0779 23.3174 25.3129 23.3174C26.2243 23.3174 26.8908 24.1267 27.0917 25.564L27.1093 25.6848C27.2257 26.5204 27.4782 27.1924 27.8362 27.6766C28.0262 27.9325 28.1931 28.1916 28.3369 28.4507Z" fill="url(#paint56_linear_2_5706)"/>
<path d="M46.7704 25.1561C45.8773 24.2224 44.5322 23.7646 43.1789 24.0654C41.3319 24.476 40.0981 26.1599 40.1937 27.9886C40.1945 27.9885 40.1954 27.9885 40.1963 27.9884C40.2145 27.9868 42.8316 27.4587 44.0658 27.303C45.3474 27.1412 46.6559 27.2334 47.7309 27.0267C47.99 26.9769 48.2423 26.9258 48.4876 26.8733L46.7704 25.1561Z" fill="url(#paint57_linear_2_5706)"/>
<path d="M47.7359 26.965C47.2782 24.906 45.238 23.6078 43.1789 24.0654C41.3319 24.476 40.0981 26.1599 40.1937 27.9886C43.0356 27.7553 45.6181 27.4338 47.7456 27.024C47.7426 27.0043 47.7403 26.9848 47.7359 26.965V26.965Z" fill="url(#paint58_linear_2_5706)"/>
<path d="M42.4112 27.5104C42.4112 26.0881 41.2581 24.9351 39.8358 24.9351C38.4134 24.9351 37.2605 26.0881 37.2605 27.5104C37.2605 27.7447 37.2924 27.9716 37.351 28.1873C39.1153 28.0834 40.809 27.9483 42.3967 27.783C42.4061 27.6933 42.4112 27.6025 42.4112 27.5104V27.5104Z" fill="url(#paint59_linear_2_5706)"/>
<path d="M21.67 24.8786C20.6642 23.8728 19.4099 23.3985 18.126 23.1684C16.0436 22.7954 13.8446 23.2949 12.2132 24.9263C11.4755 25.664 10.8516 26.4821 10.5266 27.4044C10.6062 27.4161 10.6881 27.4271 10.7685 27.4385C10.7684 27.4387 10.7683 27.4389 10.7683 27.4391C13.5377 27.8318 16.8022 28.1105 20.275 28.2752C20.5052 28.2861 20.7363 28.2964 20.9682 28.3063C21.4318 28.3259 21.8987 27.7946 22.3682 27.8103C22.7512 27.8231 23.1359 28.3836 23.522 28.3937C24.0847 28.4084 24.6501 28.4203 25.2176 28.4295L21.67 24.8786Z" fill="url(#paint60_linear_2_5706)"/>
<path d="M11.502 21.7729C10.3809 21.7729 9.47217 22.6817 9.47217 23.8028C9.47217 24.9239 10.3809 25.8326 11.502 25.8326C12.623 25.8326 13.5318 24.9239 13.5318 23.8028C13.5318 22.6817 12.6231 21.7729 11.502 21.7729ZM11.502 24.6644C11.0261 24.6644 10.6404 24.2787 10.6404 23.8028C10.6404 23.3269 11.0261 22.9412 11.502 22.9412C11.9779 22.9412 12.3636 23.3269 12.3636 23.8028C12.3636 24.2787 11.9779 24.6644 11.502 24.6644Z" fill="url(#paint61_linear_2_5706)"/>
<path d="M21.6698 24.8787C19.0328 22.2416 14.7571 22.2416 12.12 24.8787C11.3823 25.6163 10.8514 26.4822 10.5264 27.4045C11.3312 27.5218 12.1795 27.6293 13.064 27.7269C13.2645 27.3283 13.5299 26.9541 13.8626 26.6214C15.537 24.947 18.252 24.9476 19.9264 26.622C20.4159 27.1115 20.7904 27.5815 20.9938 28.1968C21.4535 28.2164 21.8871 28.3427 22.3526 28.3583C22.7429 28.3713 23.1352 28.3831 23.5289 28.3934C23.2857 27.1058 22.6664 25.8753 21.6698 24.8787V24.8787Z" fill="url(#paint62_linear_2_5706)"/>
<path d="M20.8669 25.6816C18.6729 23.4876 15.1171 23.4876 12.9231 25.6816C12.3687 26.236 11.9548 26.8777 11.6807 27.5623C12.1306 27.62 12.5925 27.6748 13.0642 27.7268C13.2646 27.3282 13.5301 26.954 13.8628 26.6213C15.5372 24.9469 18.2528 24.9469 19.9272 26.6213C20.4168 27.1109 20.7621 27.6898 20.9654 28.3054C21.4276 28.325 21.8925 28.343 22.3607 28.3587C22.1293 27.3777 21.6319 26.4466 20.8669 25.6816V25.6816Z" fill="url(#paint63_linear_2_5706)"/>
<path d="M17.9221 16.6408C17.9938 16.4448 17.8931 16.2277 17.697 16.1559C17.501 16.0842 17.2839 16.1849 17.2121 16.381C17.1404 16.577 17.2411 16.7941 17.4372 16.8658C17.6333 16.9376 17.8504 16.8369 17.9221 16.6408Z" fill="url(#paint64_linear_2_5706)"/>
<path d="M16.7138 16.9616C16.5591 16.905 16.3877 16.9846 16.331 17.1393C16.2743 17.294 16.354 17.4654 16.5087 17.5221C16.6634 17.5787 16.8348 17.4991 16.8914 17.3444C16.9481 17.1896 16.8685 17.0182 16.7138 16.9616Z" fill="url(#paint65_linear_2_5706)"/>
<path d="M17.2506 18.4578C17.1573 18.4236 17.0539 18.4716 17.0198 18.5649C16.9856 18.6583 17.0336 18.7616 17.1269 18.7957C17.2201 18.8299 17.3235 18.7819 17.3577 18.6887C17.3918 18.5952 17.3438 18.4919 17.2506 18.4578Z" fill="url(#paint66_linear_2_5706)"/>
<path d="M19.8741 18.5975C19.6665 18.6201 19.5167 18.8068 19.5394 19.0143C19.562 19.2218 19.7487 19.3717 19.9562 19.349C20.1637 19.3264 20.3136 19.1397 20.2909 18.9322C20.2681 18.7246 20.0816 18.5748 19.8741 18.5975Z" fill="url(#paint67_linear_2_5706)"/>
<path d="M21.4569 15.6805C21.2931 15.6984 21.1748 15.8456 21.1927 16.0095C21.2106 16.1733 21.3579 16.2916 21.5217 16.2737C21.6855 16.2558 21.8038 16.1084 21.7859 15.9447C21.768 15.781 21.6207 15.6626 21.4569 15.6805Z" fill="url(#paint68_linear_2_5706)"/>
<path d="M18.7268 16.1715C18.628 16.1822 18.5567 16.2711 18.5675 16.3699C18.5782 16.4686 18.6671 16.54 18.7659 16.5292C18.8646 16.5185 18.936 16.4296 18.9252 16.3308C18.9144 16.232 18.8255 16.1607 18.7268 16.1715Z" fill="url(#paint69_linear_2_5706)"/>
<path d="M18.3507 17.7876C18.2064 17.842 18.1335 18.0032 18.188 18.1475C18.2425 18.2918 18.4037 18.3647 18.548 18.3102C18.6923 18.2558 18.7652 18.0946 18.7107 17.9503C18.6562 17.806 18.4949 17.7331 18.3507 17.7876Z" fill="url(#paint70_linear_2_5706)"/>
<path d="M18.5536 16.9722C18.4396 17.0153 18.3822 17.1424 18.4251 17.2564C18.4682 17.3704 18.5953 17.4278 18.7093 17.3849C18.8233 17.3418 18.8807 17.2147 18.8378 17.1007C18.7948 16.9867 18.6676 16.9293 18.5536 16.9722Z" fill="url(#paint71_linear_2_5706)"/>
<path d="M17.7241 17.522C17.7928 17.496 17.8274 17.4193 17.8015 17.3507C17.7756 17.2819 17.6988 17.2473 17.6302 17.2733C17.5615 17.2992 17.5269 17.3759 17.5528 17.4445C17.5787 17.5132 17.6554 17.5479 17.7241 17.522Z" fill="url(#paint72_linear_2_5706)"/>
<path d="M24.7116 14.5778C24.7833 14.3818 24.6826 14.1648 24.4865 14.0929C24.2905 14.0212 24.0734 14.1219 24.0016 14.318C23.9299 14.514 24.0306 14.7311 24.2267 14.8029C24.4228 14.8746 24.6399 14.774 24.7116 14.5778Z" fill="url(#paint73_linear_2_5706)"/>
<path d="M23.3422 18.048C23.1875 17.9914 23.0161 18.071 22.9594 18.2257C22.9028 18.3804 22.9824 18.5518 23.1371 18.6085C23.2918 18.6651 23.4632 18.5855 23.5199 18.4308C23.5764 18.2761 23.4969 18.1047 23.3422 18.048Z" fill="url(#paint74_linear_2_5706)"/>
<path d="M22.651 16.4861C22.5577 16.452 22.4543 16.4999 22.4202 16.5933C22.386 16.6866 22.434 16.7899 22.5272 16.824C22.6206 16.8581 22.7239 16.8101 22.758 16.7169C22.7922 16.6235 22.7442 16.5201 22.651 16.4861Z" fill="url(#paint75_linear_2_5706)"/>
<path d="M26.8204 14.8021C26.6128 14.8247 26.4629 15.0114 26.4857 15.2189C26.5083 15.4264 26.695 15.5763 26.9025 15.5536C27.11 15.531 27.2599 15.3443 27.2372 15.1368C27.2144 14.9292 27.0279 14.7794 26.8204 14.8021Z" fill="url(#paint76_linear_2_5706)"/>
<path d="M26.7099 14.308C26.692 14.1441 26.5447 14.0259 26.381 14.0438C26.2171 14.0617 26.0989 14.2089 26.1168 14.3728C26.1347 14.5366 26.2819 14.6548 26.4458 14.6369C26.6096 14.6191 26.7278 14.4718 26.7099 14.308Z" fill="url(#paint77_linear_2_5706)"/>
<path d="M25.5161 14.1085C25.4174 14.1193 25.346 14.2081 25.3568 14.3069C25.3675 14.4056 25.4564 14.477 25.5552 14.4662C25.6539 14.4555 25.7253 14.3667 25.7145 14.2678C25.7036 14.169 25.6149 14.0977 25.5161 14.1085Z" fill="url(#paint78_linear_2_5706)"/>
<path d="M24.2575 16.9175C24.1132 16.9719 24.0403 17.1331 24.0947 17.2774C24.1492 17.4217 24.3104 17.4946 24.4547 17.4401C24.5989 17.3857 24.6719 17.2245 24.6173 17.0802C24.5629 16.9359 24.4017 16.863 24.2575 16.9175Z" fill="url(#paint79_linear_2_5706)"/>
<path d="M25.3431 14.9093C25.2292 14.9523 25.1717 15.0795 25.2147 15.1935C25.2577 15.3075 25.3849 15.3649 25.4988 15.322C25.6128 15.2789 25.6702 15.1518 25.6273 15.0378C25.5843 14.9238 25.457 14.8663 25.3431 14.9093Z" fill="url(#paint80_linear_2_5706)"/>
<path d="M24.5134 15.459C24.5821 15.4331 24.6167 15.3563 24.5908 15.2877C24.5649 15.2189 24.4881 15.1843 24.4195 15.2103C24.3508 15.2362 24.3162 15.3129 24.3421 15.3816C24.368 15.4502 24.4448 15.4849 24.5134 15.459Z" fill="url(#paint81_linear_2_5706)"/>
</g>
<defs>
<linearGradient id="paint0_linear_2_5706" x1="28.1151" y1="42.0871" x2="28.3201" y2="45.4692" gradientUnits="userSpaceOnUse">
<stop stop-color="#F8F6FB"/>
<stop offset="1" stop-color="#EFDCFB"/>
</linearGradient>
<linearGradient id="paint1_linear_2_5706" x1="23.7209" y1="19.885" x2="38.6865" y2="42.1808" gradientUnits="userSpaceOnUse">
<stop stop-color="#F8F6FB"/>
<stop offset="1" stop-color="#EFDCFB"/>
</linearGradient>
<linearGradient id="paint2_linear_2_5706" x1="24.5985" y1="10.4183" x2="28.5514" y2="26.3765" gradientUnits="userSpaceOnUse">
<stop stop-color="#F8F6FB"/>
<stop offset="1" stop-color="#EFDCFB"/>
</linearGradient>
<linearGradient id="paint3_linear_2_5706" x1="28.7476" y1="10.7871" x2="28.7476" y2="18.5883" gradientUnits="userSpaceOnUse">
<stop stop-color="#BADA00"/>
<stop offset="0.2269" stop-color="#B0CE00"/>
<stop offset="0.6378" stop-color="#95AE00"/>
<stop offset="1" stop-color="#798C00"/>
</linearGradient>
<linearGradient id="paint4_linear_2_5706" x1="41.0526" y1="15.494" x2="42.2605" y2="17.9097" gradientUnits="userSpaceOnUse">
<stop stop-color="#8A7889"/>
<stop offset="0.3344" stop-color="#867385"/>
<stop offset="0.7039" stop-color="#7B667B"/>
<stop offset="1" stop-color="#6E566E"/>
</linearGradient>
<linearGradient id="paint5_linear_2_5706" x1="25.4256" y1="11.5975" x2="26.6334" y2="14.0132" gradientUnits="userSpaceOnUse">
<stop stop-color="#8A7889"/>
<stop offset="0.3344" stop-color="#867385"/>
<stop offset="0.7039" stop-color="#7B667B"/>
<stop offset="1" stop-color="#6E566E"/>
</linearGradient>
<linearGradient id="paint6_linear_2_5706" x1="38.3176" y1="15.4434" x2="38.3176" y2="19.505" gradientUnits="userSpaceOnUse">
<stop stop-color="#F8F6FB"/>
<stop offset="1" stop-color="#EFDCFB"/>
</linearGradient>
<linearGradient id="paint7_linear_2_5706" x1="25.7791" y1="21.6526" x2="23.7172" y2="9.53465" gradientUnits="userSpaceOnUse">
<stop stop-color="#798C00" stop-opacity="0"/>
<stop offset="0.6542" stop-color="#556100" stop-opacity="0.654"/>
<stop offset="1" stop-color="#464F00"/>
</linearGradient>
<linearGradient id="paint8_linear_2_5706" x1="28" y1="35.1416" x2="28" y2="-4.56493" gradientUnits="userSpaceOnUse">
<stop stop-color="#EFDCFB" stop-opacity="0"/>
<stop offset="0.0287" stop-color="#E9D6F7" stop-opacity="0.029"/>
<stop offset="0.2203" stop-color="#C5B5DE" stop-opacity="0.22"/>
<stop offset="0.4138" stop-color="#AA9BCB" stop-opacity="0.414"/>
<stop offset="0.6078" stop-color="#9688BD" stop-opacity="0.608"/>
<stop offset="0.8028" stop-color="#8A7DB5" stop-opacity="0.803"/>
<stop offset="1" stop-color="#8679B2"/>
</linearGradient>
<linearGradient id="paint9_linear_2_5706" x1="37.3042" y1="36.0967" x2="41.8473" y2="39.1254" gradientUnits="userSpaceOnUse">
<stop stop-color="#FF6359"/>
<stop offset="0.2243" stop-color="#FE5B50"/>
<stop offset="0.5952" stop-color="#FC4637"/>
<stop offset="1" stop-color="#F82814"/>
</linearGradient>
<linearGradient id="paint10_linear_2_5706" x1="36.2505" y1="20.0675" x2="36.9797" y2="28.6003" gradientUnits="userSpaceOnUse">
<stop stop-color="#BADA00"/>
<stop offset="0.2269" stop-color="#B0CE00"/>
<stop offset="0.6378" stop-color="#95AE00"/>
<stop offset="1" stop-color="#798C00"/>
</linearGradient>
<linearGradient id="paint11_linear_2_5706" x1="22.8121" y1="11.461" x2="20.1227" y2="19.3094" gradientUnits="userSpaceOnUse">
<stop stop-color="#FFD945"/>
<stop offset="0.3126" stop-color="#FFD643"/>
<stop offset="0.5593" stop-color="#FFCC3D"/>
<stop offset="0.7826" stop-color="#FFBB33"/>
<stop offset="0.9922" stop-color="#FFA426"/>
<stop offset="1" stop-color="#FFA325"/>
</linearGradient>
<linearGradient id="paint12_linear_2_5706" x1="19.1652" y1="22.1489" x2="21.4023" y2="15.6205" gradientUnits="userSpaceOnUse">
<stop stop-color="#FFD945"/>
<stop offset="0.3126" stop-color="#FFD643"/>
<stop offset="0.5593" stop-color="#FFCC3D"/>
<stop offset="0.7826" stop-color="#FFBB33"/>
<stop offset="0.9922" stop-color="#FFA426"/>
<stop offset="1" stop-color="#FFA325"/>
</linearGradient>
<linearGradient id="paint13_linear_2_5706" x1="45.4013" y1="15.0773" x2="48.3198" y2="21.0385" gradientUnits="userSpaceOnUse">
<stop stop-color="#FF6359"/>
<stop offset="0.2243" stop-color="#FE5B50"/>
<stop offset="0.5952" stop-color="#FC4637"/>
<stop offset="1" stop-color="#F82814"/>
</linearGradient>
<linearGradient id="paint14_linear_2_5706" x1="52.8635" y1="24.7944" x2="45.9438" y2="17.8746" gradientUnits="userSpaceOnUse">
<stop stop-color="#FF6359"/>
<stop offset="0.2243" stop-color="#FE5B50"/>
<stop offset="0.5952" stop-color="#FC4637"/>
<stop offset="1" stop-color="#F82814"/>
</linearGradient>
<linearGradient id="paint15_linear_2_5706" x1="32.5105" y1="12.4847" x2="31.1822" y2="14.5901" gradientUnits="userSpaceOnUse">
<stop stop-color="#FF6359"/>
<stop offset="0.2243" stop-color="#FE5B50"/>
<stop offset="0.5952" stop-color="#FC4637"/>
<stop offset="1" stop-color="#F82814"/>
</linearGradient>
<linearGradient id="paint16_linear_2_5706" x1="29.6117" y1="14.3585" x2="28.9795" y2="15.3606" gradientUnits="userSpaceOnUse">
<stop stop-color="#FF6359"/>
<stop offset="0.2243" stop-color="#FE5B50"/>
<stop offset="0.5952" stop-color="#FC4637"/>
<stop offset="1" stop-color="#F82814"/>
</linearGradient>
<linearGradient id="paint17_linear_2_5706" x1="32.8791" y1="14.3353" x2="32.2469" y2="15.3375" gradientUnits="userSpaceOnUse">
<stop stop-color="#FF6359"/>
<stop offset="0.2243" stop-color="#FE5B50"/>
<stop offset="0.5952" stop-color="#FC4637"/>
<stop offset="1" stop-color="#F82814"/>
</linearGradient>
<linearGradient id="paint18_linear_2_5706" x1="34.9001" y1="13.3645" x2="34.2679" y2="14.3667" gradientUnits="userSpaceOnUse">
<stop stop-color="#FF6359"/>
<stop offset="0.2243" stop-color="#FE5B50"/>
<stop offset="0.5952" stop-color="#FC4637"/>
<stop offset="1" stop-color="#F82814"/>
</linearGradient>
<linearGradient id="paint19_linear_2_5706" x1="29.8274" y1="15.1388" x2="28.8459" y2="16.6949" gradientUnits="userSpaceOnUse">
<stop stop-color="#FF6359"/>
<stop offset="0.2243" stop-color="#FE5B50"/>
<stop offset="0.5952" stop-color="#FC4637"/>
<stop offset="1" stop-color="#F82814"/>
</linearGradient>
<linearGradient id="paint20_linear_2_5706" x1="31.0932" y1="13.5027" x2="30.3183" y2="14.731" gradientUnits="userSpaceOnUse">
<stop stop-color="#FF6359"/>
<stop offset="0.2243" stop-color="#FE5B50"/>
<stop offset="0.5952" stop-color="#FC4637"/>
<stop offset="1" stop-color="#F82814"/>
</linearGradient>
<linearGradient id="paint21_linear_2_5706" x1="33.8173" y1="12.4047" x2="33.0424" y2="13.633" gradientUnits="userSpaceOnUse">
<stop stop-color="#FF6359"/>
<stop offset="0.2243" stop-color="#FE5B50"/>
<stop offset="0.5952" stop-color="#FC4637"/>
<stop offset="1" stop-color="#F82814"/>
</linearGradient>
<linearGradient id="paint22_linear_2_5706" x1="31.7851" y1="14.1203" x2="31.318" y2="14.8609" gradientUnits="userSpaceOnUse">
<stop stop-color="#FF6359"/>
<stop offset="0.2243" stop-color="#FE5B50"/>
<stop offset="0.5952" stop-color="#FC4637"/>
<stop offset="1" stop-color="#F82814"/>
</linearGradient>
<linearGradient id="paint23_linear_2_5706" x1="31.1197" y1="14.1899" x2="28.8228" y2="20.8932" gradientUnits="userSpaceOnUse">
<stop stop-color="#FFD945"/>
<stop offset="0.3126" stop-color="#FFD643"/>
<stop offset="0.5593" stop-color="#FFCC3D"/>
<stop offset="0.7826" stop-color="#FFBB33"/>
<stop offset="0.9922" stop-color="#FFA426"/>
<stop offset="1" stop-color="#FFA325"/>
</linearGradient>
<linearGradient id="paint24_linear_2_5706" x1="28.0058" y1="23.3233" x2="29.9163" y2="17.7474" gradientUnits="userSpaceOnUse">
<stop stop-color="#FFD945"/>
<stop offset="0.3126" stop-color="#FFD643"/>
<stop offset="0.5593" stop-color="#FFCC3D"/>
<stop offset="0.7826" stop-color="#FFBB33"/>
<stop offset="0.9922" stop-color="#FFA426"/>
<stop offset="1" stop-color="#FFA325"/>
</linearGradient>
<linearGradient id="paint25_linear_2_5706" x1="15.8849" y1="15.3254" x2="17.0905" y2="21.7994" gradientUnits="userSpaceOnUse">
<stop stop-color="#FF6359"/>
<stop offset="0.2243" stop-color="#FE5B50"/>
<stop offset="0.5952" stop-color="#FC4637"/>
<stop offset="1" stop-color="#F82814"/>
</linearGradient>
<linearGradient id="paint26_linear_2_5706" x1="44.1611" y1="13.1214" x2="41.4718" y2="20.9698" gradientUnits="userSpaceOnUse">
<stop stop-color="#FFDECF"/>
<stop offset="0.3791" stop-color="#FDC4B0"/>
<stop offset="0.7655" stop-color="#FBAE97"/>
<stop offset="1" stop-color="#FAA68E"/>
</linearGradient>
<linearGradient id="paint27_linear_2_5706" x1="40.5144" y1="23.8093" x2="42.7514" y2="17.2809" gradientUnits="userSpaceOnUse">
<stop stop-color="#FFDECF"/>
<stop offset="0.3791" stop-color="#FDC4B0"/>
<stop offset="0.7655" stop-color="#FBAE97"/>
<stop offset="1" stop-color="#FAA68E"/>
</linearGradient>
<linearGradient id="paint28_linear_2_5706" x1="10.8674" y1="14.9617" x2="8.57188" y2="21.6608" gradientUnits="userSpaceOnUse">
<stop stop-color="#FFDECF"/>
<stop offset="0.3791" stop-color="#FDC4B0"/>
<stop offset="0.7655" stop-color="#FBAE97"/>
<stop offset="1" stop-color="#FAA68E"/>
</linearGradient>
<linearGradient id="paint29_linear_2_5706" x1="7.75511" y1="24.0894" x2="9.66453" y2="18.517" gradientUnits="userSpaceOnUse">
<stop stop-color="#FFDECF"/>
<stop offset="0.3791" stop-color="#FDC4B0"/>
<stop offset="0.7655" stop-color="#FBAE97"/>
<stop offset="1" stop-color="#FAA68E"/>
</linearGradient>
<linearGradient id="paint30_linear_2_5706" x1="36.2504" y1="20.0672" x2="36.9797" y2="28.5993" gradientUnits="userSpaceOnUse">
<stop stop-color="#BADA00"/>
<stop offset="0.2269" stop-color="#B0CE00"/>
<stop offset="0.6378" stop-color="#95AE00"/>
<stop offset="1" stop-color="#798C00"/>
</linearGradient>
<linearGradient id="paint31_linear_2_5706" x1="40.848" y1="24.3635" x2="40.5186" y2="10.8211" gradientUnits="userSpaceOnUse">
<stop stop-color="#798C00" stop-opacity="0"/>
<stop offset="0.6542" stop-color="#556100" stop-opacity="0.654"/>
<stop offset="1" stop-color="#464F00"/>
</linearGradient>
<linearGradient id="paint32_linear_2_5706" x1="35.8691" y1="29.585" x2="24.7706" y2="20.8804" gradientUnits="userSpaceOnUse">
<stop stop-color="#798C00" stop-opacity="0"/>
<stop offset="0.6542" stop-color="#556100" stop-opacity="0.654"/>
<stop offset="1" stop-color="#464F00"/>
</linearGradient>
<linearGradient id="paint33_linear_2_5706" x1="33.9947" y1="21.6854" x2="35.2025" y2="24.1011" gradientUnits="userSpaceOnUse">
<stop stop-color="#8A7889"/>
<stop offset="0.3344" stop-color="#867385"/>
<stop offset="0.7039" stop-color="#7B667B"/>
<stop offset="1" stop-color="#6E566E"/>
</linearGradient>
<linearGradient id="paint34_linear_2_5706" x1="44.6995" y1="22.4462" x2="45.9073" y2="24.8619" gradientUnits="userSpaceOnUse">
<stop stop-color="#8A7889"/>
<stop offset="0.3344" stop-color="#867385"/>
<stop offset="0.7039" stop-color="#7B667B"/>
<stop offset="1" stop-color="#6E566E"/>
</linearGradient>
<linearGradient id="paint35_linear_2_5706" x1="34.3596" y1="16.0886" x2="34.1716" y2="17.8676" gradientUnits="userSpaceOnUse">
<stop stop-color="#FFDECF"/>
<stop offset="0.3791" stop-color="#FDC4B0"/>
<stop offset="0.7655" stop-color="#FBAE97"/>
<stop offset="1" stop-color="#FAA68E"/>
</linearGradient>
<linearGradient id="paint36_linear_2_5706" x1="33.1471" y1="16.1158" x2="32.9986" y2="17.5202" gradientUnits="userSpaceOnUse">
<stop stop-color="#FFDECF"/>
<stop offset="0.3791" stop-color="#FDC4B0"/>
<stop offset="0.7655" stop-color="#FBAE97"/>
<stop offset="1" stop-color="#FAA68E"/>
</linearGradient>
<linearGradient id="paint37_linear_2_5706" x1="32.6348" y1="17.7124" x2="32.5452" y2="18.5593" gradientUnits="userSpaceOnUse">
<stop stop-color="#FFDECF"/>
<stop offset="0.3791" stop-color="#FDC4B0"/>
<stop offset="0.7655" stop-color="#FBAE97"/>
<stop offset="1" stop-color="#FAA68E"/>
</linearGradient>
<linearGradient id="paint38_linear_2_5706" x1="34.4665" y1="19.4893" x2="34.2784" y2="21.2685" gradientUnits="userSpaceOnUse">
<stop stop-color="#FFDECF"/>
<stop offset="0.3791" stop-color="#FDC4B0"/>
<stop offset="0.7655" stop-color="#FBAE97"/>
<stop offset="1" stop-color="#FAA68E"/>
</linearGradient>
<linearGradient id="paint39_linear_2_5706" x1="37.625" y1="18.4275" x2="37.4766" y2="19.8321" gradientUnits="userSpaceOnUse">
<stop stop-color="#FFDECF"/>
<stop offset="0.3791" stop-color="#FDC4B0"/>
<stop offset="0.7655" stop-color="#FBAE97"/>
<stop offset="1" stop-color="#FAA68E"/>
</linearGradient>
<linearGradient id="paint40_linear_2_5706" x1="35.3129" y1="17.0551" x2="35.2234" y2="17.9019" gradientUnits="userSpaceOnUse">
<stop stop-color="#FFDECF"/>
<stop offset="0.3791" stop-color="#FDC4B0"/>
<stop offset="0.7655" stop-color="#FBAE97"/>
<stop offset="1" stop-color="#FAA68E"/>
</linearGradient>
<linearGradient id="paint41_linear_2_5706" x1="33.9743" y1="17.972" x2="33.8353" y2="19.2868" gradientUnits="userSpaceOnUse">
<stop stop-color="#FFDECF"/>
<stop offset="0.3791" stop-color="#FDC4B0"/>
<stop offset="0.7655" stop-color="#FBAE97"/>
<stop offset="1" stop-color="#FAA68E"/>
</linearGradient>
<linearGradient id="paint42_linear_2_5706" x1="34.6814" y1="17.5343" x2="34.5716" y2="18.5723" gradientUnits="userSpaceOnUse">
<stop stop-color="#FFDECF"/>
<stop offset="0.3791" stop-color="#FDC4B0"/>
<stop offset="0.7655" stop-color="#FBAE97"/>
<stop offset="1" stop-color="#FAA68E"/>
</linearGradient>
<linearGradient id="paint43_linear_2_5706" x1="33.8109" y1="17.1938" x2="33.7448" y2="17.8196" gradientUnits="userSpaceOnUse">
<stop stop-color="#FFDECF"/>
<stop offset="0.3791" stop-color="#FDC4B0"/>
<stop offset="0.7655" stop-color="#FBAE97"/>
<stop offset="1" stop-color="#FAA68E"/>
</linearGradient>
<linearGradient id="paint44_linear_2_5706" x1="40.7931" y1="19.08" x2="40.605" y2="20.859" gradientUnits="userSpaceOnUse">
<stop stop-color="#FFDECF"/>
<stop offset="0.3791" stop-color="#FDC4B0"/>
<stop offset="0.7655" stop-color="#FBAE97"/>
<stop offset="1" stop-color="#FAA68E"/>
</linearGradient>
<linearGradient id="paint45_linear_2_5706" x1="37.3602" y1="21.3469" x2="37.2118" y2="22.7513" gradientUnits="userSpaceOnUse">
<stop stop-color="#FFDECF"/>
<stop offset="0.3791" stop-color="#FDC4B0"/>
<stop offset="0.7655" stop-color="#FBAE97"/>
<stop offset="1" stop-color="#FAA68E"/>
</linearGradient>
<linearGradient id="paint46_linear_2_5706" x1="37.9725" y1="19.8457" x2="37.883" y2="20.6923" gradientUnits="userSpaceOnUse">
<stop stop-color="#FFDECF"/>
<stop offset="0.3791" stop-color="#FDC4B0"/>
<stop offset="0.7655" stop-color="#FBAE97"/>
<stop offset="1" stop-color="#FAA68E"/>
</linearGradient>
<linearGradient id="paint47_linear_2_5706" x1="42.173" y1="21.2948" x2="41.9848" y2="23.074" gradientUnits="userSpaceOnUse">
<stop stop-color="#FFDECF"/>
<stop offset="0.3791" stop-color="#FDC4B0"/>
<stop offset="0.7655" stop-color="#FBAE97"/>
<stop offset="1" stop-color="#FAA68E"/>
</linearGradient>
<linearGradient id="paint48_linear_2_5706" x1="42.3844" y1="20.4924" x2="42.236" y2="21.8971" gradientUnits="userSpaceOnUse">
<stop stop-color="#FFDECF"/>
<stop offset="0.3791" stop-color="#FDC4B0"/>
<stop offset="0.7655" stop-color="#FBAE97"/>
<stop offset="1" stop-color="#FAA68E"/>
</linearGradient>
<linearGradient id="paint49_linear_2_5706" x1="41.7469" y1="20.0464" x2="41.6573" y2="20.8932" gradientUnits="userSpaceOnUse">
<stop stop-color="#FFDECF"/>
<stop offset="0.3791" stop-color="#FDC4B0"/>
<stop offset="0.7655" stop-color="#FBAE97"/>
<stop offset="1" stop-color="#FAA68E"/>
</linearGradient>
<linearGradient id="paint50_linear_2_5706" x1="38.9557" y1="21.2641" x2="38.8169" y2="22.5789" gradientUnits="userSpaceOnUse">
<stop stop-color="#FFDECF"/>
<stop offset="0.3791" stop-color="#FDC4B0"/>
<stop offset="0.7655" stop-color="#FBAE97"/>
<stop offset="1" stop-color="#FAA68E"/>
</linearGradient>
<linearGradient id="paint51_linear_2_5706" x1="41.1153" y1="20.5257" x2="41.0055" y2="21.5637" gradientUnits="userSpaceOnUse">
<stop stop-color="#FFDECF"/>
<stop offset="0.3791" stop-color="#FDC4B0"/>
<stop offset="0.7655" stop-color="#FBAE97"/>
<stop offset="1" stop-color="#FAA68E"/>
</linearGradient>
<linearGradient id="paint52_linear_2_5706" x1="40.2446" y1="20.1852" x2="40.1785" y2="20.811" gradientUnits="userSpaceOnUse">
<stop stop-color="#FFDECF"/>
<stop offset="0.3791" stop-color="#FDC4B0"/>
<stop offset="0.7655" stop-color="#FBAE97"/>
<stop offset="1" stop-color="#FAA68E"/>
</linearGradient>
<linearGradient id="paint53_linear_2_5706" x1="29.2261" y1="21.9495" x2="31.2986" y2="28.4946" gradientUnits="userSpaceOnUse">
<stop stop-color="#F8F6FB"/>
<stop offset="1" stop-color="#EFDCFB"/>
</linearGradient>
<linearGradient id="paint54_linear_2_5706" x1="29.0168" y1="22.1896" x2="34.7255" y2="49.0968" gradientUnits="userSpaceOnUse">
<stop stop-color="#EFDCFB" stop-opacity="0"/>
<stop offset="0.0287" stop-color="#E9D6F7" stop-opacity="0.029"/>
<stop offset="0.2203" stop-color="#C5B5DE" stop-opacity="0.22"/>
<stop offset="0.4138" stop-color="#AA9BCB" stop-opacity="0.414"/>
<stop offset="0.6078" stop-color="#9688BD" stop-opacity="0.608"/>
<stop offset="0.8028" stop-color="#8A7DB5" stop-opacity="0.803"/>
<stop offset="1" stop-color="#8679B2"/>
</linearGradient>
<linearGradient id="paint55_linear_2_5706" x1="25.6687" y1="20.6438" x2="30.4684" y2="25.589" gradientUnits="userSpaceOnUse">
<stop stop-color="#FFD945"/>
<stop offset="0.3126" stop-color="#FFD643"/>
<stop offset="0.5593" stop-color="#FFCC3D"/>
<stop offset="0.7826" stop-color="#FFBB33"/>
<stop offset="0.9922" stop-color="#FFA426"/>
<stop offset="1" stop-color="#FFA325"/>
</linearGradient>
<linearGradient id="paint56_linear_2_5706" x1="15.3857" y1="23.5001" x2="15.2393" y2="29.8687" gradientUnits="userSpaceOnUse">
<stop stop-color="#BADA00"/>
<stop offset="0.2269" stop-color="#B0CE00"/>
<stop offset="0.6378" stop-color="#95AE00"/>
<stop offset="1" stop-color="#798C00"/>
</linearGradient>
<linearGradient id="paint57_linear_2_5706" x1="47.7047" y1="30.7943" x2="42.1959" y2="25.2855" gradientUnits="userSpaceOnUse">
<stop stop-color="#798C00" stop-opacity="0"/>
<stop offset="0.6542" stop-color="#556100" stop-opacity="0.654"/>
<stop offset="1" stop-color="#464F00"/>
</linearGradient>
<linearGradient id="paint58_linear_2_5706" x1="42.5605" y1="24.4865" x2="43.8495" y2="27.1194" gradientUnits="userSpaceOnUse">
<stop stop-color="#FF6359"/>
<stop offset="0.2243" stop-color="#FE5B50"/>
<stop offset="0.5952" stop-color="#FC4637"/>
<stop offset="1" stop-color="#F82814"/>
</linearGradient>
<linearGradient id="paint59_linear_2_5706" x1="39.2542" y1="25.882" x2="40.2005" y2="28.5105" gradientUnits="userSpaceOnUse">
<stop stop-color="#FFA936"/>
<stop offset="0.4112" stop-color="#FF8548"/>
<stop offset="0.7781" stop-color="#FF6C54"/>
<stop offset="1" stop-color="#FF6359"/>
</linearGradient>
<linearGradient id="paint60_linear_2_5706" x1="17.8687" y1="28.5211" x2="17.8953" y2="23.8494" gradientUnits="userSpaceOnUse">
<stop stop-color="#798C00" stop-opacity="0"/>
<stop offset="0.6542" stop-color="#556100" stop-opacity="0.654"/>
<stop offset="1" stop-color="#464F00"/>
</linearGradient>
<linearGradient id="paint61_linear_2_5706" x1="10.4434" y1="21.6854" x2="11.6512" y2="24.1011" gradientUnits="userSpaceOnUse">
<stop stop-color="#8A7889"/>
<stop offset="0.3344" stop-color="#867385"/>
<stop offset="0.7039" stop-color="#7B667B"/>
<stop offset="1" stop-color="#6E566E"/>
</linearGradient>
<linearGradient id="paint62_linear_2_5706" x1="15.0015" y1="23.4853" x2="17.3081" y2="28.1966" gradientUnits="userSpaceOnUse">
<stop stop-color="#FFDECF"/>
<stop offset="0.3791" stop-color="#FDC4B0"/>
<stop offset="0.7655" stop-color="#FBAE97"/>
<stop offset="1" stop-color="#FAA68E"/>
</linearGradient>
<linearGradient id="paint63_linear_2_5706" x1="18.6663" y1="29.0144" x2="12.8656" y2="23.2138" gradientUnits="userSpaceOnUse">
<stop stop-color="#FFDECF"/>
<stop offset="0.3791" stop-color="#FDC4B0"/>
<stop offset="0.7655" stop-color="#FBAE97"/>
<stop offset="1" stop-color="#FAA68E"/>
</linearGradient>
<linearGradient id="paint64_linear_2_5706" x1="17.2305" y1="16.0443" x2="18.2772" y2="17.4952" gradientUnits="userSpaceOnUse">
<stop stop-color="#FFDECF"/>
<stop offset="0.3791" stop-color="#FDC4B0"/>
<stop offset="0.7655" stop-color="#FBAE97"/>
<stop offset="1" stop-color="#FAA68E"/>
</linearGradient>
<linearGradient id="paint65_linear_2_5706" x1="16.3455" y1="16.8733" x2="17.1717" y2="18.0188" gradientUnits="userSpaceOnUse">
<stop stop-color="#FFDECF"/>
<stop offset="0.3791" stop-color="#FDC4B0"/>
<stop offset="0.7655" stop-color="#FBAE97"/>
<stop offset="1" stop-color="#FAA68E"/>
</linearGradient>
<linearGradient id="paint66_linear_2_5706" x1="17.0285" y1="18.4046" x2="17.5266" y2="19.0952" gradientUnits="userSpaceOnUse">
<stop stop-color="#FFDECF"/>
<stop offset="0.3791" stop-color="#FDC4B0"/>
<stop offset="0.7655" stop-color="#FBAE97"/>
<stop offset="1" stop-color="#FAA68E"/>
</linearGradient>
<linearGradient id="paint67_linear_2_5706" x1="19.5785" y1="18.5065" x2="20.6251" y2="19.9575" gradientUnits="userSpaceOnUse">
<stop stop-color="#FFDECF"/>
<stop offset="0.3791" stop-color="#FDC4B0"/>
<stop offset="0.7655" stop-color="#FBAE97"/>
<stop offset="1" stop-color="#FAA68E"/>
</linearGradient>
<linearGradient id="paint68_linear_2_5706" x1="21.2235" y1="15.6087" x2="22.0498" y2="16.7543" gradientUnits="userSpaceOnUse">
<stop stop-color="#FFDECF"/>
<stop offset="0.3791" stop-color="#FDC4B0"/>
<stop offset="0.7655" stop-color="#FBAE97"/>
<stop offset="1" stop-color="#FAA68E"/>
</linearGradient>
<linearGradient id="paint69_linear_2_5706" x1="18.5861" y1="16.1281" x2="19.0842" y2="16.8188" gradientUnits="userSpaceOnUse">
<stop stop-color="#FFDECF"/>
<stop offset="0.3791" stop-color="#FDC4B0"/>
<stop offset="0.7655" stop-color="#FBAE97"/>
<stop offset="1" stop-color="#FAA68E"/>
</linearGradient>
<linearGradient id="paint70_linear_2_5706" x1="18.2004" y1="17.704" x2="18.9739" y2="18.7764" gradientUnits="userSpaceOnUse">
<stop stop-color="#FFDECF"/>
<stop offset="0.3791" stop-color="#FDC4B0"/>
<stop offset="0.7655" stop-color="#FBAE97"/>
<stop offset="1" stop-color="#FAA68E"/>
</linearGradient>
<linearGradient id="paint71_linear_2_5706" x1="18.4351" y1="16.9063" x2="19.0457" y2="17.7528" gradientUnits="userSpaceOnUse">
<stop stop-color="#FFDECF"/>
<stop offset="0.3791" stop-color="#FDC4B0"/>
<stop offset="0.7655" stop-color="#FBAE97"/>
<stop offset="1" stop-color="#FAA68E"/>
</linearGradient>
<linearGradient id="paint72_linear_2_5706" x1="17.5587" y1="17.2334" x2="17.9269" y2="17.7438" gradientUnits="userSpaceOnUse">
<stop stop-color="#FFDECF"/>
<stop offset="0.3791" stop-color="#FDC4B0"/>
<stop offset="0.7655" stop-color="#FBAE97"/>
<stop offset="1" stop-color="#FAA68E"/>
</linearGradient>
<linearGradient id="paint73_linear_2_5706" x1="24.0201" y1="13.9813" x2="25.0667" y2="15.4322" gradientUnits="userSpaceOnUse">
<stop stop-color="#FFDECF"/>
<stop offset="0.3791" stop-color="#FDC4B0"/>
<stop offset="0.7655" stop-color="#FBAE97"/>
<stop offset="1" stop-color="#FAA68E"/>
</linearGradient>
<linearGradient id="paint74_linear_2_5706" x1="22.9738" y1="17.9599" x2="23.8001" y2="19.1053" gradientUnits="userSpaceOnUse">
<stop stop-color="#FFDECF"/>
<stop offset="0.3791" stop-color="#FDC4B0"/>
<stop offset="0.7655" stop-color="#FBAE97"/>
<stop offset="1" stop-color="#FAA68E"/>
</linearGradient>
<linearGradient id="paint75_linear_2_5706" x1="22.429" y1="16.4328" x2="22.9271" y2="17.1234" gradientUnits="userSpaceOnUse">
<stop stop-color="#FFDECF"/>
<stop offset="0.3791" stop-color="#FDC4B0"/>
<stop offset="0.7655" stop-color="#FBAE97"/>
<stop offset="1" stop-color="#FAA68E"/>
</linearGradient>
<linearGradient id="paint76_linear_2_5706" x1="26.5248" y1="14.7111" x2="27.5714" y2="16.1621" gradientUnits="userSpaceOnUse">
<stop stop-color="#FFDECF"/>
<stop offset="0.3791" stop-color="#FDC4B0"/>
<stop offset="0.7655" stop-color="#FBAE97"/>
<stop offset="1" stop-color="#FAA68E"/>
</linearGradient>
<linearGradient id="paint77_linear_2_5706" x1="26.1475" y1="13.972" x2="26.9739" y2="15.1174" gradientUnits="userSpaceOnUse">
<stop stop-color="#FFDECF"/>
<stop offset="0.3791" stop-color="#FDC4B0"/>
<stop offset="0.7655" stop-color="#FBAE97"/>
<stop offset="1" stop-color="#FAA68E"/>
</linearGradient>
<linearGradient id="paint78_linear_2_5706" x1="25.3755" y1="14.0652" x2="25.8737" y2="14.7558" gradientUnits="userSpaceOnUse">
<stop stop-color="#FFDECF"/>
<stop offset="0.3791" stop-color="#FDC4B0"/>
<stop offset="0.7655" stop-color="#FBAE97"/>
<stop offset="1" stop-color="#FAA68E"/>
</linearGradient>
<linearGradient id="paint79_linear_2_5706" x1="24.1072" y1="16.8339" x2="24.8807" y2="17.9063" gradientUnits="userSpaceOnUse">
<stop stop-color="#FFDECF"/>
<stop offset="0.3791" stop-color="#FDC4B0"/>
<stop offset="0.7655" stop-color="#FBAE97"/>
<stop offset="1" stop-color="#FAA68E"/>
</linearGradient>
<linearGradient id="paint80_linear_2_5706" x1="25.2246" y1="14.8433" x2="25.8352" y2="15.6898" gradientUnits="userSpaceOnUse">
<stop stop-color="#FFDECF"/>
<stop offset="0.3791" stop-color="#FDC4B0"/>
<stop offset="0.7655" stop-color="#FBAE97"/>
<stop offset="1" stop-color="#FAA68E"/>
</linearGradient>
<linearGradient id="paint81_linear_2_5706" x1="24.348" y1="15.1704" x2="24.7162" y2="15.6808" gradientUnits="userSpaceOnUse">
<stop stop-color="#FFDECF"/>
<stop offset="0.3791" stop-color="#FDC4B0"/>
<stop offset="0.7655" stop-color="#FBAE97"/>
<stop offset="1" stop-color="#FAA68E"/>
</linearGradient>
<clipPath id="clip0_2_5706">
<rect width="56" height="56" fill="white"/>
</clipPath>
</defs>
</svg>
