<svg width="56" height="56" viewBox="0 0 56 56" fill="none" xmlns="http://www.w3.org/2000/svg">
<g clip-path="url(#clip0_2_5800)">
<path d="M0 28V32.1689C0 41.5843 4.64756 49.9134 11.7735 54.9887C15.3735 57.5527 20.348 54.9414 20.3327 50.5216C20.3326 50.4874 20.3325 50.4533 20.3325 50.4191C20.3325 42.1634 21.7156 35.4707 27.9999 35.4707C34.2842 35.4707 35.6673 42.1634 35.6673 50.4191C35.6673 50.4533 35.6673 50.4874 35.6671 50.5216C35.6518 54.9413 40.6262 57.5527 44.2263 54.9887C51.3524 49.9134 56 41.5843 56 32.1689V28H0Z" fill="url(#paint0_linear_2_5800)"/>
<path d="M28 0C5.05098 0 0 12.536 0 28C0 37.4154 4.64756 45.7444 11.7735 50.8198C15.3735 53.3838 20.348 50.7725 20.3327 46.3526C20.3326 46.3185 20.3325 46.2843 20.3325 46.2502C20.3325 37.9945 21.7156 31.3018 27.9999 31.3018C34.2842 31.3018 35.6673 37.9945 35.6673 46.2502C35.6673 46.2843 35.6672 46.3185 35.6671 46.3526C35.6518 50.7724 40.6262 53.3838 44.2263 50.8198C51.3524 45.7444 56 37.4154 56 28C56 12.536 50.949 0 28 0V0Z" fill="url(#paint1_linear_2_5800)"/>
<path d="M48.7312 12.218C45.6566 7.6241 40.7381 4.71419 34.1124 3.56882C32.5494 3.29871 30.9284 3.6996 29.666 4.66862C28.9545 5.21479 28.3869 5.91742 27.9999 6.70988C27.6129 5.91731 27.0453 5.21479 26.3337 4.66862C25.0713 3.6996 23.4504 3.29849 21.8872 3.56882C15.2616 4.71408 10.3432 7.6241 7.26855 12.218C4.66762 16.104 3.34888 21.2956 3.34888 27.6486C3.34888 31.6453 4.32778 35.6148 6.17973 39.1277C7.97151 42.5268 10.5766 45.5044 13.7129 47.7384C14.3303 48.1782 15.1873 48.0343 15.6272 47.4168C16.067 46.7994 15.923 45.9424 15.3055 45.5025C12.5168 43.516 10.2009 40.8689 8.60805 37.8474C6.96329 34.7277 6.09398 31.2009 6.09398 27.6486C6.09398 21.849 7.25669 17.1711 9.54983 13.7448C12.2275 9.7442 16.416 7.3004 22.3546 6.27384C23.1763 6.13187 23.9964 6.33512 24.6623 6.84614C25.3361 7.36332 25.7493 8.1135 25.826 8.95888L25.8745 9.4933C25.0964 9.18826 24.2411 9.09526 23.4046 9.24042C14.1455 10.8496 9.45068 16.945 9.45068 27.3576C9.45068 33.3444 12.3662 38.9955 17.2496 42.4744C17.8673 42.9143 18.7241 42.7703 19.1639 42.1529C19.6038 41.5356 19.4597 40.6785 18.8424 40.2387C14.6805 37.2738 12.1958 32.4585 12.1958 27.3576C12.1958 23.1544 13.0319 19.7724 14.681 17.3052C16.5957 14.4407 19.6029 12.6874 23.8746 11.945C24.3914 11.8551 24.9048 11.9811 25.3206 12.2997C25.7356 12.6177 25.9903 13.0797 26.0378 13.6002L26.2501 15.939C23.0513 16.2145 20.7262 17.2842 19.174 19.1877C17.6995 20.9959 17.0128 23.4318 17.0128 26.8535C17.0128 29.588 18.0237 32.2074 19.8595 34.2294C20.3693 34.7905 21.2373 34.8326 21.7984 34.3229C22.3596 33.8133 22.4015 32.9453 21.892 32.3841C20.5158 30.8684 19.7579 28.9043 19.7579 26.8535C19.7579 24.0986 20.2484 22.214 21.3015 20.9223C22.5694 19.3676 24.7604 18.6117 27.9999 18.6117C31.2393 18.6117 33.4303 19.3676 34.6982 20.9225C35.7514 22.214 36.2419 24.0986 36.2419 26.8536C36.2419 28.9043 35.484 30.8684 34.1077 32.3842C33.5981 32.9454 33.64 33.8134 34.2014 34.323C34.4643 34.5618 34.7943 34.6795 35.1235 34.6795C35.4969 34.6795 35.8693 34.5279 36.1402 34.2296C37.976 32.2077 38.987 29.5882 38.987 26.8537C38.987 23.432 38.3002 20.9961 36.8257 19.1879C35.2736 17.2844 32.9484 16.2148 29.7497 15.9392L29.9619 13.6011C30.0096 13.0799 30.2642 12.6178 30.6792 12.2998C31.0949 11.9812 31.6089 11.8552 32.1252 11.9451C36.3968 12.6875 39.4041 14.4408 41.3189 17.3053C42.9679 19.7725 43.804 23.1546 43.804 27.3577C43.804 32.4586 41.3193 37.2739 37.1574 40.2388C36.5401 40.6786 36.396 41.5357 36.8359 42.1531C37.1036 42.529 37.526 42.7294 37.9549 42.7294C38.2304 42.7294 38.5086 42.6467 38.7501 42.4747C43.6336 38.9957 46.549 33.3446 46.549 27.3578C46.549 16.9452 41.8543 10.8498 32.5953 9.24064C31.7591 9.09537 30.9036 9.18848 30.1253 9.49352L30.1739 8.95888C30.2504 8.11372 30.6637 7.36354 31.3376 6.84636C32.0033 6.33534 32.8223 6.13209 33.6451 6.27406C39.5838 7.30062 43.7723 9.74442 46.45 13.745C48.743 17.171 49.9057 21.8489 49.9057 27.6486C49.9057 31.201 49.0364 34.7277 47.3917 37.8475C45.7989 40.869 43.4829 43.5162 40.6942 45.5026C40.0768 45.9424 39.9327 46.7995 40.3726 47.4169C40.6403 47.7928 41.0627 47.9933 41.4916 47.9933C41.7671 47.9933 42.0452 47.9106 42.2867 47.7386C45.423 45.5044 48.0281 42.5268 49.8199 39.1278C51.6719 35.6148 52.6508 31.6453 52.6508 27.6486C52.6508 21.2956 51.3321 16.104 48.7312 12.218V12.218Z" fill="url(#paint2_linear_2_5800)"/>
<path d="M28.0003 26.5503C31.1938 26.5503 33.7828 23.9614 33.7828 20.7678C33.7828 17.5743 31.1938 14.9854 28.0003 14.9854C24.8067 14.9854 22.2178 17.5743 22.2178 20.7678C22.2178 23.9614 24.8067 26.5503 28.0003 26.5503Z" fill="url(#paint3_linear_2_5800)"/>
<path d="M22.2183 20.8618C22.2416 22.3102 22.8055 23.7516 23.9108 24.8569C26.169 27.1152 29.8303 27.1152 32.0884 24.8569C33.1937 23.7516 33.7577 22.3104 33.781 20.8618H22.2183Z" fill="url(#paint4_linear_2_5800)"/>
<path d="M0 28.0003C0 37.4157 4.64756 45.7447 11.7735 50.8201C15.3735 53.3841 20.348 50.7728 20.3327 46.3529C20.3326 46.3188 20.3325 46.2846 20.3325 46.2505C20.3325 37.9948 21.7156 31.3021 27.9999 31.3021C34.2842 31.3021 35.6673 37.9948 35.6673 46.2505C35.6673 46.2846 35.6673 46.3188 35.6671 46.3529C35.6518 50.7727 40.6262 53.3841 44.2263 50.8201C51.3524 45.7447 56 37.4157 56 28.0003C56 26.3193 55.9403 24.6731 55.8043 23.0737H0.195671C0.0597333 24.6731 0 26.3193 0 28.0003H0Z" fill="url(#paint5_linear_2_5800)"/>
</g>
<defs>
<linearGradient id="paint0_linear_2_5800" x1="25.3416" y1="30.1379" x2="46.7812" y2="63.1628" gradientUnits="userSpaceOnUse">
<stop stop-color="#5A5A5A"/>
<stop offset="1" stop-color="#444444"/>
</linearGradient>
<linearGradient id="paint1_linear_2_5800" x1="12.2111" y1="10.7397" x2="61.0769" y2="59.6055" gradientUnits="userSpaceOnUse">
<stop stop-color="#FE9738"/>
<stop offset="1" stop-color="#FD4755"/>
</linearGradient>
<linearGradient id="paint2_linear_2_5800" x1="10.8912" y1="9.64208" x2="45.9756" y2="44.7265" gradientUnits="userSpaceOnUse">
<stop stop-color="#FFDFCF"/>
<stop offset="1" stop-color="#FFA78F"/>
</linearGradient>
<linearGradient id="paint3_linear_2_5800" x1="24.5072" y1="17.2747" x2="32.7829" y2="25.5504" gradientUnits="userSpaceOnUse">
<stop stop-color="#EAF6FF"/>
<stop offset="1" stop-color="#B3DAFE"/>
</linearGradient>
<linearGradient id="paint4_linear_2_5800" x1="27.9997" y1="21.5931" x2="27.9997" y2="26.0982" gradientUnits="userSpaceOnUse">
<stop stop-color="#D8ECFE" stop-opacity="0"/>
<stop offset="0.7867" stop-color="#9BD1FE" stop-opacity="0.787"/>
<stop offset="1" stop-color="#8AC9FE"/>
</linearGradient>
<linearGradient id="paint5_linear_2_5800" x1="28" y1="27.4513" x2="28" y2="54.0973" gradientUnits="userSpaceOnUse">
<stop stop-color="#FE7701" stop-opacity="0"/>
<stop offset="1" stop-color="#AC2538"/>
</linearGradient>
<clipPath id="clip0_2_5800">
<rect width="56" height="56" fill="white"/>
</clipPath>
</defs>
</svg>
