<svg width="17" height="21" viewBox="0 0 17 21" fill="none" xmlns="http://www.w3.org/2000/svg">
<path fill-rule="evenodd" clip-rule="evenodd" d="M8.48362 0C9.61662 0 15.5616 2.041 16.3486 2.828C17.0046 3.484 16.9946 4.014 16.9486 6.554C16.9306 7.572 16.9056 8.959 16.9056 10.879C16.9056 17.761 9.03562 20.223 8.70062 20.324C8.62962 20.346 8.55662 20.356 8.48362 20.356C8.41062 20.356 8.33762 20.346 8.26662 20.324C7.93162 20.223 0.061623 17.761 0.061623 10.879C0.061623 8.962 0.036623 7.575 0.018623 6.557C0.0104088 6.10289 0.00334243 5.71298 0.00101713 5.37507L0.000732422 4.99377C0.00931055 3.74113 0.126873 3.32 0.619623 2.828C1.40462 2.041 7.34962 0 8.48362 0ZM8.48362 1.5C7.63562 1.5 2.28562 3.384 1.66862 3.899C1.48662 4.082 1.47962 4.4 1.51862 6.529C1.53662 7.555 1.56162 8.949 1.56162 10.879C1.56162 16.08 7.28362 18.389 8.48262 18.814C9.68062 18.387 15.4056 16.065 15.4056 10.879C15.4056 8.947 15.4306 7.552 15.4496 6.526C15.4876 4.399 15.4806 4.081 15.2876 3.889C14.6826 3.384 9.33162 1.5 8.48362 1.5ZM12.2051 7.3395C12.4981 7.6325 12.4981 8.1075 12.2051 8.4005L8.30712 12.2995C8.19512 12.4123 8.05048 12.4854 7.89522 12.5102L7.77712 12.5195C7.57812 12.5195 7.38712 12.4405 7.24612 12.2995L5.35412 10.4055C5.06212 10.1125 5.06212 9.6365 5.35512 9.3445C5.64712 9.0515 6.12312 9.0515 6.41612 9.3445L7.77712 10.7075L11.1451 7.3395C11.4381 7.0465 11.9121 7.0465 12.2051 7.3395Z" fill="url(#paint0_linear_2_134)"/>
<defs>
<linearGradient id="paint0_linear_2_134" x1="0.000732422" y1="0" x2="20.0237" y2="16.6887" gradientUnits="userSpaceOnUse">
<stop stop-color="#FC5A44"/>
<stop offset="1" stop-color="#C41432"/>
</linearGradient>
</defs>
</svg>
