<svg width="56" height="56" viewBox="0 0 56 56" fill="none" xmlns="http://www.w3.org/2000/svg">
<g clip-path="url(#clip0_2_5809)">
<path d="M43.981 0.0929944L43.6957 0.0637865C40.3936 -0.275068 37.1164 0.749073 34.5287 2.82821C30.3855 6.15724 24.3041 5.51852 20.9444 1.39033L20.3106 0.611488C19.8337 0.0253552 18.9659 -0.104213 18.3711 0.361904C17.7651 0.836916 17.6689 1.71436 18.1528 2.30895L18.8153 3.12303C23.1399 8.43666 31.0032 9.21825 36.326 4.90493C38.3308 3.28038 40.8477 2.53086 43.4155 2.79439L43.7008 2.82371C49.5364 3.42258 53.7967 8.65737 53.1978 14.493C52.8091 18.2808 50.1146 20.3943 47.7225 21.1092C45.3306 21.8242 41.9181 21.5358 39.5147 18.5827L39.5148 18.5825L38.3346 17.1332C37.856 16.5455 36.9915 16.457 36.4036 16.9356C35.816 17.4141 35.7273 18.2784 36.2058 18.8662L37.3853 20.3156L37.3854 20.3155C39.1974 22.5419 41.6886 23.8677 44.3709 24.143C45.7222 24.2817 47.1228 24.1536 48.5084 23.7394C52.6445 22.5032 55.4877 19.0676 55.9283 14.7732C56.682 7.43196 51.3224 0.846469 43.981 0.0929944V0.0929944Z" fill="url(#paint0_linear_2_5809)"/>
<path d="M48.8622 20.6677C48.4816 20.8501 48.0985 20.997 47.7228 21.1093C45.3308 21.8243 41.9183 21.5358 39.5149 18.5828L39.515 18.5826L38.3349 17.1333C37.8562 16.5456 36.9916 16.4571 36.4039 16.9357C35.8162 17.4142 35.7276 18.2785 36.206 18.8663L37.3855 20.3157L37.3856 20.3156C39.1976 22.542 41.6888 23.8678 44.3712 24.1431C45.7226 24.2818 47.1231 24.1537 48.5087 23.7395C48.6277 23.7039 48.7452 23.6661 48.8621 23.6269V20.6677H48.8622Z" fill="url(#paint1_linear_2_5809)"/>
<path d="M24.6655 52.6252C24.6655 54.4177 23.016 55.762 21.2624 55.3902C17.1886 54.5264 13.3106 52.5128 10.1462 49.3485C8.46338 47.6656 7.10741 45.7807 6.07547 43.7722C5.98532 43.5969 6.22502 43.4406 6.35009 43.5931C6.70904 44.0308 7.09269 44.4549 7.50095 44.8631C11.3355 48.6977 16.5255 50.3496 21.5285 49.8189C23.2027 49.6412 24.6655 50.9415 24.6655 52.6252Z" fill="url(#paint2_linear_2_5809)"/>
<path d="M18.9406 49.8975C14.7818 49.7158 10.6763 48.0387 7.5007 44.8631C7.09245 44.4548 6.70879 44.0308 6.34985 43.5931C6.22478 43.4407 5.98508 43.5968 6.07523 43.7722C7.10716 45.7807 8.46313 47.6656 10.146 49.3485C12.7026 51.9051 15.7252 53.7101 18.9405 54.7649V49.8975H18.9406Z" fill="url(#paint3_linear_2_5809)"/>
<path d="M21.6376 47.588C21.6376 48.8976 20.5551 49.9434 19.2459 49.9093C14.9834 49.7981 10.754 48.1157 7.50116 44.8629C6.75339 44.1151 6.08919 43.3154 5.50767 42.4755C5.40324 42.3248 5.60814 42.1557 5.7376 42.2856L5.7511 42.2991C9.22102 45.769 14.2068 46.7983 18.5762 45.3875C20.0867 44.9 21.6376 46.0009 21.6376 47.588V47.588Z" fill="url(#paint4_linear_2_5809)"/>
<path d="M14.9881 45.9944C11.6545 46.0742 8.29537 44.8437 5.7511 42.2996C5.7466 42.2951 5.7421 42.2906 5.7376 42.2861C5.60814 42.1562 5.40324 42.3253 5.50767 42.476C6.08919 43.3159 6.7535 44.1156 7.50116 44.8634C9.6588 47.021 12.2464 48.487 14.9881 49.2624V45.9944Z" fill="url(#paint5_linear_2_5809)"/>
<path d="M13.9087 55.3209C12.9826 56.247 11.4776 56.221 10.576 55.2712C7.6406 52.1786 5.8396 47.9982 5.8396 43.398C5.8396 42.3406 5.93535 41.3054 6.11806 40.3003C6.15089 40.1198 6.41519 40.1452 6.41497 40.3287V40.3478C6.41497 45.2549 9.21256 49.5082 13.2998 51.6003C14.7126 52.3234 15.0308 54.1986 13.9087 55.3209Z" fill="url(#paint6_linear_2_5809)"/>
<path d="M5.8396 43.3983C5.8396 46.7101 6.77315 49.8042 8.39134 52.4315H14.2177C14.0015 52.0927 13.6932 51.8019 13.2999 51.6006C9.21399 49.5093 6.41695 45.2581 6.41508 40.353H6.10917C5.93249 41.3417 5.8396 42.3592 5.8396 43.3983Z" fill="url(#paint7_linear_2_5809)"/>
<path d="M12.9743 31.8263C13.63 31.1705 14.6934 31.1705 15.3491 31.8263L16.8574 33.3346C18.0398 34.5169 18.6909 36.089 18.6908 37.7611C18.6909 38.6886 17.9388 39.4403 17.0113 39.4402C16.0839 39.4402 15.3321 38.6883 15.3322 37.7608C15.3323 36.9859 15.0305 36.2573 14.4825 35.7094L12.9743 34.2011C12.3185 33.5454 12.3184 32.4821 12.9743 31.8263V31.8263Z" fill="url(#paint8_linear_2_5809)"/>
<path d="M17.0924 27.7082C17.7482 27.0523 18.8115 27.0523 19.4673 27.7082L20.9756 29.2165C22.1579 30.3988 22.8091 31.9709 22.809 33.643C22.8091 34.5705 22.057 35.3222 21.1295 35.3221C20.2021 35.3221 19.4503 34.5702 19.4504 33.6427C19.4505 32.8678 19.1486 32.1392 18.6007 31.5913L17.0924 30.083C16.4367 29.4273 16.4366 28.3641 17.0924 27.7082V27.7082Z" fill="url(#paint9_linear_2_5809)"/>
<path d="M21.2101 23.591C21.8659 22.9352 22.9292 22.9352 23.585 23.591L25.0932 25.0993C26.2756 26.2817 26.9267 27.8537 26.9266 29.5258C26.9267 30.4533 26.1747 31.2051 25.2472 31.2049C24.3198 31.2049 23.5679 30.453 23.5681 29.5255C23.5682 28.7506 23.2663 28.0221 22.7184 27.4741L21.2101 25.9659C20.5544 25.3101 20.5543 24.2469 21.2101 23.591V23.591Z" fill="url(#paint10_linear_2_5809)"/>
<path d="M12.9376 40.2365C12.9376 38.6306 13.2056 37.0873 13.6994 35.649C14.3017 33.8943 12.9834 32.0708 11.1282 32.0708H2.00024C2.00024 35.3632 2.08578 39.1171 2.7826 42.5141C3.5902 46.451 8.44255 47.9187 11.2843 45.0769C12.4021 43.9591 13.0184 42.427 12.9507 40.8476C12.942 40.6448 12.9376 40.4411 12.9376 40.2365V40.2365Z" fill="url(#paint11_linear_2_5809)"/>
<path d="M11.1282 32.0708H2.00024C2.00024 32.2368 2.00068 32.4049 2.00112 32.5732L2.01232 32.6198L12.5519 43.1594C12.8437 42.4325 12.9849 41.6461 12.9507 40.8477C12.942 40.6451 12.9376 40.4414 12.9376 40.2366C12.9376 38.6307 13.2056 37.0874 13.6994 35.6491C14.3017 33.8943 12.9834 32.0708 11.1282 32.0708V32.0708Z" fill="url(#paint12_linear_2_5809)"/>
<path d="M17.8799 26.2084L8.52943 16.8579C5.02624 20.3611 1.02729 25.0249 0.0359847 30.2232C-0.201082 31.4663 0.747404 32.6195 2.01289 32.6195H14.2116C15.0171 32.6195 15.7746 32.2562 16.2964 31.6425C16.7458 31.1139 17.2335 30.6189 17.7552 30.1618C18.9325 29.1298 18.9869 27.3154 17.8799 26.2084V26.2084Z" fill="url(#paint13_linear_2_5809)"/>
<path d="M0.0359847 30.2233C-0.201082 31.4664 0.747404 32.6196 2.01289 32.6196H14.2116C15.0171 32.6196 15.7746 32.2563 16.2964 31.6426C16.7458 31.114 17.2335 30.619 17.7552 30.1618C18.9325 29.1299 18.9869 27.3155 17.8799 26.2085L16.7798 25.1084H1.96546C1.06452 26.7345 0.37462 28.4476 0.0359847 30.2233V30.2233Z" fill="url(#paint14_linear_2_5809)"/>
<path d="M17.8795 26.2084L8.52902 16.8579C6.85583 18.5311 5.0702 20.4697 3.55249 22.6042L13.5678 32.6195H14.2112C15.0167 32.6195 15.7742 32.2562 16.296 31.6425C16.7454 31.1139 17.2331 30.6189 17.7548 30.1617C18.9321 29.1298 18.9865 27.3154 17.8795 26.2084V26.2084Z" fill="url(#paint15_linear_2_5809)"/>
<path d="M24.0719 25.1935V10.6587C18.8179 10.6587 12.4684 10.9565 8.2131 13.5521C7.09497 14.2342 6.89919 15.7761 7.82528 16.7023L18.564 27.441C19.3381 28.2151 20.5001 28.4447 21.5138 28.0312C21.7458 27.9365 21.9809 27.8479 22.2188 27.7655C23.3212 27.3837 24.0719 26.3603 24.0719 25.1935Z" fill="url(#paint16_linear_2_5809)"/>
<path d="M17.7884 26.6652L18.5642 27.441C19.3383 28.2151 20.5003 28.4447 21.514 28.0312C21.746 27.9365 21.9811 27.8479 22.219 27.7655C23.3214 27.3834 24.072 26.3602 24.072 25.1935V10.6587C22.0772 10.6587 19.9245 10.702 17.7883 10.8973V26.6652H17.7884Z" fill="url(#paint17_linear_2_5809)"/>
<path d="M11.3813 20.2588L18.5637 27.4412C19.3379 28.2153 20.4998 28.4449 21.5135 28.0314C21.7455 27.9367 21.9806 27.8481 22.2186 27.7656C23.321 27.3836 24.0715 26.3604 24.0715 25.1937V20.2588H11.3813Z" fill="url(#paint18_linear_2_5809)"/>
<path d="M37.3389 23.3015C40.5573 20.8898 40.4284 16.0373 37.1039 13.774C33.3165 11.1956 29.2048 9.32259 25.926 8.69561C24.6797 8.45734 23.522 9.40209 23.522 10.6711V24.2777C23.522 25.7879 24.755 26.9936 26.2652 26.9906H26.2673C30.2593 26.9899 34.1443 25.6953 37.3389 23.3015Z" fill="url(#paint19_linear_2_5809)"/>
<path d="M30.7696 19.1924C29.7214 19.1924 28.8716 18.3426 28.8716 17.2943V16.3209C28.8716 15.2726 29.7214 14.4229 30.7696 14.4229C31.8179 14.4229 32.6677 15.2726 32.6677 16.3209V17.2943C32.6677 18.3426 31.8178 19.1924 30.7696 19.1924Z" fill="url(#paint20_linear_2_5809)"/>
<path d="M23.522 19.9111V24.2776C23.522 25.7879 24.755 26.9935 26.2652 26.9905H26.2673C30.2593 26.99 34.1444 25.6954 37.339 23.3016C38.5193 22.4171 39.2474 21.2041 39.5349 19.9112H23.522V19.9111Z" fill="url(#paint21_linear_2_5809)"/>
<path d="M2.1228 37.1134C2.22953 38.9338 2.42542 40.7706 2.78294 42.5137C3.59055 46.4506 8.4429 47.9182 11.2846 45.0764C12.4024 43.9585 13.0188 42.4265 12.951 40.8471C12.9423 40.6445 12.9379 40.4408 12.9379 40.236C12.9379 39.1629 13.0583 38.1179 13.285 37.1133H2.1228V37.1134Z" fill="url(#paint22_linear_2_5809)"/>
</g>
<defs>
<linearGradient id="paint0_linear_2_5809" x1="32.6949" y1="0.831206" x2="54.1874" y2="22.3237" gradientUnits="userSpaceOnUse">
<stop stop-color="#FD4755"/>
<stop offset="1" stop-color="#D2024E"/>
</linearGradient>
<linearGradient id="paint1_linear_2_5809" x1="46.0276" y1="22.4328" x2="39.4028" y2="19.3949" gradientUnits="userSpaceOnUse">
<stop stop-color="#C00148" stop-opacity="0"/>
<stop offset="0.3112" stop-color="#AA0E3F" stop-opacity="0.311"/>
<stop offset="0.9578" stop-color="#713028" stop-opacity="0.958"/>
<stop offset="1" stop-color="#6D3326"/>
</linearGradient>
<linearGradient id="paint2_linear_2_5809" x1="15.9694" y1="47.3435" x2="13.3341" y2="52.3213" gradientUnits="userSpaceOnUse">
<stop stop-color="#FD4755"/>
<stop offset="1" stop-color="#D2024E"/>
</linearGradient>
<linearGradient id="paint3_linear_2_5809" x1="15.5964" y1="49.8385" x2="6.75722" y2="47.8071" gradientUnits="userSpaceOnUse">
<stop stop-color="#C00148" stop-opacity="0"/>
<stop offset="0.3112" stop-color="#AA0E3F" stop-opacity="0.311"/>
<stop offset="0.9578" stop-color="#713028" stop-opacity="0.958"/>
<stop offset="1" stop-color="#6D3326"/>
</linearGradient>
<linearGradient id="paint4_linear_2_5809" x1="13.5013" y1="45.3454" x2="12.6229" y2="48.5663" gradientUnits="userSpaceOnUse">
<stop stop-color="#FD4755"/>
<stop offset="1" stop-color="#D2024E"/>
</linearGradient>
<linearGradient id="paint5_linear_2_5809" x1="13.7343" y1="47.1663" x2="9.61664" y2="45.5192" gradientUnits="userSpaceOnUse">
<stop stop-color="#C00148" stop-opacity="0"/>
<stop offset="0.3112" stop-color="#AA0E3F" stop-opacity="0.311"/>
<stop offset="0.9578" stop-color="#713028" stop-opacity="0.958"/>
<stop offset="1" stop-color="#6D3326"/>
</linearGradient>
<linearGradient id="paint6_linear_2_5809" x1="10.7056" y1="47.3429" x2="6.45989" y2="50.1978" gradientUnits="userSpaceOnUse">
<stop stop-color="#FD4755"/>
<stop offset="1" stop-color="#D2024E"/>
</linearGradient>
<linearGradient id="paint7_linear_2_5809" x1="10.4548" y1="50.9697" x2="5.40378" y2="43.3932" gradientUnits="userSpaceOnUse">
<stop stop-color="#C00148" stop-opacity="0"/>
<stop offset="0.3112" stop-color="#AA0E3F" stop-opacity="0.311"/>
<stop offset="0.9578" stop-color="#713028" stop-opacity="0.958"/>
<stop offset="1" stop-color="#6D3326"/>
</linearGradient>
<linearGradient id="paint8_linear_2_5809" x1="17.7077" y1="33.3362" x2="14.3769" y2="36.5572" gradientUnits="userSpaceOnUse">
<stop stop-color="#FD4755"/>
<stop offset="1" stop-color="#D2024E"/>
</linearGradient>
<linearGradient id="paint9_linear_2_5809" x1="21.8259" y1="29.2181" x2="18.4951" y2="32.4391" gradientUnits="userSpaceOnUse">
<stop stop-color="#FD4755"/>
<stop offset="1" stop-color="#D2024E"/>
</linearGradient>
<linearGradient id="paint10_linear_2_5809" x1="25.9436" y1="25.1009" x2="22.6128" y2="28.3219" gradientUnits="userSpaceOnUse">
<stop stop-color="#FD4755"/>
<stop offset="1" stop-color="#D2024E"/>
</linearGradient>
<linearGradient id="paint11_linear_2_5809" x1="-5.45193" y1="24.9188" x2="8.46634" y2="38.8372" gradientUnits="userSpaceOnUse">
<stop stop-color="#FE9738"/>
<stop offset="1" stop-color="#FD4755"/>
</linearGradient>
<linearGradient id="paint12_linear_2_5809" x1="7.92362" y1="45.093" x2="7.92362" y2="31.1043" gradientUnits="userSpaceOnUse">
<stop stop-color="#FE7701" stop-opacity="0"/>
<stop offset="1" stop-color="#AC2538"/>
</linearGradient>
<linearGradient id="paint13_linear_2_5809" x1="3.19559" y1="23.0796" x2="19.6401" y2="39.5242" gradientUnits="userSpaceOnUse">
<stop stop-color="#FE9738"/>
<stop offset="1" stop-color="#FD4755"/>
</linearGradient>
<linearGradient id="paint14_linear_2_5809" x1="9.35713" y1="27.8375" x2="9.284" y2="33.5473" gradientUnits="userSpaceOnUse">
<stop stop-color="#FE7701" stop-opacity="0"/>
<stop offset="1" stop-color="#AC2538"/>
</linearGradient>
<linearGradient id="paint15_linear_2_5809" x1="9.67834" y1="26.1959" x2="14.8757" y2="22.6089" gradientUnits="userSpaceOnUse">
<stop stop-color="#FE7701" stop-opacity="0"/>
<stop offset="1" stop-color="#AC2538"/>
</linearGradient>
<linearGradient id="paint16_linear_2_5809" x1="8.89147" y1="6.6234" x2="23.569" y2="21.301" gradientUnits="userSpaceOnUse">
<stop stop-color="#FE9738"/>
<stop offset="1" stop-color="#FD4755"/>
</linearGradient>
<linearGradient id="paint17_linear_2_5809" x1="18.8865" y1="19.4464" x2="25.1104" y2="19.4464" gradientUnits="userSpaceOnUse">
<stop stop-color="#FE7701" stop-opacity="0"/>
<stop offset="1" stop-color="#AC2538"/>
</linearGradient>
<linearGradient id="paint18_linear_2_5809" x1="17.7265" y1="21.1921" x2="17.7265" y2="28.0496" gradientUnits="userSpaceOnUse">
<stop stop-color="#C00148" stop-opacity="0"/>
<stop offset="0.1884" stop-color="#B90645" stop-opacity="0.188"/>
<stop offset="0.4744" stop-color="#A4123C" stop-opacity="0.474"/>
<stop offset="0.8206" stop-color="#82262E" stop-opacity="0.821"/>
<stop offset="1" stop-color="#6D3326"/>
</linearGradient>
<linearGradient id="paint19_linear_2_5809" x1="21.9447" y1="11.1419" x2="41.5342" y2="30.7314" gradientUnits="userSpaceOnUse">
<stop stop-color="#FE9738"/>
<stop offset="1" stop-color="#FD4755"/>
</linearGradient>
<linearGradient id="paint20_linear_2_5809" x1="28.8716" y1="16.8077" x2="32.6677" y2="16.8077" gradientUnits="userSpaceOnUse">
<stop stop-color="#5A5A5A"/>
<stop offset="1" stop-color="#444444"/>
</linearGradient>
<linearGradient id="paint21_linear_2_5809" x1="31.5284" y1="21.1557" x2="31.5284" y2="26.7497" gradientUnits="userSpaceOnUse">
<stop stop-color="#FE7701" stop-opacity="0"/>
<stop offset="1" stop-color="#AC2538"/>
</linearGradient>
<linearGradient id="paint22_linear_2_5809" x1="7.70403" y1="39.1997" x2="7.70403" y2="46.0802" gradientUnits="userSpaceOnUse">
<stop stop-color="#C00148" stop-opacity="0"/>
<stop offset="0.3112" stop-color="#AA0E3F" stop-opacity="0.311"/>
<stop offset="0.9578" stop-color="#713028" stop-opacity="0.958"/>
<stop offset="1" stop-color="#6D3326"/>
</linearGradient>
<clipPath id="clip0_2_5809">
<rect width="56" height="56" fill="white"/>
</clipPath>
</defs>
</svg>
