<svg width="32" height="32" viewBox="0 0 32 32" fill="none" xmlns="http://www.w3.org/2000/svg">
<path d="M22.543 2.08159C17.7956 1.46653 10.324 1.83347 7.40684 2.10016C6.56209 2.17741 6.10872 3.12984 6.57928 3.83559C8.02159 5.99877 10.2014 9.95077 8.77952 12.3503C6.78047 15.7237 2.8176 19.8335 6.65753 29.0205C6.79503 29.3494 7.0729 29.6006 7.41415 29.7035C8.67252 30.0827 11.9652 30.8135 15.6473 29.5199C15.6473 29.5199 19.8691 30.5753 22.9074 29.6457C23.1516 29.571 23.3661 29.4231 23.5209 29.2199C24.5551 27.8622 28.3394 22.0144 23.787 14.1308C21.1856 9.62595 22.8987 5.97627 23.4827 3.44928C23.6319 2.80422 23.1997 2.16672 22.543 2.08159Z" fill="url(#paint0_linear_2_2598)"/>
<path d="M22.9075 29.6457C23.1517 29.571 23.3663 29.4231 23.521 29.2199C24.4929 27.9441 27.8921 22.7036 24.522 15.5352C21.2563 19.3211 15.6475 21.4577 15.6475 21.4577V29.5198C15.6474 29.5198 19.8692 30.5753 22.9075 29.6457Z" fill="url(#paint1_linear_2_2598)"/>
<path d="M24.2858 15.1901C22.4864 16.9416 20.3644 17.9296 18.1559 18.3148C16.3863 18.6232 14.515 18.5086 12.5938 17.974C9.29665 17.0565 7.09797 15.2905 7.07503 15.2714C6.84241 15.0776 6.24153 15.9886 6.45228 16.2308C6.61572 16.4186 13.1381 19.8881 15.0335 23.9908C15.2695 24.5015 15.9365 24.6282 16.3336 24.2295C16.7748 23.7864 17.7266 23.1689 18.7028 22.4435C20.809 20.8791 23.3958 18.2259 24.3658 16.9091C24.5769 16.6225 24.7033 16.3231 24.7715 16.0561C24.8786 15.6371 24.5111 14.9709 24.2858 15.1901Z" fill="url(#paint2_linear_2_2598)"/>
<path d="M15.8079 15.9088C15.9975 15.9088 16.1512 15.5553 16.1512 15.1192C16.1512 14.6831 15.9975 14.3296 15.8079 14.3296C15.6183 14.3296 15.4646 14.6831 15.4646 15.1192C15.4646 15.5553 15.6183 15.9088 15.8079 15.9088Z" fill="url(#paint3_linear_2_2598)"/>
<path d="M7.3363 9.74399L5.70149 8.10925C5.35649 7.76425 4.76674 8.00863 4.76674 8.49644C4.76674 8.79887 4.52162 9.044 4.21918 9.044H0.547561C0.245125 9.044 0 9.28912 0 9.59156V10.6707C0 10.9731 0.245125 11.2182 0.547561 11.2182H4.21918C4.52162 11.2182 4.76674 11.4634 4.76674 11.7658C4.76674 12.2536 5.35655 12.498 5.70149 12.153L7.33624 10.5182C7.55011 10.3046 7.55011 9.95787 7.3363 9.74399Z" fill="url(#paint4_linear_2_2598)"/>
<path d="M24.6638 9.74399L26.2986 8.10925C26.6436 7.76425 27.2333 8.00863 27.2333 8.49644C27.2333 8.79887 27.4784 9.044 27.7809 9.044H31.4525C31.7549 9.044 32.0001 9.28912 32.0001 9.59156V10.6707C32.0001 10.9731 31.7549 11.2182 31.4525 11.2182H27.7809C27.4784 11.2182 27.2333 11.4634 27.2333 11.7658C27.2333 12.2536 26.6435 12.498 26.2986 12.153L24.6638 10.5182C24.4499 10.3046 24.4499 9.95787 24.6638 9.74399Z" fill="url(#paint5_linear_2_2598)"/>
<defs>
<linearGradient id="paint0_linear_2_2598" x1="15.647" y1="16.0005" x2="34.3427" y2="16.0005" gradientUnits="userSpaceOnUse">
<stop stop-color="#FFE7A5"/>
<stop offset="0.966" stop-color="#FFBF5C"/>
</linearGradient>
<linearGradient id="paint1_linear_2_2598" x1="22.8412" y1="25.2846" x2="11.6728" y2="14.1163" gradientUnits="userSpaceOnUse">
<stop stop-color="#FF5D00" stop-opacity="0"/>
<stop offset="1" stop-color="#D54003"/>
</linearGradient>
<linearGradient id="paint2_linear_2_2598" x1="17.3522" y1="17.5867" x2="21.8967" y2="22.1318" gradientUnits="userSpaceOnUse">
<stop stop-color="#FF7BAC"/>
<stop offset="1" stop-color="#E24786"/>
</linearGradient>
<linearGradient id="paint3_linear_2_2598" x1="22.6919" y1="16.5563" x2="-0.149287" y2="11.7896" gradientUnits="userSpaceOnUse">
<stop stop-color="#FF5D00" stop-opacity="0"/>
<stop offset="1" stop-color="#D54003"/>
</linearGradient>
<linearGradient id="paint4_linear_2_2598" x1="3.74825" y1="10.0654" x2="3.74825" y2="12.1541" gradientUnits="userSpaceOnUse">
<stop stop-color="#FF931E"/>
<stop offset="1" stop-color="#FF5D00"/>
</linearGradient>
<linearGradient id="paint5_linear_2_2598" x1="28.2512" y1="10.0654" x2="28.2512" y2="12.1541" gradientUnits="userSpaceOnUse">
<stop stop-color="#FF931E"/>
<stop offset="1" stop-color="#FF5D00"/>
</linearGradient>
</defs>
</svg>
