<svg width="56" height="56" viewBox="0 0 56 56" fill="none" xmlns="http://www.w3.org/2000/svg">
<g clip-path="url(#clip0_2_5834)">
<path d="M28.0004 50.8749C21.0577 50.8749 14.6863 50.1904 9.69556 49.0493C10.4136 50.9402 11.7625 52.3703 13.4258 52.828C17.1798 53.861 22.3244 54.4981 28.0004 54.4981C33.6764 54.4981 38.821 53.861 42.575 52.828C44.2383 52.3703 45.5873 50.9402 46.3053 49.0493C41.3146 50.1905 34.9431 50.8749 28.0004 50.8749V50.8749Z" fill="url(#paint0_linear_2_5834)"/>
<path d="M56 45.5125C56 55.1118 0 55.1118 0 45.5125C0 35.9132 56 35.9131 56 45.5125Z" fill="url(#paint1_linear_2_5834)"/>
<path d="M52.1572 44.8086C52.1572 51.6525 3.84351 51.6525 3.84351 44.8086C3.84351 37.9648 52.1572 37.9649 52.1572 44.8086Z" fill="url(#paint2_linear_2_5834)"/>
<path d="M56.0001 45.5127C56.0001 38.4431 25.6269 36.5804 9.61816 39.9239C10.5321 41.3524 11.5878 42.6963 12.7773 43.9317L23.1931 54.3415C24.7362 54.4438 26.3452 54.4983 27.9999 54.4983C33.6759 54.4983 38.8206 53.8612 42.5745 52.8281C43.44 52.59 44.2191 52.0869 44.8697 51.3942C51.4149 50.2194 56.0001 48.2592 56.0001 45.5127V45.5127Z" fill="url(#paint3_linear_2_5834)"/>
<path d="M28.0004 45.8375C23.1612 45.8375 18.7203 45.1557 15.2417 44.019C15.7422 45.9026 16.6824 47.327 17.8417 47.7828C20.4583 48.8117 24.0441 49.4463 28.0004 49.4463C31.9566 49.4463 35.5425 48.8117 38.159 47.7828C39.3183 47.3269 40.2586 45.9025 40.759 44.019C37.2804 45.1557 32.8395 45.8375 28.0004 45.8375Z" fill="url(#paint4_linear_2_5834)"/>
<path d="M46.5896 32.7658C46.5896 33.5857 47.2542 34.2503 48.0741 34.2503H52.4636C54.2238 34.2503 55.651 32.8241 55.651 31.0629C55.651 30.1832 55.2937 29.3862 54.7171 28.8095C54.1404 28.2318 53.3442 27.8755 52.4636 27.8755H50.3955C50.3722 28.1997 50.3421 28.5231 50.3062 28.8444C50.214 29.6648 50.0829 30.4784 49.914 31.2814H48.0741C47.2542 31.2814 46.5896 31.9459 46.5896 32.7658Z" fill="url(#paint5_linear_2_5834)"/>
<path d="M46.5896 32.7658C46.5896 33.5857 47.2542 34.2503 48.0741 34.2503H52.4636C54.2238 34.2503 55.651 32.8241 55.651 31.0629C55.651 30.1832 55.2937 29.3862 54.7171 28.8095C54.1404 28.2318 53.3442 27.8755 52.4636 27.8755H50.3955C50.3722 28.1997 50.3421 28.5231 50.3062 28.8444C50.214 29.6648 50.0829 30.4784 49.914 31.2814H48.0741C47.2542 31.2814 46.5896 31.9459 46.5896 32.7658Z" fill="url(#paint6_linear_2_5834)"/>
<path d="M49.9143 31.2816H51.4444C52.1813 31.2816 52.7784 30.6845 52.7784 29.9476C52.7784 29.6437 52.6551 29.3679 52.456 29.168C52.2561 28.968 51.9812 28.8447 51.6764 28.8447H50.3065C50.2143 29.665 50.0832 30.4786 49.9143 31.2816V31.2816Z" fill="url(#paint7_linear_2_5834)"/>
<path d="M16.9408 46.2651C24.2236 47.8914 31.7753 47.8914 39.0581 46.2651C40.6442 45.9109 42.0947 45.1023 43.2221 43.9316C47.8455 39.1303 50.4659 32.6984 50.4659 25.9638V25.3353C50.4659 15.37 5.53296 15.37 5.53296 25.3353V25.9638C5.53296 32.6984 8.15343 39.1303 12.7768 43.9316C13.9041 45.1023 15.3546 45.9109 16.9408 46.2651V46.2651Z" fill="url(#paint8_linear_2_5834)"/>
<path d="M50.4659 25.3353C50.4659 35.3005 5.53296 35.3005 5.53296 25.3353C5.53296 15.37 50.4659 15.37 50.4659 25.3353Z" fill="url(#paint9_linear_2_5834)"/>
<path d="M48.1752 24.7965C48.1752 32.6905 7.82373 32.6905 7.82373 24.7965C7.82373 16.9025 48.1752 16.9025 48.1752 24.7965Z" fill="url(#paint10_linear_2_5834)"/>
<path d="M8.95386 26.9268C14.7625 31.9803 41.2374 31.9803 47.046 26.9268C41.2374 21.8733 14.7626 21.8733 8.95386 26.9268V26.9268Z" fill="url(#paint11_linear_2_5834)"/>
<path d="M41.3705 29.3625C41.4526 29.169 41.4958 28.9673 41.4958 28.757C41.4958 23.4768 14.5049 23.4768 14.5049 28.757C14.5049 28.9672 14.548 29.169 14.6302 29.3625C22.0722 31.1684 33.9284 31.1684 41.3705 29.3625Z" fill="url(#paint12_linear_2_5834)"/>
<path d="M16.7463 29.8067C17.7766 24.875 38.224 24.875 39.2543 29.8067C32.5612 31.0197 23.4393 31.0197 16.7463 29.8067V29.8067Z" fill="url(#paint13_linear_2_5834)"/>
<path d="M20.2225 28.1176C20.2225 28.737 17.1445 28.737 17.1445 28.1176C17.1445 27.4982 17.8335 26.9961 18.6835 26.9961C19.5335 26.9961 20.2225 27.4982 20.2225 28.1176V28.1176Z" fill="url(#paint14_linear_2_5834)"/>
<path d="M42.7094 26.393C42.7094 27.0124 39.6313 27.0124 39.6313 26.393C39.6313 25.7736 40.3204 25.2715 41.1704 25.2715C42.0204 25.2715 42.7094 25.7736 42.7094 26.393V26.393Z" fill="url(#paint15_linear_2_5834)"/>
<path d="M24.7488 30.6471C25.7112 30.6882 26.6834 30.7109 27.6572 30.7152C27.4637 30.257 26.8784 29.9238 26.1861 29.9238C25.5288 29.9238 24.9694 30.2246 24.7488 30.6471Z" fill="url(#paint16_linear_2_5834)"/>
<path d="M39.4214 28.3774C39.2429 28.2902 39.0274 28.3643 38.9404 28.5429C38.8532 28.7214 38.9273 28.9368 39.1058 29.0239C39.2844 29.1111 39.4998 29.037 39.5868 28.8584C39.674 28.68 39.5999 28.4646 39.4214 28.3774V28.3774Z" fill="#FFEAA2"/>
<path d="M41.8777 27.7867C41.7367 27.7178 41.5667 27.7764 41.4979 27.9173C41.429 28.0583 41.4875 28.2283 41.6285 28.2971C41.7695 28.3659 41.9395 28.3075 42.0083 28.1665C42.0771 28.0255 42.0185 27.8554 41.8777 27.7867Z" fill="#FFEAA2"/>
<path d="M41.4168 26.5199C41.3318 26.4783 41.2292 26.5136 41.1878 26.5986C41.1463 26.6836 41.1816 26.7861 41.2665 26.8275C41.3515 26.869 41.4541 26.8337 41.4955 26.7488C41.537 26.6638 41.5017 26.5612 41.4168 26.5199Z" fill="#FFEAA2"/>
<path d="M22.6719 24.7456C22.4733 24.7467 22.3131 24.9087 22.3142 25.1074C22.3153 25.306 22.4773 25.4663 22.6759 25.4652C22.8745 25.4641 23.0347 25.3021 23.0336 25.1035C23.0326 24.9047 22.8707 24.7445 22.6719 24.7456Z" fill="#FFEAA2"/>
<path d="M19.4846 26.1162C19.3278 26.1171 19.2013 26.2449 19.2022 26.4018C19.203 26.5586 19.3308 26.6851 19.4878 26.6842C19.6447 26.6834 19.771 26.5555 19.7702 26.3986C19.7693 26.2418 19.6415 26.1153 19.4846 26.1162Z" fill="#FFEAA2"/>
<path d="M24.3661 28.3584C24.2716 28.359 24.1954 28.436 24.1958 28.5306C24.1962 28.6251 24.2734 28.7014 24.368 28.7008C24.4625 28.7003 24.5387 28.6232 24.5383 28.5287C24.5377 28.434 24.4606 28.3579 24.3661 28.3584Z" fill="#FFEAA2"/>
<path d="M37.8022 25.8253C37.6602 25.8627 37.5754 26.0081 37.6129 26.1501C37.6503 26.292 37.7957 26.3768 37.9377 26.3393C38.0797 26.3019 38.1644 26.1565 38.127 26.0146C38.0895 25.8726 37.9441 25.7878 37.8022 25.8253Z" fill="#FFEAA2"/>
<path d="M37.3405 27.9103C37.2284 27.9398 37.1615 28.0546 37.1911 28.1667C37.2206 28.2788 37.3354 28.3456 37.4475 28.3161C37.5596 28.2866 37.6265 28.1717 37.5969 28.0597C37.5674 27.9477 37.4526 27.8808 37.3405 27.9103V27.9103Z" fill="#FFEAA2"/>
<path d="M40.7259 27.6673C40.6584 27.6851 40.618 27.7544 40.6358 27.8219C40.6536 27.8894 40.7227 27.9298 40.7904 27.912C40.8579 27.8942 40.8983 27.825 40.8805 27.7574C40.8627 27.6898 40.7935 27.6495 40.7259 27.6673Z" fill="#FFEAA2"/>
<path d="M18.1394 28.2065C17.9609 28.1193 17.7455 28.1934 17.6584 28.372C17.5712 28.5505 17.6453 28.7659 17.8239 28.853C18.0024 28.9402 18.2178 28.8661 18.3049 28.6875C18.3921 28.509 18.318 28.2937 18.1394 28.2065Z" fill="#FFEAA2"/>
<path d="M21.1165 26.6802C20.9755 26.6114 20.8055 26.6699 20.7366 26.8109C20.6678 26.9519 20.7263 27.1219 20.8673 27.1907C21.0083 27.2596 21.1783 27.201 21.2471 27.06C21.316 26.9191 21.2574 26.7491 21.1165 26.6802Z" fill="#FFEAA2"/>
<path d="M18.5877 25.4969C18.5027 25.4554 18.4001 25.4906 18.3587 25.5756C18.3172 25.6606 18.3525 25.7632 18.4374 25.8046C18.5224 25.8461 18.625 25.8108 18.6664 25.7258C18.7079 25.6409 18.6726 25.5384 18.5877 25.4969Z" fill="#FFEAA2"/>
<path d="M14.6825 26.6282C14.6814 26.4296 14.5194 26.2694 14.3206 26.2705C14.122 26.2716 13.9618 26.4336 13.9629 26.6322C13.964 26.8308 14.126 26.991 14.3247 26.9899C14.5235 26.9889 14.6836 26.827 14.6825 26.6282V26.6282Z" fill="#FFEAA2"/>
<path d="M14.6635 27.1831C14.5067 27.184 14.3802 27.3118 14.3811 27.4687C14.382 27.6255 14.5098 27.752 14.6667 27.7511C14.8235 27.7502 14.95 27.6224 14.9491 27.4655C14.9482 27.3087 14.8204 27.1822 14.6635 27.1831Z" fill="#FFEAA2"/>
<path d="M15.4901 27.4321C15.3956 27.4327 15.3194 27.5098 15.3198 27.6043C15.3204 27.6988 15.3975 27.775 15.492 27.7746C15.5865 27.7742 15.6627 27.697 15.6623 27.6024C15.6618 27.5079 15.5847 27.4316 15.4901 27.4321Z" fill="#FFEAA2"/>
<path d="M16.8229 24.7247C16.6809 24.7621 16.5962 24.9075 16.6336 25.0495C16.6711 25.1914 16.8164 25.2762 16.9584 25.2388C17.1004 25.2013 17.1851 25.0559 17.1477 24.914C17.1103 24.772 16.9649 24.6872 16.8229 24.7247Z" fill="#FFEAA2"/>
<path d="M15.6276 26.6276C15.5155 26.6571 15.4486 26.7719 15.4782 26.884C15.5077 26.9961 15.6225 27.063 15.7346 27.0334C15.8467 27.0039 15.9135 26.8891 15.884 26.777C15.8546 26.665 15.7397 26.598 15.6276 26.6276Z" fill="#FFEAA2"/>
<path d="M16.5736 26.5941C16.5061 26.6119 16.4657 26.681 16.4834 26.7487C16.5012 26.8162 16.5705 26.8566 16.6381 26.8388C16.7056 26.821 16.746 26.7518 16.7282 26.6842C16.7104 26.6166 16.6411 26.5762 16.5736 26.5941Z" fill="#FFEAA2"/>
<path d="M25.9049 26.393C25.9049 27.0124 22.8269 27.0124 22.8269 26.393C22.8269 25.7736 23.5159 25.2715 24.3659 25.2715C25.2159 25.2715 25.9049 25.7736 25.9049 26.393V26.393Z" fill="url(#paint17_linear_2_5834)"/>
<path d="M25.8627 25.0798C26.3915 25.5663 26.6695 26.2576 26.4834 26.6238C26.2974 26.99 25.7179 26.8923 25.1891 26.4058C24.6603 25.9192 23.6035 24.5113 23.7895 24.1451C23.9756 23.7789 25.3339 24.5931 25.8627 25.0798V25.0798Z" fill="url(#paint18_linear_2_5834)"/>
<path d="M26.6719 24.9962C26.7887 25.8898 26.5427 26.6634 26.1224 26.7242C25.7021 26.785 25.2666 26.1098 25.1497 25.2162C25.0329 24.3226 25.1068 22.2331 25.527 22.1723C25.9474 22.1116 26.5549 24.1026 26.6719 24.9962V24.9962Z" fill="url(#paint19_linear_2_5834)"/>
<path d="M29.3461 23.9452C29.2237 23.9392 29.1013 23.9528 28.9826 23.9835C28.2336 24.1768 25.3313 25.0325 25.2364 26.702C25.1757 27.7701 26.9403 28.1004 28.5155 28.1834C29.9538 28.2593 31.1949 27.4926 31.2792 26.4785C31.3737 25.3422 31.0958 24.0323 29.3461 23.9452V23.9452Z" fill="url(#paint20_linear_2_5834)"/>
<path d="M29.3609 23.9482C29.234 23.9354 29.1066 23.952 28.9831 23.9838C28.235 24.1769 25.3313 25.0326 25.2364 26.7025C25.1757 27.7707 26.9403 28.1009 28.5155 28.184C29.9347 28.2588 31.0595 24.1181 29.3609 23.9482Z" fill="url(#paint21_linear_2_5834)"/>
<path d="M36.9176 28.687C36.9176 29.3064 33.8396 29.3064 33.8396 28.687C33.8396 28.0676 34.5286 27.5654 35.3786 27.5654C36.2286 27.5654 36.9176 28.0676 36.9176 28.687V28.687Z" fill="url(#paint22_linear_2_5834)"/>
<path d="M8.92847 38.7812C9.98643 40.6396 11.2754 42.3721 12.7773 43.9317C13.9047 45.1025 15.3551 45.9111 16.9413 46.2653C24.224 47.8916 31.7758 47.8916 39.0584 46.2653C40.6446 45.9111 42.0951 45.1025 43.2224 43.9317C44.7243 42.3721 46.0133 40.6395 47.0713 38.7812H8.92847Z" fill="url(#paint23_linear_2_5834)"/>
<path d="M24.6024 47.3708C22.9323 47.2588 21.2655 47.0633 19.6096 46.7866C18.7169 46.6362 17.8275 46.4627 16.9414 46.2651C15.3547 45.9104 13.9042 45.1022 12.7776 43.9317C10.1379 41.191 8.15159 37.9189 6.93277 34.3623C6.59238 33.3708 6.31238 32.3562 6.09387 31.3252C6.09387 31.3219 6.09277 31.3175 6.09167 31.3131C6.09057 31.3021 6.08838 31.2922 6.08618 31.2812H7.9254C8.41951 31.2812 8.85544 31.5228 9.12555 31.894L24.6024 47.3708Z" fill="url(#paint24_linear_2_5834)"/>
<path d="M9.41009 32.7658C9.41009 33.5857 8.74545 34.2503 7.92554 34.2503H3.53613C1.77586 34.2503 0.348633 32.8241 0.348633 31.0629C0.348633 30.1832 0.705935 29.3862 1.28262 28.8095C1.85932 28.2318 2.6555 27.8755 3.53613 27.8755H5.60418C5.62746 28.1997 5.65754 28.5231 5.69345 28.8444C5.78568 29.6648 5.91679 30.4784 6.08567 31.2814H7.92554C8.74545 31.2814 9.41009 31.9459 9.41009 32.7658Z" fill="url(#paint25_linear_2_5834)"/>
<path d="M6.08556 31.2816H4.55544C3.81855 31.2816 3.22144 30.6845 3.22144 29.9476C3.22144 29.6437 3.34475 29.3679 3.54382 29.168C3.74377 28.968 4.01861 28.8447 4.32343 28.8447H5.69334C5.78558 29.665 5.91668 30.4786 6.08556 31.2816V31.2816Z" fill="url(#paint26_linear_2_5834)"/>
<path d="M35.8599 11.1032C35.728 10.753 36.0906 10.4255 36.4026 10.6116C37.5046 11.2692 39.1223 12.6224 39.1223 14.8996C39.1223 18.3531 35.1582 18.6786 35.1582 21.2367C35.1582 22.5496 35.3239 23.4561 35.4852 24.0277C35.5785 24.3584 35.2561 24.6497 34.9592 24.5022C33.9715 24.0119 32.4524 22.8155 32.4524 20.0945C32.4524 16.0628 36.3836 16.1227 36.3836 13.9184C36.3836 12.7672 36.1158 11.782 35.8599 11.1032V11.1032Z" fill="url(#paint27_linear_2_5834)"/>
<path d="M29.6497 1.72554C29.5636 1.57137 29.7939 1.43082 29.9483 1.54282C30.9954 2.30267 32.7662 3.9091 32.7662 6.08245C32.7662 9.16805 29.4148 10.0415 28.9682 12.4477C28.607 14.3941 29.4349 16.2886 29.8145 17.0245C29.8804 17.1522 29.7287 17.2817 29.5717 17.2324C28.4169 16.8695 25.3102 15.5246 25.7741 11.6501C26.2236 7.89663 29.5854 8.06803 30.182 5.6395C30.6105 3.89581 30.0825 2.50064 29.6497 1.72554V1.72554Z" fill="url(#paint28_linear_2_5834)"/>
<path d="M18.8584 11.9238C18.7407 11.6349 18.9873 11.3646 19.2273 11.5182C20.0752 12.0608 21.343 13.1774 21.4786 15.0566C21.6843 17.9062 18.7945 18.1749 18.9469 20.2858C19.0251 21.369 19.2006 22.1171 19.353 22.5888C19.4412 22.8616 19.222 23.102 18.9953 22.9804C18.2413 22.5758 17.0552 21.5886 16.8931 19.3432C16.653 16.0164 19.5416 16.0659 19.4103 14.2469C19.3417 13.297 19.0866 12.4839 18.8584 11.9238V11.9238Z" fill="url(#paint29_linear_2_5834)"/>
</g>
<defs>
<linearGradient id="paint0_linear_2_5834" x1="28.1047" y1="50.7702" x2="28.3243" y2="54.3937" gradientUnits="userSpaceOnUse">
<stop stop-color="#F8F6FB"/>
<stop offset="1" stop-color="#EFDCFB"/>
</linearGradient>
<linearGradient id="paint1_linear_2_5834" x1="26.1605" y1="38.5696" x2="30.4743" y2="54.8508" gradientUnits="userSpaceOnUse">
<stop stop-color="#F8F6FB"/>
<stop offset="1" stop-color="#EFDCFB"/>
</linearGradient>
<linearGradient id="paint2_linear_2_5834" x1="29.2048" y1="54.4439" x2="27.1185" y2="37.7537" gradientUnits="userSpaceOnUse">
<stop stop-color="#F8F6FB"/>
<stop offset="1" stop-color="#EFDCFB"/>
</linearGradient>
<linearGradient id="paint3_linear_2_5834" x1="37.9574" y1="54.9811" x2="13.7275" y2="-3.87378" gradientUnits="userSpaceOnUse">
<stop stop-color="#EFDCFB" stop-opacity="0"/>
<stop offset="0.0287" stop-color="#E9D6F7" stop-opacity="0.029"/>
<stop offset="0.2203" stop-color="#C5B5DE" stop-opacity="0.22"/>
<stop offset="0.4138" stop-color="#AA9BCB" stop-opacity="0.414"/>
<stop offset="0.6078" stop-color="#9688BD" stop-opacity="0.608"/>
<stop offset="0.8028" stop-color="#8A7DB5" stop-opacity="0.803"/>
<stop offset="1" stop-color="#8679B2"/>
</linearGradient>
<linearGradient id="paint4_linear_2_5834" x1="28.114" y1="45.8947" x2="28.3197" y2="49.2873" gradientUnits="userSpaceOnUse">
<stop stop-color="#F8F6FB"/>
<stop offset="1" stop-color="#EFDCFB"/>
</linearGradient>
<linearGradient id="paint5_linear_2_5834" x1="51.2009" y1="30.6107" x2="50.9827" y2="34.21" gradientUnits="userSpaceOnUse">
<stop stop-color="#F8F6FB"/>
<stop offset="1" stop-color="#EFDCFB"/>
</linearGradient>
<linearGradient id="paint6_linear_2_5834" x1="52.0849" y1="31.1943" x2="45.9359" y2="30.7412" gradientUnits="userSpaceOnUse">
<stop stop-color="#EFDCFB" stop-opacity="0"/>
<stop offset="0.0287" stop-color="#E9D6F7" stop-opacity="0.029"/>
<stop offset="0.2203" stop-color="#C5B5DE" stop-opacity="0.22"/>
<stop offset="0.4138" stop-color="#AA9BCB" stop-opacity="0.414"/>
<stop offset="0.6078" stop-color="#9688BD" stop-opacity="0.608"/>
<stop offset="0.8028" stop-color="#8A7DB5" stop-opacity="0.803"/>
<stop offset="1" stop-color="#8679B2"/>
</linearGradient>
<linearGradient id="paint7_linear_2_5834" x1="51.5775" y1="29.2983" x2="50.7037" y2="33.4732" gradientUnits="userSpaceOnUse">
<stop stop-color="#EFDCFB" stop-opacity="0"/>
<stop offset="0.0287" stop-color="#E9D6F7" stop-opacity="0.029"/>
<stop offset="0.2203" stop-color="#C5B5DE" stop-opacity="0.22"/>
<stop offset="0.4138" stop-color="#AA9BCB" stop-opacity="0.414"/>
<stop offset="0.6078" stop-color="#9688BD" stop-opacity="0.608"/>
<stop offset="0.8028" stop-color="#8A7DB5" stop-opacity="0.803"/>
<stop offset="1" stop-color="#8679B2"/>
</linearGradient>
<linearGradient id="paint8_linear_2_5834" x1="24.564" y1="19.9585" x2="36.6912" y2="48.2556" gradientUnits="userSpaceOnUse">
<stop stop-color="#F8F6FB"/>
<stop offset="1" stop-color="#EFDCFB"/>
</linearGradient>
<linearGradient id="paint9_linear_2_5834" x1="32.191" y1="40.9583" x2="28.3144" y2="26.5093" gradientUnits="userSpaceOnUse">
<stop stop-color="#F8F6FB"/>
<stop offset="1" stop-color="#EFDCFB"/>
</linearGradient>
<linearGradient id="paint10_linear_2_5834" x1="27.9994" y1="29.1094" x2="27.9994" y2="-0.161063" gradientUnits="userSpaceOnUse">
<stop stop-color="#EFDCFB" stop-opacity="0"/>
<stop offset="0.0287" stop-color="#E9D6F7" stop-opacity="0.029"/>
<stop offset="0.2203" stop-color="#C5B5DE" stop-opacity="0.22"/>
<stop offset="0.4138" stop-color="#AA9BCB" stop-opacity="0.414"/>
<stop offset="0.6078" stop-color="#9688BD" stop-opacity="0.608"/>
<stop offset="0.8028" stop-color="#8A7DB5" stop-opacity="0.803"/>
<stop offset="1" stop-color="#8679B2"/>
</linearGradient>
<linearGradient id="paint11_linear_2_5834" x1="28" y1="23.2435" x2="28" y2="32.8559" gradientUnits="userSpaceOnUse">
<stop stop-color="#FFD945"/>
<stop offset="0.3043" stop-color="#FFCD3E"/>
<stop offset="0.8558" stop-color="#FFAD2B"/>
<stop offset="1" stop-color="#FFA325"/>
</linearGradient>
<linearGradient id="paint12_linear_2_5834" x1="28.3556" y1="27.8142" x2="41.385" y2="-6.73565" gradientUnits="userSpaceOnUse">
<stop stop-color="#F82814" stop-opacity="0"/>
<stop offset="1" stop-color="#C0272D"/>
</linearGradient>
<linearGradient id="paint13_linear_2_5834" x1="27.9018" y1="28.547" x2="26.0248" y2="4.53359" gradientUnits="userSpaceOnUse">
<stop stop-color="#F82814" stop-opacity="0"/>
<stop offset="1" stop-color="#C0272D"/>
</linearGradient>
<linearGradient id="paint14_linear_2_5834" x1="18.5522" y1="27.6711" x2="19.1833" y2="29.5643" gradientUnits="userSpaceOnUse">
<stop stop-color="#FFDECF"/>
<stop offset="0.3791" stop-color="#FDC4B0"/>
<stop offset="0.7655" stop-color="#FBAE97"/>
<stop offset="1" stop-color="#FAA68E"/>
</linearGradient>
<linearGradient id="paint15_linear_2_5834" x1="41.0392" y1="25.9464" x2="41.6702" y2="27.8397" gradientUnits="userSpaceOnUse">
<stop stop-color="#FFDECF"/>
<stop offset="0.3791" stop-color="#FDC4B0"/>
<stop offset="0.7655" stop-color="#FBAE97"/>
<stop offset="1" stop-color="#FAA68E"/>
</linearGradient>
<linearGradient id="paint16_linear_2_5834" x1="26.1009" y1="30.3748" x2="26.5545" y2="31.7359" gradientUnits="userSpaceOnUse">
<stop stop-color="#FFDECF"/>
<stop offset="0.3791" stop-color="#FDC4B0"/>
<stop offset="0.7655" stop-color="#FBAE97"/>
<stop offset="1" stop-color="#FAA68E"/>
</linearGradient>
<linearGradient id="paint17_linear_2_5834" x1="23.7947" y1="25.2158" x2="24.8853" y2="27.3097" gradientUnits="userSpaceOnUse">
<stop stop-color="#FF6359"/>
<stop offset="0.2243" stop-color="#FE5B50"/>
<stop offset="0.5952" stop-color="#FC4637"/>
<stop offset="1" stop-color="#F82814"/>
</linearGradient>
<linearGradient id="paint18_linear_2_5834" x1="25.215" y1="25.1304" x2="24.7717" y2="26.0266" gradientUnits="userSpaceOnUse">
<stop stop-color="#BADA00"/>
<stop offset="0.2269" stop-color="#B0CE00"/>
<stop offset="0.6378" stop-color="#95AE00"/>
<stop offset="1" stop-color="#798C00"/>
</linearGradient>
<linearGradient id="paint19_linear_2_5834" x1="26.1343" y1="24.3992" x2="24.9386" y2="25.3426" gradientUnits="userSpaceOnUse">
<stop stop-color="#BADA00"/>
<stop offset="0.2269" stop-color="#B0CE00"/>
<stop offset="0.6378" stop-color="#95AE00"/>
<stop offset="1" stop-color="#798C00"/>
</linearGradient>
<linearGradient id="paint20_linear_2_5834" x1="28.0121" y1="25.4564" x2="28.8559" y2="28.0642" gradientUnits="userSpaceOnUse">
<stop stop-color="#A57C52"/>
<stop offset="0.1339" stop-color="#A26C4A"/>
<stop offset="0.5155" stop-color="#994336"/>
<stop offset="0.8174" stop-color="#942A2A"/>
<stop offset="1" stop-color="#922125"/>
</linearGradient>
<linearGradient id="paint21_linear_2_5834" x1="27.3145" y1="24.6214" x2="28.6738" y2="28.8448" gradientUnits="userSpaceOnUse">
<stop stop-color="#A57C52"/>
<stop offset="0.1339" stop-color="#A26C4A"/>
<stop offset="0.5155" stop-color="#994336"/>
<stop offset="0.8174" stop-color="#942A2A"/>
<stop offset="1" stop-color="#922125"/>
</linearGradient>
<linearGradient id="paint22_linear_2_5834" x1="34.8074" y1="27.5096" x2="35.898" y2="29.6036" gradientUnits="userSpaceOnUse">
<stop stop-color="#FF6359"/>
<stop offset="0.2243" stop-color="#FE5B50"/>
<stop offset="0.5952" stop-color="#FC4637"/>
<stop offset="1" stop-color="#F82814"/>
</linearGradient>
<linearGradient id="paint23_linear_2_5834" x1="27.9999" y1="42.1752" x2="27.9999" y2="55.0201" gradientUnits="userSpaceOnUse">
<stop stop-color="#EFDCFB" stop-opacity="0"/>
<stop offset="0.0287" stop-color="#E9D6F7" stop-opacity="0.029"/>
<stop offset="0.2203" stop-color="#C5B5DE" stop-opacity="0.22"/>
<stop offset="0.4138" stop-color="#AA9BCB" stop-opacity="0.414"/>
<stop offset="0.6078" stop-color="#9688BD" stop-opacity="0.608"/>
<stop offset="0.8028" stop-color="#8A7DB5" stop-opacity="0.803"/>
<stop offset="1" stop-color="#8679B2"/>
</linearGradient>
<linearGradient id="paint24_linear_2_5834" x1="13.7075" y1="39.3681" x2="-10.7239" y2="28.3877" gradientUnits="userSpaceOnUse">
<stop stop-color="#EFDCFB" stop-opacity="0"/>
<stop offset="0.0287" stop-color="#E9D6F7" stop-opacity="0.029"/>
<stop offset="0.2203" stop-color="#C5B5DE" stop-opacity="0.22"/>
<stop offset="0.4138" stop-color="#AA9BCB" stop-opacity="0.414"/>
<stop offset="0.6078" stop-color="#9688BD" stop-opacity="0.608"/>
<stop offset="0.8028" stop-color="#8A7DB5" stop-opacity="0.803"/>
<stop offset="1" stop-color="#8679B2"/>
</linearGradient>
<linearGradient id="paint25_linear_2_5834" x1="4.79877" y1="30.6107" x2="5.01694" y2="34.21" gradientUnits="userSpaceOnUse">
<stop stop-color="#F8F6FB"/>
<stop offset="1" stop-color="#EFDCFB"/>
</linearGradient>
<linearGradient id="paint26_linear_2_5834" x1="4.42236" y1="29.2983" x2="5.29618" y2="33.4732" gradientUnits="userSpaceOnUse">
<stop stop-color="#EFDCFB" stop-opacity="0"/>
<stop offset="0.0287" stop-color="#E9D6F7" stop-opacity="0.029"/>
<stop offset="0.2203" stop-color="#C5B5DE" stop-opacity="0.22"/>
<stop offset="0.4138" stop-color="#AA9BCB" stop-opacity="0.414"/>
<stop offset="0.6078" stop-color="#9688BD" stop-opacity="0.608"/>
<stop offset="0.8028" stop-color="#8A7DB5" stop-opacity="0.803"/>
<stop offset="1" stop-color="#8679B2"/>
</linearGradient>
<linearGradient id="paint27_linear_2_5834" x1="33.6695" y1="16.5986" x2="43.265" y2="21.1653" gradientUnits="userSpaceOnUse">
<stop stop-color="#E87264" stop-opacity="0"/>
<stop offset="1" stop-color="#F8DFBE"/>
</linearGradient>
<linearGradient id="paint28_linear_2_5834" x1="26.6091" y1="8.63813" x2="33.4071" y2="10.2376" gradientUnits="userSpaceOnUse">
<stop stop-color="#E87264" stop-opacity="0"/>
<stop offset="0.1575" stop-color="#E97869" stop-opacity="0.158"/>
<stop offset="0.3778" stop-color="#EC8B78" stop-opacity="0.378"/>
<stop offset="0.6353" stop-color="#F0A991" stop-opacity="0.635"/>
<stop offset="0.9188" stop-color="#F6D2B3" stop-opacity="0.919"/>
<stop offset="1" stop-color="#F8DFBE"/>
</linearGradient>
<linearGradient id="paint29_linear_2_5834" x1="16.972" y1="16.4134" x2="22.1692" y2="18.4388" gradientUnits="userSpaceOnUse">
<stop stop-color="#E87264" stop-opacity="0"/>
<stop offset="1" stop-color="#F8DFBE"/>
</linearGradient>
<clipPath id="clip0_2_5834">
<rect width="56" height="56" fill="white"/>
</clipPath>
</defs>
</svg>
