<svg width="32" height="32" viewBox="0 0 32 32" fill="none" xmlns="http://www.w3.org/2000/svg">
<g clip-path="url(#clip0_2_4772)">
<path d="M27.0695 30.516L27.0356 30.5253C19.8098 32.4916 12.19 32.4916 4.96431 30.5253L4.9305 30.516C3.42638 30.1067 2.53594 28.5778 2.88932 27.0596C4.37038 20.697 1.27601 14.3455 0.758259 7.98773C0.407884 3.68524 3.80582 0 8.12262 0H23.8773C28.1941 0 31.5921 3.68524 31.2416 7.98773C30.7239 14.3455 27.6296 20.697 29.1106 27.0596C29.464 28.5778 28.5735 30.1068 27.0695 30.516Z" fill="url(#paint0_linear_2_4772)"/>
<path d="M26.5893 30.0564L26.5569 30.0653C19.6447 31.9694 12.3553 31.9694 5.44302 30.0653L5.41064 30.0564C3.97183 29.66 3.12002 28.1795 3.45809 26.7094C4.8749 20.5482 1.91484 14.3978 1.41953 8.24133C1.0844 4.07497 4.3349 0.506348 8.46439 0.506348H23.5355C27.665 0.506348 30.9156 4.0749 30.5803 8.24121C30.085 14.3977 27.125 20.5481 28.5418 26.7093C28.8799 28.1795 28.0281 29.66 26.5893 30.0564Z" fill="url(#paint1_linear_2_4772)"/>
<path d="M23.1014 1.98389H8.8984C8.88253 1.98389 8.86665 1.98395 8.85078 1.98407C6.78672 1.9997 5.7741 4.72544 7.23359 6.30875L8.53466 7.72019C9.1109 8.34525 9.94815 8.57212 10.7379 8.35387C11.0542 8.2665 11.386 8.21987 11.7286 8.21987H20.2712C20.6138 8.21987 20.9456 8.2665 21.2619 8.35387C22.0516 8.57212 22.8889 8.34525 23.4651 7.72019L24.7662 6.30875C26.2257 4.72544 25.2131 1.9997 23.149 1.98407C23.1332 1.98395 23.1173 1.98389 23.1014 1.98389Z" fill="url(#paint2_linear_2_4772)"/>
<path d="M22.6922 2.40723H9.30793C9.29293 2.40723 9.278 2.40729 9.26306 2.40735C7.31794 2.42091 6.36369 4.78878 7.73912 6.16422L8.96525 7.39034C9.50825 7.93334 10.2973 8.1304 11.0415 7.94078C11.3396 7.86484 11.6522 7.82434 11.9751 7.82434H20.0252C20.348 7.82434 20.6607 7.86484 20.9588 7.94078C21.7029 8.1304 22.492 7.93334 23.035 7.39034L24.2612 6.16422C25.6366 4.78878 24.6823 2.42098 22.7372 2.40735C22.7221 2.40729 22.7072 2.40723 22.6922 2.40723Z" fill="url(#paint3_linear_2_4772)"/>
<path d="M2.8246 18.8252C3.31509 21.5689 3.52853 24.3133 2.88922 27.0598C2.53585 28.5779 3.42628 30.1068 4.9304 30.5161L4.96422 30.5253C12.19 32.4916 19.8099 32.4916 27.0356 30.5253L27.0694 30.5161C28.5735 30.1068 29.4639 28.5779 29.1105 27.0598C28.4712 24.3133 28.6847 21.5689 29.1752 18.8252H2.8246Z" fill="url(#paint4_linear_2_4772)"/>
<path d="M20.9586 7.94088C21.4719 8.07163 22.0065 8.01832 22.467 7.79457L19.0748 4.40239C18.8378 4.16545 16.2916 6.32757 16.0547 6.56451C15.8177 6.80145 15.8177 7.18557 16.0547 7.42251L16.4566 7.82445H20.025C20.3478 7.82451 20.6605 7.86501 20.9586 7.94088Z" fill="url(#paint5_linear_2_4772)"/>
<path d="M16.9127 7.42251C16.6757 7.65945 16.2916 7.65945 16.0547 7.42251C15.8177 7.18557 15.8177 6.80145 16.0547 6.56451C16.2916 6.32757 18.8378 4.16545 19.0748 4.40239C19.3117 4.63932 17.1496 7.18557 16.9127 7.42251Z" fill="url(#paint6_linear_2_4772)"/>
<path d="M8.50027 5.27447C8.47921 5.27784 8.4589 5.28034 8.43865 5.28034C8.27908 5.28034 8.13646 5.1664 8.1069 5.00347L7.97046 4.26165C7.92015 3.98803 8.00296 3.70497 8.19796 3.50659C8.2504 3.45328 8.30621 3.40253 8.36521 3.35497C8.41252 3.31684 8.48352 3.34222 8.49471 3.4019L8.77115 4.88109C8.80508 5.06428 8.68352 5.24072 8.50027 5.27447Z" fill="#FFBF5C"/>
<path d="M10.3651 4.97571C10.3491 4.9774 10.3339 4.97821 10.3187 4.97821C10.1524 4.97821 10.0073 4.85577 9.98438 4.68696L9.79481 3.28222C9.76769 3.08116 9.924 2.90234 10.1269 2.90234C10.2941 2.90234 10.4357 3.02566 10.4588 3.19128L10.6538 4.59496C10.6792 4.7799 10.5491 4.9504 10.3651 4.97571Z" fill="#FFBF5C"/>
<path d="M12.544 4.39511C12.5609 4.58086 12.4242 4.74543 12.2384 4.7623C12.2283 4.76311 12.2174 4.76311 12.2072 4.76311C12.0349 4.76311 11.8872 4.63143 11.8712 4.45668L11.7636 3.27099C11.7458 3.0748 11.8997 2.90536 12.0967 2.9043C12.2711 2.9033 12.4173 3.03574 12.4335 3.20943L12.544 4.39511Z" fill="#FFBF5C"/>
<path d="M14.4398 4.28105C14.4482 4.46761 14.3039 4.62548 14.1173 4.63392H14.1021C13.9223 4.63392 13.7729 4.49292 13.7644 4.31149L13.7191 3.25518C13.7108 3.06324 13.8648 2.90336 14.0569 2.9043C14.236 2.90518 14.383 3.04636 14.3913 3.2253L14.4398 4.28105Z" fill="#FFBF5C"/>
<path d="M16.3377 3.24068V4.2358C16.3377 4.41392 16.2076 4.5743 16.03 4.58961C15.83 4.60686 15.6624 4.44974 15.6624 4.25324L15.665 3.2398C15.6655 3.05368 15.817 2.90336 16.0031 2.9043C16.1882 2.9053 16.3377 3.05555 16.3377 3.24068Z" fill="#FFBF5C"/>
<path d="M17.9428 2.9043C18.1349 2.90336 18.2889 3.06318 18.2806 3.25511L18.2352 4.31142C18.2267 4.49286 18.0774 4.63386 17.8976 4.63386H17.8824C17.6958 4.62542 17.5514 4.46761 17.5599 4.28099L17.6084 3.22518C17.6166 3.0463 17.7636 2.90518 17.9428 2.9043Z" fill="#FFBF5C"/>
<path d="M19.9033 2.9043C20.1002 2.90543 20.2541 3.07487 20.2364 3.27099L20.1288 4.45667C20.1127 4.63142 19.9651 4.76311 19.7928 4.76311C19.7827 4.76311 19.7717 4.76311 19.7616 4.7623C19.5758 4.74542 19.4391 4.5808 19.456 4.39511L19.5666 3.20949C19.5827 3.03574 19.7289 2.90324 19.9033 2.9043Z" fill="#FFBF5C"/>
<path d="M21.8731 2.90234C22.076 2.90234 22.2322 3.08116 22.2052 3.28222L22.0156 4.68696C21.9929 4.85584 21.8476 4.97821 21.6813 4.97821C21.6661 4.97821 21.6509 4.9774 21.6349 4.97571C21.4509 4.95034 21.3208 4.7799 21.3462 4.59496L21.5412 3.19128C21.5643 3.02566 21.7059 2.90234 21.8731 2.90234Z" fill="#FFBF5C"/>
<path d="M23.8235 3.59995C23.9956 3.78464 24.07 4.03976 24.0245 4.28801L23.8929 5.00351C23.8633 5.16645 23.7206 5.27951 23.5611 5.27951C23.5409 5.27951 23.5206 5.27782 23.4995 5.27445C23.3164 5.2407 23.1948 5.06426 23.2285 4.88101L23.4523 3.66251C23.4815 3.50339 23.6795 3.44539 23.7898 3.56376C23.801 3.57583 23.8122 3.58789 23.8235 3.59995Z" fill="#FFBF5C"/>
<path d="M27.0357 30.5253L27.0695 30.5161C28.5736 30.1067 29.4641 28.5779 29.1107 27.0597C28.1606 22.9781 29.0933 18.9011 30.0209 14.8241L26.8299 11.6332C26.5524 11.3247 26.197 11.0798 25.782 10.9318C22.9772 9.93228 19.6148 9.3501 16.0001 9.3501C12.3854 9.3501 9.02297 9.93228 6.21817 10.9318C5.00017 11.3659 4.29523 12.634 4.56554 13.8984C5.37092 17.6657 6.4846 21.4323 5.61679 25.2037C5.49435 25.7364 5.5611 26.2708 5.77385 26.7308C5.9066 27.0176 6.09685 27.2751 6.33373 27.4858L10.4839 31.636C16.0015 32.3667 21.6289 31.9966 27.0357 30.5253Z" fill="url(#paint7_linear_2_4772)"/>
<path d="M26.3834 25.2037C26.5059 25.7363 26.4391 26.2708 26.2264 26.7308C25.9529 27.3217 25.4371 27.7902 24.7669 27.9751L24.7398 27.9818C19.0171 29.5587 12.983 29.5587 7.26035 27.9818L7.23335 27.9751C6.56304 27.7901 6.04729 27.3217 5.77379 26.7308C5.5611 26.2706 5.49441 25.7363 5.61679 25.2037C6.4846 21.4323 5.37091 17.6658 4.56554 13.8984C4.29523 12.634 5.00023 11.3659 6.21816 10.9318C9.02297 9.93228 12.3854 9.3501 16.0001 9.3501C19.6148 9.3501 22.9772 9.93228 25.782 10.9318C27 11.3659 27.7049 12.634 27.4346 13.8984C26.6294 17.6658 25.5156 21.4324 26.3834 25.2037Z" fill="url(#paint8_linear_2_4772)"/>
<path d="M25.8053 24.9059C25.9208 25.4119 25.8579 25.9195 25.657 26.3566C25.3988 26.9179 24.9116 27.363 24.2787 27.5386L24.2532 27.545C18.8492 29.043 13.151 29.043 7.74704 27.545L7.72147 27.5386C7.08847 27.363 6.60147 26.9179 6.34316 26.3566C6.14223 25.9196 6.07935 25.412 6.19491 24.9059C7.01435 21.3234 5.96273 17.7454 5.20223 14.1668C4.94698 12.9657 5.61273 11.7611 6.76291 11.3488C9.41147 10.3993 12.5868 9.84619 16.0001 9.84619C19.4134 9.84619 22.5887 10.3993 25.2373 11.3488C26.3874 11.7611 27.0532 12.9656 26.7979 14.1667C26.0374 17.7454 24.9858 21.3234 25.8053 24.9059Z" fill="url(#paint9_linear_2_4772)"/>
<path d="M23.2957 16.8834C22.8097 17.0524 22.3238 17.1399 21.8379 17.2025C21.352 17.262 20.8661 17.2898 20.3802 17.2891C19.8943 17.2887 13.981 17.2609 13.4951 17.2014C13.0092 17.1385 12.5232 17.0514 12.0374 16.8834L10.3708 15.2169C10.8567 15.0489 11.3427 14.9617 11.8285 14.8987C12.3145 14.8392 12.8004 14.8115 13.2862 14.811C13.7722 14.8104 19.6855 14.8382 20.1713 14.8976C20.6573 14.9602 21.1432 15.0477 21.6291 15.2168L23.2957 16.8834Z" fill="url(#paint10_linear_2_4772)"/>
<path d="M10.3706 15.2169C10.8565 15.0489 11.3424 14.9617 11.8283 14.8987C12.3142 14.8392 12.8002 14.8115 13.286 14.811C13.7719 14.8104 19.6852 14.8382 20.1711 14.8976C20.657 14.9602 21.1429 15.0477 21.6288 15.2168C21.1429 15.3859 20.657 15.4734 20.1711 15.536C19.6852 15.5955 13.7718 15.6232 13.286 15.6225C12.8001 15.6221 12.3142 15.5944 11.8283 15.5349C11.3424 15.472 10.8565 15.3849 10.3706 15.2169Z" fill="url(#paint11_linear_2_4772)"/>
<path d="M23.2957 19.1998C22.8097 19.3688 22.3238 19.4563 21.8379 19.5189C21.352 19.5784 20.8661 19.6062 20.3802 19.6055C19.8943 19.6051 13.981 19.5773 13.4951 19.5178C13.0092 19.4549 12.5232 19.3677 12.0374 19.1997L10.3708 17.5332C10.8567 17.3652 11.3427 17.278 11.8285 17.2151C12.3145 17.1556 12.8004 17.1279 13.2862 17.1275C13.7722 17.1268 19.6855 17.1546 20.1713 17.214C20.6573 17.2766 21.1432 17.3641 21.6291 17.5332L23.2957 19.1998Z" fill="url(#paint12_linear_2_4772)"/>
<path d="M10.3706 17.5332C10.8565 17.3652 11.3424 17.278 11.8283 17.2151C12.3142 17.1556 12.8002 17.1279 13.286 17.1275C13.7719 17.1268 19.6852 17.1546 20.1711 17.214C20.657 17.2766 21.1429 17.3641 21.6288 17.5332C21.1429 17.7023 20.657 17.7898 20.1711 17.8524C19.6852 17.9119 13.7718 17.9396 13.286 17.9389C12.8001 17.9385 12.3142 17.9108 11.8283 17.8512C11.3424 17.7884 10.8565 17.7011 10.3706 17.5332Z" fill="url(#paint13_linear_2_4772)"/>
<path d="M23.2957 21.5162C22.8097 21.6852 22.3238 21.7727 21.8379 21.8354C21.352 21.8949 20.8661 21.9226 20.3802 21.9219C19.8943 21.9215 13.981 21.8937 13.4951 21.8342C13.0092 21.7714 12.5232 21.6842 12.0374 21.5162L10.3708 19.8497C10.8567 19.6817 11.3427 19.5945 11.8285 19.5316C12.3145 19.472 12.8004 19.4444 13.2862 19.4439C13.7722 19.4432 19.6855 19.471 20.1713 19.5304C20.6573 19.593 21.1432 19.6805 21.6291 19.8496L23.2957 21.5162Z" fill="url(#paint14_linear_2_4772)"/>
<path d="M10.3706 19.8492C10.8565 19.6812 11.3424 19.594 11.8283 19.5311C12.3142 19.4716 12.8002 19.4439 13.286 19.4434C13.7719 19.4427 19.6852 19.4705 20.1711 19.5299C20.657 19.5926 21.1429 19.6801 21.6288 19.8491C21.1429 20.0182 20.657 20.1057 20.1711 20.1683C19.6852 20.2278 13.7718 20.2556 13.286 20.2549C12.8001 20.2545 12.3142 20.2267 11.8283 20.1672C11.3424 20.1044 10.8565 20.0172 10.3706 19.8492Z" fill="url(#paint15_linear_2_4772)"/>
<path d="M23.2957 23.8321C22.8097 24.0011 22.3238 24.0886 21.8379 24.1513C21.352 24.2108 20.8661 24.2385 20.3802 24.2378C19.8943 24.2374 13.981 24.2096 13.4951 24.1501C13.0092 24.0872 12.5232 24 12.0374 23.832L10.3708 22.1655C10.8567 21.9975 11.3427 21.9103 11.8285 21.8475C12.3145 21.7879 12.8004 21.7602 13.2862 21.7598C13.7722 21.7592 19.6855 21.787 20.1713 21.8463C20.6573 21.909 21.1432 21.9965 21.6291 22.1655L23.2957 23.8321Z" fill="url(#paint16_linear_2_4772)"/>
<path d="M10.3706 22.1655C10.8565 21.9975 11.3424 21.9103 11.8283 21.8475C12.3142 21.7879 12.8002 21.7602 13.286 21.7598C13.7719 21.7592 19.6852 21.787 20.1711 21.8463C20.657 21.909 21.1429 21.9965 21.6288 22.1655C21.1429 22.3346 20.657 22.4221 20.1711 22.4847C19.6852 22.5442 13.7718 22.572 13.286 22.5713C12.8001 22.5708 12.3142 22.5431 11.8283 22.4835C11.3424 22.4207 10.8565 22.3335 10.3706 22.1655Z" fill="url(#paint17_linear_2_4772)"/>
</g>
<defs>
<linearGradient id="paint0_linear_2_4772" x1="19.8827" y1="16.0396" x2="-23.4286" y2="12.9726" gradientUnits="userSpaceOnUse">
<stop stop-color="#FFE7A5"/>
<stop offset="0.966" stop-color="#FFBF5C"/>
</linearGradient>
<linearGradient id="paint1_linear_2_4772" x1="13.5672" y1="15.9472" x2="45.121" y2="12.8802" gradientUnits="userSpaceOnUse">
<stop stop-color="#FFE7A5"/>
<stop offset="0.966" stop-color="#FFBF5C"/>
</linearGradient>
<linearGradient id="paint2_linear_2_4772" x1="15.9996" y1="4.12052" x2="15.9996" y2="1.05355" gradientUnits="userSpaceOnUse">
<stop stop-color="#FFE7A5"/>
<stop offset="0.966" stop-color="#FFBF5C"/>
</linearGradient>
<linearGradient id="paint3_linear_2_4772" x1="15.9998" y1="4.26361" x2="15.9998" y2="1.59914" gradientUnits="userSpaceOnUse">
<stop stop-color="#E2EDF2"/>
<stop offset="1" stop-color="#9FC7E2"/>
</linearGradient>
<linearGradient id="paint4_linear_2_4772" x1="15.9995" y1="28.3646" x2="15.9995" y2="41.6757" gradientUnits="userSpaceOnUse">
<stop stop-color="#FF5D00" stop-opacity="0"/>
<stop offset="1" stop-color="#D54003"/>
</linearGradient>
<linearGradient id="paint5_linear_2_4772" x1="20.652" y1="9.00067" x2="17.4609" y2="5.80952" gradientUnits="userSpaceOnUse">
<stop stop-color="#E2EDF2" stop-opacity="0"/>
<stop offset="1" stop-color="#9FC7E2"/>
</linearGradient>
<linearGradient id="paint6_linear_2_4772" x1="17.2716" y1="5.6205" x2="17.9084" y2="6.25672" gradientUnits="userSpaceOnUse">
<stop stop-color="#FF7BAC"/>
<stop offset="1" stop-color="#E24786"/>
</linearGradient>
<linearGradient id="paint7_linear_2_4772" x1="22.3637" y1="25.3423" x2="2.81701" y2="5.79575" gradientUnits="userSpaceOnUse">
<stop stop-color="#FF5D00" stop-opacity="0"/>
<stop offset="1" stop-color="#D54003"/>
</linearGradient>
<linearGradient id="paint8_linear_2_4772" x1="22.5467" y1="19.1404" x2="-13.0176" y2="19.7767" gradientUnits="userSpaceOnUse">
<stop stop-color="#FF7BAC"/>
<stop offset="1" stop-color="#E24786"/>
</linearGradient>
<linearGradient id="paint9_linear_2_4772" x1="11.1539" y1="19.1059" x2="31.4948" y2="19.7421" gradientUnits="userSpaceOnUse">
<stop stop-color="#FF7BAC"/>
<stop offset="1" stop-color="#E24786"/>
</linearGradient>
<linearGradient id="paint10_linear_2_4772" x1="16.8329" y1="16.7009" x2="16.8329" y2="13.8203" gradientUnits="userSpaceOnUse">
<stop stop-color="#FF7BAC" stop-opacity="0"/>
<stop offset="1" stop-color="#9E2E4F"/>
</linearGradient>
<linearGradient id="paint11_linear_2_4772" x1="17.2722" y1="15.1612" x2="0.000833162" y2="15.6411" gradientUnits="userSpaceOnUse">
<stop stop-color="#FF7BAC"/>
<stop offset="1" stop-color="#E24786"/>
</linearGradient>
<linearGradient id="paint12_linear_2_4772" x1="16.8329" y1="19.017" x2="16.8329" y2="16.1365" gradientUnits="userSpaceOnUse">
<stop stop-color="#FF7BAC" stop-opacity="0"/>
<stop offset="1" stop-color="#9E2E4F"/>
</linearGradient>
<linearGradient id="paint13_linear_2_4772" x1="17.2723" y1="17.4775" x2="0.000839708" y2="17.9581" gradientUnits="userSpaceOnUse">
<stop stop-color="#FF7BAC"/>
<stop offset="1" stop-color="#E24786"/>
</linearGradient>
<linearGradient id="paint14_linear_2_4772" x1="16.8329" y1="21.3331" x2="16.8329" y2="18.4526" gradientUnits="userSpaceOnUse">
<stop stop-color="#FF7BAC" stop-opacity="0"/>
<stop offset="1" stop-color="#9E2E4F"/>
</linearGradient>
<linearGradient id="paint15_linear_2_4772" x1="17.2723" y1="19.7934" x2="0.000845915" y2="20.274" gradientUnits="userSpaceOnUse">
<stop stop-color="#FF7BAC"/>
<stop offset="1" stop-color="#E24786"/>
</linearGradient>
<linearGradient id="paint16_linear_2_4772" x1="16.8329" y1="23.6494" x2="16.8329" y2="20.7688" gradientUnits="userSpaceOnUse">
<stop stop-color="#FF7BAC" stop-opacity="0"/>
<stop offset="1" stop-color="#9E2E4F"/>
</linearGradient>
<linearGradient id="paint17_linear_2_4772" x1="17.2723" y1="22.1098" x2="0.000833673" y2="22.5897" gradientUnits="userSpaceOnUse">
<stop stop-color="#FF7BAC"/>
<stop offset="1" stop-color="#E24786"/>
</linearGradient>
<clipPath id="clip0_2_4772">
<rect width="32" height="32" fill="white"/>
</clipPath>
</defs>
</svg>
